<svg width="500" height="500" viewBox="0 0 500 500" fill="none" xmlns="http://www.w3.org/2000/svg">
<path d="M250.001 470.12C332.325 470.12 399.061 460.682 399.061 449.04C399.061 437.398 332.325 427.96 250.001 427.96C167.678 427.96 100.941 437.398 100.941 449.04C100.941 460.682 167.678 470.12 250.001 470.12Z" fill="#EBEBEB"/>
<path d="M157.569 227.67L151.359 203.24L102.359 215.71L95.8789 190.21L134.999 100.89L154.469 96L173.369 170.36L189.059 166.36L195.589 192L179.899 196L186.099 220.43L157.569 227.67ZM123.999 182.87L148.259 176.7L140.259 145.14L123.999 182.87Z" fill="#263238"/>
<path d="M297.998 146.12C298.077 153.727 296.832 161.29 294.318 168.47C292.064 174.934 288.633 180.925 284.198 186.14C280.003 191.029 274.823 194.978 268.998 197.73C263.054 200.513 256.561 201.927 249.998 201.87C243.39 201.927 236.852 200.513 230.858 197.73C225.007 194.988 219.803 191.038 215.588 186.14C211.171 180.933 207.778 174.938 205.588 168.47C203.129 161.278 201.915 153.72 201.998 146.12C201.914 138.517 203.128 130.955 205.588 123.76C207.78 117.296 211.173 111.305 215.588 106.1C219.813 101.189 225.013 97.2117 230.858 94.42C236.836 91.5802 243.38 90.1339 249.998 90.19C256.571 90.1334 263.07 91.5803 268.998 94.42C274.81 97.2242 279.978 101.201 284.178 106.1C288.611 111.313 292.042 117.3 294.298 123.76C296.819 130.942 298.071 138.508 297.998 146.12ZM268.378 146.12C268.378 137.533 266.662 130.573 263.228 125.24C259.795 119.907 255.378 117.24 249.978 117.24C244.338 117.24 239.832 119.907 236.458 125.24C233.085 130.573 231.398 137.533 231.398 146.12C231.398 154.707 233.085 161.637 236.458 166.91C239.832 172.183 244.345 174.82 249.998 174.82C255.398 174.82 259.815 172.183 263.248 166.91C266.682 161.637 268.398 154.707 268.398 146.12H268.378Z" fill="#263238"/>
<path d="M350.84 223L354.84 198.12L304.93 190L309.14 164L380.64 97.67L400.44 100.88L388.17 176.62L404.17 179.21L399.94 205.36L383.94 202.77L379.94 227.65L350.84 223ZM337.84 168.53L362.54 172.53L367.75 140.38L337.84 168.53Z" fill="#263238"/>
<path d="M208.678 72.46C206.716 72.4839 204.775 72.0634 202.998 71.23C201.33 70.442 199.834 69.3305 198.598 67.96C196.139 65.2065 194.767 61.6517 194.738 57.96C194.731 56.0742 195.094 54.2054 195.808 52.46C196.501 50.7465 197.5 49.1739 198.758 47.82C200.017 46.4647 201.533 45.3735 203.218 44.61C204.981 43.805 206.9 43.3986 208.838 43.42C210.802 43.3943 212.744 43.8293 214.508 44.69C216.155 45.5028 217.629 46.6268 218.848 48C220.07 49.3779 221.029 50.9673 221.678 52.69C223.052 56.159 223.052 60.021 221.678 63.49C221 65.1925 220.013 66.7553 218.768 68.1C217.514 69.447 216.005 70.5313 214.328 71.29C212.553 72.0885 210.625 72.4878 208.678 72.46ZM200.348 57.92C200.345 59.1395 200.537 60.3516 200.918 61.51C201.272 62.6254 201.828 63.666 202.558 64.58C203.267 65.4739 204.161 66.204 205.178 66.72C206.275 67.2733 207.49 67.5512 208.718 67.53C209.959 67.5567 211.187 67.2713 212.288 66.7C213.312 66.1628 214.209 65.4126 214.918 64.5C215.638 63.5759 216.183 62.5289 216.528 61.41C217.288 59.1078 217.288 56.6223 216.528 54.32C216.162 53.208 215.604 52.1689 214.878 51.25C214.163 50.3642 213.266 49.6414 212.248 49.13C211.143 48.5967 209.931 48.3198 208.703 48.3198C207.476 48.3198 206.264 48.5967 205.158 49.13C204.135 49.6589 203.238 50.4025 202.528 51.31C201.822 52.2316 201.283 53.271 200.938 54.38C200.56 55.5224 200.361 56.7166 200.348 57.92Z" fill="#263238"/>
<path d="M236.229 72.66C234.634 72.6897 233.051 72.3865 231.579 71.77C230.263 71.2194 229.075 70.4023 228.089 69.37C227.133 68.3616 226.382 67.1761 225.879 65.88C224.866 63.1821 224.866 60.208 225.879 57.51C226.38 56.2068 227.13 55.0144 228.089 54C229.075 52.9678 230.263 52.1506 231.579 51.6C233.051 50.9835 234.634 50.6804 236.229 50.71C237.815 50.6801 239.389 50.9833 240.849 51.6C242.158 52.1535 243.34 52.9705 244.319 54C245.276 55.0084 246.027 56.194 246.529 57.49C247.543 60.188 247.543 63.1621 246.529 65.86C246.03 67.1508 245.29 68.3351 244.349 69.35C243.368 70.382 242.183 71.1992 240.869 71.75C239.403 72.3726 237.822 72.6825 236.229 72.66ZM230.689 61.72C230.676 62.5924 230.822 63.4598 231.119 64.28C231.38 65.0143 231.777 65.6928 232.289 66.28C232.76 66.8335 233.343 67.2801 233.999 67.59C234.686 67.9001 235.431 68.0604 236.184 68.0604C236.938 68.0604 237.683 67.9001 238.369 67.59C239.04 67.285 239.638 66.838 240.119 66.28C240.631 65.6909 241.031 65.0131 241.299 64.28C241.588 63.4475 241.73 62.5712 241.719 61.69C241.727 60.8254 241.585 59.9661 241.299 59.15C241.031 58.417 240.631 57.7392 240.119 57.15C239.638 56.592 239.04 56.1451 238.369 55.84C237.685 55.5266 236.942 55.3662 236.189 55.37C235.431 55.3625 234.682 55.5302 233.999 55.86C233.331 56.1792 232.736 56.6318 232.249 57.19C231.737 57.7772 231.34 58.4558 231.079 59.19C230.8 60.0036 230.668 60.8602 230.689 61.72Z" fill="#263238"/>
<path d="M263.61 72.66C262.082 72.6964 260.574 72.3124 259.25 71.55C258.027 70.831 257.021 69.7943 256.34 68.55V80.86H250.93V51.09H255.66V54.73C256.402 53.5202 257.433 52.5135 258.66 51.8C259.984 51.0588 261.483 50.6892 263 50.73C264.382 50.7125 265.75 51.01 267 51.6C268.188 52.165 269.252 52.9604 270.13 53.94C271.024 54.9598 271.723 56.1362 272.19 57.41C272.689 58.7606 272.939 60.1902 272.93 61.63C272.939 63.1006 272.709 64.563 272.25 65.96C271.827 67.2366 271.177 68.4258 270.33 69.47C269.532 70.451 268.533 71.249 267.4 71.81C266.223 72.395 264.923 72.6867 263.61 72.66ZM261.8 68.06C262.578 68.0641 263.346 67.8824 264.04 67.53C264.715 67.1867 265.311 66.7065 265.79 66.12C266.291 65.5078 266.677 64.8099 266.93 64.06C267.198 63.2782 267.334 62.4567 267.33 61.63C267.334 60.7835 267.185 59.9433 266.89 59.15C266.608 58.4102 266.187 57.7313 265.65 57.15C265.127 56.5845 264.494 56.1319 263.79 55.82C263.062 55.4874 262.27 55.3201 261.47 55.33C260.935 55.3345 260.405 55.4257 259.9 55.6C259.365 55.7691 258.859 56.0186 258.4 56.34C257.944 56.6632 257.53 57.0429 257.17 57.47C256.814 57.8926 256.533 58.3729 256.34 58.89V63.89C256.809 65.0646 257.574 66.098 258.56 66.89C259.473 67.6418 260.617 68.0551 261.8 68.06Z" fill="#263238"/>
<path d="M284.538 72.66C282.767 72.6632 281.007 72.3761 279.328 71.81C277.74 71.296 276.268 70.4736 274.998 69.39L276.998 66C278.17 66.8431 279.439 67.5415 280.778 68.08C281.945 68.5363 283.185 68.7736 284.438 68.78C285.325 68.826 286.206 68.6178 286.978 68.18C287.27 67.9951 287.51 67.7376 287.673 67.4327C287.836 67.1277 287.917 66.7857 287.908 66.44C287.917 66.0865 287.817 65.7389 287.622 65.4439C287.427 65.1489 287.147 64.9207 286.818 64.79C285.669 64.2903 284.482 63.8824 283.268 63.57C281.888 63.2 280.718 62.83 279.748 62.48C278.913 62.2028 278.124 61.8017 277.408 61.29C276.855 60.8975 276.411 60.3711 276.118 59.76C275.832 59.1048 275.692 58.3949 275.708 57.68C275.692 56.6745 275.907 55.6787 276.338 54.77C276.75 53.9125 277.352 53.1601 278.098 52.57C278.884 51.9442 279.779 51.4695 280.738 51.17C281.804 50.8421 282.913 50.6802 284.028 50.69C285.545 50.6804 287.053 50.9099 288.498 51.37C289.908 51.8428 291.205 52.602 292.308 53.6L290.128 56.87C289.175 56.1298 288.121 55.5303 286.998 55.09C286.041 54.7202 285.024 54.5271 283.998 54.52C283.193 54.4924 282.397 54.6898 281.698 55.09C281.394 55.2817 281.147 55.5519 280.983 55.8722C280.819 56.1925 280.745 56.551 280.768 56.91C280.759 57.2339 280.835 57.5546 280.988 57.84C281.168 58.1092 281.412 58.3292 281.698 58.48C282.103 58.704 282.528 58.8882 282.968 59.03C283.498 59.2 284.148 59.39 284.968 59.57C286.428 59.95 287.668 60.33 288.708 60.71C289.589 61.0187 290.421 61.4532 291.178 62C291.794 62.4289 292.295 63.0023 292.638 63.67C292.969 64.4008 293.127 65.1982 293.098 66C293.134 66.9426 292.944 67.8801 292.544 68.7343C292.144 69.5885 291.545 70.3345 290.798 70.91C288.964 72.1741 286.761 72.79 284.538 72.66Z" fill="#263238"/>
<path d="M297.668 61.47V43.29H303.078V61.47H297.668ZM297.668 72.26V66.16H303.078V72.26H297.668Z" fill="#263238"/>
<path d="M270.6 313.85H235.09V316.76H270.6V313.85Z" fill="#37474F"/>
<path d="M270.6 317.63H235.09V320.54H270.6V317.63Z" fill="#37474F"/>
<path d="M270.6 321.42H235.09V324.33H270.6V321.42Z" fill="#37474F"/>
<path d="M270.6 325.21H235.09V328.12H270.6V325.21Z" fill="#37474F"/>
<path d="M270.6 329H235.09V331.91H270.6V329Z" fill="#37474F"/>
<path d="M285.981 404.59H218.461V407.5H285.981V404.59Z" fill="#37474F"/>
<path d="M285.981 408.38H218.461V411.29H285.981V408.38Z" fill="#37474F"/>
<path d="M285.981 412.17H218.461V415.08H285.981V412.17Z" fill="#37474F"/>
<path d="M285.981 415.96H218.461V418.87H285.981V415.96Z" fill="#37474F"/>
<path d="M285.981 419.75H218.461V422.66H285.981V419.75Z" fill="#37474F"/>
<path d="M188.831 289.8C188.831 289.41 174.061 284.44 174.061 284.44L174.931 233.56L194.571 229.34L188.831 289.8Z" fill="#407BFF"/>
<path opacity="0.2" d="M188.831 289.8C188.831 289.41 174.061 284.44 174.061 284.44L174.931 233.56L194.571 229.34L188.831 289.8Z" fill="black"/>
<path d="M324.49 309.77C324.59 309.39 340.21 309.83 340.21 309.83L356.9 261.75L339.9 251.04L324.49 309.77Z" fill="#407BFF"/>
<path opacity="0.2" d="M324.49 309.77C324.59 309.39 340.21 309.83 340.21 309.83L356.9 261.75L339.9 251.04L324.49 309.77Z" fill="black"/>
<path d="M186 308.54C186 308.54 191.49 226.24 196.31 199.16C196.31 199.16 295.73 206.68 349.4 227.16C349.4 227.16 321.73 323.28 320.3 328.05C320.28 328.09 250.27 314.3 186 308.54Z" fill="#407BFF"/>
<path opacity="0.1" d="M274.721 210.15C273.108 220.057 271.461 229.963 269.781 239.87L264.651 269.54L264.381 269.13L297.691 277L314.331 281L330.941 285.11L314.241 281.37L297.551 277.56L264.211 269.77L263.871 269.69L263.931 269.35L269.241 239.7C271.021 229.9 272.848 220.05 274.721 210.15Z" fill="black"/>
<path opacity="0.1" d="M271.071 215.8C271.061 216.28 270.878 216.739 270.557 217.095C270.235 217.451 269.797 217.68 269.321 217.74C269.058 217.76 268.794 217.728 268.543 217.646C268.293 217.564 268.061 217.432 267.861 217.26C267.656 217.075 267.492 216.85 267.379 216.599C267.265 216.348 267.205 216.076 267.201 215.8C267.205 215.524 267.265 215.252 267.379 215.001C267.492 214.75 267.656 214.525 267.861 214.34C268.142 214.097 268.486 213.94 268.854 213.886C269.221 213.833 269.596 213.887 269.934 214.041C270.272 214.194 270.559 214.442 270.761 214.754C270.962 215.066 271.07 215.429 271.071 215.8ZM271.071 215.8C271.069 215.574 271.018 215.351 270.924 215.146C270.829 214.941 270.692 214.758 270.521 214.61C270.293 214.416 270.014 214.291 269.717 214.25C269.42 214.209 269.117 214.254 268.845 214.38C268.573 214.505 268.342 214.706 268.18 214.959C268.019 215.212 267.933 215.505 267.933 215.805C267.933 216.105 268.019 216.399 268.18 216.651C268.342 216.904 268.573 217.105 268.845 217.23C269.117 217.356 269.42 217.401 269.717 217.36C270.014 217.32 270.293 217.195 270.521 217C270.691 216.849 270.828 216.664 270.922 216.458C271.017 216.251 271.068 216.027 271.071 215.8Z" fill="black"/>
<path opacity="0.1" d="M269.321 228.05C269.323 228.531 269.146 228.995 268.825 229.352C268.503 229.709 268.059 229.933 267.581 229.98C267.312 230.008 267.04 229.979 266.782 229.895C266.525 229.81 266.289 229.672 266.088 229.49C265.888 229.308 265.729 229.085 265.621 228.837C265.513 228.589 265.458 228.321 265.461 228.05C265.459 227.774 265.517 227.502 265.629 227.25C265.741 226.998 265.905 226.773 266.111 226.59C266.312 226.416 266.545 226.285 266.798 226.202C267.05 226.12 267.316 226.088 267.581 226.11C268.055 226.172 268.491 226.402 268.81 226.758C269.13 227.114 269.311 227.572 269.321 228.05ZM269.321 228.05C269.32 227.822 269.27 227.598 269.176 227.391C269.081 227.184 268.943 226.999 268.771 226.85C268.608 226.712 268.418 226.609 268.213 226.547C268.009 226.485 267.793 226.466 267.581 226.49C267.198 226.533 266.844 226.717 266.587 227.004C266.33 227.292 266.188 227.664 266.188 228.05C266.188 228.436 266.33 228.808 266.587 229.096C266.844 229.383 267.198 229.567 267.581 229.61C267.8 229.636 268.023 229.614 268.233 229.547C268.444 229.48 268.638 229.369 268.802 229.222C268.967 229.074 269.098 228.894 269.188 228.692C269.277 228.49 269.323 228.271 269.321 228.05Z" fill="black"/>
<path opacity="0.1" d="M267.171 241C267.173 241.481 266.996 241.945 266.674 242.302C266.352 242.659 265.909 242.883 265.431 242.93C265.033 242.938 264.643 242.828 264.308 242.613C263.974 242.399 263.711 242.089 263.553 241.724C263.395 241.359 263.35 240.956 263.422 240.565C263.495 240.174 263.682 239.814 263.961 239.53C264.162 239.358 264.396 239.228 264.649 239.147C264.901 239.067 265.167 239.037 265.431 239.06C265.91 239.11 266.353 239.336 266.675 239.694C266.997 240.053 267.173 240.518 267.171 241ZM267.171 241C267.17 240.772 267.12 240.548 267.025 240.341C266.93 240.134 266.793 239.949 266.621 239.8C266.457 239.662 266.268 239.559 266.063 239.497C265.858 239.435 265.643 239.416 265.431 239.44C265.048 239.483 264.694 239.667 264.437 239.954C264.18 240.242 264.038 240.614 264.038 241C264.038 241.386 264.18 241.758 264.437 242.046C264.694 242.333 265.048 242.517 265.431 242.56C265.644 242.58 265.859 242.558 266.063 242.494C266.267 242.43 266.457 242.327 266.621 242.19C266.793 242.043 266.932 241.861 267.027 241.656C267.122 241.45 267.171 241.226 267.171 241Z" fill="black"/>
<path opacity="0.1" d="M265.001 253.93C265.001 254.41 264.823 254.873 264.502 255.229C264.18 255.586 263.738 255.811 263.261 255.86C262.995 255.879 262.728 255.843 262.477 255.755C262.225 255.666 261.995 255.527 261.8 255.345C261.605 255.164 261.449 254.944 261.343 254.7C261.237 254.455 261.182 254.192 261.182 253.925C261.182 253.659 261.237 253.395 261.343 253.151C261.449 252.906 261.605 252.686 261.8 252.505C261.995 252.323 262.225 252.184 262.477 252.095C262.728 252.007 262.995 251.971 263.261 251.99C263.74 252.04 264.183 252.266 264.505 252.624C264.827 252.983 265.003 253.448 265.001 253.93ZM265.001 253.93C265 253.702 264.95 253.478 264.855 253.271C264.761 253.064 264.623 252.879 264.451 252.73C264.287 252.592 264.098 252.489 263.893 252.427C263.688 252.365 263.473 252.346 263.261 252.37C262.878 252.414 262.524 252.597 262.267 252.884C262.01 253.172 261.868 253.544 261.868 253.93C261.868 254.316 262.01 254.688 262.267 254.976C262.524 255.264 262.878 255.447 263.261 255.49C263.474 255.51 263.689 255.488 263.893 255.424C264.097 255.361 264.287 255.257 264.451 255.12C264.621 254.972 264.759 254.789 264.853 254.584C264.948 254.379 264.998 254.156 265.001 253.93Z" fill="black"/>
<path opacity="0.1" d="M272.351 274.56C272.351 274.952 272.232 275.335 272.011 275.658C271.789 275.981 271.475 276.229 271.109 276.371C270.744 276.512 270.344 276.539 269.963 276.448C269.582 276.358 269.237 276.154 268.974 275.864C268.71 275.574 268.541 275.21 268.488 274.822C268.436 274.434 268.502 274.039 268.678 273.689C268.854 273.339 269.132 273.05 269.475 272.861C269.818 272.672 270.211 272.592 270.601 272.63C271.08 272.677 271.524 272.901 271.848 273.258C272.171 273.614 272.351 274.079 272.351 274.56ZM272.351 274.56C272.347 274.333 272.296 274.109 272.202 273.902C272.107 273.696 271.97 273.511 271.801 273.36C271.635 273.223 271.443 273.121 271.237 273.059C271.031 272.998 270.815 272.977 270.601 273C270.358 273.03 270.126 273.115 269.922 273.25C269.718 273.386 269.549 273.566 269.427 273.779C269.306 273.991 269.236 274.228 269.222 274.472C269.209 274.717 269.253 274.96 269.35 275.185C269.448 275.409 269.596 275.607 269.784 275.764C269.971 275.92 270.193 276.031 270.431 276.087C270.669 276.143 270.917 276.142 271.155 276.086C271.392 276.029 271.614 275.917 271.801 275.76C271.97 275.609 272.107 275.424 272.202 275.218C272.296 275.011 272.347 274.787 272.351 274.56Z" fill="black"/>
<path opacity="0.1" d="M284.56 277.54C284.559 277.911 284.451 278.274 284.249 278.586C284.048 278.898 283.761 279.146 283.423 279.299C283.085 279.453 282.71 279.507 282.343 279.454C281.975 279.4 281.631 279.243 281.35 279C281.142 278.818 280.975 278.593 280.861 278.342C280.747 278.09 280.688 277.817 280.688 277.54C280.688 277.264 280.747 276.99 280.861 276.738C280.975 276.487 281.142 276.262 281.35 276.08C281.55 275.909 281.783 275.78 282.033 275.7C282.284 275.619 282.548 275.588 282.81 275.61C283.29 275.655 283.736 275.878 284.06 276.235C284.384 276.592 284.562 277.058 284.56 277.54ZM284.56 277.54C284.559 277.312 284.509 277.088 284.415 276.881C284.32 276.674 284.182 276.489 284.01 276.34C283.844 276.203 283.652 276.101 283.446 276.039C283.24 275.978 283.024 275.957 282.81 275.98C282.567 276.01 282.335 276.095 282.131 276.23C281.928 276.366 281.758 276.546 281.637 276.759C281.515 276.971 281.445 277.208 281.432 277.452C281.418 277.697 281.462 277.94 281.56 278.165C281.657 278.389 281.806 278.587 281.993 278.744C282.181 278.9 282.402 279.011 282.64 279.067C282.878 279.123 283.126 279.122 283.364 279.066C283.602 279.009 283.823 278.897 284.01 278.74C284.182 278.591 284.32 278.406 284.415 278.199C284.509 277.992 284.559 277.768 284.56 277.54Z" fill="black"/>
<path opacity="0.1" d="M296.77 280.52C296.771 280.891 296.666 281.255 296.465 281.568C296.265 281.88 295.979 282.129 295.641 282.283C295.304 282.437 294.929 282.49 294.561 282.436C294.194 282.383 293.85 282.224 293.57 281.98C293.365 281.795 293.201 281.57 293.088 281.319C292.974 281.068 292.914 280.796 292.91 280.52C292.909 280.244 292.966 279.972 293.078 279.72C293.19 279.468 293.354 279.243 293.56 279.06C293.762 278.888 293.996 278.758 294.248 278.678C294.5 278.597 294.766 278.567 295.03 278.59C295.508 278.637 295.952 278.861 296.274 279.218C296.595 279.575 296.773 280.039 296.77 280.52ZM296.77 280.52C296.771 280.293 296.723 280.069 296.63 279.862C296.537 279.655 296.401 279.47 296.23 279.32C296.057 279.188 295.859 279.091 295.647 279.036C295.436 278.981 295.216 278.969 295 279C294.617 279.043 294.263 279.227 294.006 279.514C293.749 279.802 293.607 280.174 293.607 280.56C293.607 280.946 293.749 281.318 294.006 281.606C294.263 281.893 294.617 282.077 295 282.12C295.214 282.142 295.43 282.122 295.636 282.06C295.842 281.998 296.034 281.896 296.2 281.76C296.381 281.609 296.526 281.419 296.625 281.204C296.724 280.99 296.773 280.756 296.77 280.52Z" fill="black"/>
<path opacity="0.1" d="M309.001 283.5C309 283.871 308.892 284.234 308.69 284.546C308.489 284.858 308.202 285.106 307.864 285.259C307.526 285.413 307.151 285.467 306.784 285.414C306.416 285.361 306.072 285.203 305.791 284.96C305.586 284.775 305.422 284.55 305.308 284.299C305.195 284.048 305.134 283.776 305.131 283.5C305.134 283.224 305.195 282.952 305.308 282.701C305.422 282.45 305.586 282.225 305.791 282.04C305.991 281.868 306.222 281.737 306.473 281.654C306.723 281.572 306.988 281.54 307.251 281.56C307.727 281.62 308.165 281.849 308.486 282.205C308.808 282.561 308.99 283.021 309.001 283.5ZM309.001 283.5C308.997 283.273 308.947 283.049 308.852 282.842C308.757 282.636 308.621 282.451 308.451 282.3C308.264 282.143 308.043 282.031 307.805 281.974C307.567 281.918 307.319 281.917 307.081 281.973C306.843 282.029 306.622 282.14 306.434 282.296C306.246 282.453 306.098 282.651 306 282.875C305.903 283.1 305.859 283.344 305.873 283.588C305.886 283.832 305.956 284.069 306.078 284.281C306.199 284.494 306.368 284.674 306.572 284.81C306.776 284.945 307.008 285.031 307.251 285.06C307.465 285.083 307.681 285.063 307.887 285.001C308.093 284.939 308.285 284.837 308.451 284.7C308.621 284.549 308.757 284.364 308.852 284.158C308.947 283.951 308.997 283.727 309.001 283.5Z" fill="black"/>
<path opacity="0.1" d="M321.2 286.61C321.15 287.085 320.933 287.526 320.586 287.855C320.239 288.183 319.787 288.376 319.31 288.4C319.045 288.403 318.782 288.353 318.537 288.254C318.291 288.154 318.068 288.007 317.88 287.82C317.688 287.621 317.541 287.384 317.448 287.125C317.355 286.865 317.318 286.588 317.34 286.313C317.362 286.038 317.442 285.771 317.574 285.529C317.707 285.287 317.89 285.076 318.11 284.91C318.32 284.751 318.561 284.637 318.817 284.575C319.074 284.513 319.34 284.504 319.6 284.55C320.069 284.645 320.488 284.905 320.782 285.283C321.075 285.661 321.224 286.132 321.2 286.61ZM321.2 286.61C321.215 286.384 321.181 286.158 321.102 285.946C321.023 285.734 320.899 285.541 320.74 285.38C320.527 285.168 320.258 285.022 319.965 284.959C319.672 284.895 319.366 284.917 319.085 285.022C318.804 285.126 318.558 285.309 318.378 285.549C318.198 285.789 318.09 286.075 318.067 286.375C318.044 286.674 318.108 286.973 318.25 287.238C318.393 287.502 318.608 287.72 318.87 287.865C319.132 288.011 319.431 288.079 319.73 288.06C320.03 288.041 320.318 287.937 320.56 287.76C320.742 287.625 320.893 287.452 321.004 287.254C321.114 287.056 321.181 286.836 321.2 286.61Z" fill="black"/>
<path opacity="0.1" d="M262.869 266.86C262.872 267.342 262.695 267.807 262.374 268.166C262.052 268.524 261.609 268.75 261.129 268.8C260.597 268.841 260.069 268.672 259.659 268.33C259.346 268.06 259.127 267.697 259.034 267.294C258.941 266.891 258.98 266.469 259.144 266.089C259.308 265.71 259.589 265.392 259.946 265.184C260.304 264.975 260.718 264.886 261.129 264.93C261.607 264.98 262.049 265.204 262.37 265.561C262.692 265.917 262.869 266.38 262.869 266.86ZM262.869 266.86C262.867 266.634 262.817 266.411 262.722 266.206C262.627 266.001 262.49 265.818 262.319 265.67C262.091 265.476 261.812 265.351 261.515 265.31C261.218 265.269 260.915 265.314 260.643 265.44C260.371 265.565 260.14 265.766 259.979 266.019C259.817 266.272 259.731 266.565 259.731 266.865C259.731 267.165 259.817 267.459 259.979 267.711C260.14 267.964 260.371 268.165 260.643 268.29C260.915 268.416 261.218 268.461 261.515 268.42C261.812 268.38 262.091 268.255 262.319 268.06C262.491 267.911 262.629 267.726 262.724 267.519C262.819 267.313 262.868 267.088 262.869 266.86Z" fill="black"/>
<path opacity="0.2" d="M242.306 288.309C253.9 277.885 254.848 260.036 244.424 248.442C233.999 236.848 216.15 235.9 204.557 246.325C192.963 256.749 192.015 274.598 202.439 286.192C212.864 297.786 230.713 298.733 242.306 288.309Z" fill="black"/>
<path d="M244.604 275.307C249.03 263.613 243.138 250.545 231.444 246.119C219.75 241.693 206.682 247.585 202.256 259.28C197.83 270.974 203.722 284.042 215.416 288.468C227.111 292.894 240.179 287.001 244.604 275.307Z" fill="#263238"/>
<path d="M222.072 258.995L216.781 258.138L215.924 263.429L221.215 264.286L222.072 258.995Z" fill="#407BFF"/>
<path d="M217.633 252.844L212.342 251.987L211.485 257.278L216.776 258.135L217.633 252.844Z" fill="#407BFF"/>
<path d="M238.803 256.275L233.512 255.418L232.655 260.709L237.946 261.566L238.803 256.275Z" fill="#407BFF"/>
<path d="M214.223 273.898L208.932 273.041L208.075 278.332L213.366 279.189L214.223 273.898Z" fill="#407BFF"/>
<path d="M235.4 277.329L230.109 276.472L229.252 281.763L234.543 282.62L235.4 277.329Z" fill="#407BFF"/>
<path d="M220.373 269.459L215.082 268.602L214.225 273.893L219.516 274.75L220.373 269.459Z" fill="#407BFF"/>
<path d="M226.512 265.087L221.221 264.23L220.364 269.521L225.655 270.378L226.512 265.087Z" fill="#407BFF"/>
<path d="M232.654 260.705L227.363 259.848L226.506 265.139L231.797 265.996L232.654 260.705Z" fill="#407BFF"/>
<path d="M230.971 271.17L225.68 270.313L224.823 275.604L230.114 276.461L230.971 271.17Z" fill="#407BFF"/>
<path d="M321.027 297.011C330.908 284.951 329.142 267.164 317.083 257.283C305.023 247.402 287.236 249.167 277.355 261.227C267.473 273.287 269.239 291.074 281.299 300.955C293.359 310.837 311.146 309.071 321.027 297.011Z" fill="#407BFF"/>
<path opacity="0.2" d="M321.027 297.011C330.908 284.951 329.142 267.164 317.083 257.283C305.023 247.402 287.236 249.167 277.355 261.227C267.473 273.287 269.239 291.074 281.299 300.955C293.359 310.837 311.146 309.071 321.027 297.011Z" fill="black"/>
<path opacity="0.2" d="M326.661 285.67C326.531 286.23 326.381 286.76 326.221 287.3L271.221 275.56C271.351 274.56 271.521 273.56 271.751 272.61C272.553 268.946 274.077 265.478 276.234 262.409C278.391 259.34 281.138 256.732 284.314 254.736C287.49 252.74 291.032 251.398 294.733 250.786C298.434 250.174 302.219 250.306 305.869 251.174C309.518 252.041 312.958 253.627 315.988 255.839C319.018 258.05 321.576 260.843 323.515 264.055C325.453 267.266 326.732 270.832 327.278 274.543C327.823 278.254 327.623 282.037 326.691 285.67H326.661Z" fill="black"/>
<path d="M307.927 300.001C319.464 295.18 324.908 281.919 320.086 270.382C315.265 258.846 302.004 253.401 290.467 258.223C278.931 263.044 273.487 276.305 278.308 287.842C283.129 299.379 296.39 304.823 307.927 300.001Z" fill="#263238"/>
<path d="M304.875 266.79L299.66 265.551L293.488 291.517L298.703 292.757L304.875 266.79Z" fill="#407BFF"/>
<path d="M328.3 285.14L270.5 271.4C272.435 263.856 277.255 257.373 283.923 253.348C290.591 249.323 298.572 248.076 306.149 249.878C313.727 251.679 320.294 256.384 324.436 262.979C328.579 269.574 329.967 277.532 328.3 285.14Z" fill="#407BFF"/>
<path opacity="0.2" d="M328.3 285.14L270.5 271.4C272.435 263.856 277.255 257.373 283.923 253.348C290.591 249.323 298.572 248.076 306.149 249.878C313.727 251.679 320.294 256.384 324.436 262.979C328.579 269.574 329.967 277.532 328.3 285.14Z" fill="black"/>
<path opacity="0.1" d="M250.07 295.92C250.205 293.571 251.124 291.335 252.68 289.57C253.519 288.64 254.573 287.929 255.75 287.5C256.939 287.097 258.202 286.957 259.45 287.09C260.723 287.204 261.94 287.669 262.964 288.433C263.988 289.198 264.779 290.232 265.25 291.42C266.142 293.59 266.347 295.98 265.84 298.27C265.549 296.119 264.872 294.039 263.84 292.13C263.382 291.281 262.722 290.558 261.918 290.024C261.114 289.49 260.191 289.163 259.23 289.07C258.254 288.94 257.26 289.017 256.315 289.294C255.369 289.571 254.492 290.043 253.74 290.68C252.149 292.138 250.896 293.926 250.07 295.92Z" fill="black"/>
<path d="M193.721 238.34C193.951 235.34 194.291 232.34 194.581 229.34C194.871 226.34 195.231 223.34 195.581 220.34C195.931 217.34 196.321 214.34 196.701 211.34C197.081 208.34 197.511 205.34 197.921 202.34L198.021 201.54L198.831 201.59C205.351 201.997 211.854 202.533 218.341 203.2C221.581 203.53 224.821 203.91 228.061 204.32C231.301 204.73 234.531 205.22 237.741 205.8L218.221 204.6L198.731 203.33L199.641 202.59C199.201 205.59 198.791 208.59 198.321 211.59C197.851 214.59 197.401 217.59 196.901 220.54C196.401 223.49 195.901 226.49 195.381 229.47C194.861 232.45 194.331 235.38 193.721 238.34Z" fill="white"/>
<path d="M198.41 261.16C199.13 257.497 200.676 254.046 202.93 251.07C203.48 250.31 204.11 249.61 204.71 248.89C205.31 248.17 206.04 247.56 206.71 246.89C207.38 246.22 208.18 245.71 208.93 245.14C209.68 244.57 210.51 244.14 211.32 243.62C212.13 243.1 213.03 242.79 213.89 242.4L216.57 241.47L219.35 240.9C220.28 240.76 221.22 240.73 222.16 240.66C225.879 240.614 229.568 241.329 233 242.76C229.458 242.016 225.829 241.773 222.22 242.04C218.68 242.362 215.249 243.429 212.15 245.17C209.034 246.901 206.261 249.189 203.97 251.92C201.626 254.677 199.748 257.798 198.41 261.16Z" fill="white"/>
<path d="M276.291 268.78C277.514 265.255 279.517 262.052 282.151 259.41C282.801 258.74 283.521 258.13 284.221 257.5C284.921 256.87 285.721 256.37 286.481 255.81C287.241 255.25 288.091 254.81 288.921 254.38C289.751 253.95 290.631 253.58 291.501 253.21C292.371 252.84 293.301 252.62 294.201 252.35L296.991 251.8L299.821 251.62C300.761 251.62 301.701 251.72 302.641 251.78C306.338 252.237 309.902 253.449 313.111 255.34C309.704 254.118 306.143 253.378 302.531 253.14C298.983 252.972 295.439 253.555 292.131 254.85C288.821 256.142 285.772 258.022 283.131 260.4C280.413 262.805 278.103 265.635 276.291 268.78Z" fill="white"/>
<path d="M189.141 359.25C181.911 359.25 166.081 357.63 155.891 344.53C142.891 327.77 147.571 295.61 147.771 294.25L153.431 295.11C153.431 295.42 148.891 326.2 160.431 341.01C171.691 355.49 192.121 353.42 192.321 353.39L192.971 359.08C192.721 359.1 191.321 359.25 189.141 359.25Z" fill="#407BFF"/>
<path opacity="0.4" d="M189.141 359.25C181.911 359.25 166.081 357.63 155.891 344.53C142.891 327.77 147.571 295.61 147.771 294.25L153.431 295.11C153.431 295.42 148.891 326.2 160.431 341.01C171.691 355.49 192.121 353.42 192.321 353.39L192.971 359.08C192.721 359.1 191.321 359.25 189.141 359.25Z" fill="white"/>
<path d="M155.101 299C154.042 299.005 152.985 298.921 151.941 298.75C142.391 297.2 138.171 291.49 136.301 286.97C134.431 282.45 134.001 277 135.001 270.68L147.101 272.68C146.471 276.57 146.661 280 147.621 282.33C148.311 283.99 149.621 285.99 153.881 286.68C155.821 286.99 157.881 286.83 160.111 283.52C161.653 281 162.692 278.205 163.171 275.29L175.281 277.29C174.489 281.911 172.79 286.33 170.281 290.29C166.561 296 161.221 299 155.101 299Z" fill="#407BFF"/>
<path d="M201.1 375.63C201.1 375.37 190.84 373.74 190.84 373.74L185.84 340.33L198.23 335.43L201.1 375.63Z" fill="#407BFF"/>
<path opacity="0.2" d="M201.1 375.63C201.1 375.37 190.84 373.74 190.84 373.74L185.84 340.33L198.23 335.43L201.1 375.63Z" fill="black"/>
<path d="M302.301 375.69C302.301 375.43 312.591 374.03 312.591 374.03L318.301 340.74L306.001 335.57L302.301 375.69Z" fill="#407BFF"/>
<path opacity="0.2" d="M302.301 375.69C302.301 375.43 312.591 374.03 312.591 374.03L318.301 340.74L306.001 335.57L302.301 375.69Z" fill="black"/>
<path d="M196.841 328C196.841 328 279.631 324.47 307.591 329.13C307.591 329.13 299.381 409.23 298.941 410.79C298.941 410.79 216.581 410.56 203.711 410.79C203.711 410.74 196.741 357.47 196.841 328Z" fill="#407BFF"/>
<path opacity="0.2" d="M222 349.91C222 349.91 267.19 348.12 282.46 350.47C282.46 350.47 277.97 390.86 277.73 391.65C277.73 391.65 232.73 391.54 225.73 391.65C225.74 391.65 222.65 364 222 349.91Z" fill="black"/>
<path opacity="0.2" d="M228.16 391.63H225.73C225.73 391.63 222.65 364 222 349.9L224.83 349.8L228.16 391.63Z" fill="black"/>
<path d="M241.491 359.87C240.582 359.581 239.609 359.569 238.693 359.835C237.778 360.1 236.962 360.632 236.349 361.362C235.736 362.092 235.354 362.988 235.252 363.936C235.149 364.883 235.33 365.84 235.772 366.684C236.214 367.529 236.897 368.223 237.734 368.679C238.571 369.134 239.525 369.331 240.474 369.244C241.423 369.157 242.325 368.789 243.065 368.189C243.805 367.588 244.35 366.781 244.631 365.87C245.004 364.658 244.883 363.348 244.295 362.224C243.707 361.1 242.699 360.254 241.491 359.87ZM244.071 365.73C243.818 366.525 243.336 367.228 242.684 367.749C242.032 368.271 241.241 368.587 240.409 368.658C239.578 368.73 238.744 368.553 238.013 368.15C237.282 367.748 236.687 367.138 236.302 366.397C235.918 365.657 235.762 364.819 235.854 363.989C235.946 363.16 236.281 362.376 236.818 361.738C237.356 361.099 238.07 360.634 238.871 360.401C239.673 360.168 240.525 360.178 241.321 360.43C241.849 360.597 242.34 360.867 242.764 361.224C243.189 361.581 243.539 362.018 243.794 362.51C244.049 363.002 244.205 363.54 244.253 364.093C244.3 364.645 244.238 365.201 244.071 365.73ZM241.491 359.87C240.582 359.581 239.609 359.569 238.693 359.835C237.778 360.1 236.962 360.632 236.349 361.362C235.736 362.092 235.354 362.988 235.252 363.936C235.149 364.883 235.33 365.84 235.772 366.684C236.214 367.529 236.897 368.223 237.734 368.679C238.571 369.134 239.525 369.331 240.474 369.244C241.423 369.157 242.325 368.789 243.065 368.189C243.805 367.588 244.35 366.781 244.631 365.87C245.004 364.658 244.883 363.348 244.295 362.224C243.707 361.1 242.699 360.254 241.491 359.87ZM244.071 365.73C243.818 366.525 243.336 367.228 242.684 367.749C242.032 368.271 241.241 368.587 240.409 368.658C239.578 368.73 238.744 368.553 238.013 368.15C237.282 367.748 236.687 367.138 236.302 366.397C235.918 365.657 235.762 364.819 235.854 363.989C235.946 363.16 236.281 362.376 236.818 361.738C237.356 361.099 238.07 360.634 238.871 360.401C239.673 360.168 240.525 360.178 241.321 360.43C241.849 360.597 242.34 360.867 242.764 361.224C243.189 361.581 243.539 362.018 243.794 362.51C244.049 363.002 244.205 363.54 244.253 364.093C244.3 364.645 244.238 365.201 244.071 365.73ZM241.491 359.87C240.582 359.581 239.609 359.569 238.693 359.835C237.778 360.1 236.962 360.632 236.349 361.362C235.736 362.092 235.354 362.988 235.252 363.936C235.149 364.883 235.33 365.84 235.772 366.684C236.214 367.529 236.897 368.223 237.734 368.679C238.571 369.134 239.525 369.331 240.474 369.244C241.423 369.157 242.325 368.789 243.065 368.189C243.805 367.588 244.35 366.781 244.631 365.87C245.004 364.658 244.883 363.348 244.295 362.224C243.707 361.1 242.699 360.254 241.491 359.87ZM244.071 365.73C243.818 366.525 243.336 367.228 242.684 367.749C242.032 368.271 241.241 368.587 240.409 368.658C239.578 368.73 238.744 368.553 238.013 368.15C237.282 367.748 236.687 367.138 236.302 366.397C235.918 365.657 235.762 364.819 235.854 363.989C235.946 363.16 236.281 362.376 236.818 361.738C237.356 361.099 238.07 360.634 238.871 360.401C239.673 360.168 240.525 360.178 241.321 360.43C241.849 360.597 242.34 360.867 242.764 361.224C243.189 361.581 243.539 362.018 243.794 362.51C244.049 363.002 244.205 363.54 244.253 364.093C244.3 364.645 244.238 365.201 244.071 365.73ZM243.071 354.79C241.16 354.187 239.113 354.164 237.19 354.724C235.266 355.283 233.552 356.401 232.263 357.935C230.975 359.47 230.17 361.352 229.951 363.343C229.732 365.335 230.109 367.346 231.033 369.124C231.958 370.901 233.389 372.365 235.145 373.329C236.901 374.294 238.904 374.716 240.899 374.542C242.895 374.368 244.795 373.606 246.358 372.353C247.921 371.099 249.077 369.411 249.681 367.5C250.488 364.942 250.249 362.168 249.016 359.786C247.782 357.404 245.655 355.607 243.101 354.79H243.071ZM245.321 366.13C244.986 367.176 244.349 368.099 243.489 368.784C242.63 369.468 241.588 369.883 240.493 369.975C239.399 370.068 238.302 369.834 237.34 369.303C236.378 368.773 235.595 367.969 235.089 366.994C234.584 366.019 234.378 364.916 234.499 363.825C234.619 362.733 235.061 361.701 235.767 360.86C236.473 360.019 237.412 359.406 238.467 359.098C239.521 358.79 240.643 358.801 241.691 359.13C242.392 359.348 243.043 359.702 243.607 360.172C244.171 360.642 244.636 361.219 244.976 361.869C245.316 362.52 245.524 363.231 245.589 363.962C245.653 364.693 245.572 365.43 245.351 366.13H245.321ZM244.601 365.9C244.889 364.992 244.902 364.018 244.636 363.103C244.37 362.187 243.839 361.371 243.109 360.759C242.378 360.146 241.483 359.764 240.535 359.661C239.587 359.558 238.631 359.74 237.786 360.182C236.942 360.623 236.248 361.306 235.792 362.144C235.336 362.981 235.139 363.934 235.227 364.883C235.314 365.833 235.681 366.734 236.282 367.475C236.883 368.215 237.69 368.759 238.601 369.04C239.203 369.231 239.836 369.301 240.466 369.246C241.095 369.192 241.707 369.013 242.267 368.722C242.827 368.43 243.325 368.031 243.73 367.546C244.136 367.062 244.442 366.503 244.631 365.9H244.601ZM244.041 365.73C243.788 366.525 243.306 367.228 242.654 367.749C242.002 368.271 241.211 368.587 240.379 368.658C239.548 368.73 238.714 368.553 237.983 368.15C237.252 367.748 236.657 367.138 236.272 366.397C235.888 365.657 235.732 364.819 235.824 363.989C235.916 363.16 236.251 362.376 236.788 361.738C237.326 361.099 238.04 360.634 238.841 360.401C239.643 360.168 240.495 360.178 241.291 360.43C241.822 360.594 242.316 360.862 242.743 361.217C243.171 361.573 243.524 362.009 243.783 362.502C244.041 362.995 244.199 363.533 244.249 364.087C244.298 364.641 244.238 365.2 244.071 365.73H244.041ZM241.461 359.87C240.552 359.581 239.579 359.569 238.663 359.835C237.748 360.1 236.932 360.632 236.319 361.362C235.706 362.092 235.324 362.988 235.222 363.936C235.119 364.883 235.3 365.84 235.742 366.684C236.184 367.529 236.867 368.223 237.704 368.679C238.541 369.134 239.495 369.331 240.444 369.244C241.393 369.157 242.295 368.789 243.035 368.189C243.775 367.588 244.32 366.781 244.601 365.87C244.975 364.662 244.859 363.355 244.277 362.232C243.695 361.109 242.694 360.26 241.491 359.87H241.461ZM244.041 365.73C243.788 366.525 243.306 367.228 242.654 367.749C242.002 368.271 241.211 368.587 240.379 368.658C239.548 368.73 238.714 368.553 237.983 368.15C237.252 367.748 236.657 367.138 236.272 366.397C235.888 365.657 235.732 364.819 235.824 363.989C235.916 363.16 236.251 362.376 236.788 361.738C237.326 361.099 238.04 360.634 238.841 360.401C239.643 360.168 240.495 360.178 241.291 360.43C241.822 360.594 242.316 360.862 242.743 361.217C243.171 361.573 243.524 362.009 243.783 362.502C244.041 362.995 244.199 363.533 244.249 364.087C244.298 364.641 244.238 365.2 244.071 365.73H244.041ZM241.461 359.87C240.552 359.581 239.579 359.569 238.663 359.835C237.748 360.1 236.932 360.632 236.319 361.362C235.706 362.092 235.324 362.988 235.222 363.936C235.119 364.883 235.3 365.84 235.742 366.684C236.184 367.529 236.867 368.223 237.704 368.679C238.541 369.134 239.495 369.331 240.444 369.244C241.393 369.157 242.295 368.789 243.035 368.189C243.775 367.588 244.32 366.781 244.601 365.87C244.975 364.662 244.859 363.355 244.277 362.232C243.695 361.109 242.694 360.26 241.491 359.87H241.461ZM244.041 365.73C243.788 366.525 243.306 367.228 242.654 367.749C242.002 368.271 241.211 368.587 240.379 368.658C239.548 368.73 238.714 368.553 237.983 368.15C237.252 367.748 236.657 367.138 236.272 366.397C235.888 365.657 235.732 364.819 235.824 363.989C235.916 363.16 236.251 362.376 236.788 361.738C237.326 361.099 238.04 360.634 238.841 360.401C239.643 360.168 240.495 360.178 241.291 360.43C241.822 360.594 242.316 360.862 242.743 361.217C243.171 361.573 243.524 362.009 243.783 362.502C244.041 362.995 244.199 363.533 244.249 364.087C244.298 364.641 244.238 365.2 244.071 365.73H244.041Z" fill="#407BFF"/>
<path d="M238.99 374.31L235.27 373.13L234.65 375.83L237.95 376.87L238.99 374.31Z" fill="#407BFF"/>
<path d="M232.31 370.82L230.51 367.37L228.16 368.83L229.76 371.91L232.31 370.82Z" fill="#407BFF"/>
<path d="M230.05 363.64L231.22 359.93L228.53 359.3L227.48 362.61L230.05 363.64Z" fill="#407BFF"/>
<path d="M233.531 356.96L236.991 355.17L235.521 352.82L232.451 354.42L233.531 356.96Z" fill="#407BFF"/>
<path d="M240.711 354.7L244.431 355.88L245.051 353.18L241.751 352.14L240.711 354.7Z" fill="#407BFF"/>
<path d="M247.391 358.18L249.191 361.64L251.541 360.18L249.941 357.1L247.391 358.18Z" fill="#407BFF"/>
<path d="M249.65 365.37L248.48 369.08L251.18 369.71L252.22 366.4L249.65 365.37Z" fill="#407BFF"/>
<path d="M246.171 372.04L242.721 373.84L244.181 376.19L247.251 374.59L246.171 372.04Z" fill="#407BFF"/>
<path d="M257.839 374C257.303 373.649 256.675 373.465 256.033 373.471C255.392 373.477 254.768 373.674 254.238 374.035C253.709 374.397 253.298 374.907 253.059 375.502C252.82 376.096 252.762 376.749 252.894 377.376C253.026 378.004 253.341 378.578 253.799 379.026C254.257 379.475 254.838 379.777 255.468 379.895C256.098 380.014 256.749 379.942 257.338 379.69C257.928 379.438 258.429 379.017 258.779 378.48C259.248 377.761 259.412 376.886 259.236 376.046C259.06 375.206 258.557 374.47 257.839 374ZM258.449 378.26C258.143 378.731 257.704 379.1 257.187 379.321C256.671 379.542 256.101 379.605 255.548 379.502C254.996 379.399 254.487 379.134 254.085 378.742C253.683 378.349 253.407 377.846 253.291 377.297C253.175 376.747 253.224 376.176 253.433 375.654C253.642 375.133 254.001 374.685 254.464 374.367C254.927 374.05 255.474 373.877 256.036 373.87C256.598 373.864 257.149 374.024 257.619 374.33C257.933 374.534 258.204 374.797 258.416 375.106C258.627 375.414 258.776 375.761 258.853 376.128C258.93 376.494 258.934 376.871 258.865 377.239C258.796 377.607 258.655 377.957 258.449 378.27V378.26ZM257.839 374C257.303 373.649 256.675 373.465 256.033 373.471C255.392 373.477 254.768 373.674 254.238 374.035C253.709 374.397 253.298 374.907 253.059 375.502C252.82 376.096 252.762 376.749 252.894 377.376C253.026 378.004 253.341 378.578 253.799 379.026C254.257 379.475 254.838 379.777 255.468 379.895C256.098 380.014 256.749 379.942 257.338 379.69C257.928 379.438 258.429 379.017 258.779 378.48C259.248 377.761 259.412 376.886 259.236 376.046C259.06 375.206 258.557 374.47 257.839 374ZM258.449 378.26C258.143 378.731 257.704 379.1 257.187 379.321C256.671 379.542 256.101 379.605 255.548 379.502C254.996 379.399 254.487 379.134 254.085 378.742C253.683 378.349 253.407 377.846 253.291 377.297C253.175 376.747 253.224 376.176 253.433 375.654C253.642 375.133 254.001 374.685 254.464 374.367C254.927 374.05 255.474 373.877 256.036 373.87C256.598 373.864 257.149 374.024 257.619 374.33C257.933 374.534 258.204 374.797 258.416 375.106C258.627 375.414 258.776 375.761 258.853 376.128C258.93 376.494 258.934 376.871 258.865 377.239C258.796 377.607 258.655 377.957 258.449 378.27V378.26ZM257.839 374C257.303 373.649 256.675 373.465 256.033 373.471C255.392 373.477 254.768 373.674 254.238 374.035C253.709 374.397 253.298 374.907 253.059 375.502C252.82 376.096 252.762 376.749 252.894 377.376C253.026 378.004 253.341 378.578 253.799 379.026C254.257 379.475 254.838 379.777 255.468 379.895C256.098 380.014 256.749 379.942 257.338 379.69C257.928 379.438 258.429 379.017 258.779 378.48C259.248 377.761 259.412 376.886 259.236 376.046C259.06 375.206 258.557 374.47 257.839 374ZM258.449 378.26C258.143 378.731 257.704 379.1 257.187 379.321C256.671 379.542 256.101 379.605 255.548 379.502C254.996 379.399 254.487 379.134 254.085 378.742C253.683 378.349 253.407 377.846 253.291 377.297C253.175 376.747 253.224 376.176 253.433 375.654C253.642 375.133 254.001 374.685 254.464 374.367C254.927 374.05 255.474 373.877 256.036 373.87C256.598 373.864 257.149 374.024 257.619 374.33C257.933 374.534 258.204 374.797 258.416 375.106C258.627 375.414 258.776 375.761 258.853 376.128C258.93 376.494 258.934 376.871 258.865 377.239C258.796 377.607 258.655 377.957 258.449 378.27V378.26ZM259.789 371C258.659 370.265 257.335 369.882 255.987 369.9C254.638 369.917 253.325 370.333 252.213 371.097C251.102 371.86 250.241 372.936 249.741 374.188C249.24 375.441 249.122 376.813 249.402 378.133C249.682 379.452 250.346 380.659 251.311 381.601C252.276 382.542 253.499 383.177 254.825 383.424C256.151 383.671 257.52 383.519 258.76 382.988C259.999 382.457 261.054 381.57 261.789 380.44C262.278 379.689 262.614 378.849 262.779 377.968C262.943 377.087 262.932 376.182 262.746 375.306C262.56 374.429 262.203 373.597 261.696 372.859C261.189 372.12 260.541 371.488 259.789 371ZM259.199 378.75C258.796 379.37 258.218 379.857 257.537 380.149C256.857 380.44 256.106 380.523 255.378 380.388C254.651 380.252 253.98 379.904 253.451 379.386C252.921 378.869 252.557 378.207 252.404 377.483C252.252 376.759 252.317 376.005 252.593 375.319C252.868 374.632 253.342 374.042 253.952 373.624C254.563 373.206 255.284 372.979 256.024 372.971C256.764 372.963 257.49 373.175 258.109 373.58C258.521 373.848 258.876 374.195 259.154 374.601C259.432 375.006 259.627 375.463 259.728 375.944C259.83 376.425 259.835 376.921 259.744 377.405C259.653 377.888 259.468 378.348 259.199 378.76V378.75ZM258.779 378.48C259.126 377.944 259.306 377.318 259.296 376.68C259.287 376.041 259.089 375.42 258.727 374.895C258.365 374.369 257.856 373.963 257.263 373.726C256.671 373.49 256.021 373.434 255.397 373.567C254.773 373.699 254.201 374.013 253.756 374.47C253.31 374.927 253.009 375.505 252.892 376.132C252.775 376.759 252.846 377.407 253.096 377.994C253.347 378.581 253.765 379.081 254.299 379.43C255.019 379.896 255.894 380.059 256.733 379.883C257.572 379.706 258.308 379.206 258.779 378.49V378.48ZM258.449 378.26C258.143 378.731 257.704 379.1 257.187 379.321C256.671 379.542 256.101 379.605 255.548 379.502C254.996 379.399 254.487 379.134 254.085 378.742C253.683 378.349 253.407 377.846 253.291 377.297C253.175 376.747 253.224 376.176 253.433 375.654C253.642 375.133 254.001 374.685 254.464 374.367C254.927 374.05 255.474 373.877 256.036 373.87C256.598 373.864 257.149 374.024 257.619 374.33C257.933 374.534 258.204 374.797 258.416 375.106C258.627 375.414 258.776 375.761 258.853 376.128C258.93 376.494 258.934 376.871 258.865 377.239C258.796 377.607 258.655 377.957 258.449 378.27V378.26ZM257.839 374C257.303 373.649 256.675 373.465 256.033 373.471C255.392 373.477 254.768 373.674 254.238 374.035C253.709 374.397 253.298 374.907 253.059 375.502C252.82 376.096 252.762 376.749 252.894 377.376C253.026 378.004 253.341 378.578 253.799 379.026C254.257 379.475 254.838 379.777 255.468 379.895C256.098 380.014 256.749 379.942 257.338 379.69C257.928 379.438 258.429 379.017 258.779 378.48C259.248 377.761 259.412 376.886 259.236 376.046C259.06 375.206 258.557 374.47 257.839 374ZM258.449 378.26C258.143 378.731 257.704 379.1 257.187 379.321C256.671 379.542 256.101 379.605 255.548 379.502C254.996 379.399 254.487 379.134 254.085 378.742C253.683 378.349 253.407 377.846 253.291 377.297C253.175 376.747 253.224 376.176 253.433 375.654C253.642 375.133 254.001 374.685 254.464 374.367C254.927 374.05 255.474 373.877 256.036 373.87C256.598 373.864 257.149 374.024 257.619 374.33C257.933 374.534 258.204 374.797 258.416 375.106C258.627 375.414 258.776 375.761 258.853 376.128C258.93 376.494 258.934 376.871 258.865 377.239C258.796 377.607 258.655 377.957 258.449 378.27V378.26ZM257.839 374C257.303 373.649 256.675 373.465 256.033 373.471C255.392 373.477 254.768 373.674 254.238 374.035C253.709 374.397 253.298 374.907 253.059 375.502C252.82 376.096 252.762 376.749 252.894 377.376C253.026 378.004 253.341 378.578 253.799 379.026C254.257 379.475 254.838 379.777 255.468 379.895C256.098 380.014 256.749 379.942 257.338 379.69C257.928 379.438 258.429 379.017 258.779 378.48C259.248 377.761 259.412 376.886 259.236 376.046C259.06 375.206 258.557 374.47 257.839 374ZM258.449 378.26C258.143 378.731 257.704 379.1 257.187 379.321C256.671 379.542 256.101 379.605 255.548 379.502C254.996 379.399 254.487 379.134 254.085 378.742C253.683 378.349 253.407 377.846 253.291 377.297C253.175 376.747 253.224 376.176 253.433 375.654C253.642 375.133 254.001 374.685 254.464 374.367C254.927 374.05 255.474 373.877 256.036 373.87C256.598 373.864 257.149 374.024 257.619 374.33C257.933 374.534 258.204 374.797 258.416 375.106C258.627 375.414 258.776 375.761 258.853 376.128C258.93 376.494 258.934 376.871 258.865 377.239C258.796 377.607 258.655 377.957 258.449 378.27V378.26Z" fill="#DBDBDB"/>
<path d="M253.6 382.92L251.4 381.49L250.51 383.12L252.47 384.39L253.6 382.92Z" fill="#DBDBDB"/>
<path d="M249.9 379.45L249.36 376.89L247.57 377.41L248.05 379.7L249.9 379.45Z" fill="#DBDBDB"/>
<path d="M249.73 374.39L251.16 372.19L249.53 371.3L248.25 373.25L249.73 374.39Z" fill="#DBDBDB"/>
<path d="M253.201 370.69L255.761 370.14L255.241 368.36L252.951 368.84L253.201 370.69Z" fill="#DBDBDB"/>
<path d="M258.26 370.52L260.46 371.95L261.35 370.31L259.4 369.04L258.26 370.52Z" fill="#DBDBDB"/>
<path d="M261.961 373.98L262.511 376.55L264.291 376.02L263.811 373.74L261.961 373.98Z" fill="#DBDBDB"/>
<path d="M262.131 379.05L260.701 381.25L262.331 382.14L263.611 380.18L262.131 379.05Z" fill="#DBDBDB"/>
<path d="M258.67 382.75L256.1 383.29L256.63 385.08L258.91 384.6L258.67 382.75Z" fill="#DBDBDB"/>
<path d="M305.59 401.41L308.78 402.01L317.88 340.38L314.25 339.71L305.59 401.41Z" fill="#407BFF"/>
<path d="M277.721 391.65L282.451 350.47L314.251 339.71C314.251 339.71 305.591 402.08 305.591 401.41L277.721 391.65Z" fill="#407BFF"/>
<path opacity="0.4" d="M277.721 391.65L282.451 350.47L314.251 339.71C314.251 339.71 305.591 402.08 305.591 401.41L277.721 391.65Z" fill="white"/>
<path d="M200.64 352.14C200.12 348.73 199.84 345.29 199.64 341.85C199.54 340.13 199.5 338.4 199.46 336.68C199.42 334.96 199.4 333.23 199.46 331.5V331.05H199.9C206.22 330.71 212.53 330.29 218.9 330.05C225.27 329.81 231.54 329.45 237.9 329.25C231.59 329.82 225.29 330.31 218.98 330.77C212.67 331.23 206.35 331.61 200.04 332.04L200.5 331.57V336.72L200.56 341.87C200.56 343.59 200.56 345.31 200.65 347.02L200.64 352.14Z" fill="white"/>
<path d="M286.881 351.08C288.881 350.14 290.881 349.27 292.881 348.47C294.881 347.67 296.921 346.897 299.001 346.15C301.061 345.45 303.131 344.76 305.241 344.15C307.341 343.532 309.474 343.035 311.631 342.66L312.161 342.57L312.071 343.08C311.571 345.75 311.071 348.41 310.431 351.08C310.661 348.37 310.991 345.67 311.331 342.98L311.771 343.41C309.671 343.91 307.591 344.49 305.511 345.11C303.431 345.73 301.361 346.38 299.301 347.05L286.881 351.08Z" fill="white"/>
<path opacity="0.1" d="M214.4 328.12L214.94 338.42L215.4 348.72L216.19 369.33L216.81 389.94L217.06 400.25L217.23 410.57L216.69 400.27L216.24 389.96L215.44 369.36L214.82 348.74L214.57 338.43L214.4 328.12Z" fill="black"/>
<path opacity="0.1" d="M211.451 334.33C211.528 334.694 211.497 335.073 211.363 335.42C211.229 335.768 210.998 336.069 210.696 336.288C210.395 336.507 210.037 336.634 209.665 336.654C209.294 336.673 208.924 336.585 208.601 336.4C208.362 336.259 208.155 336.069 207.993 335.844C207.831 335.618 207.718 335.362 207.661 335.09C207.61 334.819 207.616 334.541 207.678 334.272C207.74 334.004 207.857 333.751 208.021 333.53C208.184 333.323 208.386 333.15 208.616 333.021C208.846 332.893 209.099 332.811 209.361 332.78C209.84 332.733 210.318 332.866 210.704 333.153C211.091 333.439 211.357 333.859 211.451 334.33ZM211.451 334.33C211.379 333.982 211.19 333.669 210.916 333.443C210.642 333.217 210.299 333.092 209.944 333.087C209.588 333.083 209.242 333.2 208.962 333.419C208.683 333.637 208.486 333.945 208.405 334.291C208.324 334.637 208.363 335 208.517 335.321C208.67 335.641 208.928 335.9 209.248 336.053C209.569 336.207 209.932 336.247 210.278 336.166C210.624 336.086 210.932 335.889 211.151 335.61C211.291 335.431 211.391 335.224 211.442 335.003C211.494 334.782 211.497 334.552 211.451 334.33Z" fill="black"/>
<path opacity="0.1" d="M212.16 346.68C212.243 347.151 212.154 347.635 211.91 348.046C211.666 348.457 211.283 348.767 210.83 348.92C210.571 348.999 210.298 349.023 210.03 348.99C209.761 348.957 209.502 348.868 209.27 348.728C209.038 348.589 208.838 348.402 208.683 348.18C208.528 347.958 208.421 347.706 208.37 347.44C208.319 347.169 208.325 346.891 208.387 346.622C208.449 346.354 208.566 346.101 208.73 345.88C208.893 345.673 209.095 345.5 209.325 345.371C209.555 345.243 209.808 345.161 210.07 345.13C210.549 345.083 211.027 345.216 211.413 345.503C211.8 345.789 212.066 346.209 212.16 346.68ZM212.16 346.68C212.12 346.464 212.034 346.258 211.908 346.078C211.781 345.898 211.618 345.747 211.429 345.635C211.239 345.523 211.028 345.453 210.809 345.43C210.59 345.407 210.369 345.431 210.16 345.5C209.869 345.59 209.611 345.762 209.416 345.996C209.222 346.23 209.099 346.515 209.064 346.817C209.028 347.119 209.081 347.425 209.217 347.698C209.352 347.97 209.563 348.198 209.825 348.352C210.087 348.507 210.389 348.582 210.693 348.569C210.996 348.555 211.29 348.454 211.537 348.277C211.785 348.099 211.975 347.854 212.086 347.571C212.196 347.287 212.222 346.978 212.16 346.68Z" fill="black"/>
<path opacity="0.1" d="M212.611 359.79C212.694 360.261 212.605 360.745 212.361 361.156C212.117 361.567 211.734 361.877 211.281 362.03C210.772 362.177 210.225 362.116 209.761 361.86C209.522 361.719 209.315 361.529 209.153 361.304C208.992 361.078 208.878 360.822 208.821 360.55C208.771 360.279 208.776 360.001 208.838 359.732C208.9 359.464 209.017 359.211 209.181 358.99C209.407 358.694 209.713 358.469 210.063 358.343C210.414 358.217 210.793 358.195 211.155 358.28C211.518 358.364 211.848 358.552 212.106 358.82C212.365 359.088 212.54 359.425 212.611 359.79ZM212.611 359.79C212.571 359.574 212.485 359.368 212.359 359.188C212.233 359.008 212.069 358.857 211.88 358.745C211.69 358.633 211.479 358.563 211.26 358.54C211.041 358.517 210.82 358.541 210.611 358.61C210.321 358.7 210.062 358.872 209.868 359.106C209.673 359.34 209.55 359.625 209.515 359.927C209.479 360.229 209.533 360.535 209.668 360.808C209.803 361.08 210.014 361.308 210.276 361.462C210.538 361.617 210.84 361.692 211.144 361.679C211.448 361.665 211.741 361.564 211.988 361.387C212.236 361.209 212.426 360.964 212.537 360.681C212.647 360.397 212.673 360.088 212.611 359.79Z" fill="black"/>
<path opacity="0.1" d="M213.06 372.9C213.143 373.371 213.054 373.855 212.81 374.266C212.566 374.677 212.183 374.987 211.73 375.14C211.472 375.209 211.202 375.224 210.937 375.187C210.672 375.149 210.417 375.058 210.187 374.92C209.958 374.782 209.759 374.6 209.601 374.383C209.444 374.167 209.331 373.921 209.27 373.66C209.22 373.389 209.226 373.111 209.288 372.842C209.349 372.574 209.466 372.321 209.63 372.1C209.856 371.804 210.162 371.579 210.512 371.453C210.863 371.327 211.242 371.305 211.604 371.39C211.967 371.474 212.297 371.662 212.556 371.93C212.814 372.198 212.989 372.535 213.06 372.9ZM213.06 372.9C213.015 372.677 212.924 372.467 212.791 372.282C212.658 372.098 212.487 371.943 212.29 371.83C211.906 371.628 211.457 371.585 211.04 371.71C210.671 371.827 210.358 372.076 210.161 372.41C209.965 372.744 209.898 373.139 209.975 373.519C210.052 373.898 210.267 374.236 210.578 374.467C210.889 374.698 211.275 374.806 211.66 374.77C211.874 374.75 212.081 374.687 212.27 374.586C212.459 374.485 212.626 374.347 212.76 374.18C212.899 374.001 212.998 373.794 213.05 373.573C213.102 373.352 213.105 373.122 213.06 372.9Z" fill="black"/>
<path opacity="0.1" d="M213.511 386C213.588 386.364 213.557 386.743 213.423 387.091C213.289 387.438 213.058 387.739 212.757 387.958C212.455 388.177 212.097 388.304 211.725 388.324C211.354 388.344 210.984 388.255 210.661 388.07C210.423 387.93 210.217 387.742 210.055 387.518C209.893 387.295 209.78 387.04 209.721 386.77C209.669 386.498 209.674 386.217 209.736 385.947C209.798 385.677 209.916 385.422 210.081 385.2C210.244 384.993 210.446 384.82 210.676 384.691C210.906 384.563 211.159 384.481 211.421 384.45C211.897 384.417 212.369 384.554 212.753 384.839C213.136 385.123 213.405 385.535 213.511 386ZM213.511 386C213.468 385.785 213.38 385.582 213.253 385.403C213.126 385.225 212.963 385.075 212.774 384.964C212.586 384.852 212.376 384.782 212.158 384.757C211.94 384.733 211.72 384.754 211.511 384.82C211.142 384.937 210.829 385.186 210.632 385.52C210.435 385.854 210.369 386.249 210.446 386.629C210.523 387.008 210.738 387.346 211.049 387.577C211.36 387.808 211.745 387.916 212.131 387.88C212.352 387.862 212.567 387.797 212.761 387.69C212.955 387.582 213.124 387.435 213.257 387.257C213.389 387.079 213.482 386.875 213.529 386.658C213.577 386.441 213.577 386.217 213.531 386H213.511Z" fill="black"/>
<path opacity="0.1" d="M214 399.11C214.05 399.359 214.051 399.615 214.003 399.865C213.954 400.114 213.857 400.351 213.717 400.563C213.577 400.774 213.396 400.957 213.185 401.098C212.975 401.24 212.738 401.339 212.49 401.39C212.241 401.441 211.984 401.442 211.735 401.393C211.486 401.345 211.249 401.247 211.037 401.107C210.825 400.967 210.643 400.786 210.501 400.576C210.359 400.365 210.26 400.129 210.21 399.88C210.155 399.615 210.157 399.341 210.215 399.076C210.272 398.811 210.385 398.562 210.545 398.343C210.705 398.124 210.909 397.942 211.144 397.807C211.379 397.672 211.64 397.588 211.91 397.56C212.386 397.527 212.858 397.664 213.241 397.949C213.624 398.233 213.893 398.645 214 399.11ZM214 399.11C213.955 398.889 213.862 398.679 213.73 398.496C213.597 398.314 213.426 398.161 213.23 398.05C213.04 397.948 212.831 397.885 212.617 397.864C212.402 397.843 212.185 397.866 211.98 397.93C211.61 398.047 211.297 398.296 211.1 398.63C210.904 398.964 210.838 399.359 210.915 399.739C210.992 400.118 211.206 400.456 211.517 400.687C211.828 400.918 212.214 401.026 212.6 400.99C212.821 400.972 213.035 400.907 213.23 400.8C213.424 400.692 213.593 400.545 213.725 400.367C213.858 400.189 213.951 399.985 213.998 399.768C214.045 399.551 214.046 399.327 214 399.11Z" fill="black"/>
<path d="M218.019 419.152L171.145 433.358L172.804 438.832L219.678 424.626L218.019 419.152Z" fill="#407BFF"/>
<path opacity="0.4" d="M218.019 419.152L171.145 433.358L172.804 438.832L219.678 424.626L218.019 419.152Z" fill="white"/>
<path d="M195.553 424.103L190.102 425.836L192.677 433.937L198.128 432.203L195.553 424.103Z" fill="#407BFF"/>
<path d="M172.43 446.86L160.33 394.48L123.82 403.14L141.8 454.19L172.43 446.86Z" fill="#407BFF"/>
<path d="M180.53 444.2L172.43 446.86L160.33 394.48L171.98 397.26L180.53 444.2Z" fill="#407BFF"/>
<path opacity="0.2" d="M180.53 444.2L172.43 446.86L160.33 394.48L171.98 397.26L180.53 444.2Z" fill="black"/>
<path d="M218.86 428.1C222.29 428.1 225.07 425.32 225.07 421.89C225.07 418.46 222.29 415.68 218.86 415.68C215.431 415.68 212.65 418.46 212.65 421.89C212.65 425.32 215.431 428.1 218.86 428.1Z" fill="#407BFF"/>
<path d="M282.815 419.021L281.145 424.492L327.989 438.796L329.66 433.325L282.815 419.021Z" fill="#407BFF"/>
<path opacity="0.4" d="M282.815 419.021L281.145 424.492L327.989 438.796L329.66 433.325L282.815 419.021Z" fill="white"/>
<path d="M305.252 423.971L302.658 432.066L308.105 433.811L310.699 425.717L305.252 423.971Z" fill="#407BFF"/>
<path d="M328.359 446.82L340.559 394.46L377.059 403.2L358.969 454.21L328.359 446.82Z" fill="#407BFF"/>
<path d="M320.26 444.14L328.36 446.82L340.56 394.46L328.91 397.21L320.26 444.14Z" fill="#407BFF"/>
<path opacity="0.2" d="M320.26 444.14L328.36 446.82L340.56 394.46L328.91 397.21L320.26 444.14Z" fill="black"/>
<path d="M275.76 421.74C275.756 422.971 276.117 424.175 276.798 425.2C277.478 426.225 278.448 427.026 279.583 427.5C280.719 427.974 281.97 428.101 283.177 427.864C284.385 427.627 285.495 427.037 286.367 426.169C287.24 425.301 287.835 424.193 288.078 422.987C288.32 421.781 288.2 420.529 287.731 419.391C287.262 418.253 286.467 417.28 285.445 416.595C284.423 415.909 283.22 415.542 281.99 415.54C281.173 415.537 280.365 415.696 279.609 416.006C278.854 416.316 278.168 416.772 277.589 417.348C277.011 417.924 276.551 418.608 276.237 419.362C275.923 420.116 275.761 420.924 275.76 421.74Z" fill="#407BFF"/>
<path d="M322.66 357.13C322.81 356.99 337.87 343.03 355.58 347.81C373.69 352.69 388.64 379.97 388.79 380.25L393.79 377.53C393.13 376.32 377.53 347.8 357.03 342.28C336.17 336.66 319.38 352.28 318.68 352.98L322.66 357.13Z" fill="#407BFF"/>
<path opacity="0.4" d="M322.66 357.13C322.81 356.99 337.87 343.03 355.58 347.81C373.69 352.69 388.64 379.97 388.79 380.25L393.79 377.53C393.13 376.32 377.53 347.8 357.03 342.28C336.17 336.66 319.38 352.28 318.68 352.98L322.66 357.13Z" fill="white"/>
<path d="M382.12 407.71L393 402C391.63 399.381 390.778 396.522 390.49 393.58C390.25 389.58 391.83 388.22 393.56 387.3C397.36 385.3 399.63 386.09 401.18 387C403.35 388.29 405.56 390.91 407.4 394.4L418.25 388.67C415.25 383.05 411.63 378.93 407.41 376.44C403.19 373.95 396.41 371.94 387.84 376.44C381.17 379.96 377.77 386.3 378.25 394.3C378.64 398.982 379.955 403.54 382.12 407.71Z" fill="#407BFF"/>
<path d="M325 338C327.35 336.38 329.76 334.85 332.17 333.33C334.58 331.81 337.03 330.33 339.48 328.89C341.93 327.45 344.4 326.02 346.9 324.65L350.66 322.6C351.93 321.95 353.18 321.27 354.47 320.6C353.3 321.42 352.09 322.19 350.91 322.98L347.29 325.27C344.88 326.8 342.44 328.27 339.99 329.71C337.54 331.15 335.06 332.58 332.56 333.95C330.06 335.32 327.51 336.75 325 338Z" fill="#263238"/>
<path d="M318.721 361.42C322.091 363.34 325.281 365.51 328.431 367.73C331.581 369.95 334.641 372.29 337.551 374.85C334.21 372.911 330.97 370.805 327.841 368.54C324.721 366.29 321.631 364 318.721 361.42Z" fill="#263238"/>
<path d="M324.25 358.54C326.85 359.33 329.41 360.23 331.96 361.13C334.51 362.03 337 363 339.57 364C342.14 365 344.57 366 347.09 367L350.83 368.6C352.06 369.17 353.3 369.71 354.52 370.3C353.22 369.92 351.94 369.47 350.65 369.06L346.82 367.72C344.26 366.82 341.73 365.85 339.21 364.88C336.69 363.91 334.21 362.88 331.68 361.88C329.15 360.88 326.7 359.72 324.25 358.54Z" fill="#263238"/>
<path d="M331.631 340.22C334.121 339.57 336.631 339.03 339.141 338.51C341.651 337.99 344.141 337.51 346.701 337.06C349.261 336.61 351.751 336.2 354.291 335.84L358.101 335.31C359.381 335.17 360.651 335 361.941 334.89C360.691 335.22 359.441 335.49 358.191 335.8L354.431 336.6C351.921 337.13 349.431 337.6 346.871 338.05C344.311 338.5 341.811 338.91 339.271 339.26C336.731 339.61 334.191 340 331.631 340.22Z" fill="#263238"/>
</svg>
