<svg width="102" height="75" viewBox="0 0 102 75" fill="none" xmlns="http://www.w3.org/2000/svg">
<g filter="url(#filter0_i_2464_3703)">
<path d="M101.048 0H47.048C28.5481 7 34.5529 24.1938 36 29.5C37.5 35 40.548 45 19.548 53C2.74797 59.4 -0.452026 70.3333 0.0479739 75H101.048V0Z" fill="#4381CA"/>
</g>
<path d="M57.116 42L60.266 35H61.546L64.706 42H63.346L60.636 35.69H61.156L58.456 42H57.116ZM58.566 40.38L58.916 39.36H62.696L63.046 40.38H58.566ZM66.4963 40.81L66.5263 39.24L69.3163 36.66H70.8163L68.4463 39.04L67.7863 39.59L66.4963 40.81ZM65.4763 42V34.58H66.7263V42H65.4763ZM69.5063 42L67.5563 39.59L68.3463 38.59L71.0263 42H69.5063ZM73.8437 42.07C73.257 42.07 72.8037 41.92 72.4837 41.62C72.1637 41.3133 72.0037 40.8633 72.0037 40.27V35.48H73.2537V40.24C73.2537 40.4933 73.317 40.69 73.4437 40.83C73.577 40.97 73.7603 41.04 73.9937 41.04C74.2737 41.04 74.507 40.9667 74.6937 40.82L75.0437 41.71C74.897 41.83 74.717 41.92 74.5037 41.98C74.2903 42.04 74.0703 42.07 73.8437 42.07ZM71.1237 37.7V36.7H74.6837V37.7H71.1237ZM76.072 42V36.66H77.322V42H76.072ZM76.702 35.78C76.4686 35.78 76.2753 35.7067 76.122 35.56C75.9753 35.4133 75.902 35.2367 75.902 35.03C75.902 34.8167 75.9753 34.64 76.122 34.5C76.2753 34.3533 76.4686 34.28 76.702 34.28C76.9353 34.28 77.1253 34.35 77.272 34.49C77.4253 34.6233 77.502 34.7933 77.502 35C77.502 35.22 77.4286 35.4067 77.282 35.56C77.1353 35.7067 76.942 35.78 76.702 35.78ZM79.1326 42V36.36C79.1326 35.8 79.2959 35.3533 79.6226 35.02C79.9559 34.68 80.4292 34.51 81.0426 34.51C81.2626 34.51 81.4692 34.5333 81.6626 34.58C81.8626 34.6267 82.0292 34.7 82.1626 34.8L81.8226 35.74C81.7292 35.6667 81.6226 35.6133 81.5026 35.58C81.3826 35.54 81.2592 35.52 81.1326 35.52C80.8726 35.52 80.6759 35.5933 80.5426 35.74C80.4092 35.88 80.3426 36.0933 80.3426 36.38V36.98L80.3826 37.54V42H79.1326ZM78.2526 37.7V36.7H81.8126V37.7H78.2526Z" fill="#FAFAFA"/>
<defs>
<filter id="filter0_i_2464_3703" x="0" y="0" width="101.048" height="76" filterUnits="userSpaceOnUse" color-interpolation-filters="sRGB">
<feFlood flood-opacity="0" result="BackgroundImageFix"/>
<feBlend mode="normal" in="SourceGraphic" in2="BackgroundImageFix" result="shape"/>
<feColorMatrix in="SourceAlpha" type="matrix" values="0 0 0 0 0 0 0 0 0 0 0 0 0 0 0 0 0 0 127 0" result="hardAlpha"/>
<feOffset dy="1"/>
<feGaussianBlur stdDeviation="2"/>
<feComposite in2="hardAlpha" operator="arithmetic" k2="-1" k3="1"/>
<feColorMatrix type="matrix" values="0 0 0 0 0 0 0 0 0 0 0 0 0 0 0 0 0 0 0.25 0"/>
<feBlend mode="normal" in2="shape" result="effect1_innerShadow_2464_3703"/>
</filter>
</defs>
</svg>
