<svg width="500" height="500" viewBox="0 0 500 500" fill="none" xmlns="http://www.w3.org/2000/svg">
<path d="M180.709 475.82C180.709 475.82 261.409 503.23 336.649 456.02C411.889 408.81 446.219 317.11 475.999 243.61C505.779 170.11 482.389 96.3 421.259 63.53C360.129 30.76 322.479 81.31 239.399 85.2C156.319 89.09 133.289 77.31 66.8289 126.61C0.368885 175.91 -6.00112 289.72 52.9289 372.8C111.859 455.88 180.709 475.82 180.709 475.82Z" fill="#CA4343"/>
<path opacity="0.7" d="M180.709 475.82C180.709 475.82 261.409 503.23 336.649 456.02C411.889 408.81 446.219 317.11 475.999 243.61C505.779 170.11 482.389 96.3 421.259 63.53C360.129 30.76 322.479 81.31 239.399 85.2C156.319 89.09 133.289 77.31 66.8289 126.61C0.368885 175.91 -6.00112 289.72 52.9289 372.8C111.859 455.88 180.709 475.82 180.709 475.82Z" fill="white"/>
<g opacity="0.3">
<path d="M425.419 151.91H442.909C443.705 151.91 444.468 152.226 445.03 152.789C445.593 153.351 445.909 154.114 445.909 154.91V166.83C445.909 167.626 445.593 168.389 445.03 168.951C444.468 169.514 443.705 169.83 442.909 169.83H404.129C403.333 169.83 402.57 169.514 402.008 168.951C401.445 168.389 401.129 167.626 401.129 166.83V154.9C401.129 154.104 401.445 153.341 402.008 152.779C402.57 152.216 403.333 151.9 404.129 151.9H417.259" stroke="black" stroke-miterlimit="10"/>
<path d="M442.999 192.41H427.359C426.564 192.41 425.801 192.094 425.238 191.531C424.675 190.969 424.359 190.206 424.359 189.41V177.5C424.359 176.704 424.675 175.941 425.238 175.379C425.801 174.816 426.564 174.5 427.359 174.5H466.139C466.935 174.5 467.698 174.816 468.261 175.379C468.823 175.941 469.139 176.704 469.139 177.5V189.42C469.139 190.216 468.823 190.979 468.261 191.541C467.698 192.104 466.935 192.42 466.139 192.42H452.409" stroke="black" stroke-miterlimit="10"/>
<path d="M375.401 182.61V177.5C375.401 176.704 375.717 175.941 376.279 175.379C376.842 174.816 377.605 174.5 378.401 174.5H417.181C417.976 174.5 418.739 174.816 419.302 175.379C419.865 175.941 420.181 176.704 420.181 177.5V189.42C420.181 190.216 419.865 190.979 419.302 191.541C418.739 192.104 417.976 192.42 417.181 192.42H378.391C377.595 192.42 376.832 192.104 376.269 191.541C375.707 190.979 375.391 190.216 375.391 189.42" stroke="black" stroke-miterlimit="10"/>
<path d="M162.901 235.88H180.401C181.197 235.88 181.96 236.196 182.522 236.759C183.085 237.321 183.401 238.084 183.401 238.88V250.8C183.401 251.596 183.085 252.359 182.522 252.921C181.96 253.484 181.197 253.8 180.401 253.8H141.621C140.825 253.8 140.062 253.484 139.5 252.921C138.937 252.359 138.621 251.596 138.621 250.8V238.87C138.621 238.074 138.937 237.311 139.5 236.749C140.062 236.186 140.825 235.87 141.621 235.87H154.741" stroke="black" stroke-miterlimit="10"/>
<path d="M180.478 276.38H164.848C164.052 276.38 163.289 276.064 162.726 275.501C162.164 274.939 161.848 274.176 161.848 273.38V261.47C161.848 260.674 162.164 259.911 162.726 259.349C163.289 258.786 164.052 258.47 164.848 258.47H203.618C204.413 258.47 205.176 258.786 205.739 259.349C206.302 259.911 206.618 260.674 206.618 261.47V273.39C206.618 274.186 206.302 274.949 205.739 275.511C205.176 276.074 204.413 276.39 203.618 276.39H189.898" stroke="black" stroke-miterlimit="10"/>
<path d="M112.889 266.58V261.47C112.889 260.674 113.205 259.911 113.768 259.349C114.33 258.786 115.093 258.47 115.889 258.47H154.669C155.465 258.47 156.228 258.786 156.79 259.349C157.353 259.911 157.669 260.674 157.669 261.47V273.39C157.669 274.186 157.353 274.949 156.79 275.511C156.228 276.074 155.465 276.39 154.669 276.39H115.879C115.083 276.39 114.32 276.074 113.758 275.511C113.195 274.949 112.879 274.186 112.879 273.39" stroke="black" stroke-miterlimit="10"/>
<path d="M425.419 420H442.909C443.705 420 444.468 420.316 445.03 420.879C445.593 421.441 445.909 422.204 445.909 423V434.93C445.909 435.726 445.593 436.489 445.03 437.051C444.468 437.614 443.705 437.93 442.909 437.93H404.129C403.333 437.93 402.57 437.614 402.008 437.051C401.445 436.489 401.129 435.726 401.129 434.93V423C401.129 422.204 401.445 421.441 402.008 420.879C402.57 420.316 403.333 420 404.129 420H417.259" stroke="black" stroke-miterlimit="10"/>
<path d="M442.999 460.52H427.359C426.564 460.52 425.801 460.204 425.238 459.641C424.675 459.079 424.359 458.316 424.359 457.52V445.6C424.359 444.804 424.675 444.041 425.238 443.479C425.801 442.916 426.564 442.6 427.359 442.6H466.139C466.935 442.6 467.698 442.916 468.261 443.479C468.823 444.041 469.139 444.804 469.139 445.6V457.53C469.139 458.326 468.823 459.089 468.261 459.651C467.698 460.214 466.935 460.53 466.139 460.53H452.409" stroke="black" stroke-miterlimit="10"/>
<path d="M375.401 450.71V445.6C375.401 444.804 375.717 444.041 376.279 443.479C376.842 442.916 377.605 442.6 378.401 442.6H417.181C417.976 442.6 418.739 442.916 419.302 443.479C419.865 444.041 420.181 444.804 420.181 445.6V457.53C420.181 458.326 419.865 459.089 419.302 459.651C418.739 460.214 417.976 460.53 417.181 460.53H378.391C377.595 460.53 376.832 460.214 376.269 459.651C375.707 459.089 375.391 458.326 375.391 457.53" stroke="black" stroke-miterlimit="10"/>
<path d="M62.7275 396.45H80.2175C81.0132 396.45 81.7762 396.766 82.3388 397.329C82.9014 397.891 83.2175 398.654 83.2175 399.45V411.37C83.2175 412.166 82.9014 412.929 82.3388 413.491C81.7762 414.054 81.0132 414.37 80.2175 414.37H41.4375C40.6419 414.37 39.8788 414.054 39.3162 413.491C38.7536 412.929 38.4375 412.166 38.4375 411.37V399.44C38.4375 398.644 38.7536 397.881 39.3162 397.319C39.8788 396.756 40.6419 396.44 41.4375 396.44H54.5675" stroke="black" stroke-miterlimit="10"/>
<path d="M80.308 437H64.668C63.8723 437 63.1093 436.684 62.5466 436.121C61.984 435.559 61.668 434.796 61.668 434V422C61.668 421.204 61.984 420.441 62.5466 419.879C63.1093 419.316 63.8723 419 64.668 419H103.448C104.244 419 105.007 419.316 105.569 419.879C106.132 420.441 106.448 421.204 106.448 422V434C106.448 434.796 106.132 435.559 105.569 436.121C105.007 436.684 104.244 437 103.448 437H89.718" stroke="black" stroke-miterlimit="10"/>
<path d="M12.7092 427.15V422C12.7092 421.204 13.0253 420.441 13.5879 419.879C14.1505 419.316 14.9136 419 15.7092 419H54.4792C55.2749 419 56.0379 419.316 56.6005 419.879C57.1631 420.441 57.4792 421.204 57.4792 422V434C57.4792 434.796 57.1631 435.559 56.6005 436.121C56.0379 436.684 55.2749 437 54.4792 437H15.6992C14.9036 437 14.1405 436.684 13.5779 436.121C13.0153 435.559 12.6992 434.796 12.6992 434" stroke="black" stroke-miterlimit="10"/>
<path d="M323.079 79.53H340.569C341.365 79.53 342.128 79.8461 342.69 80.4087C343.253 80.9713 343.569 81.7344 343.569 82.53V94.45C343.569 95.2457 343.253 96.0087 342.69 96.5713C342.128 97.134 341.365 97.45 340.569 97.45H301.789C300.993 97.45 300.23 97.134 299.668 96.5713C299.105 96.0087 298.789 95.2457 298.789 94.45V82.52C298.789 81.7244 299.105 80.9613 299.668 80.3987C300.23 79.8361 300.993 79.52 301.789 79.52H314.919" stroke="black" stroke-miterlimit="10"/>
<path d="M340.66 120H325C324.204 120 323.441 119.684 322.879 119.121C322.316 118.559 322 117.796 322 117V105.12C322 104.324 322.316 103.561 322.879 102.999C323.441 102.436 324.204 102.12 325 102.12H363.8C364.596 102.12 365.359 102.436 365.921 102.999C366.484 103.561 366.8 104.324 366.8 105.12V117.05C366.8 117.846 366.484 118.609 365.921 119.171C365.359 119.734 364.596 120.05 363.8 120.05H350.08" stroke="black" stroke-miterlimit="10"/>
<path d="M273.059 110.23V105.12C273.059 104.324 273.375 103.561 273.937 102.999C274.5 102.436 275.263 102.12 276.059 102.12H314.829C315.624 102.12 316.387 102.436 316.95 102.999C317.513 103.561 317.829 104.324 317.829 105.12V117.05C317.829 117.846 317.513 118.609 316.95 119.171C316.387 119.734 315.624 120.05 314.829 120.05H276.059C275.263 120.05 274.5 119.734 273.937 119.171C273.375 118.609 273.059 117.846 273.059 117.05" stroke="black" stroke-miterlimit="10"/>
<path d="M237.3 396.45H254.79C255.586 396.45 256.349 396.766 256.911 397.329C257.474 397.891 257.79 398.654 257.79 399.45V411.37C257.79 412.166 257.474 412.929 256.911 413.491C256.349 414.054 255.586 414.37 254.79 414.37H216C215.204 414.37 214.441 414.054 213.879 413.491C213.316 412.929 213 412.166 213 411.37V399.44C213 398.644 213.316 397.881 213.879 397.319C214.441 396.756 215.204 396.44 216 396.44H229.13" stroke="black" stroke-miterlimit="10"/>
<path d="M254.878 437H239.238C238.443 437 237.68 436.684 237.117 436.121C236.554 435.559 236.238 434.796 236.238 434V422C236.238 421.204 236.554 420.441 237.117 419.879C237.68 419.316 238.443 419 239.238 419H277.998C278.794 419 279.557 419.316 280.12 419.879C280.682 420.441 280.998 421.204 280.998 422V434C280.998 434.796 280.682 435.559 280.12 436.121C279.557 436.684 278.794 437 277.998 437H264.288" stroke="black" stroke-miterlimit="10"/>
<path d="M187.28 427.15V422C187.28 421.204 187.596 420.441 188.158 419.879C188.721 419.316 189.484 419 190.28 419H229.06C229.855 419 230.618 419.316 231.181 419.879C231.743 420.441 232.06 421.204 232.06 422V434C232.06 434.796 231.743 435.559 231.181 436.121C230.618 436.684 229.855 437 229.06 437H190.27C189.474 437 188.711 436.684 188.148 436.121C187.586 435.559 187.27 434.796 187.27 434" stroke="black" stroke-miterlimit="10"/>
<path d="M135.649 419.28H153.139C153.935 419.28 154.698 419.596 155.261 420.159C155.823 420.721 156.139 421.484 156.139 422.28V434.2C156.139 434.996 155.823 435.759 155.261 436.321C154.698 436.884 153.935 437.2 153.139 437.2H114.359C113.564 437.2 112.801 436.884 112.238 436.321C111.675 435.759 111.359 434.996 111.359 434.2V422.27C111.359 421.474 111.675 420.711 112.238 420.149C112.801 419.586 113.564 419.27 114.359 419.27H127.489" stroke="black" stroke-miterlimit="10"/>
<path d="M153.23 459.79H137.59C136.794 459.79 136.031 459.474 135.469 458.911C134.906 458.349 134.59 457.586 134.59 456.79V444.88C134.59 444.084 134.906 443.321 135.469 442.759C136.031 442.196 136.794 441.88 137.59 441.88H176.37C177.165 441.88 177.929 442.196 178.491 442.759C179.054 443.321 179.37 444.084 179.37 444.88V456.8C179.37 457.596 179.054 458.359 178.491 458.921C177.929 459.484 177.165 459.8 176.37 459.8H162.64" stroke="black" stroke-miterlimit="10"/>
<path d="M85.6311 450V444.9C85.6311 444.104 85.9472 443.341 86.5098 442.779C87.0724 442.216 87.8354 441.9 88.6311 441.9H127.401C128.197 441.9 128.96 442.216 129.522 442.779C130.085 443.341 130.401 444.104 130.401 444.9V456.8C130.401 457.596 130.085 458.359 129.522 458.921C128.96 459.484 128.197 459.8 127.401 459.8H88.6211C87.8254 459.8 87.0624 459.484 86.4998 458.921C85.9372 458.359 85.6211 457.596 85.6211 456.8" stroke="black" stroke-miterlimit="10"/>
<path d="M70.3877 85.47H87.8777C88.6733 85.47 89.4364 85.7861 89.999 86.3487C90.5616 86.9113 90.8777 87.6744 90.8777 88.47V100.39C90.8777 101.186 90.5616 101.949 89.999 102.511C89.4364 103.074 88.6733 103.39 87.8777 103.39H49.0977C48.302 103.39 47.5389 103.074 46.9763 102.511C46.4137 101.949 46.0977 101.186 46.0977 100.39V88.46C46.0977 87.6644 46.4137 86.9013 46.9763 86.3387C47.5389 85.7761 48.302 85.46 49.0977 85.46H62.2277" stroke="black" stroke-miterlimit="10"/>
<path d="M87.9981 126H72.3281C71.5325 126 70.7694 125.684 70.2068 125.121C69.6442 124.559 69.3281 123.796 69.3281 123V111.06C69.3281 110.264 69.6442 109.501 70.2068 108.939C70.7694 108.376 71.5325 108.06 72.3281 108.06H111.108C111.904 108.06 112.667 108.376 113.229 108.939C113.792 109.501 114.108 110.264 114.108 111.06V123C114.108 123.796 113.792 124.559 113.229 125.121C112.667 125.684 111.904 126 111.108 126H97.3781" stroke="black" stroke-miterlimit="10"/>
<path d="M20.3694 116.17V111.06C20.3694 110.264 20.6854 109.501 21.2481 108.939C21.8107 108.376 22.5737 108.06 23.3694 108.06H62.1394C62.935 108.06 63.6981 108.376 64.2607 108.939C64.8233 109.501 65.1394 110.264 65.1394 111.06V123C65.1394 123.796 64.8233 124.559 64.2607 125.121C63.6981 125.684 62.935 126 62.1394 126H23.3594C22.5637 126 21.8007 125.684 21.2381 125.121C20.6754 124.559 20.3594 123.796 20.3594 123" stroke="black" stroke-miterlimit="10"/>
<path d="M376.458 244H393.998C394.794 244 395.557 244.316 396.119 244.879C396.682 245.441 396.998 246.204 396.998 247V258.93C396.998 259.726 396.682 260.489 396.119 261.051C395.557 261.614 394.794 261.93 393.998 261.93H355.168C354.372 261.93 353.609 261.614 353.047 261.051C352.484 260.489 352.168 259.726 352.168 258.93V247C352.168 246.204 352.484 245.441 353.047 244.879C353.609 244.316 354.372 244 355.168 244H368.288" stroke="black" stroke-miterlimit="10"/>
<path d="M393.998 284.53H378.398C377.603 284.53 376.84 284.214 376.277 283.651C375.715 283.089 375.398 282.326 375.398 281.53V269.61C375.398 268.814 375.715 268.051 376.277 267.489C376.84 266.926 377.603 266.61 378.398 266.61H417.178C417.974 266.61 418.737 266.926 419.3 267.489C419.862 268.051 420.178 268.814 420.178 269.61V281.54C420.178 282.336 419.862 283.099 419.3 283.661C418.737 284.224 417.974 284.54 417.178 284.54H403.448" stroke="black" stroke-miterlimit="10"/>
<path d="M326.44 274.72V269.61C326.44 268.814 326.756 268.051 327.318 267.489C327.881 266.926 328.644 266.61 329.44 266.61H368.22C369.015 266.61 369.778 266.926 370.341 267.489C370.904 268.051 371.22 268.814 371.22 269.61V281.54C371.22 282.336 370.904 283.099 370.341 283.661C369.778 284.224 369.015 284.54 368.22 284.54H329.43C328.634 284.54 327.871 284.224 327.308 283.661C326.746 283.099 326.43 282.336 326.43 281.54" stroke="black" stroke-miterlimit="10"/>
<path d="M328.997 198.86H346.487C347.283 198.86 348.046 199.176 348.609 199.739C349.171 200.301 349.487 201.064 349.487 201.86V213.78C349.487 214.576 349.171 215.339 348.609 215.901C348.046 216.464 347.283 216.78 346.487 216.78H307.688C306.892 216.78 306.129 216.464 305.566 215.901C305.004 215.339 304.688 214.576 304.688 213.78V201.85C304.688 201.054 305.004 200.291 305.566 199.729C306.129 199.166 306.892 198.85 307.688 198.85H320.807" stroke="black" stroke-miterlimit="10"/>
<path d="M346.548 239.36H330.918C330.122 239.36 329.359 239.044 328.797 238.481C328.234 237.919 327.918 237.156 327.918 236.36V224.45C327.918 223.654 328.234 222.891 328.797 222.329C329.359 221.766 330.122 221.45 330.918 221.45H369.688C370.484 221.45 371.247 221.766 371.809 222.329C372.372 222.891 372.688 223.654 372.688 224.45V236.37C372.688 237.166 372.372 237.929 371.809 238.491C371.247 239.054 370.484 239.37 369.688 239.37H355.998" stroke="black" stroke-miterlimit="10"/>
<path d="M279 229.56V224.45C279 223.654 279.316 222.891 279.879 222.329C280.441 221.766 281.204 221.45 282 221.45H320.78C321.576 221.45 322.339 221.766 322.901 222.329C323.464 222.891 323.78 223.654 323.78 224.45V236.37C323.78 237.166 323.464 237.929 322.901 238.491C322.339 239.054 321.576 239.37 320.78 239.37H282C281.204 239.37 280.441 239.054 279.879 238.491C279.316 237.929 279 237.166 279 236.37" stroke="black" stroke-miterlimit="10"/>
</g>
<path d="M152.309 125.68C152.309 125.68 154.189 59.95 157.939 61.59C161.689 63.23 161.699 125.68 161.699 125.68H152.309Z" fill="white" stroke="#263238" stroke-miterlimit="10"/>
<path d="M160.761 54.31C160.761 58.07 159.451 61.12 157.831 61.12C156.211 61.12 154.891 58.12 154.891 54.31C154.891 50.5 156.201 45.16 157.831 45.16C159.461 45.16 160.761 50.55 160.761 54.31Z" fill="#CA4343"/>
<path d="M55.1094 125.68C55.1094 125.68 56.9994 60 60.7494 61.59C64.4994 63.18 64.4994 125.68 64.4994 125.68H55.1094Z" fill="white" stroke="#263238" stroke-miterlimit="10"/>
<path d="M63.5692 54.31C63.5692 58.07 62.2492 61.12 60.6292 61.12C59.0092 61.12 57.6992 58.12 57.6992 54.31C57.6992 50.5 59.0092 45.16 60.6292 45.16C62.2492 45.16 63.5692 50.55 63.5692 54.31Z" fill="#CA4343"/>
<path d="M103.48 97C103.48 97 105.35 31.3 109.11 33C112.87 34.7 112.87 97 112.87 97H103.48Z" fill="white" stroke="#263238" stroke-miterlimit="10"/>
<path d="M111.929 25.67C111.929 29.43 110.609 32.48 108.989 32.48C107.369 32.48 106.059 29.48 106.059 25.67C106.059 21.86 107.369 16.51 108.989 16.51C110.609 16.51 111.929 21.91 111.929 25.67Z" fill="#CA4343"/>
<path d="M158.76 142.39C159.03 141.642 159.343 140.911 159.7 140.2C160.897 137.555 161.683 134.742 162.03 131.86C162.182 130.416 162.629 129.019 163.345 127.756C164.061 126.494 165.029 125.392 166.19 124.52H148C149.197 125.471 150.184 126.659 150.9 128.01C151.704 130.271 152.231 132.622 152.47 135.01C152.936 137.733 154.124 140.282 155.91 142.39H142.44L149.11 145.65H154.46C154.701 147.771 154.782 149.907 154.7 152.04C154.14 157.7 152.07 160.6 149.86 162.26C147.65 163.92 143.37 164.2 139.5 160.47C136.24 157.32 135.09 151.63 133.15 148.04C131.21 144.45 127.9 140.58 123.35 141.04C118.8 141.5 116.99 144.5 115.75 145.32C115.15 145.72 113.69 145.67 112.34 145.52C112.335 144.975 112.295 144.43 112.22 143.89C112.1 143.11 110.52 142.19 110.39 140.89C110.26 139.59 111.98 138.14 112.22 135.4C112.46 132.66 110.88 127.82 110.22 124.94C110.083 124.027 110.154 123.096 110.428 122.214C110.701 121.333 111.17 120.525 111.8 119.85H111.64V116.85H115.82L122.48 113.58H109.05C110.838 111.477 112.026 108.931 112.49 106.21C112.726 103.821 113.254 101.471 114.06 99.21C114.771 97.859 115.759 96.6732 116.96 95.73H98.79C99.9501 96.6015 100.918 97.7034 101.632 98.9665C102.346 100.23 102.791 101.627 102.94 103.07C103.292 105.953 104.081 108.765 105.28 111.41C105.64 112.14 105.96 112.91 106.22 113.59H93.65L100.32 116.86H104.11V119.86C104.742 120.533 105.213 121.341 105.486 122.223C105.76 123.105 105.83 124.037 105.69 124.95C105.08 127.83 103.5 132.66 103.75 135.41C104 138.16 105.69 139.59 105.57 140.9C105.45 142.21 103.87 143.12 103.75 143.9C103.677 144.454 103.634 145.011 103.62 145.57C102.617 145.769 101.578 145.686 100.62 145.33C99.38 144.51 97.62 141.47 93.03 141.05C88.44 140.63 85.16 144.51 83.22 148.05C81.28 151.59 80.13 157.33 76.87 160.48C73 164.21 68.72 163.93 66.51 162.27C64.3 160.61 62.22 157.7 61.67 152C61.5807 149.867 61.6576 147.731 61.9 145.61H67.26L73.92 142.35H60.44C62.2211 140.25 63.4088 137.713 63.88 135C64.1091 132.61 64.6366 130.259 65.45 128C66.1607 126.649 67.1449 125.46 68.34 124.51H50.17C51.3324 125.38 52.3021 126.481 53.0181 127.745C53.734 129.008 54.1807 130.406 54.33 131.85C54.6807 134.733 55.4698 137.545 56.67 140.19C57.03 140.92 57.35 141.69 57.61 142.38H45L51.66 145.64H57.2C57.2 148.01 57.49 157.98 63.42 163.91C68.23 168.71 76.96 165.43 79.58 161.98C81.83 158.98 84.14 146.37 90.21 144.3C96.28 142.23 97.53 145.3 98.09 146.51C98.65 147.72 101.09 147.89 101.09 147.89H103.5V150.24H103.4C103.4 150.24 104.99 153.11 104.65 155.07C104.31 157.03 104.08 158.86 103.52 159.78C103.219 160.163 103.003 160.605 102.886 161.077C102.769 161.549 102.753 162.041 102.84 162.52C102.88 162.89 103.003 163.246 103.198 163.563C103.394 163.879 103.657 164.148 103.97 164.35C104.072 164.408 104.184 164.445 104.3 164.46V171.41C104.3 171.41 100.89 179.51 101.69 184.09C102.22 187.09 104 190.84 104.82 196.09L107.71 202.35L111.07 196.09C111.9 190.81 113.68 187.09 114.2 184.09C115 179.51 111.6 171.41 111.6 171.41V164.5C111.778 164.49 111.952 164.442 112.11 164.36C112.421 164.157 112.684 163.887 112.879 163.571C113.074 163.255 113.198 162.899 113.24 162.53C113.322 162.051 113.304 161.56 113.187 161.089C113.07 160.617 112.856 160.175 112.56 159.79C111.99 158.87 111.77 157.04 111.43 155.08C111.09 153.12 112.67 150.25 112.67 150.25H112.26V147.9H115.12C115.12 147.9 117.6 147.76 118.12 146.52C118.64 145.28 119.91 142.24 125.99 144.31C132.07 146.38 134.49 159 136.74 162C139.37 165.45 148.1 168.73 152.9 163.93C158.83 158 159.14 148.03 159.13 145.66H164.66L171.32 142.4L158.76 142.39Z" fill="#263238" stroke="#263238" stroke-miterlimit="10"/>
<path d="M117.688 196.44H98.8184L97.1484 193H119.358L117.688 196.44Z" fill="#263238" stroke="#263238" stroke-miterlimit="10"/>
<path d="M122.891 313.6C122.891 313.6 110.981 315.71 109.131 315.45C107.281 315.19 100.391 310.95 99.3308 307.77C98.2708 304.59 94.5708 297.45 94.0408 293.77C93.5108 290.09 85.3108 291.38 83.7208 292.18C82.1308 292.98 76.3108 294.29 68.3708 295.35C60.4308 296.41 58.0408 296.94 55.3708 299.59C52.7008 302.24 52.0008 308.83 57.0008 309.63C62.0008 310.43 69.7108 301.95 73.4108 299.83C77.1108 297.71 86.6508 298.24 87.7108 298.77C88.7708 299.3 88.7708 309.63 87.7108 312.77C86.6508 315.91 81.3507 320.18 81.3507 320.18C81.3507 320.18 56.4708 321.77 50.3508 322.3C44.2308 322.83 41.3508 333.68 40.2908 337.65C39.2308 341.62 43.2008 347.98 47.4408 345.59C51.6808 343.2 54.5808 333.42 55.1108 331.04C55.6408 328.66 61.2008 327.86 64.9008 327.86C68.6008 327.86 74.1708 328.12 77.6108 328.39C81.0508 328.66 82.6107 330.51 81.8407 333.15C81.0707 335.79 67.8408 341.89 60.6708 345.06C53.5008 348.23 51.4108 358.06 52.2008 362.27C52.9908 366.48 56.7008 368.62 60.1408 366.5C63.5808 364.38 63.8508 359.36 64.6408 356.18C65.4308 353 66.4908 351.42 67.2908 350.62C68.0908 349.82 75.2308 347.98 80.2908 345.62C85.3508 343.26 90.2908 340.62 91.4008 341.12C92.5108 341.62 91.6708 347.74 89.2908 354.62C86.9108 361.5 85.2908 364.95 87.4308 369.71C89.5708 374.47 89.5508 376.86 95.9008 377.39C102.251 377.92 105.961 373.68 103.051 369.71C100.141 365.74 94.0508 365.21 94.5808 362.56C95.1108 359.91 98.5807 348.8 101.201 346.68C103.821 344.56 109.671 341.39 111.521 339.01C113.371 336.63 118.401 329.21 118.401 329.21L126.871 326.04L122.891 313.6Z" fill="#263238" stroke="#263238" stroke-miterlimit="10"/>
<path d="M391.26 299.34C391.26 299.34 403.17 301.46 405.03 301.2C406.89 300.94 413.76 296.7 414.82 293.52C415.88 290.34 419.58 283.2 420.11 279.52C420.64 275.84 428.85 277.14 430.44 277.94C432.03 278.74 437.85 280.05 445.79 281.11C453.73 282.17 456.11 282.7 458.79 285.35C461.47 288 462.23 294.61 457.2 295.4C452.17 296.19 444.49 287.73 440.79 285.61C437.09 283.49 427.55 284.02 426.5 284.55C425.45 285.08 425.44 295.4 426.5 298.55C427.56 301.7 432.85 305.96 432.85 305.96C432.85 305.96 457.73 307.55 463.85 308.08C469.97 308.61 472.85 319.46 473.85 323.43C474.85 327.4 470.94 333.75 466.71 331.37C462.48 328.99 459.56 319.2 459.03 316.81C458.5 314.42 452.94 313.64 449.24 313.64C445.54 313.64 439.98 313.9 436.53 314.17C433.08 314.44 431.53 316.28 432.3 318.93C433.07 321.58 446.3 327.67 453.47 330.84C460.64 334.01 462.74 343.84 461.94 348.05C461.14 352.26 457.44 354.4 454 352.28C450.56 350.16 450.3 345.14 449.5 341.96C448.7 338.78 447.65 337.19 446.86 336.4C446.07 335.61 438.92 333.75 433.86 331.4C428.8 329.05 423.8 326.4 422.74 326.9C421.68 327.4 422.48 333.52 424.86 340.4C427.24 347.28 428.86 350.72 426.71 355.49C424.56 360.26 424.59 362.63 418.24 363.16C411.89 363.69 408.18 359.46 411.09 355.49C414 351.52 420.09 350.99 419.56 348.34C419.03 345.69 415.56 334.58 412.95 332.46C410.34 330.34 404.48 327.17 402.62 324.78C400.76 322.39 395.74 314.99 395.74 314.99L387.27 311.82L391.26 299.34Z" fill="#263238" stroke="#263238" stroke-miterlimit="10"/>
<path d="M345.88 413L338.5 378.2C338.5 378.2 327.11 390.7 326.75 398.78C326.39 406.86 338.93 413.58 345.88 413Z" fill="#263238" stroke="#263238" stroke-miterlimit="10"/>
<path d="M171.379 375L174.679 413C174.679 413 193.079 415.11 199.279 408.36C205.479 401.61 188.709 377.18 181.229 374.08C173.749 370.98 171.379 375 171.379 375Z" fill="#263238" stroke="#263238" stroke-miterlimit="10"/>
<path d="M150.751 351.18C150.659 351.11 150.562 351.047 150.461 350.99C150.541 351.075 150.641 351.14 150.751 351.18Z" fill="#CA4343" stroke="#263238" stroke-miterlimit="10"/>
<path d="M364 360.38C364 360.38 363.58 361.03 363 362.1C364.89 363.4 364 360.38 364 360.38Z" fill="#CA4343" stroke="#263238" stroke-miterlimit="10"/>
<path d="M343 256.51C321.44 232.31 304.61 203.12 303.82 197.34C303.03 191.56 309.6 156.57 310.13 135.8C310.66 115.03 308.8 99.51 293.81 85C285.97 77.43 273.46 74.11 262.64 75.41C250.18 76.91 240.93 86.17 233.52 95.62C215.72 118.35 216.45 156.15 209.63 180.01C202.81 203.87 175.16 254.25 155.85 278.11C136.54 301.97 119.48 314.11 119.48 314.11C119.48 314.11 124.66 332.19 127.9 343.77C131.14 355.35 131.14 358.13 131.14 359.98C131.156 361.24 130.87 362.486 130.306 363.613C129.743 364.741 128.917 365.717 127.9 366.46C127.108 367.135 126.175 367.622 125.169 367.885C124.163 368.148 123.11 368.181 122.09 367.98C122.372 370.97 122.193 373.985 121.56 376.92C121.09 379.01 120.195 380.981 118.93 382.71C118.93 382.71 127.61 377.45 128.4 377.45C129.19 377.45 128.93 369.56 133.92 364.3C138.91 359.04 141.81 358.51 141.81 358.51C141.81 358.51 141.02 351.94 144.71 350.62C145.633 350.247 146.628 350.084 147.623 350.143C148.617 350.202 149.586 350.481 150.46 350.96C150.02 350.52 149.46 349.12 151.81 344.84C154.96 339.05 158.12 334.06 158.12 334.06C158.12 334.06 159.69 346.94 158.64 352.99C158.025 356.581 156.162 359.839 153.38 362.19C153.38 362.19 157.07 361.41 156.01 364.82C154.95 368.23 150.01 373.5 150.01 373.5C157.573 374.371 164.897 376.693 171.58 380.34C182.58 386.39 193.41 394.54 192.09 397.96C190.77 401.38 175.52 411.37 174.73 412.96C173.94 414.55 184.46 429.53 194.46 432.68C204.46 435.83 213.13 441.62 213.13 442.41C213.13 443.2 213.39 437.94 221.28 436.63C229.17 435.32 241.28 440.31 239.95 444.25C239.246 446.466 238.276 448.588 237.06 450.57C237.06 450.57 242.58 446.36 242.58 450.3C242.58 454.24 243.37 456.88 240.74 460.3C239.145 462.365 237.386 464.298 235.48 466.08C235.48 466.08 244.95 467.4 250.21 474.23C253.731 479.107 256.63 484.405 258.84 490C258.84 490 260.15 469.75 265.94 464L271.72 458.21C271.72 458.21 263.83 453.74 266.72 442.96C269.61 432.18 276.72 422.45 276.72 422.45C276.72 422.45 279.61 414.82 280.4 414.03C281.19 413.24 283.56 416.92 284.4 422.71C284.885 426.898 285.059 431.116 284.92 435.33C286.045 434.668 287.363 434.412 288.655 434.603C289.946 434.794 291.134 435.421 292.02 436.38C295.44 439.8 299.39 451.9 299.39 451.9L308.33 438.49C308.33 438.49 304.38 439.54 304.65 430.6C304.92 421.66 308.33 417.71 308.33 417.71C309.919 420.661 310.985 423.865 311.48 427.18C312.54 433.23 312.01 435.86 312.01 435.86C315.655 432.748 319.73 430.178 324.11 428.23C329.057 425.963 334.224 424.21 339.53 423C339.53 422.84 339.9 422.08 341.41 419C343.78 414.26 345.88 413 345.88 413C345.88 413 331.68 410.37 330.88 400.11C330.08 389.85 344.82 381.18 350.61 378.55C353.68 377.111 356.844 375.882 360.08 374.87C360.08 374.87 357.45 374.87 359.29 369.87C360.309 367.19 361.546 364.598 362.99 362.12C361.797 361.16 360.729 360.055 359.81 358.83C354 351.7 353.77 348 353.77 348C353.77 348 350.88 344.32 351.93 342C352.98 339.68 355.09 323.33 355.09 323.33C355.09 323.33 356.4 339.11 359.82 343.33C363.24 347.55 369.29 348.59 369.29 348.59L366.66 354.37C366.66 354.37 370.08 354.11 372.18 355.69L374.29 357.27C374.29 357.27 378.76 346.75 384.29 333.86C389.82 320.97 393.76 298.86 393.76 298.86C393.76 298.86 364.56 280.7 343 256.51ZM142.07 337.28C141.412 337.282 140.769 337.089 140.221 336.725C139.674 336.361 139.247 335.842 138.994 335.235C138.742 334.628 138.675 333.96 138.803 333.315C138.931 332.67 139.247 332.077 139.712 331.612C140.177 331.148 140.77 330.831 141.414 330.703C142.059 330.576 142.728 330.642 143.335 330.895C143.942 331.147 144.46 331.574 144.824 332.122C145.188 332.669 145.382 333.313 145.38 333.97C145.377 334.847 145.027 335.687 144.407 336.308C143.787 336.928 142.947 337.277 142.07 337.28ZM230.8 427.86C229.635 427.86 228.496 427.515 227.527 426.867C226.559 426.22 225.804 425.3 225.358 424.224C224.912 423.148 224.796 421.964 225.023 420.821C225.25 419.678 225.811 418.629 226.635 417.805C227.459 416.981 228.508 416.42 229.651 416.193C230.793 415.966 231.977 416.083 233.054 416.528C234.13 416.974 235.05 417.729 235.697 418.698C236.344 419.666 236.69 420.805 236.69 421.97C236.69 423.532 236.069 425.03 234.965 426.135C233.86 427.239 232.362 427.86 230.8 427.86ZM243.14 416.08C242.374 416.082 241.625 415.857 240.987 415.433C240.349 415.009 239.852 414.405 239.557 413.698C239.263 412.991 239.185 412.213 239.333 411.461C239.481 410.71 239.849 410.019 240.39 409.477C240.93 408.935 241.62 408.565 242.371 408.415C243.122 408.265 243.901 408.341 244.608 408.634C245.316 408.926 245.921 409.422 246.347 410.059C246.772 410.696 247 411.444 247 412.21C247 413.235 246.593 414.218 245.87 414.943C245.146 415.668 244.164 416.077 243.14 416.08ZM248.48 429C247.969 429.002 247.469 428.852 247.044 428.57C246.618 428.288 246.286 427.886 246.089 427.414C245.892 426.943 245.84 426.424 245.938 425.923C246.036 425.422 246.281 424.961 246.642 424.599C247.002 424.237 247.462 423.991 247.963 423.89C248.463 423.79 248.983 423.841 249.455 424.035C249.927 424.23 250.33 424.561 250.614 424.986C250.898 425.41 251.05 425.909 251.05 426.42C251.05 427.103 250.779 427.757 250.298 428.241C249.816 428.724 249.162 428.997 248.48 429ZM343.48 351.87C343.478 351.45 343.6 351.039 343.832 350.69C344.064 350.34 344.394 350.066 344.781 349.904C345.169 349.742 345.595 349.699 346.007 349.78C346.419 349.86 346.798 350.061 347.095 350.357C347.393 350.654 347.596 351.031 347.678 351.443C347.761 351.854 347.719 352.281 347.559 352.669C347.399 353.057 347.127 353.389 346.779 353.622C346.43 353.855 346.019 353.98 345.6 353.98C345.318 353.984 345.037 353.931 344.776 353.825C344.515 353.719 344.277 353.562 344.077 353.362C343.878 353.163 343.72 352.925 343.614 352.664C343.508 352.402 343.456 352.122 343.46 351.84L343.48 351.87ZM354.48 361.87C354.482 362.889 354.181 363.886 353.617 364.734C353.052 365.582 352.248 366.244 351.307 366.635C350.367 367.026 349.331 367.13 348.331 366.932C347.331 366.735 346.413 366.245 345.692 365.525C344.97 364.805 344.479 363.888 344.279 362.888C344.08 361.889 344.181 360.853 344.571 359.912C344.96 358.97 345.62 358.165 346.467 357.599C347.315 357.032 348.311 356.73 349.33 356.73C350.691 356.73 351.998 357.268 352.964 358.227C353.931 359.186 354.479 360.488 354.49 361.85L354.48 361.87Z" fill="#CA4343" stroke="#263238" stroke-miterlimit="10"/>
<path d="M208.82 210.51C207.37 220.78 205.47 234.82 203.48 251.23C199.26 286.14 199.65 302.23 199.65 302.23" stroke="#263238" stroke-miterlimit="10"/>
<path d="M211.539 192.15C211.539 192.15 210.749 197.15 209.539 205.86" stroke="#263238" stroke-miterlimit="10"/>
<path d="M235.6 250.91C234.69 262.22 233.41 282.53 233.41 306.91" stroke="#263238" stroke-miterlimit="10"/>
<path d="M236.479 241.26C236.479 241.26 236.299 242.85 236.039 245.77" stroke="#263238" stroke-miterlimit="10"/>
<path d="M254.12 210.18C254.12 210.18 253 224.38 253 243.56" stroke="#263238" stroke-miterlimit="10"/>
<path d="M309 250.15C309.38 251.96 309.77 253.74 310.18 255.45" stroke="#263238" stroke-miterlimit="10"/>
<path d="M302.461 204.43C302.461 204.43 304.341 225.35 307.871 244.54" stroke="#263238" stroke-miterlimit="10"/>
<path d="M317.491 335.66C316.411 328.75 315.561 322.17 315.121 316.45" stroke="#263238" stroke-miterlimit="10"/>
<path d="M330.89 400.09C330.89 400.09 323.28 369.72 318.52 341.93" stroke="#263238" stroke-miterlimit="10"/>
<path d="M188.57 371.41C187.28 358.32 186.32 342.14 187.13 327.07" stroke="#263238" stroke-miterlimit="10"/>
<path d="M192 398C192 398 190.55 389.73 189.18 377.58" stroke="#263238" stroke-miterlimit="10"/>
<path d="M258.332 92C256.933 95.0066 254.792 97.608 252.112 99.56C247.572 102.92 240.512 106.62 239.512 113.34C238.512 120.06 243.872 123.93 249.592 122.25C255.312 120.57 255.592 113.51 260.682 105.78C265.772 98.05 266.392 92.3401 263.872 89.9801C261.352 87.6201 260.512 89.48 258.332 92Z" fill="#263238" stroke="#263238" stroke-miterlimit="10"/>
<path d="M238.001 135C234.311 133.8 233.751 129.85 234.191 127.4" stroke="#263238" stroke-miterlimit="10"/>
<path d="M263.002 106.32C262.712 107.21 259.142 110.18 258.552 117.9C257.962 125.62 250.832 133.64 242.812 135.13C241.965 135.293 241.104 135.37 240.242 135.36" stroke="#263238" stroke-miterlimit="10"/>
<path d="M252.621 123.25C252.621 123.25 246.081 128 241.621 127.7C237.161 127.4 236.621 124.14 236.621 118.2" stroke="#263238" stroke-miterlimit="10"/>
<path d="M277.41 136.35C280.23 140.54 286.73 141.47 290.04 139.58C294.2 137.21 294.2 126.81 293.6 124.14" stroke="#263238" stroke-miterlimit="10"/>
<path d="M270.441 117.61C270.441 117.61 275.491 125.03 276.081 132.46C276.107 132.796 276.154 133.13 276.221 133.46" stroke="#263238" stroke-miterlimit="10"/>
<path d="M290.262 133.11C291.161 131.228 291.69 129.191 291.822 127.11" stroke="#263238" stroke-miterlimit="10"/>
<path d="M274.891 122.36C276.849 124.735 278.36 127.445 279.351 130.36C279.86 131.843 280.808 133.136 282.069 134.068C283.33 135 284.844 135.527 286.411 135.58" stroke="#263238" stroke-miterlimit="10"/>
<path d="M274.353 89.47C273.265 91.0948 272.82 93.0655 273.103 95C273.821 100.539 274.108 106.126 273.963 111.71C273.623 121.63 278.963 127.17 283.703 128.18C288.443 129.19 292.613 124.18 291.263 116.92C289.913 109.66 285.053 107.01 282.533 100.62C280.323 95 277.863 84.38 274.353 89.47Z" fill="#263238" stroke="#263238" stroke-miterlimit="10"/>
<path d="M283.392 146.71C282.133 145.142 280.563 143.852 278.782 142.92C276.882 141.92 273.912 139.22 271.602 132.5C267.912 121.75 261.352 122.42 256.982 129.64C252.612 136.86 254.462 139.89 249.422 145.94C244.382 151.99 236.002 155 236.822 164.09C237.642 173.18 245.222 177.2 251.822 171.82C258.422 166.44 258.002 156.53 261.002 149.31C264.002 142.09 265.702 144.26 267.552 151.49C269.402 158.72 266.202 170.49 269.732 175.19C273.262 179.89 280.492 177.54 284.022 167.45C287.132 158.61 288.812 153.77 283.392 146.71Z" fill="#263238" stroke="#263238" stroke-miterlimit="10"/>
</svg>
