<svg width="137" height="137" viewBox="0 0 137 137" fill="none" xmlns="http://www.w3.org/2000/svg">
<path d="M137 104.778H0V104.846H137V104.778Z" fill="#FAFAFA"/>
<path d="M115.962 107.759H109.159V107.827H115.962V107.759Z" fill="#E0E0E0"/>
<path d="M120.272 107.723H117.974V107.792H120.272V107.723Z" fill="#E0E0E0"/>
<path d="M90.9762 108.184H76.731V108.252H90.9762V108.184Z" fill="#E0E0E0"/>
<path d="M73.3691 108.926H71.2456V108.995H73.3691V108.926Z" fill="#E0E0E0"/>
<path d="M30.6743 106.759H27.0137V106.827H30.6743V106.759Z" fill="#E0E0E0"/>
<path d="M50.7611 106.759H32.1948V106.827H50.7611V106.759Z" fill="#E0E0E0"/>
<path d="M34.9349 108.414H22.0186V108.482H34.9349V108.414Z" fill="#E0E0E0"/>
<path d="M64.9382 92.5573H12.0315C11.6171 92.5565 11.2198 92.3914 10.927 92.0981C10.6342 91.8047 10.4697 91.4072 10.4697 90.9927V16.6209C10.4733 16.2088 10.6394 15.8148 10.9318 15.5244C11.2242 15.234 11.6194 15.0708 12.0315 15.0701H64.9382C65.3531 15.0701 65.7511 15.2349 66.0445 15.5283C66.3379 15.8217 66.5027 16.2197 66.5027 16.6346V90.9927C66.5027 91.4077 66.3379 91.8056 66.0445 92.099C65.7511 92.3924 65.3531 92.5573 64.9382 92.5573ZM12.0315 15.1249C11.6352 15.1256 11.2554 15.2835 10.9754 15.564C10.6955 15.8445 10.5382 16.2246 10.5382 16.6209V90.9927C10.5382 91.389 10.6955 91.7691 10.9754 92.0496C11.2554 92.3301 11.6352 92.488 12.0315 92.4888H64.9382C65.3347 92.488 65.7148 92.3302 65.9952 92.0498C66.2757 91.7694 66.4335 91.3893 66.4342 90.9927V16.6209C66.4335 16.2244 66.2757 15.8443 65.9952 15.5638C65.7148 15.2834 65.3347 15.1256 64.9382 15.1249H12.0315Z" fill="#E0E0E0"/>
<path d="M124.207 92.5573H71.2974C70.8827 92.5565 70.4852 92.3915 70.192 92.0982C69.8987 91.805 69.7336 91.4075 69.7329 90.9927V16.6209C69.7372 16.2086 69.9039 15.8145 70.1968 15.5242C70.4896 15.234 70.8851 15.0708 71.2974 15.0701H124.207C124.618 15.0715 125.013 15.2351 125.305 15.5254C125.597 15.8157 125.762 16.2093 125.766 16.6209V90.9927C125.766 91.4067 125.602 91.8038 125.31 92.0971C125.017 92.3903 124.621 92.5558 124.207 92.5573ZM71.2974 15.1249C70.9009 15.1256 70.5208 15.2834 70.2404 15.5638C69.96 15.8443 69.8021 16.2244 69.8014 16.6209V90.9927C69.8021 91.3893 69.96 91.7694 70.2404 92.0498C70.5208 92.3302 70.9009 92.488 71.2974 92.4888H124.207C124.603 92.488 124.984 92.3302 125.264 92.0498C125.544 91.7694 125.702 91.3893 125.703 90.9927V16.6209C125.702 16.2244 125.544 15.8443 125.264 15.5638C124.984 15.2834 124.603 15.1256 124.207 15.1249H71.2974Z" fill="#E0E0E0"/>
<path d="M93.6394 104.778H103.32V87.2087H93.6394V104.778Z" fill="#E0E0E0"/>
<path d="M114.869 87.2087H103.32V104.778H114.869V87.2087Z" fill="#EBEBEB"/>
<g style="mix-blend-mode:multiply" opacity="0.7">
<path d="M93.6393 89.4912H114.97V88.6966H93.6393V89.4912Z" fill="#E0E0E0"/>
</g>
<path d="M93.1051 89.0281H103.32V85.3674H93.1051V89.0281Z" fill="#E0E0E0"/>
<path d="M115.403 85.3704H103.32V89.031H115.403V85.3704Z" fill="#EBEBEB"/>
<path d="M53.1723 20.2734H20.5854V59.154H53.1723V20.2734Z" fill="#E0E0E0"/>
<path d="M54.6656 20.2734H21.2842V59.154H54.6656V20.2734Z" fill="#EBEBEB"/>
<path d="M53.1723 59.1538H20.5854V61.9239H53.1723V59.1538Z" fill="#E0E0E0"/>
<path d="M57.148 59.1538H23.7666V61.9239H57.148V59.1538Z" fill="#EBEBEB"/>
<path d="M52.5776 57.0662V22.3613L23.372 22.3613L23.372 57.0662H52.5776Z" fill="#F5F5F5"/>
<path d="M26.9561 57.0662L39.2066 22.3613H44.988L32.7402 57.0662H26.9561Z" fill="#FAFAFA"/>
<path d="M24.3364 45.2923C24.2969 45.2916 24.2593 45.2754 24.2316 45.2472C24.204 45.219 24.1885 45.1811 24.1885 45.1416V23.7175C24.1885 23.6783 24.2041 23.6407 24.2318 23.6129C24.2596 23.5852 24.2972 23.5696 24.3364 23.5696C24.3759 23.5696 24.4139 23.5851 24.442 23.6127C24.4702 23.6404 24.4864 23.678 24.4871 23.7175V45.1416C24.4871 45.1816 24.4713 45.2199 24.443 45.2482C24.4147 45.2764 24.3764 45.2923 24.3364 45.2923Z" fill="#EBEBEB"/>
<path d="M33.9814 57.0662L46.232 22.3613H48.487L36.2365 57.0662H33.9814Z" fill="#FAFAFA"/>
<path d="M52.5752 57.0662V22.3613H52.3094V57.0662H52.5752Z" fill="#E0E0E0"/>
<path d="M55.1563 25.0301H22.5722L22.3804 23.1724H54.9645L55.1563 25.0301Z" fill="#E0E0E0"/>
<path d="M55.1563 26.3917H22.5722L22.3804 24.5312H54.9645L55.1563 26.3917Z" fill="#E0E0E0"/>
<path d="M55.1563 28.0248H22.5722L22.3804 26.1643H54.9645L55.1563 28.0248Z" fill="#E0E0E0"/>
<path d="M55.1563 29.8414H22.5722L22.3804 27.9836H54.9645L55.1563 29.8414Z" fill="#E0E0E0"/>
<path d="M55.1563 32.0196H22.5722L22.3804 30.1592H54.9645L55.1563 32.0196Z" fill="#E0E0E0"/>
<path d="M55.1563 34.4666H22.5722L22.3804 32.6089H54.9645L55.1563 34.4666Z" fill="#E0E0E0"/>
<path d="M112.439 20.2734H79.8521V59.154H112.439V20.2734Z" fill="#E0E0E0"/>
<path d="M113.929 20.2734H80.5479V59.154H113.929V20.2734Z" fill="#EBEBEB"/>
<path d="M112.439 59.1538H79.8521V61.9239H112.439V59.1538Z" fill="#E0E0E0"/>
<path d="M116.415 59.1538H83.0332V61.9239H116.415V59.1538Z" fill="#EBEBEB"/>
<path d="M111.844 57.0662V22.3613L82.6386 22.3613V57.0662H111.844Z" fill="#F5F5F5"/>
<path d="M86.2222 57.0662L98.4727 22.3613H104.254L92.0036 57.0662H86.2222Z" fill="#FAFAFA"/>
<path d="M83.603 45.2923C83.5635 45.2916 83.5259 45.2754 83.4983 45.2472C83.4706 45.219 83.4551 45.1811 83.4551 45.1416V23.7175C83.4551 23.6783 83.4707 23.6407 83.4984 23.6129C83.5262 23.5852 83.5638 23.5696 83.603 23.5696C83.6423 23.5696 83.6799 23.5852 83.7077 23.6129C83.7354 23.6407 83.751 23.6783 83.751 23.7175V45.1416C83.751 45.1811 83.7355 45.219 83.7078 45.2472C83.6802 45.2754 83.6425 45.2916 83.603 45.2923Z" fill="#EBEBEB"/>
<path d="M93.2476 57.0662L105.498 22.3613H107.75L95.5026 57.0662H93.2476Z" fill="#FAFAFA"/>
<path d="M111.841 57.0662V22.3613H111.576V57.0662H111.841Z" fill="#E0E0E0"/>
<path d="M114.422 25.0301H81.8381L81.6436 23.1724H114.23L114.422 25.0301Z" fill="#E0E0E0"/>
<path d="M114.422 26.3917H81.8381L81.6436 24.5312H114.23L114.422 26.3917Z" fill="#E0E0E0"/>
<path d="M114.422 28.0248H81.8381L81.6436 26.1643H114.23L114.422 28.0248Z" fill="#E0E0E0"/>
<path d="M114.422 29.8414H81.8381L81.6436 27.9836H114.23L114.422 29.8414Z" fill="#E0E0E0"/>
<path d="M114.422 32.0196H81.8381L81.6436 30.1592H114.23L114.422 32.0196Z" fill="#E0E0E0"/>
<path d="M114.422 34.4666H81.8381L81.6436 32.6089H114.23L114.422 34.4666Z" fill="#E0E0E0"/>
<path d="M87.1428 80.134H80.6353V104.778H87.1428V80.134Z" fill="#E0E0E0"/>
<path d="M85.9044 104.778H87.1402V101.758H84.6084L85.9044 104.778Z" fill="#F5F5F5"/>
<path d="M23.9914 80.134H17.4839V104.778H23.9914V80.134Z" fill="#E0E0E0"/>
<path d="M87.1432 80.134H22.9121V103.117H87.1432V80.134Z" fill="#F5F5F5"/>
<path d="M55.4414 81.2849V97.6975H86.1842V81.2849H55.4414Z" fill="#E0E0E0"/>
<path d="M23.8711 81.2849V97.6975H54.6139V81.2849H23.8711Z" fill="#E0E0E0"/>
<path d="M86.1812 101.166V99.3389H55.4384V101.166H86.1812Z" fill="#E0E0E0"/>
<path d="M54.6108 101.169V99.3416H23.868V101.169H54.6108Z" fill="#E0E0E0"/>
<path d="M50.068 82.2659H28.422C27.9414 82.2663 27.4657 82.1693 27.0235 81.981C26.5813 81.7926 26.1819 81.5167 25.8491 81.1699H52.6518C52.3178 81.5181 51.9165 81.7947 51.4724 81.9831C51.0282 82.1715 50.5504 82.2677 50.068 82.2659Z" fill="#F5F5F5"/>
<path d="M81.7535 82.2659H60.1075C59.6269 82.2663 59.1512 82.1693 58.709 81.981C58.2669 81.7926 57.8674 81.5167 57.5347 81.1699H84.3373C84.0039 81.5188 83.6028 81.796 83.1585 81.9845C82.7142 82.1729 82.2361 82.2687 81.7535 82.2659Z" fill="#F5F5F5"/>
<path d="M24.1477 104.778H22.9092V101.758H25.4409L24.1477 104.778Z" fill="#F5F5F5"/>
<g style="mix-blend-mode:multiply" opacity="0.4">
<path d="M70.0234 65.0039H62.7788V80.1342H70.0234V65.0039Z" fill="#E0E0E0"/>
</g>
<path d="M76.1089 80.134H63.8474L62.6938 63.7954H74.9526L76.1089 80.134Z" fill="#E0E0E0"/>
<path d="M77.5037 80.134H64.1955L63.042 63.7954H76.3474L77.5037 80.134Z" fill="#F5F5F5"/>
<path d="M64.812 79.5093L63.7461 64.4202H75.7336L76.8022 79.5093H64.812Z" fill="#FAFAFA"/>
<path d="M67.7136 76.1309L67.1245 67.7986H72.8319L73.421 76.1309H67.7136Z" fill="#F5F5F5"/>
<path d="M43.6619 77.4517C45.4203 77.4517 46.8458 76.0263 46.8458 74.2679C46.8458 72.5095 45.4203 71.084 43.6619 71.084C41.9035 71.084 40.478 72.5095 40.478 74.2679C40.478 76.0263 41.9035 77.4517 43.6619 77.4517Z" fill="#EBEBEB"/>
<path d="M49.1145 78.9696C50.873 78.9696 52.2984 77.5441 52.2984 75.7857C52.2984 74.0273 50.873 72.6018 49.1145 72.6018C47.3561 72.6018 45.9307 74.0273 45.9307 75.7857C45.9307 77.5441 47.3561 78.9696 49.1145 78.9696Z" fill="#EBEBEB"/>
<path d="M54.5323 76.42C55.6167 75.9733 56.1336 74.7321 55.6869 73.6477C55.2401 72.5633 53.999 72.0464 52.9146 72.4931C51.8302 72.9399 51.3133 74.1811 51.76 75.2654C52.2068 76.3498 53.4479 76.8667 54.5323 76.42Z" fill="#EBEBEB"/>
<path d="M48.9474 72.6832C49.1349 71.5255 48.3484 70.435 47.1907 70.2475C46.033 70.06 44.9425 70.8465 44.755 72.0042C44.5675 73.1618 45.354 74.2523 46.5117 74.4398C47.6694 74.6274 48.7599 73.8409 48.9474 72.6832Z" fill="#EBEBEB"/>
<path d="M38.5708 75.2158C38.5708 75.2158 38.8201 80.1341 48.3745 80.1341C57.9289 80.1341 58.1782 75.2158 58.1782 75.2158H38.5708Z" fill="#E0E0E0"/>
<path d="M29.7482 78.4491C29.7482 78.4491 26.6356 73.0842 30.9538 68.8125C30.9538 68.8125 32.0799 69.5468 32.0498 70.536C32.0197 71.5251 30.8415 71.7717 31.0963 72.5964C31.3511 73.4212 32.4663 74.2404 31.7402 74.9117C31.0141 75.583 31.858 76.1968 31.8087 77.0325C31.7594 77.8682 29.7482 78.4491 29.7482 78.4491Z" fill="#E0E0E0"/>
<path d="M29.9839 78.9394C29.9839 78.9394 31.2443 72.8675 25.7999 70.1714C25.7999 70.1714 24.9615 71.2263 25.2903 72.1579C25.6191 73.0895 26.8247 72.9497 26.8439 73.8019C26.8631 74.654 26.0493 75.7856 26.9644 76.1994C27.8796 76.6131 27.2576 77.4598 27.5672 78.2352C27.8769 79.0106 29.9839 78.9394 29.9839 78.9394Z" fill="#E0E0E0"/>
<path d="M25.208 76.1309C25.208 76.1309 25.3121 80.134 29.2796 80.134C33.2472 80.134 33.3513 76.1309 33.3513 76.1309H25.208Z" fill="#EBEBEB"/>
<path d="M68.4999 117.151C97.8405 117.151 121.626 115.763 121.626 114.05C121.626 112.337 97.8405 110.948 68.4999 110.948C39.1593 110.948 15.374 112.337 15.374 114.05C15.374 115.763 39.1593 117.151 68.4999 117.151Z" fill="#F5F5F5"/>
<path d="M49.443 74.6484C49.2806 74.6377 49.1283 74.5657 49.017 74.4469C48.9057 74.3281 48.8438 74.1714 48.8438 74.0086C48.8438 73.8458 48.9057 73.6891 49.017 73.5703C49.1283 73.4515 49.2806 73.3794 49.443 73.3688C51.0103 73.3688 52.331 71.1247 52.331 68.4669C52.3416 68.3045 52.4136 68.1522 52.5325 68.0409C52.6513 67.9296 52.808 67.8677 52.9708 67.8677C53.1336 67.8677 53.2903 67.9296 53.4091 68.0409C53.5279 68.1522 53.5999 68.3045 53.6106 68.4669C53.6106 71.933 51.7857 74.6484 49.443 74.6484Z" fill="#4381CA"/>
<path d="M59.1125 74.6484C58.95 74.6377 58.7977 74.5657 58.6864 74.4469C58.5751 74.3281 58.5132 74.1714 58.5132 74.0086C58.5132 73.8458 58.5751 73.6891 58.6864 73.5703C58.7977 73.4515 58.95 73.3794 59.1125 73.3688C60.6797 73.3688 62.0004 71.1247 62.0004 68.4669C62.011 68.3045 62.0831 68.1522 62.2019 68.0409C62.3207 67.9296 62.4774 67.8677 62.6402 67.8677C62.803 67.8677 62.9597 67.9296 63.0785 68.0409C63.1973 68.1522 63.2694 68.3045 63.28 68.4669C63.2937 71.933 61.4497 74.6484 59.1125 74.6484Z" fill="#4381CA"/>
<path d="M68.7736 74.6485C68.6111 74.6378 68.4588 74.5658 68.3475 74.447C68.2362 74.3282 68.1743 74.1715 68.1743 74.0087C68.1743 73.8459 68.2362 73.6892 68.3475 73.5704C68.4588 73.4516 68.6111 73.3795 68.7736 73.3689C70.3381 73.3689 71.6615 71.1248 71.6615 68.467C71.6615 68.2977 71.7288 68.1353 71.8485 68.0156C71.9683 67.8959 72.1306 67.8286 72.3 67.8286C72.4693 67.8286 72.6317 67.8959 72.7514 68.0156C72.8711 68.1353 72.9384 68.2977 72.9384 68.467C72.9466 71.9331 71.119 74.6485 68.7736 74.6485Z" fill="#4381CA"/>
<path d="M78.4516 74.6485C78.3641 74.6542 78.2763 74.6419 78.1937 74.6124C78.1111 74.5828 78.0354 74.5366 77.9714 74.4766C77.9074 74.4167 77.8563 74.3442 77.8215 74.2637C77.7866 74.1832 77.7686 74.0964 77.7686 74.0087C77.7686 73.921 77.7866 73.8342 77.8215 73.7537C77.8563 73.6732 77.9074 73.6007 77.9714 73.5407C78.0354 73.4808 78.1111 73.4346 78.1937 73.405C78.2763 73.3755 78.3641 73.3632 78.4516 73.3689C80.0161 73.3689 81.3396 71.1248 81.3396 68.467C81.3396 68.2977 81.4068 68.1353 81.5266 68.0156C81.6463 67.8959 81.8087 67.8286 81.978 67.8286C82.1473 67.8286 82.3097 67.8959 82.4294 68.0156C82.5491 68.1353 82.6164 68.2977 82.6164 68.467C82.6164 71.9331 80.7861 74.6485 78.4516 74.6485Z" fill="#4381CA"/>
<path d="M88.1183 74.6484C87.9559 74.6377 87.8035 74.5657 87.6923 74.4469C87.581 74.3281 87.519 74.1714 87.519 74.0086C87.519 73.8458 87.581 73.6891 87.6923 73.5703C87.8035 73.4515 87.9559 73.3794 88.1183 73.3688C89.6856 73.3688 91.0063 71.1247 91.0063 68.4669C91.0169 68.3045 91.0889 68.1522 91.2077 68.0409C91.3266 67.9296 91.4833 67.8677 91.6461 67.8677C91.8089 67.8677 91.9656 67.9296 92.0844 68.0409C92.2032 68.1522 92.2752 68.3045 92.2858 68.4669C92.2858 71.933 90.4555 74.6484 88.1183 74.6484Z" fill="#4381CA"/>
<path d="M97.7878 74.6484C97.6253 74.6377 97.473 74.5657 97.3617 74.4469C97.2504 74.3281 97.1885 74.1714 97.1885 74.0086C97.1885 73.8458 97.2504 73.6891 97.3617 73.5703C97.473 73.4515 97.6253 73.3794 97.7878 73.3688C99.3523 73.3688 100.676 71.1247 100.676 68.4669C100.686 68.3045 100.758 68.1522 100.877 68.0409C100.996 67.9296 101.153 67.8677 101.316 67.8677C101.478 67.8677 101.635 67.9296 101.754 68.0409C101.873 68.1522 101.945 68.3045 101.955 68.4669C101.955 71.933 100.125 74.6484 97.7878 74.6484Z" fill="#4381CA"/>
<g opacity="0.3">
<path d="M49.443 74.6484C49.2806 74.6377 49.1283 74.5657 49.017 74.4469C48.9057 74.3281 48.8438 74.1714 48.8438 74.0086C48.8438 73.8458 48.9057 73.6891 49.017 73.5703C49.1283 73.4515 49.2806 73.3794 49.443 73.3688C51.0103 73.3688 52.331 71.1247 52.331 68.4669C52.3416 68.3045 52.4136 68.1522 52.5325 68.0409C52.6513 67.9296 52.808 67.8677 52.9708 67.8677C53.1336 67.8677 53.2903 67.9296 53.4091 68.0409C53.5279 68.1522 53.5999 68.3045 53.6106 68.4669C53.6106 71.933 51.7857 74.6484 49.443 74.6484Z" fill="black"/>
<path d="M59.1125 74.6484C58.95 74.6377 58.7977 74.5657 58.6864 74.4469C58.5751 74.3281 58.5132 74.1714 58.5132 74.0086C58.5132 73.8458 58.5751 73.6891 58.6864 73.5703C58.7977 73.4515 58.95 73.3794 59.1125 73.3688C60.6797 73.3688 62.0004 71.1247 62.0004 68.4669C62.011 68.3045 62.0831 68.1522 62.2019 68.0409C62.3207 67.9296 62.4774 67.8677 62.6402 67.8677C62.803 67.8677 62.9597 67.9296 63.0785 68.0409C63.1973 68.1522 63.2694 68.3045 63.28 68.4669C63.2937 71.933 61.4497 74.6484 59.1125 74.6484Z" fill="black"/>
<path d="M68.7736 74.6485C68.6111 74.6378 68.4588 74.5658 68.3475 74.447C68.2362 74.3282 68.1743 74.1715 68.1743 74.0087C68.1743 73.8459 68.2362 73.6892 68.3475 73.5704C68.4588 73.4516 68.6111 73.3795 68.7736 73.3689C70.3381 73.3689 71.6615 71.1248 71.6615 68.467C71.6615 68.2977 71.7288 68.1353 71.8485 68.0156C71.9683 67.8959 72.1306 67.8286 72.3 67.8286C72.4693 67.8286 72.6317 67.8959 72.7514 68.0156C72.8711 68.1353 72.9384 68.2977 72.9384 68.467C72.9466 71.9331 71.119 74.6485 68.7736 74.6485Z" fill="black"/>
<path d="M78.4516 74.6485C78.3641 74.6542 78.2763 74.6419 78.1937 74.6124C78.1111 74.5828 78.0354 74.5366 77.9714 74.4766C77.9074 74.4167 77.8563 74.3442 77.8215 74.2637C77.7866 74.1832 77.7686 74.0964 77.7686 74.0087C77.7686 73.921 77.7866 73.8342 77.8215 73.7537C77.8563 73.6732 77.9074 73.6007 77.9714 73.5407C78.0354 73.4808 78.1111 73.4346 78.1937 73.405C78.2763 73.3755 78.3641 73.3632 78.4516 73.3689C80.0161 73.3689 81.3396 71.1248 81.3396 68.467C81.3396 68.2977 81.4068 68.1353 81.5266 68.0156C81.6463 67.8959 81.8087 67.8286 81.978 67.8286C82.1473 67.8286 82.3097 67.8959 82.4294 68.0156C82.5491 68.1353 82.6164 68.2977 82.6164 68.467C82.6164 71.9331 80.7861 74.6485 78.4516 74.6485Z" fill="black"/>
<path d="M88.1183 74.6484C87.9559 74.6377 87.8035 74.5657 87.6923 74.4469C87.581 74.3281 87.519 74.1714 87.519 74.0086C87.519 73.8458 87.581 73.6891 87.6923 73.5703C87.8035 73.4515 87.9559 73.3794 88.1183 73.3688C89.6856 73.3688 91.0063 71.1247 91.0063 68.4669C91.0169 68.3045 91.0889 68.1522 91.2077 68.0409C91.3266 67.9296 91.4833 67.8677 91.6461 67.8677C91.8089 67.8677 91.9656 67.9296 92.0844 68.0409C92.2032 68.1522 92.2752 68.3045 92.2858 68.4669C92.2858 71.933 90.4555 74.6484 88.1183 74.6484Z" fill="black"/>
<path d="M97.7878 74.6484C97.6253 74.6377 97.473 74.5657 97.3617 74.4469C97.2504 74.3281 97.1885 74.1714 97.1885 74.0086C97.1885 73.8458 97.2504 73.6891 97.3617 73.5703C97.473 73.4515 97.6253 73.3794 97.7878 73.3688C99.3523 73.3688 100.676 71.1247 100.676 68.4669C100.686 68.3045 100.758 68.1522 100.877 68.0409C100.996 67.9296 101.153 67.8677 101.316 67.8677C101.478 67.8677 101.635 67.9296 101.754 68.0409C101.873 68.1522 101.945 68.3045 101.955 68.4669C101.955 71.933 100.125 74.6484 97.7878 74.6484Z" fill="black"/>
</g>
<path d="M43.3847 69.1219H105.632C106.467 69.1386 107.266 69.4593 107.881 70.0238C108.496 70.5883 108.884 71.3579 108.972 72.188L112.419 111.049C112.461 111.439 112.42 111.834 112.298 112.207C112.176 112.579 111.976 112.922 111.712 113.212C111.448 113.502 111.125 113.732 110.765 113.888C110.405 114.044 110.016 114.121 109.624 114.115H47.3742C46.5399 114.098 45.7407 113.776 45.126 113.212C44.5113 112.648 44.1232 111.879 44.0341 111.049L40.5899 72.188C40.5475 71.798 40.5886 71.4034 40.7103 71.0304C40.832 70.6575 41.0316 70.3146 41.2959 70.0247C41.5602 69.7348 41.8831 69.5043 42.2432 69.3487C42.6034 69.193 42.9925 69.1157 43.3847 69.1219Z" fill="#4381CA"/>
<path opacity="0.4" d="M43.3847 69.1219H105.632C106.467 69.1386 107.266 69.4593 107.881 70.0238C108.496 70.5883 108.884 71.3579 108.972 72.188L112.419 111.049C112.461 111.439 112.42 111.834 112.298 112.207C112.176 112.579 111.976 112.922 111.712 113.212C111.448 113.502 111.125 113.732 110.765 113.888C110.405 114.044 110.016 114.121 109.624 114.115H47.3742C46.5399 114.098 45.7407 113.776 45.126 113.212C44.5113 112.648 44.1232 111.879 44.0341 111.049L40.5899 72.188C40.5475 71.798 40.5886 71.4034 40.7103 71.0304C40.832 70.6575 41.0316 70.3146 41.2959 70.0247C41.5602 69.7348 41.8831 69.5043 42.2432 69.3487C42.6034 69.193 42.9925 69.1157 43.3847 69.1219Z" fill="#FAFAFA"/>
<path d="M105.114 69.1219H42.8643C42.0409 69.1317 41.252 69.4537 40.6569 70.0228C40.0618 70.592 39.705 71.3658 39.6585 72.1879L37.9049 111.049C37.884 111.445 37.9442 111.841 38.0817 112.213C38.2192 112.585 38.4312 112.925 38.7046 113.212C38.9781 113.499 39.3073 113.727 39.672 113.882C40.0367 114.038 40.4293 114.117 40.8258 114.115H103.081C103.905 114.106 104.694 113.784 105.289 113.214C105.884 112.645 106.241 111.871 106.287 111.049L108.043 72.1879C108.064 71.7914 108.003 71.3949 107.865 71.0227C107.727 70.6505 107.514 70.3104 107.24 70.0234C106.966 69.7363 106.636 69.5082 106.27 69.3532C105.905 69.1982 105.511 69.1195 105.114 69.1219Z" fill="#4381CA"/>
<path opacity="0.2" d="M105.114 69.1219H42.8643C42.0409 69.1317 41.252 69.4537 40.6569 70.0228C40.0618 70.592 39.705 71.3658 39.6585 72.1879L37.9049 111.049C37.884 111.445 37.9442 111.841 38.0817 112.213C38.2192 112.585 38.4312 112.925 38.7046 113.212C38.9781 113.499 39.3073 113.727 39.672 113.882C40.0367 114.038 40.4293 114.117 40.8258 114.115H103.081C103.905 114.106 104.694 113.784 105.289 113.214C105.884 112.645 106.241 111.871 106.287 111.049L108.043 72.1879C108.064 71.7914 108.003 71.3949 107.865 71.0227C107.727 70.6505 107.514 70.3104 107.24 70.0234C106.966 69.7363 106.636 69.5082 106.27 69.3532C105.905 69.1982 105.511 69.1195 105.114 69.1219Z" fill="#FAFAFA"/>
<path d="M44.0069 103.846L45.4563 71.7523C45.4737 71.4375 45.6103 71.1411 45.8382 70.9233C46.0662 70.7055 46.3686 70.5826 46.6838 70.5796H101.163C101.315 70.5787 101.466 70.6087 101.605 70.668C101.745 70.7273 101.872 70.8145 101.976 70.9243C102.081 71.0341 102.163 71.1642 102.216 71.3066C102.269 71.449 102.292 71.6007 102.284 71.7523L100.832 103.846C100.814 104.161 100.678 104.457 100.45 104.675C100.222 104.893 99.9195 105.016 99.6042 105.019H45.1275C44.9756 105.02 44.8252 104.99 44.6853 104.93C44.5455 104.871 44.4192 104.784 44.3143 104.674C44.2094 104.564 44.128 104.434 44.0751 104.292C44.0222 104.149 43.999 103.998 44.0069 103.846Z" fill="#4381CA"/>
<path opacity="0.1" d="M44.0069 103.846L45.4563 71.7523C45.4737 71.4375 45.6103 71.1411 45.8382 70.9233C46.0662 70.7055 46.3686 70.5826 46.6838 70.5796H101.163C101.315 70.5787 101.466 70.6087 101.605 70.668C101.745 70.7273 101.872 70.8145 101.976 70.9243C102.081 71.0341 102.163 71.1642 102.216 71.3066C102.269 71.449 102.292 71.6007 102.284 71.7523L100.832 103.846C100.814 104.161 100.678 104.457 100.45 104.675C100.222 104.893 99.9195 105.016 99.6042 105.019H45.1275C44.9756 105.02 44.8252 104.99 44.6853 104.93C44.5455 104.871 44.4192 104.784 44.3143 104.674C44.2094 104.564 44.128 104.434 44.0751 104.292C44.0222 104.149 43.999 103.998 44.0069 103.846Z" fill="#FAFAFA"/>
<path opacity="0.1" d="M42.4698 106.465L43.9905 72.7633C44.0079 72.4327 44.151 72.1213 44.3903 71.8926C44.6297 71.664 44.9473 71.5353 45.2783 71.533H102.489C102.649 71.5316 102.807 71.563 102.954 71.625C103.101 71.6871 103.233 71.7786 103.343 71.8938C103.453 72.0091 103.539 72.1457 103.594 72.2953C103.649 72.4448 103.674 72.6041 103.665 72.7633L102.142 106.465C102.124 106.796 101.982 107.107 101.743 107.336C101.504 107.565 101.187 107.695 100.856 107.698H43.6398C43.4804 107.699 43.3226 107.668 43.176 107.605C43.0294 107.543 42.8972 107.451 42.7875 107.335C42.6779 107.22 42.5931 107.083 42.5384 106.933C42.4838 106.784 42.4604 106.624 42.4698 106.465Z" fill="black"/>
<path d="M41.0561 109.183L42.6426 74.0292C42.6639 73.6855 42.8139 73.3624 43.0627 73.1243C43.3115 72.8861 43.6408 72.7504 43.9852 72.7442H103.665C103.832 72.7428 103.997 72.7756 104.15 72.8404C104.303 72.9053 104.442 73.0008 104.557 73.1212C104.672 73.2416 104.761 73.3843 104.819 73.5405C104.876 73.6966 104.902 73.863 104.893 74.0292L103.298 109.183C103.277 109.527 103.127 109.85 102.878 110.088C102.629 110.327 102.3 110.462 101.955 110.469H42.2837C42.117 110.47 41.9518 110.438 41.7983 110.373C41.6448 110.308 41.5061 110.213 41.3911 110.092C41.276 109.972 41.1868 109.829 41.1292 109.673C41.0716 109.516 41.0467 109.35 41.0561 109.183Z" fill="#FAFAFA"/>
<path d="M97.7795 74.8513C97.6673 74.8515 97.5562 74.8287 97.4531 74.7843C97.3501 74.74 97.2572 74.675 97.1801 74.5934C97.1031 74.5117 97.0436 74.4152 97.0054 74.3097C96.9671 74.2042 96.9508 74.092 96.9575 73.98C96.968 73.7601 97.0621 73.5526 97.2204 73.3998C97.3788 73.247 97.5896 73.1605 97.8097 73.158C97.9219 73.1578 98.033 73.1805 98.1361 73.2249C98.2392 73.2693 98.3321 73.3343 98.4091 73.4159C98.4861 73.4975 98.5456 73.5941 98.5839 73.6995C98.6221 73.805 98.6384 73.9173 98.6317 74.0293C98.6212 74.2491 98.5272 74.4566 98.3688 74.6094C98.2104 74.7622 97.9996 74.8487 97.7795 74.8513Z" fill="#4381CA"/>
<path d="M88.1101 74.8513C87.9979 74.8515 87.8868 74.8287 87.7837 74.7843C87.6806 74.74 87.5877 74.675 87.5107 74.5934C87.4337 74.5117 87.3742 74.4152 87.3359 74.3097C87.2976 74.2042 87.2814 74.092 87.2881 73.98C87.2986 73.7601 87.3926 73.5526 87.551 73.3998C87.7094 73.247 87.9202 73.1605 88.1402 73.158C88.2525 73.1578 88.3635 73.1805 88.4666 73.2249C88.5697 73.2693 88.6626 73.3343 88.7396 73.4159C88.8166 73.4975 88.8761 73.5941 88.9144 73.6995C88.9527 73.805 88.969 73.9173 88.9622 74.0293C88.9524 74.2493 88.8586 74.4572 88.7001 74.6102C88.5415 74.7631 88.3304 74.8494 88.1101 74.8513Z" fill="#4381CA"/>
<path d="M78.4407 74.8513C78.3284 74.8515 78.2174 74.8287 78.1143 74.7843C78.0112 74.74 77.9183 74.675 77.8413 74.5934C77.7643 74.5117 77.7048 74.4152 77.6665 74.3097C77.6282 74.2042 77.6119 74.092 77.6187 73.98C77.6298 73.7604 77.724 73.5532 77.8823 73.4005C78.0405 73.2479 78.251 73.1612 78.4708 73.158C78.583 73.1578 78.6941 73.1805 78.7972 73.2249C78.9003 73.2693 78.9932 73.3343 79.0702 73.4159C79.1472 73.4975 79.2067 73.5941 79.245 73.6995C79.2833 73.805 79.2995 73.9173 79.2928 74.0293C79.283 74.2493 79.1892 74.4572 79.0306 74.6102C78.8721 74.7631 78.6609 74.8494 78.4407 74.8513Z" fill="#4381CA"/>
<path d="M68.7737 74.8513C68.6615 74.8515 68.5504 74.8287 68.4473 74.7843C68.3442 74.74 68.2513 74.675 68.1743 74.5934C68.0973 74.5117 68.0378 74.4152 67.9995 74.3097C67.9612 74.2042 67.9449 74.092 67.9517 73.98C67.9635 73.7601 68.0583 73.5529 68.217 73.4004C68.3757 73.2478 68.5864 73.1611 68.8066 73.158C68.9188 73.1578 69.0299 73.1805 69.1329 73.2249C69.236 73.2693 69.3289 73.3343 69.406 73.4159C69.483 73.4975 69.5424 73.5941 69.5807 73.6995C69.619 73.805 69.6353 73.9173 69.6286 74.0293C69.6187 74.2498 69.5245 74.4581 69.3654 74.6111C69.2063 74.7641 68.9944 74.8501 68.7737 74.8513Z" fill="#4381CA"/>
<path d="M59.1042 74.8513C58.992 74.8515 58.8809 74.8287 58.7779 74.7843C58.6748 74.74 58.5819 74.675 58.5048 74.5934C58.4278 74.5117 58.3684 74.4152 58.3301 74.3097C58.2918 74.2042 58.2755 74.092 58.2822 73.98C58.2927 73.7601 58.3868 73.5526 58.5451 73.3998C58.7035 73.247 58.9143 73.1605 59.1344 73.158C59.2466 73.1578 59.3577 73.1805 59.4608 73.2249C59.5639 73.2693 59.6568 73.3343 59.7338 73.4159C59.8108 73.4975 59.8703 73.5941 59.9086 73.6995C59.9468 73.805 59.9631 73.9173 59.9564 74.0293C59.9459 74.2491 59.8519 74.4566 59.6935 74.6094C59.5351 74.7622 59.3243 74.8487 59.1042 74.8513Z" fill="#4381CA"/>
<path d="M49.4348 74.8513C49.3226 74.8515 49.2115 74.8287 49.1084 74.7843C49.0053 74.74 48.9124 74.675 48.8354 74.5934C48.7584 74.5117 48.6989 74.4152 48.6606 74.3097C48.6224 74.2042 48.6061 74.092 48.6128 73.98C48.6233 73.7601 48.7173 73.5526 48.8757 73.3998C49.0341 73.247 49.2449 73.1605 49.4649 73.158C49.5772 73.1578 49.6883 73.1805 49.7913 73.2249C49.8944 73.2693 49.9873 73.3343 50.0643 73.4159C50.1414 73.4975 50.2008 73.5941 50.2391 73.6995C50.2774 73.805 50.2937 73.9173 50.2869 74.0293C50.2771 74.2493 50.1833 74.4572 50.0248 74.6102C49.8662 74.7631 49.6551 74.8494 49.4348 74.8513Z" fill="#4381CA"/>
<g opacity="0.1">
<path d="M97.7795 74.8513C97.6673 74.8515 97.5562 74.8287 97.4531 74.7843C97.3501 74.74 97.2572 74.675 97.1801 74.5934C97.1031 74.5117 97.0436 74.4152 97.0054 74.3097C96.9671 74.2042 96.9508 74.092 96.9575 73.98C96.968 73.7601 97.0621 73.5526 97.2204 73.3998C97.3788 73.247 97.5896 73.1605 97.8097 73.158C97.9219 73.1578 98.033 73.1805 98.1361 73.2249C98.2392 73.2693 98.3321 73.3343 98.4091 73.4159C98.4861 73.4975 98.5456 73.5941 98.5839 73.6995C98.6221 73.805 98.6384 73.9173 98.6317 74.0293C98.6212 74.2491 98.5272 74.4566 98.3688 74.6094C98.2104 74.7622 97.9996 74.8487 97.7795 74.8513Z" fill="#FAFAFA"/>
<path d="M88.1101 74.8513C87.9979 74.8515 87.8868 74.8287 87.7837 74.7843C87.6806 74.74 87.5877 74.675 87.5107 74.5934C87.4337 74.5117 87.3742 74.4152 87.3359 74.3097C87.2976 74.2042 87.2814 74.092 87.2881 73.98C87.2986 73.7601 87.3926 73.5526 87.551 73.3998C87.7094 73.247 87.9202 73.1605 88.1402 73.158C88.2525 73.1578 88.3635 73.1805 88.4666 73.2249C88.5697 73.2693 88.6626 73.3343 88.7396 73.4159C88.8166 73.4975 88.8761 73.5941 88.9144 73.6995C88.9527 73.805 88.969 73.9173 88.9622 74.0293C88.9524 74.2493 88.8586 74.4572 88.7001 74.6102C88.5415 74.7631 88.3304 74.8494 88.1101 74.8513Z" fill="#FAFAFA"/>
<path d="M78.4407 74.8513C78.3284 74.8515 78.2174 74.8287 78.1143 74.7843C78.0112 74.74 77.9183 74.675 77.8413 74.5934C77.7643 74.5117 77.7048 74.4152 77.6665 74.3097C77.6282 74.2042 77.6119 74.092 77.6187 73.98C77.6298 73.7604 77.724 73.5532 77.8823 73.4005C78.0405 73.2479 78.251 73.1612 78.4708 73.158C78.583 73.1578 78.6941 73.1805 78.7972 73.2249C78.9003 73.2693 78.9932 73.3343 79.0702 73.4159C79.1472 73.4975 79.2067 73.5941 79.245 73.6995C79.2833 73.805 79.2995 73.9173 79.2928 74.0293C79.283 74.2493 79.1892 74.4572 79.0306 74.6102C78.8721 74.7631 78.6609 74.8494 78.4407 74.8513Z" fill="#FAFAFA"/>
<path d="M68.7737 74.8513C68.6615 74.8515 68.5504 74.8287 68.4473 74.7843C68.3442 74.74 68.2513 74.675 68.1743 74.5934C68.0973 74.5117 68.0378 74.4152 67.9995 74.3097C67.9612 74.2042 67.9449 74.092 67.9517 73.98C67.9635 73.7601 68.0583 73.5529 68.217 73.4004C68.3757 73.2478 68.5864 73.1611 68.8066 73.158C68.9188 73.1578 69.0299 73.1805 69.1329 73.2249C69.236 73.2693 69.3289 73.3343 69.406 73.4159C69.483 73.4975 69.5424 73.5941 69.5807 73.6995C69.619 73.805 69.6353 73.9173 69.6286 74.0293C69.6187 74.2498 69.5245 74.4581 69.3654 74.6111C69.2063 74.7641 68.9944 74.8501 68.7737 74.8513Z" fill="#FAFAFA"/>
<path d="M59.1042 74.8513C58.992 74.8515 58.8809 74.8287 58.7779 74.7843C58.6748 74.74 58.5819 74.675 58.5048 74.5934C58.4278 74.5117 58.3684 74.4152 58.3301 74.3097C58.2918 74.2042 58.2755 74.092 58.2822 73.98C58.2927 73.7601 58.3868 73.5526 58.5451 73.3998C58.7035 73.247 58.9143 73.1605 59.1344 73.158C59.2466 73.1578 59.3577 73.1805 59.4608 73.2249C59.5639 73.2693 59.6568 73.3343 59.7338 73.4159C59.8108 73.4975 59.8703 73.5941 59.9086 73.6995C59.9468 73.805 59.9631 73.9173 59.9564 74.0293C59.9459 74.2491 59.8519 74.4566 59.6935 74.6094C59.5351 74.7622 59.3243 74.8487 59.1042 74.8513Z" fill="#FAFAFA"/>
<path d="M49.4348 74.8513C49.3226 74.8515 49.2115 74.8287 49.1084 74.7843C49.0053 74.74 48.9124 74.675 48.8354 74.5934C48.7584 74.5117 48.6989 74.4152 48.6606 74.3097C48.6224 74.2042 48.6061 74.092 48.6128 73.98C48.6233 73.7601 48.7173 73.5526 48.8757 73.3998C49.0341 73.247 49.2449 73.1605 49.4649 73.158C49.5772 73.1578 49.6883 73.1805 49.7913 73.2249C49.8944 73.2693 49.9873 73.3343 50.0643 73.4159C50.1414 73.4975 50.2008 73.5941 50.2391 73.6995C50.2774 73.805 50.2937 73.9173 50.2869 74.0293C50.2771 74.2493 50.1833 74.4572 50.0248 74.6102C49.8662 74.7631 49.6551 74.8494 49.4348 74.8513Z" fill="#FAFAFA"/>
</g>
<path d="M51.8515 77.9146H46.988C46.9174 77.9152 46.8476 77.9011 46.7828 77.8733C46.718 77.8455 46.6597 77.8046 46.6115 77.7531C46.5633 77.7016 46.5264 77.6406 46.503 77.5741C46.4796 77.5076 46.4703 77.4369 46.4756 77.3666C46.481 77.223 46.5405 77.0868 46.6421 76.9851C46.7437 76.8835 46.88 76.824 47.0236 76.8186H51.8871C51.9576 76.818 52.0274 76.8321 52.0922 76.8599C52.157 76.8877 52.2154 76.9287 52.2635 76.9802C52.3117 77.0317 52.3486 77.0926 52.372 77.1591C52.3954 77.2257 52.4048 77.2963 52.3995 77.3666C52.394 77.5102 52.3345 77.6465 52.2329 77.7481C52.1313 77.8497 51.9951 77.9092 51.8515 77.9146Z" fill="#4381CA"/>
<path d="M61.5209 77.9146H56.6574C56.5869 77.9152 56.517 77.9011 56.4522 77.8733C56.3874 77.8455 56.3291 77.8046 56.2809 77.7531C56.2328 77.7016 56.1958 77.6406 56.1724 77.5741C56.149 77.5076 56.1397 77.4369 56.145 77.3666C56.1506 77.2207 56.212 77.0825 56.3165 76.9806C56.421 76.8786 56.5607 76.8206 56.7067 76.8186H61.5675C61.6381 76.8181 61.7081 76.8321 61.773 76.8599C61.8379 76.8877 61.8964 76.9286 61.9448 76.9801C61.9931 77.0315 62.0304 77.0924 62.0541 77.1589C62.0778 77.2255 62.0875 77.2962 62.0826 77.3666C62.077 77.5125 62.0156 77.6507 61.9111 77.7527C61.8066 77.8547 61.6669 77.9126 61.5209 77.9146Z" fill="#4381CA"/>
<path d="M71.1904 77.9146H66.3269C66.2563 77.9152 66.1863 77.9011 66.1214 77.8733C66.0564 77.8456 65.998 77.8047 65.9496 77.7532C65.9012 77.7017 65.864 77.6408 65.8403 77.5743C65.8166 77.5078 65.8069 77.4371 65.8118 77.3666C65.8174 77.2207 65.8788 77.0825 65.9833 76.9806C66.0878 76.8786 66.2275 76.8206 66.3735 76.8186H71.2397C71.3102 76.818 71.3801 76.8321 71.4449 76.8599C71.5097 76.8877 71.568 76.9287 71.6162 76.9802C71.6643 77.0317 71.7013 77.0926 71.7247 77.1591C71.7481 77.2257 71.7574 77.2963 71.7521 77.3666C71.7472 77.5128 71.686 77.6513 71.5813 77.7534C71.4767 77.8556 71.3366 77.9133 71.1904 77.9146Z" fill="#4381CA"/>
<path d="M80.8573 77.9146H75.9938C75.9233 77.9152 75.8534 77.9011 75.7886 77.8733C75.7238 77.8455 75.6655 77.8046 75.6173 77.7531C75.5692 77.7016 75.5323 77.6406 75.5089 77.5741C75.4855 77.5076 75.4761 77.4369 75.4814 77.3666C75.4869 77.223 75.5463 77.0868 75.6479 76.9851C75.7496 76.8835 75.8858 76.824 76.0294 76.8186H80.8929C80.9634 76.818 81.0333 76.8321 81.0981 76.8599C81.1629 76.8877 81.2212 76.9287 81.2694 76.9802C81.3175 77.0317 81.3545 77.0926 81.3779 77.1591C81.4013 77.2257 81.4106 77.2963 81.4053 77.3666C81.3999 77.5102 81.3404 77.6465 81.2388 77.7481C81.1372 77.8497 81.0009 77.9092 80.8573 77.9146Z" fill="#4381CA"/>
<path d="M90.5267 77.9146H85.6632C85.5927 77.9152 85.5229 77.9011 85.4581 77.8733C85.3933 77.8455 85.3349 77.8046 85.2868 77.7531C85.2386 77.7016 85.2017 77.6406 85.1783 77.5741C85.1549 77.5076 85.1456 77.4369 85.1509 77.3666C85.1565 77.2207 85.2179 77.0825 85.3224 76.9806C85.4269 76.8786 85.5666 76.8206 85.7126 76.8186H90.5761C90.6466 76.818 90.7164 76.8321 90.7812 76.8599C90.846 76.8877 90.9044 76.9287 90.9525 76.9802C91.0007 77.0317 91.0376 77.0926 91.061 77.1591C91.0844 77.2257 91.0938 77.2963 91.0884 77.3666C91.0828 77.5125 91.0215 77.6507 90.9169 77.7527C90.8124 77.8547 90.6728 77.9126 90.5267 77.9146Z" fill="#4381CA"/>
<path d="M100.196 77.9146H95.3327C95.2622 77.9152 95.1923 77.9011 95.1275 77.8733C95.0627 77.8455 95.0044 77.8046 94.9562 77.7531C94.9081 77.7016 94.8711 77.6406 94.8477 77.5741C94.8243 77.5076 94.815 77.4369 94.8203 77.3666C94.8259 77.2207 94.8873 77.0825 94.9918 76.9806C95.0963 76.8786 95.236 76.8206 95.382 76.8186H100.243C100.313 76.8181 100.383 76.8321 100.448 76.8599C100.513 76.8877 100.572 76.9286 100.62 76.9801C100.668 77.0315 100.706 77.0924 100.729 77.1589C100.753 77.2255 100.763 77.2962 100.758 77.3666C100.752 77.5125 100.691 77.6507 100.586 77.7527C100.482 77.8547 100.342 77.9126 100.196 77.9146Z" fill="#4381CA"/>
<g opacity="0.3">
<path d="M51.8515 77.9146H46.988C46.9174 77.9152 46.8476 77.9011 46.7828 77.8733C46.718 77.8455 46.6597 77.8046 46.6115 77.7531C46.5633 77.7016 46.5264 77.6406 46.503 77.5741C46.4796 77.5076 46.4703 77.4369 46.4756 77.3666C46.481 77.223 46.5405 77.0868 46.6421 76.9851C46.7437 76.8835 46.88 76.824 47.0236 76.8186H51.8871C51.9576 76.818 52.0274 76.8321 52.0922 76.8599C52.157 76.8877 52.2154 76.9287 52.2635 76.9802C52.3117 77.0317 52.3486 77.0926 52.372 77.1591C52.3954 77.2257 52.4048 77.2963 52.3995 77.3666C52.394 77.5102 52.3345 77.6465 52.2329 77.7481C52.1313 77.8497 51.9951 77.9092 51.8515 77.9146Z" fill="black"/>
<path d="M61.5209 77.9146H56.6574C56.5869 77.9152 56.517 77.9011 56.4522 77.8733C56.3874 77.8455 56.3291 77.8046 56.2809 77.7531C56.2328 77.7016 56.1958 77.6406 56.1724 77.5741C56.149 77.5076 56.1397 77.4369 56.145 77.3666C56.1506 77.2207 56.212 77.0825 56.3165 76.9806C56.421 76.8786 56.5607 76.8206 56.7067 76.8186H61.5675C61.6381 76.8181 61.7081 76.8321 61.773 76.8599C61.8379 76.8877 61.8964 76.9286 61.9448 76.9801C61.9931 77.0315 62.0304 77.0924 62.0541 77.1589C62.0778 77.2255 62.0875 77.2962 62.0826 77.3666C62.077 77.5125 62.0156 77.6507 61.9111 77.7527C61.8066 77.8547 61.6669 77.9126 61.5209 77.9146Z" fill="black"/>
<path d="M71.1904 77.9146H66.3269C66.2563 77.9152 66.1863 77.9011 66.1214 77.8733C66.0564 77.8456 65.998 77.8047 65.9496 77.7532C65.9012 77.7017 65.864 77.6408 65.8403 77.5743C65.8166 77.5078 65.8069 77.4371 65.8118 77.3666C65.8174 77.2207 65.8788 77.0825 65.9833 76.9806C66.0878 76.8786 66.2275 76.8206 66.3735 76.8186H71.2397C71.3102 76.818 71.3801 76.8321 71.4449 76.8599C71.5097 76.8877 71.568 76.9287 71.6162 76.9802C71.6643 77.0317 71.7013 77.0926 71.7247 77.1591C71.7481 77.2257 71.7574 77.2963 71.7521 77.3666C71.7472 77.5128 71.686 77.6513 71.5813 77.7534C71.4767 77.8556 71.3366 77.9133 71.1904 77.9146Z" fill="black"/>
<path d="M80.8573 77.9146H75.9938C75.9233 77.9152 75.8534 77.9011 75.7886 77.8733C75.7238 77.8455 75.6655 77.8046 75.6173 77.7531C75.5692 77.7016 75.5323 77.6406 75.5089 77.5741C75.4855 77.5076 75.4761 77.4369 75.4814 77.3666C75.4869 77.223 75.5463 77.0868 75.6479 76.9851C75.7496 76.8835 75.8858 76.824 76.0294 76.8186H80.8929C80.9634 76.818 81.0333 76.8321 81.0981 76.8599C81.1629 76.8877 81.2212 76.9287 81.2694 76.9802C81.3175 77.0317 81.3545 77.0926 81.3779 77.1591C81.4013 77.2257 81.4106 77.2963 81.4053 77.3666C81.3999 77.5102 81.3404 77.6465 81.2388 77.7481C81.1372 77.8497 81.0009 77.9092 80.8573 77.9146Z" fill="black"/>
<path d="M90.5267 77.9146H85.6632C85.5927 77.9152 85.5229 77.9011 85.4581 77.8733C85.3933 77.8455 85.3349 77.8046 85.2868 77.7531C85.2386 77.7016 85.2017 77.6406 85.1783 77.5741C85.1549 77.5076 85.1456 77.4369 85.1509 77.3666C85.1565 77.2207 85.2179 77.0825 85.3224 76.9806C85.4269 76.8786 85.5666 76.8206 85.7126 76.8186H90.5761C90.6466 76.818 90.7164 76.8321 90.7812 76.8599C90.846 76.8877 90.9044 76.9287 90.9525 76.9802C91.0007 77.0317 91.0376 77.0926 91.061 77.1591C91.0844 77.2257 91.0938 77.2963 91.0884 77.3666C91.0828 77.5125 91.0215 77.6507 90.9169 77.7527C90.8124 77.8547 90.6728 77.9126 90.5267 77.9146Z" fill="black"/>
<path d="M100.196 77.9146H95.3327C95.2622 77.9152 95.1923 77.9011 95.1275 77.8733C95.0627 77.8455 95.0044 77.8046 94.9562 77.7531C94.9081 77.7016 94.8711 77.6406 94.8477 77.5741C94.8243 77.5076 94.815 77.4369 94.8203 77.3666C94.8259 77.2207 94.8873 77.0825 94.9918 76.9806C95.0963 76.8786 95.236 76.8206 95.382 76.8186H100.243C100.313 76.8181 100.383 76.8321 100.448 76.8599C100.513 76.8877 100.572 76.9286 100.62 76.9801C100.668 77.0315 100.706 77.0924 100.729 77.1589C100.753 77.2255 100.763 77.2962 100.758 77.3666C100.752 77.5125 100.691 77.6507 100.586 77.7527C100.482 77.8547 100.342 77.9126 100.196 77.9146Z" fill="black"/>
</g>
<path d="M52.1202 88.2636H45.7854C45.6464 88.2641 45.5088 88.2363 45.381 88.1819C45.2532 88.1275 45.1378 88.0476 45.0418 87.9471C44.9459 87.8465 44.8715 87.7275 44.8232 87.5972C44.7748 87.467 44.7535 87.3282 44.7606 87.1895L45.0346 80.8546C45.0512 80.5667 45.1764 80.2957 45.3849 80.0964C45.5933 79.8971 45.8696 79.7842 46.158 79.7805H52.4929C52.6318 79.78 52.7694 79.8078 52.8973 79.8622C53.0251 79.9166 53.1405 79.9965 53.2364 80.097C53.3323 80.1976 53.4067 80.3166 53.4551 80.4468C53.5034 80.5771 53.5247 80.7158 53.5176 80.8546L53.2436 87.1895C53.2264 87.4772 53.101 87.7478 52.8927 87.947C52.6844 88.1461 52.4084 88.2592 52.1202 88.2636Z" fill="#4381CA"/>
<path d="M61.7893 88.2636H55.4545C55.3154 88.2645 55.1776 88.237 55.0496 88.1827C54.9216 88.1284 54.806 88.0485 54.71 87.9479C54.614 87.8473 54.5397 87.7281 54.4914 87.5977C54.4432 87.4673 54.4222 87.3283 54.4297 87.1895L54.7037 80.8546C54.7203 80.5667 54.8455 80.2957 55.0539 80.0964C55.2624 79.8971 55.5387 79.7842 55.8271 79.7805H62.1702C62.3093 79.78 62.447 79.8078 62.5749 79.8622C62.7029 79.9165 62.8185 79.9964 62.9146 80.0969C63.0107 80.1974 63.0854 80.3164 63.1341 80.4466C63.1827 80.5769 63.2044 80.7157 63.1977 80.8546L62.91 87.1895C62.8941 87.4772 62.7695 87.7481 62.5615 87.9475C62.3534 88.1469 62.0775 88.2598 61.7893 88.2636Z" fill="#4381CA"/>
<path d="M71.456 88.2636H65.1239C64.9848 88.2641 64.8471 88.2363 64.7192 88.1819C64.5912 88.1276 64.4756 88.0477 64.3795 87.9472C64.2834 87.8467 64.2087 87.7277 64.16 87.5975C64.1114 87.4672 64.0897 87.3284 64.0964 87.1895L64.3704 80.8546C64.387 80.5667 64.5122 80.2957 64.7206 80.0964C64.9291 79.8971 65.2054 79.7842 65.4938 79.7805H71.8259C71.965 79.7796 72.1028 79.8071 72.2308 79.8614C72.3588 79.9157 72.4744 79.9956 72.5704 80.0962C72.6664 80.1968 72.7408 80.316 72.789 80.4464C72.8372 80.5768 72.8582 80.7158 72.8507 80.8546L72.5767 87.1895C72.5601 87.477 72.4353 87.7475 72.2275 87.9468C72.0196 88.146 71.744 88.2592 71.456 88.2636Z" fill="#4381CA"/>
<path d="M81.1257 88.2636H74.8018C74.6626 88.2645 74.5247 88.237 74.3966 88.1827C74.2684 88.1285 74.1527 88.0486 74.0565 87.948C73.9603 87.8475 73.8856 87.7283 73.8371 87.5979C73.7886 87.4674 73.7672 87.3285 73.7743 87.1895L74.0483 80.8546C74.0642 80.5669 74.1888 80.296 74.3968 80.0966C74.6048 79.8972 74.8808 79.7843 75.1689 79.7805H81.5038C81.6428 79.78 81.7804 79.8078 81.9082 79.8622C82.036 79.9166 82.1514 79.9965 82.2473 80.097C82.3432 80.1976 82.4177 80.3166 82.466 80.4468C82.5144 80.5771 82.5357 80.7158 82.5286 80.8546L82.2546 87.1895C82.2379 87.4784 82.112 87.7501 81.9023 87.9495C81.6927 88.149 81.415 88.2613 81.1257 88.2636Z" fill="#4381CA"/>
<path d="M90.795 88.2636H84.4602C84.3212 88.2641 84.1836 88.2363 84.0558 88.1819C83.928 88.1275 83.8126 88.0476 83.7166 87.9471C83.6207 87.8465 83.5463 87.7275 83.498 87.5973C83.4496 87.467 83.4283 87.3283 83.4354 87.1895L83.7094 80.8546C83.726 80.5667 83.8512 80.2957 84.0597 80.0964C84.2681 79.8971 84.5444 79.7842 84.8328 79.7805H91.1649C91.3041 79.7796 91.442 79.8071 91.5702 79.8614C91.6983 79.9156 91.8141 79.9955 91.9103 80.096C92.0065 80.1966 92.0811 80.3158 92.1296 80.4462C92.1782 80.5766 92.1995 80.7156 92.1924 80.8546L91.9184 87.1895C91.9012 87.4772 91.7758 87.7478 91.5675 87.947C91.3592 88.1462 91.0832 88.2593 90.795 88.2636Z" fill="#4381CA"/>
<path d="M100.462 88.2636H94.1298C93.9907 88.2645 93.8529 88.237 93.7249 88.1827C93.5969 88.1284 93.4813 88.0485 93.3853 87.9479C93.2893 87.8473 93.2149 87.7281 93.1667 87.5977C93.1185 87.4673 93.0975 87.3283 93.105 87.1895L93.379 80.8546C93.3956 80.5667 93.5208 80.2957 93.7292 80.0964C93.9377 79.8971 94.214 79.7842 94.5024 79.7805H100.835C100.974 79.78 101.111 79.8078 101.239 79.8622C101.367 79.9165 101.483 79.9964 101.579 80.0969C101.675 80.1974 101.75 80.3164 101.798 80.4466C101.847 80.5769 101.869 80.7157 101.862 80.8546L101.574 87.1895C101.558 87.4758 101.435 87.7456 101.229 87.9447C101.023 88.1439 100.749 88.2578 100.462 88.2636Z" fill="#4381CA"/>
<g opacity="0.8">
<path d="M52.1202 88.2636H45.7854C45.6464 88.2641 45.5088 88.2363 45.381 88.1819C45.2532 88.1275 45.1378 88.0476 45.0418 87.9471C44.9459 87.8465 44.8715 87.7275 44.8232 87.5972C44.7748 87.467 44.7535 87.3282 44.7606 87.1895L45.0346 80.8546C45.0512 80.5667 45.1764 80.2957 45.3849 80.0964C45.5933 79.8971 45.8696 79.7842 46.158 79.7805H52.4929C52.6318 79.78 52.7694 79.8078 52.8973 79.8622C53.0251 79.9166 53.1405 79.9965 53.2364 80.097C53.3323 80.1976 53.4067 80.3166 53.4551 80.4468C53.5034 80.5771 53.5247 80.7158 53.5176 80.8546L53.2436 87.1895C53.2264 87.4772 53.101 87.7478 52.8927 87.947C52.6844 88.1461 52.4084 88.2592 52.1202 88.2636Z" fill="#FAFAFA"/>
<path d="M61.7898 88.2636H55.4549C55.3159 88.2645 55.1781 88.237 55.0501 88.1827C54.9221 88.1284 54.8065 88.0485 54.7105 87.9479C54.6145 87.8473 54.5401 87.7281 54.4919 87.5977C54.4437 87.4673 54.4227 87.3283 54.4302 87.1895L54.7042 80.8546C54.7208 80.5667 54.846 80.2957 55.0544 80.0964C55.2629 79.8971 55.5392 79.7842 55.8276 79.7805H62.1707C62.3097 79.78 62.4475 79.8078 62.5754 79.8622C62.7034 79.9165 62.819 79.9964 62.9151 80.0969C63.0112 80.1974 63.0859 80.3164 63.1346 80.4466C63.1832 80.5769 63.2049 80.7157 63.1982 80.8546L62.9105 87.1895C62.8945 87.4772 62.77 87.7481 62.5619 87.9475C62.3539 88.1469 62.0779 88.2598 61.7898 88.2636Z" fill="#FAFAFA"/>
<path d="M71.4565 88.2636H65.1244C64.9853 88.2641 64.8476 88.2363 64.7196 88.1819C64.5917 88.1276 64.4761 88.0477 64.38 87.9472C64.2838 87.8467 64.2092 87.7277 64.1605 87.5975C64.1118 87.4672 64.0902 87.3284 64.0969 87.1895L64.3709 80.8546C64.3875 80.5667 64.5127 80.2957 64.7211 80.0964C64.9296 79.8971 65.2059 79.7842 65.4943 79.7805H71.8264C71.9655 79.7796 72.1033 79.8071 72.2313 79.8614C72.3593 79.9157 72.4749 79.9956 72.5709 80.0962C72.6669 80.1968 72.7412 80.316 72.7895 80.4464C72.8377 80.5768 72.8587 80.7158 72.8512 80.8546L72.5772 87.1895C72.5606 87.477 72.4358 87.7475 72.2279 87.9468C72.0201 88.146 71.7445 88.2592 71.4565 88.2636Z" fill="#FAFAFA"/>
<path d="M81.1257 88.2636H74.8018C74.6626 88.2645 74.5247 88.237 74.3966 88.1827C74.2684 88.1285 74.1527 88.0486 74.0565 87.948C73.9603 87.8475 73.8856 87.7283 73.8371 87.5979C73.7886 87.4674 73.7672 87.3285 73.7743 87.1895L74.0483 80.8546C74.0642 80.5669 74.1888 80.296 74.3968 80.0966C74.6048 79.8972 74.8808 79.7843 75.1689 79.7805H81.5038C81.6428 79.78 81.7804 79.8078 81.9082 79.8622C82.036 79.9166 82.1514 79.9965 82.2473 80.097C82.3432 80.1976 82.4177 80.3166 82.466 80.4468C82.5144 80.5771 82.5357 80.7158 82.5286 80.8546L82.2546 87.1895C82.2379 87.4784 82.112 87.7501 81.9023 87.9495C81.6927 88.149 81.415 88.2613 81.1257 88.2636Z" fill="#FAFAFA"/>
<path d="M90.7955 88.2636H84.4607C84.3217 88.2641 84.1841 88.2363 84.0563 88.1819C83.9284 88.1275 83.813 88.0476 83.7171 87.9471C83.6212 87.8465 83.5468 87.7275 83.4985 87.5973C83.4501 87.467 83.4288 87.3283 83.4359 87.1895L83.7099 80.8546C83.7265 80.5667 83.8517 80.2957 84.0601 80.0964C84.2686 79.8971 84.5449 79.7842 84.8333 79.7805H91.1654C91.3046 79.7796 91.4425 79.8071 91.5707 79.8614C91.6988 79.9156 91.8146 79.9955 91.9108 80.096C92.007 80.1966 92.0816 80.3158 92.1301 80.4462C92.1787 80.5766 92.2 80.7156 92.1929 80.8546L91.9189 87.1895C91.9017 87.4772 91.7763 87.7478 91.568 87.947C91.3597 88.1462 91.0837 88.2593 90.7955 88.2636Z" fill="#FAFAFA"/>
<path d="M100.462 88.2636H94.1298C93.9907 88.2645 93.8529 88.237 93.7249 88.1827C93.5969 88.1284 93.4813 88.0485 93.3853 87.9479C93.2893 87.8473 93.2149 87.7281 93.1667 87.5977C93.1185 87.4673 93.0975 87.3283 93.105 87.1895L93.379 80.8546C93.3956 80.5667 93.5208 80.2957 93.7292 80.0964C93.9377 79.8971 94.214 79.7842 94.5024 79.7805H100.835C100.974 79.78 101.111 79.8078 101.239 79.8622C101.367 79.9165 101.483 79.9964 101.579 80.0969C101.675 80.1974 101.75 80.3164 101.798 80.4466C101.847 80.5769 101.869 80.7157 101.862 80.8546L101.574 87.1895C101.558 87.4758 101.435 87.7456 101.229 87.9447C101.023 88.1439 100.749 88.2578 100.462 88.2636Z" fill="#FAFAFA"/>
</g>
<path d="M51.6764 98.0919H45.3415C45.2026 98.0925 45.065 98.0647 44.9371 98.0103C44.8093 97.9559 44.6939 97.8759 44.598 97.7754C44.5021 97.6749 44.4277 97.5559 44.3793 97.4256C44.331 97.2954 44.3097 97.1566 44.3168 97.0178L44.5908 90.683C44.608 90.3953 44.7334 90.1247 44.9417 89.9255C45.15 89.7263 45.426 89.6132 45.7142 89.6089H52.06C52.1989 89.6083 52.3365 89.6361 52.4644 89.6905C52.5922 89.745 52.7076 89.8249 52.8035 89.9254C52.8994 90.0259 52.9738 90.145 53.0222 90.2752C53.0705 90.4055 53.0918 90.5442 53.0848 90.683L52.8108 97.0178C52.7934 97.3074 52.6665 97.5796 52.4558 97.779C52.2452 97.9785 51.9665 98.0904 51.6764 98.0919Z" fill="#4381CA"/>
<path d="M61.3458 98.092H55.011C54.872 98.0925 54.7344 98.0647 54.6066 98.0103C54.4787 97.9559 54.3633 97.876 54.2674 97.7754C54.1715 97.6749 54.0971 97.5559 54.0488 97.4256C54.0004 97.2954 53.9791 97.1566 53.9862 97.0179L54.2602 90.683C54.2768 90.395 54.402 90.1241 54.6104 89.9248C54.8189 89.7255 55.0952 89.6126 55.3836 89.6089H61.7157C61.856 89.6079 61.995 89.6357 62.124 89.6906C62.2531 89.7455 62.3695 89.8263 62.4661 89.928C62.5627 90.0298 62.6374 90.1502 62.6855 90.282C62.7336 90.4137 62.7542 90.5539 62.746 90.694L62.472 97.0179C62.456 97.3065 62.3306 97.5782 62.1214 97.7777C61.9122 97.9773 61.6349 98.0896 61.3458 98.092Z" fill="#4381CA"/>
<path d="M71.0122 98.0919H64.68C64.541 98.0929 64.4032 98.0654 64.2752 98.0111C64.1472 97.9568 64.0316 97.8769 63.9356 97.7763C63.8396 97.6757 63.7652 97.5565 63.717 97.4261C63.6688 97.2956 63.6478 97.1567 63.6553 97.0179L63.9293 90.683C63.9459 90.395 64.0711 90.1241 64.2795 89.9248C64.488 89.7255 64.7643 89.6126 65.0527 89.6089H71.3848C71.5239 89.608 71.6617 89.6355 71.7897 89.6898C71.9177 89.744 72.0333 89.8239 72.1292 89.9246C72.2252 90.0252 72.2996 90.1444 72.3478 90.2748C72.396 90.4052 72.4171 90.5441 72.4096 90.683L72.1356 97.0179C72.119 97.3058 71.9938 97.5768 71.7853 97.7761C71.5769 97.9754 71.3006 98.0883 71.0122 98.0919Z" fill="#4381CA"/>
<path d="M80.6816 98.0918H74.3495C74.2104 98.0924 74.0727 98.0646 73.9447 98.0102C73.8168 97.9558 73.7012 97.876 73.6051 97.7755C73.5089 97.675 73.4343 97.556 73.3856 97.4257C73.3369 97.2955 73.3153 97.1567 73.322 97.0178L73.596 90.6829C73.6119 90.3952 73.7365 90.1243 73.9445 89.9249C74.1526 89.7255 74.4285 89.6125 74.7166 89.6088H81.0515C81.1926 89.6063 81.3326 89.633 81.4629 89.6872C81.5931 89.7415 81.7107 89.8221 81.8083 89.924C81.9058 90.0259 81.9812 90.147 82.0297 90.2794C82.0782 90.4119 82.0987 90.553 82.09 90.6938L81.816 97.0287C81.7966 97.3166 81.6687 97.5864 81.4582 97.7837C81.2477 97.981 80.9701 98.0911 80.6816 98.0918Z" fill="#4381CA"/>
<path d="M90.3512 98.0919H84.0163C83.8774 98.0925 83.7398 98.0647 83.612 98.0103C83.4841 97.9558 83.3687 97.8759 83.2728 97.7754C83.1769 97.6749 83.1025 97.5558 83.0541 97.4256C83.0058 97.2953 82.9845 97.1566 82.9916 97.0178L83.2656 90.6829C83.2802 90.3928 83.4047 90.1191 83.6139 89.9176C83.8231 89.716 84.1012 89.6017 84.3917 89.5979H90.7266C90.8655 89.5974 91.0031 89.6251 91.1309 89.6796C91.2588 89.734 91.3742 89.8139 91.4701 89.9144C91.566 90.0149 91.6404 90.134 91.6888 90.2642C91.7371 90.3945 91.7584 90.5332 91.7513 90.672L91.4773 97.0069C91.4627 97.297 91.3382 97.5707 91.129 97.7722C90.9198 97.9738 90.6417 98.0881 90.3512 98.0919Z" fill="#4381CA"/>
<path d="M100.01 98.0919H93.6859C93.5469 98.0929 93.4091 98.0654 93.2811 98.0111C93.153 97.9568 93.0375 97.8769 92.9415 97.7763C92.8455 97.6757 92.7711 97.5565 92.7229 97.4261C92.6747 97.2956 92.6537 97.1567 92.6611 97.0178L92.9351 90.683C92.9518 90.395 93.0769 90.1241 93.2854 89.9248C93.4939 89.7255 93.7701 89.6126 94.0585 89.6089H100.391C100.53 89.6084 100.667 89.6361 100.795 89.6905C100.923 89.7449 101.039 89.8248 101.135 89.9253C101.231 90.0257 101.306 90.1447 101.355 90.275C101.403 90.4053 101.425 90.5441 101.418 90.683L101.13 97.0178C101.115 97.3056 100.99 97.5765 100.782 97.7759C100.574 97.9752 100.298 98.0882 100.01 98.0919Z" fill="#4381CA"/>
<g opacity="0.8">
<path d="M51.6764 98.0919H45.3415C45.2026 98.0925 45.065 98.0647 44.9371 98.0103C44.8093 97.9559 44.6939 97.8759 44.598 97.7754C44.5021 97.6749 44.4277 97.5559 44.3793 97.4256C44.331 97.2954 44.3097 97.1566 44.3168 97.0178L44.5908 90.683C44.608 90.3953 44.7334 90.1247 44.9417 89.9255C45.15 89.7263 45.426 89.6132 45.7142 89.6089H52.06C52.1989 89.6083 52.3365 89.6361 52.4644 89.6905C52.5922 89.745 52.7076 89.8249 52.8035 89.9254C52.8994 90.0259 52.9738 90.145 53.0222 90.2752C53.0705 90.4055 53.0918 90.5442 53.0848 90.683L52.8108 97.0178C52.7934 97.3074 52.6665 97.5796 52.4558 97.779C52.2452 97.9785 51.9665 98.0904 51.6764 98.0919Z" fill="#FAFAFA"/>
<path d="M61.3458 98.092H55.011C54.872 98.0925 54.7344 98.0647 54.6066 98.0103C54.4787 97.9559 54.3633 97.876 54.2674 97.7754C54.1715 97.6749 54.0971 97.5559 54.0488 97.4256C54.0004 97.2954 53.9791 97.1566 53.9862 97.0179L54.2602 90.683C54.2768 90.395 54.402 90.1241 54.6104 89.9248C54.8189 89.7255 55.0952 89.6126 55.3836 89.6089H61.7157C61.856 89.6079 61.995 89.6357 62.124 89.6906C62.2531 89.7455 62.3695 89.8263 62.4661 89.928C62.5627 90.0298 62.6374 90.1502 62.6855 90.282C62.7336 90.4137 62.7542 90.5539 62.746 90.694L62.472 97.0179C62.456 97.3065 62.3306 97.5782 62.1214 97.7777C61.9122 97.9773 61.6349 98.0896 61.3458 98.092Z" fill="#FAFAFA"/>
<path d="M71.0127 98.0919H64.6805C64.5415 98.0929 64.4037 98.0654 64.2757 98.0111C64.1477 97.9568 64.0321 97.8769 63.9361 97.7763C63.8401 97.6757 63.7657 97.5565 63.7175 97.4261C63.6693 97.2956 63.6483 97.1567 63.6558 97.0179L63.9298 90.683C63.9464 90.395 64.0715 90.1241 64.28 89.9248C64.4885 89.7255 64.7648 89.6126 65.0532 89.6089H71.3853C71.5244 89.608 71.6621 89.6355 71.7902 89.6898C71.9182 89.744 72.0337 89.8239 72.1297 89.9246C72.2257 90.0252 72.3001 90.1444 72.3483 90.2748C72.3965 90.4052 72.4175 90.5441 72.4101 90.683L72.1361 97.0179C72.1195 97.3058 71.9943 97.5768 71.7858 97.7761C71.5774 97.9754 71.3011 98.0883 71.0127 98.0919Z" fill="#FAFAFA"/>
<path d="M80.6821 98.0918H74.35C74.2109 98.0924 74.0732 98.0646 73.9452 98.0102C73.8173 97.9558 73.7017 97.876 73.6056 97.7755C73.5094 97.675 73.4348 97.556 73.3861 97.4257C73.3374 97.2955 73.3158 97.1567 73.3225 97.0178L73.5965 90.6829C73.6124 90.3952 73.737 90.1243 73.945 89.9249C74.153 89.7255 74.429 89.6125 74.7171 89.6088H81.052C81.1931 89.6063 81.3331 89.633 81.4634 89.6872C81.5936 89.7415 81.7112 89.8221 81.8088 89.924C81.9063 90.0259 81.9817 90.147 82.0302 90.2794C82.0787 90.4119 82.0992 90.553 82.0905 90.6938L81.8165 97.0287C81.7971 97.3166 81.6692 97.5864 81.4587 97.7837C81.2481 97.981 80.9706 98.0911 80.6821 98.0918Z" fill="#FAFAFA"/>
<path d="M90.3517 98.0919H84.0168C83.8779 98.0925 83.7403 98.0647 83.6124 98.0103C83.4846 97.9558 83.3692 97.8759 83.2733 97.7754C83.1774 97.6749 83.103 97.5558 83.0546 97.4256C83.0063 97.2953 82.985 97.1566 82.9921 97.0178L83.2661 90.6829C83.2807 90.3928 83.4052 90.1191 83.6144 89.9176C83.8236 89.716 84.1017 89.6017 84.3922 89.5979H90.7271C90.866 89.5974 91.0036 89.6251 91.1314 89.6796C91.2593 89.734 91.3747 89.8139 91.4706 89.9144C91.5665 90.0149 91.6409 90.134 91.6893 90.2642C91.7376 90.3945 91.7589 90.5332 91.7518 90.672L91.4778 97.0069C91.4632 97.297 91.3387 97.5707 91.1295 97.7722C90.9203 97.9738 90.6422 98.0881 90.3517 98.0919Z" fill="#FAFAFA"/>
<path d="M100.01 98.0919H93.6859C93.5469 98.0929 93.4091 98.0654 93.2811 98.0111C93.153 97.9568 93.0375 97.8769 92.9415 97.7763C92.8455 97.6757 92.7711 97.5565 92.7229 97.4261C92.6747 97.2956 92.6537 97.1567 92.6611 97.0178L92.9351 90.683C92.9518 90.395 93.0769 90.1241 93.2854 89.9248C93.4939 89.7255 93.7701 89.6126 94.0585 89.6089H100.391C100.53 89.6084 100.667 89.6361 100.795 89.6905C100.923 89.7449 101.039 89.8248 101.135 89.9253C101.231 90.0257 101.306 90.1447 101.355 90.275C101.403 90.4053 101.425 90.5441 101.418 90.683L101.13 97.0178C101.115 97.3056 100.99 97.5765 100.782 97.7759C100.574 97.9752 100.298 98.0882 100.01 98.0919Z" fill="#FAFAFA"/>
</g>
<path d="M51.2377 107.918H44.8973C44.7583 107.919 44.6205 107.891 44.4925 107.837C44.3645 107.782 44.2489 107.703 44.1529 107.602C44.0569 107.501 43.9825 107.382 43.9343 107.252C43.8861 107.121 43.8651 106.982 43.8726 106.843L44.1466 100.511C44.1632 100.223 44.2883 99.9525 44.4968 99.7532C44.7053 99.5538 44.9816 99.441 45.27 99.4373H51.6048C51.7439 99.4363 51.8817 99.4638 52.0097 99.5181C52.1377 99.5724 52.2533 99.6523 52.3493 99.7529C52.4453 99.8535 52.5197 99.9727 52.5679 100.103C52.6161 100.234 52.6371 100.373 52.6296 100.511L52.3556 106.843C52.3397 107.131 52.2155 107.401 52.0081 107.601C51.8006 107.8 51.5253 107.913 51.2377 107.918Z" fill="#4381CA"/>
<path d="M60.9016 107.918H54.5668C54.4277 107.919 54.2899 107.891 54.1619 107.837C54.0339 107.782 53.9183 107.703 53.8223 107.602C53.7263 107.501 53.652 107.382 53.6037 107.252C53.5555 107.121 53.5345 106.982 53.542 106.844L53.816 100.511C53.832 100.223 53.9569 99.9519 54.1656 99.7525C54.3742 99.553 54.6508 99.4403 54.9394 99.4373H61.2715C61.4108 99.436 61.5489 99.4632 61.6772 99.5173C61.8056 99.5714 61.9215 99.6513 62.0178 99.7519C62.1141 99.8526 62.1887 99.9719 62.2371 100.103C62.2854 100.233 62.3065 100.372 62.299 100.511L62.025 106.844C62.0097 107.132 61.8849 107.404 61.6762 107.603C61.4675 107.803 61.1904 107.915 60.9016 107.918Z" fill="#4381CA"/>
<path d="M70.5683 107.918H64.2362C64.0971 107.919 63.9594 107.891 63.8313 107.837C63.7033 107.782 63.5878 107.703 63.4918 107.602C63.3958 107.501 63.3214 107.382 63.2732 107.252C63.225 107.121 63.204 106.982 63.2114 106.843L63.4854 100.511C63.5014 100.223 63.6264 99.9519 63.835 99.7524C64.0436 99.553 64.3202 99.4403 64.6088 99.4373H70.9656C71.1048 99.4364 71.2427 99.4639 71.3709 99.5181C71.499 99.5724 71.6148 99.6522 71.711 99.7528C71.8072 99.8534 71.8818 99.9725 71.9303 100.103C71.9789 100.233 72.0002 100.372 71.9931 100.511L71.7054 106.843C71.6893 107.134 71.5624 107.407 71.3509 107.607C71.1394 107.807 70.8593 107.918 70.5683 107.918Z" fill="#4381CA"/>
<path d="M80.2379 107.918H73.9058C73.7666 107.919 73.6287 107.891 73.5006 107.837C73.3724 107.782 73.2567 107.703 73.1605 107.602C73.0643 107.502 72.9896 107.382 72.9411 107.252C72.8926 107.121 72.8712 106.982 72.8783 106.843L73.1523 100.511C73.1676 100.223 73.292 99.9521 73.5001 99.7526C73.7083 99.5531 73.9846 99.4404 74.2729 99.4373H80.6078C80.7469 99.4363 80.8847 99.4638 81.0127 99.5181C81.1407 99.5724 81.2563 99.6523 81.3522 99.7529C81.4482 99.8535 81.5226 99.9727 81.5708 100.103C81.619 100.234 81.6401 100.373 81.6326 100.511L81.3586 106.843C81.3426 107.131 81.2181 107.402 81.01 107.602C80.802 107.801 80.526 107.914 80.2379 107.918Z" fill="#4381CA"/>
<path d="M89.9073 107.918H83.5697C83.4306 107.919 83.2929 107.891 83.1648 107.837C83.0368 107.782 82.9213 107.703 82.8253 107.602C82.7293 107.501 82.6549 107.382 82.6067 107.252C82.5585 107.121 82.5375 106.982 82.5449 106.843L82.8189 100.511C82.8355 100.223 82.9607 99.9525 83.1692 99.7532C83.3776 99.5538 83.6539 99.441 83.9423 99.4373H90.2772C90.4163 99.4363 90.554 99.4638 90.6821 99.5181C90.8101 99.5724 90.9256 99.6523 91.0216 99.7529C91.1176 99.8535 91.192 99.9727 91.2402 100.103C91.2884 100.234 91.3094 100.373 91.302 100.511L91.028 106.843C91.0114 107.131 90.8866 107.402 90.6787 107.601C90.4708 107.8 90.1952 107.913 89.9073 107.918Z" fill="#4381CA"/>
<path d="M99.5769 107.918H93.2421C93.103 107.919 92.9652 107.891 92.8372 107.837C92.7092 107.782 92.5936 107.703 92.4976 107.602C92.4016 107.501 92.3272 107.382 92.279 107.252C92.2308 107.121 92.2098 106.982 92.2173 106.843L92.4913 100.511C92.5073 100.223 92.6322 99.9519 92.8408 99.7524C93.0495 99.553 93.3261 99.4403 93.6147 99.4373H99.9468C100.086 99.4364 100.224 99.4639 100.352 99.5181C100.48 99.5724 100.596 99.6522 100.692 99.7528C100.788 99.8534 100.863 99.9725 100.912 100.103C100.96 100.233 100.981 100.372 100.974 100.511L100.687 106.843C100.671 107.13 100.549 107.399 100.343 107.599C100.137 107.798 99.8634 107.912 99.5769 107.918Z" fill="#4381CA"/>
<g opacity="0.8">
<path d="M51.2377 107.918H44.8973C44.7583 107.919 44.6205 107.891 44.4925 107.837C44.3645 107.782 44.2489 107.703 44.1529 107.602C44.0569 107.501 43.9825 107.382 43.9343 107.252C43.8861 107.121 43.8651 106.982 43.8726 106.843L44.1466 100.511C44.1632 100.223 44.2883 99.9525 44.4968 99.7532C44.7053 99.5538 44.9816 99.441 45.27 99.4373H51.6048C51.7439 99.4363 51.8817 99.4638 52.0097 99.5181C52.1377 99.5724 52.2533 99.6523 52.3493 99.7529C52.4453 99.8535 52.5197 99.9727 52.5679 100.103C52.6161 100.234 52.6371 100.373 52.6296 100.511L52.3556 106.843C52.3397 107.131 52.2155 107.401 52.0081 107.601C51.8006 107.8 51.5253 107.913 51.2377 107.918Z" fill="#FAFAFA"/>
<path d="M60.9016 107.918H54.5668C54.4277 107.919 54.2899 107.891 54.1619 107.837C54.0339 107.782 53.9183 107.703 53.8223 107.602C53.7263 107.501 53.652 107.382 53.6037 107.252C53.5555 107.121 53.5345 106.982 53.542 106.844L53.816 100.511C53.832 100.223 53.9569 99.9519 54.1656 99.7525C54.3742 99.553 54.6508 99.4403 54.9394 99.4373H61.2715C61.4108 99.436 61.5489 99.4632 61.6772 99.5173C61.8056 99.5714 61.9215 99.6513 62.0178 99.7519C62.1141 99.8526 62.1887 99.9719 62.2371 100.103C62.2854 100.233 62.3065 100.372 62.299 100.511L62.025 106.844C62.0097 107.132 61.8849 107.404 61.6762 107.603C61.4675 107.803 61.1904 107.915 60.9016 107.918Z" fill="#FAFAFA"/>
<path d="M70.5683 107.918H64.2362C64.0971 107.919 63.9594 107.891 63.8313 107.837C63.7033 107.782 63.5878 107.703 63.4918 107.602C63.3958 107.501 63.3214 107.382 63.2732 107.252C63.225 107.121 63.204 106.982 63.2114 106.843L63.4854 100.511C63.5014 100.223 63.6264 99.9519 63.835 99.7524C64.0436 99.553 64.3202 99.4403 64.6088 99.4373H70.9656C71.1048 99.4364 71.2427 99.4639 71.3709 99.5181C71.499 99.5724 71.6148 99.6522 71.711 99.7528C71.8072 99.8534 71.8818 99.9725 71.9303 100.103C71.9789 100.233 72.0002 100.372 71.9931 100.511L71.7054 106.843C71.6893 107.134 71.5624 107.407 71.3509 107.607C71.1394 107.807 70.8593 107.918 70.5683 107.918Z" fill="#FAFAFA"/>
<path d="M80.2379 107.918H73.9058C73.7666 107.919 73.6287 107.891 73.5006 107.837C73.3724 107.782 73.2567 107.703 73.1605 107.602C73.0643 107.502 72.9896 107.382 72.9411 107.252C72.8926 107.121 72.8712 106.982 72.8783 106.843L73.1523 100.511C73.1676 100.223 73.292 99.9521 73.5001 99.7526C73.7083 99.5531 73.9846 99.4404 74.2729 99.4373H80.6078C80.7469 99.4363 80.8847 99.4638 81.0127 99.5181C81.1407 99.5724 81.2563 99.6523 81.3522 99.7529C81.4482 99.8535 81.5226 99.9727 81.5708 100.103C81.619 100.234 81.6401 100.373 81.6326 100.511L81.3586 106.843C81.3426 107.131 81.2181 107.402 81.01 107.602C80.802 107.801 80.526 107.914 80.2379 107.918Z" fill="#FAFAFA"/>
<path d="M89.9073 107.918H83.5697C83.4306 107.919 83.2929 107.891 83.1648 107.837C83.0368 107.782 82.9213 107.703 82.8253 107.602C82.7293 107.501 82.6549 107.382 82.6067 107.252C82.5585 107.121 82.5375 106.982 82.5449 106.843L82.8189 100.511C82.8355 100.223 82.9607 99.9525 83.1692 99.7532C83.3776 99.5538 83.6539 99.441 83.9423 99.4373H90.2772C90.4163 99.4363 90.554 99.4638 90.6821 99.5181C90.8101 99.5724 90.9256 99.6523 91.0216 99.7529C91.1176 99.8535 91.192 99.9727 91.2402 100.103C91.2884 100.234 91.3094 100.373 91.302 100.511L91.028 106.843C91.0114 107.131 90.8866 107.402 90.6787 107.601C90.4708 107.8 90.1952 107.913 89.9073 107.918Z" fill="#FAFAFA"/>
<path d="M99.5769 107.918H93.2421C93.103 107.919 92.9652 107.891 92.8372 107.837C92.7092 107.782 92.5936 107.703 92.4976 107.602C92.4016 107.501 92.3272 107.382 92.279 107.252C92.2308 107.121 92.2098 106.982 92.2173 106.843L92.4913 100.511C92.5073 100.223 92.6322 99.9519 92.8408 99.7524C93.0495 99.553 93.3261 99.4403 93.6147 99.4373H99.9468C100.086 99.4364 100.224 99.4639 100.352 99.5181C100.48 99.5724 100.596 99.6522 100.692 99.7528C100.788 99.8534 100.863 99.9725 100.912 100.103C100.96 100.233 100.981 100.372 100.974 100.511L100.687 106.843C100.671 107.13 100.549 107.399 100.343 107.599C100.137 107.798 99.8634 107.912 99.5769 107.918Z" fill="#FAFAFA"/>
</g>
<path d="M49.4431 74.6485C47.1086 74.6485 45.2783 71.9331 45.2783 68.467C45.2783 65.0009 47.1086 62.2883 49.4431 62.2883C51.7776 62.2883 53.6107 65.0037 53.6107 68.467C53.6 68.6295 53.528 68.7818 53.4092 68.8931C53.2904 69.0044 53.1337 69.0663 52.9709 69.0663C52.8081 69.0663 52.6514 69.0044 52.5326 68.8931C52.4138 68.7818 52.3417 68.6295 52.3311 68.467C52.3311 65.812 51.0104 63.5652 49.4431 63.5652C47.8758 63.5652 46.5552 65.812 46.5552 68.467C46.5552 71.1221 47.8786 73.3689 49.4431 73.3689C49.5307 73.3632 49.6184 73.3755 49.701 73.405C49.7836 73.4346 49.8593 73.4808 49.9233 73.5407C49.9873 73.6007 50.0384 73.6732 50.0733 73.7537C50.1082 73.8342 50.1262 73.921 50.1262 74.0087C50.1262 74.0964 50.1082 74.1832 50.0733 74.2637C50.0384 74.3442 49.9873 74.4167 49.9233 74.4766C49.8593 74.5366 49.7836 74.5828 49.701 74.6123C49.6184 74.6419 49.5307 74.6542 49.4431 74.6485Z" fill="#4381CA"/>
<path d="M59.1126 74.6485C56.7781 74.6485 54.9478 71.9331 54.9478 68.467C54.9478 65.0009 56.7781 62.2883 59.1126 62.2883C61.447 62.2883 63.2938 65.0037 63.2938 68.467C63.2832 68.6295 63.2111 68.7818 63.0923 68.8931C62.9735 69.0044 62.8168 69.0663 62.654 69.0663C62.4912 69.0663 62.3345 69.0044 62.2157 68.8931C62.0969 68.7818 62.0249 68.6295 62.0142 68.467C62.0142 65.812 60.6935 63.5652 59.1263 63.5652C57.559 63.5652 56.2383 65.812 56.2383 68.467C56.2383 71.1221 57.5617 73.3689 59.1263 73.3689C59.2887 73.3795 59.441 73.4516 59.5523 73.5704C59.6636 73.6892 59.7255 73.8459 59.7255 74.0087C59.7255 74.1715 59.6636 74.3282 59.5523 74.447C59.441 74.5658 59.2887 74.6378 59.1263 74.6485H59.1126Z" fill="#4381CA"/>
<path d="M68.774 74.6485C66.4368 74.6485 64.6064 71.9331 64.6064 68.467C64.6064 65.0009 66.4368 62.2883 68.774 62.2883C71.1112 62.2883 72.9388 65.0037 72.9388 68.467C72.9388 68.6364 72.8715 68.7987 72.7518 68.9185C72.6321 69.0382 72.4697 69.1055 72.3004 69.1055C72.131 69.1055 71.9687 69.0382 71.8489 68.9185C71.7292 68.7987 71.6619 68.6364 71.6619 68.467C71.6619 65.812 70.3385 63.5652 68.774 63.5652C67.2094 63.5652 65.886 65.812 65.886 68.467C65.886 71.1221 67.2094 73.3689 68.774 73.3689C68.9364 73.3795 69.0888 73.4516 69.2 73.5704C69.3113 73.6892 69.3733 73.8459 69.3733 74.0087C69.3733 74.1715 69.3113 74.3282 69.2 74.447C69.0888 74.5658 68.9364 74.6378 68.774 74.6485Z" fill="#4381CA"/>
<path d="M78.4512 74.6485C76.114 74.6485 74.2837 71.9331 74.2837 68.467C74.2837 65.0009 76.114 62.2883 78.4512 62.2883C80.7885 62.2883 82.616 65.0037 82.616 68.467C82.616 68.6364 82.5488 68.7987 82.429 68.9185C82.3093 69.0382 82.1469 69.1055 81.9776 69.1055C81.8083 69.1055 81.6459 69.0382 81.5262 68.9185C81.4065 68.7987 81.3392 68.6364 81.3392 68.467C81.3392 65.812 80.0158 63.5652 78.4512 63.5652C76.8867 63.5652 75.5633 65.812 75.5633 68.467C75.5633 71.1221 76.884 73.3689 78.4512 73.3689C78.6137 73.3795 78.766 73.4516 78.8773 73.5704C78.9886 73.6892 79.0505 73.8459 79.0505 74.0087C79.0505 74.1715 78.9886 74.3282 78.8773 74.447C78.766 74.5658 78.6137 74.6378 78.4512 74.6485Z" fill="#4381CA"/>
<path d="M88.1179 74.6485C85.7834 74.6485 83.9531 71.9331 83.9531 68.467C83.9531 65.0009 85.7834 62.2883 88.1179 62.2883C90.4524 62.2883 92.2855 65.0037 92.2855 68.467C92.2748 68.6295 92.2028 68.7818 92.084 68.8931C91.9652 69.0044 91.8085 69.0663 91.6457 69.0663C91.4829 69.0663 91.3262 69.0044 91.2074 68.8931C91.0886 68.7818 91.0165 68.6295 91.0059 68.467C91.0059 65.812 89.6852 63.5652 88.1179 63.5652C86.5506 63.5652 85.23 65.812 85.23 68.467C85.23 71.1221 86.5534 73.3689 88.1179 73.3689C88.2055 73.3632 88.2933 73.3755 88.3758 73.405C88.4584 73.4346 88.5341 73.4808 88.5981 73.5407C88.6621 73.6007 88.7132 73.6732 88.7481 73.7537C88.783 73.8342 88.801 73.921 88.801 74.0087C88.801 74.0964 88.783 74.1832 88.7481 74.2637C88.7132 74.3442 88.6621 74.4167 88.5981 74.4766C88.5341 74.5366 88.4584 74.5828 88.3758 74.6123C88.2933 74.6419 88.2055 74.6542 88.1179 74.6485Z" fill="#4381CA"/>
<path d="M97.7879 74.6485C95.4534 74.6485 93.623 71.9331 93.623 68.467C93.623 65.0009 95.4534 62.2883 97.7879 62.2883C100.122 62.2883 101.955 65.0037 101.955 68.467C101.945 68.6295 101.873 68.7818 101.754 68.8931C101.635 69.0044 101.478 69.0663 101.316 69.0663C101.153 69.0663 100.996 69.0044 100.877 68.8931C100.758 68.7818 100.686 68.6295 100.676 68.467C100.676 65.812 99.3524 63.5652 97.7879 63.5652C96.2233 63.5652 94.8999 65.812 94.8999 68.467C94.8999 71.1221 96.2233 73.3689 97.7879 73.3689C97.9503 73.3795 98.1026 73.4516 98.2139 73.5704C98.3252 73.6892 98.3871 73.8459 98.3871 74.0087C98.3871 74.1715 98.3252 74.3282 98.2139 74.447C98.1026 74.5658 97.9503 74.6378 97.7879 74.6485Z" fill="#4381CA"/>
<g opacity="0.3">
<path d="M49.4431 74.6485C47.1086 74.6485 45.2783 71.9331 45.2783 68.467C45.2783 65.0009 47.1086 62.2883 49.4431 62.2883C51.7776 62.2883 53.6107 65.0037 53.6107 68.467C53.6 68.6295 53.528 68.7818 53.4092 68.8931C53.2904 69.0044 53.1337 69.0663 52.9709 69.0663C52.8081 69.0663 52.6514 69.0044 52.5326 68.8931C52.4138 68.7818 52.3417 68.6295 52.3311 68.467C52.3311 65.812 51.0104 63.5652 49.4431 63.5652C47.8758 63.5652 46.5552 65.812 46.5552 68.467C46.5552 71.1221 47.8786 73.3689 49.4431 73.3689C49.5307 73.3632 49.6184 73.3755 49.701 73.405C49.7836 73.4346 49.8593 73.4808 49.9233 73.5407C49.9873 73.6007 50.0384 73.6732 50.0733 73.7537C50.1082 73.8342 50.1262 73.921 50.1262 74.0087C50.1262 74.0964 50.1082 74.1832 50.0733 74.2637C50.0384 74.3442 49.9873 74.4167 49.9233 74.4766C49.8593 74.5366 49.7836 74.5828 49.701 74.6123C49.6184 74.6419 49.5307 74.6542 49.4431 74.6485Z" fill="black"/>
<path d="M59.1126 74.6485C56.7781 74.6485 54.9478 71.9331 54.9478 68.467C54.9478 65.0009 56.7781 62.2883 59.1126 62.2883C61.447 62.2883 63.2938 65.0037 63.2938 68.467C63.2832 68.6295 63.2111 68.7818 63.0923 68.8931C62.9735 69.0044 62.8168 69.0663 62.654 69.0663C62.4912 69.0663 62.3345 69.0044 62.2157 68.8931C62.0969 68.7818 62.0249 68.6295 62.0142 68.467C62.0142 65.812 60.6935 63.5652 59.1263 63.5652C57.559 63.5652 56.2383 65.812 56.2383 68.467C56.2383 71.1221 57.5617 73.3689 59.1263 73.3689C59.2887 73.3795 59.441 73.4516 59.5523 73.5704C59.6636 73.6892 59.7255 73.8459 59.7255 74.0087C59.7255 74.1715 59.6636 74.3282 59.5523 74.447C59.441 74.5658 59.2887 74.6378 59.1263 74.6485H59.1126Z" fill="black"/>
<path d="M68.774 74.6485C66.4368 74.6485 64.6064 71.9331 64.6064 68.467C64.6064 65.0009 66.4368 62.2883 68.774 62.2883C71.1112 62.2883 72.9388 65.0037 72.9388 68.467C72.9388 68.6364 72.8715 68.7987 72.7518 68.9185C72.6321 69.0382 72.4697 69.1055 72.3004 69.1055C72.131 69.1055 71.9687 69.0382 71.8489 68.9185C71.7292 68.7987 71.6619 68.6364 71.6619 68.467C71.6619 65.812 70.3385 63.5652 68.774 63.5652C67.2094 63.5652 65.886 65.812 65.886 68.467C65.886 71.1221 67.2094 73.3689 68.774 73.3689C68.9364 73.3795 69.0888 73.4516 69.2 73.5704C69.3113 73.6892 69.3733 73.8459 69.3733 74.0087C69.3733 74.1715 69.3113 74.3282 69.2 74.447C69.0888 74.5658 68.9364 74.6378 68.774 74.6485Z" fill="black"/>
<path d="M78.4517 74.6485C76.1145 74.6485 74.2842 71.9331 74.2842 68.467C74.2842 65.0009 76.1145 62.2883 78.4517 62.2883C80.7889 62.2883 82.6165 65.0037 82.6165 68.467C82.6165 68.6364 82.5493 68.7987 82.4295 68.9185C82.3098 69.0382 82.1474 69.1055 81.9781 69.1055C81.8088 69.1055 81.6464 69.0382 81.5267 68.9185C81.4069 68.7987 81.3397 68.6364 81.3397 68.467C81.3397 65.812 80.0163 63.5652 78.4517 63.5652C76.8872 63.5652 75.5638 65.812 75.5638 68.467C75.5638 71.1221 76.8844 73.3689 78.4517 73.3689C78.6142 73.3795 78.7665 73.4516 78.8778 73.5704C78.9891 73.6892 79.051 73.8459 79.051 74.0087C79.051 74.1715 78.9891 74.3282 78.8778 74.447C78.7665 74.5658 78.6142 74.6378 78.4517 74.6485Z" fill="black"/>
<path d="M88.1184 74.6485C85.7839 74.6485 83.9536 71.9331 83.9536 68.467C83.9536 65.0009 85.7839 62.2883 88.1184 62.2883C90.4529 62.2883 92.286 65.0037 92.286 68.467C92.2753 68.6295 92.2033 68.7818 92.0845 68.8931C91.9657 69.0044 91.809 69.0663 91.6462 69.0663C91.4834 69.0663 91.3267 69.0044 91.2079 68.8931C91.089 68.7818 91.017 68.6295 91.0064 68.467C91.0064 65.812 89.6857 63.5652 88.1184 63.5652C86.5511 63.5652 85.2305 65.812 85.2305 68.467C85.2305 71.1221 86.5539 73.3689 88.1184 73.3689C88.206 73.3632 88.2937 73.3755 88.3763 73.405C88.4589 73.4346 88.5346 73.4808 88.5986 73.5407C88.6626 73.6007 88.7137 73.6732 88.7486 73.7537C88.7835 73.8342 88.8015 73.921 88.8015 74.0087C88.8015 74.0964 88.7835 74.1832 88.7486 74.2637C88.7137 74.3442 88.6626 74.4167 88.5986 74.4766C88.5346 74.5366 88.4589 74.5828 88.3763 74.6123C88.2937 74.6419 88.206 74.6542 88.1184 74.6485Z" fill="black"/>
<path d="M97.7879 74.6485C95.4534 74.6485 93.623 71.9331 93.623 68.467C93.623 65.0009 95.4534 62.2883 97.7879 62.2883C100.122 62.2883 101.955 65.0037 101.955 68.467C101.945 68.6295 101.873 68.7818 101.754 68.8931C101.635 69.0044 101.478 69.0663 101.316 69.0663C101.153 69.0663 100.996 69.0044 100.877 68.8931C100.758 68.7818 100.686 68.6295 100.676 68.467C100.676 65.812 99.3524 63.5652 97.7879 63.5652C96.2233 63.5652 94.8999 65.812 94.8999 68.467C94.8999 71.1221 96.2233 73.3689 97.7879 73.3689C97.9503 73.3795 98.1026 73.4516 98.2139 73.5704C98.3252 73.6892 98.3871 73.8459 98.3871 74.0087C98.3871 74.1715 98.3252 74.3282 98.2139 74.447C98.1026 74.5658 97.9503 74.6378 97.7879 74.6485Z" fill="black"/>
</g>
<path d="M79.0979 88.6169C76.8621 88.1731 74.3522 88.6909 73.4563 91.0473C72.7356 92.9434 73.659 94.9984 75.6483 95.4998C77.4019 95.941 80.4268 95.4012 81.0515 93.3791C81.7667 91.0665 78.8595 90.3157 77.2292 90.1787C76.7388 90.1376 76.7415 90.9048 77.2292 90.9459C77.9718 91.009 78.8212 91.0501 79.4788 91.4583C80.8488 92.3159 80.2843 93.6914 79.1171 94.349C77.9499 95.0066 76.1606 95.171 75.0071 94.4422C73.7467 93.6394 73.7056 91.8748 74.4591 90.724C75.4482 89.2033 77.2539 89.0334 78.8815 89.354C79.3637 89.4499 79.5692 88.7101 79.0842 88.6142L79.0979 88.6169Z" fill="#4381CA"/>
<path opacity="0.1" d="M79.0979 88.6169C76.8621 88.1731 74.3522 88.6909 73.4563 91.0473C72.7356 92.9434 73.659 94.9984 75.6483 95.4998C77.4019 95.941 80.4268 95.4012 81.0515 93.3791C81.7667 91.0665 78.8595 90.3157 77.2292 90.1787C76.7388 90.1376 76.7415 90.9048 77.2292 90.9459C77.9718 91.009 78.8212 91.0501 79.4788 91.4583C80.8488 92.3159 80.2843 93.6914 79.1171 94.349C77.9499 95.0066 76.1606 95.171 75.0071 94.4422C73.7467 93.6394 73.7056 91.8748 74.4591 90.724C75.4482 89.2033 77.2539 89.0334 78.8815 89.354C79.3637 89.4499 79.5692 88.7101 79.0842 88.6142L79.0979 88.6169Z" fill="#FAFAFA"/>
<path d="M54.4297 79.7913C56.568 82.6259 58.9519 85.2665 61.5537 87.6825C61.9154 88.0196 62.4607 87.477 62.1017 87.1345C59.5444 84.7663 57.2 82.178 55.0956 79.3995C54.8024 79.0104 54.1366 79.3995 54.4352 79.7859L54.4297 79.7913Z" fill="#4381CA"/>
<path d="M55.2217 87.3622C56.8383 84.4879 59.6687 82.0356 62.3457 80.1587C62.7458 79.8847 62.3649 79.2107 61.9594 79.4956C59.1755 81.452 56.2492 83.9783 54.5614 86.9731C54.5151 87.0603 54.5042 87.1621 54.531 87.2572C54.5579 87.3522 54.6204 87.4333 54.7055 87.4834C54.7906 87.5336 54.8918 87.549 54.9879 87.5264C55.0841 87.5038 55.1678 87.445 55.2217 87.3622Z" fill="#4381CA"/>
<g opacity="0.2">
<path d="M54.4297 79.7913C56.568 82.6259 58.9519 85.2665 61.5537 87.6825C61.9154 88.0196 62.4607 87.477 62.1017 87.1345C59.5444 84.7663 57.2 82.178 55.0956 79.3995C54.8024 79.0104 54.1366 79.3995 54.4352 79.7859L54.4297 79.7913Z" fill="black"/>
<path d="M55.2217 87.3619C56.8383 84.4877 59.6687 82.0354 62.3457 80.1585C62.7458 79.8845 62.3649 79.2104 61.9594 79.4954C59.1755 81.4517 56.2492 83.978 54.5614 86.9728C54.5151 87.0601 54.5042 87.1618 54.531 87.2569C54.5579 87.352 54.6204 87.433 54.7055 87.4832C54.7906 87.5333 54.8918 87.5487 54.9879 87.5261C55.0841 87.5035 55.1678 87.4447 55.2217 87.3619Z" fill="black"/>
</g>
<path d="M84.9039 82.2437H89.9044C90.0002 82.2356 90.0895 82.1918 90.1545 82.121C90.2196 82.0502 90.2557 81.9576 90.2557 81.8615C90.2557 81.7654 90.2196 81.6727 90.1545 81.6019C90.0895 81.5312 90.0002 81.4874 89.9044 81.4792H84.9039C84.8082 81.4874 84.7189 81.5312 84.6539 81.6019C84.5888 81.6727 84.5527 81.7654 84.5527 81.8615C84.5527 81.9576 84.5888 82.0502 84.6539 82.121C84.7189 82.1918 84.8082 82.2356 84.9039 82.2437Z" fill="#4381CA"/>
<path d="M84.8465 83.6659H87.7454C87.8471 83.6659 87.9447 83.6255 88.0167 83.5535C88.0886 83.4816 88.129 83.384 88.129 83.2823C88.129 83.1806 88.0886 83.083 88.0167 83.011C87.9447 82.9391 87.8471 82.8987 87.7454 82.8987H84.8465C84.7448 82.8987 84.6472 82.9391 84.5752 83.011C84.5033 83.083 84.4629 83.1806 84.4629 83.2823C84.4629 83.384 84.5033 83.4816 84.5752 83.5535C84.6472 83.6255 84.7448 83.6659 84.8465 83.6659Z" fill="#4381CA"/>
<g opacity="0.1">
<path d="M84.9039 82.2437H89.9044C90.0002 82.2356 90.0895 82.1918 90.1545 82.121C90.2196 82.0502 90.2557 81.9576 90.2557 81.8615C90.2557 81.7654 90.2196 81.6727 90.1545 81.6019C90.0895 81.5312 90.0002 81.4874 89.9044 81.4792H84.9039C84.8082 81.4874 84.7189 81.5312 84.6539 81.6019C84.5888 81.6727 84.5527 81.7654 84.5527 81.8615C84.5527 81.9576 84.5888 82.0502 84.6539 82.121C84.7189 82.1918 84.8082 82.2356 84.9039 82.2437Z" fill="#FAFAFA"/>
<path d="M84.8465 83.6659H87.7454C87.8471 83.6659 87.9447 83.6255 88.0167 83.5535C88.0886 83.4816 88.129 83.384 88.129 83.2823C88.129 83.1806 88.0886 83.083 88.0167 83.011C87.9447 82.9391 87.8471 82.8987 87.7454 82.8987H84.8465C84.7448 82.8987 84.6472 82.9391 84.5752 83.011C84.5033 83.083 84.4629 83.1806 84.4629 83.2823C84.4629 83.384 84.5033 83.4816 84.5752 83.5535C84.6472 83.6255 84.7448 83.6659 84.8465 83.6659Z" fill="#FAFAFA"/>
</g>
<path d="M54.9534 101.873H59.2415C59.3433 101.873 59.4408 101.833 59.5128 101.761C59.5847 101.689 59.6251 101.591 59.6251 101.49C59.6251 101.388 59.5847 101.29 59.5128 101.218C59.4408 101.146 59.3433 101.106 59.2415 101.106H54.9534C54.8517 101.106 54.7541 101.146 54.6822 101.218C54.6102 101.29 54.5698 101.388 54.5698 101.49C54.5698 101.591 54.6102 101.689 54.6822 101.761C54.7541 101.833 54.8517 101.873 54.9534 101.873Z" fill="#4381CA"/>
<path d="M54.7996 103.52H60.3618C60.4636 103.52 60.5611 103.479 60.6331 103.408C60.705 103.336 60.7454 103.238 60.7454 103.136C60.7454 103.035 60.705 102.937 60.6331 102.865C60.5611 102.793 60.4636 102.753 60.3618 102.753H54.7996C54.6979 102.753 54.6003 102.793 54.5284 102.865C54.4564 102.937 54.416 103.035 54.416 103.136C54.416 103.238 54.4564 103.336 54.5284 103.408C54.6003 103.479 54.6979 103.52 54.7996 103.52Z" fill="#4381CA"/>
<path d="M54.7996 105.216H57.5807C57.6824 105.216 57.78 105.176 57.852 105.104C57.9239 105.032 57.9643 104.934 57.9643 104.832C57.9643 104.731 57.9239 104.633 57.852 104.561C57.78 104.489 57.6824 104.449 57.5807 104.449H54.7996C54.6979 104.449 54.6003 104.489 54.5284 104.561C54.4564 104.633 54.416 104.731 54.416 104.832C54.416 104.934 54.4564 105.032 54.5284 105.104C54.6003 105.176 54.6979 105.216 54.7996 105.216Z" fill="#4381CA"/>
<g opacity="0.1">
<path d="M54.9529 101.873H59.241C59.3428 101.873 59.4403 101.833 59.5123 101.761C59.5842 101.689 59.6246 101.591 59.6246 101.49C59.6246 101.388 59.5842 101.29 59.5123 101.218C59.4403 101.146 59.3428 101.106 59.241 101.106H54.9529C54.8512 101.106 54.7536 101.146 54.6817 101.218C54.6098 101.29 54.5693 101.388 54.5693 101.49C54.5693 101.591 54.6098 101.689 54.6817 101.761C54.7536 101.833 54.8512 101.873 54.9529 101.873Z" fill="#FAFAFA"/>
<path d="M54.7996 103.52H60.3618C60.4636 103.52 60.5611 103.479 60.6331 103.408C60.705 103.336 60.7454 103.238 60.7454 103.136C60.7454 103.035 60.705 102.937 60.6331 102.865C60.5611 102.793 60.4636 102.753 60.3618 102.753H54.7996C54.6979 102.753 54.6003 102.793 54.5284 102.865C54.4564 102.937 54.416 103.035 54.416 103.136C54.416 103.238 54.4564 103.336 54.5284 103.408C54.6003 103.479 54.6979 103.52 54.7996 103.52Z" fill="#FAFAFA"/>
<path d="M54.7996 105.216H57.5807C57.6824 105.216 57.78 105.176 57.852 105.104C57.9239 105.032 57.9643 104.934 57.9643 104.832C57.9643 104.731 57.9239 104.633 57.852 104.561C57.78 104.489 57.6824 104.449 57.5807 104.449H54.7996C54.6979 104.449 54.6003 104.489 54.5284 104.561C54.4564 104.633 54.416 104.731 54.416 104.832C54.416 104.934 54.4564 105.032 54.5284 105.104C54.6003 105.176 54.6979 105.216 54.7996 105.216Z" fill="#FAFAFA"/>
</g>
<path d="M24.7118 58.8525L26.0078 58.7949L25.4215 61.2609C24.959 60.9443 24.5374 60.5715 24.1666 60.1512C24.0596 60.0254 24.0065 59.8626 24.0188 59.6979C24.0311 59.5333 24.1079 59.3802 24.2323 59.2717L24.7118 58.8525Z" fill="#E4897B"/>
<path d="M27.512 60.1238L26.9311 62.1295L25.4214 61.2554L26.0077 58.7949L27.512 60.1238Z" fill="#E4897B"/>
<path d="M27.2564 48.2169L24.6045 48.4624L30.6868 114.152L33.3387 113.907L27.2564 48.2169Z" fill="#4381CA"/>
<path opacity="0.3" d="M27.2564 48.2169L24.6045 48.4624L30.6868 114.152L33.3387 113.907L27.2564 48.2169Z" fill="black"/>
<path d="M32.5616 47.7244L29.9097 47.97L35.992 113.66L38.6439 113.414L32.5616 47.7244Z" fill="#4381CA"/>
<path opacity="0.3" d="M32.5616 47.7244L29.9097 47.97L35.992 113.66L38.6439 113.414L32.5616 47.7244Z" fill="black"/>
<path d="M29.9102 47.9708L27.2583 48.2163L33.3406 113.906L35.9926 113.661L29.9102 47.9708Z" fill="#4381CA"/>
<path opacity="0.1" d="M29.9102 47.9708L27.2583 48.2163L33.3406 113.906L35.9926 113.661L29.9102 47.9708Z" fill="black"/>
<path d="M29.3507 43.377L26.9641 43.5989L24.605 48.4624L32.5619 47.7253L29.3507 43.377Z" fill="#4381CA"/>
<g opacity="0.8">
<path d="M29.3507 43.377L26.9641 43.5989L24.605 48.4624L32.5619 47.7253L29.3507 43.377Z" fill="#FAFAFA"/>
</g>
<path d="M27.9749 41.5139L26.9639 43.5991L29.3504 43.3771L27.9749 41.5139Z" fill="#263238"/>
<path d="M48.0263 45.2266C48.3003 45.5006 48.5277 45.7609 48.7634 46.0486C48.999 46.3363 49.2237 46.5966 49.4484 46.8706C49.9005 47.4186 50.3224 47.9967 50.7334 48.5858C51.5807 49.7836 52.2955 51.0698 52.8652 52.4218C52.9337 52.5972 52.9967 52.7807 53.0624 52.9698L53.1611 53.2438C53.2154 53.4078 53.2539 53.5766 53.2762 53.748C53.3356 54.2933 53.2633 54.8448 53.0652 55.3563C52.7694 56.1114 52.3551 56.8144 51.8377 57.4387C50.9228 58.5584 49.8696 59.5573 48.7031 60.4116L47.6701 59.3156C48.4831 58.2993 49.2264 57.2292 49.895 56.1126C50.1879 55.6355 50.4129 55.12 50.5635 54.5809C50.6052 54.4486 50.6099 54.3075 50.5772 54.1727L50.4841 53.9699C50.4211 53.8356 50.3663 53.6959 50.2978 53.5644C49.7178 52.4389 49.0393 51.3671 48.2702 50.3613C47.8866 49.838 47.481 49.3283 47.07 48.8187C46.8645 48.5666 46.6563 48.3145 46.4426 48.0679L45.8179 47.3473L48.0263 45.2266Z" fill="#E4897B"/>
<path d="M46.0127 60.1513L47.1799 62.4611L48.3225 61.4774L47.3854 59.8362L46.0127 60.1513Z" fill="#E4897B"/>
<path d="M37.2197 46.5802C36.5092 47.9337 35.7712 49.2718 35.0058 50.5943C34.6304 51.2601 34.2359 51.9149 33.8523 52.5753L33.2632 53.5617L33.1152 53.8083C33.0412 53.9261 32.959 54.0658 32.885 54.159C32.8111 54.2522 32.7371 54.3645 32.6659 54.4494C32.5946 54.5344 32.5179 54.6303 32.4467 54.7097C31.8932 55.3127 31.3039 55.8818 30.6821 56.414C30.082 56.9264 29.482 57.4251 28.8627 57.8991C27.638 58.8554 26.3803 59.7459 25.0761 60.5953L24.1362 59.4116L27.3831 56.214C27.9147 55.666 28.4517 55.1509 28.9586 54.6084C29.4567 54.0978 29.926 53.5599 30.3643 52.9972C30.4172 52.9315 30.4638 52.8685 30.504 52.8082C30.5506 52.7424 30.5835 52.6876 30.6163 52.6328C30.6447 52.5888 30.6703 52.543 30.6931 52.4958L30.8191 52.241L31.326 51.208C31.674 50.5258 32.0137 49.838 32.3672 49.1612C33.0668 47.7967 33.7975 46.4477 34.5592 45.1143L37.2197 46.5802Z" fill="#E4897B"/>
<path d="M44.911 37.3244C44.8754 37.4833 44.9329 37.634 45.0343 37.6614C45.1357 37.6888 45.248 37.5792 45.2836 37.4203C45.3192 37.2614 45.259 37.1107 45.1576 37.0833C45.0562 37.0559 44.9356 37.1655 44.911 37.3244Z" fill="#263238"/>
<path d="M44.9165 37.6313C45.0023 38.1658 45.1589 38.6864 45.3823 39.1795C45.2562 39.2294 45.1207 39.2511 44.9853 39.243C44.8499 39.235 44.7179 39.1974 44.5986 39.1329L44.9165 37.6313Z" fill="#DE5753"/>
<path d="M45.3305 36.3598C45.311 36.3599 45.2919 36.3542 45.2757 36.3434C45.1744 36.2815 45.0597 36.2452 44.9413 36.2376C44.8229 36.23 44.7045 36.2512 44.5961 36.2996C44.5725 36.3088 44.5462 36.3085 44.5227 36.2988C44.4992 36.2891 44.4804 36.2707 44.4701 36.2475C44.4609 36.2238 44.4612 36.1975 44.4708 36.174C44.4805 36.1505 44.4989 36.1317 44.5222 36.1215C44.6607 36.062 44.8115 36.0369 44.9618 36.0484C45.1121 36.0598 45.2574 36.1074 45.3853 36.1872C45.3957 36.1941 45.4046 36.203 45.4115 36.2134C45.4184 36.2238 45.4231 36.2355 45.4254 36.2478C45.4277 36.26 45.4276 36.2726 45.4249 36.2848C45.4222 36.297 45.4171 36.3085 45.4099 36.3187C45.401 36.3315 45.3891 36.342 45.3753 36.3491C45.3614 36.3563 45.3461 36.36 45.3305 36.3598Z" fill="#263238"/>
<path d="M39.3681 37.9299C39.7133 39.4041 40.1052 42.1002 39.1133 43.0839C39.1133 43.0839 39.5736 44.5772 42.3109 44.5772C45.3249 44.5772 43.6809 43.0839 43.6809 43.0839C42.0232 42.6921 42.0177 41.4728 42.2588 40.3302L39.3681 37.9299Z" fill="#E4897B"/>
<path d="M38.7409 43.5961C38.5052 43.1249 38.2477 42.5823 38.7409 42.4125C39.2724 42.2261 42.2234 42.0371 43.2564 42.3851C43.5316 42.4587 43.7673 42.6366 43.9136 42.8811C44.0599 43.1256 44.1052 43.4174 44.04 43.6948L38.7409 43.5961Z" fill="#4381CA"/>
<path opacity="0.6" d="M38.7409 43.5961C38.5052 43.1249 38.2477 42.5823 38.7409 42.4125C39.2724 42.2261 42.2234 42.0371 43.2564 42.3851C43.5316 42.4587 43.7673 42.6366 43.9136 42.8811C44.0599 43.1256 44.1052 43.4174 44.04 43.6948L38.7409 43.5961Z" fill="#FAFAFA"/>
<path d="M34.798 112.34C34.6211 112.339 34.4448 112.32 34.2719 112.282C34.263 112.281 34.2548 112.277 34.2485 112.27C34.2421 112.264 34.2378 112.256 34.2363 112.247C34.2345 112.238 34.2353 112.228 34.2387 112.219C34.2421 112.211 34.2479 112.203 34.2555 112.198C34.2774 112.181 34.8035 111.803 35.1104 111.869C35.1435 111.875 35.175 111.888 35.2024 111.907C35.2299 111.926 35.2527 111.952 35.2693 111.981C35.2939 112.014 35.3073 112.054 35.3073 112.095C35.3073 112.136 35.2939 112.176 35.2693 112.209C35.2035 112.315 35.0035 112.34 34.798 112.34ZM34.4062 112.214C34.7076 112.263 35.1186 112.263 35.2008 112.151C35.2008 112.151 35.2336 112.107 35.1871 112.028C35.177 112.01 35.1632 111.995 35.1466 111.984C35.13 111.972 35.1111 111.965 35.0912 111.962C34.8424 111.978 34.6039 112.068 34.4062 112.219V112.214Z" fill="#FAFAFA"/>
<path d="M34.2825 112.291H34.2579C34.2507 112.287 34.2449 112.281 34.241 112.273C34.2371 112.266 34.2354 112.258 34.2359 112.25C34.2359 112.225 34.2606 111.644 34.488 111.452C34.5153 111.428 34.5475 111.41 34.5825 111.399C34.6175 111.388 34.6544 111.385 34.6908 111.389C34.7277 111.389 34.7635 111.402 34.792 111.426C34.8205 111.449 34.84 111.482 34.847 111.518C34.8908 111.743 34.5072 112.181 34.299 112.294L34.2825 112.291ZM34.6579 111.469C34.6185 111.469 34.5806 111.484 34.551 111.51C34.4166 111.694 34.342 111.915 34.3373 112.143C34.5346 111.987 34.7785 111.655 34.7538 111.524C34.7538 111.51 34.7538 111.477 34.6798 111.469H34.6579Z" fill="#FAFAFA"/>
<path d="M46.8867 112.34C46.679 112.34 46.4717 112.321 46.2675 112.283C46.2579 112.281 46.2491 112.276 46.2422 112.27C46.2353 112.263 46.2307 112.254 46.2292 112.244C46.2276 112.235 46.2289 112.225 46.2328 112.216C46.2367 112.207 46.243 112.2 46.2511 112.195C46.3525 112.137 47.2457 111.625 47.4622 111.978C47.4838 112.009 47.4955 112.046 47.4955 112.084C47.4955 112.122 47.4838 112.158 47.4622 112.189C47.4019 112.31 47.1443 112.34 46.8867 112.34ZM46.4182 112.211C46.7963 112.266 47.306 112.258 47.3937 112.135C47.3937 112.135 47.4211 112.096 47.38 112.028C47.2594 111.833 46.7169 112.066 46.4182 112.217V112.211Z" fill="#FAFAFA"/>
<path d="M46.2755 112.291C46.2665 112.293 46.257 112.293 46.2481 112.291C46.2412 112.286 46.2358 112.279 46.2324 112.272C46.229 112.264 46.2278 112.255 46.2289 112.247C46.2289 112.225 46.2618 111.683 46.5029 111.472C46.5394 111.438 46.583 111.413 46.6305 111.399C46.6779 111.385 46.728 111.382 46.7769 111.389C46.9112 111.403 46.9495 111.472 46.9577 111.526C46.9961 111.759 46.5385 112.184 46.2974 112.294L46.2755 112.291ZM46.7358 111.469C46.675 111.468 46.6161 111.491 46.5714 111.532C46.4274 111.708 46.3438 111.926 46.333 112.154C46.5741 112.006 46.881 111.669 46.8618 111.529C46.8618 111.515 46.8618 111.48 46.7632 111.469H46.7358Z" fill="#FAFAFA"/>
<path d="M44.0615 112.242H46.0754L46.0946 107.581H44.0834L44.0615 112.242Z" fill="#E4897B"/>
<path d="M31.9756 112.242H33.9895L34.8224 107.581H32.8085L31.9756 112.242Z" fill="#E4897B"/>
<path d="M34.1237 112.009H31.8632C31.8233 112.008 31.7844 112.022 31.7538 112.047C31.7231 112.073 31.7026 112.109 31.6961 112.148L31.3673 113.938C31.3605 113.982 31.3635 114.027 31.376 114.07C31.3885 114.113 31.4103 114.153 31.4397 114.187C31.4692 114.221 31.5056 114.248 31.5466 114.267C31.5876 114.285 31.632 114.294 31.6769 114.294C32.466 114.28 32.8469 114.233 33.8415 114.233C34.4525 114.233 35.7157 114.299 36.5623 114.299C37.409 114.299 37.483 113.477 37.135 113.387C35.5705 113.047 34.9677 112.578 34.4553 112.135C34.3638 112.054 34.2459 112.009 34.1237 112.009Z" fill="#263238"/>
<path d="M46.0538 112.009H43.8618C43.8218 112.008 43.783 112.022 43.7523 112.047C43.7216 112.073 43.7012 112.109 43.6946 112.148L43.3658 113.938C43.3582 113.982 43.3603 114.027 43.3721 114.07C43.3839 114.113 43.4051 114.153 43.4342 114.187C43.4632 114.221 43.4994 114.248 43.5402 114.267C43.5809 114.285 43.6252 114.294 43.67 114.294C44.4618 114.28 45.6044 114.233 46.6018 114.233C47.769 114.233 48.7773 114.299 50.1446 114.299C50.9666 114.299 51.1666 113.477 50.8186 113.387C49.2294 113.042 47.9416 113.006 46.5497 112.167C46.4025 112.069 46.2307 112.014 46.0538 112.009Z" fill="#263238"/>
<path d="M35.2745 43.5388C33.4031 43.9717 31.4385 49.1147 31.4385 49.1147L35.3265 51.7122C36.2192 50.3588 37.0017 48.9358 37.6665 47.457C38.694 45.1034 37.1843 43.0977 35.2745 43.5388Z" fill="#4381CA"/>
<path opacity="0.7" d="M35.2745 43.5388C33.4031 43.9717 31.4385 49.1147 31.4385 49.1147L35.3265 51.7122C36.2192 50.3588 37.0017 48.9358 37.6665 47.457C38.694 45.1034 37.1843 43.0977 35.2745 43.5388Z" fill="black"/>
<path d="M36.7514 46.8186L35.1431 51.5889L35.3266 51.7122C35.3266 51.7122 36.061 50.6162 36.8419 49.1558L36.7514 46.8186Z" fill="#4381CA"/>
<path opacity="0.8" d="M36.7514 46.8186L35.1431 51.5889L35.3266 51.7122C35.3266 51.7122 36.061 50.6162 36.8419 49.1558L36.7514 46.8186Z" fill="black"/>
<path d="M47.8318 52.5314C47.8154 54.7782 47.6811 57.573 47.3469 61.0418H36.5787C36.4389 59.3978 37.1678 51.3258 35.2744 43.5387C36.4588 43.3091 37.6569 43.1572 38.8611 43.0839C40.3851 42.9961 41.9129 42.9961 43.4369 43.0839C44.4879 43.186 45.5294 43.3693 46.5523 43.6319C46.5523 43.6319 47.4729 44.6292 47.7524 49.3064C47.8072 50.2407 47.8373 51.3039 47.8318 52.5314Z" fill="#4381CA"/>
<path opacity="0.7" d="M47.8318 52.5314C47.8154 54.7782 47.6811 57.573 47.3469 61.0418H36.5787C36.4389 59.3978 37.1678 51.3258 35.2744 43.5387C36.4588 43.3091 37.6569 43.1572 38.8611 43.0839C40.3851 42.9961 41.9129 42.9961 43.4369 43.0839C44.4879 43.186 45.5294 43.3693 46.5523 43.6319C46.5523 43.6319 47.4729 44.6292 47.7524 49.3064C47.8072 50.2407 47.8373 51.3039 47.8318 52.5314Z" fill="black"/>
<path d="M47.8321 52.5314C47.18 51.3422 45.9963 48.9557 46.1634 47.5994L47.7526 49.3201C47.8074 50.2407 47.8376 51.3038 47.8321 52.5314Z" fill="#4381CA"/>
<path opacity="0.8" d="M47.8321 52.5314C47.18 51.3422 45.9963 48.9557 46.1634 47.5994L47.7526 49.3201C47.8074 50.2407 47.8376 51.3038 47.8321 52.5314Z" fill="black"/>
<path d="M44.4424 45.4622C44.2725 47.3802 48.6209 51.9944 48.6209 51.9944L52.1061 49.1557C51.1933 47.6153 50.0996 46.1895 48.8483 44.9087C46.8097 42.9387 44.6342 43.314 44.4424 45.4622Z" fill="#4381CA"/>
<path opacity="0.7" d="M44.4424 45.4622C44.2725 47.3802 48.6209 51.9944 48.6209 51.9944L52.1061 49.1557C51.1933 47.6153 50.0996 46.1895 48.8483 44.9087C46.8097 42.9387 44.6342 43.314 44.4424 45.4622Z" fill="black"/>
<path d="M46.0949 107.583L46.0839 109.984H44.0728L44.081 107.583H46.0949Z" fill="#CE6F64"/>
<path d="M32.8086 107.583H34.8225L34.3923 109.984H32.3784L32.8086 107.583Z" fill="#CE6F64"/>
<path d="M39.7296 35.6612C39.4364 37.645 39.1651 38.7848 39.9268 40.0452C40.169 40.4534 40.5182 40.7875 40.9367 41.0114C41.3552 41.2352 41.8269 41.3403 42.3008 41.3152C42.7748 41.2901 43.2328 41.1357 43.6253 40.8689C44.0177 40.602 44.3297 40.2329 44.5273 39.8014C45.3137 38.1574 45.6644 35.1872 43.9355 33.9323C43.5706 33.6506 43.1381 33.4699 42.6813 33.4085C42.2245 33.347 41.7595 33.4069 41.3332 33.5821C40.9069 33.7574 40.5342 34.0418 40.2527 34.4068C39.9712 34.7717 39.7908 35.2044 39.7296 35.6612Z" fill="#E4897B"/>
<path d="M45.6893 34.7214C45.0963 35.0452 44.4438 35.2456 43.7713 35.3105C43.2699 37.6039 41.9355 40.2425 39.7764 39.4835C38.9544 39.2095 38.1324 37.2175 38.0474 35.4502C37.9049 35.6228 37.809 35.8475 37.7351 35.9407C37.6118 35.1553 37.7008 34.3512 37.9926 33.6117C38.5899 31.9184 38.9872 33.0418 39.6366 32.0143C40.0558 31.3347 40.8011 30.984 42.1026 30.9402C41.7382 31.1292 41.6697 31.4334 42.2095 31.3895C42.7493 31.3457 45.0536 31.2197 46.3962 32.1266C45.4893 32.3321 46.0427 33.7706 47.2538 33.0034C46.8127 33.7185 46.2647 34.3981 45.6893 34.7214Z" fill="#263238"/>
<path d="M42.2202 36.8888C42.2279 37.3933 42.3969 37.882 42.7025 38.2835C43.1107 38.8096 43.5793 38.5575 43.6916 37.9656C43.7902 37.4395 43.6916 36.5299 43.182 36.212C42.6723 35.8942 42.2175 36.286 42.2202 36.8888Z" fill="#E4897B"/>
<path d="M39.7652 32.228C39.4918 32.2107 39.2268 32.1267 38.9932 31.9834C38.7597 31.8401 38.5647 31.6419 38.4254 31.406C38.4254 31.406 38.3898 33.0116 39.7652 32.228Z" fill="#1E2A4C"/>
<path d="M43.5248 61.0417C43.5248 61.0417 41.837 76.4241 40.804 82.1863C39.6751 88.4883 35.324 109.521 35.324 109.521H31.625C31.625 109.521 34.2499 89.0062 34.7979 82.748C35.387 75.9665 36.5899 61.0308 36.5899 61.0308L43.5248 61.0417Z" fill="#4381CA"/>
<path opacity="0.6" d="M43.5248 61.0417C43.5248 61.0417 41.837 76.4241 40.804 82.1863C39.6751 88.4883 35.324 109.521 35.324 109.521H31.625C31.625 109.521 34.2499 89.0062 34.7979 82.748C35.387 75.9665 36.5899 61.0308 36.5899 61.0308L43.5248 61.0417Z" fill="#FAFAFA"/>
<path d="M35.8472 108.162C35.8636 108.162 35.5211 109.578 35.5211 109.578H31.3755L31.4029 108.315L35.8472 108.162Z" fill="#4381CA"/>
<path opacity="0.1" d="M35.8472 108.162C35.8636 108.162 35.5211 109.578 35.5211 109.578H31.3755L31.4029 108.315L35.8472 108.162Z" fill="#FAFAFA"/>
<path d="M42.2943 66.5218C39.6721 67.0397 40.3324 76.8899 40.8448 81.9562C41.4695 78.375 42.3189 71.4839 42.8916 66.593C42.7062 66.5027 42.4957 66.4776 42.2943 66.5218Z" fill="#4381CA"/>
<path opacity="0.4" d="M42.2943 66.5218C39.6721 67.0397 40.3324 76.8899 40.8448 81.9562C41.4695 78.375 42.3189 71.4839 42.8916 66.593C42.7062 66.5027 42.4957 66.4776 42.2943 66.5218Z" fill="#FAFAFA"/>
<path d="M47.344 61.0417C47.344 61.0417 48.2044 76.0898 48.2208 82.2302C48.24 88.6144 46.8179 109.521 46.8179 109.521H43.4066C43.4066 109.521 42.4887 88.987 42.0942 82.7179C41.6667 75.8816 40.2666 61.0417 40.2666 61.0417H47.344Z" fill="#4381CA"/>
<path opacity="0.6" d="M47.344 61.0417C47.344 61.0417 48.2044 76.0898 48.2208 82.2302C48.24 88.6144 46.8179 109.521 46.8179 109.521H43.4066C43.4066 109.521 42.4887 88.987 42.0942 82.7179C41.6667 75.8816 40.2666 61.0417 40.2666 61.0417H47.344Z" fill="#FAFAFA"/>
<path d="M48.1688 59.1074L47.2126 59.1841C47.1347 59.1907 47.0592 59.2145 46.9917 59.2539C46.9241 59.2932 46.8662 59.3471 46.8221 59.4117C46.778 59.4762 46.7489 59.5498 46.7368 59.6271C46.7247 59.7043 46.73 59.7832 46.7522 59.8582L47.1468 61.1871C47.1801 61.2951 47.239 61.3934 47.3185 61.4737C47.398 61.554 47.4957 61.614 47.6033 61.6484C47.7109 61.6828 47.8253 61.6908 47.9366 61.6715C48.048 61.6523 48.153 61.6064 48.2428 61.5378C48.7368 61.0781 49.091 60.4883 49.2648 59.8363L48.1688 59.1074Z" fill="#E4897B"/>
<path d="M46.0099 107.071C46.0007 107.07 45.9923 107.065 45.9863 107.058C45.9802 107.051 45.977 107.042 45.9771 107.033C46.3552 101.249 47.232 87.25 47.2155 82.2303C47.2155 77.0928 46.5908 65.6012 46.3935 62.2009C46.3932 62.1964 46.3937 62.1918 46.3952 62.1875C46.3967 62.1832 46.399 62.1792 46.4021 62.1759C46.4052 62.1725 46.409 62.1698 46.4132 62.168C46.4173 62.1662 46.4219 62.1653 46.4264 62.1653C46.4354 62.1653 46.4441 62.1686 46.4507 62.1747C46.4573 62.1808 46.4613 62.1892 46.462 62.1982C46.6484 65.5985 47.2594 77.0901 47.284 82.2303C47.3005 87.2527 46.4237 101.251 46.0456 107.038C46.0456 107.043 46.0446 107.047 46.0428 107.052C46.041 107.056 46.0383 107.059 46.035 107.063C46.0316 107.066 46.0277 107.068 46.0234 107.069C46.019 107.071 46.0145 107.072 46.0099 107.071Z" fill="#4381CA"/>
<path opacity="0.3" d="M46.0099 107.071C46.0007 107.07 45.9923 107.065 45.9863 107.058C45.9802 107.051 45.977 107.042 45.9771 107.033C46.3552 101.249 47.232 87.25 47.2155 82.2303C47.2155 77.0928 46.5908 65.6012 46.3935 62.2009C46.3932 62.1964 46.3937 62.1918 46.3952 62.1875C46.3967 62.1832 46.399 62.1792 46.4021 62.1759C46.4052 62.1725 46.409 62.1698 46.4132 62.168C46.4173 62.1662 46.4219 62.1653 46.4264 62.1653C46.4354 62.1653 46.4441 62.1686 46.4507 62.1747C46.4573 62.1808 46.4613 62.1892 46.462 62.1982C46.6484 65.5985 47.2594 77.0901 47.284 82.2303C47.3005 87.2527 46.4237 101.251 46.0456 107.038C46.0456 107.043 46.0446 107.047 46.0428 107.052C46.041 107.056 46.0383 107.059 46.035 107.063C46.0316 107.066 46.0277 107.068 46.0234 107.069C46.019 107.071 46.0145 107.072 46.0099 107.071Z" fill="#FAFAFA"/>
<path d="M47.4211 108.162C47.4376 108.162 47.2841 109.578 47.2841 109.578H43.1358L42.9741 108.315L47.4211 108.162Z" fill="#4381CA"/>
<path opacity="0.1" d="M47.4211 108.162C47.4376 108.162 47.2841 109.578 47.2841 109.578H43.1358L42.9741 108.315L47.4211 108.162Z" fill="#FAFAFA"/>
</svg>
