<svg width="500" height="500" viewBox="0 0 500 500" fill="none" xmlns="http://www.w3.org/2000/svg">
<g clip-path="url(#clip0_2063_5253)">
<path d="M73.1166 457.9C-24.3826 401.78 -24.3826 310.779 73.1166 254.649C170.616 198.518 328.902 198.529 426.709 254.649C524.516 310.769 524.485 401.769 426.709 457.9C328.933 514.03 170.616 514.03 73.1166 457.9Z" fill="#FAFAFA"/>
<path d="M474.704 218.865L472.388 220.282L393.695 173.764L396.012 172.347L474.704 218.865Z" fill="#FAFAFA"/>
<path d="M396.012 172.347L472.388 217.491V59.1106L396.012 13.9775V172.347Z" fill="white"/>
<path d="M389.32 176.345L476.755 228.026V56.5397L389.32 4.85864V176.345ZM393.686 12.6449L472.389 59.1107V220.282L393.697 173.764L393.686 12.6449Z" fill="#F0F0F0"/>
<path d="M393.695 173.764L396.012 172.347V13.9774L393.695 12.5923V173.764Z" fill="#E0E0E0"/>
<path d="M472.388 162.074V164.855L393.695 118.337L396.012 116.92L472.388 162.074Z" fill="#FAFAFA"/>
<path d="M472.388 106.615V109.396L393.695 62.8778L396.012 61.4612L472.388 106.615Z" fill="#FAFAFA"/>
<path d="M389.332 4.84805L391.679 3.47339L479.103 55.1545L476.756 56.5291L389.332 4.84805Z" fill="#FAFAFA"/>
<path d="M479.101 55.1544L476.754 56.5291V228.026L479.101 226.652V55.1544Z" fill="#E0E0E0"/>
<path d="M438.73 39.2147L436.383 37.8296V199.001L438.73 197.626V39.2147Z" fill="#E0E0E0"/>
<path d="M432.02 35.2585L436.386 37.8295V199.001L432.02 196.42V35.2585Z" fill="#F0F0F0"/>
<path d="M389.332 60.2964V65.4488L476.756 117.13V111.977L389.332 60.2964Z" fill="#F0F0F0"/>
<path d="M389.332 115.745V120.897L476.756 172.578V167.426L389.332 115.745Z" fill="#F0F0F0"/>
<path d="M436.383 88.1149L438.73 86.7192L472.388 106.615V109.396L436.383 88.1149Z" fill="#FAFAFA"/>
<path d="M436.383 143.542L438.73 142.147L472.388 162.042V164.823L436.383 143.542Z" fill="#FAFAFA"/>
<path d="M71.4965 427.08L12.2057 392.115C10.8221 391.297 10.8221 390.016 12.2057 389.166L158.613 302.29C159.387 301.889 160.242 301.68 161.109 301.68C161.976 301.68 162.831 301.889 163.605 302.29L222.854 337.254C224.228 338.073 224.228 339.353 222.854 340.214L76.4467 427.069C75.68 427.468 74.8326 427.676 73.9728 427.678C73.113 427.68 72.2648 427.475 71.4965 427.08Z" fill="#E6E6E6"/>
<path d="M386.943 452.705C424.534 452.705 455.007 434.692 455.007 412.473C455.007 390.253 424.534 372.24 386.943 372.24C349.352 372.24 318.879 390.253 318.879 412.473C318.879 434.692 349.352 452.705 386.943 452.705Z" fill="#E6E6E6"/>
<path d="M258.027 357.56L101.36 450.113C99.5257 451.163 99.5257 452.947 101.36 454.027L125.876 468.488C126.906 469.021 128.043 469.298 129.197 469.298C130.35 469.298 131.488 469.021 132.517 468.488L289.184 375.934C291.009 374.884 291.009 373.09 289.184 372.009L264.658 357.56C263.632 357.022 262.496 356.741 261.343 356.741C260.19 356.741 259.054 357.022 258.027 357.56Z" fill="#E6E6E6"/>
<path d="M70.5836 463.933C88.7364 463.933 103.452 455.232 103.452 444.499C103.452 433.766 88.7364 425.065 70.5836 425.065C52.4307 425.065 37.7148 433.766 37.7148 444.499C37.7148 455.232 52.4307 463.933 70.5836 463.933Z" fill="#E6E6E6"/>
<path d="M241.18 313.833L301.731 278.018L381.018 324.84L320.466 360.645L241.18 313.833Z" fill="#E6E6E6"/>
<path d="M317.65 69.5097L315.887 70.58L279.852 49.278L281.604 48.1971L317.65 69.5097Z" fill="#FAFAFA"/>
<path d="M281.605 48.1971L315.889 68.4708V31.7012L281.605 11.4485V48.1971Z" fill="white"/>
<path d="M276.531 51.2403L319.198 76.425V29.7494L276.531 4.5647V51.2403ZM279.842 10.3991L315.888 31.7012V70.5801L279.842 49.278V10.3991Z" fill="#EBEBEB"/>
<path d="M279.852 49.278L281.604 48.1972V11.4485L279.852 10.3992V49.278Z" fill="#E0E0E0"/>
<path d="M276.531 4.52275L278.315 3.47339L320.992 28.7001L319.208 29.7389L276.531 4.52275Z" fill="#F5F5F5"/>
<path d="M320.99 28.7L319.207 29.7388V76.4564L320.99 75.4175V28.7Z" fill="#E0E0E0"/>
<path d="M282.945 47.1057L314.553 65.7844V56.4451L306.651 37.7559L301.722 42.4361L303.495 50.2643L292.579 26.3599L282.945 37.7559V47.1057Z" fill="#F0F0F0"/>
<path d="M302.02 28.7418C302.71 29.1986 303.282 29.8183 303.689 30.5488C304.095 31.2793 304.325 32.0991 304.357 32.9393C304.357 34.4608 303.332 35.038 302.02 34.3244C301.331 33.8677 300.759 33.248 300.352 32.5175C299.945 31.787 299.716 30.9671 299.684 30.127C299.684 28.5949 300.729 27.9758 302.02 28.7418Z" fill="#F0F0F0"/>
<path d="M317.724 139.072L315.961 140.153L279.926 118.84L281.678 117.77L317.724 139.072Z" fill="#FAFAFA"/>
<path d="M281.676 117.77L315.959 138.033V101.274L281.676 81.0212V117.77Z" fill="white"/>
<path d="M276.594 120.803L319.271 145.987V99.3116L276.594 74.127V120.803ZM279.914 79.9719L315.96 101.295V140.121L279.914 118.819V79.9719Z" fill="#EBEBEB"/>
<path d="M279.924 118.84L281.677 117.77V81.0213L279.914 79.9614L279.924 118.84Z" fill="#E0E0E0"/>
<path d="M276.605 74.085L278.389 73.0461L321.066 98.2623L319.283 99.3117L276.605 74.085Z" fill="#F5F5F5"/>
<path d="M321.065 98.2623L319.281 99.3117V146.029L321.065 144.98V98.2623Z" fill="#E0E0E0"/>
<path d="M283.008 116.668L314.626 135.357V126.018L306.714 107.329L301.794 111.998L303.567 119.827L292.652 95.9327L283.008 107.329V116.668Z" fill="#F0F0F0"/>
<path d="M302.102 98.3043C302.789 98.7643 303.359 99.3847 303.765 100.115C304.172 100.844 304.403 101.663 304.439 102.502C304.439 104.023 303.414 104.6 302.102 103.876C301.413 103.42 300.841 102.8 300.434 102.069C300.027 101.339 299.798 100.519 299.766 99.679C299.755 98.1469 300.801 97.5488 302.102 98.3043Z" fill="#F0F0F0"/>
<path d="M148.458 52.2476L116.44 33.3276L14.3086 93.6659V97.2653L46.3266 116.196L148.458 55.8469V52.2476Z" fill="#EBEBEB"/>
<path d="M46.3266 112.596L148.458 52.2476L116.44 33.3276L14.3086 93.6659L46.3266 112.596Z" fill="#FAFAFA"/>
<path d="M46.3266 112.597V116.196L14.3086 97.2653V93.666L46.3266 112.597Z" fill="#E6E6E6"/>
<path d="M118.152 0.493164L138.907 12.7707V53.2131L118.152 40.9356V0.493164Z" fill="#E0E0E0"/>
<path d="M138.24 13.4423L118.142 1.60547C116.912 2.95542 115.292 3.86729 113.52 4.20789L133.444 15.9712C135.144 15.3476 136.757 14.4973 138.24 13.4423Z" fill="white"/>
<path d="M131.536 15.8978C132.134 16.2085 132.796 16.3704 133.467 16.3704C134.139 16.3704 134.801 16.2085 135.399 15.8978L138.782 13.904C139.013 13.8239 139.214 13.6715 139.357 13.4682C139.499 13.2649 139.576 13.021 139.576 12.7707C139.576 12.5205 139.499 12.2766 139.357 12.0733C139.214 11.87 139.013 11.7175 138.782 11.6374L118.98 0L118.14 0.493201L137.613 12.0362C138.249 12.4035 138.249 13.0121 137.613 13.3899L134.477 15.2472C134.118 15.4335 133.721 15.5305 133.319 15.5305C132.916 15.5305 132.52 15.4335 132.161 15.2472L112.688 3.70425L111.734 4.26041L131.536 15.8978Z" fill="#FAFAFA"/>
<path d="M111.734 4.2605V44.7029L131.536 56.3298C132.134 56.6405 132.796 56.8024 133.467 56.8024C134.139 56.8024 134.801 56.6405 135.399 56.3298L138.782 54.3465C139.001 54.2472 139.191 54.0899 139.331 53.8907C139.472 53.6916 139.558 53.4578 139.581 53.2132V12.7708C139.558 13.0153 139.472 13.2492 139.331 13.4483C139.191 13.6475 139.001 13.8048 138.782 13.9041L135.399 15.8979C134.801 16.2086 134.139 16.3705 133.467 16.3705C132.796 16.3705 132.134 16.2086 131.536 15.8979L111.734 4.2605Z" fill="#E0E0E0"/>
<path d="M133.473 16.3701C134.144 16.3835 134.807 16.2209 135.399 15.8979L138.782 13.9041C139.001 13.8047 139.191 13.6474 139.331 13.4482C139.472 13.2491 139.558 13.0153 139.581 12.7708V53.2132C139.558 53.4577 139.472 53.6915 139.331 53.8907C139.191 54.0898 139.001 54.2471 138.782 54.3465L135.399 56.3298C134.807 56.6528 134.144 56.8154 133.473 56.802V16.3701Z" fill="#F0F0F0"/>
<path d="M109.656 5.47778L130.421 17.7658V58.1977L109.656 45.9202V5.47778Z" fill="#EBEBEB"/>
<path d="M129.745 18.3954L109.657 6.59009C108.425 7.9217 106.815 8.82141 105.055 9.16103L124.979 20.9139C126.671 20.2992 128.275 19.452 129.745 18.3954Z" fill="white"/>
<path d="M123.051 20.8822C123.65 21.1929 124.312 21.3548 124.983 21.3548C125.654 21.3548 126.316 21.1929 126.915 20.8822L130.297 18.8989C130.529 18.8188 130.73 18.6664 130.872 18.4631C131.015 18.2598 131.092 18.0158 131.092 17.7656C131.092 17.5154 131.015 17.2714 130.872 17.0681C130.73 16.8648 130.529 16.7124 130.297 16.6323L110.496 4.99487L109.656 5.48807L129.129 17.0311C129.775 17.4088 129.764 18.0175 129.129 18.3952L125.982 20.2211C125.623 20.4074 125.227 20.5044 124.824 20.5044C124.422 20.5044 124.025 20.4074 123.666 20.2211L104.193 8.67813L103.25 9.24479L123.051 20.8822Z" fill="#FAFAFA"/>
<path d="M103.27 9.24487V49.6873L123.05 61.3247C123.649 61.6354 124.311 61.7973 124.982 61.7973C125.653 61.7973 126.315 61.6354 126.914 61.3247L130.296 59.3414C130.516 59.2421 130.705 59.0847 130.846 58.8856C130.986 58.6864 131.073 58.4526 131.096 58.2081V17.7657C131.073 18.0102 130.986 18.244 130.846 18.4432C130.705 18.6423 130.516 18.7996 130.296 18.899L126.914 20.8928C126.314 21.1979 125.652 21.3567 124.982 21.3567C124.312 21.3567 123.651 21.1979 123.05 20.8928L103.27 9.24487Z" fill="#E0E0E0"/>
<path d="M124.977 21.3544C125.649 21.3657 126.315 21.2071 126.914 20.8927L130.296 18.8989C130.515 18.7996 130.705 18.6423 130.845 18.4431C130.986 18.244 131.072 18.0101 131.095 17.7656V58.208C131.072 58.4526 130.986 58.6864 130.845 58.8855C130.705 59.0847 130.515 59.242 130.296 59.3413L126.914 61.3246C126.318 61.6486 125.651 61.8111 124.977 61.7969V21.3544Z" fill="#F0F0F0"/>
<path d="M95.4818 16.2231L116.246 28.5112L109.789 70.1708L89.0352 57.8933L95.4818 16.2231Z" fill="#EBEBEB"/>
<path d="M115.414 29.0883L95.3158 17.283C93.7453 18.4797 91.8914 19.2259 89.9453 19.4446L109.869 31.208C111.789 30.7133 113.648 30.0024 115.414 29.0883Z" fill="white"/>
<path d="M107.811 30.9877C108.461 31.3025 109.166 31.4813 109.884 31.5138C110.602 31.5462 111.319 31.4316 111.993 31.1766L115.949 29.5186C117.189 29.0044 117.333 28.0705 116.267 27.4199L96.4555 15.8245L95.4818 16.2337L114.955 27.7767C115.59 28.1545 115.508 28.7106 114.76 29.0254L111.091 30.5365C110.686 30.6907 110.256 30.76 109.824 30.7402C109.393 30.7204 108.97 30.6118 108.58 30.4211L89.1069 18.8781L88 19.3398L107.811 30.9877Z" fill="#FAFAFA"/>
<path d="M87.9974 19.3608L81.5508 61.0205L101.362 72.6684C102.012 72.9832 102.716 73.162 103.434 73.1945C104.152 73.2269 104.87 73.1123 105.544 72.8573L109.5 71.2098C110.115 70.9475 110.463 70.5802 110.525 70.1605L116.972 28.5008C116.91 28.8786 116.562 29.2353 115.947 29.4977L111.99 31.1557C111.316 31.4106 110.599 31.5253 109.881 31.4928C109.163 31.4604 108.459 31.2815 107.809 30.9668L87.9974 19.3608Z" fill="#E0E0E0"/>
<path d="M109.829 31.5334C110.565 31.5767 111.302 31.4623 111.992 31.1976L115.948 29.5396C116.563 29.2773 116.912 28.9205 116.973 28.5427L110.526 70.2024C110.465 70.5802 110.116 70.9474 109.501 71.2518L105.545 72.8993C104.855 73.164 104.119 73.2783 103.383 73.2351L109.829 31.5334Z" fill="#F0F0F0"/>
<path d="M60.9844 91.9137L62.45 92.6378L89.692 76.5301L88.2264 75.806L60.9844 91.9137Z" fill="#FAFAFA"/>
<path d="M88.2242 75.806L62.3044 91.1267L58.543 51.4398L84.4526 36.1296L88.2242 75.806Z" fill="white"/>
<path d="M88.0091 31.0508L55.7656 50.1177L60.224 96.9297L92.4572 77.8628L88.0091 31.0508ZM89.69 76.5406L62.448 92.6378L58.5329 51.4399L85.7748 35.3427L89.69 76.5406Z" fill="#F0F0F0"/>
<path d="M89.6904 76.53L88.2248 75.8059L84.4531 36.1295L85.7753 35.332L89.6904 76.53Z" fill="#E0E0E0"/>
<path d="M88.0211 31.0507L86.5248 30.3477L54.2812 49.4146L55.7674 50.1176L88.0211 31.0507Z" fill="#FAFAFA"/>
<path d="M54.2812 49.4146L55.7674 50.1176L60.2155 96.9192L58.7293 96.2161L54.2812 49.4146Z" fill="#E0E0E0"/>
<path d="M87.0885 75.0505L63.1979 89.1749L62.5625 82.4905L67.0003 62.8464L71.2332 69.5518L70.362 75.1974L77.4236 54.3571L86.4428 68.366L87.0885 75.0505Z" fill="#F0F0F0"/>
<path d="M66.6305 54.588C66.1332 54.9075 65.726 55.3543 65.4492 55.8844C65.1724 56.4144 65.0355 57.0093 65.0521 57.6101C65.1546 58.6595 66.077 59.1212 67.0097 58.5441C67.507 58.2246 67.9142 57.7777 68.191 57.2477C68.4678 56.7176 68.6047 56.1227 68.5881 55.5219C68.4753 54.4306 67.6041 54.0108 66.6305 54.588Z" fill="#F0F0F0"/>
<path opacity="0.05" d="M47.5564 89.1643C51.9737 91.7667 51.9737 96.0061 47.5564 98.6085C45.0759 99.8972 42.3335 100.569 39.5519 100.569C36.7703 100.569 34.0279 99.8972 31.5474 98.6085C27.13 95.9956 27.13 91.7667 31.5474 89.1643C34.0274 87.8739 36.77 87.2014 39.5519 87.2014C42.3338 87.2014 45.0763 87.8739 47.5564 89.1643Z" fill="black"/>
<path d="M32.3571 95.7543C28.5137 91.7248 26.2077 81.6824 29.9998 78.5028H49.1041C52.8552 81.6509 50.6004 91.7248 46.757 95.7438L46.6443 95.8593L46.5111 95.9852C46.4058 96.1015 46.2928 96.2102 46.1729 96.3105L46.0806 96.3839L45.7834 96.6043C45.6194 96.7197 45.4554 96.8352 45.2914 96.9296C43.5138 97.8508 41.5494 98.3307 39.5571 98.3307C37.5648 98.3307 35.6004 97.8508 33.8227 96.9296C33.6493 96.8312 33.4817 96.7226 33.3205 96.6043L33.0541 96.3944L32.9413 96.3C32.8217 96.2068 32.7087 96.1051 32.6031 95.9957L32.4494 95.8383L32.3571 95.7543Z" fill="#F5F5F5"/>
<path d="M47.445 76.9707C51.8111 79.5417 51.8111 83.7181 47.445 86.2995C44.9986 87.5674 42.2951 88.228 39.5532 88.228C36.8113 88.228 34.1078 87.5674 31.6614 86.2995C27.3056 83.7181 27.3056 79.5417 31.6614 76.9707C34.1066 75.6988 36.8105 75.0359 39.5532 75.0359C42.2958 75.0359 44.9998 75.6988 47.445 76.9707Z" fill="white"/>
<path d="M44.3599 78.7966C47.0041 80.3601 47.0041 82.8996 44.3599 84.4736C42.8712 85.2445 41.2264 85.6462 39.5582 85.6462C37.89 85.6462 36.2451 85.2445 34.7565 84.4736C32.102 82.8996 32.102 80.3601 34.7565 78.7966C36.2437 78.0208 37.8891 77.6163 39.5582 77.6163C41.2273 77.6163 42.8727 78.0208 44.3599 78.7966Z" fill="#EBEBEB"/>
<path d="M34.7566 81.4935C36.2438 80.7177 37.8892 80.3132 39.5583 80.3132C41.2273 80.3132 42.8727 80.7177 44.3599 81.4935C45.0035 81.8454 45.5499 82.3579 45.9485 82.9836C45.5508 83.6181 45.0048 84.1411 44.3599 84.5051C42.8713 85.2761 41.2265 85.6777 39.5583 85.6777C37.89 85.6777 36.2452 85.2761 34.7566 84.5051C34.1153 84.1499 33.5696 83.6381 33.168 83.015C33.5626 82.3779 34.1093 81.8542 34.7566 81.4935Z" fill="#E0E0E0"/>
<path d="M43.8261 82.9835C45.1675 81.5533 46.3185 79.9479 47.2492 78.209C48.8481 75.3022 49.1453 71.4196 48.2742 70.9369C47.403 70.4542 44.072 74.3368 44.072 74.3368C44.3779 72.7056 44.4949 71.0431 44.4205 69.3838C44.2873 66.7919 43.6723 64.4413 42.9446 63.9691C42.217 63.4969 40.6079 66.7604 39.8699 69.1215C39.132 71.4825 38.763 73.4344 38.763 73.4344C38.4802 71.5894 38.0622 69.7689 37.5126 67.9882C36.6722 65.5327 35.9138 64.9765 35.3194 65.2179C34.7249 65.4592 34.2944 66.6135 34.1612 69.877C34.0977 71.4386 34.1456 73.0028 34.3047 74.5572C34.3047 74.5572 33.1158 73.2245 31.7937 71.9233C30.4715 70.6221 29.7439 70.2968 29.3032 70.5696C28.8625 70.8424 28.7805 73.0566 31.025 77.2225C32.1393 79.3438 33.571 81.2735 35.2681 82.9416C35.2681 82.9416 38.4556 85.0298 43.8261 82.9835Z" fill="#EBEBEB"/>
<path d="M83.9895 393.259L78.906 419.105L73.9557 422.032L69.0566 419.136L63.9219 393.259L73.9557 387.33L83.9895 393.259Z" fill="#E0E0E0"/>
<path opacity="0.05" d="M83.9895 393.259L78.906 419.105L73.9557 422.032L69.0566 419.136L63.9219 393.259L73.9557 387.33L83.9895 393.259Z" fill="black"/>
<path d="M73.957 422.032V399.188L83.9908 393.259L78.9073 419.105L73.957 422.032Z" fill="#EBEBEB"/>
<path opacity="0.05" d="M83.9895 393.259L80.7098 409.954L73.9557 413.942L67.2426 409.965L63.9219 393.259L73.9557 387.33L83.9895 393.259Z" fill="black"/>
<path d="M39.8684 367.172L34.7849 393.018L29.8346 395.945L24.9356 393.049L19.8008 367.172L29.8346 361.243L39.8684 367.172Z" fill="#E0E0E0"/>
<path opacity="0.05" d="M39.8684 367.172L34.7849 393.018L29.8346 395.945L24.9356 393.049L19.8008 367.172L29.8346 361.243L39.8684 367.172Z" fill="black"/>
<path d="M29.832 395.945V373.111L39.8659 367.172L34.7823 393.018L29.832 395.945Z" fill="#EBEBEB"/>
<path opacity="0.05" d="M39.8684 367.172L36.5785 383.867L29.8346 387.855L23.1112 383.888L19.8008 367.172L29.8346 361.243L39.8684 367.172Z" fill="black"/>
<path opacity="0.05" d="M214.521 316.099L209.427 341.945L204.487 344.873L199.578 341.966L194.453 316.099L204.487 310.17L214.521 316.099Z" fill="black"/>
<path d="M204.488 344.873V322.028L214.522 316.099L209.428 341.945L204.488 344.873Z" fill="#EBEBEB"/>
<path opacity="0.05" d="M214.521 316.099L211.231 332.795L204.487 336.782L197.764 332.805L194.453 316.099L204.487 310.17L214.521 316.099Z" fill="black"/>
<path d="M73.956 409.765L19.2773 377.445V256.265L73.956 288.585V409.765Z" fill="#E0E0E0"/>
<path d="M73.957 288.585L217.362 203.818V324.998L73.957 409.765V288.585Z" fill="#EBEBEB"/>
<path d="M217.361 203.818L73.956 288.585L19.2773 256.265L162.682 171.497L217.361 203.818Z" fill="#F5F5F5"/>
<path d="M81.7656 348.619L209.551 273.086V317.558L210.986 318.408L83.2005 393.941L81.7656 393.091V348.619Z" fill="#E0E0E0"/>
<path d="M83.2095 349.469L210.984 273.936V318.408L83.1992 393.941L83.2095 349.469Z" fill="#F5F5F5"/>
<path d="M144.634 321.566L155.262 315.27C156.645 314.452 157.763 314.83 157.763 316.099C157.662 316.886 157.383 317.638 156.949 318.296C156.515 318.953 155.937 319.498 155.262 319.887L144.634 326.184C143.25 326.992 142.133 326.624 142.133 325.344C142.234 324.559 142.513 323.809 142.947 323.153C143.382 322.497 143.959 321.954 144.634 321.566Z" fill="#E0E0E0"/>
<path d="M81.7656 294.923L209.551 219.38V263.862L210.986 264.712L83.2005 340.245L81.7656 339.395V294.923Z" fill="#E0E0E0"/>
<path d="M83.1992 295.773L210.984 220.24V264.712L83.1992 340.245V295.773Z" fill="#F5F5F5"/>
<path d="M144.634 267.86L155.262 261.564C156.635 260.745 157.763 261.113 157.763 262.393C157.659 263.179 157.38 263.93 156.946 264.587C156.512 265.245 155.936 265.79 155.262 266.181L144.634 272.477C143.25 273.296 142.133 272.929 142.133 271.648C142.235 270.862 142.514 270.111 142.948 269.453C143.382 268.796 143.959 268.251 144.634 267.86Z" fill="#E0E0E0"/>
<path d="M158.614 207.459C165.245 211.373 165.245 217.732 158.614 221.646C151.983 225.56 141.19 225.571 134.61 221.646C128.031 217.722 127.979 211.373 134.61 207.459C141.242 203.545 151.942 203.534 158.614 207.459Z" fill="#E0E0E0"/>
<path d="M136.064 215.424C130.294 209.4 126.902 194.342 132.529 189.557H161.226C166.853 194.331 163.46 209.39 157.69 215.424L157.536 215.591L157.341 215.791L156.819 216.263L156.675 216.378L156.245 216.714C156.006 216.892 155.756 217.054 155.497 217.197C150.751 220.009 143.044 220.009 138.299 217.197C138.041 217.046 137.791 216.882 137.551 216.704C137.407 216.609 137.274 216.494 137.141 216.389L136.966 216.253L136.464 215.801L136.239 215.57L136.064 215.424Z" fill="#EBEBEB"/>
<path d="M158.611 187.626C165.15 191.488 165.15 197.752 158.611 201.624C152.072 205.497 141.474 205.486 134.935 201.624C128.397 197.763 128.397 191.488 134.935 187.626C141.474 183.764 152.103 183.764 158.611 187.626Z" fill="#FAFAFA"/>
<path d="M154.01 190.365C157.986 192.715 157.986 196.535 154.01 198.886C151.777 200.044 149.308 200.648 146.805 200.648C144.301 200.648 141.833 200.044 139.6 198.886C135.623 196.535 135.623 192.715 139.6 190.365C141.833 189.206 144.301 188.602 146.805 188.602C149.308 188.602 151.777 189.206 154.01 190.365Z" fill="#F5F5F5"/>
<path d="M139.6 194.405C141.834 193.246 144.302 192.642 146.806 192.642C149.309 192.642 151.777 193.246 154.011 194.405C154.967 194.944 155.782 195.71 156.388 196.64C155.786 197.576 154.97 198.346 154.011 198.886C151.777 200.044 149.309 200.648 146.806 200.648C144.302 200.648 141.834 200.044 139.6 198.886C138.641 198.346 137.825 197.576 137.223 196.64C137.829 195.71 138.644 194.944 139.6 194.405Z" fill="#EBEBEB"/>
<path d="M153.13 196.64C155.168 194.529 156.919 192.146 158.336 189.557C160.745 185.202 161.185 179.367 159.945 178.643C158.705 177.919 153.642 183.743 153.642 183.743C154.101 181.296 154.28 178.803 154.175 176.314C153.96 172.431 153.037 168.905 151.951 168.192C150.865 167.478 148.436 172.389 147.401 175.926C146.365 179.462 145.73 182.379 145.73 182.379C145.313 179.616 144.69 176.89 143.865 174.226C142.604 170.542 141.456 169.713 140.575 170.028C139.693 170.343 139.099 172.127 138.843 177.017C138.747 179.359 138.815 181.705 139.048 184.037C139.048 184.037 137.264 182.022 135.286 180.081C133.113 177.982 132.211 177.636 131.555 178.045C130.9 178.455 130.766 181.791 134.128 188.025C135.805 191.202 137.952 194.094 140.493 196.598C140.493 196.598 145.156 199.725 153.13 196.64Z" fill="#E0E0E0"/>
<path d="M52.125 258.804L54.2568 259.854L93.6952 236.537L91.5633 235.487L52.125 258.804Z" fill="#FAFAFA"/>
<path d="M91.5641 235.487L54.0526 257.66L48.5898 200.197L86.1116 178.045L91.5641 235.487Z" fill="white"/>
<path d="M91.265 170.689L44.5703 198.288L50.9965 266.045L97.6911 238.447L91.265 170.689ZM93.694 236.537L54.2557 259.854L48.5879 200.208L88.0263 176.849L93.694 236.537Z" fill="#F0F0F0"/>
<path d="M93.6937 236.537L91.5619 235.487L86.1094 178.045L88.026 176.891L93.6937 236.537Z" fill="#E0E0E0"/>
<path d="M91.2752 170.689L89.1126 169.661L42.418 197.27L44.5805 198.287L91.2752 170.689Z" fill="#FAFAFA"/>
<path d="M42.418 197.27L44.5805 198.288L51.0169 266.055L48.8544 265.027L42.418 197.27Z" fill="#E0E0E0"/>
<path d="M89.9129 234.396L55.3326 254.838L54.4102 245.163L60.8466 216.725L66.9755 226.431L65.7046 234.606L75.9332 204.437L89.0007 224.71L89.9129 234.396Z" fill="#F0F0F0"/>
<path d="M60.303 204.752C59.5834 205.215 58.9942 205.862 58.5934 206.629C58.1926 207.396 57.9941 208.258 58.0175 209.127C58.1712 210.712 59.4421 211.321 60.8462 210.481C61.5687 210.021 62.1602 209.375 62.5614 208.607C62.9626 207.839 63.1593 206.976 63.1318 206.105C62.9883 204.531 61.7174 203.923 60.303 204.752Z" fill="#F0F0F0"/>
<path d="M320.469 354.579V316.068L369.326 287.189V325.701L320.469 354.579Z" fill="#F0F0F0"/>
<path d="M320.469 316.068L252.887 276.171V314.683L320.469 354.579V316.068Z" fill="#E6E6E6"/>
<path d="M252.453 275.311L301.731 246.17L369.743 286.319L320.466 315.47L252.453 275.311Z" fill="#FAFAFA"/>
<path d="M301.734 246.779L368.721 286.329L320.469 314.861L253.491 275.311L301.744 246.779M301.744 245.561L251.441 275.311L320.469 316.078L370.771 286.329L301.744 245.561Z" fill="#EBEBEB"/>
<path d="M320.469 316.068V325.701L370.771 295.962V286.318L320.469 316.068Z" fill="#F0F0F0"/>
<path d="M251.43 275.311L320.467 316.068V325.701L251.43 284.944V275.311Z" fill="#E6E6E6"/>
<path opacity="0.1" d="M320.457 325.701V327.8L369.314 298.911V296.812L320.457 325.701ZM252.875 287.924L320.457 327.8V325.701L252.875 285.825V287.924Z" fill="black"/>
<path d="M336.536 321.923L353.232 312.059C353.949 311.64 354.533 311.975 354.533 312.825V322.931C354.51 323.393 354.379 323.844 354.153 324.245C353.927 324.646 353.611 324.987 353.232 325.239L336.536 335.103C335.819 335.534 335.234 335.187 335.234 334.337V324.232C335.26 323.77 335.391 323.32 335.617 322.919C335.843 322.518 336.158 322.177 336.536 321.923Z" fill="#E0E0E0"/>
<path opacity="0.1" d="M336.536 321.923L353.232 312.059C353.949 311.64 354.533 311.975 354.533 312.825V322.931C354.51 323.393 354.379 323.844 354.153 324.245C353.927 324.646 353.611 324.987 353.232 325.239L336.536 335.103C335.819 335.534 335.234 335.187 335.234 334.337V324.232C335.26 323.77 335.391 323.32 335.617 322.919C335.843 322.518 336.158 322.177 336.536 321.923Z" fill="black"/>
<path d="M337.613 323.067L352.157 314.473C352.638 314.19 353.028 314.473 353.028 314.987V322.553C353.013 322.862 352.926 323.164 352.774 323.432C352.623 323.7 352.411 323.928 352.157 324.096L337.613 332.7C337.132 332.984 336.742 332.753 336.742 332.186V324.61C336.758 324.3 336.845 323.999 336.997 323.731C337.148 323.463 337.36 323.236 337.613 323.067Z" fill="#F5F5F5"/>
<g opacity="0.2">
<path d="M337.971 325.071C337.935 325.071 337.898 325.061 337.866 325.042C337.834 325.024 337.807 324.998 337.787 324.967C337.761 324.916 337.755 324.858 337.77 324.803C337.785 324.748 337.821 324.701 337.869 324.673L351.603 316.551C351.627 316.535 351.654 316.525 351.682 316.521C351.71 316.516 351.738 316.517 351.766 316.524C351.794 316.531 351.82 316.543 351.843 316.56C351.866 316.578 351.885 316.599 351.9 316.624C351.926 316.674 351.932 316.733 351.917 316.788C351.901 316.843 351.866 316.889 351.818 316.918L338.084 325.04C338.05 325.06 338.011 325.071 337.971 325.071Z" fill="black"/>
<path d="M337.971 326.908C337.934 326.909 337.897 326.9 337.865 326.882C337.832 326.863 337.805 326.836 337.787 326.803C337.761 326.753 337.755 326.694 337.77 326.639C337.785 326.584 337.821 326.538 337.869 326.509L351.603 318.387C351.652 318.359 351.71 318.351 351.765 318.364C351.82 318.378 351.868 318.412 351.9 318.461C351.926 318.512 351.933 318.573 351.917 318.629C351.902 318.686 351.867 318.734 351.818 318.765L338.125 326.908C338.075 326.925 338.021 326.925 337.971 326.908Z" fill="black"/>
<path d="M337.973 328.797C337.926 328.795 337.882 328.778 337.846 328.748C337.81 328.718 337.784 328.677 337.772 328.631C337.761 328.585 337.764 328.537 337.782 328.493C337.799 328.449 337.83 328.412 337.87 328.387L351.604 320.265C351.629 320.251 351.656 320.241 351.685 320.237C351.713 320.233 351.742 320.235 351.77 320.243C351.798 320.251 351.823 320.264 351.846 320.283C351.869 320.301 351.887 320.324 351.901 320.349C351.927 320.4 351.933 320.458 351.918 320.513C351.903 320.568 351.867 320.615 351.819 320.643L338.085 328.765C338.051 328.785 338.012 328.796 337.973 328.797Z" fill="black"/>
<path d="M337.971 330.654C337.933 330.653 337.896 330.642 337.864 330.622C337.831 330.602 337.805 330.573 337.787 330.539C337.761 330.488 337.755 330.43 337.77 330.375C337.785 330.32 337.821 330.273 337.869 330.245L351.603 322.123C351.653 322.096 351.712 322.089 351.767 322.105C351.823 322.12 351.87 322.157 351.9 322.207C351.926 322.257 351.932 322.316 351.917 322.371C351.901 322.425 351.866 322.472 351.818 322.501L338.084 330.623C338.05 330.643 338.011 330.653 337.971 330.654Z" fill="black"/>
</g>
<path opacity="0.1" d="M255.449 272.939L323.277 312.993L369.572 285.615L301.734 245.561L255.449 272.939Z" fill="black"/>
<path d="M323.688 309.95V271.439L372.545 242.56V281.072L323.688 309.95Z" fill="#F0F0F0"/>
<path d="M323.688 271.439L256.105 231.542V270.053L323.688 309.95V271.439Z" fill="#E6E6E6"/>
<path d="M255.684 230.681L304.961 201.541L372.963 241.689L323.686 270.84L255.684 230.681Z" fill="#FAFAFA"/>
<path d="M304.961 202.149L371.939 241.7L323.686 270.242L256.709 230.681L304.961 202.149ZM304.961 200.932L254.648 230.681L323.686 271.449L373.988 241.7L304.961 200.984V200.932Z" fill="#EBEBEB"/>
<path d="M323.688 271.439V281.072L373.99 251.333V241.689L323.688 271.439Z" fill="#F0F0F0"/>
<path d="M254.66 230.681L323.688 271.439V281.072L254.66 240.314V230.681Z" fill="#E6E6E6"/>
<path opacity="0.1" d="M323.688 281.072V283.17L372.545 254.281V252.183L323.688 281.072ZM256.105 243.295L323.688 283.17V281.072L256.105 241.196V243.295Z" fill="black"/>
<path d="M339.766 277.294L356.462 267.43C357.18 267.01 357.764 267.346 357.764 268.196V278.301C357.74 278.764 357.61 279.214 357.383 279.615C357.157 280.017 356.842 280.357 356.462 280.61L339.766 290.474C339.049 290.904 338.465 290.558 338.465 289.708V279.603C338.49 279.14 338.621 278.691 338.847 278.29C339.073 277.889 339.388 277.548 339.766 277.294Z" fill="#E0E0E0"/>
<path opacity="0.1" d="M339.766 277.294L356.462 267.43C357.18 267.01 357.764 267.346 357.764 268.196V278.301C357.74 278.764 357.61 279.214 357.383 279.615C357.157 280.017 356.842 280.357 356.462 280.61L339.766 290.474C339.049 290.904 338.465 290.558 338.465 289.708V279.603C338.49 279.14 338.621 278.691 338.847 278.29C339.073 277.889 339.388 277.548 339.766 277.294Z" fill="black"/>
<path d="M340.834 278.438L355.387 269.844C355.869 269.56 356.258 269.791 356.258 270.358V277.924C356.243 278.233 356.156 278.534 356.005 278.803C355.853 279.071 355.642 279.298 355.387 279.466L340.834 288.071C340.362 288.354 339.973 288.123 339.973 287.557V279.98C339.989 279.672 340.076 279.373 340.225 279.105C340.374 278.837 340.583 278.609 340.834 278.438Z" fill="#F5F5F5"/>
<g opacity="0.2">
<path d="M341.241 280.442C341.204 280.441 341.168 280.431 341.136 280.413C341.104 280.395 341.076 280.369 341.056 280.337C341.03 280.287 341.024 280.228 341.04 280.173C341.055 280.118 341.09 280.072 341.138 280.043L354.872 271.921C354.92 271.892 354.977 271.883 355.03 271.897C355.084 271.911 355.13 271.946 355.159 271.995C355.188 272.043 355.196 272.102 355.183 272.157C355.169 272.212 355.135 272.259 355.087 272.288L341.343 280.41C341.313 280.432 341.277 280.443 341.241 280.442Z" fill="black"/>
<path d="M341.241 282.299C341.204 282.301 341.167 282.292 341.134 282.273C341.102 282.255 341.075 282.227 341.056 282.194C341.03 282.144 341.024 282.085 341.04 282.031C341.055 281.976 341.09 281.929 341.138 281.901L354.872 273.779C354.92 273.751 354.976 273.743 355.03 273.757C355.083 273.77 355.129 273.805 355.159 273.852C355.174 273.877 355.184 273.904 355.188 273.933C355.193 273.962 355.192 273.991 355.185 274.019C355.178 274.048 355.166 274.074 355.15 274.098C355.133 274.121 355.112 274.141 355.087 274.156L341.343 282.278L341.241 282.299Z" fill="black"/>
<path d="M341.242 284.167C341.196 284.165 341.151 284.148 341.115 284.119C341.079 284.089 341.053 284.048 341.042 284.002C341.03 283.956 341.034 283.907 341.051 283.863C341.069 283.819 341.1 283.782 341.14 283.758L354.873 275.636C354.922 275.615 354.976 275.612 355.026 275.629C355.076 275.646 355.118 275.681 355.144 275.727C355.17 275.774 355.179 275.829 355.169 275.881C355.159 275.934 355.13 275.981 355.089 276.014L341.345 284.136C341.315 284.157 341.279 284.168 341.242 284.167Z" fill="black"/>
<path d="M341.241 285.983C341.203 285.982 341.166 285.971 341.133 285.95C341.101 285.93 341.074 285.901 341.056 285.867C341.03 285.817 341.024 285.758 341.04 285.703C341.055 285.649 341.09 285.602 341.138 285.573L354.872 277.451C354.921 277.425 354.979 277.418 355.032 277.434C355.086 277.45 355.131 277.486 355.159 277.535C355.174 277.559 355.184 277.586 355.188 277.614C355.192 277.642 355.191 277.67 355.184 277.698C355.178 277.725 355.166 277.751 355.149 277.774C355.132 277.796 355.111 277.815 355.087 277.829L341.343 285.983C341.31 285.993 341.274 285.993 341.241 285.983Z" fill="black"/>
</g>
<path d="M54.3726 450.04C45.7019 440.879 40.6081 403.511 49.0636 396.25H92.1096C100.565 403.511 95.4816 440.868 86.8109 450.029L86.5751 450.281L86.2779 450.585C86.0319 450.827 85.7757 451.068 85.499 451.31L85.2838 451.477C85.0788 451.645 84.8635 451.824 84.6278 451.992C84.2713 452.261 83.8982 452.506 83.5107 452.726C76.3363 456.997 64.8164 456.997 57.6831 452.726C57.3038 452.506 56.9349 452.254 56.5557 451.981C56.3404 451.824 56.1457 451.666 55.951 451.509L55.6947 451.299C55.4283 451.068 55.172 450.837 54.9363 450.596L54.5981 450.25C54.5177 450.186 54.4423 450.116 54.3726 450.04Z" fill="#37474F"/>
<path d="M88.3696 393.322C98.1882 399.188 98.1882 408.705 88.3696 414.582C78.551 420.458 62.6239 420.448 52.8054 414.582C42.9868 408.716 42.9868 399.188 52.8054 393.322C62.6239 387.456 78.551 387.456 88.3696 393.322Z" fill="#455A64"/>
<path d="M83.6436 396.166C90.8179 400.479 90.8179 407.467 83.6436 411.78C76.4693 416.093 64.7341 416.083 57.529 411.78C50.3239 407.478 50.3547 400.479 57.529 396.166C64.7033 391.853 76.4283 391.832 83.6436 396.166Z" fill="#263238"/>
<path d="M57.5282 403.511C64.7026 399.198 76.4275 399.198 83.6428 403.511C85.4022 404.518 86.8861 405.961 87.9577 407.709C86.8683 409.417 85.3868 410.825 83.6428 411.812C76.4685 416.114 64.7333 416.114 57.5282 411.812C55.7792 410.828 54.2938 409.419 53.2031 407.709C54.2762 405.959 55.764 404.515 57.5282 403.511Z" fill="#FAFAFA"/>
<path d="M67.6849 344.747C64.3949 348.409 55.222 349.416 51.4299 339.5C47.8735 330.224 44.0301 321.43 42.9334 318.03C42.7769 317.586 42.7097 317.115 42.736 316.644C42.7624 316.172 42.8816 315.712 43.0865 315.289C43.2915 314.866 43.5779 314.491 43.9286 314.184C44.2792 313.878 44.6868 313.648 45.1267 313.507C45.1267 313.507 45.3829 308.407 53.8179 311.86C62.2529 315.312 68.1666 320.559 71.8767 329.027C75.5869 337.496 73.3321 343.697 67.6849 344.747Z" fill="#4381CA"/>
<path opacity="0.45" d="M67.6849 344.747C64.3949 348.409 55.222 349.416 51.4299 339.5C47.8735 330.224 44.0301 321.43 42.9334 318.03C42.7769 317.586 42.7097 317.115 42.736 316.644C42.7624 316.172 42.8816 315.712 43.0865 315.289C43.2915 314.866 43.5779 314.491 43.9286 314.184C44.2792 313.878 44.6868 313.648 45.1267 313.507C45.1267 313.507 45.3829 308.407 53.8179 311.86C62.2529 315.312 68.1666 320.559 71.8767 329.027C75.5869 337.496 73.3321 343.697 67.6849 344.747Z" fill="white"/>
<path d="M71.3367 357.864C71.1919 356.13 70.9489 354.406 70.609 352.701C69.9164 349.319 68.9812 345.994 67.8111 342.753C65.4392 336.151 62.1496 329.935 58.0437 324.295C55.7654 321.08 53.1951 318.094 50.3672 315.375C50.2749 315.291 50.2134 315.491 50.2647 315.554C54.9932 320.649 59.0332 326.37 62.2766 332.564C65.4018 338.661 67.741 345.148 69.2357 351.862C69.6456 353.74 70.0453 355.629 70.3836 357.518C70.7218 359.407 70.9165 361.39 71.2342 363.321C71.2342 363.51 71.552 363.625 71.5725 363.321C71.6302 361.498 71.5514 359.674 71.3367 357.864Z" fill="#4381CA"/>
<path opacity="0.3" d="M71.3367 357.864C71.1919 356.13 70.9489 354.406 70.609 352.701C69.9164 349.319 68.9812 345.994 67.8111 342.753C65.4392 336.151 62.1496 329.935 58.0437 324.295C55.7654 321.08 53.1951 318.094 50.3672 315.375C50.2749 315.291 50.2134 315.491 50.2647 315.554C54.9932 320.649 59.0332 326.37 62.2766 332.564C65.4018 338.661 67.741 345.148 69.2357 351.862C69.6456 353.74 70.0453 355.629 70.3836 357.518C70.7218 359.407 70.9165 361.39 71.2342 363.321C71.2342 363.51 71.552 363.625 71.5725 363.321C71.6302 361.498 71.5514 359.674 71.3367 357.864Z" fill="black"/>
<path d="M74.152 342.228C66.578 344.621 60.9615 338.577 62.8781 329.08C64.7947 319.583 74.5723 309.069 78.2722 311.881C80.568 309.53 85.6207 310.38 88.0088 318.083C90.3968 325.785 88.224 345.586 74.152 342.228Z" fill="#4381CA"/>
<path opacity="0.25" d="M74.152 342.228C66.578 344.621 60.9615 338.577 62.8781 329.08C64.7947 319.583 74.5723 309.069 78.2722 311.881C80.568 309.53 85.6207 310.38 88.0088 318.083C90.3968 325.785 88.224 345.586 74.152 342.228Z" fill="white"/>
<path d="M78.6007 317.663C76.4402 323.187 74.7496 328.893 73.548 334.715C72.2538 340.602 71.2752 346.557 70.6167 352.554C69.3991 364.176 68.8925 375.864 69.0999 387.55C69.0999 390.782 69.1716 394.004 69.2331 397.236C69.2946 400.468 69.2331 403.92 69.5201 407.226C69.6226 408.496 71.3854 408.16 71.4059 406.995C71.5186 401.182 71.2112 395.347 71.1497 389.534C71.0882 383.72 71.1497 377.991 71.2522 372.293C71.4555 360.581 72.4831 348.899 74.3269 337.338C74.8701 334.127 75.4748 330.906 76.2025 327.737C76.9711 324.389 77.9243 321.094 78.775 317.778C78.8262 317.652 78.6725 317.463 78.6007 317.663Z" fill="#4381CA"/>
<path opacity="0.3" d="M78.6007 317.663C76.4402 323.187 74.7496 328.893 73.548 334.715C72.2538 340.602 71.2752 346.557 70.6167 352.554C69.3991 364.176 68.8925 375.864 69.0999 387.55C69.0999 390.782 69.1716 394.004 69.2331 397.236C69.2946 400.468 69.2331 403.92 69.5201 407.226C69.6226 408.496 71.3854 408.16 71.4059 406.995C71.5186 401.182 71.2112 395.347 71.1497 389.534C71.0882 383.72 71.1497 377.991 71.2522 372.293C71.4555 360.581 72.4831 348.899 74.3269 337.338C74.8701 334.127 75.4748 330.906 76.2025 327.737C76.9711 324.389 77.9243 321.094 78.775 317.778C78.8262 317.652 78.6725 317.463 78.6007 317.663Z" fill="black"/>
<path d="M61.8324 370.057C58.522 373.898 50.9377 373.552 45.8541 366.71C40.7706 359.868 37.7164 334.18 44.8292 335.775C46.3871 332.343 66.1677 340.549 68.6993 357.339C70.5441 369.585 61.8324 370.057 61.8324 370.057Z" fill="#4381CA"/>
<path opacity="0.25" d="M61.8324 370.057C58.522 373.898 50.9377 373.552 45.8541 366.71C40.7706 359.868 37.7164 334.18 44.8292 335.775C46.3871 332.343 66.1677 340.549 68.6993 357.339C70.5441 369.585 61.8324 370.057 61.8324 370.057Z" fill="white"/>
<path d="M67.749 382.22C67.5064 380.635 67.164 379.068 66.7241 377.529C65.894 374.381 64.9101 371.233 63.7827 368.221C61.4315 362.012 58.4714 356.063 54.948 350.466C53.045 347.309 50.9501 344.277 48.6756 341.389C48.6038 341.315 48.5526 341.494 48.5833 341.546C50.3564 344.18 52.1397 346.793 53.7078 349.542C55.3726 352.411 56.8948 355.363 58.2687 358.389C60.894 364.176 63.0734 370.165 64.7871 376.301C65.2688 378.043 65.6685 379.816 66.1707 381.548C66.6729 383.279 67.3596 385.126 67.8003 386.952C67.8618 387.214 68.1898 387.309 68.159 386.952C68.0053 385.368 67.954 383.794 67.749 382.22Z" fill="#4381CA"/>
<path opacity="0.3" d="M67.749 382.22C67.5064 380.635 67.164 379.068 66.7241 377.529C65.894 374.381 64.9101 371.233 63.7827 368.221C61.4315 362.012 58.4714 356.063 54.948 350.466C53.045 347.309 50.9501 344.277 48.6756 341.389C48.6038 341.315 48.5526 341.494 48.5833 341.546C50.3564 344.18 52.1397 346.793 53.7078 349.542C55.3726 352.411 56.8948 355.363 58.2687 358.389C60.894 364.176 63.0734 370.165 64.7871 376.301C65.2688 378.043 65.6685 379.816 66.1707 381.548C66.6729 383.279 67.3596 385.126 67.8003 386.952C67.8618 387.214 68.1898 387.309 68.159 386.952C68.0053 385.368 67.954 383.794 67.749 382.22Z" fill="black"/>
<path d="M73.9385 366.259C69.6134 365.209 69.3982 359.963 74.8097 353.394C80.2212 346.825 93.8525 344.012 94.4981 346.762C97.5729 346.762 97.5729 356.479 90.8187 365.409C84.0646 374.339 74.3485 372.261 73.9385 366.259Z" fill="#4381CA"/>
<path opacity="0.25" d="M73.9385 366.259C69.6134 365.209 69.3982 359.963 74.8097 353.394C80.2212 346.825 93.8525 344.012 94.4981 346.762C97.5729 346.762 97.5729 356.479 90.8187 365.409C84.0646 374.339 74.3485 372.261 73.9385 366.259Z" fill="white"/>
<path d="M82.4224 356.762C76.6965 360.843 72.3236 366.617 69.8878 373.31C69.7444 373.699 70.39 374.255 70.5438 373.835C72.9979 367.208 77.0996 361.352 82.4429 356.846C82.4429 356.846 82.4737 356.72 82.4224 356.762Z" fill="#4381CA"/>
<path opacity="0.3" d="M82.4224 356.762C76.6965 360.843 72.3236 366.617 69.8878 373.31C69.7444 373.699 70.39 374.255 70.5438 373.835C72.9979 367.208 77.0996 361.352 82.4429 356.846C82.4429 356.846 82.4737 356.72 82.4224 356.762Z" fill="black"/>
<path d="M78.8884 398.684C72.8927 401.161 75.4549 408.475 81.3174 414.026C86.3613 418.528 92.8715 420.928 99.5607 420.752C103.589 420.458 104.613 419.892 104.613 419.892C104.613 419.892 105.259 413.596 104.613 409.734C103.969 406.02 102.294 402.576 99.7872 399.812C97.2806 397.049 94.0493 395.083 90.48 394.151C81.1329 391.559 78.8884 395.022 78.8884 398.684Z" fill="#4381CA"/>
<path opacity="0.45" d="M78.8884 398.684C72.8927 401.161 75.4549 408.475 81.3174 414.026C86.3613 418.528 92.8715 420.928 99.5607 420.752C103.589 420.458 104.613 419.892 104.613 419.892C104.613 419.892 105.259 413.596 104.613 409.734C103.969 406.02 102.294 402.576 99.7872 399.812C97.2806 397.049 94.0493 395.083 90.48 394.151C81.1329 391.559 78.8884 395.022 78.8884 398.684Z" fill="white"/>
<path d="M95.4834 409.471C92.7922 406.176 89.6911 403.254 86.2593 400.783C82.8464 398.474 78.2958 396.512 74.2064 397.949C72.6178 398.506 70.1068 400.122 70.445 402.147C70.445 402.346 70.8242 402.84 71.06 402.567C71.6936 401.633 72.4182 400.769 73.2225 399.985C74.1634 399.275 75.2766 398.843 76.4407 398.737C79.37 398.525 82.2946 399.208 84.8449 400.699C88.9445 402.892 92.173 406.313 95.4015 409.587C95.4732 409.608 95.5142 409.503 95.4834 409.471Z" fill="#4381CA"/>
<path opacity="0.3" d="M95.4834 409.471C92.7922 406.176 89.6911 403.254 86.2593 400.783C82.8464 398.474 78.2958 396.512 74.2064 397.949C72.6178 398.506 70.1068 400.122 70.445 402.147C70.445 402.346 70.8242 402.84 71.06 402.567C71.6936 401.633 72.4182 400.769 73.2225 399.985C74.1634 399.275 75.2766 398.843 76.4407 398.737C79.37 398.525 82.2946 399.208 84.8449 400.699C88.9445 402.892 92.173 406.313 95.4015 409.587C95.4732 409.608 95.5142 409.503 95.4834 409.471Z" fill="black"/>
<path d="M56.0535 367.245C56.6275 364.454 52.6919 357.801 40.393 356.479C28.0941 355.157 18.87 360.529 17.0354 362.974C15.2008 365.419 14.2374 367.98 16.4717 368.609C18.706 369.239 26.3825 370.016 31.4251 372.398C36.4676 374.78 46.7167 381.789 53.7168 379.743C60.7169 377.697 59.5382 370.026 56.0535 367.245Z" fill="#4381CA"/>
<path opacity="0.45" d="M56.0535 367.245C56.6275 364.454 52.6919 357.801 40.393 356.479C28.0941 355.157 18.87 360.529 17.0354 362.974C15.2008 365.419 14.2374 367.98 16.4717 368.609C18.706 369.239 26.3825 370.016 31.4251 372.398C36.4676 374.78 46.7167 381.789 53.7168 379.743C60.7169 377.697 59.5382 370.026 56.0535 367.245Z" fill="white"/>
<path d="M65.3993 376.994C60.2236 366.028 46.8998 362.68 35.9333 362.743C32.3398 362.757 28.7622 363.233 25.2846 364.16C25.2333 364.16 25.2231 364.296 25.2846 364.286C31.1686 363.263 37.1735 363.2 43.0769 364.097C48.8779 365.063 54.5661 366.909 59.3421 370.519C61.6936 372.326 63.6692 374.595 65.1534 377.193C65.3481 377.466 65.5018 377.214 65.3993 376.994Z" fill="#4381CA"/>
<path opacity="0.3" d="M65.3993 376.994C60.2236 366.028 46.8998 362.68 35.9333 362.743C32.3398 362.757 28.7622 363.233 25.2846 364.16C25.2333 364.16 25.2231 364.296 25.2846 364.286C31.1686 363.263 37.1735 363.2 43.0769 364.097C48.8779 365.063 54.5661 366.909 59.3421 370.519C61.6936 372.326 63.6692 374.595 65.1534 377.193C65.3481 377.466 65.5018 377.214 65.3993 376.994Z" fill="black"/>
<path d="M84.6993 352.554C84.5353 356.961 90.5925 359.511 96.4447 355.702C102.297 351.893 108.436 348.189 113.868 346.751C119.3 345.314 121.862 340.791 120.151 338.598C118.439 336.404 115.713 330.874 101.456 332.679C87.2001 334.484 82.137 341.074 80.1795 345.712C78.2219 350.351 82.547 353.824 84.6993 352.554Z" fill="#4381CA"/>
<path opacity="0.45" d="M84.6993 352.554C84.5353 356.961 90.5925 359.511 96.4447 355.702C102.297 351.893 108.436 348.189 113.868 346.751C119.3 345.314 121.862 340.791 120.151 338.598C118.439 336.404 115.713 330.874 101.456 332.679C87.2001 334.484 82.137 341.074 80.1795 345.712C78.2219 350.351 82.547 353.824 84.6993 352.554Z" fill="white"/>
<path d="M107.914 338.587C105.841 338.377 103.749 338.602 101.764 339.248C99.9632 339.718 98.2096 340.361 96.5268 341.168C93.1668 342.764 90.1392 345.009 87.6101 347.779C86.8769 348.56 86.1922 349.387 85.5603 350.256C84.9377 351.031 84.4269 351.893 84.0435 352.816C83.941 353.1 84.3509 353.572 84.6072 353.278C85.3143 352.449 85.837 351.431 86.5032 350.55C87.2342 349.615 88.0215 348.729 88.8605 347.895C90.5083 346.192 92.3531 344.701 94.354 343.456C96.2789 342.239 98.3185 341.223 100.442 340.423C101.609 340.012 102.796 339.662 103.998 339.374C105.253 338.98 106.561 338.793 107.873 338.818C107.944 338.755 107.975 338.598 107.914 338.587Z" fill="#4381CA"/>
<path opacity="0.3" d="M107.914 338.587C105.841 338.377 103.749 338.602 101.764 339.248C99.9632 339.718 98.2096 340.361 96.5268 341.168C93.1668 342.764 90.1392 345.009 87.6101 347.779C86.8769 348.56 86.1922 349.387 85.5603 350.256C84.9377 351.031 84.4269 351.893 84.0435 352.816C83.941 353.1 84.3509 353.572 84.6072 353.278C85.3143 352.449 85.837 351.431 86.5032 350.55C87.2342 349.615 88.0215 348.729 88.8605 347.895C90.5083 346.192 92.3531 344.701 94.354 343.456C96.2789 342.239 98.3185 341.223 100.442 340.423C101.609 340.012 102.796 339.662 103.998 339.374C105.253 338.98 106.561 338.793 107.873 338.818C107.944 338.755 107.975 338.598 107.914 338.587Z" fill="black"/>
<path d="M74.4615 376.322C72.4117 374.223 67.0412 374.748 64.4687 380.792C61.8962 386.837 67.2872 393.458 67.8919 395.316C70.3721 393.857 72.299 394.728 76.6651 393.857C79.0925 393.264 81.2475 391.836 82.7698 389.811C84.2921 387.786 85.0894 385.288 85.0283 382.734C84.7413 377.193 82.4558 373.541 74.4615 376.322Z" fill="#4381CA"/>
<path opacity="0.45" d="M74.4615 376.322C72.4117 374.223 67.0412 374.748 64.4687 380.792C61.8962 386.837 67.2872 393.458 67.8919 395.316C70.3721 393.857 72.299 394.728 76.6651 393.857C79.0925 393.264 81.2475 391.836 82.7698 389.811C84.2921 387.786 85.0894 385.288 85.0283 382.734C84.7413 377.193 82.4558 373.541 74.4615 376.322Z" fill="white"/>
<path d="M74.3896 375.703C73.3009 376.413 72.3913 377.377 71.7351 378.515C71.0284 379.567 70.4534 380.706 70.0235 381.905C69.0891 384.353 68.8269 387.017 69.2651 389.607C69.2651 389.701 69.3676 389.607 69.3573 389.555C69.0367 385.728 70.1344 381.918 72.432 378.883C72.8101 378.385 73.2138 377.909 73.6414 377.455C74.0637 377.11 74.4486 376.72 74.7893 376.291C74.9226 376.049 74.6868 375.556 74.3896 375.703Z" fill="#4381CA"/>
<path opacity="0.3" d="M74.3896 375.703C73.3009 376.413 72.3913 377.377 71.7351 378.515C71.0284 379.567 70.4534 380.706 70.0235 381.905C69.0891 384.353 68.8269 387.017 69.2651 389.607C69.2651 389.701 69.3676 389.607 69.3573 389.555C69.0367 385.728 70.1344 381.918 72.432 378.883C72.8101 378.385 73.2138 377.909 73.6414 377.455C74.0637 377.11 74.4486 376.72 74.7893 376.291C74.9226 376.049 74.6868 375.556 74.3896 375.703Z" fill="black"/>
<path d="M65.0542 388.568C64.8697 384.066 60.1039 380.509 53.3292 378.442C49.9997 377.372 46.4422 377.292 43.0697 378.209C39.6973 379.127 36.6481 381.005 34.2763 383.626C29.326 389.135 26.7637 393.825 28.7828 395.169C30.8018 396.512 39.7697 399.859 45.6322 401.738C51.4947 403.616 59.202 404.141 65.0542 400.573C70.9064 397.005 70.5476 390.824 65.0542 388.568Z" fill="#4381CA"/>
<path opacity="0.25" d="M65.0542 388.568C64.8697 384.066 60.1039 380.509 53.3292 378.442C49.9997 377.372 46.4422 377.292 43.0697 378.209C39.6973 379.127 36.6481 381.005 34.2763 383.626C29.326 389.135 26.7637 393.825 28.7828 395.169C30.8018 396.512 39.7697 399.859 45.6322 401.738C51.4947 403.616 59.202 404.141 65.0542 400.573C70.9064 397.005 70.5476 390.824 65.0542 388.568Z" fill="white"/>
<path d="M65.4299 388.065C63.1347 386.882 60.6262 386.196 58.0608 386.05C55.6049 385.808 53.1307 385.84 50.6815 386.144C48.0971 386.471 45.5433 387.015 43.046 387.771C41.7443 388.169 40.4427 388.61 39.1718 389.093C37.9543 389.505 36.7689 390.01 35.6256 390.604C35.6256 390.604 35.5539 390.772 35.6256 390.761C36.876 390.499 38.0854 389.995 39.2948 389.618C40.5042 389.24 41.9186 388.81 43.2509 388.453C45.7202 387.778 48.2346 387.291 50.7737 386.994C53.3174 386.695 55.8861 386.695 58.4298 386.994C60.7793 387.415 63.0926 388.025 65.3479 388.82C65.8398 388.904 65.6964 388.222 65.4299 388.065Z" fill="#4381CA"/>
<path opacity="0.3" d="M65.4299 388.065C63.1347 386.882 60.6262 386.196 58.0608 386.05C55.6049 385.808 53.1307 385.84 50.6815 386.144C48.0971 386.471 45.5433 387.015 43.046 387.771C41.7443 388.169 40.4427 388.61 39.1718 389.093C37.9543 389.505 36.7689 390.01 35.6256 390.604C35.6256 390.604 35.5539 390.772 35.6256 390.761C36.876 390.499 38.0854 389.995 39.2948 389.618C40.5042 389.24 41.9186 388.81 43.2509 388.453C45.7202 387.778 48.2346 387.291 50.7737 386.994C53.3174 386.695 55.8861 386.695 58.4298 386.994C60.7793 387.415 63.0926 388.025 65.3479 388.82C65.8398 388.904 65.6964 388.222 65.4299 388.065Z" fill="black"/>
<path d="M79.0436 381.863C74.1958 377.928 75.8152 368.473 92.7774 367.959C109.74 367.445 121.844 371.988 121.311 377.571C124.037 380.373 122.653 388.201 108.92 390.646C95.1859 393.091 75.6 391.874 79.0436 381.863Z" fill="#4381CA"/>
<path opacity="0.25" d="M79.0436 381.863C74.1958 377.928 75.8152 368.473 92.7774 367.959C109.74 367.445 121.844 371.988 121.311 377.571C124.037 380.373 122.653 388.201 108.92 390.646C95.1859 393.091 75.6 391.874 79.0436 381.863Z" fill="white"/>
<path d="M113.324 377.634C108.319 376.793 103.242 376.491 98.1761 376.731C93.465 376.701 88.7676 377.254 84.1862 378.379C83.0129 378.708 81.8708 379.143 80.7733 379.68C80.2711 379.921 79.7483 380.194 79.2871 380.488C78.8259 380.782 78.4775 380.939 78.334 381.401C78.3226 381.474 78.3278 381.549 78.3491 381.619C78.3703 381.69 78.4071 381.754 78.4567 381.808C78.5062 381.862 78.567 381.903 78.6346 381.929C78.7022 381.955 78.7747 381.965 78.8464 381.957C79.8765 381.538 80.8678 381.025 81.8084 380.425C82.7633 380.014 83.7423 379.663 84.7396 379.376C86.6685 378.814 88.6397 378.417 90.6328 378.19C95.3915 377.578 100.186 377.308 104.982 377.382C107.769 377.382 110.547 377.634 113.324 377.854C113.375 377.844 113.406 377.655 113.324 377.634Z" fill="#4381CA"/>
<path opacity="0.3" d="M113.324 377.634C108.319 376.793 103.242 376.491 98.1761 376.731C93.465 376.701 88.7676 377.254 84.1862 378.379C83.0129 378.708 81.8708 379.143 80.7733 379.68C80.2711 379.921 79.7483 380.194 79.2871 380.488C78.8259 380.782 78.4775 380.939 78.334 381.401C78.3226 381.474 78.3278 381.549 78.3491 381.619C78.3703 381.69 78.4071 381.754 78.4567 381.808C78.5062 381.862 78.567 381.903 78.6346 381.929C78.7022 381.955 78.7747 381.965 78.8464 381.957C79.8765 381.538 80.8678 381.025 81.8084 380.425C82.7633 380.014 83.7423 379.663 84.7396 379.376C86.6685 378.814 88.6397 378.417 90.6328 378.19C95.3915 377.578 100.186 377.308 104.982 377.382C107.769 377.382 110.547 377.634 113.324 377.854C113.375 377.844 113.406 377.655 113.324 377.634Z" fill="black"/>
<path d="M382.753 378.064L384.659 360.76L362.254 357.339C362.254 357.339 362.88 365.965 363.064 373.562C363.218 380.142 362.429 382.639 360.153 386.302C357.878 389.964 352.272 394.602 346.102 396.974C339.932 399.345 334.049 402.567 335.638 406.187C337.226 409.807 346.348 411.644 350.345 410.867C354.342 410.091 363.29 405.473 367.871 402.157C372.452 398.841 379.914 397.393 381.646 396.68C383.378 395.966 383.849 393.479 383.87 389.334C383.728 385.557 383.355 381.793 382.753 378.064Z" fill="#B16668"/>
<path d="M356.074 207.574C355.049 219.327 357.171 253.064 357.509 277.735C357.673 289.372 358.226 310.643 358.534 315.827C359.395 330.444 361.916 363.887 361.916 363.887C361.916 363.887 373.774 368.998 384.587 364.937C386.75 346.667 393.565 320.779 389.117 305.123L399.663 213.829L356.074 207.574Z" fill="#455A64"/>
<path d="M380.476 304.315C380.066 299.645 383.09 251.459 383.11 251.018H382.147C382.065 252.812 379.072 299.719 379.513 304.451C379.68 305.933 379.927 307.405 380.251 308.859C381.839 316.347 382.391 324.026 381.891 331.672C381.389 341.431 380.497 356.311 379.902 366.175L380.927 365.997C381.522 356.133 382.393 341.41 382.895 331.724C383.404 323.987 382.845 316.216 381.235 308.638C380.91 307.212 380.656 305.769 380.476 304.315Z" fill="#37474F"/>
<path d="M389.114 305.071L395.612 251.217C380.136 248.72 369.446 240.556 366.73 233.934C367.331 237.799 368.872 241.448 371.211 244.543C373.55 247.639 376.612 250.082 380.116 251.648C380.116 251.648 383.129 281.974 384.646 292.625C386.163 303.276 387.136 313.329 389.77 330.665C390.836 321.147 391.103 312.08 389.114 305.071Z" fill="#37474F"/>
<path d="M331.824 407.121C331.506 407.121 331.004 410.699 332.746 412.221C334.796 413.984 340.71 416.891 348.571 415.904C356.432 414.918 360.705 412.504 363.862 409.881C367.019 407.257 371.446 403.585 375.003 402.766C378.313 402.053 383.694 400.216 384.76 399.188C385.826 398.159 385.682 393.616 385.682 393.616L331.824 407.121Z" fill="#263238"/>
<path d="M382.803 377.613C383.112 377.77 383.385 377.991 383.606 378.262C383.827 378.533 383.99 378.848 384.085 379.187C384.32 380.446 384.32 382.052 384.833 384.119C385.55 386.984 386.011 392.85 385.56 395.179C385.11 397.509 377.945 399.471 374.492 400.772C370.445 402.521 366.679 404.884 363.32 407.782C359.61 410.825 351.831 413.858 346.706 413.91C338.876 413.984 333.823 411.812 332.265 409.01C330.923 406.554 332.173 403.018 334.192 401.297C336.99 398.905 340.424 397.425 343.734 395.809C348.859 393.301 354.619 390.184 357.898 385.315C359.295 383.252 360.053 380.806 360.071 378.295C360.028 377.9 360.081 377.5 360.225 377.13C360.434 376.842 360.706 376.606 361.019 376.442C361.332 376.278 361.677 376.191 362.029 376.186C365.862 375.64 369.203 377.361 372.79 378.746C373.651 378.993 374.412 379.515 374.963 380.236C375.906 381.789 374.666 383.815 374.963 385.609C374.979 385.731 375.017 385.848 375.076 385.955C375.322 386.323 375.896 386.249 376.275 386.029C377.669 385.231 378.089 383.468 378.919 382.083C379.582 380.989 380.53 380.106 381.656 379.533C381.968 379.385 382.29 379.259 382.619 379.156L382.803 377.613Z" fill="#37474F"/>
<path d="M339.777 397.74C351.102 398.569 354.289 407.908 354.751 412.252C352.165 413.216 349.453 413.775 346.705 413.91C338.875 413.984 333.504 411.812 331.947 409.01C330.132 405.704 331.742 400.762 339.777 397.74Z" fill="#FAFAFA"/>
<path d="M355.395 399.44C355.522 399.44 355.645 399.395 355.744 399.314C355.8 399.269 355.846 399.213 355.881 399.149C355.915 399.086 355.937 399.016 355.945 398.943C355.952 398.871 355.946 398.798 355.925 398.728C355.905 398.658 355.871 398.593 355.826 398.537C354.258 396.596 349.943 393.217 345.823 393.647C345.751 393.654 345.682 393.675 345.618 393.709C345.555 393.743 345.499 393.79 345.453 393.847C345.407 393.903 345.373 393.968 345.352 394.039C345.331 394.109 345.324 394.183 345.331 394.256C345.346 394.404 345.419 394.541 345.532 394.635C345.645 394.73 345.79 394.774 345.935 394.76C349.779 394.361 353.725 397.698 354.965 399.24C355.018 399.303 355.084 399.354 355.159 399.388C355.233 399.423 355.314 399.44 355.395 399.44Z" fill="#F0F0F0"/>
<path d="M360.253 396.617C360.38 396.617 360.503 396.573 360.601 396.491C360.713 396.397 360.784 396.262 360.799 396.115C360.814 395.967 360.773 395.82 360.683 395.704C359.115 393.763 354.8 390.384 350.68 390.824C350.596 390.806 350.509 390.808 350.426 390.831C350.343 390.854 350.266 390.896 350.203 390.956C350.139 391.015 350.089 391.088 350.059 391.171C350.028 391.253 350.017 391.341 350.027 391.429C350.036 391.517 350.066 391.601 350.113 391.674C350.16 391.748 350.224 391.809 350.299 391.852C350.374 391.895 350.457 391.92 350.543 391.924C350.629 391.928 350.715 391.91 350.793 391.874C354.637 391.475 358.582 394.812 359.823 396.354C359.868 396.43 359.932 396.494 360.006 396.54C360.081 396.585 360.166 396.612 360.253 396.617Z" fill="#F0F0F0"/>
<path d="M364.785 393.374C364.912 393.374 365.035 393.33 365.134 393.248C365.189 393.203 365.236 393.148 365.271 393.084C365.305 393.02 365.327 392.95 365.334 392.878C365.342 392.805 365.335 392.732 365.315 392.663C365.295 392.593 365.261 392.528 365.216 392.472C363.647 390.531 359.312 387.152 355.212 387.582C355.069 387.598 354.938 387.67 354.846 387.784C354.754 387.898 354.709 388.043 354.721 388.191C354.739 388.338 354.811 388.473 354.924 388.567C355.037 388.66 355.18 388.706 355.325 388.694C359.169 388.295 363.114 391.632 364.355 393.175C364.409 393.237 364.475 393.287 364.549 393.321C364.623 393.356 364.704 393.374 364.785 393.374Z" fill="#F0F0F0"/>
<path d="M368.986 389.481C369.109 389.479 369.228 389.435 369.324 389.355C369.382 389.312 369.43 389.257 369.467 389.194C369.503 389.131 369.526 389.06 369.535 388.988C369.543 388.915 369.537 388.841 369.517 388.771C369.497 388.7 369.462 388.635 369.416 388.579C367.264 385.819 362.59 383.196 358.48 383.636C358.335 383.65 358.201 383.721 358.107 383.835C358.013 383.949 357.967 384.096 357.978 384.245C357.999 384.393 358.074 384.526 358.189 384.618C358.303 384.71 358.448 384.753 358.593 384.738C362.293 384.35 366.639 386.837 368.545 389.261C368.599 389.328 368.666 389.382 368.742 389.42C368.818 389.458 368.901 389.479 368.986 389.481Z" fill="#F0F0F0"/>
<path d="M361.547 359.05C365.831 362.282 378.15 365.43 385.366 360.519L383.962 369.69C379.616 372.503 366.938 373.426 362.049 367.518L361.547 359.05Z" fill="#37474F"/>
<path d="M427.715 387.834L428.155 367.497L405.895 368.347L409.174 388.915C409.174 388.915 410.466 397.309 410.742 399.282C411.435 405.056 411.828 410.864 411.921 416.681C412.013 424.352 412.392 431.466 414.442 434.992C416.492 438.518 418.737 439.074 422.098 437.92C425.46 436.765 429.549 432.904 430.841 426.818C432.132 420.731 430.339 411.717 429.601 409.66C428.863 407.604 427.828 395.347 427.715 387.834Z" fill="#B16668"/>
<path d="M424.711 212.748L380.691 212.527C382.126 223.86 392.334 300.81 394.61 313.812C396.885 326.813 406.908 377.823 406.908 377.823C406.908 377.823 409.276 381.632 416.778 381.17C425.193 380.646 428.452 377.151 428.452 377.151C428.452 377.151 430.082 349.763 430.246 333.655C430.432 323.504 429.168 313.379 426.494 303.601C426.494 303.601 427.601 274.282 427.581 254.68C427.56 235.078 427.427 228.761 424.711 212.748Z" fill="#455A64"/>
<path d="M410.125 426.24C410.35 431.624 411.15 435.191 412.943 438.382C414.737 441.572 418.283 442.579 421.87 441.75C425.458 440.921 430.07 438.497 431.166 433.88C432.263 429.263 432.898 426.093 432.191 421.099L410.125 426.24Z" fill="#263238"/>
<path d="M427.713 387.834C429.178 387.981 428.686 395.095 429.424 402.336C430.224 410.091 431.279 413.186 431.997 419.545C432.827 426.818 431.597 430.039 429.045 434.383C426.493 438.728 417.597 442.883 413.333 436.482C409.869 431.298 409.797 425.621 410.258 418.381C410.539 412.306 410.299 406.217 409.541 400.185C409.008 394.329 407.911 389.46 409.203 388.873C409.203 388.873 410.053 393.343 410.381 394.266C410.535 394.676 411.089 395.693 411.335 394.182C411.406 393.731 411.283 392.692 411.335 392.252C411.458 390.992 412.206 390.803 412.698 390.531C414.67 389.61 416.824 389.168 418.991 389.24C421.86 389.24 424.351 389.24 425.95 390.079C426.903 390.594 426.862 391.538 426.975 392.451C427.087 393.5 427.098 394.224 427.354 394.004C427.836 393.616 427.538 388.61 427.713 387.834Z" fill="#37474F"/>
<path d="M432.348 423.753C432.558 427.638 431.537 431.488 429.437 434.73C426.875 439.074 417.282 443.23 413.039 436.881C410.917 433.733 410.394 430.008 410.148 426.24C412.793 421.434 428.299 419.566 432.348 423.753Z" fill="#FAFAFA"/>
<path d="M413.459 418.402C413.524 418.399 413.587 418.381 413.643 418.349C413.695 418.349 420.551 415.568 427.162 417.247C427.303 417.28 427.451 417.255 427.575 417.179C427.699 417.103 427.79 416.981 427.828 416.838C427.859 416.695 427.835 416.545 427.761 416.42C427.686 416.295 427.567 416.204 427.428 416.167C420.439 414.393 413.449 417.216 413.182 417.342C413.052 417.403 412.951 417.515 412.901 417.653C412.851 417.79 412.856 417.943 412.916 418.076C412.962 418.182 413.039 418.269 413.137 418.328C413.234 418.386 413.347 418.412 413.459 418.402Z" fill="#F0F0F0"/>
<path d="M426.914 411.833C427.027 411.811 427.13 411.754 427.209 411.668C427.288 411.583 427.338 411.474 427.353 411.358C427.368 411.241 427.346 411.123 427.291 411.019C427.236 410.916 427.151 410.834 427.047 410.783C420.478 408.391 413.098 411.696 412.821 411.833C412.694 411.9 412.598 412.016 412.554 412.155C412.51 412.295 412.521 412.447 412.586 412.578C412.652 412.708 412.764 412.807 412.9 412.854C413.036 412.901 413.184 412.892 413.313 412.83C413.385 412.83 420.57 409.598 426.637 411.78C426.722 411.826 426.819 411.844 426.914 411.833Z" fill="#F0F0F0"/>
<path d="M426.748 406.733C426.85 406.723 426.947 406.684 427.028 406.621C427.109 406.558 427.172 406.473 427.21 406.376C427.237 406.307 427.251 406.233 427.25 406.159C427.249 406.085 427.233 406.012 427.203 405.944C427.173 405.876 427.131 405.815 427.077 405.765C427.023 405.715 426.96 405.676 426.892 405.652C419.718 402.882 412.666 406.502 412.4 406.701C412.339 406.738 412.285 406.787 412.243 406.845C412.201 406.903 412.17 406.969 412.153 407.039C412.135 407.11 412.132 407.183 412.143 407.255C412.154 407.326 412.178 407.395 412.215 407.457C412.25 407.52 412.297 407.576 412.354 407.62C412.41 407.665 412.474 407.697 412.543 407.716C412.612 407.734 412.684 407.739 412.754 407.728C412.824 407.718 412.892 407.694 412.953 407.656C413.015 407.656 419.789 404.162 426.513 406.733C426.591 406.748 426.67 406.748 426.748 406.733Z" fill="#F0F0F0"/>
<path d="M426.463 401.706C426.564 401.696 426.661 401.657 426.742 401.595C426.824 401.532 426.887 401.447 426.924 401.35C426.95 401.282 426.963 401.21 426.962 401.137C426.961 401.065 426.945 400.993 426.917 400.927C426.888 400.86 426.847 400.8 426.795 400.75C426.744 400.7 426.683 400.662 426.616 400.636C419.852 397.918 412.268 401.622 412.022 401.79C411.895 401.863 411.802 401.983 411.763 402.126C411.723 402.269 411.741 402.422 411.812 402.551C411.882 402.681 412 402.776 412.14 402.816C412.279 402.857 412.428 402.839 412.555 402.766C412.626 402.766 419.934 399.146 426.217 401.664C426.295 401.694 426.379 401.708 426.463 401.706Z" fill="#EBEBEB"/>
<path d="M405.547 371.684C410.097 374.349 422.478 375.934 428.935 370.152L428.638 379.439C424.733 382.765 412.485 385.273 407.023 380.016L405.547 371.684Z" fill="#37474F"/>
<path d="M425.806 316.414C425.509 313.906 425.222 311.912 424.935 309.992C424.013 303.56 423.131 297.494 421.942 273.264C421.502 264.135 421.461 257.094 421.43 250.871C421.358 238.279 421.317 229.139 418.099 212.716H417.074C420.149 228.173 420.333 237.156 420.405 248.625C414.532 248.374 411.181 242.592 409.879 230.471C408.506 217.648 407.112 208.876 407.102 208.792L406.148 208.949C406.148 209.033 407.542 217.785 408.916 230.587C410.258 243.179 414.04 249.37 420.415 249.612C420.415 250.032 420.415 250.451 420.415 250.882C420.415 257.104 420.487 264.156 420.928 273.317C422.116 297.631 422.977 303.748 423.931 310.17C424.207 312.091 424.494 314.074 424.791 316.572C426.914 335.704 427.558 354.977 426.718 374.213H427.682C428.549 354.926 427.921 335.6 425.806 316.414Z" fill="#37474F"/>
<path d="M354.475 110.529C353.348 109.879 352.641 102.25 353.676 96.7616C354.711 91.2735 352.21 90.0247 351.042 91.7667C350.367 92.7341 349.886 93.8291 349.627 94.9882C347.04 95.6576 344.677 97.0319 342.791 98.9653C339.901 102.113 336.488 105.881 337.739 113.929C337.974 115.493 338.22 121.715 337.421 124.129C333.465 136.102 318.819 149.24 315.898 165.149C313.161 179.84 324.292 180.889 333.854 176.198C344.851 170.763 365.626 150.751 365.626 150.751L374 118.725C368.117 118.83 363.751 119.995 356.187 127.928C354.926 129.26 349.627 134.161 349.627 134.161C351.544 129.481 352.579 126.48 354.865 122.859" fill="#B16668"/>
<path d="M343.315 155.495C341.826 159.205 340.018 162.772 337.914 166.156C341.031 163.924 343.469 160.836 344.945 157.247L343.315 155.495Z" fill="#9A4A4D"/>
<path d="M375.221 118.672C368.846 118.242 363.701 119.407 358.822 124.507C354.343 129.208 349.598 134.161 349.598 134.161C346.739 143.227 345.498 148.453 343.336 155.505C344.556 159.44 345.724 163.679 348.532 166.481L373.776 144.445L375.221 118.672Z" fill="#3771B4"/>
<path d="M351.349 119.375C353.06 116.437 350.324 113.698 350.324 113.698L354.423 110.676V110.529L337.451 110.225C337.421 111.472 337.507 112.72 337.707 113.95C337.872 115.195 337.95 116.451 337.943 117.707L340.177 118.998C340.421 119.134 340.694 119.206 340.972 119.206C341.249 119.206 341.522 119.134 341.766 118.998L348.817 115.01C351.359 115.923 351.349 119.375 351.349 119.375Z" fill="#9A4A4D"/>
<path d="M336.95 95.5549L366.375 80.3077C366.627 80.1585 366.914 80.08 367.205 80.08C367.496 80.08 367.783 80.1585 368.035 80.3077C368.425 80.5491 369.972 81.4725 370.403 81.7034C370.638 81.8446 370.834 82.0451 370.972 82.2857C371.11 82.5263 371.186 82.799 371.192 83.078L372.586 98.8185C372.611 99.529 372.444 100.233 372.102 100.852C371.76 101.47 371.257 101.98 370.649 102.323L341.254 117.518C341.019 117.66 340.754 117.743 340.481 117.759C340.209 117.775 339.936 117.725 339.686 117.613C339.246 117.382 337.565 116.395 337.124 116.101C336.916 115.954 336.746 115.758 336.627 115.53C336.507 115.302 336.442 115.048 336.437 114.79C336.079 110.844 335.412 103.005 335.033 99.0493C335.011 98.3433 335.178 97.6445 335.516 97.0285C335.853 96.4126 336.349 95.903 336.95 95.5549Z" fill="#37474F"/>
<path d="M339.769 117.654H339.687C339.246 117.424 337.566 116.427 337.125 116.143C336.918 115.993 336.748 115.795 336.629 115.566C336.509 115.336 336.444 115.081 336.438 114.821C336.08 110.876 335.413 103.037 335.034 99.0808C334.996 98.0921 335.338 97.1275 335.987 96.3944L338.447 97.8215C337.789 98.5582 337.443 99.5316 337.484 100.529C337.842 104.474 338.509 112.313 338.888 116.269C338.897 116.561 338.984 116.844 339.14 117.088C339.295 117.332 339.513 117.528 339.769 117.654Z" fill="#263238"/>
<path d="M370.372 81.6614C370.123 81.5577 369.854 81.5133 369.586 81.5315C369.318 81.5496 369.058 81.63 368.824 81.7664L339.43 97.0031C339.042 97.1991 338.694 97.4699 338.405 97.8006L335.945 96.363C336.232 96.0281 336.581 95.7536 336.97 95.555L366.365 80.3078C366.62 80.1626 366.908 80.0864 367.2 80.0864C367.492 80.0864 367.78 80.1626 368.035 80.3078C368.404 80.5071 369.839 81.3571 370.372 81.6614Z" fill="#455A64"/>
<path d="M369.235 99.9098C369.223 100.259 369.128 100.601 368.958 100.904C368.789 101.208 368.549 101.464 368.261 101.652L340.507 116.08L340.568 116.784L339 100.046C339.006 99.6967 339.098 99.3543 339.266 99.0501C339.434 98.7459 339.674 98.4895 339.963 98.3043L368.353 83.5188L367.728 83.8441L369.235 99.9098Z" fill="#4381CA"/>
<path opacity="0.75" d="M369.235 99.9098C369.223 100.259 369.128 100.601 368.958 100.904C368.789 101.208 368.549 101.464 368.261 101.652L340.507 116.08L340.568 116.784L339 100.046C339.006 99.6967 339.098 99.3543 339.266 99.0501C339.434 98.7459 339.674 98.4895 339.963 98.3043L368.353 83.5188L367.728 83.8441L369.235 99.9098Z" fill="white"/>
<path d="M369.931 100.246C369.925 100.595 369.834 100.938 369.666 101.242C369.497 101.546 369.258 101.802 368.968 101.988L340.568 116.763L340.496 116.07L368.261 101.631C368.549 101.443 368.789 101.187 368.958 100.883C369.128 100.58 369.223 100.238 369.234 99.8889L367.697 83.8441L368.322 83.5188L369.931 100.246Z" fill="#263238"/>
<path opacity="0.35" d="M370.454 90.8013C370.283 90.9134 370.143 91.069 370.047 91.2528C369.952 91.4367 369.905 91.6426 369.911 91.8507C369.91 91.9328 369.931 92.0135 369.972 92.0841C370.013 92.1548 370.072 92.2127 370.143 92.2515C370.213 92.2904 370.293 92.3088 370.373 92.3047C370.453 92.3006 370.531 92.2743 370.597 92.2284C370.771 92.1195 370.914 91.9646 371.009 91.78C371.105 91.5953 371.15 91.3878 371.14 91.1791C371.145 91.0955 371.126 91.0123 371.086 90.9392C371.046 90.8662 370.986 90.8064 370.914 90.7667C370.842 90.7271 370.761 90.7093 370.679 90.7154C370.598 90.7215 370.519 90.7513 370.454 90.8013Z" fill="black"/>
<path d="M354.938 110.435C355.809 109.658 356.065 107.287 357.521 105.125C359.212 102.617 363.27 103.142 362.061 105.125C360.851 107.108 360.472 108.955 359.693 114.045C358.914 119.134 356.947 119.995 354.815 122.828L354.477 110.645L354.938 110.435Z" fill="#B16668"/>
<path d="M355.574 150.972C356.373 136.386 362.83 127.581 367.216 123.867C371.603 120.152 380.018 112.534 396.939 120.037C407.075 124.528 420.881 132.209 420.881 132.209C420.881 132.209 426.435 148.894 426.815 160.846C427.194 172.798 423.576 181.183 423.924 190.669C424.273 200.155 425.031 209.746 426.835 223.682C415.623 239.202 367.391 238.447 355.266 214.857C355.399 196.084 354.815 164.624 355.574 150.972Z" fill="#4381CA"/>
<g opacity="0.35">
<path d="M355.574 150.972C356.373 136.386 362.83 127.581 367.216 123.867C371.603 120.152 380.018 112.534 396.939 120.037C407.075 124.528 420.881 132.209 420.881 132.209C420.881 132.209 426.435 148.894 426.815 160.846C427.194 172.798 423.576 181.183 423.924 190.669C424.273 200.155 425.031 209.746 426.835 223.682C415.623 239.202 367.391 238.447 355.266 214.857C355.399 196.084 354.815 164.624 355.574 150.972Z" fill="#4381CA"/>
</g>
<path d="M403.273 115.986C404.103 110.382 409.422 104.443 411.79 99.5425C414.065 94.7994 415.408 91.1476 415.059 86.7193C414.854 84.1064 413.184 80.591 411.277 79.8775C413.327 70.1184 406.091 65.7426 402.299 64.8821C400.515 64.5484 398.755 64.0927 397.031 63.5179C394.981 62.6784 394.469 60.9889 392.788 59.5828C389.888 57.1483 385.071 57.1798 383.308 60.968C381.36 58.4915 378.788 58.5964 375.826 59.4359C374.578 59.7578 373.495 60.5485 372.79 61.6508C372.086 62.7531 371.812 64.0864 372.023 65.3858C368.006 63.1821 364.408 66.1203 364.08 68.5338C363.845 70.3073 364.234 71.7974 363.127 73.4029C361.887 75.2078 359.479 75.2183 358.73 73.7912C358.361 76.3096 359.356 78.209 362.01 77.9886C361.572 78.6956 361.29 79.4919 361.184 80.3221C361.078 81.1522 361.15 81.9961 361.395 82.7947C361.736 83.7938 362.363 84.6641 363.195 85.2914C364.028 85.9188 365.026 86.2739 366.058 86.31C366.192 87.6562 366.62 88.9543 367.309 90.1087C368.134 91.3043 369.227 92.2796 370.496 92.9525C374.596 94.8414 379.024 95.3975 383.379 96.237L388.504 97.2339C388.811 97.2969 390.369 97.3598 390.554 97.6327L403.273 115.986Z" fill="#263238"/>
<path d="M409.923 108.64C406.131 111.054 403.487 108.567 403.487 108.567L403.702 128.242C399.326 135.147 389.353 136.06 384.085 134.801C377.311 133.174 378.746 127.865 381.831 125.031L381.646 121.81C379.734 121.877 377.82 121.814 375.917 121.621C371.623 121.096 367.39 116.553 366.273 112.901C364.776 108 364.469 100.067 365.412 94.1067C365.678 92.5866 365.73 91.0352 365.565 89.5001C365.084 85.4285 365.76 83.0465 366.724 79.6046C371.366 75.638 383.696 74.4942 393.955 80.6539C392.93 86.8662 393.873 91.3364 398.301 93.6135C398.127 95.2925 398.004 99.511 400.679 99.385C402.616 99.2906 402.728 96.8141 404.645 94.5895C406.562 92.3648 411.204 91.6932 413.059 94.8833C415.642 99.3326 414.084 106.007 409.923 108.64Z" fill="#B16668"/>
<path d="M383.593 84.5891C383.345 84.6354 383.123 84.7736 382.968 84.9774C382.825 85.1592 382.714 85.3652 382.64 85.586C382.572 85.8356 382.534 86.0929 382.527 86.352C382.533 86.525 382.553 86.6971 382.589 86.8662C382.59 87.0283 382.64 87.186 382.732 87.3174C382.769 87.332 382.809 87.332 382.845 87.3174C383.06 87.2545 382.999 86.9607 383.019 86.8032C383.04 86.6458 383.019 86.5409 383.019 86.415C383.024 86.202 383.055 85.9904 383.112 85.7854C383.226 85.4634 383.442 85.19 383.726 85.0088C383.901 84.9459 383.808 84.5576 383.593 84.5891Z" fill="#9A4A4D"/>
<path d="M375.079 83.6657C374.888 83.4228 374.642 83.2318 374.361 83.1095C374.187 83.1095 374.228 83.2879 374.3 83.3718L374.372 83.4348C374.428 83.4702 374.479 83.5125 374.525 83.5607C374.602 83.6376 374.67 83.7219 374.73 83.8126C374.867 84.0043 374.964 84.2219 375.017 84.4527C375.058 84.6746 375.058 84.9024 375.017 85.1243C375.004 85.2305 374.983 85.3357 374.956 85.4391C374.916 85.5481 374.885 85.6604 374.864 85.7749C374.864 85.9008 375.017 86.1107 375.151 86.0057C375.358 85.8071 375.489 85.5391 375.52 85.2502C375.558 84.958 375.533 84.6608 375.448 84.3792C375.375 84.1175 375.249 83.8744 375.079 83.6657Z" fill="#9A4A4D"/>
<path d="M381.648 121.82C388.413 120.876 393.558 120.026 397.022 114.926C398.53 112.433 399.676 109.729 400.425 106.899C400.425 106.899 400.373 112.785 398.231 116.993C396.581 120.236 392.369 122.996 381.741 124.129L381.648 121.82Z" fill="#9A4A4D"/>
<path d="M383.972 93.5297C383.995 93.9438 384.137 94.3417 384.381 94.6732C384.624 95.0046 384.958 95.2547 385.341 95.3919C385.723 95.5291 386.137 95.5471 386.529 95.4438C386.921 95.3405 387.275 95.1205 387.545 94.8115C387.816 94.5025 387.991 94.1184 388.048 93.7078C388.105 93.2971 388.042 92.8783 387.867 92.5042C387.692 92.1302 387.413 91.8176 387.064 91.606C386.716 91.3944 386.314 91.2933 385.909 91.3155C385.64 91.3302 385.376 91.3993 385.133 91.5186C384.889 91.6379 384.672 91.8053 384.492 92.0109C384.312 92.2166 384.173 92.4567 384.084 92.7173C383.995 92.9779 383.957 93.2539 383.972 93.5297Z" fill="#263238"/>
<path d="M369.297 86.1316L373.396 83.9175C373.674 84.4975 373.723 85.165 373.532 85.7808C373.341 86.3966 372.925 86.9132 372.372 87.223C372.1 87.3616 371.805 87.4434 371.502 87.4635C371.2 87.4835 370.896 87.4415 370.61 87.3398C370.323 87.2382 370.06 87.0789 369.834 86.8714C369.609 86.6639 369.426 86.4124 369.297 86.1316Z" fill="#263238"/>
<path d="M384.435 86.0477L388.33 88.7446C388.172 89.0129 387.961 89.2453 387.712 89.4276C387.463 89.61 387.18 89.7384 386.881 89.8052C386.582 89.872 386.272 89.8756 385.972 89.816C385.671 89.7563 385.386 89.6346 385.132 89.4582C384.611 89.0896 384.248 88.5301 384.119 87.8954C383.989 87.2607 384.102 86.5993 384.435 86.0477Z" fill="#263238"/>
<path d="M368.968 92.4174C368.988 92.8321 369.129 93.2312 369.371 93.5641C369.614 93.897 369.947 94.1488 370.33 94.2875C370.712 94.4263 371.126 94.4458 371.519 94.3436C371.912 94.2414 372.267 94.0221 372.538 93.7134C372.81 93.4047 372.985 93.0205 373.043 92.6095C373.101 92.1985 373.039 91.7791 372.864 91.4044C372.689 91.0297 372.41 90.7166 372.061 90.5046C371.712 90.2927 371.31 90.1914 370.905 90.2137C370.363 90.2436 369.854 90.4923 369.491 90.9054C369.128 91.3186 368.94 91.8623 368.968 92.4174Z" fill="#263238"/>
<path d="M370.977 101.421L377.679 104.307L379.473 90.9272C376.982 90.0772 373.928 96.2685 370.977 101.421Z" fill="#9A4A4D"/>
<path d="M381.023 106.059C379.557 106.059 377.364 107.675 377.733 109.774C377.845 110.424 378.675 110.487 379.444 110.089C380.599 109.612 381.807 109.288 383.042 109.123C384.302 108.924 384.138 107.623 383.216 106.794C382.585 106.305 381.813 106.047 381.023 106.059Z" fill="#9A4A4D"/>
<path d="M382.734 106.458C381.823 106.588 380.98 107.028 380.342 107.707C379.705 108.387 379.309 109.266 379.219 110.204C379.308 110.176 379.394 110.138 379.475 110.089C380.629 109.612 381.838 109.288 383.072 109.123C384.333 108.924 384.169 107.623 383.247 106.794C383.09 106.66 382.918 106.547 382.734 106.458Z" fill="#F28F8F"/>
<path d="M415.476 129.386C421.626 131.684 425.438 135.179 435.236 146.942C445.034 158.706 456.38 172.83 456.38 172.83C456.38 172.83 455.355 181.403 449.698 182.872C446.756 183.638 442.8 183.491 432.633 176.87C424.28 171.434 419.617 168.307 419.617 168.307C419.617 168.307 406.99 146.942 415.476 129.386Z" fill="#4F8BD3"/>
<path d="M428.882 120.677C428.77 119.103 431.045 115.199 431.445 112.806C431.844 110.414 431.004 105.797 431.885 102.89C432.767 99.9833 432.162 98.9549 431.27 99.2592C430.331 99.7492 429.5 100.431 428.828 101.263C428.156 102.096 427.659 103.06 427.365 104.097C426.925 106.479 428.882 120.677 428.882 120.677Z" fill="#9A4A4D"/>
<path d="M415.488 127.749C414.668 125.651 413.438 123.132 413.017 121.726C412.187 119.092 412.946 116.059 413.54 113.331C413.827 112.03 413.94 111.012 414.196 109.732C414.511 108.355 414.683 106.948 414.709 105.534C414.678 103.625 414.192 101.752 413.294 100.078C413.048 99.574 409.953 99.595 409.051 99.2172C407.463 98.5456 407.247 97.2759 408.569 97.0345C410.602 96.6885 412.672 96.6355 414.719 96.8771C416.082 97.2444 418.962 102.984 418.962 102.984C418.962 102.984 417.742 98.3462 417.22 97.129C416.697 95.9117 413.776 95.429 412.208 94.8309C409.707 93.855 409.133 91.5254 410.158 91.4834C412.85 91.5471 415.52 91.9957 418.091 92.8161C420.335 93.5821 421.053 94.0334 422.108 96.4784C422.825 98.1835 423.428 99.9365 423.912 101.725C423.912 101.725 423.912 94.3167 423.646 92.8686C423.646 92.8686 421.534 91.9556 420.571 91.5044C419.239 90.8433 417.65 89.731 417.619 88.1045C417.619 88.1045 417.22 86.4465 419.751 87.265C422.283 88.0835 426.587 89.3637 427.346 89.9514C428.104 90.539 428.606 92.3439 428.852 95.7438C429.119 99.3117 430.236 106.794 429.877 112.04C429.662 114.968 428.36 116.637 429.078 122.188C430.195 130.803 445.825 140.699 453.429 155.673C456.33 161.381 457.375 165.883 456.504 172.221C455.408 180.564 450.785 183.408 446.501 181.172C438.878 176.872 432.859 170.109 429.385 161.938C423.041 145.977 419.136 135.504 415.488 127.749Z" fill="#B16668"/>
<path d="M415.489 127.749C414.71 125.808 413.788 123.94 413.06 121.967C412.483 119.933 412.448 117.777 412.958 115.724L413.593 112.649C413.778 111.6 413.921 110.55 414.126 109.553C414.64 107.531 414.717 105.418 414.352 103.362C414.122 102.352 413.778 101.373 413.327 100.445C413.327 100.34 413.193 100.172 413.163 100.13C413.078 100.064 412.98 100.018 412.876 99.9937C412.64 99.9308 412.394 99.8888 412.138 99.8468C411.636 99.7734 411.113 99.7209 410.621 99.6684C410.098 99.6278 409.58 99.5364 409.073 99.3956C408.556 99.2179 408.102 98.8852 407.772 98.4407C407.679 98.3211 407.616 98.1806 407.588 98.0308C407.559 97.8811 407.566 97.7266 407.608 97.5802C407.667 97.44 407.756 97.3148 407.867 97.2133C407.979 97.1118 408.11 97.0365 408.253 96.9926C408.765 96.8643 409.286 96.7801 409.811 96.7407C410.833 96.6322 411.859 96.5762 412.886 96.5728C413.407 96.5695 413.928 96.6081 414.444 96.6882C414.726 96.716 414.994 96.8292 415.213 97.0135C415.421 97.1834 415.613 97.3731 415.786 97.5802C417.062 99.2406 418.168 101.03 419.087 102.921L418.769 103.047C418.379 101.599 417.97 100.141 417.529 98.703C417.416 98.3462 417.303 97.9894 417.18 97.6537C417.09 97.3185 416.909 97.0165 416.658 96.7827C416.067 96.3683 415.412 96.0596 414.721 95.8697L412.599 95.2191C411.851 95.0217 411.152 94.664 410.549 94.1698C410.226 93.9193 409.955 93.6041 409.754 93.2433C409.554 92.8825 409.427 92.4837 409.381 92.071C409.373 91.9402 409.398 91.8096 409.451 91.6906C409.505 91.5717 409.586 91.468 409.688 91.389C409.802 91.3264 409.928 91.2906 410.057 91.284H410.344C410.713 91.284 411.092 91.284 411.461 91.284C412.945 91.4168 414.417 91.6552 415.868 91.9976C417.338 92.2917 418.76 92.7969 420.091 93.4982C420.742 93.9252 421.269 94.5231 421.618 95.2296C421.973 95.9076 422.285 96.6087 422.551 97.3284C423.099 98.7421 423.571 100.185 423.965 101.652H423.627L423.576 97.2234C423.576 95.7543 423.524 94.2642 423.381 92.8266L423.473 92.942C422.254 92.3964 421.024 91.8927 419.835 91.2316C419.235 90.9008 418.691 90.4719 418.226 89.9618C417.737 89.4434 417.45 88.761 417.416 88.0415C417.373 87.8507 417.382 87.6513 417.444 87.4659C417.506 87.2804 417.617 87.1163 417.765 86.9921C418.076 86.8128 418.439 86.7532 418.789 86.8242C419.441 86.9469 420.082 87.1224 420.706 87.3489L424.447 88.5872C425.072 88.797 425.687 89.0174 426.302 89.2588C426.613 89.3811 426.918 89.5212 427.214 89.6785C427.507 89.8715 427.741 90.144 427.891 90.4655C428.392 91.7225 428.686 93.0557 428.762 94.4111C429.151 99.7419 430.043 105.062 429.91 110.435C429.971 105.062 429.018 99.7629 428.567 94.4321C428.478 93.1059 428.184 91.8025 427.696 90.5705C427.563 90.2882 427.358 90.0487 427.101 89.8779C426.817 89.7237 426.523 89.5904 426.22 89.4791C425.605 89.2378 424.99 89.0279 424.375 88.818L420.634 87.6008C420.022 87.3819 419.395 87.2101 418.759 87.0866C418.468 87.0319 418.168 87.08 417.908 87.223C417.799 87.3074 417.717 87.4241 417.675 87.5574C417.633 87.6907 417.632 87.8341 417.672 87.968C417.712 88.6211 417.977 89.2385 418.42 89.71C418.872 90.1925 419.394 90.5996 419.968 90.9168C421.116 91.5464 422.366 92.0501 423.586 92.5957C423.61 92.6048 423.631 92.6203 423.647 92.6406C423.664 92.6609 423.674 92.6852 423.678 92.7112C423.832 94.2117 423.842 95.6809 423.883 97.1605L423.965 101.589C423.965 101.636 423.947 101.681 423.914 101.715C423.882 101.748 423.837 101.767 423.791 101.767C423.754 101.768 423.717 101.757 423.687 101.734C423.658 101.711 423.636 101.678 423.627 101.641C423.23 100.193 422.757 98.7674 422.213 97.3703C421.639 96.0062 421.106 94.4951 419.886 93.7395C418.591 93.0714 417.211 92.5911 415.786 92.3124C414.355 91.9812 412.903 91.7533 411.441 91.6303C411.082 91.6303 410.713 91.6303 410.354 91.6303C409.996 91.6303 409.822 91.6303 409.801 91.9976C409.911 92.6918 410.278 93.3158 410.826 93.7395C411.851 94.705 413.419 94.9043 414.823 95.3975C415.561 95.6227 416.254 95.9778 416.873 96.4469C417.183 96.7235 417.404 97.0891 417.508 97.4962C417.631 97.8635 417.744 98.2203 417.857 98.5456C418.297 100.004 418.697 101.452 419.076 102.921C419.083 102.944 419.084 102.967 419.081 102.989C419.078 103.012 419.071 103.034 419.059 103.054C419.048 103.073 419.032 103.09 419.014 103.104C418.996 103.117 418.975 103.126 418.953 103.131C418.916 103.139 418.878 103.136 418.843 103.121C418.808 103.106 418.779 103.08 418.759 103.047C417.856 101.193 416.775 99.4349 415.53 97.8006C415.182 97.4228 414.854 97.0345 414.372 97.0031C413.873 96.9273 413.37 96.8887 412.865 96.8876C411.839 96.887 410.812 96.9395 409.791 97.045C409.294 97.0786 408.8 97.1523 408.315 97.2654C408.21 97.2933 408.113 97.3444 408.03 97.4151C407.946 97.4859 407.879 97.5745 407.833 97.6746C407.806 97.7796 407.803 97.8898 407.827 97.9958C407.85 98.1018 407.898 98.2004 407.966 98.2833C408.265 98.6747 408.667 98.9698 409.125 99.1333C409.612 99.2648 410.109 99.3526 410.611 99.3956C411.113 99.4586 411.636 99.5005 412.138 99.5845C412.397 99.6218 412.653 99.6743 412.906 99.7419C413.052 99.7776 413.189 99.8457 413.306 99.9413C413.386 100.064 413.454 100.194 413.511 100.33C413.971 101.276 414.315 102.277 414.536 103.31C414.899 105.403 414.812 107.551 414.28 109.606L413.726 112.754L413.05 115.818C412.512 117.845 412.512 119.982 413.05 122.009C413.819 123.909 414.741 125.798 415.489 127.749Z" fill="#9A4A4D"/>
<path d="M342.075 65.9946L337.698 71.4198L334.285 66.0261C336.851 60.5001 337.521 54.2499 336.187 48.2858C334.853 42.3218 331.594 36.9927 326.935 33.1602C322.277 29.3277 316.493 27.2159 310.517 27.1662C304.542 27.1165 298.724 29.1318 294.006 32.8863C289.288 36.6408 285.944 41.915 284.516 47.856C283.087 53.7971 283.658 60.0577 286.135 65.6255C288.613 71.1934 292.852 75.743 298.167 78.5388C303.483 81.3345 309.564 82.2129 315.427 81.0319C319.93 80.1084 324.122 78.004 327.593 74.9246L337.975 79.9931L342.167 73.0883L350.766 79.3844L342.075 65.9946Z" fill="white"/>
<path d="M319.31 41.198L310.086 59.2471C309.956 59.5045 309.759 59.7201 309.516 59.8701C309.274 60.0201 308.996 60.0986 308.713 60.097H306.304C306.071 60.0976 305.84 60.0437 305.63 59.9394C305.42 59.8351 305.235 59.683 305.091 59.4949C304.947 59.3067 304.846 59.0874 304.797 58.8535C304.748 58.6197 304.752 58.3774 304.808 58.1452L309.348 39.6135C309.469 39.1291 309.745 38.6999 310.131 38.3938C310.517 38.0878 310.992 37.9225 311.48 37.924H317.332C317.711 37.919 318.084 38.0144 318.416 38.2008C318.748 38.3873 319.027 38.6585 319.226 38.9881C319.425 39.3177 319.538 39.6944 319.552 40.0817C319.567 40.4689 319.484 40.8535 319.31 41.198ZM309.707 66.3827C309.707 67.2129 309.467 68.0244 309.016 68.7147C308.566 69.405 307.925 69.943 307.176 70.2607C306.427 70.5783 305.603 70.6615 304.808 70.4995C304.012 70.3376 303.282 69.9378 302.709 69.3508C302.135 68.7637 301.745 68.0158 301.587 67.2016C301.428 66.3874 301.51 65.5434 301.82 64.7764C302.13 64.0094 302.656 63.3539 303.33 62.8927C304.004 62.4314 304.797 62.1853 305.607 62.1853C306.149 62.1852 306.686 62.2952 307.186 62.5087C307.686 62.7223 308.14 63.0352 308.521 63.4295C308.902 63.8237 309.203 64.2914 309.407 64.8055C309.61 65.3196 309.712 65.8699 309.707 66.4247V66.3827Z" fill="#4381CA"/>
<path d="M353.522 82.4065L342.34 74.1585L338.241 80.9479L327.725 75.7955C324.227 78.7838 320.056 80.8323 315.59 81.7559C309.611 82.9584 303.411 82.0673 297.986 79.226C292.561 76.3846 288.227 71.758 285.681 66.09C283.134 60.422 282.523 54.042 283.946 47.9756C285.369 41.9092 288.743 36.509 293.526 32.6431C298.308 28.7773 304.222 26.6704 310.315 26.6612C316.409 26.652 322.328 28.741 327.122 32.5924C331.916 36.4438 335.305 41.8339 336.746 47.8959C338.186 53.958 337.594 60.3398 335.063 66.0155L337.728 70.2129L342.074 64.7562L353.522 82.4065ZM327.51 74.0116L337.677 79.0066L341.93 71.9968L347.947 76.4356L341.961 67.2012L337.574 72.6369L333.403 66.0574L333.577 65.6797C336.221 59.9818 336.763 53.4973 335.104 47.4223C333.444 41.3473 329.695 36.0916 324.548 32.6248C320.299 29.7594 315.319 28.2416 310.231 28.2615C305.143 28.2814 300.174 29.8382 295.947 32.7368C291.72 35.6354 288.422 39.7468 286.467 44.556C284.511 49.3651 283.986 54.6581 284.956 59.7718C285.614 63.1645 286.925 66.3891 288.813 69.2574C290.701 72.1257 293.128 74.5802 295.953 76.4776C300.67 79.6517 306.269 81.164 311.901 80.7853C317.533 80.4065 322.891 78.1573 327.161 74.3789L327.51 74.0116Z" fill="#455A64"/>
</g>
<defs>
<clipPath id="clip0_2063_5253">
<rect width="500" height="500" fill="white"/>
</clipPath>
</defs>
</svg>
