<svg width="605" height="500" viewBox="0 0 605 500" fill="none" xmlns="http://www.w3.org/2000/svg">
<g clip-path="url(#clip0_2148_4706)">
<path d="M543.629 429.463H503.609V429.765H543.629V429.463Z" fill="#EBEBEB"/>
<path d="M400.223 432.751H389.723V433.053H400.223V432.751Z" fill="#EBEBEB"/>
<path d="M502.399 418.248H479.211V418.55H502.399V418.248Z" fill="#EBEBEB"/>
<path d="M115.579 420.278H63.3906V420.58H115.579V420.278Z" fill="#EBEBEB"/>
<path d="M133.993 420.278H126.344V420.58H133.993V420.278Z" fill="#EBEBEB"/>
<path d="M272.056 425.378H158.859V425.68H272.056V425.378Z" fill="#EBEBEB"/>
<path d="M286.376 356.114H53.0594C51.2316 356.111 49.4798 355.382 48.1884 354.089C46.8971 352.795 46.1719 351.041 46.1719 349.213V21.1657C46.1878 19.348 46.9201 17.61 48.2097 16.3292C49.4993 15.0484 51.242 14.3282 53.0594 14.3251H286.376C288.206 14.3251 289.961 15.0521 291.255 16.3463C292.549 17.6405 293.276 19.3958 293.276 21.2261V349.213C293.276 351.043 292.549 352.799 291.255 354.093C289.961 355.387 288.206 356.114 286.376 356.114ZM53.0594 14.5668C51.3117 14.57 49.6367 15.2666 48.402 16.5038C47.1674 17.741 46.474 19.4176 46.474 21.1657V349.213C46.474 350.961 47.1674 352.638 48.402 353.875C49.6367 355.112 51.3117 355.809 53.0594 355.812H286.376C288.125 355.809 289.802 355.112 291.038 353.876C292.275 352.639 292.971 350.962 292.974 349.213V21.1657C292.971 19.4165 292.275 17.7399 291.038 16.5031C289.802 15.2663 288.125 14.57 286.376 14.5668H53.0594Z" fill="#EBEBEB"/>
<path d="M547.748 356.114H314.419C312.59 356.111 310.837 355.383 309.544 354.089C308.251 352.796 307.523 351.042 307.52 349.213V21.1657C307.539 19.3469 308.274 17.6089 309.565 16.3284C310.857 15.0479 312.601 14.3282 314.419 14.3251H547.748C549.564 14.3314 551.303 15.0529 552.59 16.3334C553.877 17.6139 554.608 19.3501 554.624 21.1657V349.213C554.624 351.039 553.9 352.791 552.611 354.084C551.323 355.378 549.574 356.108 547.748 356.114ZM314.419 14.5668C312.67 14.57 310.994 15.2663 309.757 16.5031C308.521 17.7399 307.825 19.4165 307.822 21.1657V349.213C307.825 350.962 308.521 352.639 309.757 353.876C310.994 355.112 312.67 355.809 314.419 355.812H547.748C549.497 355.809 551.173 355.112 552.41 353.876C553.646 352.639 554.343 350.962 554.346 349.213V21.1657C554.343 19.4165 553.646 17.7399 552.41 16.5031C551.173 15.2663 549.497 14.57 547.748 14.5668H314.419Z" fill="#EBEBEB"/>
<path d="M604.167 410.017H0V410.319H604.167V410.017Z" fill="#E0E0E0"/>
<path d="M158.944 219.036H46.4727V410.041H158.944V219.036Z" fill="#F0F0F0"/>
<path d="M164.043 219.036H46.4727V233.237H164.043V219.036Z" fill="#E6E6E6"/>
<path d="M107.466 209.222H66.9265L60.5586 170.076H113.846L107.466 209.222Z" fill="#EBEBEB"/>
<path d="M113.689 171.248L99.6123 171.285L97.1836 209.174L107.467 209.222L113.689 171.248Z" fill="#E0E0E0"/>
<path d="M116.059 140.804H59.0622C53.2763 140.804 48.5859 145.495 48.5859 151.282V160.782C48.5859 166.569 53.2763 171.26 59.0622 171.26H116.059C121.845 171.26 126.536 166.569 126.536 160.782V151.282C126.536 145.495 121.845 140.804 116.059 140.804Z" fill="#EBEBEB"/>
<path d="M126.751 152.974V159.017C126.751 165.749 121.338 171.103 113.387 171.103H98.2227C106.173 171.103 110.306 165.713 110.306 159.017V152.974C110.317 151.377 110.013 149.793 109.412 148.312C108.811 146.832 107.923 145.485 106.801 144.348C105.679 143.211 104.344 142.306 102.872 141.686C101.4 141.065 99.82 140.741 98.2227 140.731H114.608C116.209 140.738 117.793 141.059 119.27 141.678C120.746 142.297 122.087 143.2 123.215 144.337C124.342 145.474 125.235 146.822 125.842 148.304C126.449 149.786 126.758 151.373 126.751 152.974Z" fill="#E0E0E0"/>
<path d="M94.488 181.243H79.8672V189.619H94.488V181.243Z" fill="#E0E0E0"/>
<path d="M88.398 181.243H79.8672V189.619H88.398V181.243Z" fill="#F5F5F5"/>
<path d="M126.172 214.298C126.172 214.958 126.042 215.611 125.789 216.22C125.537 216.83 125.166 217.383 124.699 217.849C124.232 218.315 123.678 218.684 123.068 218.936C122.458 219.187 121.805 219.315 121.146 219.314H53.2493C52.5898 219.315 51.9364 219.187 51.3266 218.936C50.7168 218.684 50.1626 218.315 49.6957 217.849C49.2287 217.383 48.8583 216.83 48.6055 216.22C48.3528 215.611 48.2227 214.958 48.2227 214.298C48.2227 212.964 48.7519 211.684 49.6942 210.739C50.6365 209.794 51.9151 209.262 53.2493 209.258H121.146C122.48 209.262 123.758 209.794 124.701 210.739C125.643 211.684 126.172 212.964 126.172 214.298Z" fill="#E0E0E0"/>
<path d="M99.7218 214.298C99.7154 215.629 99.1834 216.902 98.2418 217.842C97.3001 218.782 96.0253 219.311 94.6952 219.314H53.2493C52.5898 219.315 51.9364 219.187 51.3266 218.936C50.7168 218.684 50.1626 218.315 49.6957 217.849C49.2287 217.383 48.8583 216.83 48.6055 216.22C48.3528 215.611 48.2227 214.958 48.2227 214.298C48.2227 212.964 48.7519 211.684 49.6942 210.739C50.6365 209.794 51.9151 209.262 53.2493 209.258H94.6952C96.0294 209.262 97.3079 209.794 98.2503 210.739C99.1926 211.684 99.7218 212.964 99.7218 214.298Z" fill="#EBEBEB"/>
<path d="M94.8175 156.081C94.8175 157.08 94.6206 158.071 94.238 158.994C93.8555 159.918 93.2948 160.757 92.5879 161.465C91.881 162.172 91.0418 162.732 90.1182 163.115C89.1946 163.498 88.2047 163.695 87.205 163.695C86.4811 163.7 85.7603 163.598 85.0663 163.393C83.4879 162.929 82.1021 161.967 81.1163 160.65C80.1305 159.333 79.5977 157.732 79.5977 156.087C79.5977 154.441 80.1305 152.84 81.1163 151.523C82.1021 150.206 83.4879 149.244 85.0663 148.781C85.7597 148.571 86.4805 148.465 87.205 148.466C89.223 148.47 91.1574 149.273 92.5843 150.7C94.0113 152.127 94.8143 154.062 94.8175 156.081Z" fill="#E0E0E0"/>
<path d="M90.5521 156.081C90.5523 157.729 90.0176 159.333 89.0284 160.652C88.0392 161.97 86.6488 162.932 85.0663 163.392C83.4879 162.929 82.1021 161.967 81.1163 160.65C80.1305 159.333 79.5977 157.732 79.5977 156.087C79.5977 154.441 80.1305 152.84 81.1163 151.523C82.1021 150.206 83.4879 149.244 85.0663 148.781C86.6468 149.241 88.0357 150.201 89.0248 151.517C90.0138 152.833 90.5497 154.434 90.5521 156.081Z" fill="#FAFAFA"/>
<path d="M99.2037 171.345H74.8438V181.086H99.2037V171.345Z" fill="#E0E0E0"/>
<path d="M91.7483 171.345H74.8438V181.086H91.7483V171.345Z" fill="#F5F5F5"/>
<path d="M103.647 159.259C105.416 159.259 106.849 157.825 106.849 156.056C106.849 154.288 105.416 152.854 103.647 152.854C101.879 152.854 100.445 154.288 100.445 156.056C100.445 157.825 101.879 159.259 103.647 159.259Z" fill="#E0E0E0"/>
<path d="M114.608 159.259C116.377 159.259 117.81 157.825 117.81 156.056C117.81 154.288 116.377 152.854 114.608 152.854C112.84 152.854 111.406 154.288 111.406 156.056C111.406 157.825 112.84 159.259 114.608 159.259Z" fill="#E0E0E0"/>
<path d="M60.5615 159.259C62.3299 159.259 63.7635 157.825 63.7635 156.056C63.7635 154.288 62.3299 152.854 60.5615 152.854C58.793 152.854 57.3594 154.288 57.3594 156.056C57.3594 157.825 58.793 159.259 60.5615 159.259Z" fill="#E0E0E0"/>
<path d="M106.766 184.12H94.5859V187.927H106.766V184.12Z" fill="#FAFAFA"/>
<path d="M99.2287 172.433H74.917C74.6344 172.404 74.3727 172.271 74.1824 172.06C73.9921 171.849 73.8867 171.575 73.8867 171.291C73.8867 171.006 73.9921 170.732 74.1824 170.521C74.3727 170.31 74.6344 170.177 74.917 170.148H99.2045C99.3643 170.132 99.5258 170.149 99.6786 170.199C99.8313 170.249 99.9718 170.33 100.091 170.438C100.21 170.546 100.306 170.677 100.371 170.824C100.436 170.971 100.47 171.13 100.47 171.291C100.47 171.451 100.436 171.61 100.371 171.757C100.306 171.904 100.21 172.035 100.091 172.143C99.9718 172.251 99.8313 172.332 99.6786 172.382C99.5258 172.432 99.3643 172.449 99.2045 172.433H99.2287Z" fill="#E0E0E0"/>
<path d="M103.65 160.395C102.792 160.395 101.954 160.141 101.24 159.664C100.527 159.187 99.971 158.509 99.6427 157.717C99.3144 156.924 99.2285 156.051 99.3959 155.21C99.5632 154.368 99.9764 153.595 100.583 152.988C101.19 152.381 101.963 151.968 102.804 151.801C103.646 151.633 104.518 151.719 105.31 152.048C106.103 152.376 106.781 152.932 107.257 153.646C107.734 154.359 107.988 155.198 107.988 156.056C107.988 157.207 107.531 158.311 106.718 159.124C105.904 159.938 104.801 160.395 103.65 160.395ZM103.65 154.002C103.244 154.002 102.847 154.122 102.509 154.348C102.171 154.574 101.908 154.895 101.753 155.27C101.597 155.645 101.556 156.059 101.636 156.457C101.715 156.856 101.911 157.222 102.198 157.509C102.485 157.796 102.851 157.992 103.25 158.071C103.648 158.151 104.061 158.11 104.437 157.954C104.812 157.799 105.133 157.536 105.358 157.198C105.584 156.86 105.705 156.463 105.705 156.056C105.705 155.511 105.488 154.989 105.103 154.603C104.718 154.218 104.195 154.002 103.65 154.002Z" fill="#FAFAFA"/>
<path d="M114.611 160.395C113.753 160.395 112.915 160.141 112.201 159.664C111.488 159.187 110.932 158.509 110.604 157.717C110.275 156.924 110.189 156.051 110.357 155.21C110.524 154.368 110.937 153.595 111.544 152.988C112.151 152.381 112.924 151.968 113.765 151.801C114.607 151.633 115.479 151.719 116.271 152.048C117.064 152.376 117.742 152.932 118.218 153.646C118.695 154.359 118.949 155.198 118.949 156.056C118.949 156.626 118.837 157.19 118.619 157.717C118.401 158.243 118.082 158.721 117.679 159.124C117.276 159.527 116.798 159.847 116.271 160.065C115.745 160.283 115.181 160.395 114.611 160.395ZM114.611 154.002C114.205 154.002 113.808 154.122 113.47 154.348C113.132 154.574 112.869 154.895 112.714 155.27C112.558 155.645 112.517 156.059 112.597 156.457C112.676 156.856 112.872 157.222 113.159 157.509C113.446 157.796 113.812 157.992 114.211 158.071C114.609 158.151 115.022 158.11 115.397 157.954C115.773 157.799 116.094 157.536 116.319 157.198C116.545 156.86 116.666 156.463 116.666 156.056C116.666 155.786 116.612 155.519 116.509 155.27C116.406 155.021 116.255 154.794 116.064 154.603C115.873 154.413 115.647 154.261 115.397 154.158C115.148 154.055 114.881 154.002 114.611 154.002Z" fill="#FAFAFA"/>
<path d="M60.5606 160.395C59.7026 160.395 58.8639 160.141 58.1506 159.664C57.4372 159.187 56.8812 158.509 56.5529 157.717C56.2245 156.924 56.1386 156.051 56.306 155.21C56.4734 154.368 56.8865 153.595 57.4932 152.988C58.0999 152.381 58.8728 151.968 59.7143 151.801C60.5558 151.633 61.428 151.719 62.2206 152.048C63.0133 152.376 63.6908 152.932 64.1674 153.646C64.6441 154.359 64.8985 155.198 64.8985 156.056C64.8985 157.207 64.4415 158.311 63.6279 159.124C62.8144 159.938 61.7111 160.395 60.5606 160.395ZM60.5606 154.002C60.1543 154.002 59.7571 154.122 59.4193 154.348C59.0815 154.574 58.8182 154.895 58.6628 155.27C58.5073 155.645 58.4666 156.059 58.5459 156.457C58.6251 156.856 58.8208 157.222 59.1081 157.509C59.3953 157.796 59.7614 157.992 60.1598 158.071C60.5583 158.151 60.9713 158.11 61.3467 157.954C61.722 157.799 62.0428 157.536 62.2686 157.198C62.4943 156.86 62.6147 156.463 62.6147 156.056C62.6147 155.786 62.5616 155.519 62.4584 155.27C62.3551 155.021 62.2038 154.794 62.0131 154.603C61.8223 154.413 61.5959 154.261 61.3467 154.158C61.0974 154.055 60.8303 154.002 60.5606 154.002Z" fill="#FAFAFA"/>
<path d="M87.0968 153.627C86.7992 153.61 86.5186 153.483 86.3089 153.271C86.0993 153.059 85.9753 152.777 85.9609 152.479V148.672C85.99 148.389 86.1229 148.127 86.3338 147.937C86.5447 147.747 86.8187 147.641 87.1028 147.641C87.3869 147.641 87.6609 147.747 87.8718 147.937C88.0827 148.127 88.2156 148.389 88.2447 148.672V152.479C88.23 152.779 88.1044 153.062 87.8922 153.275C87.68 153.487 87.3965 153.612 87.0968 153.627Z" fill="#E6E6E6"/>
<path d="M148.021 401.835H54.375V242.519H148.021V401.835ZM55.5713 400.626H146.813V243.727H55.5833L55.5713 400.626Z" fill="#E6E6E6" stroke="#FAFAFA" stroke-miterlimit="10"/>
<path d="M67.8004 303.166H60.5625V325.319H67.8004V303.166Z" fill="#E0E0E0"/>
<path d="M514.812 368.297L513.603 368.454C513.519 367.825 506.076 305.498 521.433 254.568C536.707 203.941 526.194 171.683 526.086 171.369L527.294 170.97C527.403 171.297 538.036 203.928 522.654 254.919C507.32 305.595 514.751 367.68 514.812 368.297Z" fill="#E0E0E0"/>
<path d="M528.257 178.306C525.585 175.123 521.958 172.885 517.914 171.925L518.192 170.716C522.508 171.727 526.385 174.1 529.248 177.485L528.257 178.306Z" fill="#E0E0E0"/>
<path d="M533.519 183.527L529.984 185.524L530.591 186.597L534.126 184.6L533.519 183.527Z" fill="#E0E0E0"/>
<path d="M526.929 212.195C523.828 205.198 518.124 199.684 511.027 196.822L511.486 195.613C518.886 198.618 524.824 204.388 528.041 211.7L526.929 212.195Z" fill="#E0E0E0"/>
<path d="M523.606 251.136H522.397C522.348 248.629 521.745 246.165 520.631 243.919C519.518 241.673 517.922 239.7 515.957 238.144L516.718 237.177C518.827 238.849 520.538 240.969 521.729 243.383C522.92 245.797 523.561 248.445 523.606 251.136Z" fill="#E0E0E0"/>
<path d="M520.851 261.095L519.703 260.648C520.335 259.068 521.286 257.636 522.496 256.441C523.706 255.245 525.149 254.312 526.736 253.698L527.171 254.907C525.751 255.452 524.458 256.283 523.371 257.347C522.284 258.411 521.426 259.687 520.851 261.095Z" fill="#E0E0E0"/>
<path d="M512.841 324.268L511.887 323.482C513.397 321.657 514.533 314.756 515.137 311.046C515.294 310.151 515.415 309.402 515.512 308.846L516.72 309.088C516.623 309.62 516.49 310.369 516.345 311.239C515.451 316.787 514.424 322.358 512.841 324.268Z" fill="#E0E0E0"/>
<path d="M512.128 344.101C511.274 341.668 509.672 339.569 507.551 338.106C505.429 336.642 502.898 335.889 500.322 335.955L500.262 334.746C503.106 334.674 505.9 335.506 508.243 337.122C510.585 338.737 512.355 341.053 513.3 343.738L512.128 344.101Z" fill="#E0E0E0"/>
<path d="M521.57 356.984L512.859 366.736L513.778 367.557L522.489 357.806L521.57 356.984Z" fill="#E0E0E0"/>
<path d="M527.741 293.437C529.71 299.83 515.935 312 515.935 312C515.935 312 497.702 309.716 495.732 303.323C493.762 296.929 498.366 286.475 507.211 283.744C516.056 281.012 525.759 287.043 527.741 293.437Z" fill="#F0F0F0"/>
<path d="M543.025 215.845C541.273 222.637 528.235 227.46 528.235 227.46C528.235 227.46 519.136 216.933 520.888 210.141C522.64 203.348 529.842 195.879 535.956 197.45C542.07 199.022 544.765 209.053 543.025 215.845Z" fill="#EBEBEB"/>
<path d="M490.68 317.306C498.873 320.497 503.887 334.988 503.887 334.988C503.887 334.988 490.39 342.239 482.21 339.085C474.029 335.931 465.293 326.902 467.71 320.956C470.127 315.01 482.488 314.128 490.68 317.306Z" fill="#F5F5F5"/>
<path d="M508.635 237.6C510.289 238.988 512.186 240.057 514.23 240.754C515.258 241.089 516.358 241.135 517.41 240.888C518.463 240.641 519.427 240.11 520.199 239.352C521.951 237.334 521.48 234.204 520.38 231.774C518.193 226.94 510.121 218.758 503.923 221.103C494.969 224.499 504.648 234.627 508.635 237.6Z" fill="#E6E6E6"/>
<path d="M526.954 249.891C525.745 251.341 524.537 253.178 525.178 254.931C525.543 255.677 526.146 256.282 526.891 256.649C527.637 257.017 528.483 257.126 529.298 256.961C530.922 256.583 532.439 255.839 533.732 254.786C536.886 252.598 543.399 247.994 539.23 243.691C534.929 239.207 529.431 246.821 526.954 249.891Z" fill="#EBEBEB"/>
<path d="M500.515 188.604C499.831 188.645 499.178 188.9 498.649 189.334C498.12 189.768 497.741 190.359 497.566 191.021C497.3 192.592 498.593 193.958 499.862 194.937C502.992 197.354 512.429 203.88 514.531 197.583C516.513 191.613 504.683 188.144 500.515 188.604Z" fill="#E0E0E0"/>
<path d="M517.904 167.888C515.958 168.082 514.013 167.369 512.068 167.49C510.122 167.61 507.947 169.194 508.443 171.115C508.938 173.037 511.04 173.472 512.841 173.533C515.92 173.723 519.011 173.511 522.036 172.904C522.755 172.841 523.421 172.503 523.897 171.961C524.683 170.753 523.438 169.242 522.097 168.831C520.755 168.42 519.233 168.553 518.013 167.852L517.904 167.888Z" fill="#E6E6E6"/>
<path d="M536.912 181.28C538.87 181.34 540.755 180.506 542.712 180.506C544.67 180.506 546.93 181.92 546.627 183.854C546.325 185.788 544.211 186.368 542.398 186.597C539.342 187.002 536.247 187.002 533.191 186.597C532.465 186.581 531.773 186.287 531.257 185.776C530.4 184.676 531.547 183.032 532.864 182.537C534.182 182.041 535.692 182.077 536.864 181.328L536.912 181.28Z" fill="#F0F0F0"/>
<path d="M534.988 325.235C535.431 324.776 536.022 324.489 536.656 324.425C537.073 324.47 537.463 324.654 537.764 324.948C538.064 325.242 538.257 325.628 538.311 326.044C538.397 326.864 538.29 327.692 537.997 328.462C536.668 332.885 521.805 364.985 518.386 359.22C516.368 355.812 521.334 344.524 522.796 341.333C525.64 335.143 529.801 329.649 534.988 325.235Z" fill="#F0F0F0"/>
<path d="M526.098 169.109C527.306 166.462 528.514 163.695 530.931 161.99C533.348 160.286 536.973 160.153 538.737 162.498C540.646 165.121 538.737 169.097 535.813 170.499C532.888 171.901 529.457 171.478 526.243 171.019L526.17 169.592L526.098 169.109Z" fill="#E6E6E6"/>
<path d="M536.342 410.742C520.564 413.897 504.318 413.897 488.54 410.742L476.082 355.884H548.836L536.342 410.742Z" fill="#F0F0F0"/>
<path d="M302.085 463.932C431.476 463.932 536.368 457.807 536.368 450.251C536.368 442.695 431.476 436.57 302.085 436.57C172.693 436.57 67.8008 442.695 67.8008 450.251C67.8008 457.807 172.693 463.932 302.085 463.932Z" fill="#F5F5F5"/>
<path d="M446.952 71.9628C446.952 102.54 418.157 127.304 387.61 127.304C386.571 127.304 385.544 127.28 384.529 127.232C370.403 126.449 357.112 120.286 347.389 110.007C337.665 99.7275 332.246 86.1138 332.246 71.9628C332.246 57.8117 337.665 44.1981 347.389 33.919C357.112 23.6399 370.403 17.4761 384.529 16.694C385.544 16.694 386.571 16.6094 387.61 16.6094C418.157 16.6094 446.952 41.3975 446.952 71.9628Z" fill="#4381CA"/>
<path opacity="0.3" d="M440.789 71.9627C440.789 101.501 413.638 125.624 384.529 127.232C370.403 126.449 357.112 120.286 347.389 110.007C337.665 99.7274 332.246 86.1138 332.246 71.9627C332.246 57.8117 337.665 44.198 347.389 33.919C357.112 23.6399 370.403 17.4761 384.529 16.694C413.638 18.3014 440.789 42.4369 440.789 71.9627Z" fill="white"/>
<g opacity="0.8">
<path opacity="0.8" d="M432.465 71.9628C432.465 96.4971 408.564 116.378 384.035 116.378C372.258 116.378 360.963 111.699 352.635 103.369C344.307 95.0398 339.629 83.7425 339.629 71.9628C339.629 60.183 344.307 48.8857 352.635 40.5562C360.963 32.2266 372.258 27.5471 384.035 27.5471C408.564 27.5471 432.465 47.4284 432.465 71.9628Z" fill="white"/>
</g>
<path d="M426.614 63.8772L424.427 63.9377C424.294 63.6839 424.523 63.2609 424.837 62.8379L424.922 62.7533C425.265 62.3519 425.636 61.9762 426.034 61.6293H426.106L400.188 62.2457L400.925 63.4542C401.321 64.1435 401.541 64.9197 401.565 65.7143L401.734 72.8812C401.843 77.2563 406.712 80.7129 412.609 80.5799H414.156C418.457 80.4712 422.082 78.477 423.702 75.7456C424.189 75.6425 424.647 75.4319 425.043 75.1292L429.127 71.9265C429.405 71.7251 429.633 71.462 429.792 71.158C429.951 70.854 430.038 70.5172 430.045 70.174L429.949 66.3065C429.913 64.8441 428.402 63.7926 426.614 63.8772ZM428.958 69.6664C428.958 70.875 428.958 70.7904 427.846 71.6485L425.792 73.0625C425.674 73.1337 425.54 73.1731 425.402 73.1769C425.265 73.1807 425.128 73.1488 425.007 73.0843C424.885 73.0198 424.782 72.9249 424.708 72.8089C424.634 72.6928 424.591 72.5595 424.584 72.422C424.584 70.5487 424.584 67.4184 424.499 65.7747C424.556 65.4468 424.734 65.1524 424.998 64.9507C425.263 64.7489 425.594 64.6547 425.925 64.687H426.831C427.967 64.687 428.897 65.3276 428.922 66.1615L428.958 69.6664Z" fill="white"/>
<g opacity="0.8">
<path opacity="0.8" d="M426.614 63.8772L424.427 63.9377C424.294 63.6839 424.523 63.2609 424.837 62.8379L424.922 62.7533C425.265 62.3519 425.636 61.9762 426.034 61.6293H426.106L400.188 62.2457L400.925 63.4542C401.321 64.1435 401.541 64.9197 401.565 65.7143L401.734 72.8812C401.843 77.2563 406.712 80.7129 412.609 80.5799H414.156C418.457 80.4712 422.082 78.477 423.702 75.7456C424.189 75.6425 424.647 75.4319 425.043 75.1292L429.127 71.9265C429.405 71.7251 429.633 71.462 429.792 71.158C429.951 70.854 430.038 70.5172 430.045 70.174L429.949 66.3065C429.913 64.8441 428.402 63.7926 426.614 63.8772ZM428.958 69.6664C428.958 70.875 428.958 70.7904 427.846 71.6485L425.792 73.0625C425.674 73.1337 425.54 73.1731 425.402 73.1769C425.265 73.1807 425.128 73.1488 425.007 73.0843C424.885 73.0198 424.782 72.9249 424.708 72.8089C424.634 72.6928 424.591 72.5595 424.584 72.422C424.584 70.5487 424.584 67.4184 424.499 65.7747C424.556 65.4468 424.734 65.1524 424.998 64.9507C425.263 64.7489 425.594 64.6547 425.925 64.687H426.831C427.967 64.687 428.897 65.3276 428.922 66.1615L428.958 69.6664Z" fill="white"/>
</g>
<path opacity="0.8" d="M418.083 53.2054C418.083 55.4534 415.365 57.2783 412.042 57.2783C408.719 57.2783 406 55.4534 406 53.2054C406 50.9574 408.719 49.1204 412.042 49.1204C415.365 49.1204 418.083 50.9453 418.083 53.2054Z" fill="white"/>
<path opacity="0.8" d="M403.74 46.3649C404.995 46.3649 406.012 45.3476 406.012 44.0927C406.012 42.8378 404.995 41.8206 403.74 41.8206C402.486 41.8206 401.469 42.8378 401.469 44.0927C401.469 45.3476 402.486 46.3649 403.74 46.3649Z" fill="white"/>
<path d="M388.772 77.9816C388.117 78.6345 387.284 79.0788 386.377 79.2583C385.47 79.4378 384.531 79.3445 383.677 78.9901C382.823 78.6357 382.094 78.0362 381.58 77.2673C381.067 76.4984 380.793 75.5946 380.793 74.67C380.793 73.7455 381.067 72.8417 381.58 72.0728C382.094 71.3038 382.823 70.7043 383.677 70.35C384.531 69.9956 385.47 69.9023 386.377 70.0818C387.284 70.2613 388.117 70.7056 388.772 71.3585C389.21 71.7913 389.558 72.307 389.796 72.8754C390.033 73.4439 390.156 74.0539 390.156 74.67C390.156 75.2862 390.033 75.8962 389.796 76.4647C389.558 77.0331 389.21 77.5487 388.772 77.9816Z" fill="#4381CA"/>
<path d="M383.865 75.516L383.043 48.2502L384.578 45.4584L385.858 48.1656L386.608 72.8692L417.601 80.024L419.68 81.2809L417.058 82.8159L383.865 75.516Z" fill="#4381CA"/>
<path d="M246.852 418.308C246.852 418.308 116.883 459.751 323.835 454.251C323.835 454.251 294.376 413.256 246.852 418.308Z" fill="#263238"/>
<path d="M419.849 308.387C401.253 283.514 360.012 285.702 335.447 266.002C320.838 254.278 313.951 236.294 303.16 221.284C282.824 193.075 242.635 169.689 205.285 180.881C193.605 184.512 183.175 191.34 175.174 200.593C163.344 214.105 156.976 231.085 153.061 248.09C145.666 280.124 146.347 313.495 155.043 345.2C161.411 368.224 172.286 390.438 189.601 407.503C198.366 415.95 208.24 423.163 218.951 428.944L219.133 429.052C224.329 431.941 229.706 434.563 235.179 436.993C237.959 438.201 240.75 439.41 243.638 440.558C269.351 450.904 297.614 457.72 325.659 453.973C342.636 451.603 358.906 445.617 373.373 436.42C387.839 427.224 400.165 415.03 409.518 400.663C417.574 388.322 423.345 374.632 426.555 360.247C426.99 358.253 427.389 356.247 427.764 354.204C430.301 338.456 429.479 321.307 419.849 308.387Z" fill="#4381CA"/>
<path opacity="0.2" d="M426.457 360.296C423.248 374.68 417.476 388.37 409.42 400.711C405.239 398.922 396.998 362.036 355.456 357.733C353.74 357.552 332.171 355.667 331.676 354.361C336.231 350.482 369.025 344.27 374.62 341.635C397.059 331.036 417.878 347.364 424.162 356.416C425.012 357.657 425.779 358.953 426.457 360.296Z" fill="black"/>
<path opacity="0.2" d="M224.438 189.208C201.25 189.498 182.75 208.872 182.508 232.064C182.073 273.156 183.898 340.572 219.471 357.141C278.305 384.54 419.221 352.851 407.053 321.73C394.885 290.609 320.585 312.303 301.505 268.89C287.199 236.331 261.558 188.749 224.438 189.208Z" fill="black"/>
<path opacity="0.2" d="M192.877 266.63C194.334 265.747 196.062 265.424 197.74 265.719C199.418 266.015 200.932 266.91 202 268.238C209.25 277.109 210.796 290.524 205.105 300.555C220.946 296.797 227.556 326.105 219.158 338.021C224.596 329.864 226.734 318.599 222.239 309.886C214.808 295.455 218.88 287.696 218.88 287.696C213.37 286.705 210.978 281.411 208.005 274.8C205.033 268.189 199.208 264.648 203.655 256.853C201.193 256.105 198.933 254.805 197.048 253.052C195.164 251.299 193.704 249.139 192.78 246.737C189.638 238.76 190.363 233.95 186.219 235.932C186.171 235.896 198.435 260.152 192.877 266.63Z" fill="black"/>
<path opacity="0.2" d="M214.551 250.072C215.995 249.164 217.719 248.811 219.403 249.078C221.087 249.344 222.618 250.213 223.71 251.523C231.069 260.261 232.894 273.664 227.335 283.78C243.116 279.743 250.294 308.943 242.041 320.956C247.345 312.702 249.291 301.413 244.639 292.772C236.966 278.474 243.177 274.643 243.177 274.643C237.654 273.749 232.882 264.515 229.8 257.952C226.719 251.39 220.822 247.97 225.124 240.09C222.641 239.391 220.351 238.134 218.428 236.414C216.506 234.694 215.002 232.557 214.032 230.167C210.745 222.251 211.361 217.416 207.289 219.471C207.325 219.459 220.001 243.498 214.551 250.072Z" fill="black"/>
<path opacity="0.2" d="M243.66 331.628C234.815 338.638 225.97 347.509 225.137 358.761C254.625 329.231 290.804 307.257 330.6 294.706C323.942 292.288 317.127 294.996 310.626 296.676C302.429 298.978 294.438 301.961 286.738 305.595C271.355 312.452 256.885 321.197 243.66 331.628Z" fill="black"/>
<path opacity="0.2" d="M175.211 346.083C175.128 348.711 175.904 351.296 177.422 353.443C178.413 354.833 180.081 356.114 181.712 355.606C183.343 355.099 184.008 352.996 184.298 351.231C184.723 349.246 184.821 347.205 184.588 345.188C184.459 344.176 184.109 343.205 183.562 342.344C183.014 341.484 182.284 340.754 181.422 340.209C180.542 339.697 179.509 339.511 178.505 339.686C177.501 339.861 176.592 340.384 175.936 341.164C174.957 342.542 175.102 344.391 175.284 346.083" fill="white"/>
<path opacity="0.2" d="M267.477 406.367C275.101 407.817 282.955 408.917 290.628 407.672C293.226 407.249 285.493 404.397 280.768 403.213C259.018 397.726 228.121 390.063 196.825 358.688C189.346 351.183 192.802 365.396 195.532 368.889C206.287 382.655 222.116 392.009 238.223 398.197C247.715 401.775 257.504 404.509 267.477 406.367Z" fill="white"/>
<path opacity="0.2" d="M249.631 350.132C258.246 356.38 269.097 360.127 279.38 357.383C270.729 352.778 264.723 344.306 260.748 335.338C256.772 326.371 254.513 316.762 251.383 307.48C244.548 287.298 233.562 268.771 219.133 253.094C217.598 251.438 205.744 223.278 203.509 222.976C200.947 222.637 195.909 237.866 203.291 252.671C203.291 252.671 209.418 252.284 213.864 268.576C217.429 281.605 214.094 285.569 214.094 285.569C215.435 288.215 218.154 280.565 226.322 298.706C233.705 315.119 231.397 334.964 231.397 334.964C237.379 347.376 243.517 345.696 249.631 350.132Z" fill="black"/>
<path d="M426.799 299.552C426.678 299.577 426.553 299.568 426.438 299.525C426.322 299.483 426.221 299.408 426.146 299.31C423.866 296.264 421.192 293.533 418.195 291.189C418.066 291.084 417.983 290.933 417.965 290.767C417.947 290.602 417.995 290.436 418.099 290.306C418.149 290.241 418.213 290.186 418.285 290.146C418.357 290.105 418.437 290.079 418.519 290.07C418.602 290.061 418.685 290.069 418.764 290.093C418.843 290.117 418.917 290.157 418.981 290.21C422.06 292.625 424.81 295.432 427.161 298.561C427.258 298.696 427.298 298.864 427.274 299.029C427.249 299.194 427.161 299.342 427.028 299.443C426.958 299.491 426.881 299.528 426.799 299.552Z" fill="#4381CA"/>
<path d="M411.416 286.451C411.261 286.485 411.098 286.464 410.957 286.39C402.076 281.326 391.394 277.93 381.063 274.728C367.179 270.377 352.824 265.881 341.864 257.082C341.799 257.032 341.744 256.968 341.704 256.896C341.663 256.824 341.638 256.744 341.629 256.662C341.62 256.579 341.627 256.496 341.651 256.417C341.675 256.337 341.715 256.264 341.768 256.2C341.872 256.07 342.023 255.987 342.189 255.969C342.354 255.951 342.52 255.999 342.65 256.103C353.428 264.745 367.662 269.216 381.437 273.531C391.829 276.794 402.583 280.166 411.585 285.291C411.716 285.343 411.825 285.437 411.895 285.559C411.966 285.68 411.993 285.822 411.974 285.961C411.954 286.1 411.889 286.229 411.788 286.326C411.687 286.424 411.556 286.485 411.416 286.499V286.451Z" fill="#4381CA"/>
<path d="M329.333 203.276C337.018 197.74 332.306 189.824 322.929 186.887H322.844C305.843 187.407 289.337 190.356 265.811 189.002C258.295 188.579 270.548 199.142 271.091 206.648C271.43 211.289 270.197 215.954 275.236 215.869C291.826 215.555 329.333 203.276 329.333 203.276Z" fill="#4381CA"/>
<path opacity="0.7" d="M329.333 203.276C337.018 197.74 332.306 189.824 322.929 186.887H322.844C305.843 187.407 289.337 190.356 265.811 189.002C258.295 188.579 270.548 199.142 271.091 206.648C271.43 211.289 270.197 215.954 275.236 215.869C291.826 215.555 329.333 203.276 329.333 203.276Z" fill="white"/>
<mask id="mask0_2148_4706" style="mask-type:luminance" maskUnits="userSpaceOnUse" x="263" y="186" width="71" height="30">
<path d="M329.333 203.276C337.018 197.74 332.306 189.824 322.929 186.887H322.844C305.843 187.407 289.337 190.356 265.811 189.002C258.295 188.579 270.548 199.142 271.091 206.648C271.43 211.289 270.197 215.954 275.236 215.869C291.826 215.555 329.333 203.276 329.333 203.276Z" fill="white"/>
</mask>
<g mask="url(#mask0_2148_4706)">
<path opacity="0.1" d="M274.801 208.074C276.408 208.4 315.739 207.47 320.451 206.031C325.164 204.593 291.451 216.51 275.236 215.857C259.02 215.205 274.801 208.074 274.801 208.074Z" fill="black"/>
</g>
<path d="M304.588 286.149C293.242 291.987 281.037 295.977 268.435 297.969L241.283 302.271C239.435 296.905 232.668 285.726 220.174 255.825C215.34 240.44 209.83 236.488 209.697 211.615V211.482C209.318 210.532 209.133 209.516 209.154 208.493C209.174 207.47 209.4 206.462 209.816 205.528C210.233 204.594 210.833 203.753 211.581 203.054C212.328 202.356 213.208 201.815 214.168 201.463H214.301C218.12 199.928 222.941 198.115 227.75 196.629C236.907 193.799 246.208 191.459 255.614 189.619C258.781 189.15 261.972 188.867 265.172 188.773C267.314 188.618 269.458 189.037 271.385 189.986C273.311 190.936 274.95 192.382 276.132 194.175C283.249 205.802 294.728 229.696 304.588 286.149Z" fill="#4381CA"/>
<g opacity="0.7">
<path d="M304.588 286.149C293.242 291.987 281.037 295.977 268.435 297.969L241.283 302.271C239.435 296.905 232.668 285.726 220.174 255.825C215.34 240.44 209.83 236.488 209.697 211.615V211.482C209.318 210.532 209.133 209.516 209.154 208.493C209.174 207.47 209.4 206.462 209.816 205.528C210.233 204.594 210.833 203.753 211.581 203.054C212.328 202.356 213.208 201.815 214.168 201.463H214.301C218.12 199.928 222.941 198.115 227.75 196.629C236.907 193.799 246.208 191.459 255.614 189.619C258.781 189.15 261.972 188.867 265.172 188.773C267.314 188.618 269.458 189.037 271.385 189.986C273.311 190.936 274.95 192.382 276.132 194.175C283.249 205.802 294.728 229.696 304.588 286.149Z" fill="white"/>
</g>
<path opacity="0.1" d="M233.127 275.187C232.474 275.018 233.235 280.879 242.105 284.916C250.974 288.953 289.822 267.996 293.278 259.934C293.278 259.934 254.164 280.674 233.127 275.187Z" fill="black"/>
<path opacity="0.1" d="M233.563 264.938C228.947 250.653 223.05 236.452 218.543 226.179C218.602 225.983 218.679 225.792 218.773 225.611C220.307 222.082 225.104 223.508 231.11 230.699C233.572 233.705 235.666 236.996 237.345 240.5C240.233 246.374 246.733 258.013 246.878 260.188C247.495 269.229 240.571 273.217 233.563 264.938Z" fill="black"/>
<path d="M247.492 199.65C233.887 203.88 226.782 196.858 226.782 196.858C231.313 189.28 224.872 173.52 220.559 165.048L229.561 169.363L241.837 175.237C241.882 176.673 242.011 178.106 242.224 179.527C242.364 180.545 242.594 181.548 242.913 182.524L242.973 182.694C244.351 186.779 247.444 189.752 254.319 189.655C254.319 189.691 259.092 196 247.492 199.65Z" fill="#F7978D"/>
<path opacity="0.2" d="M241.839 175.237C241.884 176.673 242.013 178.106 242.226 179.527C242.366 180.545 242.596 181.548 242.915 182.524L242.975 182.694C238.988 182.851 232.994 180.119 231.46 176.373C230.945 175.149 230.568 173.872 230.336 172.566L241.839 175.237Z" fill="black"/>
<path d="M223.699 196.544L227.554 193.897C233.342 197.345 239.854 199.393 246.573 199.88C244.355 202.352 242.921 205.427 242.453 208.715C226.49 207.421 223.699 196.544 223.699 196.544Z" fill="#4381CA"/>
<path d="M254.078 188.93L249.909 189.099C249.909 189.099 250.38 197.753 246.586 199.976C254.404 200.955 256.47 204.17 256.47 204.17C265.835 198.248 254.078 188.93 254.078 188.93Z" fill="#4381CA"/>
<g opacity="0.9">
<path d="M223.699 196.544L227.554 193.897C233.342 197.345 239.854 199.393 246.573 199.88C244.355 202.352 242.921 205.427 242.453 208.715C226.49 207.421 223.699 196.544 223.699 196.544Z" fill="white"/>
<path d="M254.078 188.93L249.909 189.099C249.909 189.099 250.38 197.753 246.586 199.976C254.404 200.955 256.47 204.17 256.47 204.17C265.835 198.248 254.078 188.93 254.078 188.93Z" fill="white"/>
</g>
<path d="M239.893 154.111C239.893 154.111 245.283 157.422 247.143 150.666C241.839 146.533 243.518 145.034 241.658 140.901C240.753 138.43 239.193 136.251 237.146 134.599C235.098 132.947 232.639 131.883 230.033 131.522L225.877 133.697C212.271 144.055 239.893 154.111 239.893 154.111Z" fill="#263238"/>
<path d="M209.239 153.18C208.272 148.897 209.045 144.406 211.388 140.694C213.731 136.982 217.452 134.352 221.733 133.383C234.674 130.12 247.567 143.717 252.328 154.171C253.619 156.858 254.15 159.847 253.865 162.814C253.579 165.782 252.488 168.614 250.708 171.006C248.928 173.397 246.528 175.256 243.768 176.381C241.008 177.506 237.993 177.854 235.049 177.388C225.95 176.058 221.552 170.136 213.202 160.746C211.243 158.613 209.877 156.005 209.239 153.18Z" fill="#F7978D"/>
<path d="M247.71 157.64C247.71 157.64 244.327 158.292 235.832 162.317C238.067 164.734 240.931 166.16 245.293 164.093C246.426 163.621 247.329 162.725 247.81 161.596C248.291 160.467 248.312 159.194 247.867 158.05C247.71 157.917 247.71 157.772 247.71 157.64Z" fill="#263238"/>
<mask id="mask1_2148_4706" style="mask-type:luminance" maskUnits="userSpaceOnUse" x="235" y="157" width="14" height="9">
<path d="M247.71 157.64C247.71 157.64 244.327 158.292 235.832 162.317C238.067 164.734 240.931 166.16 245.293 164.093C246.426 163.621 247.329 162.725 247.81 161.596C248.291 160.467 248.312 159.194 247.867 158.05C247.71 157.917 247.71 157.772 247.71 157.64Z" fill="white"/>
</mask>
<g mask="url(#mask1_2148_4706)">
<path d="M242.369 162.909C244.005 162.011 245.902 161.712 247.734 162.063C247.189 163.028 246.339 163.785 245.318 164.214C243.686 165.109 241.792 165.404 239.965 165.048C240.499 164.081 241.347 163.326 242.369 162.909Z" fill="#FF5652"/>
</g>
<path d="M247.229 157.748C247.307 158.121 247.281 158.509 247.155 158.868C247.03 159.228 246.809 159.547 246.516 159.791C243.991 160.972 241.361 161.919 238.662 162.619C238.234 162.764 237.775 162.793 237.331 162.704C236.888 162.615 236.476 162.41 236.137 162.111C239.701 160.338 243.412 158.878 247.229 157.748Z" fill="white"/>
<path d="M224.271 173.206C224.271 173.206 223.642 159.815 221.467 156.467C220.308 154.386 218.553 152.698 216.428 151.622C214.303 150.545 211.905 150.128 209.541 150.424L205.916 153.325C191.754 169.556 224.271 173.206 224.271 173.206Z" fill="#263238"/>
<path d="M243.302 155.73C244.088 155.407 244.793 154.914 245.368 154.288C245.942 153.661 246.371 152.916 246.625 152.104C243.355 151.199 240.221 149.857 237.309 148.116L243.302 155.73Z" fill="#FF5652"/>
<path d="M214.628 163.344C217.178 161.507 221.878 163.453 224.379 165.387C227.122 167.55 227.545 170.668 224.258 171.43C221.579 171.952 218.802 171.524 216.404 170.221C213.371 168.71 212.078 165.181 214.628 163.344Z" fill="#F7978D"/>
<path d="M230.794 151.222C231.338 150.835 232.341 151.222 232.909 151.971C233.477 152.721 233.549 153.675 233.018 154.074C232.486 154.473 231.592 154.074 230.903 153.337C230.214 152.6 230.263 151.609 230.794 151.222Z" fill="#263238"/>
<path d="M239.701 143.97C240.245 143.584 241.187 143.91 241.816 144.72C242.444 145.529 242.529 146.508 241.985 146.895C241.441 147.282 240.487 146.895 239.858 146.134C239.23 145.372 239.157 144.369 239.701 143.97Z" fill="#263238"/>
<path d="M235.748 141.626C235.844 141.649 235.945 141.649 236.042 141.626C236.138 141.603 236.228 141.557 236.304 141.493C236.84 140.949 237.493 140.534 238.213 140.279C238.933 140.024 239.701 139.935 240.46 140.018C240.535 140.036 240.612 140.039 240.688 140.027C240.764 140.015 240.836 139.988 240.902 139.947C240.967 139.907 241.023 139.854 241.068 139.791C241.112 139.729 241.144 139.658 241.161 139.583C241.194 139.428 241.164 139.266 241.078 139.133C240.992 138.999 240.857 138.905 240.702 138.87C239.752 138.737 238.784 138.826 237.874 139.13C236.964 139.434 236.137 139.945 235.458 140.623C235.347 140.736 235.285 140.887 235.285 141.046C235.285 141.204 235.347 141.356 235.458 141.469C235.541 141.543 235.64 141.597 235.748 141.626Z" fill="#263238"/>
<path d="M227.037 151.452C227.126 151.411 227.205 151.351 227.268 151.275C227.33 151.2 227.375 151.112 227.399 151.016C227.494 150.253 227.761 149.522 228.179 148.877C228.598 148.232 229.158 147.691 229.816 147.294C229.886 147.263 229.949 147.218 230.002 147.162C230.055 147.106 230.096 147.04 230.123 146.968C230.15 146.896 230.162 146.819 230.159 146.743C230.156 146.666 230.138 146.59 230.106 146.521C230.033 146.381 229.91 146.275 229.762 146.223C229.614 146.172 229.452 146.179 229.308 146.243C228.477 146.721 227.769 147.386 227.238 148.185C226.708 148.984 226.37 149.896 226.251 150.847C226.231 151.004 226.272 151.163 226.367 151.289C226.462 151.416 226.603 151.5 226.759 151.524C226.856 151.52 226.95 151.495 227.037 151.452Z" fill="#263238"/>
<path d="M235.735 135.716C235.155 134.35 234.805 130.99 233.161 129.25C232.335 128.381 231.333 127.698 230.223 127.246C229.113 126.794 227.919 126.583 226.721 126.627C223.168 126.772 220.123 129.105 217.344 131.341C216.654 131.831 216.057 132.441 215.58 133.141C215.344 133.495 215.205 133.905 215.177 134.329C215.149 134.753 215.234 135.177 215.423 135.559C215.665 135.911 215.996 136.193 216.382 136.375C216.769 136.558 217.196 136.635 217.622 136.598C218.468 136.598 224.655 135.124 227.385 134.833C228.533 134.688 233.343 134.35 235.735 135.716Z" fill="#263238"/>
<path d="M198.435 146.968C195.934 152.165 198.266 159.791 202.507 163.344C204.241 164.687 206.049 165.934 207.92 167.079L212.886 158.147C215.421 154.599 216.6 150.259 216.209 145.916C216.109 144.573 216.286 143.224 216.729 141.952C217.278 140.432 218.18 139.065 219.361 137.962C220.541 136.859 221.967 136.052 223.52 135.607C224.728 135.293 226.239 134.809 226.178 133.601C226.118 132.392 223.653 131.183 221.997 130.773C215.496 128.984 206.108 130.978 198.435 146.968Z" fill="#263238"/>
<path opacity="0.2" d="M216.186 145.239C216.56 138.979 219.907 136.779 224.982 135.111C224.314 134.02 223.241 133.237 221.998 132.936C216.621 131.679 215.086 141.384 216.186 145.239Z" fill="black"/>
<path d="M226.564 133.323C227.134 133.542 227.643 133.894 228.05 134.35C229.073 135.536 229.849 136.915 230.332 138.405C230.816 139.895 230.997 141.467 230.865 143.028C231.419 141.058 231.477 138.982 231.034 136.985C230.872 135.722 230.496 134.496 229.923 133.359C229.33 132.221 228.322 131.356 227.107 130.942C226.498 130.748 225.845 130.736 225.229 130.908C224.613 131.08 224.061 131.428 223.639 131.909C223.168 132.537 222.721 134.193 223.748 134.326C224.775 134.459 225.138 132.839 226.564 133.323Z" fill="#263238"/>
<path d="M225.127 219.048C225.731 220.607 226.529 222.517 227.266 224.305L229.562 229.72C231.157 233.346 232.752 236.85 234.468 240.331C236.183 243.812 237.972 247.184 239.917 250.35C241.69 253.426 243.711 256.353 245.959 259.101C246.938 260.309 251.215 256.961 266.029 257.179C269.446 257.141 272.843 256.649 276.131 255.717C277.956 255.233 279.756 254.665 281.508 254.037L284.154 253.046L286.668 252.03L292.649 260.188C291.67 261.095 290.861 261.772 290.003 262.605C289.163 263.387 288.271 264.109 287.332 264.769C285.476 266.126 283.539 267.369 281.532 268.491C277.291 270.908 246.491 284.916 238.528 280.505C230.601 274.462 220.511 257.952 216.379 249.819C214.313 245.891 212.428 242.023 210.7 238.119C209.818 236.077 209.02 234.167 208.211 232.137C208.066 231.774 207.776 231.049 207.377 230.082C203.462 220.293 202.362 208.932 211.594 202.659L217.877 200.242L225.127 219.048Z" fill="#4381CA"/>
<path opacity="0.7" d="M225.127 219.048C225.731 220.607 226.529 222.517 227.266 224.305L229.562 229.72C231.157 233.346 232.752 236.85 234.468 240.331C236.183 243.812 237.972 247.184 239.917 250.35C241.69 253.426 243.711 256.353 245.959 259.101C246.938 260.309 251.215 256.961 266.029 257.179C269.446 257.141 272.843 256.649 276.131 255.717C277.956 255.233 279.756 254.665 281.508 254.037L284.154 253.046L286.668 252.03L292.649 260.188C291.67 261.095 290.861 261.772 290.003 262.605C289.163 263.387 288.271 264.109 287.332 264.769C285.476 266.126 283.539 267.369 281.532 268.491C277.291 270.908 246.491 284.916 238.528 280.505C230.601 274.462 220.511 257.952 216.379 249.819C214.313 245.891 212.428 242.023 210.7 238.119C209.818 236.077 209.02 234.167 208.211 232.137C208.066 231.774 207.776 231.049 207.377 230.082C203.462 220.293 202.362 208.932 211.594 202.659L217.877 200.242L225.127 219.048Z" fill="white"/>
<path d="M294.836 248.67C296.189 249.408 298.171 249.625 299.186 248.477C301.083 246.531 302.509 243.715 301.759 241.056C298.811 237.431 296.757 243.534 295.102 245.008C294.038 245.963 293.313 247.861 294.836 248.67Z" fill="#F7978D"/>
<path d="M300.38 244.162C300.536 244.727 300.759 245.271 301.045 245.782C301.431 246.538 301.884 247.258 302.398 247.933C303.119 248.796 303.962 249.549 304.9 250.169L305.54 250.556C306.108 250.928 306.706 251.251 307.328 251.523C308.508 252.102 309.788 252.451 311.098 252.55C311.223 252.554 311.346 252.588 311.455 252.649C311.564 252.71 311.657 252.796 311.727 252.9C311.92 253.178 312.162 253.432 312.379 253.698C312.597 253.964 312.754 254.157 312.911 254.399C313.119 254.758 313.443 255.035 313.829 255.185C314.566 255.467 315.348 255.61 316.137 255.608C318.195 255.691 320.255 255.5 322.263 255.04C323.308 254.833 324.34 254.571 325.357 254.254C326.454 253.906 327.524 253.478 328.559 252.973C329.393 252.591 330.17 252.095 330.867 251.499C331.159 251.255 331.373 250.932 331.483 250.568C331.483 250.362 331.483 250.169 331.592 249.976C331.725 249.396 331.857 248.828 331.978 248.26C332.184 247.377 332.305 246.495 332.425 245.601C332.546 244.706 332.679 243.86 332.715 243.002C332.752 242.144 332.788 241.226 332.715 240.319C332.715 238.82 332.619 237.31 332.522 235.799C332.522 235.098 332.329 234.3 332.244 233.587C332.175 233.015 332.02 232.457 331.785 231.931C331.608 231.566 331.347 231.247 331.024 231.001C330.106 230.353 329.066 229.901 327.967 229.671C326.931 229.444 325.872 229.343 324.813 229.369C324.366 229.369 323.931 229.369 323.484 229.369C318.829 229.491 314.255 230.612 310.071 232.657C309.232 233.059 308.425 233.524 307.655 234.047C306.986 234.528 306.377 235.088 305.842 235.714C305.423 236.17 305.106 236.71 304.912 237.298C304.845 237.526 304.809 237.761 304.803 237.999C304.803 238.277 304.803 238.289 304.513 238.289C303.786 238.243 303.059 238.392 302.409 238.721C301.759 239.051 301.209 239.548 300.815 240.162C300.505 240.682 300.311 241.264 300.247 241.866C300.13 242.632 300.175 243.415 300.38 244.162ZM310.99 238.833C310.054 238.832 309.122 238.726 308.21 238.518C307.979 238.496 307.756 238.421 307.558 238.301C307.726 237.717 308.037 237.185 308.464 236.754C308.746 236.473 309.049 236.215 309.37 235.98C309.928 235.57 310.518 235.206 311.135 234.893C312.093 234.433 313.078 234.03 314.083 233.684C315.046 233.345 316.026 233.054 317.019 232.814C317.937 232.572 318.699 232.451 319.641 232.282C320.841 232.091 322.052 231.974 323.266 231.931C324.479 231.871 325.694 231.944 326.891 232.149C327.914 232.305 328.879 232.721 329.695 233.358C329.695 233.358 329.695 233.358 329.634 233.442L329.417 233.672C329.209 233.874 328.987 234.059 328.752 234.228C327.877 234.878 326.928 235.422 325.925 235.847C325.695 235.956 325.465 236.065 325.236 236.149L324.849 236.307C324.1 236.621 323.327 236.875 322.565 237.116C321.804 237.358 321.067 237.564 320.294 237.733L318.53 238.156C318.486 238.168 318.44 238.168 318.397 238.156L318.07 238.24C317.285 238.373 316.487 238.494 315.654 238.603C314.82 238.712 314.252 238.808 313.527 238.869C312.802 238.929 311.811 238.845 310.99 238.833ZM303.897 242.833C303.903 242.485 304.015 242.147 304.218 241.864C304.421 241.582 304.705 241.367 305.032 241.25L305.528 241.105C305.927 242.229 306.398 243.268 306.833 244.32C307.389 245.721 308.041 247.051 308.742 248.38C309.059 249.038 309.466 249.648 309.95 250.193L309.02 249.698C308.134 249.156 307.322 248.502 306.603 247.752C305.809 247.013 305.122 246.167 304.561 245.238C304.1 244.523 303.868 243.684 303.897 242.833Z" fill="#4381CA"/>
<path opacity="0.8" d="M300.38 244.162C300.536 244.727 300.759 245.271 301.045 245.782C301.431 246.538 301.884 247.258 302.398 247.933C303.119 248.796 303.962 249.549 304.9 250.169L305.54 250.556C306.108 250.928 306.706 251.251 307.328 251.523C308.508 252.102 309.788 252.451 311.098 252.55C311.223 252.554 311.346 252.588 311.455 252.649C311.564 252.71 311.657 252.796 311.727 252.9C311.92 253.178 312.162 253.432 312.379 253.698C312.597 253.964 312.754 254.157 312.911 254.399C313.119 254.758 313.443 255.035 313.829 255.185C314.566 255.467 315.348 255.61 316.137 255.608C318.195 255.691 320.255 255.5 322.263 255.04C323.308 254.833 324.34 254.571 325.357 254.254C326.454 253.906 327.524 253.478 328.559 252.973C329.393 252.591 330.17 252.095 330.867 251.499C331.159 251.255 331.373 250.932 331.483 250.568C331.483 250.362 331.483 250.169 331.592 249.976C331.725 249.396 331.857 248.828 331.978 248.26C332.184 247.377 332.305 246.495 332.425 245.601C332.546 244.706 332.679 243.86 332.715 243.002C332.752 242.144 332.788 241.226 332.715 240.319C332.715 238.82 332.619 237.31 332.522 235.799C332.522 235.098 332.329 234.3 332.244 233.587C332.175 233.015 332.02 232.457 331.785 231.931C331.608 231.566 331.347 231.247 331.024 231.001C330.106 230.353 329.066 229.901 327.967 229.671C326.931 229.444 325.872 229.343 324.813 229.369C324.366 229.369 323.931 229.369 323.484 229.369C318.829 229.491 314.255 230.612 310.071 232.657C309.232 233.059 308.425 233.524 307.655 234.047C306.986 234.528 306.377 235.088 305.842 235.714C305.423 236.17 305.106 236.71 304.912 237.298C304.845 237.526 304.809 237.761 304.803 237.999C304.803 238.277 304.803 238.289 304.513 238.289C303.786 238.243 303.059 238.392 302.409 238.721C301.759 239.051 301.209 239.548 300.815 240.162C300.505 240.682 300.311 241.264 300.247 241.866C300.13 242.632 300.175 243.415 300.38 244.162ZM310.99 238.833C310.054 238.832 309.122 238.726 308.21 238.518C307.979 238.496 307.756 238.421 307.558 238.301C307.726 237.717 308.037 237.185 308.464 236.754C308.746 236.473 309.049 236.215 309.37 235.98C309.928 235.57 310.518 235.206 311.135 234.893C312.093 234.433 313.078 234.03 314.083 233.684C315.046 233.345 316.026 233.054 317.019 232.814C317.937 232.572 318.699 232.451 319.641 232.282C320.841 232.091 322.052 231.974 323.266 231.931C324.479 231.871 325.694 231.944 326.891 232.149C327.914 232.305 328.879 232.721 329.695 233.358C329.695 233.358 329.695 233.358 329.634 233.442L329.417 233.672C329.209 233.874 328.987 234.059 328.752 234.228C327.877 234.878 326.928 235.422 325.925 235.847C325.695 235.956 325.465 236.065 325.236 236.149L324.849 236.307C324.1 236.621 323.327 236.875 322.565 237.116C321.804 237.358 321.067 237.564 320.294 237.733L318.53 238.156C318.486 238.168 318.44 238.168 318.397 238.156L318.07 238.24C317.285 238.373 316.487 238.494 315.654 238.603C314.82 238.712 314.252 238.808 313.527 238.869C312.802 238.929 311.811 238.845 310.99 238.833ZM303.897 242.833C303.903 242.485 304.015 242.147 304.218 241.864C304.421 241.582 304.705 241.367 305.032 241.25L305.528 241.105C305.927 242.229 306.398 243.268 306.833 244.32C307.389 245.721 308.041 247.051 308.742 248.38C309.059 249.038 309.466 249.648 309.95 250.193L309.02 249.698C308.134 249.156 307.322 248.502 306.603 247.752C305.809 247.013 305.122 246.167 304.561 245.238C304.1 244.523 303.868 243.684 303.897 242.833Z" fill="white"/>
<path opacity="0.7" d="M306.919 239.123C308.949 240.331 312.96 240.392 319.352 238.953C325.744 237.515 329.309 235.702 330.65 233.769C330.981 233.182 331.071 232.491 330.902 231.839C330.733 231.188 330.318 230.627 329.744 230.276C329.207 230.042 328.648 229.86 328.077 229.732C327.041 229.505 325.982 229.403 324.923 229.43C324.476 229.43 324.041 229.43 323.594 229.43C318.941 229.552 314.37 230.677 310.193 232.729C309.352 233.123 308.544 233.584 307.777 234.107C307.377 234.395 306.997 234.71 306.641 235.05C306.351 235.314 306.126 235.641 305.98 236.005C305.834 236.369 305.772 236.762 305.799 237.153C305.826 237.544 305.94 237.925 306.134 238.266C306.328 238.607 306.596 238.899 306.919 239.123ZM307.607 238.361C307.777 237.782 308.089 237.254 308.514 236.826C308.795 236.545 309.093 236.283 309.408 236.041C309.967 235.628 310.562 235.264 311.184 234.953C312.134 234.483 313.115 234.08 314.12 233.744C315.111 233.394 316.042 233.116 317.057 232.862C318.072 232.608 318.736 232.499 319.691 232.342C320.89 232.147 322.101 232.026 323.316 231.98C324.529 231.924 325.744 232.001 326.941 232.209C327.964 232.362 328.93 232.778 329.744 233.418C329.744 233.418 329.744 233.418 329.684 233.491C329.613 233.577 329.537 233.658 329.454 233.732C329.255 233.934 329.041 234.119 328.814 234.288C327.93 234.932 326.978 235.475 325.974 235.908L325.273 236.21L324.887 236.367C324.143 236.671 323.385 236.937 322.615 237.165C321.866 237.406 321.117 237.612 320.343 237.781C319.751 237.914 319.135 238.083 318.567 238.204H318.446H318.386L318.108 238.264H318.047C317.262 238.409 316.477 238.518 315.631 238.627C314.785 238.736 314.217 238.833 313.504 238.893C312.791 238.953 311.849 238.893 311.087 238.893C310.153 238.885 309.221 238.78 308.308 238.579C308.036 238.549 307.774 238.454 307.547 238.301L307.607 238.361Z" fill="white"/>
<path d="M307.559 238.301C307.757 238.421 307.98 238.496 308.211 238.518C309.123 238.726 310.055 238.831 310.99 238.832C311.812 238.832 312.646 238.832 313.407 238.832C314.168 238.832 314.833 238.675 315.534 238.567C316.234 238.458 317.129 238.337 317.95 238.204L318.277 238.119C318.32 238.131 318.366 238.131 318.409 238.119L320.174 237.696C320.947 237.527 321.708 237.31 322.445 237.08C323.182 236.85 323.98 236.585 324.729 236.27L325.116 236.113C325.345 236.029 325.575 235.92 325.804 235.811C326.808 235.386 327.757 234.842 328.632 234.192C328.867 234.023 329.089 233.837 329.296 233.636L329.514 233.406C329.514 233.406 329.514 233.406 329.574 233.321C328.759 232.685 327.794 232.269 326.771 232.113C325.574 231.908 324.359 231.835 323.146 231.895C321.932 231.938 320.721 232.055 319.521 232.246C318.579 232.415 317.817 232.536 316.899 232.777C315.906 233.018 314.926 233.308 313.963 233.648C312.958 233.993 311.973 234.397 311.014 234.856C310.397 235.17 309.807 235.533 309.25 235.944C308.929 236.178 308.626 236.437 308.344 236.717C307.956 237.172 307.686 237.716 307.559 238.301Z" fill="#263238"/>
<path opacity="0.3" d="M307.147 236.319C307.313 236.034 307.507 235.767 307.727 235.521C308.621 234.518 310.711 232.886 315.267 231.388C316.817 230.871 318.416 230.514 320.04 230.324C322.824 229.879 325.672 230.061 328.377 230.856C328.682 230.988 328.974 231.15 329.247 231.339C329.546 231.542 329.759 231.848 329.844 232.199C329.929 232.55 329.88 232.92 329.706 233.237C329.628 233.339 329.543 233.436 329.452 233.527C326.577 231.533 320.1 232.512 317.985 232.91C315.871 233.309 309.636 235.328 307.896 238.397C307.773 238.36 307.655 238.308 307.545 238.24C307.25 238.028 307.046 237.713 306.972 237.357C306.898 237.001 306.96 236.631 307.147 236.319Z" fill="black"/>
<path d="M306.689 243.957C306.689 243.957 309.106 249.577 308.514 250.254L305.831 253.311C305.831 253.311 299.789 259.294 293.506 260.418C292.431 260.59 291.329 260.429 290.348 259.956C289.367 259.483 288.555 258.72 288.02 257.771L287.477 256.804C287.234 256.367 287.04 255.905 286.897 255.426C286.147 252.78 286.993 251.233 289.156 249.577L295.343 244.597C295.903 244.173 296.575 243.921 297.276 243.872L304.719 241.709C305.71 241.661 306.145 242.374 306.689 243.957Z" fill="#F7978D"/>
<path d="M284.191 253.046C285.632 253.949 286.775 255.256 287.478 256.804C288.686 259.366 290.04 262.569 290.04 262.569L292.686 260.152C292.686 260.152 291.852 255.608 289.568 253.324L287.285 251.039C286.339 251.831 285.3 252.504 284.191 253.046Z" fill="#4381CA"/>
<path opacity="0.9" d="M284.191 253.046C285.632 253.949 286.775 255.256 287.478 256.804C288.686 259.366 290.04 262.569 290.04 262.569L292.686 260.152C292.686 260.152 291.852 255.608 289.568 253.324L287.285 251.039C286.339 251.831 285.3 252.504 284.191 253.046Z" fill="white"/>
<path d="M280.989 153.168C281.294 152.718 281.447 152.182 281.428 151.639C281.408 151.096 281.216 150.573 280.88 150.146C280.25 149.427 279.446 148.881 278.545 148.561C277.644 148.242 276.675 148.159 275.733 148.321C273.219 150.364 277.437 151.814 278.452 152.974C279.128 153.687 280.421 154.195 280.989 153.168Z" fill="#F7978D"/>
<path d="M262.596 147.802C256.554 150.086 252.929 155.247 254.512 159.344C256.095 163.441 262.197 164.903 268.202 162.631C274.208 160.359 277.869 155.186 276.298 151.089C274.727 146.992 268.625 145.529 262.596 147.802ZM264.746 154.11C262.91 154.799 261.218 154.836 260.964 154.183C260.711 153.53 262.004 152.431 263.84 151.766C265.677 151.101 267.381 151.041 267.634 151.693C267.888 152.346 266.583 153.409 264.746 154.11Z" fill="#4381CA"/>
<path d="M256.457 160.673C256.783 160.443 256.783 159.948 257.025 159.622C257.204 159.436 257.438 159.312 257.692 159.268C257.946 159.225 258.208 159.264 258.439 159.38C258.888 159.627 259.323 159.897 259.744 160.19C260.505 160.575 261.385 160.656 262.205 160.416C263.024 160.175 263.721 159.632 264.154 158.896C264.274 158.625 264.433 158.373 264.625 158.147C265.229 157.531 266.257 157.857 267.127 157.93C267.841 157.968 268.551 157.804 269.177 157.458C269.803 157.112 270.319 156.597 270.667 155.972C270.829 155.563 271.063 155.187 271.356 154.86C272.081 154.243 273.204 154.606 274.087 154.28C274.524 154.067 274.904 153.752 275.192 153.36C275.48 152.969 275.669 152.513 275.742 152.032C275.863 151.536 275.935 151.029 276.032 150.533C274.147 146.907 268.335 145.699 262.595 147.802C257.689 149.663 254.367 153.458 254.137 157.011C254.085 157.804 254.201 158.598 254.475 159.344C254.634 159.73 254.833 160.098 255.067 160.443C255.207 160.544 255.357 160.629 255.514 160.697C255.661 160.772 255.824 160.809 255.989 160.805C256.153 160.8 256.314 160.755 256.457 160.673ZM263.84 151.73C265.689 151.029 267.38 151.004 267.634 151.657C267.888 152.31 266.583 153.409 264.746 154.074C262.909 154.739 261.218 154.799 260.964 154.147C260.71 153.494 262.003 152.431 263.84 151.73Z" fill="#263238"/>
<path d="M276.953 149.76V149.82C275.073 150.097 273.169 150.17 271.274 150.037C270.734 149.986 270.19 150.046 269.675 150.216C269.16 150.386 268.686 150.66 268.282 151.023C267.879 151.385 267.556 151.827 267.332 152.321C267.109 152.816 266.99 153.351 266.984 153.893V154.703C267.016 155.699 267.346 156.663 267.932 157.469C268.518 158.275 269.333 158.886 270.271 159.223L281.267 161.434L288.904 161.737L291.731 155.633L276.953 149.76Z" fill="#F7978D"/>
<path opacity="0.3" d="M309.602 183.443L313.094 189.172C315.698 193.482 319.591 196.864 324.222 198.84C326.158 198.985 328.097 198.627 329.853 197.801C331.968 196.496 309.602 183.443 309.602 183.443Z" fill="black"/>
<path d="M287.996 162.897C287.996 162.897 316.912 205.645 326.252 203.433C335.206 201.306 344.897 192.556 290.546 153.422L287.996 162.897Z" fill="#4381CA"/>
<path opacity="0.7" d="M287.996 162.897C287.996 162.897 316.912 205.645 326.252 203.433C335.206 201.306 344.897 192.556 290.546 153.422L287.996 162.897Z" fill="white"/>
<path d="M288.19 163.417C288.433 161.381 289.274 159.463 290.607 157.905C290.828 157.652 291.062 157.41 291.308 157.18C291.563 156.832 291.86 156.516 292.19 156.238C292.506 155.978 292.855 155.763 293.229 155.597L293.422 155.416L290.486 153.446C288.292 155.258 286.491 157.499 285.194 160.032C284.808 161.139 284.62 162.305 284.638 163.477C285.254 163.477 285.846 163.332 286.462 163.296C287.041 163.286 287.619 163.326 288.19 163.417Z" fill="#4381CA"/>
<path opacity="0.9" d="M288.19 163.417C288.433 161.381 289.274 159.463 290.607 157.905C290.828 157.652 291.062 157.41 291.308 157.18C291.563 156.832 291.86 156.516 292.19 156.238C292.506 155.978 292.855 155.763 293.229 155.597L293.422 155.416L290.486 153.446C288.292 155.258 286.491 157.499 285.194 160.032C284.808 161.139 284.62 162.305 284.638 163.477C285.254 163.477 285.846 163.332 286.462 163.296C287.041 163.286 287.619 163.326 288.19 163.417Z" fill="white"/>
<path opacity="0.2" d="M465.488 380.31L469.017 382.304L476.315 371.318L472.992 368.708L465.488 380.31Z" fill="black"/>
<path d="M473.56 367.837L464.558 381.736C464.558 381.736 425.891 373.433 382.718 332.438L382.851 331.701C358.056 337.743 287.61 337.091 276.082 324.618C270.101 317.942 266.343 309.571 265.328 300.664L304.696 287.805C304.696 287.805 360.182 293.521 387.189 306.538C415.536 317.318 473.56 367.837 473.56 367.837Z" fill="#4381CA"/>
<path d="M473.56 367.837L464.558 381.736C464.558 381.736 425.891 373.433 382.718 332.438L382.851 331.701C358.056 337.743 287.61 337.091 276.082 324.618C270.101 317.942 266.343 309.571 265.328 300.664L304.696 287.805C304.696 287.805 360.182 293.521 387.189 306.538C415.536 317.318 473.56 367.837 473.56 367.837Z" fill="#4381CA"/>
<path opacity="0.6" d="M473.56 367.837L464.558 381.736C464.558 381.736 425.891 373.433 382.718 332.438L382.851 331.701C358.056 337.743 287.61 337.091 276.082 324.618C270.101 317.942 266.343 309.571 265.328 300.664L304.696 287.805C304.696 287.805 360.182 293.521 387.189 306.538C415.536 317.318 473.56 367.837 473.56 367.837Z" fill="black"/>
<mask id="mask2_2148_4706" style="mask-type:luminance" maskUnits="userSpaceOnUse" x="265" y="287" width="209" height="95">
<path d="M473.56 367.837L464.558 381.736C464.558 381.736 425.891 373.433 382.718 332.438L382.851 331.701C358.056 337.743 287.61 337.091 276.082 324.618C270.101 317.942 266.343 309.571 265.328 300.664L304.696 287.805C304.696 287.805 360.182 293.521 387.189 306.538C415.536 317.318 473.56 367.837 473.56 367.837Z" fill="white"/>
</mask>
<g mask="url(#mask2_2148_4706)">
<path opacity="0.3" d="M389.085 338.287C401.394 346.841 414.52 354.152 428.271 360.114C441.702 365.666 455.463 370.38 469.475 374.231L473.608 367.837C473.608 367.837 366.803 320.787 389.085 338.287Z" fill="black"/>
</g>
<path d="M241.062 301.691C241.062 301.691 242.005 326.951 251.019 338.517L312.499 306.381L311.919 304.386C311.149 301.697 311.172 298.842 311.987 296.166C312.801 293.49 314.373 291.107 316.511 289.303C312.185 288.723 307.46 288.844 304.065 285.363C304.065 285.363 292.417 295.818 241.062 301.691Z" fill="#4381CA"/>
<g opacity="0.6">
<path d="M241.062 301.691C241.062 301.691 242.005 326.951 251.019 338.517L312.499 306.381L311.919 304.386C311.149 301.697 311.172 298.842 311.987 296.166C312.801 293.49 314.373 291.107 316.511 289.303C312.185 288.723 307.46 288.844 304.065 285.363C304.065 285.363 292.417 295.818 241.062 301.691Z" fill="black"/>
</g>
<path d="M476.106 354.374L478.958 355.751L480.009 356.259L489.712 360.948L490.679 361.42L489.797 373.203L489.76 373.723L488.866 373.445L484.939 372.237L476.71 369.711L474.898 369.155L471.031 367.97L471.78 365.964L476.094 354.386L476.106 354.374Z" fill="#FFC3BD"/>
<mask id="mask3_2148_4706" style="mask-type:luminance" maskUnits="userSpaceOnUse" x="471" y="354" width="20" height="20">
<path d="M476.106 354.374L478.958 355.751L480.009 356.259L489.712 360.948L490.679 361.42L489.797 373.203L489.76 373.723L488.866 373.445L484.939 372.237L476.71 369.711L474.898 369.155L471.031 367.97L471.78 365.964L476.094 354.386L476.106 354.374Z" fill="white"/>
</mask>
<g mask="url(#mask3_2148_4706)">
<path opacity="0.2" d="M478.766 355.836L473.703 369.155L473.437 369.844L469.316 368.514L470.102 366.339L474.597 353.769L477.642 355.28L478.766 355.836Z" fill="black"/>
</g>
<path d="M512.332 351.098L510.87 353.939V354.059C510.64 354.458 510.096 355.51 509.371 356.875L508.695 358.084C508.344 358.737 507.982 359.45 507.583 360.175C507.317 360.682 507.063 361.166 506.797 361.637C506.23 362.713 505.71 363.728 505.214 364.695C502.085 370.883 501.191 373.373 498.798 378.316C498.517 378.89 498.02 379.33 497.415 379.539C496.81 379.747 496.147 379.707 495.572 379.428L486.957 374.485L485.35 373.53C485.241 373.464 485.146 373.377 485.071 373.275C484.995 373.173 484.941 373.056 484.911 372.933C484.88 372.809 484.875 372.681 484.894 372.555C484.913 372.43 484.957 372.309 485.023 372.2L489.857 360.924C490.912 359.607 492.173 358.468 493.59 357.552C498.013 355.365 501.553 354.494 508.598 345.466C510.012 343.521 514.99 345.841 512.332 351.098Z" fill="#263238"/>
<path opacity="0.2" d="M486.957 374.485C486.957 374.485 504.671 365.722 506.774 361.758C506.206 362.834 505.686 363.849 505.191 364.816C502.061 371.004 501.167 373.494 498.775 378.437C498.493 379.011 497.996 379.451 497.391 379.66C496.786 379.868 496.124 379.828 495.548 379.549L486.957 374.485Z" fill="black"/>
<path d="M476.482 353.358L476.107 354.374L471.781 366.024L471.032 368.031L470.404 369.723L466.199 368.393L441.174 360.453C423.049 357.202 389.035 338.348 389.035 338.348C364.977 350.107 278.98 363.861 264.359 353.685C256.722 348.191 250.983 340.457 247.938 331.556L264.625 322.515C287.03 310.547 312.051 304.318 337.451 304.386C356.361 304.386 377.676 305.341 391.765 308.665C423.218 313.306 476.482 353.358 476.482 353.358Z" fill="#4381CA"/>
<path d="M485.124 378.243L481.752 389.507L477.572 387.151L465.488 380.31L472.992 368.708L474.768 370.109L476.315 371.318L484.314 377.603L485.124 378.243Z" fill="#FFC3BD"/>
<mask id="mask4_2148_4706" style="mask-type:luminance" maskUnits="userSpaceOnUse" x="465" y="368" width="21" height="22">
<path d="M485.124 378.243L481.752 389.507L477.572 387.151L465.488 380.31L472.992 368.708L474.768 370.109L476.315 371.318L484.314 377.603L485.124 378.243Z" fill="white"/>
</mask>
<g mask="url(#mask4_2148_4706)">
<path opacity="0.2" d="M474.262 369.686L471.676 367.729L464.728 378.304L463.52 380.141L467.157 382.135L467.555 381.567L475.204 370.412L474.262 369.686Z" fill="black"/>
</g>
<path d="M507.394 373.083C503.853 377.433 500.434 381.253 497.872 384.395C493.691 389.519 492.338 391.646 489.112 395.744C488.73 396.219 488.177 396.525 487.571 396.597C486.966 396.67 486.357 396.502 485.873 396.13L477.62 388.444C477.451 388.274 477.355 388.043 477.355 387.803C477.355 387.563 477.451 387.333 477.62 387.163L484.351 377.639C485.609 376.634 487.021 375.839 488.532 375.282C493.099 374.134 496.567 374.074 504.965 367.136C505.418 366.826 505.97 366.696 506.513 366.772C507.056 366.848 507.551 367.125 507.901 367.547C508.94 368.599 509.376 370.653 507.394 373.083Z" fill="#263238"/>
<path d="M476.485 353.358L476.11 354.374L471.785 366.024L471.035 368.031L470.407 369.723L466.202 368.393L441.178 360.453C423.053 357.202 389.038 338.348 389.038 338.348C364.98 350.107 278.983 363.861 264.362 353.685C256.617 348.041 250.527 345.019 245.5 327.603C266.426 312.89 291.288 304.802 316.864 304.386C323.74 304.29 330.627 304.386 337.406 304.386C356.316 304.386 377.631 305.341 391.72 308.665C423.222 313.306 476.485 353.358 476.485 353.358Z" fill="#4381CA"/>
<g opacity="0.6">
<path d="M476.485 353.358L476.11 354.374L471.785 366.024L471.035 368.031L470.407 369.723L466.202 368.393L441.178 360.453C423.053 357.202 389.038 338.348 389.038 338.348C364.98 350.107 278.983 363.861 264.362 353.685C256.617 348.041 250.527 345.019 245.5 327.603C266.426 312.89 291.288 304.802 316.864 304.386C323.74 304.29 330.627 304.386 337.406 304.386C356.316 304.386 377.631 305.341 391.72 308.665C423.222 313.306 476.485 353.358 476.485 353.358Z" fill="black"/>
</g>
<path opacity="0.3" d="M311.535 298.114C311.535 298.114 308.031 305.172 285.484 308.81C262.936 312.448 311.318 305.958 335.666 304.326C335.666 304.386 317.335 302.356 311.535 298.114Z" fill="black"/>
<g opacity="0.7">
<path d="M409.142 158.28C401.59 149.675 390.039 149.324 379.635 149.614C375.853 149.735 371.877 149.941 368.627 152.249C365.377 154.558 363.226 159.779 365.002 163.803C366.778 167.828 371.732 170.342 370.657 174.62C361.945 179.551 351.759 178.004 342.273 180.035C334.467 181.799 327.32 185.738 321.659 191.395C319.827 192.933 318.553 195.031 318.034 197.366C317.442 201.535 320.451 204.678 323.725 206.817C323.86 206.92 323.967 207.056 324.035 207.211C324.103 207.367 324.13 207.537 324.114 207.706C324.099 207.876 324.04 208.038 323.945 208.178C323.849 208.319 323.72 208.432 323.568 208.509C321.225 209.273 319.062 210.507 317.212 212.135C316.064 213.223 316.814 215.47 318.264 215.374H318.807C322.747 215.374 325.961 217.9 325.985 221.09C326.009 224.281 322.807 226.88 318.868 226.916C317.889 226.916 318.554 228.378 319.931 228.789C322.716 229.446 325.62 229.413 328.389 228.692C331.712 228.04 335.301 226.976 337.367 223.773C339.434 220.571 338.576 214.673 335.277 213.96C342.027 213.583 348.721 212.509 355.251 210.757C358.127 209.983 361.292 208.823 362.839 205.79C364.386 202.756 362.839 197.62 359.842 198.018C368.518 194.792 377.569 193.257 386.293 190.32C395.017 187.383 403.717 182.766 409.807 174.693C411.287 172.917 412.296 170.797 412.743 168.529C413.371 164.71 411.487 160.927 409.142 158.28Z" fill="#D4D6D7"/>
</g>
</g>
<defs>
<clipPath id="clip0_2148_4706">
<rect width="604.167" height="500" fill="white"/>
</clipPath>
</defs>
</svg>
