<svg width="388" height="268" viewBox="0 0 388 268" fill="none" xmlns="http://www.w3.org/2000/svg">
<path d="M163.121 23.7C164.861 23.3333 166.588 22.9467 168.301 22.54C210.521 12.81 258.801 7.17 295.411 24.33C331.301 41.14 326.891 76.77 305.901 109.49C269.971 165.49 133.901 218.63 97.1811 161.69C85.3111 143.29 105.771 110.89 91.0511 89.2C74.2911 64.5 -3.26888 80.12 12.2311 25.55C20.8211 -4.71 42.8611 -2.93 66.5411 6.89C80.1311 12.52 93.1111 19.53 107.171 24.29C124.241 30.08 144.161 27.76 163.121 23.7Z" fill="#407BFF"/>
<path opacity="0.9" d="M163.121 23.7C164.861 23.3333 166.588 22.9467 168.301 22.54C210.521 12.81 258.801 7.17 295.411 24.33C331.301 41.14 326.891 76.77 305.901 109.49C269.971 165.49 133.901 218.63 97.1811 161.69C85.3111 143.29 105.771 110.89 91.0511 89.2C74.2911 64.5 -3.26888 80.12 12.2311 25.55C20.8211 -4.71 42.8611 -2.93 66.5411 6.89C80.1311 12.52 93.1111 19.53 107.171 24.29C124.241 30.08 144.161 27.76 163.121 23.7Z" fill="white"/>
<path d="M193.999 267.56C301.082 267.56 387.889 262.492 387.889 256.24C387.889 249.988 301.082 244.92 193.999 244.92C86.9169 244.92 0.109375 249.988 0.109375 256.24C0.109375 262.492 86.9169 267.56 193.999 267.56Z" fill="#F5F5F5"/>
<path d="M70.1094 178.69H198.549V245C198.549 245.85 198.382 246.691 198.057 247.476C197.732 248.261 197.255 248.974 196.654 249.575C196.054 250.176 195.34 250.652 194.555 250.978C193.77 251.303 192.929 251.47 192.079 251.47H76.5794C75.7297 251.47 74.8884 251.303 74.1034 250.978C73.3184 250.652 72.6052 250.176 72.0044 249.575C71.4036 248.974 70.927 248.261 70.6019 247.476C70.2767 246.691 70.1094 245.85 70.1094 245V178.69Z" fill="#407BFF"/>
<path d="M70.1108 178.69H161.001L149.821 164.38C148.591 162.81 145.551 161.54 143.021 161.54H61.2808C58.7608 161.54 57.7008 162.81 58.9308 164.38L70.1108 178.69Z" fill="#407BFF"/>
<path opacity="0.2" d="M70.1108 178.69H161.001L149.821 164.38C148.591 162.81 145.551 161.54 143.021 161.54H61.2808C58.7608 161.54 57.7008 162.81 58.9308 164.38L70.1108 178.69Z" fill="black"/>
<path d="M198.552 178.69H107.672L118.852 169.36C120.082 168.36 123.122 167.51 125.652 167.51H207.382C209.912 167.51 210.962 168.34 209.732 169.36L198.552 178.69Z" fill="#407BFF"/>
<path opacity="0.2" d="M107.672 178.69H198.552V245C198.552 245.85 198.385 246.691 198.059 247.476C197.734 248.261 197.258 248.974 196.657 249.575C196.056 250.176 195.343 250.652 194.558 250.978C193.773 251.303 192.932 251.47 192.082 251.47H114.142C113.292 251.47 112.451 251.303 111.666 250.978C110.881 250.652 110.168 250.176 109.567 249.575C108.966 248.974 108.49 248.261 108.164 247.476C107.839 246.691 107.672 245.85 107.672 245V178.69Z" fill="white"/>
<path opacity="0.5" d="M81.3906 178.69V224.17L84.5306 221.69L86.7406 224.17L88.6606 221.41L90.6306 224.17L93.3706 222.1L96.3906 224.17V178.69H81.3906Z" fill="white"/>
<path d="M54.92 99.4H67.4V106.2H54.92V99.4ZM55.56 109.88H69.56V117H46.28V89H69.04V96.12H55.56V109.88ZM81.1941 117V89H88.9541L100.154 107.28H96.0741L106.954 89H114.714L114.794 117H106.194L106.114 101.96H107.474L100.034 114.48H95.8741L88.1141 101.96H89.7941V117H81.1941ZM127.358 117V89H140.838C143.451 89 145.705 89.4267 147.598 90.28C149.518 91.1333 150.998 92.36 152.038 93.96C153.078 95.5333 153.598 97.4 153.598 99.56C153.598 101.72 153.078 103.587 152.038 105.16C150.998 106.733 149.518 107.96 147.598 108.84C145.705 109.693 143.451 110.12 140.838 110.12H132.598L136.798 106.08V117H127.358ZM136.798 107.12L132.598 102.84H140.238C141.545 102.84 142.505 102.547 143.118 101.96C143.758 101.373 144.078 100.573 144.078 99.56C144.078 98.5467 143.758 97.7467 143.118 97.16C142.505 96.5733 141.545 96.28 140.238 96.28H132.598L136.798 92V107.12ZM170.149 117V96.32H161.949V89H187.789V96.32H179.589V117H170.149ZM204.66 117V104.72L206.82 110.36L194.1 89H204.06L212.66 103.6H206.86L215.54 89H224.66L212.02 110.36L214.1 104.72V117H204.66Z" fill="url(#paint0_linear_2938_5334)"/>
<defs>
<linearGradient id="paint0_linear_2938_5334" x1="134" y1="78" x2="134" y2="127" gradientUnits="userSpaceOnUse">
<stop stop-color="#3683DE"/>
<stop offset="1" stop-color="#3B82D6" stop-opacity="0.602798"/>
</linearGradient>
</defs>
</svg>
