<svg width="500" height="500" viewBox="0 0 500 500" fill="none" xmlns="http://www.w3.org/2000/svg">
<path d="M500 382.4H0V382.65H500V382.4Z" fill="#EBEBEB"/>
<path d="M449.901 398.49H416.781V398.74H449.901V398.49Z" fill="#EBEBEB"/>
<path d="M331.221 401.21H322.531V401.46H331.221V401.21Z" fill="#EBEBEB"/>
<path d="M415.78 389.21H396.59V389.46H415.78V389.21Z" fill="#EBEBEB"/>
<path d="M95.6509 390.89H52.4609V391.14H95.6509V390.89Z" fill="#EBEBEB"/>
<path d="M110.889 390.89H104.559V391.14H110.889V390.89Z" fill="#EBEBEB"/>
<path d="M225.149 395.11H131.469V395.36H225.149V395.11Z" fill="#EBEBEB"/>
<path d="M85.4013 237.77H91.0312L91.0312 119.27H85.4013L85.4013 237.77Z" fill="#E0E0E0"/>
<path d="M195.788 119.28H88.6484V237.78H195.788V119.28Z" fill="#E0E0E0"/>
<path d="M199.208 119.28H88.0781V237.78H199.208V119.28Z" fill="#F0F0F0"/>
<path d="M194.509 123.06H92.6094V232.33H194.509V123.06Z" fill="white"/>
<path d="M194.509 123.06H191.559V232.33H194.509V123.06Z" fill="#E0E0E0"/>
<path d="M92.3398 201.63V204.58H191.87V201.63H92.3398Z" fill="#E0E0E0"/>
<path d="M194.511 196.69H91.0312V201.64H194.511V196.69Z" fill="#F0F0F0"/>
<path d="M273.711 380.55H421.121V193.88L273.711 193.88V380.55Z" fill="#F0F0F0"/>
<path d="M278.92 240.59L415.91 240.59V200.67H278.92V240.59Z" fill="#E0E0E0"/>
<path d="M408.118 240.59H415.898V207.14H408.118V240.59Z" fill="#EBEBEB"/>
<path d="M370.49 240.59H378.27V207.14H370.49V240.59Z" fill="#EBEBEB"/>
<path d="M322.099 239.267L329.766 240.588L335.448 207.624L327.781 206.303L322.099 239.267Z" fill="#EBEBEB"/>
<path d="M398.49 240.59H406.27V211.54H398.49V240.59Z" fill="#EBEBEB"/>
<path d="M380.591 240.59H388.371V211.54H380.591V240.59Z" fill="#EBEBEB"/>
<path d="M335.439 240.59H343.219V211.54H335.439V240.59Z" fill="#EBEBEB"/>
<path d="M353.987 238.901L361.582 240.589L367.884 212.231L360.29 210.543L353.987 238.901Z" fill="#EBEBEB"/>
<path d="M391.758 240.59H395.648V205.47H391.758V240.59Z" fill="#EBEBEB"/>
<path d="M345.469 240.59H349.359V205.47H345.469V240.59Z" fill="#EBEBEB"/>
<path d="M415.9 246.92H278.91V286.84H415.9V246.92Z" fill="#E0E0E0"/>
<path d="M286.69 253.38H278.91V286.83H286.69V253.38Z" fill="#EBEBEB"/>
<path d="M324.319 253.38H316.539V286.83H324.319V253.38Z" fill="#EBEBEB"/>
<path d="M367.042 252.534L359.375 253.855L365.057 286.819L372.724 285.498L367.042 252.534Z" fill="#EBEBEB"/>
<path d="M296.339 257.79H288.559V286.84H296.339V257.79Z" fill="#EBEBEB"/>
<path d="M314.221 257.79H306.441V286.84H314.221V257.79Z" fill="#EBEBEB"/>
<path d="M359.37 257.79H351.59V286.84H359.37V257.79Z" fill="#EBEBEB"/>
<path d="M334.556 256.778L326.961 258.466L333.263 286.824L340.858 285.136L334.556 256.778Z" fill="#EBEBEB"/>
<path d="M303.07 251.72H299.18V286.84H303.07V251.72Z" fill="#EBEBEB"/>
<path d="M349.351 251.72H345.461V286.84H349.351V251.72Z" fill="#EBEBEB"/>
<path d="M408.118 286.83H415.898V253.38H408.118V286.83Z" fill="#EBEBEB"/>
<path d="M398.49 286.83H406.27V257.78H398.49V286.83Z" fill="#EBEBEB"/>
<path d="M380.591 286.83H388.371V257.78H380.591V286.83Z" fill="#EBEBEB"/>
<path d="M391.758 286.83H395.648V251.71H391.758V286.83Z" fill="#EBEBEB"/>
<path d="M278.92 333.07H415.91V293.15H278.92V333.07Z" fill="#E0E0E0"/>
<path d="M329.49 333.07H337.27V299.62H329.49V333.07Z" fill="#EBEBEB"/>
<path d="M281.103 331.735L288.77 333.057L294.452 300.093L286.785 298.771L281.103 331.735Z" fill="#EBEBEB"/>
<path d="M357.49 333.07H365.27V304.02H357.49V333.07Z" fill="#EBEBEB"/>
<path d="M339.599 333.07H347.379V304.02H339.599V333.07Z" fill="#EBEBEB"/>
<path d="M294.439 333.07H302.219V304.02H294.439V333.07Z" fill="#EBEBEB"/>
<path d="M312.995 331.369L320.59 333.056L326.892 304.698L319.298 303.01L312.995 331.369Z" fill="#EBEBEB"/>
<path d="M350.758 333.07H354.648V297.95H350.758V333.07Z" fill="#EBEBEB"/>
<path d="M304.469 333.07H308.359V297.95H304.469V333.07Z" fill="#EBEBEB"/>
<path d="M370.634 331.737L378.301 333.059L383.983 300.095L376.316 298.773L370.634 331.737Z" fill="#EBEBEB"/>
<path d="M383.982 333.07H391.762V304.02H383.982V333.07Z" fill="#EBEBEB"/>
<path d="M402.526 331.365L410.121 333.053L416.424 304.695L408.829 303.007L402.526 331.365Z" fill="#EBEBEB"/>
<path d="M393.989 333.07H397.879V297.95H393.989V333.07Z" fill="#EBEBEB"/>
<path d="M176.4 265.78H90.84C88.6308 265.776 86.4425 266.208 84.4002 267.05C82.3579 267.892 80.5017 269.129 78.9377 270.689C77.3737 272.25 76.1326 274.103 75.2853 276.143C74.4381 278.184 74.0013 280.371 74 282.58V349.4H193.21V282.58C193.21 280.373 192.775 278.188 191.93 276.149C191.085 274.11 189.847 272.257 188.286 270.697C186.725 269.137 184.872 267.9 182.832 267.056C180.793 266.212 178.607 265.779 176.4 265.78Z" fill="#E6E6E6"/>
<path d="M218.509 315.3H203.199C200.547 315.3 198.004 316.354 196.128 318.229C194.253 320.104 193.199 322.648 193.199 325.3V380.55H228.479V325.29C228.477 322.645 227.426 320.108 225.557 318.236C223.689 316.364 221.154 315.308 218.509 315.3Z" fill="#E0E0E0"/>
<path d="M218.51 315.3H218.18C215.528 315.3 212.984 316.354 211.109 318.229C209.233 320.104 208.18 322.648 208.18 325.3V380.55H228.47V325.29C228.467 322.646 227.418 320.112 225.551 318.24C223.685 316.367 221.153 315.311 218.51 315.3Z" fill="#EBEBEB"/>
<path d="M203.93 355.16H86.5V380.54H203.93V355.16Z" fill="#E6E6E6"/>
<path d="M204.091 331.95H90.8414C85.2357 331.95 80.6914 336.494 80.6914 342.1V348.43C80.6914 354.036 85.2357 358.58 90.8414 358.58H204.091C209.697 358.58 214.241 354.036 214.241 348.43V342.1C214.241 336.494 209.697 331.95 204.091 331.95Z" fill="#F5F5F5"/>
<path d="M105.079 331.95H91.0289C85.4232 331.95 80.8789 336.494 80.8789 342.1V348.43C80.8789 354.036 85.4232 358.58 91.0289 358.58H105.079C110.685 358.58 115.229 354.036 115.229 348.43V342.1C115.229 336.494 110.685 331.95 105.079 331.95Z" fill="#E0E0E0"/>
<path d="M89.5092 315.3H74.1992C71.5471 315.3 69.0035 316.354 67.1282 318.229C65.2528 320.104 64.1992 322.648 64.1992 325.3V380.55H99.4992V325.29C99.4966 322.641 98.4432 320.102 96.5703 318.229C94.6974 316.356 92.1579 315.303 89.5092 315.3Z" fill="#E0E0E0"/>
<path d="M89.5114 315.3H89.1914C86.5392 315.3 83.9957 316.354 82.1203 318.229C80.245 320.104 79.1914 322.648 79.1914 325.3V380.55H99.5014V325.29C99.4988 322.641 98.4454 320.102 96.5725 318.229C94.6996 316.356 92.1601 315.303 89.5114 315.3Z" fill="#F0F0F0"/>
<path d="M343.68 149.53C354.925 149.53 364.04 140.415 364.04 129.17C364.04 117.925 354.925 108.81 343.68 108.81C332.436 108.81 323.32 117.925 323.32 129.17C323.32 140.415 332.436 149.53 343.68 149.53Z" fill="#E0E0E0"/>
<path d="M360.782 131.95C362.314 122.514 355.906 113.622 346.469 112.09C337.033 110.558 328.141 116.967 326.609 126.403C325.078 135.84 331.486 144.731 340.922 146.263C350.359 147.795 359.25 141.387 360.782 131.95Z" fill="#F0F0F0"/>
<path d="M342.872 117.29V129.39L334.852 124.85" fill="#F0F0F0"/>
<path d="M342.87 130.26C342.719 130.261 342.57 130.219 342.44 130.14L334.44 125.61C334.253 125.49 334.118 125.302 334.064 125.086C334.011 124.869 334.043 124.64 334.153 124.446C334.263 124.253 334.444 124.109 334.658 124.044C334.871 123.98 335.101 124 335.3 124.1L342.02 127.91V117.29C342.043 117.077 342.144 116.879 342.304 116.736C342.464 116.592 342.671 116.513 342.885 116.513C343.1 116.513 343.307 116.592 343.467 116.736C343.626 116.879 343.727 117.077 343.75 117.29V129.39C343.751 129.542 343.712 129.691 343.637 129.823C343.561 129.955 343.452 130.064 343.32 130.14C343.185 130.223 343.029 130.264 342.87 130.26Z" fill="#E0E0E0"/>
<path d="M249.999 427.57C357.082 427.57 443.889 421.405 443.889 413.8C443.889 406.195 357.082 400.03 249.999 400.03C142.917 400.03 56.1094 406.195 56.1094 413.8C56.1094 421.405 142.917 427.57 249.999 427.57Z" fill="#F5F5F5"/>
<path d="M388.661 205.82H361.661C359.202 205.82 356.844 206.797 355.106 208.535C353.367 210.274 352.391 212.631 352.391 215.09V226.27C352.391 228.729 353.367 231.086 355.106 232.825C356.844 234.563 359.202 235.54 361.661 235.54H373.201L376.301 245.33L379.431 235.54H388.611C391.069 235.54 393.427 234.563 395.165 232.825C396.904 231.086 397.881 228.729 397.881 226.27V215.09C397.881 212.64 396.911 210.29 395.183 208.553C393.456 206.816 391.11 205.833 388.661 205.82Z" fill="#407BFF"/>
<path d="M364.681 220C364.681 220.37 364.572 220.731 364.366 221.039C364.161 221.346 363.869 221.586 363.527 221.728C363.185 221.869 362.809 221.906 362.447 221.834C362.084 221.762 361.751 221.584 361.489 221.322C361.228 221.061 361.049 220.728 360.977 220.365C360.905 220.002 360.942 219.626 361.084 219.284C361.225 218.943 361.465 218.651 361.773 218.445C362.08 218.24 362.442 218.13 362.811 218.13C363.057 218.13 363.3 218.178 363.527 218.272C363.754 218.366 363.96 218.504 364.134 218.678C364.307 218.851 364.445 219.057 364.539 219.284C364.633 219.511 364.681 219.754 364.681 220ZM371.061 218.13C370.692 218.13 370.33 218.24 370.023 218.445C369.715 218.651 369.475 218.943 369.334 219.284C369.192 219.626 369.155 220.002 369.227 220.365C369.299 220.728 369.478 221.061 369.739 221.322C370.001 221.584 370.334 221.762 370.697 221.834C371.059 221.906 371.435 221.869 371.777 221.728C372.119 221.586 372.411 221.346 372.616 221.039C372.822 220.731 372.931 220.37 372.931 220C372.921 219.511 372.719 219.046 372.37 218.703C372.02 218.361 371.551 218.17 371.061 218.17V218.13ZM379.311 218.13C378.942 218.13 378.58 218.24 378.273 218.445C377.965 218.651 377.725 218.943 377.584 219.284C377.442 219.626 377.405 220.002 377.477 220.365C377.549 220.728 377.728 221.061 377.989 221.322C378.251 221.584 378.584 221.762 378.947 221.834C379.309 221.906 379.685 221.869 380.027 221.728C380.369 221.586 380.661 221.346 380.866 221.039C381.072 220.731 381.181 220.37 381.181 220C381.171 219.511 380.969 219.046 380.62 218.703C380.27 218.361 379.801 218.17 379.311 218.17V218.13ZM387.561 218.13C387.192 218.13 386.83 218.24 386.523 218.445C386.215 218.651 385.975 218.943 385.834 219.284C385.692 219.626 385.655 220.002 385.727 220.365C385.799 220.728 385.978 221.061 386.239 221.322C386.501 221.584 386.834 221.762 387.197 221.834C387.559 221.906 387.935 221.869 388.277 221.728C388.619 221.586 388.911 221.346 389.116 221.039C389.322 220.731 389.431 220.37 389.431 220C389.421 219.511 389.219 219.046 388.87 218.703C388.52 218.361 388.051 218.17 387.561 218.17V218.13Z" fill="white"/>
<path d="M111.501 238.82H84.5513C83.3339 238.82 82.1285 239.06 81.0038 239.526C79.8791 239.991 78.8572 240.674 77.9964 241.535C77.1356 242.396 76.4527 243.418 75.9869 244.543C75.521 245.667 75.2812 246.873 75.2812 248.09V259.27C75.2813 261.729 76.2579 264.086 77.9964 265.825C79.7348 267.563 82.0927 268.54 84.5513 268.54H96.0912L99.1913 278.32L102.321 268.54H111.501C113.96 268.54 116.318 267.563 118.056 265.825C119.795 264.086 120.771 261.729 120.771 259.27V248.09C120.771 246.873 120.531 245.667 120.066 244.543C119.6 243.418 118.917 242.396 118.056 241.535C117.195 240.674 116.173 239.991 115.049 239.526C113.924 239.06 112.719 238.82 111.501 238.82Z" fill="#407BFF"/>
<path d="M87.5212 253C87.5212 253.37 87.4116 253.731 87.2061 254.039C87.0006 254.346 86.7086 254.586 86.3669 254.728C86.0252 254.869 85.6492 254.906 85.2864 254.834C84.9237 254.762 84.5905 254.584 84.329 254.322C84.0674 254.061 83.8893 253.728 83.8172 253.365C83.745 253.002 83.7821 252.626 83.9236 252.284C84.0651 251.943 84.3048 251.651 84.6123 251.445C84.9199 251.24 85.2814 251.13 85.6513 251.13C86.1472 251.13 86.6228 251.327 86.9735 251.678C87.3242 252.028 87.5212 252.504 87.5212 253ZM93.9013 251.13C93.5314 251.13 93.1699 251.24 92.8623 251.445C92.5548 251.651 92.3151 251.943 92.1736 252.284C92.0321 252.626 91.995 253.002 92.0672 253.365C92.1393 253.728 92.3174 254.061 92.579 254.322C92.8405 254.584 93.1737 254.762 93.5364 254.834C93.8992 254.906 94.2752 254.869 94.6169 254.728C94.9586 254.586 95.2506 254.346 95.4561 254.039C95.6616 253.731 95.7712 253.37 95.7712 253C95.7634 252.51 95.5625 252.043 95.2124 251.701C94.8623 251.358 94.3911 251.167 93.9013 251.17V251.13ZM102.151 251.13C101.781 251.126 101.417 251.232 101.107 251.435C100.797 251.638 100.554 251.929 100.409 252.27C100.265 252.612 100.225 252.988 100.295 253.352C100.365 253.716 100.541 254.052 100.802 254.315C101.063 254.579 101.396 254.759 101.759 254.832C102.122 254.906 102.499 254.87 102.842 254.729C103.185 254.589 103.478 254.349 103.685 254.041C103.891 253.733 104.001 253.371 104.001 253C103.993 252.514 103.795 252.05 103.45 251.708C103.104 251.366 102.638 251.173 102.151 251.17V251.13ZM110.401 251.13C110.031 251.13 109.67 251.24 109.362 251.445C109.055 251.651 108.815 251.943 108.674 252.284C108.532 252.626 108.495 253.002 108.567 253.365C108.639 253.728 108.817 254.061 109.079 254.322C109.34 254.584 109.674 254.762 110.036 254.834C110.399 254.906 110.775 254.869 111.117 254.728C111.459 254.586 111.751 254.346 111.956 254.039C112.162 253.731 112.271 253.37 112.271 253C112.263 252.51 112.063 252.043 111.712 251.701C111.362 251.358 110.891 251.167 110.401 251.17V251.13Z" fill="white"/>
<path d="M412.999 415.2H286.079C262.369 415.2 260.849 387.28 280.339 374.14C283.902 371.771 287.846 370.032 291.999 369C330.589 358.85 384.809 290.62 422.999 319.17L423.109 319.25C461.149 348 434.559 415.2 412.999 415.2Z" fill="#263238"/>
<path opacity="0.5" d="M412.999 415.2H286.079C262.369 415.2 260.849 387.28 280.339 374.14C283.902 371.771 287.846 370.032 291.999 369C330.589 358.85 384.809 290.62 422.999 319.17L423.109 319.25C461.149 348 434.559 415.2 412.999 415.2Z" fill="white"/>
<path opacity="0.2" d="M422.901 319.12C419.701 318.91 415.821 319.81 411.641 323.31C400.791 332.41 417.291 376.22 391.341 394.44C376.861 404.61 314.391 409.09 293.541 396.62C278.151 387.41 277.951 381.62 280.341 374.14C283.904 371.771 287.848 370.032 292.001 369C330.541 358.8 384.761 290.57 422.901 319.12Z" fill="black"/>
<path d="M324.218 310.86L316.648 305.53L322.308 299.74C322.308 299.74 328.118 302.74 327.568 308.09L324.218 310.86Z" fill="#E4897B"/>
<path d="M313.68 299.65L318.93 296.35L322.31 299.74L316.65 305.53L313.68 299.65Z" fill="#E4897B"/>
<path d="M361.459 297.09C354.289 299.2 350.759 311.81 344.839 323.72L327.609 306.6L322.129 311.46C322.129 311.46 337.909 336.53 345.359 336.53C354.659 336.53 364.309 310.7 364.309 310.7L361.459 297.09Z" fill="#263238"/>
<path opacity="0.1" d="M364.308 310.7C364.308 310.7 362.778 314.79 360.308 319.7C357.958 324.48 354.758 330.05 351.308 333.42C349.358 335.31 347.308 336.51 345.308 336.51C337.858 336.51 322.078 311.44 322.078 311.44L327.558 306.58L344.788 323.7C350.708 311.79 354.228 299.18 361.418 297.07L364.308 310.7Z" fill="white"/>
<path opacity="0.2" d="M360.348 319.72C357.998 324.5 354.798 330.07 351.348 333.44C351.718 322.01 357.348 310.86 357.348 310.86C358.9 313.597 359.918 316.603 360.348 319.72Z" fill="black"/>
<path d="M354.601 366.75C354.601 366.75 293.751 358.01 290.531 371.36C287.141 385.48 336.001 395 365.201 396C394.401 397 402.781 390 398.091 354H358.091L354.601 366.75Z" fill="#407BFF"/>
<path opacity="0.6" d="M354.601 366.75C354.601 366.75 293.751 358.01 290.531 371.36C287.141 385.48 336.001 395 365.201 396C394.401 397 402.781 390 398.091 354H358.091L354.601 366.75Z" fill="white"/>
<path d="M320.709 394.59L307.959 394.6L301.839 394.61L301.109 388.16L306.769 387.4L320.599 385.56L320.709 394.59Z" fill="#E4897B"/>
<path d="M302.489 387.35L304.039 394.71C304.061 394.807 304.063 394.907 304.045 395.004C304.027 395.102 303.989 395.195 303.934 395.277C303.878 395.359 303.807 395.429 303.724 395.483C303.64 395.537 303.547 395.573 303.449 395.59L299.779 396.25C299.779 396.25 294.909 397.49 293.539 396.62C289.539 394.06 285.699 377.88 287.329 376.68C287.919 376.24 288.949 376.91 289.469 377.44C291.109 379.11 294.599 383.78 295.989 385.16C297.599 386.78 300.469 386.83 301.729 386.76C301.906 386.752 302.079 386.806 302.218 386.915C302.358 387.023 302.454 387.177 302.489 387.35Z" fill="#263238"/>
<path opacity="0.2" d="M320.71 394.59L307.96 394.6L306.77 387.4L320.6 385.56L320.71 394.59Z" fill="black"/>
<path d="M339.348 383.21L351.448 387.24L357.258 389.17L355.908 395.51L350.298 394.44L336.598 391.82L339.348 383.21Z" fill="#E4897B"/>
<path d="M354.351 395.84L355.201 388.37C355.214 388.272 355.245 388.178 355.294 388.092C355.343 388.006 355.408 387.931 355.486 387.871C355.564 387.81 355.654 387.766 355.749 387.74C355.844 387.714 355.943 387.707 356.041 387.72L359.731 388.26C359.731 388.26 364.731 388.62 365.731 389.88C368.731 393.57 367.251 410.14 365.331 410.76C364.621 410.99 363.861 410.03 363.531 409.37C362.531 407.26 360.671 401.72 359.791 399.98C358.791 397.93 356.061 396.98 354.851 396.64C354.687 396.587 354.546 396.478 354.455 396.332C354.363 396.185 354.327 396.011 354.351 395.84Z" fill="#263238"/>
<path opacity="0.2" d="M339.348 383.21L351.448 387.24L350.298 394.44L336.598 391.82L339.348 383.21Z" fill="black"/>
<path d="M348.2 395.56L344.75 395.89L346.81 383.95L350.77 386.04L348.2 395.56Z" fill="#407BFF"/>
<path opacity="0.6" d="M348.2 395.56L344.75 395.89L346.81 383.95L350.77 386.04L348.2 395.56Z" fill="white"/>
<path d="M359.751 399.89C359.841 400.431 359.761 400.987 359.521 401.48C359.424 401.628 359.29 401.747 359.132 401.826C358.974 401.905 358.798 401.941 358.621 401.93C358.515 401.935 358.409 401.911 358.314 401.862C358.219 401.813 358.139 401.74 358.081 401.65C357.561 400.77 358.781 398.06 358.931 397.76C358.941 397.726 358.962 397.697 358.992 397.679C359.022 397.66 359.057 397.654 359.091 397.66C359.129 397.663 359.165 397.679 359.194 397.704C359.223 397.729 359.243 397.763 359.251 397.8C359.488 398.478 359.656 399.178 359.751 399.89ZM358.311 401.19C358.318 401.278 358.346 401.364 358.391 401.44C358.41 401.478 358.441 401.51 358.478 401.529C358.516 401.549 358.559 401.556 358.601 401.55C358.723 401.564 358.845 401.544 358.955 401.491C359.065 401.437 359.157 401.354 359.221 401.25C359.513 400.299 359.46 399.276 359.071 398.36C358.65 399.25 358.393 400.209 358.311 401.19Z" fill="#407BFF"/>
<path d="M359.278 397.82V397.9C358.948 398.77 357.448 400.49 356.598 400.37C356.459 400.346 356.332 400.275 356.238 400.17C356.144 400.065 356.088 399.931 356.078 399.79C356.04 399.65 356.033 399.503 356.057 399.36C356.081 399.216 356.136 399.08 356.218 398.96C356.838 397.96 358.988 397.64 359.108 397.65C359.142 397.644 359.176 397.648 359.206 397.662C359.237 397.677 359.262 397.7 359.278 397.73C359.286 397.76 359.286 397.791 359.278 397.82ZM356.398 399.65V399.73C356.458 399.98 356.558 399.99 356.608 400.01C357.108 400.08 358.258 398.96 358.758 398.1C357.905 398.204 357.111 398.587 356.498 399.19C356.413 399.327 356.375 399.489 356.389 399.65H356.398Z" fill="#407BFF"/>
<path d="M309.121 386.47C309.121 386.47 365.731 364.47 383.071 368.15C400.411 371.83 400.491 380.9 391.701 389.36C382.911 397.82 369.781 394.56 369.781 394.56C369.781 394.56 380.101 388.38 379.381 384.56C378.661 380.74 372.101 389.47 372.101 389.47C372.101 389.47 337.891 397.84 309.641 395.63L309.121 386.47Z" fill="#407BFF"/>
<path d="M296.379 385.28C296.051 384.844 295.869 384.316 295.859 383.77C295.875 383.594 295.937 383.426 296.039 383.282C296.141 383.138 296.279 383.023 296.439 382.95C296.533 382.898 296.638 382.871 296.744 382.871C296.851 382.871 296.956 382.898 297.049 382.95C297.909 383.5 298.049 386.47 298.049 386.81C298.054 386.844 298.046 386.879 298.028 386.908C298.01 386.937 297.982 386.959 297.949 386.97C297.918 386.991 297.882 387.002 297.844 387.002C297.807 387.002 297.771 386.991 297.739 386.97C297.228 386.456 296.772 385.889 296.379 385.28ZM297.059 383.46C297.009 383.388 296.944 383.327 296.869 383.28C296.836 383.256 296.796 383.244 296.754 383.244C296.713 383.244 296.673 383.256 296.639 383.28C296.524 383.322 296.423 383.396 296.349 383.493C296.274 383.591 296.229 383.708 296.219 383.83C296.398 384.808 296.919 385.691 297.689 386.32C297.651 385.337 297.437 384.368 297.059 383.46Z" fill="#407BFF"/>
<path d="M297.739 386.9V386.81C297.639 385.89 298.169 383.67 298.989 383.38C299.124 383.338 299.27 383.342 299.402 383.393C299.535 383.444 299.646 383.538 299.719 383.66C299.907 383.882 300 384.17 299.979 384.46C299.879 385.63 298.119 386.9 297.979 386.96C297.951 386.979 297.918 386.989 297.884 386.989C297.85 386.989 297.817 386.979 297.789 386.96C297.767 386.944 297.75 386.924 297.739 386.9ZM299.459 383.95V383.88C299.299 383.69 299.199 383.73 299.149 383.74C298.669 383.9 298.149 385.42 298.149 386.42C298.639 386.01 299.589 385.15 299.649 384.42C299.659 384.258 299.617 384.097 299.529 383.96L299.459 383.95Z" fill="#407BFF"/>
<path opacity="0.7" d="M309.121 386.47C309.121 386.47 365.731 364.47 383.071 368.15C400.411 371.83 400.491 380.9 391.701 389.36C382.911 397.82 369.781 394.56 369.781 394.56C369.781 394.56 380.101 388.38 379.381 384.56C378.661 380.74 372.101 389.47 372.101 389.47C372.101 389.47 337.891 397.84 309.641 395.63L309.121 386.47Z" fill="white"/>
<path d="M308.43 386.3L311.61 384.84L313.44 396.75L309.02 396.03L308.43 386.3Z" fill="#407BFF"/>
<path opacity="0.6" d="M308.43 386.3L311.61 384.84L313.44 396.75L309.02 396.03L308.43 386.3Z" fill="white"/>
<path d="M402.109 299C395.999 333 398.219 355 398.219 355C398.219 355 369.789 354.61 358.109 353.95C351.879 312.74 361.459 297.08 361.459 297.08C364.514 296.468 367.603 296.044 370.709 295.81C371.359 295.76 372.029 295.73 372.709 295.7C378.219 295.696 383.725 296.007 389.199 296.63C390.199 296.74 391.289 296.88 392.309 297.03C397.519 297.82 402.109 299 402.109 299Z" fill="#263238"/>
<path opacity="0.1" d="M402.108 299C401.348 303.22 400.718 307.26 400.198 311.08C399.378 317.08 398.828 322.64 398.468 327.58C398.358 329.07 398.258 330.52 398.188 331.9C397.898 336.96 397.818 341.29 397.828 344.79C397.828 351.37 398.218 355 398.218 355C398.218 355 369.788 354.61 358.108 353.95C351.868 312.74 361.468 297.08 361.468 297.08C364.519 296.467 367.605 296.043 370.708 295.81C371.358 295.76 372.028 295.73 372.708 295.7C378.218 295.691 383.724 296.002 389.198 296.63C390.198 296.74 391.288 296.88 392.308 297.03C397.518 297.81 402.108 299 402.108 299Z" fill="white"/>
<path opacity="0.2" d="M376.719 336.53C384.004 335.665 391.192 334.118 398.189 331.91C397.899 336.97 397.819 341.3 397.829 344.8C384.259 346.05 378.719 343.44 378.719 343.44L376.719 336.53Z" fill="black"/>
<path opacity="0.2" d="M400.2 311.09C399.38 317.09 398.83 322.65 398.47 327.59C394.58 319.67 397.47 310.17 397.47 310.17L400.2 311.09Z" fill="black"/>
<path d="M378.261 350.49H357.581C357.179 350.484 356.794 350.327 356.502 350.052C356.209 349.776 356.031 349.401 356.001 349L353.121 321.55C353.101 321.366 353.12 321.179 353.178 321.003C353.236 320.827 353.33 320.665 353.455 320.528C353.579 320.391 353.732 320.282 353.902 320.208C354.072 320.134 354.255 320.098 354.441 320.1H375.121C375.515 320.108 375.892 320.26 376.181 320.527C376.47 320.794 376.652 321.158 376.691 321.55L379.581 349C379.607 349.187 379.592 349.378 379.537 349.559C379.483 349.74 379.389 349.907 379.264 350.049C379.138 350.19 378.984 350.303 378.811 350.379C378.638 350.456 378.45 350.493 378.261 350.49Z" fill="#263238"/>
<path opacity="0.6" d="M378.261 350.49H357.581C357.179 350.484 356.794 350.327 356.502 350.052C356.209 349.776 356.031 349.401 356.001 349L353.121 321.55C353.101 321.366 353.12 321.179 353.178 321.003C353.236 320.827 353.33 320.665 353.455 320.528C353.579 320.391 353.732 320.282 353.902 320.208C354.072 320.134 354.255 320.098 354.441 320.1H375.121C375.515 320.108 375.892 320.26 376.181 320.527C376.47 320.794 376.652 321.158 376.691 321.55L379.581 349C379.607 349.187 379.592 349.378 379.537 349.559C379.483 349.74 379.389 349.907 379.264 350.049C379.138 350.19 378.984 350.303 378.811 350.379C378.638 350.456 378.45 350.493 378.261 350.49Z" fill="white"/>
<path opacity="0.2" d="M377.401 350.49H357.581C357.179 350.484 356.794 350.327 356.502 350.052C356.209 349.776 356.031 349.401 356.001 349L353.121 321.55C353.101 321.366 353.12 321.179 353.178 321.003C353.236 320.827 353.33 320.665 353.455 320.528C353.579 320.391 353.732 320.282 353.902 320.208C354.072 320.134 354.255 320.098 354.441 320.1H374.261C374.655 320.108 375.032 320.26 375.321 320.527C375.61 320.794 375.792 321.158 375.831 321.55L378.721 349C378.747 349.187 378.732 349.378 378.677 349.559C378.623 349.74 378.529 349.907 378.404 350.049C378.278 350.19 378.124 350.303 377.951 350.379C377.777 350.456 377.59 350.493 377.401 350.49Z" fill="white"/>
<path d="M365.34 333.07C365.055 333.068 364.773 333.126 364.512 333.242C364.252 333.358 364.019 333.528 363.829 333.741C363.64 333.954 363.498 334.205 363.414 334.478C363.329 334.75 363.304 335.037 363.34 335.32C363.399 335.927 363.679 336.491 364.127 336.904C364.576 337.317 365.16 337.551 365.77 337.56C366.054 337.562 366.335 337.504 366.595 337.388C366.855 337.273 367.087 337.104 367.276 336.892C367.465 336.68 367.607 336.43 367.693 336.159C367.778 335.888 367.804 335.602 367.77 335.32C367.159 335.308 366.575 335.072 366.127 334.658C365.679 334.243 365.399 333.678 365.34 333.07Z" fill="#263238"/>
<path opacity="0.3" d="M369.821 322.32H358.891C358.622 322.316 358.36 322.238 358.134 322.093C357.908 321.948 357.727 321.742 357.611 321.5L356.961 320.14H371.381L371.001 321.5C370.927 321.75 370.769 321.968 370.555 322.117C370.34 322.266 370.082 322.338 369.821 322.32Z" fill="black"/>
<path d="M376.241 335.65L371.461 335.26L371.661 341.62L375.661 343.72L384.881 342.88L385.631 338.59C382.601 334.15 376.241 335.65 376.241 335.65Z" fill="#E4897B"/>
<path d="M402.108 299C407.018 300.48 413.978 329 412.868 335.3C411.758 341.6 399.648 344.3 384.258 343.95V336.51L402.108 331.3L399.108 320.3C399.108 320.3 396.628 312.21 397.738 306.55C398.347 303.63 399.879 300.983 402.108 299Z" fill="#263238"/>
<path opacity="0.1" d="M402.108 299C407.018 300.48 413.978 329 412.868 335.3C411.758 341.6 399.648 344.3 384.258 343.95V336.51L402.108 331.3L399.108 320.3C399.108 320.3 396.628 312.21 397.738 306.55C398.347 303.63 399.879 300.983 402.108 299Z" fill="white"/>
<path d="M386.821 296.31C384.331 298.91 380.421 301.09 374.151 300.86C369.341 300.67 368.671 297.65 369.511 295.99C372.431 295.39 373.751 294.12 374.161 292.5C374.571 290.88 374.001 288.7 373.161 286.68L381.271 279.85L382.641 278.69C382.641 279.08 382.591 279.49 382.571 279.92C382.477 281.505 382.477 283.095 382.571 284.68C382.841 289.15 383.901 294 386.821 296.31Z" fill="#E4897B"/>
<path opacity="0.2" d="M382.58 284.68C381.07 287.77 378.42 291.5 374.16 292.5C374.6 290.78 374 288.7 373.16 286.68L381.27 279.85C381.7 279.85 382.14 279.85 382.57 279.92C382.479 281.506 382.482 283.095 382.58 284.68Z" fill="black"/>
<path d="M363.999 266.27C362.809 268.99 362.659 274.83 366.799 273.38C370.939 271.93 365.999 261.6 363.999 266.27Z" fill="#263238"/>
<path d="M383.828 272.3C383.468 279.58 383.638 283.87 379.998 287.62C374.518 293.26 365.478 289.94 363.638 282.68C361.998 276.13 362.858 265.32 369.958 262.4C371.533 261.755 373.245 261.52 374.936 261.716C376.626 261.912 378.24 262.534 379.625 263.522C381.01 264.511 382.122 265.835 382.857 267.37C383.592 268.905 383.926 270.601 383.828 272.3Z" fill="#E4897B"/>
<path d="M372.789 274.36C372.789 274.95 372.489 275.44 372.099 275.44C371.709 275.44 371.389 274.96 371.379 274.36C371.369 273.76 371.689 273.29 372.069 273.29C372.449 273.29 372.779 273.77 372.789 274.36Z" fill="#263238"/>
<path d="M366.068 274.38C366.068 274.97 365.768 275.45 365.378 275.45C364.988 275.45 364.668 274.97 364.668 274.38C364.668 273.79 364.968 273.31 365.358 273.31C365.748 273.31 366.068 273.78 366.068 274.38Z" fill="#263238"/>
<path d="M368.211 274.67C367.503 276.427 366.554 278.076 365.391 279.57C365.803 279.842 366.268 280.024 366.756 280.105C367.243 280.185 367.742 280.164 368.221 280.04L368.211 274.67Z" fill="#DE5753"/>
<path d="M374.83 272.19C374.77 272.199 374.709 272.192 374.653 272.169C374.596 272.146 374.547 272.108 374.51 272.06C374.252 271.705 373.913 271.415 373.523 271.213C373.132 271.012 372.7 270.905 372.26 270.9C372.168 270.906 372.077 270.876 372.006 270.816C371.935 270.756 371.89 270.672 371.88 270.58C371.876 270.534 371.881 270.488 371.895 270.444C371.909 270.4 371.931 270.359 371.961 270.323C371.991 270.288 372.027 270.259 372.068 270.238C372.109 270.217 372.154 270.204 372.2 270.2C372.756 270.196 373.305 270.324 373.802 270.573C374.298 270.821 374.73 271.183 375.06 271.63C375.117 271.703 375.143 271.796 375.131 271.887C375.12 271.979 375.073 272.063 375 272.12C374.951 272.158 374.892 272.182 374.83 272.19Z" fill="#263238"/>
<path d="M363.15 272.08C363.085 272.099 363.016 272.099 362.95 272.08C362.909 272.06 362.872 272.032 362.841 271.997C362.811 271.962 362.787 271.922 362.773 271.878C362.758 271.835 362.752 271.788 362.755 271.742C362.758 271.696 362.77 271.651 362.79 271.61C363.012 271.101 363.353 270.654 363.785 270.306C364.217 269.957 364.726 269.719 365.27 269.61C365.316 269.604 365.363 269.608 365.408 269.621C365.452 269.633 365.494 269.655 365.53 269.683C365.566 269.712 365.597 269.748 365.619 269.789C365.641 269.829 365.655 269.874 365.66 269.92C365.667 269.965 365.665 270.01 365.655 270.054C365.644 270.098 365.624 270.14 365.597 270.176C365.57 270.212 365.536 270.243 365.497 270.266C365.458 270.289 365.415 270.304 365.37 270.31C364.941 270.391 364.538 270.576 364.198 270.85C363.858 271.124 363.591 271.478 363.42 271.88C363.394 271.932 363.356 271.978 363.309 272.012C363.262 272.047 363.208 272.07 363.15 272.08Z" fill="#263238"/>
<path d="M372.39 266.46C372.39 266.46 374.39 265.02 375.31 266.57C376.23 268.12 376.17 272.25 376.17 272.25L376.57 271.52C376.57 271.52 379.16 280.72 382.91 278.4C386.66 276.08 392.17 266.74 383.41 261.98C383.41 261.98 382.48 259.76 376.69 258.66C370.9 257.56 363.9 261.14 362.69 264.97C361.48 268.8 363.17 270.97 363.17 270.97C363.356 270.136 363.736 269.358 364.28 268.7C364.358 269.09 364.531 269.455 364.784 269.762C365.037 270.069 365.362 270.309 365.73 270.46C365.671 269.677 365.834 268.894 366.2 268.2C366.392 268.881 366.733 269.509 367.2 270.04C367.62 266.1 370.3 265.3 371.14 265.33C371.441 265.363 371.723 265.49 371.948 265.693C372.172 265.896 372.327 266.164 372.39 266.46Z" fill="#263238"/>
<path d="M386.72 278.33C386.452 279.196 386.016 280.001 385.435 280.698C384.855 281.395 384.143 281.97 383.34 282.39C381.18 283.5 379.6 281.67 379.78 279.39C379.94 277.32 381.25 274.25 383.62 274.1C384.138 274.077 384.654 274.182 385.122 274.406C385.59 274.63 385.996 274.966 386.302 275.385C386.609 275.803 386.808 276.291 386.881 276.805C386.953 277.319 386.898 277.843 386.72 278.33Z" fill="#E4897B"/>
<path d="M368.449 282.48C369.073 283.133 369.648 283.832 370.169 284.57L370.599 284.36C372.529 283.36 373.109 282.29 373.159 281.36C373.172 280.912 373.08 280.466 372.889 280.06C372.787 279.829 372.653 279.613 372.489 279.42C371.568 280.555 370.411 281.476 369.099 282.12C368.709 282.36 368.449 282.48 368.449 282.48Z" fill="#263238"/>
<path d="M369.098 282.14L369.628 282.74C371.438 281.82 372.628 280.92 372.888 280.08C372.786 279.849 372.651 279.633 372.488 279.44C371.566 280.575 370.41 281.496 369.098 282.14Z" fill="white"/>
<path d="M370.598 284.36C372.528 283.36 373.108 282.29 373.158 281.36C372.431 281.746 371.777 282.257 371.228 282.87C370.865 283.287 370.645 283.809 370.598 284.36Z" fill="#A24E3F"/>
<path d="M194.408 306.18L194.928 311.73C194.928 311.73 227.408 316.67 232.608 321.73C237.808 326.79 256.258 406.82 256.258 406.82L248.818 407.82C248.818 407.82 222.998 348.82 221.618 340.28C221.618 340.28 198.878 341.13 183.358 341.13C167.838 341.13 165.988 306.13 165.988 306.13L194.408 306.18Z" fill="#407BFF"/>
<path opacity="0.3" d="M256.259 406.83L248.819 407.83C248.819 407.83 238.259 383.7 230.289 364.07C225.779 353 222.109 343.36 221.619 340.28C221.619 340.28 205.879 340.86 191.619 341.06C188.739 341.06 185.929 341.12 183.319 341.12C167.799 341.12 165.949 306.12 165.949 306.12H194.369L194.889 311.67C194.889 311.67 227.379 316.6 232.569 321.67C237.759 326.74 256.259 406.83 256.259 406.83Z" fill="white"/>
<path d="M262 414C257 414 256.33 413.92 253.51 413.82C251.1 413.74 250.51 414.04 248.59 414C246.97 414 247.03 412.41 247.53 410.63C247.78 409.73 248.16 407.84 248.53 406.4L255.87 405.86C256.87 407.86 259.23 410.65 262.05 411.03C264.87 411.41 264 414 262 414Z" fill="#263238"/>
<path opacity="0.2" d="M230.288 364.11C225.778 353.04 222.108 343.4 221.618 340.32C221.618 340.32 205.878 340.9 191.618 341.1L190.078 313.91C190.078 313.91 210.158 316.79 223.658 328.42C225.368 329.86 228.698 352.13 230.288 364.11Z" fill="black"/>
<path d="M223.289 346.33H165.179V342.76C165.179 341.569 165.652 340.427 166.494 339.585C167.336 338.743 168.478 338.27 169.669 338.27H218.799C219.99 338.27 221.132 338.743 221.974 339.585C222.816 340.427 223.289 341.569 223.289 342.76V346.33Z" fill="#263238"/>
<path opacity="0.2" d="M223.289 346.33H165.179V342.76C165.179 341.569 165.652 340.427 166.494 339.585C167.336 338.743 168.478 338.27 169.669 338.27H218.799C219.99 338.27 221.132 338.743 221.974 339.585C222.816 340.427 223.289 341.569 223.289 342.76V346.33Z" fill="white"/>
<path d="M221.267 398.58L198.867 396.63V367.21H190.997V396.62L168.517 398.62C167.562 398.714 166.675 399.161 166.03 399.872C165.385 400.584 165.028 401.51 165.027 402.47V405.47H224.767V402.47C224.777 401.501 224.422 400.564 223.774 399.844C223.126 399.124 222.232 398.673 221.267 398.58Z" fill="#263238"/>
<path d="M172.269 409.12C172.269 410.139 171.967 411.134 171.401 411.981C170.835 412.828 170.031 413.488 169.09 413.878C168.149 414.268 167.113 414.37 166.114 414.171C165.115 413.972 164.197 413.482 163.477 412.762C162.757 412.041 162.266 411.124 162.068 410.125C161.869 409.126 161.971 408.09 162.361 407.149C162.751 406.208 163.411 405.404 164.258 404.838C165.104 404.272 166.1 403.97 167.119 403.97C168.485 403.97 169.795 404.513 170.76 405.478C171.726 406.444 172.269 407.754 172.269 409.12Z" fill="#263238"/>
<path d="M222.658 414.27C225.502 414.27 227.808 411.964 227.808 409.12C227.808 406.276 225.502 403.97 222.658 403.97C219.814 403.97 217.508 406.276 217.508 409.12C217.508 411.964 219.814 414.27 222.658 414.27Z" fill="#263238"/>
<path d="M189.641 344.41H200.231V369.5C200.231 370.484 199.84 371.428 199.144 372.123C198.448 372.819 197.505 373.21 196.521 373.21H193.361C192.377 373.21 191.433 372.819 190.737 372.123C190.041 371.428 189.651 370.484 189.651 369.5V344.41H189.641Z" fill="#263238"/>
<path opacity="0.2" d="M189.641 344.41H200.231V369.5C200.231 370.484 199.84 371.428 199.144 372.123C198.448 372.819 197.505 373.21 196.521 373.21H193.361C192.377 373.21 191.433 372.819 190.737 372.123C190.041 371.428 189.651 370.484 189.651 369.5V344.41H189.641Z" fill="white"/>
<path d="M164.77 347.26H223.69C224.69 347.26 225.5 346.45 225.5 345.45V345.04C225.5 344.04 224.69 343.23 223.69 343.23H164.77C163.77 343.23 162.96 344.04 162.96 345.04V345.45C162.96 346.45 163.77 347.26 164.77 347.26Z" fill="#263238"/>
<path opacity="0.2" d="M172.269 409.12C172.269 410.139 171.967 411.134 171.401 411.981C170.835 412.828 170.031 413.488 169.09 413.878C168.149 414.268 167.113 414.37 166.114 414.171C165.115 413.972 164.197 413.482 163.477 412.762C162.757 412.041 162.266 411.124 162.068 410.125C161.869 409.126 161.971 408.09 162.361 407.149C162.751 406.208 163.411 405.404 164.258 404.838C165.104 404.272 166.1 403.97 167.119 403.97C168.485 403.97 169.795 404.513 170.76 405.478C171.726 406.444 172.269 407.754 172.269 409.12Z" fill="white"/>
<path opacity="0.2" d="M222.658 414.27C225.502 414.27 227.808 411.964 227.808 409.12C227.808 406.276 225.502 403.97 222.658 403.97C219.814 403.97 217.508 406.276 217.508 409.12C217.508 411.964 219.814 414.27 222.658 414.27Z" fill="white"/>
<path d="M228.231 296.86H210.281C205.021 296.86 201.221 292.13 201.801 286.31L202.561 278.53C203.141 272.7 207.861 267.97 213.121 267.97H231.071C236.331 267.97 240.131 272.7 239.561 278.53L238.791 286.31C238.221 292.13 233.491 296.86 228.231 296.86Z" fill="#263238"/>
<path opacity="0.2" d="M228.231 296.86H210.281C205.021 296.86 201.221 292.13 201.801 286.31L202.561 278.53C203.141 272.7 207.861 267.97 213.121 267.97H231.071C236.331 267.97 240.131 272.7 239.561 278.53L238.791 286.31C238.221 292.13 233.491 296.86 228.231 296.86Z" fill="white"/>
<path d="M226.579 293.07H215.999C212.889 293.07 210.639 290.28 210.999 286.83L211.459 282.24C211.789 278.79 214.589 276 217.699 276H228.299C231.409 276 233.659 278.79 233.299 282.24L232.839 286.83C232.479 290.28 229.689 293.07 226.579 293.07Z" fill="#263238"/>
<path d="M218.158 286.21C218.158 286.21 215.738 334.86 205.258 343.21H216.468C216.468 343.21 226.468 326.64 227.198 286.21H218.158Z" fill="#263238"/>
<path d="M227.18 265.94L229.11 264.94C229.472 264.755 229.873 264.658 230.28 264.658C230.687 264.658 231.088 264.755 231.45 264.94L234.91 266.64C235.591 266.975 236.182 267.469 236.633 268.079C237.084 268.69 237.381 269.4 237.5 270.15L237.66 271.1C234.57 273.04 229.81 272.86 229.81 272.86L228.44 272.97C228.161 272.999 227.878 272.972 227.609 272.891C227.34 272.81 227.09 272.676 226.874 272.497C226.657 272.319 226.478 272.099 226.347 271.85C226.215 271.602 226.135 271.33 226.11 271.05L225.87 268.35C225.825 267.864 225.925 267.375 226.158 266.945C226.391 266.516 226.747 266.166 227.18 265.94Z" fill="#B97964"/>
<path opacity="0.2" d="M227.18 265.94L229.11 264.94C229.472 264.755 229.873 264.658 230.28 264.658C230.687 264.658 231.088 264.755 231.45 264.94L234.91 266.64C235.591 266.975 236.182 267.469 236.633 268.079C237.084 268.69 237.381 269.4 237.5 270.15L237.66 271.1C234.57 273.04 229.81 272.86 229.81 272.86L228.44 272.97C228.161 272.999 227.878 272.972 227.609 272.891C227.34 272.81 227.09 272.676 226.874 272.497C226.657 272.319 226.478 272.099 226.347 271.85C226.215 271.602 226.135 271.33 226.11 271.05L225.87 268.35C225.825 267.864 225.925 267.375 226.158 266.945C226.391 266.516 226.747 266.166 227.18 265.94Z" fill="black"/>
<path d="M213 268.32L206 277.17H199.34L200.21 264.82C205.25 265.79 213 268.32 213 268.32Z" fill="#407BFF"/>
<path opacity="0.2" d="M205.408 277.17H199.648L203.228 268.32C203.228 268.32 205.278 271.43 205.408 277.17Z" fill="black"/>
<path d="M194.837 309.52L165.527 306.8C166.447 303.68 167.257 300.62 167.937 297.67C168.797 294.06 169.477 290.6 170.017 287.37C170.557 284.14 171.017 281.14 171.337 278.42L171.427 277.65C171.427 277.22 171.527 276.8 171.567 276.4C171.857 273.77 172.037 271.48 172.157 269.59C172.407 265.9 172.407 263.77 172.407 263.77C182.45 261.847 192.813 262.462 202.557 265.56C206.917 277.84 194.837 309.52 194.837 309.52Z" fill="#407BFF"/>
<path d="M194.74 267.52C194.295 268.442 193.614 269.231 192.767 269.806C191.919 270.381 190.935 270.723 189.913 270.796C188.892 270.869 187.869 270.671 186.948 270.222C186.028 269.774 185.242 269.09 184.67 268.24L183.4 266.35L181.84 264C184.46 262.45 185.49 257.49 185.84 253.23C185.95 251.89 185.99 250.63 185.99 249.56L192.57 258.56C192.11 259.513 191.773 260.521 191.57 261.56C191.487 261.988 191.453 262.424 191.47 262.86C191.48 264.61 192.35 266.23 194.74 267.52Z" fill="#B97964"/>
<path opacity="0.2" d="M192.55 258.61C192.09 259.563 191.753 260.571 191.55 261.61C189.82 263.83 187.13 266.18 183.42 266.33L181.84 264C184.46 262.45 185.49 257.49 185.84 253.23C185.95 251.89 185.99 250.63 185.99 249.56L192.55 258.61Z" fill="black"/>
<path d="M176.741 243.58C176.741 243.58 173.491 242.36 174.451 240.11C175.411 237.86 176.571 237.88 176.571 237.88C176.08 236.96 175.813 235.937 175.792 234.894C175.771 233.852 175.997 232.819 176.451 231.88C178.061 228.88 181.621 230.1 181.621 230.1C181.635 229.158 181.969 228.248 182.569 227.521C183.169 226.794 183.998 226.293 184.921 226.1C185.862 225.944 186.829 226.1 187.674 226.544C188.519 226.988 189.195 227.696 189.601 228.56C189.601 228.56 191.841 225.65 195.121 226.45C198.401 227.25 199.061 231.82 199.061 231.82C199.957 231.528 200.931 231.593 201.78 232C202.629 232.408 203.289 233.128 203.621 234.01C204.067 234.93 204.253 235.955 204.16 236.974C204.066 237.992 203.697 238.966 203.091 239.79C203.091 239.79 205.181 238.79 205.871 242.16C206.561 245.53 203.041 248.49 203.041 248.49C203.041 248.49 204.941 248.72 203.961 251.21C202.981 253.7 199.891 253.74 199.891 253.74C199.891 253.74 201.091 254.35 198.821 256.4C196.551 258.45 189.241 255.52 189.241 255.52L176.741 243.58Z" fill="#263238"/>
<path d="M185.679 238.24C178.679 238.6 176.679 242.46 176.509 249.69C176.339 258.69 178.669 265 187.299 262.62C198.999 259.39 197.279 237.63 185.679 238.24Z" fill="#B97964"/>
<path d="M180.997 249.06C180.493 250.132 179.862 251.139 179.117 252.06C179.338 252.339 179.631 252.551 179.964 252.675C180.297 252.798 180.658 252.828 181.007 252.76L180.997 249.06Z" fill="#A24E3F"/>
<path d="M185.247 248.26C185.247 248.84 185.587 249.26 185.967 249.26C186.347 249.26 186.647 248.78 186.637 248.2C186.627 247.62 186.297 247.2 185.907 247.2C185.517 247.2 185.227 247.69 185.247 248.26Z" fill="#263238"/>
<path d="M186.069 247.23L184.809 246.77C184.809 246.77 185.459 247.81 186.069 247.23Z" fill="#263238"/>
<path d="M178.098 248.35C178.098 248.93 178.438 249.35 178.828 249.35C179.218 249.35 179.508 248.87 179.488 248.29C179.468 247.71 179.148 247.29 178.768 247.29C178.388 247.29 178.088 247.78 178.098 248.35Z" fill="#263238"/>
<path d="M178.93 247.31L177.66 246.86C177.66 246.86 178.32 247.89 178.93 247.31Z" fill="#263238"/>
<path d="M188.149 244.63C188.107 244.631 188.066 244.622 188.028 244.605C187.99 244.588 187.956 244.562 187.929 244.53C187.552 244.193 187.103 243.946 186.616 243.808C186.129 243.669 185.617 243.643 185.119 243.73C185.08 243.737 185.041 243.737 185.002 243.729C184.963 243.721 184.927 243.705 184.894 243.683C184.862 243.66 184.834 243.632 184.813 243.599C184.791 243.566 184.776 243.529 184.769 243.49C184.757 243.413 184.776 243.335 184.821 243.272C184.865 243.208 184.933 243.165 185.009 243.15C185.608 243.041 186.225 243.074 186.809 243.248C187.393 243.422 187.927 243.731 188.369 244.15C188.424 244.206 188.455 244.282 188.455 244.36C188.455 244.439 188.424 244.514 188.369 244.57C188.306 244.617 188.227 244.639 188.149 244.63Z" fill="#263238"/>
<path d="M177.218 244.42C177.172 244.42 177.127 244.41 177.086 244.391C177.045 244.372 177.008 244.344 176.978 244.31C176.93 244.246 176.91 244.166 176.921 244.088C176.932 244.009 176.974 243.938 177.038 243.89C177.448 243.545 177.931 243.297 178.45 243.164C178.97 243.031 179.512 243.016 180.038 243.12C180.076 243.131 180.112 243.15 180.143 243.176C180.174 243.201 180.199 243.232 180.218 243.268C180.237 243.303 180.248 243.342 180.251 243.382C180.255 243.422 180.25 243.462 180.238 243.5C180.213 243.573 180.16 243.634 180.091 243.67C180.022 243.705 179.942 243.712 179.868 243.69C179.428 243.611 178.977 243.631 178.546 243.749C178.115 243.866 177.716 244.078 177.378 244.37C177.33 244.401 177.275 244.418 177.218 244.42Z" fill="#263238"/>
<path d="M193.929 249.61C193.929 249.61 190.359 244.04 190.629 239.61C190.629 239.61 176.489 234.68 176.539 248.76C176.539 248.76 174.539 236.36 186.539 235.45C198.539 234.54 199.399 252.11 193.469 257.67C193.459 257.65 196.139 253.09 193.929 249.61Z" fill="#263238"/>
<path d="M192.867 251.15C192.876 250.746 192.965 250.348 193.128 249.978C193.292 249.608 193.527 249.275 193.819 248.996C194.112 248.717 194.457 248.499 194.834 248.354C195.211 248.209 195.613 248.139 196.017 248.15C198.197 248.28 199.457 252.67 194.127 254.02C193.367 254.23 192.887 253.5 192.867 251.15Z" fill="#B97964"/>
<path d="M182.689 256.83C182.489 256.844 182.289 256.844 182.089 256.83C182.05 256.823 182.013 256.808 181.98 256.787C181.947 256.765 181.919 256.737 181.896 256.705C181.874 256.672 181.858 256.636 181.85 256.597C181.842 256.559 181.842 256.519 181.849 256.48C181.855 256.442 181.869 256.405 181.889 256.372C181.909 256.339 181.936 256.31 181.968 256.288C182 256.266 182.036 256.25 182.074 256.242C182.112 256.233 182.151 256.233 182.189 256.24C182.942 256.372 183.718 256.247 184.391 255.884C185.064 255.521 185.595 254.942 185.899 254.24C185.913 254.203 185.935 254.17 185.962 254.141C185.99 254.113 186.022 254.09 186.059 254.074C186.095 254.058 186.134 254.05 186.173 254.049C186.213 254.049 186.252 254.056 186.289 254.07C186.326 254.084 186.359 254.106 186.388 254.133C186.416 254.161 186.439 254.194 186.455 254.23C186.47 254.266 186.479 254.305 186.48 254.345C186.48 254.384 186.473 254.423 186.459 254.46C186.152 255.196 185.625 255.819 184.95 256.243C184.275 256.668 183.485 256.873 182.689 256.83Z" fill="#263238"/>
<path d="M196.499 247.06C194.829 238.39 182.009 231.11 177.199 241.19C178.006 238.664 179.565 236.444 181.669 234.83C181.669 234.83 194.669 231.12 196.959 245.93L196.499 247.06Z" fill="#407BFF"/>
<path d="M189.668 414C184.668 414 183.998 413.92 181.178 413.82C178.768 413.74 178.178 414.04 176.258 414C174.638 414 174.698 412.41 175.198 410.63C175.448 409.73 175.828 407.84 176.198 406.4L183.538 405.86C184.538 407.86 186.898 410.65 189.718 411.03C192.538 411.41 191.658 414 189.668 414Z" fill="#263238"/>
<path d="M165.999 306.18C165.999 306.18 155.999 321.05 161.419 333.27C166.839 345.49 194.249 339.97 194.249 339.97L176.189 406.43L184.829 407.86C184.829 407.86 215.459 341.99 216.239 330.76C217.019 319.53 183.949 312.32 183.949 312.32L165.999 306.18Z" fill="#407BFF"/>
<path opacity="0.3" d="M165.999 306.18C165.999 306.18 155.999 321.05 161.419 333.27C166.839 345.49 194.249 339.97 194.249 339.97L176.189 406.43L184.829 407.86C184.829 407.86 215.459 341.99 216.239 330.76C217.019 319.53 183.949 312.32 183.949 312.32L165.999 306.18Z" fill="white"/>
<path opacity="0.2" d="M196.5 272C196.5 272 182.5 281.86 171.43 277.62C171.43 277.19 171.53 276.77 171.57 276.37C171.86 273.74 172.04 271.45 172.16 269.56C175.747 267.921 179.471 266.599 183.29 265.61C187.22 268.604 191.712 270.777 196.5 272Z" fill="black"/>
<path d="M176.999 263.79C183.159 266.79 189.519 270.52 196.229 271.89C200.089 271.64 204.409 270.07 208.289 269.01L219.919 265.49C220.417 265.333 220.956 265.368 221.43 265.587C221.904 265.806 222.28 266.193 222.484 266.674C222.687 267.155 222.704 267.695 222.532 268.188C222.359 268.681 222.009 269.091 221.549 269.34C217.919 271.34 214.259 273.18 210.469 274.86C205.789 276.78 201.469 279.02 196.189 279.5C194.294 279.478 192.411 279.202 190.589 278.68C184.442 276.877 178.522 274.37 172.949 271.21C172.062 270.63 171.426 269.738 171.165 268.711C170.904 267.684 171.039 266.596 171.542 265.663C172.045 264.73 172.879 264.02 173.881 263.673C174.882 263.326 175.977 263.368 176.949 263.79H176.999Z" fill="#B97864"/>
<path d="M173.689 262.68C168.299 263.96 168.119 273.21 173.069 277.55L185.069 267.42C185.069 267.42 180.079 261.16 173.689 262.68Z" fill="#407BFF"/>
<path d="M220.23 265.54L226.88 265.38L223.88 272.11C223.88 272.11 217.88 271.9 218.17 268.84L220.23 265.54Z" fill="#B97964"/>
<path d="M232.589 268.67L228.029 273.58L223.859 272.11L226.879 265.38L232.589 268.67Z" fill="#B97964"/>
<path d="M321.88 346.51C326.53 356.13 331.01 365.75 334.04 376.05C335.43 383.05 335.69 390.17 336.21 397.12C336.57 402.87 336.78 408.61 336.86 414.38L331.71 414.92C330.08 406.81 328.55 397.76 327.13 389.58C326.45 385.88 325.93 382.24 325 378.68C321.46 369.51 316.55 360.07 312.48 351.05L321.88 346.51Z" fill="#DC897C"/>
<path d="M329.56 359.1L321.41 363L316.35 365.45L313.28 358.07L310.07 350.34L312.78 336.25C321.1 339.89 329.56 359.1 329.56 359.1Z" fill="#407BFF"/>
<path opacity="0.2" d="M321.407 363L316.347 365.45L313.277 358.07C313.907 353.89 314.437 350.34 314.437 350.34C314.437 350.34 320.357 355.65 321.407 363Z" fill="black"/>
<path d="M296.997 310.7C297.087 311.3 297.477 311.7 297.867 311.7C298.257 311.7 298.497 311.11 298.407 310.51C298.317 309.91 297.917 309.51 297.527 309.51C297.137 309.51 296.847 310.11 296.997 310.7Z" fill="#263238"/>
<path d="M297.367 311.74C298.359 313.452 299.58 315.02 300.997 316.4C300.638 316.758 300.205 317.033 299.728 317.205C299.251 317.378 298.742 317.444 298.237 317.4L297.367 311.74Z" fill="#DE5753"/>
<path d="M294.247 307.73C294.158 307.727 294.073 307.691 294.007 307.63C293.942 307.563 293.906 307.473 293.906 307.38C293.906 307.287 293.942 307.197 294.007 307.13C294.399 306.729 294.881 306.428 295.414 306.254C295.947 306.08 296.514 306.037 297.067 306.13C297.113 306.139 297.156 306.158 297.194 306.184C297.232 306.211 297.265 306.244 297.29 306.283C297.315 306.323 297.333 306.366 297.341 306.412C297.349 306.458 297.347 306.505 297.337 306.55C297.328 306.596 297.309 306.639 297.283 306.677C297.257 306.715 297.223 306.748 297.184 306.773C297.145 306.798 297.101 306.815 297.055 306.823C297.009 306.831 296.963 306.83 296.917 306.82C296.478 306.757 296.029 306.801 295.61 306.947C295.191 307.093 294.813 307.338 294.507 307.66C294.471 307.688 294.429 307.709 294.384 307.721C294.34 307.733 294.293 307.736 294.247 307.73Z" fill="#263238"/>
<path d="M298.858 319.74C298.667 322.154 297.637 324.425 295.948 326.16C294.832 327.306 293.462 328.173 291.948 328.69C290.5 329.193 288.949 329.327 287.435 329.081C285.921 328.835 284.493 328.216 283.278 327.28C278.998 324.1 278.438 319.77 276.858 312.52C276.469 310.839 276.516 309.087 276.995 307.429C277.474 305.772 278.369 304.265 279.594 303.05C280.82 301.836 282.335 300.955 283.997 300.491C285.658 300.027 287.411 299.996 289.088 300.4C296.728 302.21 299.408 312.92 298.858 319.74Z" fill="#E4897B"/>
<path d="M279.61 324.35C282.61 326.24 293.95 320.93 292.08 312C292.08 312 296.55 307.11 296.33 301.48C296.11 295.85 292.33 293.48 288.21 294.54C284.55 295.43 284.56 297.42 284.56 297.42C284.56 297.42 267.4 298.63 270.72 305.74C263.42 313 275.92 322 279.61 324.35Z" fill="#263238"/>
<path d="M288.999 313.39C289.404 315.191 290.392 316.808 291.809 317.99C293.679 319.53 295.199 318.17 295.169 315.99C295.169 313.99 294.169 310.82 291.999 310.13C289.829 309.44 288.579 311.22 288.999 313.39Z" fill="#E4897B"/>
<path opacity="0.2" d="M298.337 322.26C297.838 323.72 297.022 325.052 295.947 326.16C294.831 327.306 293.461 328.173 291.947 328.69C290.93 328.175 289.954 327.584 289.027 326.92L290.547 323.19C290.547 323.19 295.207 325.47 298.337 322.26Z" fill="black"/>
<path d="M282.05 333.5L280.77 324.73C280.77 324.73 286.48 320.73 292.46 323.42L301.46 334.27L282.05 333.5Z" fill="#E4897B"/>
<path d="M302.501 333.19L300.411 330.06C300.411 330.06 285.251 324.45 278.641 331.64C278.641 331.64 293.431 339.46 302.501 333.19Z" fill="#407BFF"/>
<path opacity="0.2" d="M302.501 333.19L300.411 330.06C300.411 330.06 285.251 324.45 278.641 331.64C278.641 331.64 293.431 339.46 302.501 333.19Z" fill="black"/>
<path d="M244.288 418.22L238.578 414.54L240.768 411.27L246.718 402.39L252.438 406.07L245.858 415.88L244.288 418.22Z" fill="#E4897B"/>
<path d="M238.999 414.07L246.999 413.99C247.129 413.993 247.254 414.039 247.355 414.12C247.456 414.201 247.528 414.314 247.559 414.44L248.899 420.25C248.948 420.5 248.899 420.759 248.764 420.975C248.628 421.19 248.415 421.346 248.169 421.41H247.959C245.379 421.41 243.509 421.25 240.279 421.28C238.279 421.28 232.279 421.57 229.539 421.59C226.799 421.61 226.399 418.91 227.539 418.65C232.539 417.5 236.359 415.94 237.959 414.47C238.245 414.214 238.615 414.072 238.999 414.07Z" fill="#263238"/>
<path d="M240.539 409.06L250.999 411.88L307.779 368.8L278.649 362.42C276.568 361.975 274.402 362.174 272.437 362.99C270.472 363.807 268.802 365.202 267.649 366.99L240.539 409.06Z" fill="#263238"/>
<path opacity="0.2" d="M240.539 409.06L250.999 411.88L307.779 368.8L278.649 362.42C276.568 361.975 274.402 362.174 272.437 362.99C270.472 363.807 268.802 365.202 267.649 366.99L240.539 409.06Z" fill="black"/>
<path d="M209.498 418.43L203.598 415.06L205.618 411.68L211.088 402.5L216.988 405.87L210.938 416.01L209.498 418.43Z" fill="#E4897B"/>
<path d="M203.829 413.93H211.829C211.959 413.931 212.085 413.976 212.187 414.058C212.288 414.139 212.36 414.253 212.389 414.38L213.679 420.21C213.724 420.461 213.672 420.72 213.532 420.934C213.393 421.148 213.177 421.3 212.929 421.36H212.719C210.149 421.36 208.269 421.16 205.039 421.16C203.039 421.16 197.039 421.37 194.299 421.37C191.559 421.37 191.189 418.65 192.299 418.37C197.299 417.27 201.149 415.75 202.769 414.3C203.066 414.053 203.443 413.922 203.829 413.93Z" fill="#263238"/>
<path d="M321.48 391.42L281.78 391.52C280.78 388 279.52 375.75 275.64 360.6C274.59 356.49 273.34 352.17 271.87 347.74C270.649 343.734 269.166 339.812 267.43 336C271.022 333.829 274.969 332.309 279.09 331.51C296.66 328.51 312.78 336.25 312.78 336.25C312.78 336.25 319.75 355.65 321.48 391.42Z" fill="#407BFF"/>
<path opacity="0.2" d="M275.637 360.6C274.587 356.49 273.337 352.17 271.867 347.74L274.637 346.62C274.637 346.62 278.997 356.45 275.637 360.6Z" fill="black"/>
<path d="M258.269 367.4L262.879 369.58L264.639 361.82C264.639 361.82 260.959 360.53 258.199 362.41L258.269 367.4Z" fill="#E4897B"/>
<path d="M269.489 372.21L269.699 365.14L264.639 361.82L262.879 369.58L269.489 372.21Z" fill="#E4897B"/>
<path d="M272.638 348.15C264.968 352.3 256.208 356.15 249.538 361.58C249.388 361.71 249.438 361.77 249.608 361.19C249.639 360.821 249.592 360.449 249.468 360.1C249.357 359.72 249.112 359.393 248.778 359.18C248.648 359.13 248.728 359.25 248.908 359.37C249.157 359.526 249.422 359.656 249.698 359.76C252.778 360.93 257.048 361.32 260.498 361.76L261.018 366.91C259.928 367.22 258.908 367.43 257.838 367.63C253.838 368.32 249.688 368.81 245.478 367.42C243.668 366.876 242.142 365.649 241.221 363.999C240.301 362.349 240.059 360.405 240.548 358.58C242.608 351.27 261.248 342.15 268.088 338.76L272.638 348.16V348.15Z" fill="#DC897C"/>
<path d="M279.909 383.07L278.129 387.63C278.129 387.63 256.859 361.35 245.129 359.85C233.399 358.35 206.129 408.29 206.129 408.29L216.469 411.42L245.569 385.02C257.569 405.96 271.919 421.32 288.979 421.32H305.639C324.269 421.32 324.479 400.54 320.799 382.92L279.909 383.07Z" fill="#263238"/>
<path d="M267.428 336C260.758 338.44 252.918 345.84 252.918 345.84C252.918 345.84 259.518 357.28 260.178 356.84C260.838 356.4 274.378 352.52 274.378 352.52C274.378 352.52 277.138 348.94 275.018 342.88C274.467 341.169 273.475 339.632 272.143 338.425C270.811 337.217 269.185 336.381 267.428 336Z" fill="#407BFF"/>
<path d="M334.408 410.93L341.658 411.29L337.828 418.37C337.828 418.37 331.378 417.66 331.888 414.37L334.408 410.93Z" fill="#E4897B"/>
<path d="M347.598 415.33L342.248 420.3L337.828 418.37L341.658 411.29L347.598 415.33Z" fill="#E4897B"/>
<path d="M109.72 339.22C114.58 344.12 119.37 349.61 125.19 353.32C125.19 353.32 125.55 353.51 125.58 353.54C125.423 353.482 125.257 353.455 125.09 353.46C124.94 353.46 125.18 353.46 125.44 353.46C132.08 351.58 138.25 347.25 144.36 343.92C144.833 343.635 145.394 343.534 145.936 343.636C146.479 343.738 146.965 344.036 147.302 344.473C147.64 344.911 147.804 345.456 147.765 346.007C147.726 346.558 147.485 347.075 147.09 347.46C142.33 351.87 129.5 363.66 122.76 361.19C118.64 359.68 115.2 356.84 111.96 354.11C108.795 351.367 105.812 348.421 103.03 345.29C99.2196 340.76 105.58 334.99 109.72 339.23V339.22Z" fill="#E9B376"/>
<path d="M118.078 346.14C117.228 352.5 112.078 358.74 112.078 358.74L110.998 358L105.738 354.51C105.738 354.51 105.638 354.21 105.488 353.68C105.338 353.15 105.148 352.53 104.918 351.68C103.708 347.44 101.528 339.51 101.258 336.22C107.788 336.07 110.728 339.18 118.078 346.14Z" fill="#407BFF"/>
<path opacity="0.7" d="M118.078 346.14C117.228 352.5 112.078 358.74 112.078 358.74L110.998 358L105.738 354.51C105.738 354.51 105.638 354.21 105.488 353.68C105.338 353.15 105.148 352.53 104.918 351.68C103.708 347.44 101.528 339.51 101.258 336.22C107.788 336.07 110.728 339.18 118.078 346.14Z" fill="white"/>
<path opacity="0.2" d="M110.998 358L105.738 354.51C105.738 354.51 105.638 354.21 105.488 353.68C105.683 352.07 105.977 350.474 106.368 348.9C107.754 349.99 108.886 351.369 109.686 352.94C110.485 354.512 110.933 356.238 110.998 358Z" fill="black"/>
<path d="M104.598 377.5L109.088 385.36C121.088 382.56 159.668 376.68 164.398 389.91C170.288 406.34 127.758 419.45 104.228 420.25C80.6984 421.05 60.1684 415.45 75.0484 381.14L104.598 377.5Z" fill="#263238"/>
<path opacity="0.2" d="M104.598 377.5L109.088 385.36C121.088 382.56 159.668 376.68 164.398 389.91C170.288 406.34 127.758 419.45 104.228 420.25C80.6984 421.05 60.1684 415.45 75.0484 381.14L104.598 377.5Z" fill="black"/>
<path d="M157.589 413.14C157.562 413.157 157.53 413.166 157.499 413.166C157.467 413.166 157.436 413.157 157.409 413.14C157.394 413.118 157.387 413.092 157.387 413.065C157.387 413.038 157.394 413.012 157.409 412.99C157.489 412.73 158.269 410.47 159.059 410.23C159.141 410.21 159.228 410.211 159.31 410.234C159.393 410.257 159.468 410.3 159.529 410.36C159.637 410.452 159.72 410.57 159.769 410.703C159.818 410.836 159.832 410.98 159.809 411.12C159.679 411.545 159.421 411.919 159.069 412.19C158.609 412.557 158.113 412.875 157.589 413.14ZM157.788 412.71C158.523 412.391 159.117 411.815 159.459 411.09C159.481 410.996 159.475 410.897 159.441 410.806C159.407 410.715 159.347 410.637 159.269 410.58C159.246 410.552 159.216 410.532 159.183 410.521C159.149 410.511 159.113 410.51 159.079 410.52C159.012 410.544 158.951 410.582 158.898 410.63C158.405 411.25 158.029 411.955 157.788 412.71Z" fill="#263238"/>
<path d="M157.539 413.17C157.519 413.186 157.495 413.195 157.469 413.195C157.443 413.195 157.419 413.186 157.399 413.17C157.319 413.11 156.239 411.74 156.399 410.81C156.418 410.695 156.461 410.585 156.525 410.486C156.588 410.388 156.671 410.304 156.769 410.24C156.854 410.164 156.961 410.116 157.074 410.106C157.188 410.095 157.301 410.121 157.399 410.18C157.969 410.59 157.899 412.42 157.619 413.12V413.19L157.539 413.17ZM156.929 410.49C156.829 410.57 156.762 410.684 156.739 410.81C156.769 411.503 157.025 412.167 157.469 412.7C157.639 411.92 157.589 410.63 157.249 410.4C157.249 410.4 157.149 410.32 156.979 410.4V410.45L156.929 410.49Z" fill="#263238"/>
<path d="M116.219 417C116.235 416.975 116.257 416.955 116.284 416.942C116.31 416.93 116.34 416.926 116.369 416.93C116.396 416.932 116.422 416.943 116.442 416.961C116.462 416.979 116.475 417.003 116.479 417.03C116.539 417.3 116.949 419.66 116.379 420.25C116.315 420.307 116.237 420.347 116.153 420.364C116.068 420.382 115.981 420.377 115.899 420.35C115.758 420.327 115.627 420.265 115.519 420.171C115.411 420.078 115.332 419.956 115.289 419.82C115.19 419.391 115.236 418.941 115.419 418.54C115.632 418 115.9 417.484 116.219 417ZM116.219 417.48C115.732 418.114 115.488 418.901 115.529 419.7C115.557 419.796 115.612 419.882 115.689 419.946C115.766 420.01 115.86 420.05 115.959 420.06C115.987 420.079 116.02 420.089 116.054 420.089C116.088 420.089 116.121 420.079 116.149 420.06C116.194 420.007 116.228 419.946 116.249 419.88C116.399 419.087 116.399 418.273 116.249 417.48H116.219Z" fill="#263238"/>
<path d="M131.619 405.09L121.939 408.54L117.289 410.2L118.479 415.29L122.979 414.33L133.979 411.98L131.619 405.09Z" fill="#EBB376"/>
<path d="M119.748 415.53L118.928 409.53C118.917 409.451 118.89 409.375 118.85 409.306C118.809 409.237 118.755 409.177 118.69 409.13C118.626 409.082 118.553 409.048 118.475 409.029C118.398 409.01 118.317 409.007 118.238 409.02L115.238 409.52C115.238 409.52 111.238 409.89 110.408 410.93C108.068 413.93 109.528 427.27 111.088 427.74C111.658 427.91 112.258 427.13 112.508 426.59C113.298 424.87 114.688 420.38 115.368 418.96C116.148 417.29 118.368 416.48 119.288 416.19C119.433 416.157 119.56 416.07 119.645 415.949C119.73 415.827 119.767 415.677 119.748 415.53Z" fill="#407BFF"/>
<path d="M116.239 417C116.261 416.985 116.287 416.976 116.314 416.976C116.341 416.976 116.367 416.985 116.389 417C116.479 417 118.099 417.7 118.389 418.59C118.424 418.702 118.437 418.819 118.427 418.936C118.417 419.053 118.383 419.166 118.329 419.27C118.297 419.381 118.228 419.477 118.133 419.543C118.039 419.608 117.924 419.639 117.809 419.63C117.119 419.55 116.289 417.91 116.199 417.17V417C116.212 416.997 116.226 416.997 116.239 417ZM118.079 419.05C118.119 418.926 118.119 418.794 118.079 418.67C117.889 418.1 116.989 417.6 116.529 417.37C116.749 418.14 117.419 419.24 117.829 419.28C117.829 419.28 117.949 419.28 118.039 419.11V419.05H118.079Z" fill="#263238"/>
<path opacity="0.2" d="M131.617 405.09L121.938 408.54L122.978 414.33L133.977 411.98L131.617 405.09Z" fill="black"/>
<path d="M124.697 415.2L127.477 415.4L125.617 405.82L122.457 407.56L124.697 415.2Z" fill="#407BFF"/>
<path opacity="0.6" d="M124.697 415.2L127.477 415.4L125.617 405.82L122.457 407.56L124.697 415.2Z" fill="white"/>
<path opacity="0.2" d="M84.3086 378L98.8086 394.08C98.8086 394.08 114.809 393.72 134.309 403.24C134.309 403.24 155.199 394.61 157.119 387.44C159.639 378.05 109.119 385.39 109.119 385.39L84.3086 378Z" fill="black"/>
<path d="M104.447 384.43L74.8774 381C75.4437 377.946 75.778 374.854 75.8774 371.75C75.9958 367.327 75.8221 362.9 75.3574 358.5C74.9474 354.29 74.3574 349.45 73.3574 343.77C73.1573 342.754 73.187 341.707 73.4444 340.704C73.7017 339.701 74.1801 338.769 74.8446 337.975C75.5091 337.181 76.3427 336.546 77.2845 336.116C78.2262 335.686 79.2523 335.472 80.2874 335.49C81.4774 335.49 82.7274 335.55 84.0074 335.63C88.5356 335.833 93.0436 336.357 97.4974 337.2C98.9374 337.49 100.427 337.85 101.857 338.2C106.987 339.53 110.167 345.99 109.727 351.2C109.554 355.249 109.107 359.282 108.387 363.27C107.477 369.15 106.407 374.89 104.447 384.43Z" fill="#407BFF"/>
<path opacity="0.7" d="M104.447 384.43L74.8774 381C75.4437 377.946 75.778 374.854 75.8774 371.75C75.9958 367.327 75.8221 362.9 75.3574 358.5C74.9474 354.29 74.3574 349.45 73.3574 343.77C73.1573 342.754 73.187 341.707 73.4444 340.704C73.7017 339.701 74.1801 338.769 74.8446 337.975C75.5091 337.181 76.3427 336.546 77.2845 336.116C78.2262 335.686 79.2523 335.472 80.2874 335.49C81.4774 335.49 82.7274 335.55 84.0074 335.63C88.5356 335.833 93.0436 336.357 97.4974 337.2C98.9374 337.49 100.427 337.85 101.857 338.2C106.987 339.53 110.167 345.99 109.727 351.2C109.554 355.249 109.107 359.282 108.387 363.27C107.477 369.15 106.407 374.89 104.447 384.43Z" fill="white"/>
<path opacity="0.2" d="M75.8989 371.76C76.0174 367.337 75.8437 362.91 75.3789 358.51C79.0789 354.14 82.5789 350.51 82.5789 350.51C82.5789 350.51 88.3789 365.44 75.8989 371.76Z" fill="black"/>
<path d="M80.5669 348.89C80.9069 355.22 80.8469 365.07 81.9969 371.12L81.6969 370.38C81.4969 370.09 81.6169 370.38 81.8269 370.54C82.0974 370.808 82.3846 371.058 82.6869 371.29C86.6869 374.29 91.4869 376.6 95.9969 378.99L101.687 381.92C102.18 382.167 102.565 382.587 102.769 383.1C102.973 383.613 102.981 384.183 102.792 384.701C102.603 385.22 102.231 385.651 101.745 385.912C101.259 386.174 100.694 386.248 100.157 386.12C97.9869 385.6 95.9069 384.98 93.7969 384.34C87.7969 382.34 81.6369 380.42 76.4769 376.51C75.4691 375.727 74.686 374.693 74.2069 373.51C71.8969 365.31 71.7169 357.39 71.5469 349.03C71.7569 343.2 80.1969 343.09 80.5469 348.92L80.5669 348.89Z" fill="#E9B376"/>
<path d="M109.669 381.56L107.869 380.25C107.535 380.008 107.149 379.851 106.741 379.79C106.334 379.729 105.918 379.767 105.529 379.9L101.829 381.14C101.099 381.387 100.44 381.804 99.9039 382.357C99.3682 382.91 98.9722 383.583 98.7487 384.32L98.4688 385.25C101.309 387.61 106.119 388.08 106.119 388.08L107.469 388.36C107.745 388.427 108.032 388.438 108.313 388.393C108.594 388.348 108.863 388.248 109.105 388.098C109.347 387.948 109.556 387.752 109.722 387.521C109.887 387.289 110.005 387.027 110.069 386.75L110.669 384.07C110.765 383.6 110.722 383.111 110.544 382.665C110.366 382.219 110.062 381.835 109.669 381.56Z" fill="#EBB376"/>
<path d="M77.8686 335.9C72.0886 337.97 70.4286 343.01 70.3086 353.52C73.3086 356.25 82.4186 356.4 82.4186 356.4C82.4186 356.4 83.9986 340.46 77.8686 335.9Z" fill="#407BFF"/>
<path d="M147.888 387.35V389.73C147.888 390.34 147.168 390.59 146.558 390.59H98.9984C98.3784 390.59 97.6484 390.34 97.6484 389.73V387.35H147.888Z" fill="#263238"/>
<path opacity="0.4" d="M147.888 387.35V389.73C147.888 390.34 147.168 390.59 146.558 390.59H98.9984C98.3784 390.59 97.6484 390.34 97.6484 389.73V387.35H147.888Z" fill="white"/>
<path opacity="0.2" d="M147.89 387.35V389.73C147.89 390.34 147.17 390.59 146.56 390.59H115.16C114.55 390.59 113.82 390.34 113.82 389.73V387.35H147.89Z" fill="black"/>
<path d="M155.859 362.61L150.189 388.32C150.084 388.731 149.847 389.096 149.515 389.36C149.183 389.624 148.773 389.771 148.349 389.78H117.349C117.156 389.775 116.967 389.725 116.796 389.634C116.626 389.544 116.479 389.415 116.366 389.258C116.254 389.101 116.18 388.92 116.149 388.73C116.118 388.539 116.132 388.344 116.189 388.16L121.849 362.65C121.965 362.261 122.211 361.923 122.546 361.694C122.881 361.464 123.284 361.357 123.689 361.39H154.689C155.519 361.39 155.999 361.77 155.859 362.61Z" fill="#263238"/>
<path opacity="0.4" d="M155.86 362.61L150.19 388.32C150.085 388.731 149.848 389.096 149.516 389.36C149.183 389.624 148.774 389.771 148.35 389.78H118.43C118.237 389.774 118.048 389.724 117.877 389.634C117.706 389.543 117.559 389.415 117.446 389.258C117.332 389.102 117.257 388.921 117.225 388.731C117.192 388.54 117.204 388.345 117.26 388.16L122.93 362.65C123.045 362.261 123.291 361.923 123.626 361.694C123.961 361.464 124.365 361.357 124.77 361.39H154.69C155.52 361.39 156 361.77 155.86 362.61Z" fill="white"/>
<path opacity="0.2" d="M140.59 375.67C140.491 376.713 140.026 377.686 139.277 378.419C138.528 379.151 137.544 379.594 136.5 379.67C134.77 379.67 133.74 377.88 134.24 375.67C134.74 373.46 136.45 371.75 138.14 371.67C137.65 373.87 138.71 375.67 140.43 375.67H140.59Z" fill="black"/>
<path d="M145.498 348.28L152.158 348.45L149.158 341.71C149.158 341.71 143.218 341.92 143.448 344.98L145.498 348.28Z" fill="#EBB376"/>
<path d="M157.867 345.17L153.307 340.25L149.137 341.71L152.157 348.45L157.867 345.17Z" fill="#EBB376"/>
<path d="M82.5469 335.56C81.8669 335.51 83.9469 343.86 94.0469 345.92C104.147 347.98 103.367 338.69 102.577 336.36C102.577 336.36 89.2969 336 82.5469 335.56Z" fill="#EBB376"/>
<path d="M85.3197 302.91C85.3197 302.91 91.1097 296.49 101.7 299.8C112.29 303.11 111.84 322.01 106.46 328.87C98.0341 328.574 89.6053 329.361 81.3797 331.21C81.3797 331.21 76.2797 317.5 78.8097 309.44C81.3397 301.38 85.3197 302.91 85.3197 302.91Z" fill="#263238"/>
<path d="M87.4492 321.76C88.1192 326.22 88.6392 334.3 85.4492 336.86C85.4492 336.86 89.6092 336.72 97.6792 343.1C100.609 339.78 98.8792 338.41 98.8792 338.41C94.1092 336.7 94.3792 333.1 95.3492 329.81L87.4492 321.76Z" fill="#EBB376"/>
<path opacity="0.2" d="M90.6868 325.05L95.3968 329.81C95.1591 330.581 94.9885 331.37 94.8868 332.17C93.0568 331.69 90.6068 329.36 90.4968 327.39C90.4191 326.605 90.4835 325.812 90.6868 325.05Z" fill="black"/>
<path d="M84.7583 312.66C85.2583 319.79 85.3283 322.81 88.9183 326.66C94.3283 332.38 102.918 330.66 104.468 323.66C105.918 317.34 104.848 306.74 97.9283 303.61C96.4686 302.887 94.8425 302.567 93.2179 302.683C91.5933 302.799 90.0291 303.347 88.6867 304.269C87.3444 305.191 86.2725 306.455 85.582 307.931C84.8914 309.406 84.607 311.038 84.7583 312.66Z" fill="#EBB376"/>
<path d="M93.54 314.85C93.54 315.46 93.87 315.95 94.26 315.97C94.65 315.99 94.93 315.51 94.92 314.91C94.91 314.31 94.58 313.81 94.2 313.8C93.82 313.79 93.52 314.25 93.54 314.85Z" fill="#263238"/>
<path d="M101 314.93C101 315.53 101.34 316.03 101.72 316.05C102.1 316.07 102.39 315.59 102.38 314.99C102.37 314.39 102.04 313.89 101.66 313.88C101.28 313.87 101 314.33 101 314.93Z" fill="#263238"/>
<path d="M101.457 313.9L102.847 313.54C102.847 313.54 102.157 314.64 101.457 313.9Z" fill="#263238"/>
<path d="M98.7383 316.16C99.2975 317.553 100.03 318.87 100.918 320.08C100.619 320.284 100.277 320.418 99.9187 320.471C99.5603 320.525 99.1944 320.497 98.8483 320.39L98.7383 316.16Z" fill="#D58745"/>
<path d="M92.3379 311.05C92.3829 311.057 92.429 311.054 92.4724 311.04C92.5159 311.026 92.5554 311.002 92.5879 310.97C92.9 310.681 93.2794 310.475 93.6916 310.37C94.1038 310.265 94.5357 310.265 94.9479 310.37C94.9899 310.384 95.0342 310.388 95.0782 310.384C95.1221 310.38 95.1647 310.366 95.2032 310.345C95.2417 310.323 95.2753 310.294 95.3019 310.259C95.3286 310.223 95.3476 310.183 95.3579 310.14C95.3828 310.047 95.3706 309.948 95.324 309.864C95.2773 309.78 95.1998 309.718 95.1079 309.69C94.586 309.55 94.0372 309.545 93.5126 309.674C92.9881 309.803 92.5048 310.063 92.1079 310.43C92.0437 310.495 92.0078 310.583 92.0078 310.675C92.0078 310.767 92.0437 310.855 92.1079 310.92C92.1653 310.991 92.2475 311.037 92.3379 311.05Z" fill="#263238"/>
<path d="M103.897 311.11C103.977 311.141 104.066 311.141 104.147 311.11C104.186 311.086 104.219 311.054 104.245 311.016C104.271 310.979 104.29 310.936 104.299 310.891C104.308 310.846 104.308 310.8 104.3 310.755C104.291 310.71 104.273 310.668 104.247 310.63C103.972 310.137 103.587 309.713 103.123 309.392C102.658 309.072 102.125 308.862 101.567 308.78C101.522 308.777 101.478 308.784 101.436 308.799C101.394 308.815 101.356 308.839 101.324 308.87C101.292 308.901 101.267 308.938 101.25 308.98C101.233 309.021 101.225 309.065 101.227 309.11C101.228 309.204 101.264 309.293 101.326 309.363C101.388 309.433 101.474 309.478 101.567 309.49C102.009 309.557 102.429 309.726 102.795 309.983C103.161 310.239 103.463 310.577 103.677 310.97C103.702 311.007 103.735 311.038 103.773 311.062C103.811 311.086 103.853 311.102 103.897 311.11Z" fill="#263238"/>
<path d="M94 313.82L95.39 313.47C95.39 313.47 94.73 314.56 94 313.82Z" fill="#263238"/>
<path d="M86.2401 316.94C86.2401 316.94 91.7401 312.62 90.4901 305.86C90.4901 305.86 100.33 301.97 104.21 311.86C104.21 311.86 105.03 303.38 95.7801 301.72C86.5301 300.06 75.5801 312.6 86.0601 322.11L86.2401 316.94Z" fill="#263238"/>
<path d="M82.4871 318.42C82.8438 319.082 83.3279 319.666 83.9114 320.14C84.4949 320.613 85.1664 320.967 85.8871 321.18C87.7571 321.69 88.5971 319.85 87.9971 317.95C87.4471 316.24 85.8171 313.95 83.9971 314.24C82.1771 314.53 81.5571 316.73 82.4871 318.42Z" fill="#EBB376"/>
<path d="M105.288 316.06C105.243 316.06 105.199 316.045 105.163 316.018C105.127 315.991 105.101 315.953 105.088 315.91C101.558 303.48 89.9081 306.04 89.7881 306.06C89.7625 306.066 89.736 306.067 89.71 306.062C89.6841 306.058 89.6593 306.049 89.637 306.035C89.6147 306.021 89.5954 306.003 89.5802 305.981C89.5649 305.96 89.554 305.936 89.5481 305.91C89.5422 305.884 89.5414 305.858 89.5457 305.832C89.5501 305.806 89.5595 305.781 89.5734 305.759C89.5873 305.737 89.6055 305.717 89.6269 305.702C89.6483 305.687 89.6725 305.676 89.6981 305.67C89.8181 305.67 101.848 303 105.478 315.8C105.486 315.826 105.488 315.852 105.485 315.879C105.482 315.906 105.474 315.931 105.461 315.954C105.448 315.978 105.43 315.998 105.409 316.015C105.388 316.031 105.364 316.043 105.338 316.05L105.288 316.06Z" fill="#263238"/>
<path d="M99.1971 322.46C98.848 323.277 98.5605 324.12 98.3371 324.98H97.8671C95.7571 324.75 94.8671 323.98 94.4871 323.13C94.3167 322.726 94.2448 322.287 94.2771 321.85C94.2924 321.602 94.3395 321.356 94.4171 321.12C95.6612 321.84 97.046 322.284 98.4771 322.42C98.9171 322.44 99.1971 322.46 99.1971 322.46Z" fill="#263238"/>
<path d="M98.4773 322.38L98.2073 323.11C96.2073 322.9 94.8373 322.48 94.2773 321.81C94.2927 321.562 94.3398 321.316 94.4173 321.08C95.6615 321.8 97.0463 322.243 98.4773 322.38Z" fill="white"/>
<path d="M97.8683 324.94C95.7583 324.71 94.8683 323.94 94.4883 323.09C95.2898 323.194 96.0677 323.434 96.7883 323.8C97.2576 324.059 97.6349 324.457 97.8683 324.94Z" fill="#DE5753"/>
<path d="M97.5266 355.78C97.4948 355.782 97.463 355.777 97.4335 355.765C97.4041 355.752 97.3777 355.734 97.3566 355.71C92.043 350.013 88.0365 343.225 85.6166 335.82C85.6013 335.759 85.6105 335.695 85.6423 335.64C85.6741 335.586 85.7259 335.546 85.7866 335.53C85.8161 335.523 85.8469 335.521 85.877 335.526C85.9071 335.53 85.9361 335.541 85.9621 335.556C85.9882 335.572 86.0108 335.593 86.0288 335.618C86.0467 335.642 86.0595 335.67 86.0666 335.7C88.422 342.902 92.2959 349.514 97.4266 355.09C98.0266 353.09 100.517 343.59 96.7666 336.31C96.7483 336.256 96.7499 336.197 96.7712 336.144C96.7924 336.091 96.8319 336.047 96.8826 336.021C96.9332 335.994 96.9917 335.986 97.0474 335.999C97.1031 336.012 97.1525 336.044 97.1866 336.09C101.477 344.42 97.7866 355.51 97.7466 355.62C97.7334 355.659 97.711 355.693 97.6814 355.721C97.6518 355.749 97.6158 355.769 97.5766 355.78H97.5266Z" fill="#263238"/>
<path d="M97.8392 355.36L98.5992 356.36C98.6674 356.445 98.7045 356.551 98.7045 356.66C98.7045 356.769 98.6674 356.875 98.5992 356.96L97.8292 357.96C97.7832 358.015 97.7258 358.059 97.6611 358.089C97.5963 358.119 97.5257 358.135 97.4542 358.135C97.3828 358.135 97.3122 358.119 97.2474 358.089C97.1826 358.059 97.1252 358.015 97.0792 357.96L96.3592 357.14C96.296 357.057 96.2617 356.955 96.2617 356.85C96.2617 356.745 96.296 356.643 96.3592 356.56L96.9992 355.4C97.0411 355.328 97.1005 355.267 97.172 355.223C97.2435 355.18 97.3247 355.155 97.4083 355.151C97.4919 355.147 97.5752 355.164 97.6505 355.2C97.7257 355.237 97.7906 355.292 97.8392 355.36Z" fill="white"/>
<path opacity="0.7" d="M77.8686 335.9C72.0886 337.97 70.4286 343.01 70.3086 353.52C73.3086 356.25 82.4186 356.4 82.4186 356.4C82.4186 356.4 83.9986 340.46 77.8686 335.9Z" fill="white"/>
<path d="M138.34 416.11L148.48 417.78L153.35 418.58L154.77 413.55L150.37 412.21L139.61 408.94L138.34 416.11Z" fill="#EBB376"/>
<path d="M153.777 412.73L151.587 418.37C151.558 418.445 151.545 418.526 151.547 418.607C151.55 418.687 151.568 418.767 151.602 418.84C151.635 418.914 151.683 418.98 151.742 419.035C151.802 419.09 151.871 419.132 151.947 419.16L154.777 420.16C154.777 420.16 158.487 421.78 159.687 421.26C163.197 419.75 168.367 407.38 167.227 406.26C166.807 405.83 165.907 406.26 165.427 406.58C163.907 407.7 160.517 410.95 159.237 411.87C157.737 412.95 155.447 412.61 154.457 412.4C154.323 412.365 154.181 412.378 154.056 412.439C153.931 412.5 153.832 412.603 153.777 412.73Z" fill="#407BFF"/>
<path opacity="0.2" d="M138.34 416.11L148.48 417.78L150.37 412.21L139.61 408.94L138.34 416.11Z" fill="black"/>
<path d="M148.618 411.16C148.618 411.16 107.278 387.92 92.9977 388.58C78.7177 389.24 76.6777 401.82 82.5577 409.69C88.4377 417.56 99.3177 419.48 99.3177 419.48C99.3177 419.48 91.9277 409 92.9977 406.08C94.0677 403.16 98.2477 407.24 98.2477 407.24C98.2477 407.24 124.248 415.64 147.018 417.57L148.618 411.16Z" fill="#263238"/>
<path d="M149.287 410.52L146.947 408.95L143.938 418.18H147.548L149.287 410.52Z" fill="#407BFF"/>
<path opacity="0.6" d="M149.287 410.52L146.947 408.95L143.938 418.18H147.548L149.287 410.52Z" fill="white"/>
</svg>
