<svg width="137" height="137" viewBox="0 0 137 137" fill="none" xmlns="http://www.w3.org/2000/svg">
<path opacity="0.7" d="M18.6126 45.7828C18.6126 45.7828 10.9735 65.5108 21.7088 85.3758C32.4441 105.241 54.5559 115.735 72.2536 124.708C89.9512 133.682 108.328 129.312 117.061 114.614C125.793 99.9169 113.817 89.4255 113.8 68.4672C113.784 47.509 116.938 41.9605 105.58 24.2546C94.2229 6.54869 66.3818 2.62775 45.3276 15.7606C24.2734 28.8934 18.6126 45.7828 18.6126 45.7828Z" fill="white"/>
<path d="M18.2263 26.0958C19.1478 24.9944 20.1556 23.9682 21.2403 23.0271C29.0438 16.2702 40.1874 14.9824 49.8212 18.0128C59.4551 21.0433 67.7025 27.918 74.3771 35.9297C77.4268 39.5931 80.3257 43.6236 84.4083 45.8622C89.6718 48.7502 95.7683 48.1446 101.459 48.994C122.152 52.0847 128.895 81.1041 114.757 96.207C109.183 102.158 101.404 105.523 94.0284 108.036C83.8137 111.526 73.1277 113.814 62.4115 113.387C51.6954 112.959 40.908 109.688 32.2715 102.89C20.969 93.9821 14.1738 79.6903 11.3434 64.9956C9.9104 57.562 9.4035 49.8242 10.8228 42.3851C11.9654 36.4065 14.4341 30.6196 18.2263 26.0958Z" fill="#4381CA"/>
<path opacity="0.7" d="M101.459 48.994C95.7685 48.1446 89.6775 48.7501 84.4085 45.8621C80.3259 43.6236 77.4269 39.593 74.3773 35.9296C67.7027 27.9179 59.458 21.0432 49.8214 18.0128C40.1849 14.9823 29.044 16.2701 21.2378 23.016C20.1531 23.9572 19.1452 24.9834 18.2238 26.0848C14.4316 30.6086 11.9629 36.3954 10.8258 42.3741C9.40643 49.8132 9.91333 57.551 11.3464 64.9846C14.174 79.6902 20.9692 93.982 32.2772 102.89C40.9082 109.688 51.6929 112.959 62.4172 113.387C73.1416 113.814 83.8194 111.526 94.0341 108.035C101.41 105.515 109.189 102.158 114.762 96.2069C128.895 81.104 122.152 52.0847 101.459 48.994Z" fill="white"/>
<path d="M9.979 121.201H127.355" stroke="#263238" stroke-linecap="round" stroke-linejoin="round"/>
<path d="M68.9248 32.8225V33.7815" stroke="#4381CA" stroke-width="3" stroke-linejoin="round"/>
<path d="M68.9248 35.8887V39.0479" stroke="#4381CA" stroke-width="3" stroke-linejoin="round" stroke-dasharray="7.68 7.68"/>
<path d="M68.9248 40.0999V41.0589H67.9658" stroke="#4381CA" stroke-width="3" stroke-linejoin="round"/>
<path d="M66.0287 41.0588H36.0093" stroke="#4381CA" stroke-width="3" stroke-linejoin="round" stroke-dasharray="7.07 7.07"/>
<path d="M35.042 41.0588H34.083V42.0178" stroke="#4381CA" stroke-width="3" stroke-linejoin="round"/>
<path d="M34.083 43.5908V45.95" stroke="#4381CA" stroke-width="3" stroke-linejoin="round" stroke-dasharray="5.74 5.74"/>
<path d="M34.083 46.7363V47.6953" stroke="#4381CA" stroke-width="3" stroke-linejoin="round"/>
<path d="M38.9517 37.3762H42.8452" stroke="#263238" stroke-linecap="round" stroke-linejoin="round"/>
<path d="M39.8093 28.0193C39.0292 28.3889 38.4128 29.0333 38.0782 29.829C37.7435 30.6247 37.714 31.516 37.9955 32.332C37.9324 32.332 37.8694 32.332 37.8037 32.332C37.4647 32.3209 37.127 32.378 36.8106 32.5C36.4942 32.622 36.2055 32.8064 35.9618 33.0422C35.7181 33.278 35.5243 33.5605 35.392 33.8727C35.2596 34.1849 35.1914 34.5206 35.1914 34.8597C35.1914 35.1988 35.2596 35.5345 35.392 35.8467C35.5243 36.1589 35.7181 36.4414 35.9618 36.6772C36.2055 36.913 36.4942 37.0974 36.8106 37.2194C37.127 37.3414 37.4647 37.3985 37.8037 37.3873" stroke="#263238" stroke-linecap="round" stroke-linejoin="round"/>
<path d="M47.4787 25.0654C46.3208 24.7012 45.0706 24.764 43.9551 25.2426C42.8396 25.7212 41.9325 26.5838 41.3986 27.6739H41.3164" stroke="#263238" stroke-linecap="round" stroke-linejoin="round"/>
<path d="M51.5994 29.1865C51.3894 29.1867 51.1797 29.2023 50.9719 29.2331C50.8037 27.9405 50.1431 26.7627 49.1279 25.9451" stroke="#263238" stroke-linecap="round" stroke-linejoin="round"/>
<path d="M45.2896 37.3763H51.5916C52.1305 37.3784 52.6646 37.2742 53.1631 37.0694C53.6617 36.8646 54.1149 36.5635 54.4968 36.1831C54.8786 35.8028 55.1816 35.3508 55.3884 34.8531C55.5951 34.3553 55.7016 33.8217 55.7016 33.2827" stroke="#263238" stroke-linecap="round" stroke-linejoin="round"/>
<path d="M88.0498 37.6038H90.6912" stroke="#263238" stroke-linecap="round" stroke-linejoin="round"/>
<path d="M88.6307 31.2551C88.2216 31.4473 87.8757 31.7518 87.6331 32.1331C87.3906 32.5144 87.2614 32.9568 87.2607 33.4088C87.2613 33.6716 87.3048 33.9326 87.3894 34.1814C87.3466 34.1786 87.3035 34.1786 87.2607 34.1814C86.8057 34.1814 86.3695 34.3622 86.0478 34.6838C85.7261 35.0055 85.5454 35.4418 85.5454 35.8967C85.5454 36.3516 85.7261 36.7879 86.0478 37.1095C86.3695 37.4312 86.8057 37.6119 87.2607 37.6119" stroke="#263238" stroke-linecap="round" stroke-linejoin="round"/>
<path d="M93.8338 29.2495C93.4994 29.1448 93.1512 29.0912 92.8008 29.0906C92.1557 29.0908 91.5237 29.2726 90.9772 29.6152C90.4306 29.9578 89.9915 30.4473 89.7101 31.0278H89.6553" stroke="#263238" stroke-linecap="round" stroke-linejoin="round"/>
<path d="M96.6315 32.058C96.4885 32.0583 96.3457 32.0684 96.204 32.0882C96.0908 31.2129 95.643 30.4155 94.9546 29.8633" stroke="#263238" stroke-linecap="round" stroke-linejoin="round"/>
<path d="M92.3379 37.6038H96.6205C97.3574 37.6038 98.0641 37.3111 98.5851 36.79C99.1061 36.269 99.3989 35.5623 99.3989 34.8254" stroke="#263238" stroke-linecap="round" stroke-linejoin="round"/>
<path d="M78.1064 19.4293C77.7762 19.4289 77.4465 19.4536 77.12 19.5033C76.9021 17.8034 76.1405 16.2196 74.9488 14.988C73.757 13.7565 72.1991 12.9432 70.5073 12.6696C68.8155 12.3959 67.0806 12.6766 65.5614 13.4696C64.0422 14.2627 62.8201 15.5257 62.0774 17.0702C62.0336 17.0702 61.9925 17.0702 61.9487 17.0702C61.0708 17.071 60.2058 17.2816 59.4257 17.6842C58.6456 18.0869 57.973 18.67 57.4637 19.3851C56.9545 20.1002 56.6234 20.9265 56.498 21.7954C56.3725 22.6643 56.4564 23.5506 56.7427 24.3805C56.644 24.3805 56.5426 24.364 56.4413 24.364C55.3876 24.364 54.377 24.7826 53.6319 25.5277C52.8868 26.2728 52.4683 27.2833 52.4683 28.337C52.4683 29.3907 52.8868 30.4013 53.6319 31.1464C54.377 31.8914 55.3876 32.31 56.4413 32.31H78.1174C79.8251 32.31 81.4629 31.6316 82.6705 30.4241C83.878 29.2165 84.5564 27.5788 84.5564 25.871C84.5564 24.1633 83.878 22.5255 82.6705 21.318C81.4629 20.1104 79.8251 19.432 78.1174 19.432L78.1064 19.4293Z" fill="white" stroke="#263238" stroke-miterlimit="10"/>
<path d="M68.9575 25.9504V21.3445" stroke="#263238" stroke-linecap="round" stroke-linejoin="round"/>
<path d="M71.5139 22.9119L68.9575 20.3555L66.4038 22.9119" stroke="#263238" stroke-linecap="round" stroke-linejoin="round"/>
<path d="M68.9575 26.9807V28.0192" stroke="#263238" stroke-linecap="round" stroke-linejoin="round"/>
<path d="M68.9575 29.2329V30.0275" stroke="#263238" stroke-linecap="round" stroke-linejoin="round"/>
<path d="M60.7457 121.201H55.3178C55.0144 121.211 54.7127 121.152 54.4354 121.029C54.158 120.905 53.9123 120.721 53.7166 120.489C53.521 120.257 53.3804 119.983 53.3056 119.689C53.2308 119.395 53.2236 119.088 53.2847 118.79L55.3863 105.616C55.507 104.954 55.8511 104.354 56.3613 103.915C56.8714 103.476 57.5167 103.226 58.1893 103.205H74.8375" stroke="#263238" stroke-linecap="round" stroke-linejoin="round"/>
<path d="M57.7124 99.5498H62.5896C62.7376 99.5501 62.8821 99.5949 63.0043 99.6785C63.1265 99.7621 63.2207 99.8805 63.2746 100.018L63.8555 101.512H74.1853C74.691 101.512 75.184 101.671 75.5948 101.965C76.0057 102.26 76.3138 102.677 76.4759 103.156L77.0568 103.205C77.3602 103.195 77.6619 103.254 77.9392 103.377C78.2165 103.501 78.4623 103.686 78.6579 103.918C78.8536 104.15 78.9941 104.423 79.069 104.717C79.1438 105.011 79.1509 105.319 79.0899 105.616L76.9938 118.79C76.8721 119.452 76.5277 120.052 76.0177 120.49C75.5078 120.929 74.8631 121.18 74.1908 121.201H63.8911" stroke="#263238" stroke-linecap="round" stroke-linejoin="round"/>
<path d="M52.9014 109.688V103.934C52.9027 103.324 53.1349 102.738 53.5512 102.292C53.9676 101.847 54.5372 101.576 55.1454 101.534L55.7345 100.021C55.7881 99.883 55.8822 99.7643 56.0045 99.6807C56.1267 99.5971 56.2714 99.5524 56.4195 99.5525" stroke="#263238" stroke-linecap="round" stroke-linejoin="round"/>
<path d="M55.318 121.201C54.6771 121.201 54.0624 120.947 53.6092 120.493C53.156 120.04 52.9014 119.425 52.9014 118.785V113.436" stroke="#263238" stroke-linecap="round" stroke-linejoin="round"/>
<path d="M106.997 121.201C106.674 121.201 106.364 121.073 106.135 120.844C105.906 120.615 105.778 120.305 105.778 119.982V112.488C105.778 112.181 105.896 111.885 106.105 111.66C106.315 111.435 106.603 111.298 106.909 111.277L107.208 110.515C107.235 110.445 107.282 110.385 107.344 110.342C107.405 110.3 107.478 110.277 107.553 110.277H110.666C110.741 110.277 110.814 110.3 110.876 110.342C110.937 110.385 110.985 110.445 111.011 110.515L111.304 111.269H116.51C116.765 111.268 117.013 111.347 117.22 111.494C117.428 111.642 117.584 111.85 117.667 112.091" fill="#4381CA"/>
<mask id="mask0_1621_3626" style="mask-type:luminance" maskUnits="userSpaceOnUse" x="105" y="110" width="13" height="12">
<path d="M106.997 121.201C106.674 121.201 106.364 121.073 106.135 120.844C105.906 120.615 105.778 120.305 105.778 119.982V112.488C105.778 112.181 105.896 111.885 106.105 111.66C106.315 111.435 106.603 111.298 106.909 111.277L107.208 110.515C107.235 110.445 107.282 110.385 107.344 110.342C107.405 110.3 107.478 110.277 107.553 110.277H110.666C110.741 110.277 110.814 110.3 110.876 110.342C110.937 110.385 110.985 110.445 111.011 110.515L111.304 111.269H116.51C116.765 111.268 117.013 111.347 117.22 111.494C117.428 111.642 117.584 111.85 117.667 112.091" fill="white"/>
</mask>
<g mask="url(#mask0_1621_3626)">
<path opacity="0.3" d="M106.997 121.201C106.674 121.201 106.364 121.073 106.135 120.844C105.906 120.615 105.778 120.305 105.778 119.982V112.488C105.778 112.181 105.896 111.885 106.105 111.66C106.315 111.435 106.603 111.298 106.909 111.277L107.208 110.515C107.235 110.445 107.282 110.385 107.344 110.342C107.405 110.3 107.478 110.277 107.553 110.277H110.666C110.741 110.277 110.814 110.3 110.876 110.342C110.937 110.385 110.985 110.445 111.011 110.515L111.304 111.269H116.51C116.765 111.268 117.013 111.347 117.22 111.494C117.428 111.642 117.584 111.85 117.667 112.091" fill="black" fill-opacity="0.7"/>
</g>
<path d="M106.997 121.201C106.674 121.201 106.364 121.073 106.135 120.844C105.906 120.615 105.778 120.305 105.778 119.982V112.488C105.778 112.181 105.896 111.885 106.105 111.66C106.315 111.435 106.603 111.298 106.909 111.277L107.208 110.515C107.235 110.445 107.282 110.385 107.344 110.342C107.405 110.3 107.478 110.277 107.553 110.277H110.666C110.741 110.277 110.814 110.3 110.876 110.342C110.937 110.385 110.985 110.445 111.011 110.515L111.304 111.269H116.51C116.765 111.268 117.013 111.347 117.22 111.494C117.428 111.642 117.584 111.85 117.667 112.091" stroke="#263238" stroke-linecap="round" stroke-linejoin="round"/>
<path d="M106.997 121.201H116.516C116.855 121.191 117.181 121.065 117.438 120.843C117.696 120.622 117.869 120.319 117.93 119.985L118.99 113.338C119.021 113.188 119.018 113.032 118.981 112.884C118.943 112.735 118.872 112.597 118.774 112.48C118.675 112.363 118.551 112.27 118.411 112.207C118.271 112.145 118.118 112.116 117.965 112.121H108.447C108.107 112.132 107.782 112.258 107.525 112.48C107.268 112.701 107.094 113.004 107.033 113.338L105.972 119.985C105.941 120.135 105.944 120.29 105.982 120.438C106.019 120.587 106.09 120.725 106.189 120.842C106.288 120.959 106.412 121.053 106.552 121.115C106.692 121.177 106.844 121.207 106.997 121.201Z" fill="#4381CA" stroke="#263238" stroke-linecap="round" stroke-linejoin="round"/>
<path d="M51.5367 121.201C51.2133 121.201 50.9032 121.073 50.6745 120.844C50.4458 120.615 50.3174 120.305 50.3174 119.982V112.488C50.3174 112.18 50.4342 111.884 50.6443 111.659C50.8544 111.434 51.142 111.298 51.449 111.277L51.7449 110.515C51.7727 110.445 51.8206 110.385 51.8826 110.343C51.9446 110.301 52.0178 110.278 52.0929 110.277H55.2055C55.2805 110.277 55.3536 110.3 55.4152 110.342C55.4769 110.385 55.5241 110.445 55.5508 110.515L55.844 111.269H61.05C61.3044 111.268 61.5526 111.347 61.76 111.494C61.9673 111.642 62.1233 111.85 62.2062 112.091" fill="#4381CA"/>
<mask id="mask1_1621_3626" style="mask-type:luminance" maskUnits="userSpaceOnUse" x="50" y="110" width="13" height="12">
<path d="M51.5367 121.201C51.2133 121.201 50.9032 121.073 50.6745 120.844C50.4458 120.615 50.3174 120.305 50.3174 119.982V112.488C50.3174 112.18 50.4342 111.884 50.6443 111.659C50.8544 111.434 51.142 111.298 51.449 111.277L51.7449 110.515C51.7727 110.445 51.8206 110.385 51.8826 110.343C51.9446 110.301 52.0178 110.278 52.0929 110.277H55.2055C55.2805 110.277 55.3536 110.3 55.4152 110.342C55.4769 110.385 55.5241 110.445 55.5508 110.515L55.844 111.269H61.05C61.3044 111.268 61.5526 111.347 61.76 111.494C61.9673 111.642 62.1233 111.85 62.2062 112.091" fill="white"/>
</mask>
<g mask="url(#mask1_1621_3626)">
<path opacity="0.3" d="M51.5367 121.201C51.2133 121.201 50.9032 121.073 50.6745 120.844C50.4458 120.615 50.3174 120.305 50.3174 119.982V112.488C50.3174 112.18 50.4342 111.884 50.6443 111.659C50.8544 111.434 51.142 111.298 51.449 111.277L51.7449 110.515C51.7727 110.445 51.8206 110.385 51.8826 110.343C51.9446 110.301 52.0178 110.278 52.0929 110.277H55.2055C55.2805 110.277 55.3536 110.3 55.4152 110.342C55.4769 110.385 55.5241 110.445 55.5508 110.515L55.844 111.269H61.05C61.3044 111.268 61.5526 111.347 61.76 111.494C61.9673 111.642 62.1233 111.85 62.2062 112.091" fill="black" fill-opacity="0.7"/>
</g>
<path d="M51.5367 121.201C51.2133 121.201 50.9032 121.073 50.6745 120.844C50.4458 120.615 50.3174 120.305 50.3174 119.982V112.488C50.3174 112.18 50.4342 111.884 50.6443 111.659C50.8544 111.434 51.142 111.298 51.449 111.277L51.7449 110.515C51.7727 110.445 51.8206 110.385 51.8826 110.343C51.9446 110.301 52.0178 110.278 52.0929 110.277H55.2055C55.2805 110.277 55.3536 110.3 55.4152 110.342C55.4769 110.385 55.5241 110.445 55.5508 110.515L55.844 111.269H61.05C61.3044 111.268 61.5526 111.347 61.76 111.494C61.9673 111.642 62.1233 111.85 62.2062 112.091" stroke="#263238" stroke-linecap="round" stroke-linejoin="round"/>
<path d="M51.5369 121.201H61.0556C61.3955 121.192 61.7217 121.066 61.9796 120.844C62.2375 120.623 62.4114 120.319 62.4722 119.985L63.5326 113.338C63.5638 113.188 63.5606 113.032 63.523 112.884C63.4855 112.735 63.4148 112.597 63.316 112.48C63.2173 112.363 63.0933 112.27 62.9533 112.207C62.8133 112.145 62.661 112.116 62.5078 112.121H52.9836C52.6445 112.132 52.3195 112.259 52.0624 112.48C51.8052 112.701 51.6314 113.004 51.5698 113.338L50.5094 119.985C50.4786 120.135 50.4823 120.29 50.5202 120.439C50.5581 120.587 50.6292 120.725 50.7281 120.842C50.827 120.959 50.9511 121.053 51.0912 121.115C51.2313 121.177 51.3837 121.207 51.5369 121.201Z" fill="#4381CA" stroke="#263238" stroke-linecap="round" stroke-linejoin="round"/>
<path d="M85.0359 117.329C85.0359 117.329 85.4689 119.968 85.0359 121.201H76.3036C76.3036 121.201 75.9337 120.278 76.3036 119.697C76.6735 119.116 79.4409 118.779 80.3012 117.992C80.9614 117.336 81.5586 116.62 82.085 115.853L85.0359 117.329Z" fill="#4381CA" stroke="#263238" stroke-linecap="round" stroke-linejoin="round"/>
<path d="M76.1392 120.738H85.151L85.2277 121.201H76.1392V120.738Z" fill="white" stroke="#263238" stroke-linecap="round" stroke-linejoin="round"/>
<path d="M82.937 116.998C82.937 116.998 82.115 117.195 82.0219 117.225C81.9287 117.256 81.1314 118.489 80.3313 118.702C79.5312 118.916 78.7311 118.878 78.8544 119.267" stroke="#263238" stroke-linecap="round" stroke-linejoin="round"/>
<path d="M81.1177 117.009L82.0548 117.7" stroke="#263238" stroke-linecap="round" stroke-linejoin="round"/>
<path d="M80.6846 117.612L81.586 118.275" stroke="#263238" stroke-linecap="round" stroke-linejoin="round"/>
<path d="M80.1064 118.143L80.8901 118.9" stroke="#263238" stroke-linecap="round" stroke-linejoin="round"/>
<path d="M79.3174 118.527L79.6544 119.278" stroke="#263238" stroke-linecap="round" stroke-linejoin="round"/>
<path d="M85.1781 118.527C84.1619 118.448 83.1405 118.581 82.1778 118.916C80.6078 119.464 80.068 119.946 80.1064 120.091C80.1447 120.237 80.3311 120.664 80.3311 120.664H81.1174C81.1174 120.664 80.8434 120.163 80.89 120.091C80.9366 120.02 83.63 118.973 85.1781 119.157V118.527Z" fill="#263238"/>
<path d="M99.8397 121.201C99.8397 121.201 100.174 119.916 99.7822 119.442C99.0753 118.587 99.8671 117.869 99.1575 117.571L98.8615 117.916C98.804 117.568 98.9684 116.502 97.6532 116.365C96.064 116.195 96.0339 117.354 95.9462 117.735L95.9736 117.203C95.294 117.203 95.6475 117.88 94.6173 118.987C94.349 119.286 94.1447 119.637 94.017 120.017C93.8893 120.398 93.8409 120.801 93.8747 121.201H99.8397Z" fill="#4381CA" stroke="#263238" stroke-linecap="round" stroke-linejoin="round"/>
<path d="M105.6 72.3196C106.334 72.747 108.227 76.7803 107.123 84.7838C106.019 92.7874 102.709 108.441 102.153 110.836C101.596 113.231 99.6538 118.987 99.6538 118.987C99.6538 118.987 98.914 116.488 95.352 117.82C95.3217 117.831 95.2889 117.835 95.257 117.829C95.2252 117.823 95.1953 117.809 95.1707 117.789C95.1461 117.768 95.1275 117.74 95.117 117.71C95.1065 117.679 95.1044 117.646 95.1109 117.615L95.8972 113.535C95.8972 113.535 95.952 110.551 96.2069 109.803C97.1741 106.986 97.6591 96.1028 97.9796 94.5821C98.3002 93.0614 97.67 88.6938 97.67 88.6938C97.67 88.6938 93.2011 99.3798 93.0559 100.437C92.9106 101.495 90.1843 105.857 90.1843 105.857L89.7021 109.874C89.7021 109.874 86.0743 116.088 85.4359 117.943L81.1177 116.998L81.2382 113.926L82.4 113.526L84.4331 106.542C85.0781 104.122 85.8687 101.743 86.8004 99.4182C87.7622 96.9905 90.4885 87.5841 90.4885 87.5841C91.3351 86.6635 92.1325 81.5726 92.1325 81.5726L93.434 75.1582L105.6 72.3196Z" fill="#263238"/>
<path d="M87.4661 55.348L78.5885 62.0336L72.8838 53.0217L70.7466 53.2957C70.7466 53.2957 75.0018 64.9188 77.3555 66.0778C79.7091 67.2369 88.5895 60.8088 88.5895 60.8088" fill="white"/>
<path d="M87.4661 55.348L78.5885 62.0336L72.8838 53.0217L70.7466 53.2957C70.7466 53.2957 75.0018 64.9188 77.3555 66.0778C79.7091 67.2369 88.5895 60.8088 88.5895 60.8088" stroke="#263238" stroke-linecap="round" stroke-linejoin="round"/>
<path d="M89.4171 54.0107C89.4171 54.0107 86.847 54.9067 85.1235 56.4C83.4001 57.8933 80.6519 60.1237 80.6519 60.1237C80.6519 60.1237 82.2 63.8419 83.9974 65.3571L87.8334 63.8227L89.4171 54.0107Z" fill="#4381CA"/>
<mask id="mask2_1621_3626" style="mask-type:luminance" maskUnits="userSpaceOnUse" x="80" y="54" width="10" height="12">
<path d="M89.4171 54.0107C89.4171 54.0107 86.847 54.9067 85.1235 56.4C83.4001 57.8933 80.6519 60.1237 80.6519 60.1237C80.6519 60.1237 82.2 63.8419 83.9974 65.3571L87.8334 63.8227L89.4171 54.0107Z" fill="white"/>
</mask>
<g mask="url(#mask2_1621_3626)">
<path opacity="0.4" d="M83.9728 65.3379L85.3756 64.0912C84.4057 63.7651 84.2933 61.7869 84.8276 62.3568C85.241 62.7329 85.7453 62.9945 86.2908 63.1158C85.8654 61.8923 85.7211 60.5886 85.8689 59.3017C86.1681 60.1598 86.4142 61.0355 86.6059 61.9239C86.784 62.8007 87.4279 63.3898 87.7019 63.7021L89.4034 54.0107C89.4034 54.0107 86.8333 54.9067 85.1099 56.4C83.3864 57.8933 80.6382 60.1237 80.6382 60.1237C80.6382 60.1237 82.2 63.7953 83.9728 65.3379Z" fill="white"/>
</g>
<path d="M89.4171 54.0107C89.4171 54.0107 86.847 54.9067 85.1235 56.4C83.4001 57.8933 80.6519 60.1237 80.6519 60.1237C80.6519 60.1237 82.2 63.8419 83.9974 65.3571L87.8334 63.8227L89.4171 54.0107Z" stroke="#263238" stroke-linecap="round" stroke-linejoin="round"/>
<path d="M87.8251 63.8228C89.3184 67.478 91.6611 72.0428 91.6611 72.0428L92.6941 77.1365C92.6941 77.1365 96.5739 80.093 101.024 78.8517C106.23 77.3995 107.082 74.1033 107.082 74.1033L105.098 70.1139C104.419 66.2779 103.531 57.2359 100.476 55.1562C97.4206 53.0766 92.1762 52.9094 90.0637 53.7479C88.1813 54.4932 87.1374 55.0603 86.625 55.7481" fill="#4381CA"/>
<mask id="mask3_1621_3626" style="mask-type:luminance" maskUnits="userSpaceOnUse" x="86" y="53" width="22" height="27">
<path d="M87.8251 63.8228C89.3184 67.478 91.6611 72.0428 91.6611 72.0428L92.6941 77.1365C92.6941 77.1365 96.5739 80.093 101.024 78.8517C106.23 77.3995 107.082 74.1033 107.082 74.1033L105.098 70.1139C104.419 66.2779 103.531 57.2359 100.476 55.1562C97.4206 53.0766 92.1762 52.9094 90.0637 53.7479C88.1813 54.4932 87.1374 55.0603 86.625 55.7481" fill="white"/>
</mask>
<g mask="url(#mask3_1621_3626)">
<path opacity="0.4" d="M104.084 75.3501C99.3797 76.8708 99.9003 75.783 100.977 73.887C101.95 72.1717 101.251 70.1688 101.276 69.629C101.065 70.0455 100.265 71.273 99.2729 71.7361C97.996 72.3526 98.4509 72.5581 99.5688 70.4181C100.279 68.9855 100.755 67.4479 100.977 65.8642C99.7222 64.6175 98.7331 61.5761 98.7331 61.5761L102.843 59.0581C102.238 57.2963 101.473 55.855 100.462 55.1755C97.4042 53.1068 92.1626 52.9287 90.05 53.7671C88.1676 54.5124 87.1237 55.0796 86.6113 55.7673L87.8224 63.8366C89.3157 67.4918 91.6584 72.0566 91.6584 72.0566L92.6914 77.1503C92.6914 77.1503 96.5712 80.1068 101.021 78.8655C106.227 77.4133 107.079 74.1171 107.079 74.1171L107.005 73.9637C106.095 74.5487 105.113 75.0146 104.084 75.3501Z" fill="white"/>
</g>
<path d="M87.8251 63.8228C89.3184 67.478 91.6611 72.0428 91.6611 72.0428L92.6941 77.1365C92.6941 77.1365 96.5739 80.093 101.024 78.8518C106.23 77.3996 107.082 74.1033 107.082 74.1033L105.098 70.1139C104.419 66.2779 103.531 57.2359 100.476 55.1562C97.4206 53.0766 92.1762 52.9094 90.0637 53.7479C88.1813 54.4932 87.1374 55.0603 86.625 55.7481" stroke="#263238" stroke-linecap="round" stroke-linejoin="round"/>
<path d="M94.9981 54.4602C94.9981 54.4602 93.8528 56.5865 91.817 56.3782C90.1237 56.2111 90.173 54.8466 90.173 54.8466C90.4151 54.6436 90.5923 54.374 90.6826 54.0712C90.7302 53.9086 90.7478 53.7387 90.7347 53.5697C90.7073 53.1478 90.4936 52.6327 89.9127 52.0436L89.8853 52.0162C89.7685 51.9027 89.6679 51.7736 89.5866 51.6326C88.6523 49.9886 91.9129 48.1281 94.3734 49.4954C94.3679 49.5063 92.4609 50.9777 94.9981 54.4602Z" fill="white" stroke="#263238" stroke-linecap="round" stroke-linejoin="round"/>
<path d="M91.4036 51.575C91.4036 51.575 91.3571 52.8546 90.7351 53.5807C90.7077 53.1587 90.494 52.6436 89.9131 52.0545C90.0982 51.8516 90.3331 51.7006 90.5946 51.6165C90.856 51.5324 91.135 51.5181 91.4036 51.575Z" fill="#263238"/>
<path d="M94.7546 47.9254C95.6752 43.9716 93.7655 42.2591 92.5133 41.7385C90.5076 40.9165 87.8991 42.2152 87.3073 44.41C86.7154 46.6047 87.247 47.1089 87.2196 48.0076C87.2004 48.6378 86.8113 48.9474 87.2415 50.5284C87.5155 51.5723 87.9923 53.2465 89.7787 52.9478C90.3253 52.8501 90.8556 52.6768 91.3542 52.4327" fill="white"/>
<path d="M94.7546 47.9254C95.6752 43.9716 93.7655 42.2591 92.5133 41.7385C90.5076 40.9165 87.8991 42.2152 87.3073 44.41C86.7154 46.6047 87.247 47.1089 87.2196 48.0076C87.2004 48.6378 86.8113 48.9474 87.2415 50.5284C87.5155 51.5723 87.9923 53.2465 89.7787 52.9478C90.3253 52.8501 90.8556 52.6768 91.3542 52.4327" stroke="#263238" stroke-linecap="round" stroke-linejoin="round"/>
<path d="M89.5483 46.6401C89.5483 46.6401 90.2881 46.3661 90.6854 47.2347" stroke="#263238" stroke-linecap="round" stroke-linejoin="round"/>
<path d="M87.0249 46.18C87.0249 46.18 87.8003 46.0129 88.1209 46.5746" stroke="#263238" stroke-linecap="round" stroke-linejoin="round"/>
<path d="M88.3291 47.6951C88.3291 47.6951 87.5646 49.0157 87.5783 49.1966C87.6167 49.761 88.3345 49.5062 88.3345 49.5062" stroke="#263238" stroke-linecap="round" stroke-linejoin="round"/>
<path d="M89.6938 47.876C89.6938 48.0596 89.776 48.2103 89.8774 48.2103C89.9788 48.2103 90.0637 48.0596 90.0637 47.876C90.0637 47.6924 89.9815 47.5444 89.8774 47.5444C89.7733 47.5444 89.6938 47.6924 89.6938 47.876Z" fill="#263238" stroke="#263238" stroke-linecap="round" stroke-linejoin="round"/>
<path d="M87.5786 47.6951C87.5786 47.8787 87.6608 48.0267 87.7622 48.0267C87.8636 48.0267 87.9458 47.8787 87.9458 47.6951C87.9458 47.5115 87.8636 47.3608 87.7622 47.3608C87.6608 47.3608 87.5786 47.5115 87.5786 47.6951Z" fill="#263238" stroke="#263238" stroke-linecap="round" stroke-linejoin="round"/>
<path d="M89.6939 50.0488C89.2153 50.3055 88.6644 50.3943 88.1294 50.3009" stroke="#263238" stroke-linecap="round" stroke-linejoin="round"/>
<path d="M89.5483 50.1995C89.5245 50.3601 89.45 50.509 89.3357 50.6244C89.2213 50.7397 89.0731 50.8155 88.9126 50.8406C88.8417 50.8507 88.7694 50.8456 88.7006 50.8258C88.6318 50.8059 88.568 50.7717 88.5133 50.7253C88.4587 50.679 88.4145 50.6216 88.3837 50.5569C88.3529 50.4922 88.3361 50.4218 88.3345 50.3502" stroke="#263238" stroke-linecap="round" stroke-linejoin="round"/>
<path d="M94.7598 42.8782C94.7598 42.8782 94.6393 40.7602 90.6937 40.826C86.7481 40.8917 85.5836 43.9578 87.5865 44.788C89.5895 45.6182 90.8307 45.2538 90.8307 45.2538C90.2877 45.0571 89.8039 44.7251 89.4251 44.2893C90.2261 44.7533 91.0872 45.1046 91.9842 45.3333C91.9842 45.3333 91.5349 45.9224 91.9842 46.9088C92.4336 47.8952 92.2144 48.3171 92.2144 48.3171C92.2144 48.3171 94.0255 48.8295 93.7241 50.7831C93.7241 50.7831 95.3873 50.7502 96.0613 46.9197C96.7354 43.0892 94.7598 42.8782 94.7598 42.8782Z" fill="#263238"/>
<path d="M92.5132 48.6185C92.5132 48.6185 93.2365 47.2677 93.9955 47.5965C94.7545 47.9253 94.2257 49.5392 93.5681 50.0625C92.9105 50.5858 92.5132 50.0625 92.5132 50.0625" fill="white"/>
<path d="M92.5132 48.6185C92.5132 48.6185 93.2365 47.2677 93.9955 47.5965C94.7545 47.9253 94.2257 49.5392 93.5681 50.0625C92.9105 50.5858 92.5132 50.0625 92.5132 50.0625" stroke="#263238" stroke-linecap="round" stroke-linejoin="round"/>
<path d="M85.877 59.3018C86.3181 61.08 86.5482 62.4802 87.8251 63.8228" stroke="#263238" stroke-linecap="round" stroke-linejoin="round"/>
<path d="M85.6001 57.8879C85.6357 58.1619 85.685 58.4359 85.7426 58.7099" stroke="#263238" stroke-linecap="round" stroke-linejoin="round"/>
<path d="M100.977 62.7105C100.977 62.7105 106.265 68.4261 107.553 68.2124C108.841 67.9987 109.529 65.8889 109.244 65.3052C108.959 64.7216 104.205 59.1841 104.205 59.1841L100.977 62.7105Z" fill="white" stroke="#263238" stroke-linecap="round" stroke-linejoin="round"/>
<path d="M99.0099 57.3372C98.4948 59.1319 98.2783 61.0636 99.136 62.5679C99.5661 63.8557 102.068 65.0832 102.925 66.1573C105.619 65.4997 106.761 62.0802 106.761 62.0802C106.761 62.0802 105.216 59.869 103.643 57.54C102.071 55.211 98.9633 54.3479 98.9633 54.3479" fill="#4381CA"/>
<mask id="mask4_1621_3626" style="mask-type:luminance" maskUnits="userSpaceOnUse" x="98" y="54" width="9" height="13">
<path d="M99.0099 57.3372C98.4948 59.1319 98.2783 61.0636 99.136 62.5679C99.5661 63.8557 102.068 65.0832 102.925 66.1573C105.619 65.4997 106.761 62.0802 106.761 62.0802C106.761 62.0802 105.216 59.869 103.643 57.54C102.071 55.211 98.9633 54.3479 98.9633 54.3479" fill="white"/>
</mask>
<g mask="url(#mask4_1621_3626)">
<path opacity="0.4" d="M99.0099 57.3372C98.4948 59.1319 98.2783 61.0636 99.136 62.5679C99.5661 63.8557 102.068 65.0832 102.925 66.1573C105.619 65.4997 106.761 62.0802 106.761 62.0802C106.761 62.0802 105.216 59.869 103.643 57.54C102.071 55.211 98.9633 54.3479 98.9633 54.3479" fill="white"/>
</g>
<path d="M99.0099 57.3372C98.4948 59.1319 98.2783 61.0636 99.136 62.5679C99.5661 63.8557 102.068 65.0832 102.925 66.1573C105.619 65.4997 106.761 62.0802 106.761 62.0802C106.761 62.0802 105.216 59.869 103.643 57.54C102.071 55.211 98.9633 54.3479 98.9633 54.3479" stroke="#263238" stroke-linecap="round" stroke-linejoin="round"/>
<path d="M72.9413 53.1232C72.9413 53.1232 72.0618 51.06 71.5138 50.4161C70.9658 49.7722 70.4178 49.3201 70.2643 49.2982C69.8835 49.2543 68.6423 49.9421 68.6423 49.9421C68.6423 49.9421 68.6423 50.3311 69.3136 50.2736C69.3136 50.2736 68.3436 50.8791 68.297 51.3532C68.2504 51.8272 68.845 52.4985 68.9711 52.7588C68.981 52.7938 68.9992 52.826 69.0242 52.8526C69.0491 52.8791 69.0801 52.8993 69.1145 52.9114C69.1488 52.9234 69.1856 52.9271 69.2217 52.922C69.2578 52.9169 69.2921 52.9032 69.3218 52.8821C69.3218 52.8821 70.3685 54.3069 71.3795 54.4055" fill="white"/>
<path d="M72.9413 53.1232C72.9413 53.1232 72.0618 51.06 71.5138 50.4161C70.9658 49.7722 70.4178 49.3201 70.2643 49.2982C69.8835 49.2543 68.6423 49.9421 68.6423 49.9421C68.6423 49.9421 68.6423 50.3311 69.3136 50.2736C69.3136 50.2736 68.3436 50.8791 68.297 51.3532C68.2504 51.8272 68.845 52.4985 68.9711 52.7588C68.981 52.7938 68.9992 52.826 69.0242 52.8526C69.0491 52.8791 69.0801 52.8993 69.1145 52.9114C69.1488 52.9234 69.1856 52.9271 69.2217 52.922C69.2578 52.9169 69.2921 52.9032 69.3218 52.8821C69.3218 52.8821 70.3685 54.3069 71.3795 54.4055" stroke="#263238" stroke-linecap="round" stroke-linejoin="round"/>
<path d="M69.3218 52.8819C69.4114 52.7721 69.4598 52.6345 69.4588 52.4928C69.4588 52.4928 69.878 52.4928 69.8999 52.1257C69.8999 52.1257 70.5164 52.164 70.2589 51.3804" stroke="#263238" stroke-linecap="round" stroke-linejoin="round"/>
<path d="M69.897 52.1176C69.897 52.1176 69.1983 51.3669 69.1572 51.0764" stroke="#263238" stroke-linecap="round" stroke-linejoin="round"/>
<path d="M69.4562 52.4846C69.4562 52.4846 68.689 51.7996 68.7301 51.49" stroke="#263238" stroke-linecap="round" stroke-linejoin="round"/>
<path d="M70.144 49.8132C70.0509 49.9283 69.9353 50.0234 69.8044 50.0926C69.6735 50.1618 69.5299 50.2038 69.3823 50.216" stroke="#263238" stroke-linecap="round" stroke-linejoin="round"/>
<path d="M69.9819 49.9832C70.1117 50.0852 70.231 50.2 70.3381 50.3257" stroke="#263238" stroke-linecap="round" stroke-linejoin="round"/>
<path d="M99.2729 56.77C99.4386 56.4856 99.6662 56.2421 99.9388 56.0576" stroke="#263238" stroke-linecap="round" stroke-linejoin="round"/>
<path d="M93.8696 120.738H99.9716L99.8401 121.201H93.8751L93.8696 120.738Z" fill="white" stroke="#263238" stroke-linecap="round" stroke-linejoin="round"/>
<path d="M95.8286 118.932C95.8286 118.932 97.8316 118.269 98.7988 119.1" stroke="#263238" stroke-linecap="round" stroke-linejoin="round"/>
<path d="M95.8286 118.494C95.8286 118.494 97.5904 117.946 98.7988 118.683" stroke="#263238" stroke-linecap="round" stroke-linejoin="round"/>
<path d="M95.9326 118.064C95.9326 118.064 97.5903 117.439 98.7987 118.294" stroke="#263238" stroke-linecap="round" stroke-linejoin="round"/>
<path d="M94.6177 118.987L94.8177 119.182C94.8443 119.208 94.861 119.243 94.865 119.281C94.869 119.318 94.86 119.356 94.8396 119.387C94.574 119.788 94.432 120.258 94.4314 120.738H94.1382C94.2031 120.269 94.3457 119.815 94.5601 119.393L94.4094 119.242L94.6177 118.987Z" fill="#263238"/>
<path d="M101.596 69.1028C101.251 69.585 96.5602 75.2486 94.3682 74.9417" stroke="#263238" stroke-linecap="round" stroke-linejoin="round"/>
<path d="M89.417 64.2612C89.417 64.2612 92.0364 68.3 96.193 68.2178" stroke="#263238" stroke-linecap="round" stroke-linejoin="round"/>
<g opacity="0.2">
<path d="M96.1934 84.2249C96.4345 84.2797 101.04 85.9593 101.961 87.6389" stroke="white" stroke-linecap="round" stroke-linejoin="round"/>
<path d="M97.314 86.6636C97.0838 86.9896 95.122 93.1135 94.3 94.7932C93.478 96.4728 90.6448 104.008 89.9954 104.441C89.9954 104.441 89.1268 108.825 88.5843 109.534C88.0418 110.244 85.2388 115.853 85.2388 115.853" stroke="white" stroke-linecap="round" stroke-linejoin="round"/>
<path d="M82.085 115.853L85.4853 116.582" stroke="white" stroke-linecap="round" stroke-linejoin="round"/>
<path d="M95.9331 116.217C95.9331 116.217 98.6539 115.973 99.5773 117.009" stroke="white" stroke-linecap="round" stroke-linejoin="round"/>
<path d="M99.0786 87.3677C99.306 88.6692 102.72 95.8781 103.534 95.0643" stroke="white" stroke-linecap="round" stroke-linejoin="round"/>
<path d="M97.7548 88.0199C97.7548 88.0199 97.3548 86.2307 97.7329 85.4169C97.8781 85.1073 94.8066 86.1759 93.7764 85.932" stroke="white" stroke-linecap="round" stroke-linejoin="round"/>
<path d="M97.3139 79.1614C97.3139 79.1614 97.8619 80.7013 97.9825 81.189C98.1031 81.6767 96.9961 83.57 97.3139 83.9536" stroke="white" stroke-linecap="round" stroke-linejoin="round"/>
<path d="M104.78 77.7202C104.78 77.7202 105.539 78.882 105.539 79.7396C105.539 80.5972 106.567 80.9726 106.567 80.9726" stroke="white" stroke-linecap="round" stroke-linejoin="round"/>
<path d="M106.397 76.446C106.965 79.0007 107.023 81.6424 106.567 84.2194C105.808 88.502 104.564 97.2262 104.076 99.4483C103.589 101.67 102.449 106.657 102.449 107.361C102.449 108.066 101.306 112.077 101.306 112.077" stroke="white" stroke-linecap="round" stroke-linejoin="round"/>
<path d="M101.583 106.013C101.419 106.013 98.3854 108.94 97.6265 108.992" stroke="white" stroke-linecap="round" stroke-linejoin="round"/>
<path d="M88.3021 104.224C88.1404 104.279 85.5922 105.526 85.4854 105.145" stroke="white" stroke-linecap="round" stroke-linejoin="round"/>
</g>
<path d="M101.065 81.6055C100.743 81.6312 100.423 81.5279 100.177 81.3183C99.931 81.1086 99.7783 80.8098 99.7524 80.4876L99.1496 73.0156C99.126 72.7091 99.219 72.405 99.4101 72.1642C99.6011 71.9234 99.876 71.7636 100.18 71.7168L100.415 70.9359C100.435 70.8624 100.477 70.7967 100.536 70.7477C100.594 70.6988 100.666 70.6688 100.742 70.6619L103.846 70.4181C103.921 70.4118 103.995 70.4283 104.061 70.4655C104.126 70.5027 104.178 70.5588 104.21 70.6263L104.564 71.3524L109.77 70.9359C110.024 70.9154 110.278 70.9749 110.497 71.1061C110.715 71.2373 110.888 71.4336 110.989 71.6675" fill="#4381CA"/>
<mask id="mask5_1621_3626" style="mask-type:luminance" maskUnits="userSpaceOnUse" x="99" y="70" width="12" height="12">
<path d="M101.065 81.6055C100.743 81.6312 100.423 81.5279 100.177 81.3183C99.931 81.1086 99.7783 80.8098 99.7524 80.4876L99.1496 73.0156C99.126 72.7091 99.219 72.405 99.4101 72.1642C99.6011 71.9234 99.876 71.7636 100.18 71.7168L100.415 70.9359C100.435 70.8624 100.477 70.7967 100.536 70.7477C100.594 70.6988 100.666 70.6688 100.742 70.6619L103.846 70.4181C103.921 70.4118 103.995 70.4283 104.061 70.4655C104.126 70.5027 104.178 70.5588 104.21 70.6263L104.564 71.3524L109.77 70.9359C110.024 70.9154 110.278 70.9749 110.497 71.1061C110.715 71.2373 110.888 71.4336 110.989 71.6675" fill="white"/>
</mask>
<g mask="url(#mask5_1621_3626)">
<path opacity="0.3" d="M101.065 81.6055C100.743 81.6312 100.423 81.5279 100.177 81.3183C99.931 81.1086 99.7783 80.8098 99.7524 80.4876L99.1496 73.0156C99.126 72.7091 99.219 72.405 99.4101 72.1642C99.6011 71.9234 99.876 71.7636 100.18 71.7168L100.415 70.9359C100.435 70.8624 100.477 70.7967 100.536 70.7477C100.594 70.6988 100.666 70.6688 100.742 70.6619L103.846 70.4181C103.921 70.4118 103.995 70.4283 104.061 70.4655C104.126 70.5027 104.178 70.5588 104.21 70.6263L104.564 71.3524L109.77 70.9359C110.024 70.9154 110.278 70.9749 110.497 71.1061C110.715 71.2373 110.888 71.4336 110.989 71.6675" fill="black" fill-opacity="0.7"/>
</g>
<path d="M101.065 81.6055C100.743 81.6312 100.423 81.5279 100.177 81.3183C99.931 81.1086 99.7783 80.8098 99.7524 80.4876L99.1496 73.0156C99.126 72.7091 99.219 72.405 99.4101 72.1642C99.6011 71.9234 99.876 71.7636 100.18 71.7168L100.415 70.9359C100.435 70.8624 100.477 70.7967 100.536 70.7477C100.594 70.6988 100.666 70.6688 100.742 70.6619L103.846 70.4181C103.921 70.4118 103.995 70.4283 104.061 70.4655C104.126 70.5027 104.178 70.5588 104.21 70.6263L104.564 71.3524L109.77 70.9359C110.024 70.9154 110.278 70.9749 110.497 71.1061C110.715 71.2373 110.888 71.4336 110.989 71.6675" stroke="#263238" stroke-linecap="round" stroke-linejoin="round"/>
<path d="M101.065 81.6054L110.553 80.83C110.891 80.7918 111.205 80.6394 111.443 80.3982C111.682 80.157 111.831 79.8414 111.866 79.5038L112.389 72.7908C112.408 72.6389 112.391 72.4848 112.342 72.34C112.292 72.1953 112.21 72.0637 112.102 71.9551C111.994 71.8465 111.863 71.7637 111.719 71.7129C111.575 71.6621 111.421 71.6447 111.269 71.662L101.78 72.4264C101.443 72.4642 101.128 72.6164 100.889 72.8577C100.651 73.099 100.502 73.4148 100.467 73.7526L99.9441 80.4628C99.9235 80.6158 99.9381 80.7715 99.9868 80.918C100.035 81.0645 100.117 81.198 100.225 81.3082C100.333 81.4184 100.465 81.5024 100.611 81.554C100.756 81.6055 100.911 81.6231 101.065 81.6054Z" fill="#4381CA" stroke="#263238" stroke-linecap="round" stroke-linejoin="round"/>
<path d="M108.405 64.2119C109.386 65.1545 109.893 65.8915 109.822 68.9549C109.75 72.0182 109.194 76.446 108.833 79.46L106.227 79.8573C106.227 79.8573 106.635 75.1445 106.227 72.0428C105.783 68.6562 106.134 66.7601 106.542 66.5163" fill="white"/>
<path d="M108.405 64.2119C109.386 65.1545 109.893 65.8915 109.822 68.9549C109.75 72.0182 109.194 76.446 108.833 79.46L106.227 79.8573C106.227 79.8573 106.635 75.1445 106.227 72.0428C105.783 68.6562 106.134 66.7601 106.542 66.5163" stroke="#263238" stroke-linecap="round" stroke-linejoin="round"/>
<path d="M106.375 77.2324C106.32 78.112 104.717 78.3805 104.599 78.9312C104.561 79.1121 104.007 80.3231 104.007 80.3231C103.986 80.671 104.011 81.0202 104.081 81.3616C104.218 81.8329 104.643 81.5589 104.643 81.5589L104.78 81.8932C104.996 82.4412 105.402 81.9343 106.092 82.274C106.783 82.6138 107.117 82.1644 107.383 82.274C107.649 82.3836 108.517 82.1124 108.682 81.7863C108.846 81.4602 108.586 80.019 108.832 79.4463C109.079 78.8737 109.085 77.7147 109.085 77.2324" fill="white"/>
<path d="M106.375 77.2324C106.32 78.112 104.717 78.3805 104.599 78.9312C104.561 79.1121 104.007 80.3231 104.007 80.3231C103.986 80.671 104.011 81.0202 104.081 81.3616C104.218 81.8329 104.643 81.5589 104.643 81.5589L104.78 81.8932C104.996 82.4412 105.402 81.9343 106.092 82.274C106.783 82.6138 107.117 82.1644 107.383 82.274C107.649 82.3836 108.517 82.1124 108.682 81.7863C108.846 81.4602 108.586 80.019 108.832 79.4463C109.079 78.8737 109.085 77.7147 109.085 77.2324" stroke="#263238" stroke-linecap="round" stroke-linejoin="round"/>
<path d="M104.643 81.5587C104.643 81.5587 104.643 80.6737 105.213 80.323L104.643 81.5587Z" fill="white"/>
<path d="M104.643 81.5587C104.643 81.5587 104.643 80.6737 105.213 80.323" stroke="#263238" stroke-linecap="round" stroke-linejoin="round"/>
<path d="M69.1164 49.7173H44.7441V54.7534H69.1164V49.7173Z" fill="#999999" stroke="#263238" stroke-linecap="round" stroke-linejoin="round"/>
<path d="M69.1164 56.2632H44.7441V61.2993H69.1164V56.2632Z" fill="#999999" stroke="#263238" stroke-linecap="round" stroke-linejoin="round"/>
<path d="M69.1164 62.8091H44.7441V67.8452H69.1164V62.8091Z" fill="#999999" stroke="#263238" stroke-linecap="round" stroke-linejoin="round"/>
<path d="M69.1164 69.3547H44.7441V74.3909H69.1164V69.3547Z" fill="#999999" stroke="#263238" stroke-linecap="round" stroke-linejoin="round"/>
<path d="M69.1164 75.9006H44.7441V80.9368H69.1164V75.9006Z" fill="#999999" stroke="#263238" stroke-linecap="round" stroke-linejoin="round"/>
<path d="M69.3247 49.1501H49.794C49.4944 49.1501 49.2515 49.393 49.2515 49.6927V54.7726C49.2515 55.0722 49.4944 55.3151 49.794 55.3151H69.3247C69.6243 55.3151 69.8672 55.0722 69.8672 54.7726V49.6927C69.8672 49.393 69.6243 49.1501 69.3247 49.1501Z" fill="#BFBFBF" stroke="#263238" stroke-linecap="round" stroke-linejoin="round"/>
<path d="M69.3247 55.696H49.794C49.4944 55.696 49.2515 55.9389 49.2515 56.2386V61.3185C49.2515 61.6181 49.4944 61.861 49.794 61.861H69.3247C69.6243 61.861 69.8672 61.6181 69.8672 61.3185V56.2386C69.8672 55.9389 69.6243 55.696 69.3247 55.696Z" fill="#BFBFBF" stroke="#263238" stroke-linecap="round" stroke-linejoin="round"/>
<path d="M69.3247 62.2446H49.794C49.4944 62.2446 49.2515 62.4875 49.2515 62.7871V67.8671C49.2515 68.1667 49.4944 68.4096 49.794 68.4096H69.3247C69.6243 68.4096 69.8672 68.1667 69.8672 67.8671V62.7871C69.8672 62.4875 69.6243 62.2446 69.3247 62.2446Z" fill="#BFBFBF" stroke="#263238" stroke-linecap="round" stroke-linejoin="round"/>
<path d="M69.3247 68.7905H49.794C49.4944 68.7905 49.2515 69.0334 49.2515 69.333V74.413C49.2515 74.7126 49.4944 74.9555 49.794 74.9555H69.3247C69.6243 74.9555 69.8672 74.7126 69.8672 74.413V69.333C69.8672 69.0334 69.6243 68.7905 69.3247 68.7905Z" fill="#BFBFBF" stroke="#263238" stroke-linecap="round" stroke-linejoin="round"/>
<path d="M69.3247 75.3362H49.794C49.4944 75.3362 49.2515 75.5791 49.2515 75.8787V80.9587C49.2515 81.2583 49.4944 81.5012 49.794 81.5012H69.3247C69.6243 81.5012 69.8672 81.2583 69.8672 80.9587V75.8787C69.8672 75.5791 69.6243 75.3362 69.3247 75.3362Z" fill="#BFBFBF" stroke="#263238" stroke-linecap="round" stroke-linejoin="round"/>
<path d="M71.8097 53.1998C71.8097 53.1998 70.3958 52.5668 70.4397 51.5558C70.4284 51.2975 70.3631 51.0446 70.2479 50.8132C70.2479 50.8132 68.8779 50.4872 69.0697 49.9419L70.9658 50.1419C71.5893 50.5225 72.0669 51.1015 72.3221 51.7859" fill="white"/>
<path d="M71.8097 53.1998C71.8097 53.1998 70.3958 52.5668 70.4397 51.5558C70.4284 51.2975 70.3631 51.0446 70.2479 50.8132C70.2479 50.8132 68.8779 50.4872 69.0697 49.9419L70.9658 50.1419C71.5893 50.5225 72.0669 51.1015 72.3221 51.7859" stroke="#263238" stroke-linecap="round" stroke-linejoin="round"/>
<path d="M47.5062 49.0295H18.769V121.201H47.5062V49.0295Z" fill="#757575" stroke="#263238" stroke-linecap="round" stroke-linejoin="round"/>
<path d="M37.5762 49.1528H18.0454C17.7458 49.1528 17.5029 49.3957 17.5029 49.6954V54.7753C17.5029 55.0749 17.7458 55.3178 18.0454 55.3178H37.5762C37.8758 55.3178 38.1187 55.0749 38.1187 54.7753V49.6954C38.1187 49.3957 37.8758 49.1528 37.5762 49.1528Z" fill="#999999" stroke="#263238" stroke-linecap="round" stroke-linejoin="round"/>
<path d="M48.2266 49.1528H28.6958C28.3962 49.1528 28.1533 49.3957 28.1533 49.6954V54.7753C28.1533 55.0749 28.3962 55.3178 28.6958 55.3178H48.2266C48.5262 55.3178 48.7691 55.0749 48.7691 54.7753V49.6954C48.7691 49.3957 48.5262 49.1528 48.2266 49.1528Z" fill="#BFBFBF" stroke="#263238" stroke-linecap="round" stroke-linejoin="round"/>
<path d="M28.6987 54.3972V50.068C28.6987 49.9691 28.738 49.8744 28.8079 49.8045C28.8778 49.7346 28.9725 49.6953 29.0714 49.6953H47.8486C47.8978 49.695 47.9465 49.7043 47.992 49.7229C48.0376 49.7415 48.079 49.7689 48.1139 49.8035C48.1488 49.8381 48.1764 49.8793 48.1953 49.9247C48.2142 49.9701 48.224 50.0188 48.224 50.068V54.3917C48.224 54.4905 48.1847 54.5853 48.1148 54.6552C48.0449 54.7251 47.9502 54.7643 47.8513 54.7643H29.0714C28.9735 54.7643 28.8795 54.7258 28.8098 54.6571C28.7401 54.5884 28.7002 54.495 28.6987 54.3972Z" fill="#263238"/>
<path d="M40.5736 52.7725H30.2767C30.077 52.7725 29.915 52.9344 29.915 53.1341V54.1808C29.915 54.3806 30.077 54.5425 30.2767 54.5425H40.5736C40.7734 54.5425 40.9353 54.3806 40.9353 54.1808V53.1341C40.9353 52.9344 40.7734 52.7725 40.5736 52.7725Z" fill="#4381CA" stroke="#263238" stroke-linecap="round" stroke-linejoin="round"/>
<path d="M42.7299 50.8215H32.433C32.2332 50.8215 32.0713 50.9835 32.0713 51.1832V52.2299C32.0713 52.4296 32.2332 52.5916 32.433 52.5916H42.7299C42.9296 52.5916 43.0916 52.4296 43.0916 52.2299V51.1832C43.0916 50.9835 42.9296 50.8215 42.7299 50.8215Z" fill="#4381CA" stroke="#263238" stroke-linecap="round" stroke-linejoin="round"/>
<path d="M37.5762 81.8848H18.0454C17.7458 81.8848 17.5029 82.1277 17.5029 82.4273V87.5072C17.5029 87.8069 17.7458 88.0498 18.0454 88.0498H37.5762C37.8758 88.0498 38.1187 87.8069 38.1187 87.5072V82.4273C38.1187 82.1277 37.8758 81.8848 37.5762 81.8848Z" fill="#999999" stroke="#263238" stroke-linecap="round" stroke-linejoin="round"/>
<path d="M48.2266 81.8848H28.6958C28.3962 81.8848 28.1533 82.1277 28.1533 82.4273V87.5072C28.1533 87.8069 28.3962 88.0498 28.6958 88.0498H48.2266C48.5262 88.0498 48.7691 87.8069 48.7691 87.5072V82.4273C48.7691 82.1277 48.5262 81.8848 48.2266 81.8848Z" fill="#BFBFBF" stroke="#263238" stroke-linecap="round" stroke-linejoin="round"/>
<path d="M43.0918 84.4768H30.855V85.455H43.0918V84.4768Z" fill="#757575" stroke="#263238" stroke-linecap="round" stroke-linejoin="round"/>
<path d="M45.2399 84.9674C45.2399 85.0655 45.2108 85.1613 45.1563 85.2429C45.1019 85.3245 45.0244 85.388 44.9338 85.4256C44.8432 85.4631 44.7434 85.4729 44.6472 85.4538C44.551 85.4346 44.4627 85.3874 44.3933 85.3181C44.3239 85.2487 44.2767 85.1603 44.2576 85.0641C44.2384 84.9679 44.2483 84.8682 44.2858 84.7776C44.3233 84.687 44.3869 84.6095 44.4685 84.555C44.55 84.5005 44.6459 84.4714 44.744 84.4714C44.8755 84.4714 45.0017 84.5237 45.0947 84.6167C45.1877 84.7097 45.2399 84.8358 45.2399 84.9674Z" fill="#4381CA" stroke="#263238" stroke-linecap="round" stroke-linejoin="round"/>
<path d="M47.0046 84.9674C47.0046 85.0655 46.9755 85.1613 46.921 85.2429C46.8665 85.3245 46.789 85.388 46.6984 85.4256C46.6078 85.4631 46.5081 85.4729 46.4119 85.4538C46.3157 85.4346 46.2273 85.3874 46.158 85.3181C46.0886 85.2487 46.0414 85.1603 46.0222 85.0641C46.0031 84.9679 46.0129 84.8682 46.0504 84.7776C46.088 84.687 46.1515 84.6095 46.2331 84.555C46.3147 84.5005 46.4105 84.4714 46.5086 84.4714C46.6402 84.4714 46.7663 84.5237 46.8593 84.6167C46.9523 84.7097 47.0046 84.8358 47.0046 84.9674Z" fill="#757575" stroke="#263238" stroke-linecap="round" stroke-linejoin="round"/>
<path d="M38.4614 84.803H31.3018V85.129H38.4614V84.803Z" fill="#4381CA"/>
<path d="M37.5762 88.4307H18.0454C17.7458 88.4307 17.5029 88.6736 17.5029 88.9732V94.0531C17.5029 94.3528 17.7458 94.5957 18.0454 94.5957H37.5762C37.8758 94.5957 38.1187 94.3528 38.1187 94.0531V88.9732C38.1187 88.6736 37.8758 88.4307 37.5762 88.4307Z" fill="#999999" stroke="#263238" stroke-linecap="round" stroke-linejoin="round"/>
<path d="M48.2266 88.4307H28.6958C28.3962 88.4307 28.1533 88.6736 28.1533 88.9732V94.0531C28.1533 94.3528 28.3962 94.5957 28.6958 94.5957H48.2266C48.5262 94.5957 48.7691 94.3528 48.7691 94.0531V88.9732C48.7691 88.6736 48.5262 88.4307 48.2266 88.4307Z" fill="#BFBFBF" stroke="#263238" stroke-linecap="round" stroke-linejoin="round"/>
<path d="M43.0918 91.0227H30.855V92.0009H43.0918V91.0227Z" fill="#757575" stroke="#263238" stroke-linecap="round" stroke-linejoin="round"/>
<path d="M44.744 92.0092C45.0179 92.0092 45.2399 91.7872 45.2399 91.5133C45.2399 91.2394 45.0179 91.0173 44.744 91.0173C44.4701 91.0173 44.248 91.2394 44.248 91.5133C44.248 91.7872 44.4701 92.0092 44.744 92.0092Z" fill="#4381CA" stroke="#263238" stroke-linecap="round" stroke-linejoin="round"/>
<path d="M47.0046 91.516C47.0046 91.6141 46.9755 91.7099 46.921 91.7915C46.8665 91.8731 46.789 91.9366 46.6984 91.9742C46.6078 92.0117 46.5081 92.0215 46.4119 92.0024C46.3157 91.9832 46.2273 91.936 46.158 91.8667C46.0886 91.7973 46.0414 91.7089 46.0222 91.6127C46.0031 91.5165 46.0129 91.4168 46.0504 91.3262C46.088 91.2356 46.1515 91.1581 46.2331 91.1036C46.3147 91.0491 46.4105 91.02 46.5086 91.02C46.5739 91.0197 46.6385 91.0322 46.6989 91.057C46.7592 91.0818 46.814 91.1184 46.8601 91.1645C46.9063 91.2106 46.9428 91.2654 46.9676 91.3258C46.9924 91.3861 47.0049 91.4507 47.0046 91.516Z" fill="#757575" stroke="#263238" stroke-linecap="round" stroke-linejoin="round"/>
<path d="M38.4614 91.3516H31.3018V91.6749H38.4614V91.3516Z" fill="#4381CA"/>
<path d="M37.5762 94.9766H18.0454C17.7458 94.9766 17.5029 95.2195 17.5029 95.5191V100.599C17.5029 100.899 17.7458 101.142 18.0454 101.142H37.5762C37.8758 101.142 38.1187 100.899 38.1187 100.599V95.5191C38.1187 95.2195 37.8758 94.9766 37.5762 94.9766Z" fill="#999999" stroke="#263238" stroke-linecap="round" stroke-linejoin="round"/>
<path d="M48.2266 94.9766H28.6958C28.3962 94.9766 28.1533 95.2195 28.1533 95.5191V100.599C28.1533 100.899 28.3962 101.142 28.6958 101.142H48.2266C48.5262 101.142 48.7691 100.899 48.7691 100.599V95.5191C48.7691 95.2195 48.5262 94.9766 48.2266 94.9766Z" fill="#BFBFBF" stroke="#263238" stroke-linecap="round" stroke-linejoin="round"/>
<path d="M43.0918 97.5686H30.855V98.5468H43.0918V97.5686Z" fill="#757575" stroke="#263238" stroke-linecap="round" stroke-linejoin="round"/>
<path d="M44.744 98.5551C45.0179 98.5551 45.2399 98.3331 45.2399 98.0592C45.2399 97.7853 45.0179 97.5632 44.744 97.5632C44.4701 97.5632 44.248 97.7853 44.248 98.0592C44.248 98.3331 44.4701 98.5551 44.744 98.5551Z" fill="#4381CA" stroke="#263238" stroke-linecap="round" stroke-linejoin="round"/>
<path d="M47.0046 98.0591C47.0051 98.1573 46.9765 98.2535 46.9223 98.3354C46.8682 98.4173 46.7909 98.4813 46.7003 98.5193C46.6098 98.5572 46.5099 98.5674 46.4136 98.5486C46.3172 98.5298 46.2286 98.4828 46.1589 98.4135C46.0893 98.3443 46.0418 98.2559 46.0224 98.1596C46.0031 98.0633 46.0127 97.9635 46.0502 97.8727C46.0876 97.7819 46.1512 97.7043 46.2328 97.6497C46.3144 97.5951 46.4104 97.5659 46.5086 97.5659C46.6397 97.5659 46.7654 97.6178 46.8583 97.7102C46.9513 97.8026 47.0038 97.9281 47.0046 98.0591Z" fill="#757575" stroke="#263238" stroke-linecap="round" stroke-linejoin="round"/>
<path d="M38.4614 97.8975H31.3018V98.2208H38.4614V97.8975Z" fill="#4381CA"/>
<path d="M37.5762 101.522H18.0454C17.7458 101.522 17.5029 101.765 17.5029 102.065V107.145C17.5029 107.445 17.7458 107.687 18.0454 107.687H37.5762C37.8758 107.687 38.1187 107.445 38.1187 107.145V102.065C38.1187 101.765 37.8758 101.522 37.5762 101.522Z" fill="#999999" stroke="#263238" stroke-linecap="round" stroke-linejoin="round"/>
<path d="M48.2266 101.522H28.6958C28.3962 101.522 28.1533 101.765 28.1533 102.065V107.145C28.1533 107.445 28.3962 107.687 28.6958 107.687H48.2266C48.5262 107.687 48.7691 107.445 48.7691 107.145V102.065C48.7691 101.765 48.5262 101.522 48.2266 101.522Z" fill="#BFBFBF" stroke="#263238" stroke-linecap="round" stroke-linejoin="round"/>
<path d="M43.0918 104.115H30.855V105.093H43.0918V104.115Z" fill="#757575" stroke="#263238" stroke-linecap="round" stroke-linejoin="round"/>
<path d="M45.2399 104.605C45.2405 104.703 45.2118 104.799 45.1577 104.881C45.1035 104.963 45.0262 105.027 44.9357 105.065C44.8451 105.103 44.7453 105.113 44.6489 105.094C44.5525 105.076 44.4639 105.029 44.3943 104.959C44.3246 104.89 44.2771 104.802 44.2578 104.706C44.2384 104.609 44.2481 104.509 44.2855 104.419C44.323 104.328 44.3866 104.25 44.4682 104.196C44.5498 104.141 44.6458 104.112 44.744 104.112C44.875 104.112 45.0008 104.164 45.0937 104.256C45.1866 104.349 45.2392 104.474 45.2399 104.605Z" fill="#4381CA" stroke="#263238" stroke-linecap="round" stroke-linejoin="round"/>
<path d="M47.0046 104.605C47.0051 104.703 46.9765 104.799 46.9223 104.881C46.8682 104.963 46.7909 105.027 46.7003 105.065C46.6098 105.103 46.5099 105.113 46.4136 105.094C46.3172 105.076 46.2286 105.029 46.1589 104.959C46.0893 104.89 46.0418 104.802 46.0224 104.706C46.0031 104.609 46.0127 104.509 46.0502 104.419C46.0876 104.328 46.1512 104.25 46.2328 104.196C46.3144 104.141 46.4104 104.112 46.5086 104.112C46.6397 104.112 46.7654 104.164 46.8583 104.256C46.9513 104.349 47.0038 104.474 47.0046 104.605Z" fill="#757575" stroke="#263238" stroke-linecap="round" stroke-linejoin="round"/>
<path d="M38.4614 104.443H31.3018V104.769H38.4614V104.443Z" fill="#4381CA"/>
<path d="M37.5762 108.068H18.0454C17.7458 108.068 17.5029 108.311 17.5029 108.611V113.691C17.5029 113.99 17.7458 114.233 18.0454 114.233H37.5762C37.8758 114.233 38.1187 113.99 38.1187 113.691V108.611C38.1187 108.311 37.8758 108.068 37.5762 108.068Z" fill="#999999" stroke="#263238" stroke-linecap="round" stroke-linejoin="round"/>
<path d="M48.2266 108.068H28.6958C28.3962 108.068 28.1533 108.311 28.1533 108.611V113.691C28.1533 113.99 28.3962 114.233 28.6958 114.233H48.2266C48.5262 114.233 48.7691 113.99 48.7691 113.691V108.611C48.7691 108.311 48.5262 108.068 48.2266 108.068Z" fill="#BFBFBF" stroke="#263238" stroke-linecap="round" stroke-linejoin="round"/>
<path d="M43.0918 110.663H30.855V111.641H43.0918V110.663Z" fill="#757575" stroke="#263238" stroke-linecap="round" stroke-linejoin="round"/>
<path d="M44.744 111.647C45.0179 111.647 45.2399 111.425 45.2399 111.151C45.2399 110.877 45.0179 110.655 44.744 110.655C44.4701 110.655 44.248 110.877 44.248 111.151C44.248 111.425 44.4701 111.647 44.744 111.647Z" fill="#4381CA" stroke="#263238" stroke-linecap="round" stroke-linejoin="round"/>
<path d="M47.0046 111.151C47.0051 111.249 46.9765 111.345 46.9223 111.427C46.8682 111.509 46.7909 111.573 46.7003 111.611C46.6098 111.649 46.5099 111.659 46.4136 111.64C46.3172 111.622 46.2286 111.575 46.1589 111.505C46.0893 111.436 46.0418 111.348 46.0224 111.251C46.0031 111.155 46.0127 111.055 46.0502 110.965C46.0876 110.874 46.1512 110.796 46.2328 110.741C46.3144 110.687 46.4104 110.658 46.5086 110.658C46.6397 110.658 46.7654 110.71 46.8583 110.802C46.9513 110.894 47.0038 111.02 47.0046 111.151Z" fill="#757575" stroke="#263238" stroke-linecap="round" stroke-linejoin="round"/>
<path d="M38.4614 110.989H31.3018V111.313H38.4614V110.989Z" fill="#4381CA"/>
<path d="M37.5762 114.614H18.0454C17.7458 114.614 17.5029 114.857 17.5029 115.157V120.237C17.5029 120.536 17.7458 120.779 18.0454 120.779H37.5762C37.8758 120.779 38.1187 120.536 38.1187 120.237V115.157C38.1187 114.857 37.8758 114.614 37.5762 114.614Z" fill="#999999" stroke="#263238" stroke-linecap="round" stroke-linejoin="round"/>
<path d="M48.2266 114.614H28.6958C28.3962 114.614 28.1533 114.857 28.1533 115.157V120.237C28.1533 120.536 28.3962 120.779 28.6958 120.779H48.2266C48.5262 120.779 48.7691 120.536 48.7691 120.237V115.157C48.7691 114.857 48.5262 114.614 48.2266 114.614Z" fill="#BFBFBF" stroke="#263238" stroke-linecap="round" stroke-linejoin="round"/>
<path d="M43.0918 117.209H30.855V118.187H43.0918V117.209Z" fill="#757575" stroke="#263238" stroke-linecap="round" stroke-linejoin="round"/>
<path d="M44.744 118.195C45.0179 118.195 45.2399 117.973 45.2399 117.699C45.2399 117.425 45.0179 117.203 44.744 117.203C44.4701 117.203 44.248 117.425 44.248 117.699C44.248 117.973 44.4701 118.195 44.744 118.195Z" fill="#4381CA" stroke="#263238" stroke-linecap="round" stroke-linejoin="round"/>
<path d="M47.0046 117.699C47.0046 117.797 46.9755 117.893 46.921 117.975C46.8665 118.056 46.789 118.12 46.6984 118.157C46.6078 118.195 46.5081 118.205 46.4119 118.186C46.3157 118.167 46.2273 118.119 46.158 118.05C46.0886 117.981 46.0414 117.892 46.0222 117.796C46.0031 117.7 46.0129 117.6 46.0504 117.51C46.088 117.419 46.1515 117.341 46.2331 117.287C46.3147 117.232 46.4105 117.203 46.5086 117.203C46.6402 117.203 46.7663 117.256 46.8593 117.349C46.9523 117.442 47.0046 117.568 47.0046 117.699Z" fill="#757575" stroke="#263238" stroke-linecap="round" stroke-linejoin="round"/>
<path d="M38.4614 117.535H31.3018V117.858H38.4614V117.535Z" fill="#4381CA"/>
<path d="M37.5762 75.3362H18.0454C17.7458 75.3362 17.5029 75.5791 17.5029 75.8787V80.9587C17.5029 81.2583 17.7458 81.5012 18.0454 81.5012H37.5762C37.8758 81.5012 38.1187 81.2583 38.1187 80.9587V75.8787C38.1187 75.5791 37.8758 75.3362 37.5762 75.3362Z" fill="#999999" stroke="#263238" stroke-linecap="round" stroke-linejoin="round"/>
<path d="M48.2266 75.3362H28.6958C28.3962 75.3362 28.1533 75.5791 28.1533 75.8787V80.9587C28.1533 81.2583 28.3962 81.5012 28.6958 81.5012H48.2266C48.5262 81.5012 48.7691 81.2583 48.7691 80.9587V75.8787C48.7691 75.5791 48.5262 75.3362 48.2266 75.3362Z" fill="#BFBFBF" stroke="#263238" stroke-linecap="round" stroke-linejoin="round"/>
<path d="M28.6987 80.5807V76.2542C28.6987 76.1554 28.738 76.0606 28.8079 75.9907C28.8778 75.9209 28.9725 75.8816 29.0714 75.8816H47.8486C47.9481 75.8816 48.0436 75.9211 48.114 75.9915C48.1844 76.0619 48.224 76.1574 48.224 76.257V80.5807C48.224 80.6795 48.1847 80.7743 48.1148 80.8442C48.0449 80.9141 47.9502 80.9533 47.8513 80.9533H29.0714C28.9725 80.9533 28.8778 80.9141 28.8079 80.8442C28.738 80.7743 28.6987 80.6795 28.6987 80.5807Z" fill="#263238"/>
<path d="M40.5736 78.9558H30.2767C30.077 78.9558 29.915 79.1177 29.915 79.3175V80.3642C29.915 80.5639 30.077 80.7258 30.2767 80.7258H40.5736C40.7734 80.7258 40.9353 80.5639 40.9353 80.3642V79.3175C40.9353 79.1177 40.7734 78.9558 40.5736 78.9558Z" fill="#4381CA" stroke="#263238" stroke-linecap="round" stroke-linejoin="round"/>
<path d="M46.6591 78.9558H41.8422C41.6424 78.9558 41.4805 79.1177 41.4805 79.3175V80.3642C41.4805 80.5639 41.6424 80.7258 41.8422 80.7258H46.6591C46.8588 80.7258 47.0207 80.5639 47.0207 80.3642V79.3175C47.0207 79.1177 46.8588 78.9558 46.6591 78.9558Z" fill="#4381CA" stroke="#263238" stroke-linecap="round" stroke-linejoin="round"/>
<path d="M36.2802 77.1721H31.4632C31.2635 77.1721 31.1016 77.3341 31.1016 77.5338V78.5805C31.1016 78.7802 31.2635 78.9422 31.4632 78.9422H36.2802C36.4799 78.9422 36.6418 78.7802 36.6418 78.5805V77.5338C36.6418 77.3341 36.4799 77.1721 36.2802 77.1721Z" fill="#4381CA" stroke="#263238" stroke-linecap="round" stroke-linejoin="round"/>
<path d="M37.5762 68.7905H18.0454C17.7458 68.7905 17.5029 69.0334 17.5029 69.333V74.413C17.5029 74.7126 17.7458 74.9555 18.0454 74.9555H37.5762C37.8758 74.9555 38.1187 74.7126 38.1187 74.413V69.333C38.1187 69.0334 37.8758 68.7905 37.5762 68.7905Z" fill="#999999" stroke="#263238" stroke-linecap="round" stroke-linejoin="round"/>
<path d="M48.2266 68.7905H28.6958C28.3962 68.7905 28.1533 69.0334 28.1533 69.333V74.413C28.1533 74.7126 28.3962 74.9555 28.6958 74.9555H48.2266C48.5262 74.9555 48.7691 74.7126 48.7691 74.413V69.333C48.7691 69.0334 48.5262 68.7905 48.2266 68.7905Z" fill="#BFBFBF" stroke="#263238" stroke-linecap="round" stroke-linejoin="round"/>
<path d="M28.6987 74.0348V69.7083C28.6987 69.6095 28.738 69.5147 28.8079 69.4448C28.8778 69.375 28.9725 69.3357 29.0714 69.3357H47.8486C47.9482 69.3357 48.0436 69.3752 48.114 69.4456C48.1844 69.516 48.224 69.6115 48.224 69.7111V74.0321C48.2243 74.0812 48.215 74.13 48.1964 74.1755C48.1778 74.221 48.1504 74.2624 48.1158 74.2973C48.0812 74.3322 48.04 74.3599 47.9946 74.3788C47.9492 74.3977 47.9005 74.4074 47.8513 74.4074H29.0714C28.9725 74.4074 28.8778 74.3682 28.8079 74.2983C28.738 74.2284 28.6987 74.1336 28.6987 74.0348Z" fill="#263238"/>
<path d="M40.7411 72.4099H35.9242C35.7244 72.4099 35.5625 72.5718 35.5625 72.7716V73.8183C35.5625 74.018 35.7244 74.18 35.9242 74.18H40.7411C40.9409 74.18 41.1028 74.018 41.1028 73.8183V72.7716C41.1028 72.5718 40.9409 72.4099 40.7411 72.4099Z" fill="#4381CA" stroke="#263238" stroke-linecap="round" stroke-linejoin="round"/>
<path d="M46.6591 72.4099H41.8422C41.6424 72.4099 41.4805 72.5718 41.4805 72.7716V73.8183C41.4805 74.018 41.6424 74.18 41.8422 74.18H46.6591C46.8588 74.18 47.0207 74.018 47.0207 73.8183V72.7716C47.0207 72.5718 46.8588 72.4099 46.6591 72.4099Z" fill="#4381CA" stroke="#263238" stroke-linecap="round" stroke-linejoin="round"/>
<path d="M34.9266 72.4099H30.1097C29.91 72.4099 29.748 72.5718 29.748 72.7716V73.8183C29.748 74.018 29.91 74.18 30.1097 74.18H34.9266C35.1264 74.18 35.2883 74.018 35.2883 73.8183V72.7716C35.2883 72.5718 35.1264 72.4099 34.9266 72.4099Z" fill="#4381CA" stroke="#263238" stroke-linecap="round" stroke-linejoin="round"/>
<path d="M39.2611 70.5139H34.4442C34.2444 70.5139 34.0825 70.6758 34.0825 70.8756V71.9223C34.0825 72.122 34.2444 72.284 34.4442 72.284H39.2611C39.4609 72.284 39.6228 72.122 39.6228 71.9223V70.8756C39.6228 70.6758 39.4609 70.5139 39.2611 70.5139Z" fill="#4381CA" stroke="#263238" stroke-linecap="round" stroke-linejoin="round"/>
<path d="M37.5762 62.2446H18.0454C17.7458 62.2446 17.5029 62.4875 17.5029 62.7871V67.8671C17.5029 68.1667 17.7458 68.4096 18.0454 68.4096H37.5762C37.8758 68.4096 38.1187 68.1667 38.1187 67.8671V62.7871C38.1187 62.4875 37.8758 62.2446 37.5762 62.2446Z" fill="#999999" stroke="#263238" stroke-linecap="round" stroke-linejoin="round"/>
<path d="M48.2266 62.2446H28.6958C28.3962 62.2446 28.1533 62.4875 28.1533 62.7871V67.8671C28.1533 68.1667 28.3962 68.4096 28.6958 68.4096H48.2266C48.5262 68.4096 48.7691 68.1667 48.7691 67.8671V62.7871C48.7691 62.4875 48.5262 62.2446 48.2266 62.2446Z" fill="#BFBFBF" stroke="#263238" stroke-linecap="round" stroke-linejoin="round"/>
<path d="M28.6987 67.489V63.1625C28.6984 63.1133 28.7078 63.0646 28.7263 63.019C28.7449 62.9735 28.7723 62.9321 28.8069 62.8972C28.8415 62.8623 28.8828 62.8346 28.9281 62.8157C28.9735 62.7968 29.0222 62.7871 29.0714 62.7871H47.8486C47.9482 62.7871 48.0436 62.8267 48.114 62.8971C48.1844 62.9675 48.224 63.0629 48.224 63.1625V67.4835C48.2243 67.5326 48.215 67.5814 48.1964 67.6269C48.1778 67.6724 48.1505 67.7138 48.1158 67.7487C48.0812 67.7836 48.04 67.8113 47.9946 67.8302C47.9492 67.8491 47.9005 67.8589 47.8513 67.8589H29.0714C28.973 67.8589 28.8787 67.82 28.8088 67.7507C28.739 67.6814 28.6995 67.5873 28.6987 67.489Z" fill="#263238"/>
<path d="M44.1357 65.864H33.8387C33.639 65.864 33.4771 66.0259 33.4771 66.2257V67.2724C33.4771 67.4721 33.639 67.6341 33.8387 67.6341H44.1357C44.3354 67.6341 44.4973 67.4721 44.4973 67.2724V66.2257C44.4973 66.0259 44.3354 65.864 44.1357 65.864Z" fill="#4381CA" stroke="#263238" stroke-linecap="round" stroke-linejoin="round"/>
<path d="M42.7436 65.6833H32.433C32.337 65.6833 32.2451 65.6452 32.1772 65.5774C32.1094 65.5096 32.0713 65.4176 32.0713 65.3216V65.371C32.0713 65.275 32.1094 65.183 32.1772 65.1152C32.2451 65.0474 32.337 65.0093 32.433 65.0093H42.7436C42.839 65.01 42.9303 65.0484 42.9976 65.1162C43.0648 65.1839 43.1025 65.2755 43.1025 65.371V65.3216C43.1025 65.4171 43.0648 65.5087 42.9976 65.5764C42.9303 65.6442 42.839 65.6826 42.7436 65.6833Z" fill="#4381CA" stroke="#263238" stroke-linecap="round" stroke-linejoin="round"/>
<path d="M37.5762 55.6987H18.0454C17.7458 55.6987 17.5029 55.9416 17.5029 56.2412V61.3212C17.5029 61.6208 17.7458 61.8637 18.0454 61.8637H37.5762C37.8758 61.8637 38.1187 61.6208 38.1187 61.3212V56.2412C38.1187 55.9416 37.8758 55.6987 37.5762 55.6987Z" fill="#999999" stroke="#263238" stroke-linecap="round" stroke-linejoin="round"/>
<path d="M48.2266 55.6987H28.6958C28.3962 55.6987 28.1533 55.9416 28.1533 56.2412V61.3212C28.1533 61.6208 28.3962 61.8637 28.6958 61.8637H48.2266C48.5262 61.8637 48.7691 61.6208 48.7691 61.3212V56.2412C48.7691 55.9416 48.5262 55.6987 48.2266 55.6987Z" fill="#BFBFBF" stroke="#263238" stroke-linecap="round" stroke-linejoin="round"/>
<path d="M28.6987 60.9431V56.6166C28.6984 56.5674 28.7078 56.5187 28.7263 56.4732C28.7449 56.4276 28.7723 56.3862 28.8069 56.3513C28.8415 56.3164 28.8828 56.2887 28.9281 56.2698C28.9735 56.2509 29.0222 56.2412 29.0714 56.2412H47.8486C47.8978 56.2409 47.9465 56.2502 47.992 56.2688C48.0376 56.2874 48.079 56.3148 48.1139 56.3494C48.1488 56.384 48.1765 56.4252 48.1954 56.4706C48.2143 56.516 48.224 56.5647 48.224 56.6139V60.9376C48.224 61.0364 48.1847 61.1312 48.1148 61.2011C48.045 61.271 47.9502 61.3102 47.8513 61.3102H29.0714C28.9735 61.3102 28.8795 61.2717 28.8098 61.203C28.7401 61.1343 28.7002 61.0409 28.6987 60.9431Z" fill="#263238"/>
<path d="M46.0536 59.3181H35.7567C35.557 59.3181 35.395 59.48 35.395 59.6798V60.7265C35.395 60.9262 35.557 61.0882 35.7567 61.0882H46.0536C46.2534 61.0882 46.4153 60.9262 46.4153 60.7265V59.6798C46.4153 59.48 46.2534 59.3181 46.0536 59.3181Z" fill="#4381CA" stroke="#263238" stroke-linecap="round" stroke-linejoin="round"/>
<path d="M42.7299 57.3674H37.9129C37.7132 57.3674 37.5513 57.5294 37.5513 57.7291V58.7758C37.5513 58.9755 37.7132 59.1375 37.9129 59.1375H42.7299C42.9296 59.1375 43.0915 58.9755 43.0915 58.7758V57.7291C43.0915 57.5294 42.9296 57.3674 42.7299 57.3674Z" fill="#4381CA" stroke="#263238" stroke-linecap="round" stroke-linejoin="round"/>
<path d="M18.6758 53.0601V54.5424" stroke="#263238" stroke-linecap="round" stroke-linejoin="round"/>
<path d="M19.147 53.0601V54.5424" stroke="#263238" stroke-linecap="round" stroke-linejoin="round"/>
<path d="M19.6152 53.0601V54.5424" stroke="#263238" stroke-linecap="round" stroke-linejoin="round"/>
<path d="M20.0869 53.0601V54.5424" stroke="#263238" stroke-linecap="round" stroke-linejoin="round"/>
<path d="M20.5552 53.0601V54.5424" stroke="#263238" stroke-linecap="round" stroke-linejoin="round"/>
<path d="M18.6758 118.546V120.028" stroke="#263238" stroke-linecap="round" stroke-linejoin="round"/>
<path d="M19.147 118.546V120.028" stroke="#263238" stroke-linecap="round" stroke-linejoin="round"/>
<path d="M19.6152 118.546V120.028" stroke="#263238" stroke-linecap="round" stroke-linejoin="round"/>
<path d="M20.0869 118.546V120.028" stroke="#263238" stroke-linecap="round" stroke-linejoin="round"/>
<path d="M20.5552 118.546V120.028" stroke="#263238" stroke-linecap="round" stroke-linejoin="round"/>
<path d="M18.6758 111.998V113.48" stroke="#263238" stroke-linecap="round" stroke-linejoin="round"/>
<path d="M19.147 111.998V113.48" stroke="#263238" stroke-linecap="round" stroke-linejoin="round"/>
<path d="M19.6152 111.998V113.48" stroke="#263238" stroke-linecap="round" stroke-linejoin="round"/>
<path d="M20.0869 111.998V113.48" stroke="#263238" stroke-linecap="round" stroke-linejoin="round"/>
<path d="M20.5552 111.998V113.48" stroke="#263238" stroke-linecap="round" stroke-linejoin="round"/>
<path d="M18.6758 105.449V106.931" stroke="#263238" stroke-linecap="round" stroke-linejoin="round"/>
<path d="M19.147 105.449V106.931" stroke="#263238" stroke-linecap="round" stroke-linejoin="round"/>
<path d="M19.6152 105.449V106.931" stroke="#263238" stroke-linecap="round" stroke-linejoin="round"/>
<path d="M20.0869 105.449V106.931" stroke="#263238" stroke-linecap="round" stroke-linejoin="round"/>
<path d="M20.5552 105.449V106.931" stroke="#263238" stroke-linecap="round" stroke-linejoin="round"/>
<path d="M18.6758 98.9004V100.383" stroke="#263238" stroke-linecap="round" stroke-linejoin="round"/>
<path d="M19.147 98.9004V100.383" stroke="#263238" stroke-linecap="round" stroke-linejoin="round"/>
<path d="M19.6152 98.9004V100.383" stroke="#263238" stroke-linecap="round" stroke-linejoin="round"/>
<path d="M20.0869 98.9004V100.383" stroke="#263238" stroke-linecap="round" stroke-linejoin="round"/>
<path d="M20.5552 98.9004V100.383" stroke="#263238" stroke-linecap="round" stroke-linejoin="round"/>
<path d="M18.6758 92.3516V93.8339" stroke="#263238" stroke-linecap="round" stroke-linejoin="round"/>
<path d="M19.147 92.3516V93.8339" stroke="#263238" stroke-linecap="round" stroke-linejoin="round"/>
<path d="M19.6152 92.3516V93.8339" stroke="#263238" stroke-linecap="round" stroke-linejoin="round"/>
<path d="M20.0869 92.3516V93.8339" stroke="#263238" stroke-linecap="round" stroke-linejoin="round"/>
<path d="M20.5552 92.3516V93.8339" stroke="#263238" stroke-linecap="round" stroke-linejoin="round"/>
<path d="M18.6758 85.803V87.2853" stroke="#263238" stroke-linecap="round" stroke-linejoin="round"/>
<path d="M19.147 85.803V87.2853" stroke="#263238" stroke-linecap="round" stroke-linejoin="round"/>
<path d="M19.6152 85.803V87.2853" stroke="#263238" stroke-linecap="round" stroke-linejoin="round"/>
<path d="M20.0869 85.803V87.2853" stroke="#263238" stroke-linecap="round" stroke-linejoin="round"/>
<path d="M20.5552 85.803V87.2853" stroke="#263238" stroke-linecap="round" stroke-linejoin="round"/>
<path d="M18.6758 79.2544V80.7367" stroke="#263238" stroke-linecap="round" stroke-linejoin="round"/>
<path d="M19.147 79.2544V80.7367" stroke="#263238" stroke-linecap="round" stroke-linejoin="round"/>
<path d="M19.6152 79.2544V80.7367" stroke="#263238" stroke-linecap="round" stroke-linejoin="round"/>
<path d="M20.0869 79.2544V80.7367" stroke="#263238" stroke-linecap="round" stroke-linejoin="round"/>
<path d="M20.5552 79.2544V80.7367" stroke="#263238" stroke-linecap="round" stroke-linejoin="round"/>
<path d="M18.6758 72.7058V74.1882" stroke="#263238" stroke-linecap="round" stroke-linejoin="round"/>
<path d="M19.147 72.7058V74.1882" stroke="#263238" stroke-linecap="round" stroke-linejoin="round"/>
<path d="M19.6152 72.7058V74.1882" stroke="#263238" stroke-linecap="round" stroke-linejoin="round"/>
<path d="M20.0869 72.7058V74.1882" stroke="#263238" stroke-linecap="round" stroke-linejoin="round"/>
<path d="M20.5552 72.7058V74.1882" stroke="#263238" stroke-linecap="round" stroke-linejoin="round"/>
<path d="M18.6758 66.1572V67.6396" stroke="#263238" stroke-linecap="round" stroke-linejoin="round"/>
<path d="M19.147 66.1572V67.6396" stroke="#263238" stroke-linecap="round" stroke-linejoin="round"/>
<path d="M19.6152 66.1572V67.6396" stroke="#263238" stroke-linecap="round" stroke-linejoin="round"/>
<path d="M20.0869 66.1572V67.6396" stroke="#263238" stroke-linecap="round" stroke-linejoin="round"/>
<path d="M20.5552 66.1572V67.6396" stroke="#263238" stroke-linecap="round" stroke-linejoin="round"/>
<path d="M18.6758 59.6086V61.091" stroke="#263238" stroke-linecap="round" stroke-linejoin="round"/>
<path d="M19.147 59.6086V61.091" stroke="#263238" stroke-linecap="round" stroke-linejoin="round"/>
<path d="M19.6152 59.6086V61.091" stroke="#263238" stroke-linecap="round" stroke-linejoin="round"/>
<path d="M20.0869 59.6086V61.091" stroke="#263238" stroke-linecap="round" stroke-linejoin="round"/>
<path d="M20.5552 59.6086V61.091" stroke="#263238" stroke-linecap="round" stroke-linejoin="round"/>
</svg>
