<svg width="132" height="128" viewBox="0 0 132 128" fill="none" xmlns="http://www.w3.org/2000/svg">
<path d="M132 96.9536H0V97.0196H132V96.9536Z" fill="#EBEBEB"/>
<path d="M118.773 99.4669H94.7759V99.5329H118.773V99.4669Z" fill="#EBEBEB"/>
<path d="M87.4421 98.7515H80.8711V98.8175H87.4421V98.7515Z" fill="#EBEBEB"/>
<path d="M102.461 101.919H92.2734V101.985H102.461V101.919Z" fill="#EBEBEB"/>
<path d="M19.8266 101.476H13.8496V101.542H19.8266V101.476Z" fill="#EBEBEB"/>
<path d="M29.2747 101.476H22.1758V101.542H29.2747V101.476Z" fill="#EBEBEB"/>
<path d="M59.4395 100.362H47.0737V100.428H59.4395V100.362Z" fill="#EBEBEB"/>
<path d="M62.568 85.1792H11.5922C11.1929 85.1785 10.8101 85.0194 10.528 84.7368C10.2459 84.4541 10.0874 84.0711 10.0874 83.6718V12.0143C10.0909 11.6172 10.2509 11.2376 10.5326 10.9578C10.8144 10.678 11.1951 10.5207 11.5922 10.52H62.568C62.9678 10.52 63.3512 10.6788 63.6339 10.9615C63.9166 11.2442 64.0754 11.6277 64.0754 12.0275V83.6718C64.0754 84.0716 63.9166 84.455 63.6339 84.7377C63.3512 85.0204 62.9678 85.1792 62.568 85.1792ZM11.5922 10.5728C11.2104 10.5735 10.8444 10.7257 10.5747 10.9959C10.3049 11.2662 10.1534 11.6324 10.1534 12.0143V83.6718C10.1534 84.0536 10.3049 84.4199 10.5747 84.6901C10.8444 84.9603 11.2104 85.1125 11.5922 85.1132H62.568C62.95 85.1125 63.3163 84.9604 63.5864 84.6903C63.8566 84.4201 64.0087 84.0539 64.0094 83.6718V12.0143C64.0087 11.6322 63.8566 11.2659 63.5864 10.9958C63.3163 10.7256 62.95 10.5735 62.568 10.5728H11.5922Z" fill="#EBEBEB"/>
<path d="M119.674 85.1792H68.6954C68.2958 85.1785 67.9128 85.0195 67.6303 84.7369C67.3477 84.4544 67.1887 84.0714 67.188 83.6718V12.0143C67.1922 11.617 67.3527 11.2373 67.6349 10.9576C67.9171 10.6779 68.2981 10.5207 68.6954 10.52H119.674C120.07 10.5214 120.451 10.679 120.732 10.9587C121.013 11.2384 121.173 11.6177 121.176 12.0143V83.6718C121.176 84.0707 121.018 84.4533 120.736 84.7358C120.455 85.0184 120.073 85.1778 119.674 85.1792ZM68.6954 10.5728C68.3133 10.5735 67.9471 10.7256 67.6769 10.9958C67.4068 11.2659 67.2547 11.6322 67.254 12.0143V83.6718C67.2547 84.0539 67.4068 84.4201 67.6769 84.6903C67.9471 84.9604 68.3133 85.1125 68.6954 85.1132H119.674C120.056 85.1125 120.422 84.9604 120.692 84.6903C120.962 84.4201 121.115 84.0539 121.115 83.6718V12.0143C121.115 11.6322 120.962 11.2659 120.692 10.9958C120.422 10.7256 120.056 10.5735 119.674 10.5728H68.6954Z" fill="#EBEBEB"/>
<path d="M13.8468 96.9509H45.4106L45.4106 27.1467H13.8468L13.8468 96.9509Z" fill="#F0F0F0"/>
<path d="M13.8495 96.9509H43.9165L43.9165 27.1467H13.8495L13.8495 96.9509Z" fill="#F5F5F5"/>
<path d="M42.3325 95.3696L42.3325 28.7334H15.4336L15.4336 95.3696H42.3325Z" fill="#F0F0F0"/>
<path d="M24.1242 60.1521H18.6409C18.4542 60.1514 18.2753 60.0769 18.1433 59.9448C18.0112 59.8128 17.9367 59.6339 17.936 59.4472C17.9367 59.2605 18.0112 59.0816 18.1433 58.9495C18.2753 58.8175 18.4542 58.743 18.6409 58.7423H24.1242C24.3109 58.743 24.4898 58.8175 24.6219 58.9495C24.7539 59.0816 24.8284 59.2605 24.8291 59.4472C24.8284 59.6339 24.7539 59.8128 24.6219 59.9448C24.4898 60.0769 24.3109 60.1514 24.1242 60.1521Z" fill="white"/>
<path d="M15.8452 95.3696L15.8452 28.7334H15.4334L15.4334 95.3696H15.8452Z" fill="#F0F0F0"/>
<path d="M60.1997 95.6283H64.8989V75.2475H60.1997V95.6283Z" fill="#F0F0F0"/>
<path d="M40.8222 96.922H63.9961V95.631H40.8222V96.922Z" fill="#F0F0F0"/>
<path d="M60.1999 75.2502H39.9194V95.631H60.1999V75.2502Z" fill="#F5F5F5"/>
<path d="M58.3491 77.7582H41.7646V84.4427H58.3491V77.7582Z" fill="#F0F0F0"/>
<path d="M58.3491 86.4359H41.7646V93.1204H58.3491V86.4359Z" fill="#F0F0F0"/>
<path d="M48.196 78.3205H51.921C52.0419 78.3198 52.1577 78.2715 52.2432 78.186C52.3287 78.1005 52.377 77.9847 52.3777 77.8638C52.3777 77.7424 52.3297 77.626 52.2441 77.5399C52.1586 77.4538 52.0424 77.4051 51.921 77.4044H48.196C48.0746 77.4051 47.9584 77.4538 47.8729 77.5399C47.7873 77.626 47.7393 77.7424 47.7393 77.8638C47.74 77.9847 47.7883 78.1005 47.8738 78.186C47.9593 78.2715 48.0751 78.3198 48.196 78.3205Z" fill="#F5F5F5"/>
<path d="M48.196 87.0009H51.921C52.0406 87.0002 52.1552 86.953 52.2405 86.8692C52.3257 86.7853 52.375 86.6716 52.3777 86.5521C52.377 86.4311 52.3287 86.3154 52.2432 86.2299C52.1577 86.1444 52.0419 86.096 51.921 86.0953H48.196C48.0751 86.096 47.9593 86.1444 47.8738 86.2299C47.7883 86.3154 47.74 86.4311 47.7393 86.5521C47.742 86.6716 47.7912 86.7853 47.8765 86.8692C47.9618 86.953 48.0764 87.0002 48.196 87.0009Z" fill="#F5F5F5"/>
<path d="M51.6039 74.8489C51.5116 74.8482 51.4234 74.8112 51.3582 74.746C51.293 74.6808 51.2561 74.5926 51.2554 74.5004V63.9113C51.2554 63.8189 51.2921 63.7303 51.3574 63.6649C51.4228 63.5996 51.5114 63.5629 51.6039 63.5629C51.6961 63.5636 51.7843 63.6005 51.8495 63.6657C51.9147 63.7309 51.9516 63.8191 51.9523 63.9113V74.5004C51.9516 74.5926 51.9147 74.6808 51.8495 74.746C51.7843 74.8112 51.6961 74.8482 51.6039 74.8489Z" fill="#F5F5F5"/>
<path d="M54.8646 74.437H48.3438V75.2581H54.8646V74.437Z" fill="#F0F0F0"/>
<path d="M53.4101 68.513C53.3643 68.513 53.3204 68.495 53.2878 68.4629C53.2552 68.4307 53.2365 68.3871 53.2358 68.3414V63.0561C53.2365 63.0101 53.2551 62.9662 53.2876 62.9336C53.3202 62.9011 53.3641 62.8825 53.4101 62.8818C53.4561 62.8825 53.5 62.9011 53.5325 62.9336C53.5651 62.9662 53.5836 63.0101 53.5843 63.0561V68.3361C53.5847 68.3592 53.5804 68.3821 53.5718 68.4036C53.5632 68.425 53.5504 68.4445 53.5342 68.461C53.518 68.4775 53.4987 68.4905 53.4774 68.4994C53.4561 68.5084 53.4332 68.513 53.4101 68.513Z" fill="#F0F0F0"/>
<path d="M46.5327 64.8777C46.5327 64.8777 46.6621 59.8881 51.6042 59.8881C56.5462 59.8881 56.673 64.8724 56.673 64.8724L46.5327 64.8777Z" fill="#F0F0F0"/>
<path d="M89.3136 71.9264C89.4536 71.9264 89.5961 71.9264 89.7387 71.9396C91.1989 72.0451 92.5718 72.6747 93.6046 73.7123C94.6374 74.75 95.2606 76.1258 95.3592 77.5866C95.4009 78.2501 95.335 78.9161 95.1639 79.5586C94.5021 82.1358 94.1825 84.789 94.2135 87.4496V95.1954C94.2138 95.3295 94.1876 95.4624 94.1364 95.5863C94.0851 95.7103 94.0098 95.8229 93.9149 95.9176C93.8199 96.0124 93.7071 96.0874 93.583 96.1383C93.4589 96.1892 93.3259 96.2151 93.1918 96.2144H68.6055V71.9264H89.3136Z" fill="#F0F0F0"/>
<path d="M62.5469 77.9853C62.5495 77.124 62.7357 76.2733 63.0932 75.4898C63.4507 74.7062 63.9711 74.008 64.6199 73.4416C65.2686 72.8751 66.0307 72.4536 66.8553 72.205C67.6799 71.9565 68.548 71.8867 69.4017 72.0003C70.2554 72.1139 71.075 72.4082 71.8059 72.8637C72.5369 73.3191 73.1622 73.9253 73.6403 74.6416C74.1184 75.3579 74.4382 76.168 74.5784 77.0177C74.7186 77.8675 74.6759 78.7373 74.4533 79.5693C73.7936 82.1468 73.475 84.7998 73.5055 87.4602V95.206C73.5055 95.3397 73.4791 95.4721 73.4279 95.5955C73.3767 95.719 73.3015 95.8312 73.2069 95.9256C73.1122 96.02 72.9999 96.0948 72.8762 96.1458C72.7526 96.1967 72.6202 96.2227 72.4865 96.2224H64.7222C64.5888 96.2224 64.4566 96.1961 64.3333 96.145C64.21 96.0939 64.0979 96.0191 64.0035 95.9247C63.9092 95.8303 63.8343 95.7183 63.7832 95.5949C63.7321 95.4716 63.7058 95.3395 63.7058 95.206V86.9956C63.7283 84.5004 63.4121 82.0137 62.766 79.6036C62.6204 79.0765 62.5467 78.5321 62.5469 77.9853Z" fill="#F5F5F5"/>
<path d="M76.9533 96.2144H99.0264V81.4673H76.9533V96.2144Z" fill="#F0F0F0"/>
<path d="M117.269 84.8043H87.7243V62.1874C87.7243 60.9719 88.2072 59.8062 89.0667 58.9467C89.9261 58.0873 91.0919 57.6044 92.3074 57.6044H112.686C113.901 57.6044 115.067 58.0873 115.926 58.9467C116.786 59.8062 117.269 60.9719 117.269 62.1874V84.8043Z" fill="#E0E0E0"/>
<path d="M111.495 84.8043H81.9509V61.9657C81.9509 60.8083 82.4106 59.6983 83.229 58.8799C84.0474 58.0615 85.1574 57.6018 86.3148 57.6018H107.121C108.278 57.6018 109.388 58.0615 110.206 58.8799C111.025 59.6983 111.485 60.8083 111.485 61.9657V84.8043H111.495Z" fill="#F5F5F5"/>
<path d="M97.5848 86.127H77.2383C76.8882 86.127 76.5524 85.9879 76.3049 85.7403C76.0573 85.4928 75.9183 85.157 75.9183 84.807V81.4621C75.9183 81.112 76.0573 80.7762 76.3049 80.5287C76.5524 80.2811 76.8882 80.1421 77.2383 80.1421H97.5848C97.6905 80.1421 97.7919 80.1841 97.8666 80.2588C97.9414 80.3336 97.9834 80.435 97.9834 80.5407V85.731C97.9827 85.8362 97.9404 85.9369 97.8657 86.0111C97.791 86.0853 97.69 86.127 97.5848 86.127Z" fill="#E0E0E0"/>
<path d="M119.447 71.9264C119.587 71.9264 119.726 71.9264 119.872 71.9396C121.331 72.0457 122.704 72.6755 123.736 73.7131C124.768 74.7507 125.391 76.1263 125.49 77.5866C125.534 78.2502 125.468 78.9166 125.294 79.5586C124.632 82.1367 124.313 84.7907 124.344 87.4522V95.198C124.344 95.3317 124.317 95.4641 124.266 95.5876C124.215 95.711 124.14 95.8232 124.045 95.9176C123.951 96.012 123.838 96.0869 123.715 96.1378C123.591 96.1887 123.459 96.2147 123.325 96.2144H98.7358V71.9264H119.447Z" fill="#F0F0F0"/>
<path d="M92.6798 77.9852C92.6692 76.4063 93.2756 74.8856 94.3699 73.7473C95.4641 72.609 96.9597 71.9431 98.5378 71.8914C100.116 71.8398 101.652 72.4065 102.818 73.4709C103.984 74.5352 104.689 76.0129 104.782 77.5892C104.823 78.2528 104.757 78.9188 104.586 79.5613C103.924 82.1385 103.605 84.7916 103.636 87.4522V95.198C103.636 95.4676 103.529 95.7261 103.338 95.9167C103.148 96.1073 102.889 96.2144 102.619 96.2144H94.8525C94.7191 96.2144 94.5869 96.1881 94.4636 96.137C94.3403 96.086 94.2282 96.0111 94.1338 95.9167C94.0395 95.8223 93.9646 95.7103 93.9135 95.587C93.8624 95.4636 93.8361 95.3315 93.8361 95.198V86.9955C93.8582 84.5005 93.5429 82.014 92.8989 79.6035C92.7534 79.0764 92.6797 78.532 92.6798 77.9852Z" fill="#F5F5F5"/>
<path d="M69.0359 96.9536H119.014C119.111 96.9536 119.207 96.9344 119.296 96.8972C119.386 96.8601 119.467 96.8056 119.535 96.7369C119.604 96.6682 119.658 96.5867 119.695 96.497C119.732 96.4074 119.751 96.3113 119.75 96.2144H68.2993C68.299 96.3113 68.3178 96.4074 68.3546 96.497C68.3915 96.5867 68.4457 96.6682 68.5141 96.7369C68.5825 96.8056 68.6639 96.8601 68.7534 96.8972C68.8429 96.9344 68.9389 96.9536 69.0359 96.9536Z" fill="#E0E0E0"/>
<path d="M98.6355 40.3177H114.71V22.7855L98.6355 22.7855V40.3177Z" fill="#E0E0E0"/>
<path d="M97.6774 40.3177H114.169V22.7855L97.6774 22.7855V40.3177Z" fill="#F5F5F5"/>
<path d="M112.786 38.9369V24.1661H99.0555V38.9369H112.786Z" fill="white"/>
<path d="M105.922 27.8173L109.676 34.3222H102.168L105.922 27.8173Z" fill="#F5F5F5"/>
<path d="M76.0847 50.553H92.1597V33.0207H76.0847V50.553Z" fill="#E0E0E0"/>
<path d="M75.1266 50.553H91.6187V33.0207H75.1266V50.553Z" fill="#F5F5F5"/>
<path d="M90.2354 49.1723V34.4015H76.5047V49.1723H90.2354Z" fill="white"/>
<path d="M81.6921 44.4203L80.0633 41.5981C79.8938 41.3035 79.8048 40.9696 79.8052 40.6297C79.8056 40.2899 79.8953 39.9561 80.0654 39.6619C80.2355 39.3677 80.48 39.1234 80.7743 38.9536C81.0686 38.7837 81.4025 38.6942 81.7423 38.6941H85.008C85.3477 38.6945 85.6814 38.7842 85.9756 38.9541C86.2699 39.1239 86.5143 39.3681 86.6846 39.6621C86.8549 39.9561 86.9449 40.2897 86.9458 40.6294C86.9467 40.9692 86.8584 41.3032 86.6897 41.5981L85.0608 44.4203C84.891 44.7171 84.6458 44.9637 84.35 45.1353C84.0543 45.3069 83.7184 45.3972 83.3765 45.3972C83.0345 45.3972 82.6987 45.3069 82.4029 45.1353C82.1071 44.9637 81.8619 44.7171 81.6921 44.4203Z" fill="#F5F5F5"/>
<path d="M65.9999 108.876C94.2697 108.876 117.187 107.538 117.187 105.887C117.187 104.237 94.2697 102.899 65.9999 102.899C37.7302 102.899 14.813 104.237 14.813 105.887C14.813 107.538 37.7302 108.876 65.9999 108.876Z" fill="#F5F5F5"/>
<path d="M83.556 22.2152H22.6987L26.7036 105.095H87.5609L83.556 22.2152Z" fill="#4381CA"/>
<path opacity="0.2" d="M83.556 22.2152H22.6987L26.7036 105.095H87.5609L83.556 22.2152Z" fill="black"/>
<path d="M84.1185 22.2152H23.2612L27.2688 105.095H88.126L84.1185 22.2152Z" fill="#4381CA"/>
<path opacity="0.2" d="M80.9053 25.0031H26.0435L29.8767 101.349L77.5815 101.286L85.5095 94.2582L80.9053 25.0031Z" fill="black"/>
<path d="M81.3251 25.0004C81.9101 47.8644 83.7565 70.6788 86.8559 93.3394C82.5087 96.3314 78.1835 99.3234 73.8803 102.315H32.8494C28.9766 76.7102 26.7036 50.8884 26.0435 25.0004H81.3251Z" fill="white"/>
<path d="M86.856 93.3394C82.5088 96.3314 78.1836 99.3234 73.8804 102.315C74.8202 98.3554 75.7997 94.3954 76.8187 90.4354L86.856 93.3394Z" fill="#EBEBEB"/>
<path d="M40.9201 31.9858C41.0239 34.7807 41.1453 37.5774 41.2844 40.3758H32.8971C32.7563 37.5774 32.6349 34.7807 32.5328 31.9858H40.9201ZM41.7754 31.1014H31.6167C31.7346 34.4859 31.8816 37.8722 32.0576 41.2602H42.2189C42.0429 37.8739 41.896 34.4877 41.7781 31.1014H41.7754Z" fill="#4381CA"/>
<path d="M75.1925 35.1353H46.4641C46.4377 34.5043 46.4139 33.8707 46.3901 33.2397H75.116C75.1397 33.8707 75.1661 34.5043 75.1925 35.1353Z" fill="#E0E0E0"/>
<path d="M69.1231 39.1217H46.6408C46.6118 38.4881 46.5801 37.8572 46.5537 37.2262H69.0333C69.0632 37.858 69.0931 38.4899 69.1231 39.1217Z" fill="#E0E0E0"/>
<path d="M41.7438 48.4171C41.9198 51.2155 42.1161 54.0139 42.3325 56.8123H33.9426C33.7261 54.0139 33.5299 51.2155 33.3539 48.4171H41.7438ZM42.5728 47.5327H32.4141C32.6217 50.9207 32.8585 54.3087 33.1242 57.6967H43.2961C43.0321 54.3105 42.7945 50.9225 42.5833 47.5327H42.5728Z" fill="#4381CA"/>
<path d="M57.9216 51.5693H47.3616C47.3193 50.9357 47.2745 50.3047 47.2349 49.6711H57.7949C57.8345 50.3047 57.8767 50.9357 57.9216 51.5693Z" fill="#E0E0E0"/>
<path d="M67.9193 51.5693H60.155C60.1128 50.9357 60.0679 50.3047 60.0283 49.6711H67.7926C67.8322 50.3047 67.8744 50.9357 67.9193 51.5693Z" fill="#E0E0E0"/>
<path d="M72.7928 55.5583H47.6521C47.6046 54.9247 47.5597 54.2938 47.5122 53.6602H72.6529C72.7004 54.2938 72.7453 54.9247 72.7928 55.5583Z" fill="#E0E0E0"/>
<path d="M43.0029 64.8564C43.2546 67.6548 43.5257 70.4532 43.8161 73.2516H35.4261C35.1357 70.4532 34.8647 67.6548 34.613 64.8564H43.0029ZM43.8108 63.972H33.6494C33.9486 67.3618 34.276 70.7507 34.6315 74.1387H44.7929C44.4409 70.7489 44.1135 67.36 43.8108 63.972Z" fill="#4381CA"/>
<path d="M77.6423 70.1022H48.9111L49.1012 71.9977H77.8323L77.6423 70.1022Z" fill="#E0E0E0"/>
<path d="M71.0159 66.113H48.5337C48.5918 66.744 48.6499 67.3776 48.7106 68.0086H71.1902C71.1321 67.3776 71.0714 66.7519 71.0159 66.113Z" fill="#E0E0E0"/>
<path d="M44.7005 81.2958C45.0279 84.0942 45.3737 86.8917 45.738 89.6883H37.3481C36.9838 86.8935 36.638 84.0959 36.3106 81.2958H44.7005ZM45.4925 80.4114H35.3232C35.7104 83.8011 36.1284 87.1883 36.5772 90.5727H46.728C46.2828 87.1883 45.8648 83.8011 45.474 80.4114H45.4925Z" fill="#4381CA"/>
<path d="M79.2238 84.4399H50.4927C50.4161 83.8063 50.3395 83.1753 50.2656 82.5417H78.9941C79.0707 83.1833 79.1446 83.8142 79.2238 84.4399Z" fill="#E0E0E0"/>
<path d="M64.0703 88.4343H50.9917C50.9099 87.8034 50.8307 87.1698 50.7515 86.5388H63.83C63.9092 87.1698 63.9884 87.8034 64.0703 88.4343Z" fill="#E0E0E0"/>
<path d="M71.8794 88.4343H66.2324C66.1506 87.8034 66.0714 87.1698 65.9922 86.5388H71.6391C71.7183 87.1698 71.8081 87.8034 71.8794 88.4343Z" fill="#E0E0E0"/>
<path d="M37.2238 39.1772L36.8515 38.5858C36.0384 37.2922 34.3805 36.1385 33.8076 35.8006L34.2353 35.0429C35.3592 35.7255 36.3635 36.5879 37.2079 37.5958C38.4857 35.8561 40.3759 34.0582 42.9631 32.1257L43.5096 32.8385C40.7482 34.9057 38.8157 36.7985 37.596 38.6201L37.2238 39.1772Z" fill="#4381CA"/>
<path d="M38.2274 55.6138L37.8393 55.0225C36.9945 53.7289 35.3049 52.5726 34.7241 52.2346L35.128 51.477C36.2734 52.1597 37.3012 53.0226 38.172 54.0325C39.4022 52.2901 41.2423 50.4922 43.7793 48.5571C43.9668 48.7947 44.1568 49.0323 44.3443 49.2726C41.6383 51.3423 39.756 53.2326 38.5864 55.0568C38.465 55.2416 38.3462 55.429 38.2274 55.6138Z" fill="#4381CA"/>
<path d="M39.6845 72.0953L39.2806 71.5039C38.3989 70.2103 36.6776 69.054 36.0889 68.7187C36.2156 68.4547 36.3529 68.2118 36.4743 67.961C37.6375 68.6449 38.6868 69.5063 39.5842 70.5139C40.7696 68.7715 42.5621 66.9763 45.0437 65.0386L45.6298 65.754C42.9898 67.8238 41.1418 69.714 40.0251 71.5383L39.6845 72.0953Z" fill="#4381CA"/>
<path d="M66.2983 97.7614C64.7407 97.7614 63.8431 97.1858 63.0511 96.6789C62.2591 96.1721 61.578 95.7338 60.2633 95.7338C58.9485 95.7338 58.3625 96.1932 57.7421 96.6789C57.1217 97.1647 56.3613 97.7614 54.8037 97.7614C53.2461 97.7614 52.3485 97.1858 51.5592 96.6789C50.7698 96.1721 50.0887 95.7338 48.7713 95.7338C47.454 95.7338 46.8705 96.1932 46.2501 96.6789C45.6297 97.1647 44.8694 97.7614 43.3145 97.7614C41.7595 97.7614 40.8593 97.1858 40.0673 96.6789C39.2753 96.1721 38.5968 95.7338 37.2794 95.7338C37.2451 95.4698 37.2081 95.227 37.1738 94.9735C38.7314 94.9735 39.6264 95.549 40.4184 96.0559C41.2104 96.5628 41.8889 97.001 43.2036 97.001C44.5183 97.001 45.1044 96.5417 45.7248 96.0559C46.3452 95.5702 47.1081 94.9735 48.6657 94.9735C50.2233 94.9735 51.1157 95.549 51.9077 96.0559C52.6997 96.5628 53.3808 97.001 54.6955 97.001C56.0102 97.001 56.5963 96.5417 57.2167 96.0559C57.8371 95.5702 58.6001 94.9735 60.1577 94.9735C61.7153 94.9735 62.6102 95.549 63.4022 96.0559C64.1942 96.5628 64.8727 97.001 66.1901 97.001C66.2244 97.2545 66.264 97.5079 66.2983 97.7614Z" fill="#EBEBEB"/>
<path d="M68.5317 24.2664C67.6394 21.8904 65.5775 20.3302 63.3599 20.3302H58.8403C58.5038 20.3273 58.1756 20.2256 57.8964 20.0379C57.6172 19.8502 57.3992 19.5847 57.2695 19.2742C56.95 18.5154 56.4157 17.8665 55.7323 17.4073C55.0489 16.9482 54.2462 16.6987 53.423 16.6896C52.6266 16.6816 51.8484 16.9279 51.2016 17.3927C50.5549 17.8576 50.0734 18.5167 49.8273 19.2742C49.727 19.5841 49.5302 19.8538 49.2656 20.0438C49.001 20.2338 48.6825 20.3342 48.3568 20.3302H43.8398C41.6195 20.3302 39.7082 21.8984 39.0482 24.2664L38.7842 25.2089H68.8802L68.5317 24.2664Z" fill="#263238"/>
<path d="M68.6929 26.1382H39.0721C38.8223 26.1353 38.5829 26.0378 38.4021 25.8653C38.2213 25.6929 38.1126 25.4583 38.098 25.2089C38.0915 25.0891 38.1096 24.9692 38.1512 24.8566C38.1928 24.744 38.257 24.6412 38.3398 24.5544C38.4227 24.4676 38.5224 24.3986 38.633 24.3518C38.7435 24.305 38.8624 24.2814 38.9824 24.2823H68.6032C68.8526 24.2851 69.0916 24.3823 69.2723 24.5541C69.453 24.726 69.562 24.96 69.5773 25.2089C69.5842 25.3289 69.5664 25.4491 69.5249 25.562C69.4835 25.6749 69.4194 25.778 69.3365 25.8651C69.2536 25.9522 69.1537 26.0214 69.043 26.0684C68.9323 26.1153 68.8132 26.1391 68.6929 26.1382Z" fill="#4381CA"/>
<path opacity="0.2" d="M68.6929 26.1382H39.0721C38.8223 26.1353 38.5829 26.0378 38.4021 25.8653C38.2213 25.6929 38.1126 25.4583 38.098 25.2089C38.0915 25.0891 38.1096 24.9692 38.1512 24.8566C38.1928 24.744 38.257 24.6412 38.3398 24.5544C38.4227 24.4676 38.5224 24.3986 38.633 24.3518C38.7435 24.305 38.8624 24.2814 38.9824 24.2823H68.6032C68.8526 24.2851 69.0916 24.3823 69.2723 24.5541C69.453 24.726 69.562 24.96 69.5773 25.2089C69.5842 25.3289 69.5664 25.4491 69.5249 25.562C69.4835 25.6749 69.4194 25.778 69.3365 25.8651C69.2536 25.9522 69.1537 26.0214 69.043 26.0684C68.9323 26.1153 68.8132 26.1391 68.6929 26.1382Z" fill="black"/>
<path d="M95.2826 104.301H93.3475L93.1548 99.8207H95.0899L95.2826 104.301Z" fill="#FFC3BD"/>
<path d="M106.896 104.301H104.961L103.989 99.8207H105.922L106.896 104.301Z" fill="#FFC3BD"/>
<path d="M104.824 104.076H106.996C107.035 104.076 107.072 104.089 107.102 104.113C107.131 104.137 107.152 104.171 107.16 104.208L107.543 105.93C107.551 105.971 107.551 106.015 107.541 106.056C107.53 106.097 107.511 106.136 107.484 106.169C107.457 106.202 107.423 106.228 107.384 106.246C107.345 106.264 107.303 106.273 107.26 106.273C106.503 106.26 106.133 106.215 105.177 106.215C104.589 106.215 103.377 106.275 102.566 106.275C101.756 106.275 101.648 105.483 101.98 105.402C103.472 105.074 104.032 104.625 104.509 104.195C104.596 104.119 104.708 104.076 104.824 104.076Z" fill="#263238"/>
<path d="M93.361 104.076H95.473C95.5113 104.076 95.5485 104.089 95.5784 104.113C95.6082 104.137 95.6288 104.171 95.6367 104.208L96.0195 105.93C96.0289 105.97 96.0292 106.012 96.0204 106.052C96.0117 106.093 95.994 106.131 95.9688 106.164C95.9435 106.197 95.9113 106.223 95.8744 106.242C95.8375 106.261 95.7969 106.272 95.7555 106.273C94.9925 106.26 93.8917 106.215 92.9333 106.215C91.814 106.215 90.8477 106.275 89.533 106.275C88.741 106.275 88.5193 105.483 88.8519 105.402C90.3646 105.069 91.6001 105.035 92.9069 104.227C93.0421 104.137 93.1989 104.085 93.361 104.076Z" fill="#263238"/>
<path d="M97.1517 33.7308C96.8877 35.1459 96.7346 36.8988 97.7246 37.844C97.7246 37.844 97.157 39.2801 94.5275 39.2801C92.1251 39.2801 93.329 37.844 93.329 37.844C94.913 37.4664 94.8232 35.5155 94.5487 34.412L97.1517 33.7308Z" fill="#FFC3BD"/>
<path d="M92.5742 38.042C92.627 37.6909 93.2448 37.2817 93.947 37.1286C94.6493 36.9755 97.3473 36.6349 98.171 36.9755C98.9947 37.316 98.0285 38.3245 98.0285 38.3245L92.5742 38.042Z" fill="#4381CA"/>
<path opacity="0.4" d="M92.5742 38.042C92.627 37.6909 93.2448 37.2817 93.947 37.1286C94.6493 36.9755 97.3473 36.6349 98.171 36.9755C98.9947 37.316 98.0285 38.3245 98.0285 38.3245L92.5742 38.042Z" fill="white"/>
<path opacity="0.2" d="M93.1548 99.8232L93.2551 102.131H95.1902L95.0899 99.8232H93.1548Z" fill="black"/>
<path opacity="0.2" d="M105.924 99.8232H103.989L104.491 102.131H106.426L105.924 99.8232Z" fill="black"/>
<path d="M101.732 39.5864L99.4014 41.144C99.4014 41.144 102.749 47.0972 102.469 48.0503C102.086 49.3491 101.553 52.1871 100.827 53.6286C100.922 53.9401 101.405 54.6503 101.674 54.7717C103.522 53.3672 105.389 48.9637 105.32 47.7308C105.159 44.9351 101.732 39.5864 101.732 39.5864Z" fill="#FFC3BD"/>
<path d="M100.827 53.6339L98.979 53.4913L99.9479 55.5268C99.9479 55.5268 101.561 55.5981 101.83 54.3652L100.827 53.6339Z" fill="#B55B52"/>
<path d="M109.961 63.5603L109.806 63.8533L108.76 65.8307L71.647 46.2075L72.8455 43.9371L109.961 63.5603Z" fill="#4381CA"/>
<path d="M112.361 59.0273L111.595 60.474L111.162 61.2924L74.0464 41.6693L75.2449 39.3989L112.361 59.0273Z" fill="#4381CA"/>
<path d="M74.059 41.6627L72.8579 43.9303L109.958 63.5823L111.16 61.3147L74.059 41.6627Z" fill="#4381CA"/>
<path opacity="0.2" d="M74.059 41.6627L72.8579 43.9303L109.958 63.5823L111.16 61.3147L74.059 41.6627Z" fill="black"/>
<path d="M70.047 39.6999L68.9673 41.7433L71.6469 46.2075L75.2452 39.4016L70.047 39.6999Z" fill="#4381CA"/>
<path opacity="0.8" d="M70.047 39.6999L68.9673 41.7433L71.6469 46.2075L75.2452 39.4016L70.047 39.6999Z" fill="white"/>
<path d="M67.8188 39.8293L68.9672 41.7433L70.047 39.7L67.8188 39.8293Z" fill="#4381CA"/>
<path d="M97.4927 54.418L98.4589 56.2185L99.9558 55.5268L98.9869 53.4913L97.4927 54.418Z" fill="#B55B52"/>
<path d="M101.178 38.2822C103.007 38.5462 105.103 44.8822 105.103 44.8822L101.26 47.0523C101.26 47.0523 99.5673 44.048 98.7357 41.804C97.8592 39.457 99.2162 37.9971 101.178 38.2822Z" fill="#263238"/>
<path opacity="0.2" d="M100.114 40.455C99.2823 39.6947 99.7918 42.9498 100.188 45.0328C100.391 45.4393 100.584 45.8089 100.747 46.1178C101.674 44.481 101.26 41.5031 100.114 40.455Z" fill="black"/>
<path d="M90.3432 38.3826C90.3432 38.3826 88.0596 44.2223 90.2271 55.0991H100.584C100.655 53.5151 99.6571 45.764 101.188 38.2823C100.044 38.0614 98.8875 37.915 97.7247 37.844C96.2607 37.7595 94.793 37.7595 93.3291 37.844C92.3212 37.9448 91.3228 38.1249 90.3432 38.3826Z" fill="#263238"/>
<path d="M91.9352 41.0964L89.3269 40.0642C89.3269 40.0642 86.3226 46.1969 85.3669 46.5058C84.0812 46.9282 81.4413 48.0898 79.8414 48.3168C79.6408 48.5808 79.3293 49.3728 79.3794 49.6632C81.5838 50.384 86.2751 49.4283 87.2466 48.6732C89.4748 46.952 91.9352 41.0964 91.9352 41.0964Z" fill="#FFC3BD"/>
<path opacity="0.2" d="M92.2284 40.3995C91.7981 39.4069 90.9744 38.9924 90.1164 39.1376C89.7838 40.3546 89.2215 43.0289 89.3244 47.0576L89.9395 47.3533C89.9395 47.3533 92.965 42.097 92.2284 40.3995Z" fill="black"/>
<path d="M92.6401 39.7053C93.2896 41.4371 90.0001 46.5323 90.0001 46.5323L86.1299 44.4203C86.7113 42.8356 87.461 41.3177 88.366 39.8927C89.7256 37.8625 91.9247 37.8071 92.6401 39.7053Z" fill="#263238"/>
<path d="M79.9364 48.3116L77.6343 48.8L78.8012 50.9305C79.4446 50.6104 80.0293 50.1838 80.5304 49.6686L79.9364 48.3116Z" fill="#FFC3BD"/>
<path d="M76.5469 49.2831L77.4656 50.5556L78.8014 50.941L77.6346 48.8105L76.5469 49.2831Z" fill="#FFC3BD"/>
<path d="M92.764 31.6955C92.764 31.8513 92.6663 31.9595 92.5633 31.9595C92.4604 31.9595 92.3864 31.8222 92.397 31.6665C92.4076 31.5107 92.4947 31.4025 92.5976 31.4025C92.7006 31.4025 92.7745 31.5397 92.764 31.6955Z" fill="#263238"/>
<path d="M92.9016 31.7086C92.6884 32.1738 92.4122 32.6073 92.0806 32.9969C92.1825 33.0794 92.3013 33.1385 92.4286 33.1699C92.5559 33.2014 92.6885 33.2045 92.8171 33.1791L92.9016 31.7086Z" fill="#ED847E"/>
<path d="M92.566 31.1569C92.552 31.154 92.5386 31.1486 92.5264 31.1411C92.5162 31.1347 92.5074 31.1263 92.5005 31.1163C92.4936 31.1064 92.4887 31.0952 92.4863 31.0834C92.4838 31.0715 92.4837 31.0593 92.4861 31.0475C92.4885 31.0356 92.4932 31.0244 92.5 31.0144C92.5765 30.8908 92.6813 30.787 92.8057 30.7118C92.93 30.6365 93.0705 30.5918 93.2155 30.5814C93.2396 30.5827 93.2624 30.5928 93.2794 30.6099C93.2965 30.627 93.3066 30.6497 93.3079 30.6738C93.3079 30.6983 93.2982 30.7218 93.2808 30.7392C93.2635 30.7565 93.24 30.7662 93.2155 30.7662C93.1029 30.7767 92.9943 30.8135 92.8985 30.8735C92.8027 30.9336 92.7223 31.0153 92.6637 31.1121C92.6542 31.1288 92.6396 31.1421 92.6221 31.1502C92.6046 31.1582 92.585 31.1606 92.566 31.1569Z" fill="#263238"/>
<path d="M98.0124 31.5609C97.7854 33.4669 97.7484 34.5916 96.7268 35.5209C95.1876 36.9148 92.8776 35.9037 92.5292 33.9659C92.2176 32.2235 92.6427 29.4013 94.5593 28.7466C94.9811 28.6007 95.4331 28.565 95.8725 28.6428C96.3119 28.7207 96.7242 28.9095 97.0701 29.1915C97.416 29.4734 97.6842 29.8391 97.8491 30.2537C98.014 30.6684 98.0703 31.1183 98.0124 31.5609Z" fill="#FFC3BD"/>
<path d="M94.1714 31.9331C93.5035 32.0651 92.4369 30.5814 93.3081 29.3221C92.8672 29.103 91.4284 29.9689 90.8872 29.1611C90.346 28.3532 91.8482 27.9229 91.5604 27.2391C92.5795 27.4477 90.9004 28.7202 91.8693 28.5961C92.8382 28.472 93.9549 26.6821 95.0373 27.416C96.9513 28.7017 99.5596 26.558 98.4957 29.2429C99.7999 28.9789 100.692 30.5207 99.4487 31.5899C96.9698 33.7151 98.4957 33.9949 96.9249 34.1031C96.1382 34.1612 94.3087 33.224 94.1714 31.9331Z" fill="#263238"/>
<path d="M95.1614 32.432C95.07 32.6225 94.9414 32.7929 94.7832 32.933C94.625 33.0731 94.4403 33.1801 94.2401 33.2477C93.7121 33.4299 93.4085 32.9573 93.5325 32.4372C93.6434 31.9673 94.0605 31.3073 94.607 31.3548C94.727 31.3666 94.842 31.4082 94.9418 31.4759C95.0415 31.5436 95.1226 31.6352 95.1778 31.7423C95.2329 31.8495 95.2603 31.9687 95.2575 32.0892C95.2546 32.2097 95.2216 32.3275 95.1614 32.432Z" fill="#FFC3BD"/>
<path d="M93.897 55.099C93.897 55.099 96.0934 69.883 97.2973 75.427C98.6173 81.499 103.588 101.692 103.588 101.692H107.131C107.131 101.692 103.855 81.9821 103.1 75.9761C102.284 69.4606 100.574 55.1069 100.574 55.1069L93.897 55.099Z" fill="#4381CA"/>
<path opacity="0.2" d="M93.897 55.099C93.897 55.099 96.0934 69.883 97.2973 75.427C98.6173 81.499 103.588 101.692 103.588 101.692H107.131C107.131 101.692 103.855 81.9821 103.1 75.9761C102.284 69.4606 100.574 55.1069 100.574 55.1069L93.897 55.099Z" fill="white"/>
<path opacity="0.2" d="M96.5049 60.2682C96.3412 60.0358 96.1934 59.9566 96.0561 60.0042H96.027C95.9958 60.0178 95.9665 60.0356 95.9399 60.057C95.9118 60.0798 95.8862 60.1054 95.8633 60.1335L95.8211 60.1863L95.7657 60.2734C95.7198 60.3503 95.6801 60.4306 95.6469 60.5137C95.6257 60.5638 95.6046 60.6166 95.5862 60.6694C95.5677 60.7222 95.5386 60.8041 95.5175 60.878C95.4964 60.9519 95.4568 61.0786 95.4278 61.1869C95.4278 61.2159 95.4146 61.2423 95.4066 61.2714C95.3987 61.3004 95.3776 61.3928 95.3644 61.4535C95.3512 61.5142 95.3406 61.5591 95.3301 61.6119C95.3063 61.7149 95.2852 61.8231 95.2641 61.934C95.243 62.0449 95.2192 62.1742 95.1981 62.2983C95.1981 62.3406 95.1849 62.3828 95.1769 62.4277C95.1505 62.5861 95.1268 62.7471 95.103 62.9134C95.6891 66.5936 96.3861 70.8123 96.951 73.7559C96.9774 73.6609 97.0065 73.5606 97.0302 73.4523C97.1455 72.9612 97.2337 72.4642 97.2942 71.9634C97.7932 68.1697 97.5635 61.7809 96.5049 60.2682Z" fill="black"/>
<path d="M90.227 55.099C90.227 55.099 89.963 69.5609 90.1715 75.4613C90.3907 81.5967 92.5343 101.684 92.5343 101.684H95.8106C95.8106 101.684 95.9294 81.9531 96.0746 75.9286C96.233 69.3603 97.025 55.099 97.025 55.099H90.227Z" fill="#4381CA"/>
<path opacity="0.2" d="M90.227 55.099C90.227 55.099 89.963 69.5609 90.1715 75.4613C90.3907 81.5967 92.5343 101.684 92.5343 101.684H95.8106C95.8106 101.684 95.9294 81.9531 96.0746 75.9286C96.233 69.3603 97.025 55.099 97.025 55.099H90.227Z" fill="white"/>
<path d="M96.0271 100.681C96.0403 100.681 96.0271 101.751 96.0271 101.751H92.2492L92.0908 100.549L96.0271 100.681Z" fill="#263238"/>
<path d="M107.131 100.76C107.147 100.76 107.308 101.75 107.308 101.75H103.414L103.071 100.615L107.131 100.76Z" fill="#263238"/>
<path d="M104.185 104.414C104.053 104.425 103.922 104.39 103.813 104.317C103.777 104.288 103.75 104.25 103.733 104.208C103.716 104.165 103.711 104.119 103.718 104.074C103.718 104.047 103.725 104.021 103.739 103.999C103.752 103.976 103.771 103.957 103.794 103.944C104.008 103.836 104.634 104.208 104.705 104.261C104.712 104.266 104.718 104.274 104.721 104.282C104.724 104.291 104.725 104.3 104.723 104.309C104.722 104.318 104.718 104.326 104.712 104.332C104.706 104.339 104.698 104.344 104.689 104.346C104.524 104.387 104.355 104.41 104.185 104.414ZM103.897 104.016C103.877 104.011 103.856 104.011 103.836 104.016C103.827 104.021 103.82 104.029 103.814 104.038C103.809 104.047 103.807 104.058 103.807 104.068C103.803 104.099 103.807 104.131 103.818 104.16C103.829 104.189 103.847 104.214 103.871 104.235C104.086 104.335 104.332 104.348 104.557 104.272C104.356 104.145 104.132 104.058 103.897 104.016Z" fill="#4381CA"/>
<path d="M104.678 104.348C104.671 104.351 104.664 104.351 104.657 104.348C104.457 104.24 104.071 103.82 104.111 103.601C104.117 103.568 104.136 103.537 104.162 103.516C104.189 103.494 104.222 103.482 104.256 103.482C104.291 103.477 104.326 103.48 104.36 103.49C104.394 103.5 104.425 103.517 104.451 103.54C104.676 103.723 104.715 104.282 104.715 104.306C104.715 104.314 104.713 104.322 104.709 104.33C104.706 104.337 104.701 104.343 104.694 104.348C104.689 104.349 104.684 104.349 104.678 104.348ZM104.288 103.556H104.28C104.219 103.556 104.214 103.591 104.211 103.604C104.187 103.731 104.433 104.05 104.633 104.2C104.62 103.98 104.54 103.77 104.404 103.596C104.387 103.581 104.367 103.571 104.346 103.565C104.324 103.559 104.302 103.558 104.28 103.562L104.288 103.556Z" fill="#4381CA"/>
<path d="M92.5558 104.414C92.3902 104.43 92.2243 104.388 92.0859 104.295C92.0554 104.268 92.032 104.233 92.0173 104.195C92.0026 104.156 91.9972 104.115 92.0014 104.074C92.0014 104.049 92.0084 104.024 92.0214 104.003C92.0344 103.981 92.0531 103.964 92.0753 103.952C92.3103 103.82 93.0891 104.216 93.1762 104.261C93.185 104.265 93.1921 104.272 93.1965 104.281C93.2008 104.289 93.202 104.299 93.1999 104.309C93.1988 104.318 93.1946 104.327 93.1879 104.334C93.1812 104.34 93.1724 104.344 93.163 104.346C92.9633 104.388 92.7599 104.411 92.5558 104.414ZM92.2047 104.016C92.1757 104.014 92.1468 104.02 92.1202 104.031C92.1114 104.037 92.1041 104.044 92.099 104.053C92.0939 104.061 92.0912 104.071 92.0911 104.082C92.0874 104.108 92.0905 104.136 92.1002 104.161C92.1099 104.187 92.1258 104.209 92.1466 104.227C92.2654 104.332 92.5848 104.351 93.0125 104.28C92.7599 104.147 92.4868 104.058 92.2047 104.016Z" fill="#4381CA"/>
<path d="M93.1547 104.348H93.1362C92.9013 104.243 92.4393 103.82 92.4762 103.606C92.4762 103.556 92.5211 103.49 92.6452 103.48C92.6921 103.473 92.74 103.476 92.7855 103.489C92.8311 103.502 92.8733 103.525 92.9092 103.556C93.1547 103.759 93.2048 104.28 93.2075 104.303C93.2086 104.311 93.2075 104.319 93.2042 104.326C93.2009 104.333 93.1956 104.339 93.189 104.343C93.1786 104.349 93.1664 104.351 93.1547 104.348ZM92.6821 103.556H92.6637C92.5818 103.556 92.5765 103.596 92.5739 103.609C92.5528 103.738 92.8669 104.068 93.1019 104.211C93.0791 103.989 92.9867 103.78 92.8379 103.614C92.7929 103.581 92.7384 103.562 92.6821 103.561V103.556Z" fill="#4381CA"/>
</svg>
