<svg width="137" height="137" viewBox="0 0 137 137" fill="none" xmlns="http://www.w3.org/2000/svg">
<path d="M137 104.778H0V104.846H137V104.778Z" fill="#EBEBEB"/>
<path d="M35.7214 107.386H14.374V107.454H35.7214V107.386Z" fill="#EBEBEB"/>
<path d="M123.273 109.471H112.888V109.54H123.273V109.471Z" fill="#EBEBEB"/>
<path d="M41.2537 109.932H35.9956V110H41.2537V109.932Z" fill="#EBEBEB"/>
<path d="M67.2286 106.643H55.3945V106.712H67.2286V106.643Z" fill="#EBEBEB"/>
<path d="M71.4014 106.643H69.667V106.712H71.4014V106.643Z" fill="#EBEBEB"/>
<path d="M101.624 108.315H89.7817V108.383H101.624V108.315Z" fill="#EBEBEB"/>
<path d="M64.9382 92.5572H12.0315C11.6171 92.5564 11.2198 92.3913 10.927 92.0979C10.6342 91.8046 10.4697 91.4071 10.4697 90.9926V16.6208C10.4733 16.2087 10.6394 15.8147 10.9318 15.5243C11.2242 15.2339 11.6194 15.0707 12.0315 15.0699H64.9382C65.3531 15.0699 65.7511 15.2348 66.0445 15.5282C66.3379 15.8216 66.5027 16.2195 66.5027 16.6345V90.9926C66.5027 91.4076 66.3379 91.8055 66.0445 92.0989C65.7511 92.3923 65.3531 92.5572 64.9382 92.5572ZM12.0315 15.1247C11.6352 15.1255 11.2554 15.2834 10.9754 15.5639C10.6955 15.8444 10.5382 16.2245 10.5382 16.6208V90.9926C10.5382 91.3889 10.6955 91.769 10.9754 92.0495C11.2554 92.33 11.6352 92.4879 12.0315 92.4886H64.9382C65.3347 92.4879 65.7148 92.3301 65.9952 92.0497C66.2757 91.7693 66.4335 91.3892 66.4342 90.9926V16.6208C66.4335 16.2242 66.2757 15.8441 65.9952 15.5637C65.7148 15.2833 65.3347 15.1255 64.9382 15.1247H12.0315Z" fill="#EBEBEB"/>
<path d="M124.207 92.5572H71.2974C70.8827 92.5564 70.4852 92.3914 70.192 92.0981C69.8987 91.8049 69.7336 91.4073 69.7329 90.9926V16.6208C69.7372 16.2084 69.9039 15.8144 70.1968 15.5241C70.4896 15.2338 70.8851 15.0706 71.2974 15.0699H124.207C124.618 15.0714 125.013 15.235 125.305 15.5253C125.597 15.8156 125.762 16.2092 125.766 16.6208V90.9926C125.766 91.4066 125.602 91.8037 125.31 92.097C125.017 92.3902 124.621 92.5557 124.207 92.5572ZM71.2974 15.1247C70.9009 15.1255 70.5208 15.2833 70.2404 15.5637C69.96 15.8441 69.8021 16.2242 69.8014 16.6208V90.9926C69.8021 91.3892 69.96 91.7693 70.2404 92.0497C70.5208 92.3301 70.9009 92.4879 71.2974 92.4886H124.207C124.603 92.4879 124.984 92.3301 125.264 92.0497C125.544 91.7693 125.702 91.3892 125.703 90.9926V16.6208C125.702 16.2242 125.544 15.8441 125.264 15.5637C124.984 15.2833 124.603 15.1255 124.207 15.1247H71.2974Z" fill="#EBEBEB"/>
<path d="M36.4062 98.5139H22.9419C22.6516 98.5136 22.371 98.4088 22.1517 98.2186C21.9323 98.0284 21.7887 97.7656 21.7473 97.4782L18.3771 74.443C18.3518 74.2712 18.364 74.096 18.4126 73.9293C18.4612 73.7626 18.5452 73.6083 18.6589 73.477C18.7725 73.3457 18.9131 73.2404 19.0711 73.1683C19.2291 73.0962 19.4008 73.0591 19.5744 73.0593H33.036C33.3261 73.059 33.6066 73.1632 33.8261 73.353C34.0455 73.5427 34.1892 73.8052 34.2307 74.0923L37.6009 97.1302C37.6261 97.3018 37.614 97.4768 37.5655 97.6433C37.517 97.8098 37.4333 97.964 37.32 98.0952C37.2066 98.2265 37.0664 98.3318 36.9087 98.4041C36.751 98.4763 36.5797 98.5138 36.4062 98.5139Z" fill="#F0F0F0"/>
<path d="M24.5449 98.5139H18.1963C17.9058 98.5142 17.625 98.4095 17.4055 98.2192C17.186 98.029 17.0426 97.7658 17.0016 97.4782L13.6314 74.443C13.6063 74.2714 13.6183 74.0964 13.6668 73.9299C13.7153 73.7634 13.799 73.6093 13.9124 73.478C14.0257 73.3467 14.166 73.2414 14.3236 73.1692C14.4813 73.0969 14.6527 73.0595 14.8261 73.0593H21.1747C21.4649 73.0595 21.7455 73.1638 21.9652 73.3534C22.185 73.543 22.3294 73.8052 22.372 74.0923L25.7395 97.1302C25.7647 97.3018 25.7526 97.4768 25.7041 97.6433C25.6557 97.8098 25.5719 97.964 25.4586 98.0952C25.3452 98.2265 25.205 98.3318 25.0473 98.4041C24.8897 98.4763 24.7183 98.5138 24.5449 98.5139Z" fill="#FAFAFA"/>
<path d="M104.893 67.2203H39.4559C37.7927 67.2203 36.3323 68.467 36.1898 70.0042L34.5458 87.7895C34.4034 89.3267 35.6418 90.5734 37.2858 90.5734H102.717C104.38 90.5734 105.841 89.3267 105.983 87.7895L107.627 70.0042C107.786 68.467 106.556 67.2203 104.893 67.2203Z" fill="#E0E0E0"/>
<path d="M100.451 67.2203H35.0199C33.3567 67.2203 31.8963 68.467 31.7538 70.0042L30.1098 87.7895C29.9673 89.3267 31.2058 90.5734 32.8498 90.5734H98.281C99.9442 90.5734 101.407 89.3267 101.547 87.7895L103.191 70.0042C103.345 68.467 102.114 67.2203 100.451 67.2203Z" fill="#E6E6E6"/>
<path d="M55.3481 96.5438V90.209C55.3481 89.1209 54.4661 88.2389 53.3781 88.2389H28.7318C27.6437 88.2389 26.7617 89.1209 26.7617 90.209V96.5438C26.7617 97.6319 27.6437 98.5139 28.7318 98.5139H53.3781C54.4661 98.5139 55.3481 97.6319 55.3481 96.5438Z" fill="#EBEBEB"/>
<path d="M94.7656 96.711V90.0418C94.7656 89.0461 93.9584 88.2389 92.9627 88.2389H64.1982C63.2025 88.2389 62.3953 89.0461 62.3953 90.0418V96.711C62.3953 97.7067 63.2025 98.5139 64.1982 98.5139H92.9627C93.9584 98.5139 94.7656 97.7067 94.7656 96.711Z" fill="#E0E0E0"/>
<path d="M87.7158 96.7083V90.0391C87.7158 89.0434 86.9086 88.2362 85.9129 88.2362H57.1484C56.1527 88.2362 55.3455 89.0434 55.3455 90.0391V96.7083C55.3455 97.704 56.1527 98.5112 57.1484 98.5112H85.9129C86.9086 98.5112 87.7158 97.704 87.7158 96.7083Z" fill="#EBEBEB"/>
<path d="M104.714 98.5139H94.6997C94.5311 98.5177 94.3641 98.4809 94.2127 98.4066C94.0613 98.3323 93.93 98.2227 93.8298 98.0871C93.7297 97.9515 93.6636 97.7937 93.6371 97.6272C93.6106 97.4607 93.6245 97.2902 93.6777 97.1302L99.9797 74.0923C100.062 73.8011 100.236 73.5438 100.475 73.3581C100.714 73.1723 101.006 73.0676 101.309 73.0593H111.323C111.492 73.056 111.658 73.0931 111.809 73.1675C111.96 73.242 112.091 73.3516 112.191 73.4872C112.291 73.6228 112.357 73.7804 112.383 73.9467C112.41 74.113 112.396 74.2832 112.343 74.443L106.041 97.4782C105.959 97.7699 105.787 98.0279 105.548 98.2143C105.309 98.4007 105.017 98.5057 104.714 98.5139Z" fill="#F0F0F0"/>
<path d="M96.2999 98.5139H89.9514C89.783 98.5173 89.6163 98.4801 89.4653 98.4057C89.3143 98.3312 89.1833 98.2216 89.0834 98.086C88.9836 97.9504 88.9177 97.7929 88.8914 97.6266C88.865 97.4602 88.879 97.29 88.9321 97.1302L95.2341 74.0923C95.3164 73.8009 95.4898 73.5434 95.7289 73.3576C95.968 73.1717 96.2603 73.0672 96.563 73.0593H102.914C103.083 73.0556 103.25 73.0924 103.401 73.1666C103.553 73.2409 103.684 73.3505 103.784 73.4861C103.884 73.6218 103.95 73.7795 103.977 73.946C104.003 74.1126 103.99 74.283 103.936 74.443L97.6343 97.4782C97.5518 97.7708 97.3777 98.0293 97.1376 98.2157C96.8974 98.4021 96.6039 98.5066 96.2999 98.5139Z" fill="#FAFAFA"/>
<path d="M90.9901 104.778H90.0256L87.7158 98.5139H90.1051L90.9901 104.778Z" fill="#E0E0E0"/>
<path d="M103.216 104.778H102.251L99.9414 98.5139H102.328L103.216 104.778Z" fill="#E0E0E0"/>
<path d="M33.7212 104.778H34.6857L36.9927 98.5139H34.6062L33.7212 104.778Z" fill="#E0E0E0"/>
<path d="M21.4951 104.778H22.4596L24.7667 98.5139H22.3829L21.4951 104.778Z" fill="#E0E0E0"/>
<path d="M105.033 26.7615H31.9678V52.8216H105.033V26.7615Z" fill="#E0E0E0"/>
<path d="M104.361 26.7615H31.2964V52.8216H104.361V26.7615Z" fill="#F0F0F0"/>
<path d="M102.172 50.6296V28.9535L33.491 28.9535V50.6296H102.172Z" fill="#FAFAFA"/>
<path d="M67.8313 46.2895C71.4208 46.2895 74.3306 43.3796 74.3306 39.7902C74.3306 36.2007 71.4208 33.2909 67.8313 33.2909C64.2419 33.2909 61.332 36.2007 61.332 39.7902C61.332 43.3796 64.2419 46.2895 67.8313 46.2895Z" fill="#F0F0F0"/>
<path d="M44.6372 50.6296L49.1911 28.9535H59.2359L54.6848 50.6296H44.6372Z" fill="white"/>
<path d="M58.9238 50.6296L63.4777 28.9535H68.5001L63.949 50.6296H58.9238Z" fill="white"/>
<path d="M89.5952 50.6296L94.1491 28.9535H99.1715L94.6204 50.6296H89.5952Z" fill="white"/>
<path d="M121.185 68.9822C119.48 76.3802 123.651 84.0029 121.944 91.3899L120.256 91.3187L118.568 91.2502C121.398 83.907 118.368 76.3226 121.185 68.9822Z" fill="#F0F0F0"/>
<path d="M116.814 72.1853C118.212 79.249 113.729 86.3127 115.127 93.3765H118.505C115.981 86.31 119.338 79.249 116.814 72.1853Z" fill="#F0F0F0"/>
<path d="M119.935 66.308C117.699 73.8402 121.853 81.9698 119.617 89.5021L117.782 89.3295L115.946 89.1596C119.406 81.7451 116.475 73.7306 119.935 66.308Z" fill="#E6E6E6"/>
<path d="M123.226 77.1611C123.947 81.2328 119.938 84.4358 120.648 88.5102L122.018 88.7596L123.388 89.0089C121.744 84.7701 124.853 81.3999 123.226 77.1611Z" fill="#E6E6E6"/>
<path d="M119.196 106.833C124.288 106.833 128.416 102.21 128.416 96.5083C128.416 90.8063 124.288 86.184 119.196 86.184C114.104 86.184 109.976 90.8063 109.976 96.5083C109.976 102.21 114.104 106.833 119.196 106.833Z" fill="#E0E0E0"/>
<path d="M68.4999 117.151C97.8405 117.151 121.626 115.763 121.626 114.05C121.626 112.337 97.8405 110.948 68.4999 110.948C39.1593 110.948 15.374 112.337 15.374 114.05C15.374 115.763 39.1593 117.151 68.4999 117.151Z" fill="#F5F5F5"/>
<path d="M105.161 75.2377H45.9499C45.8005 75.238 45.6526 75.2077 45.5154 75.1487C45.3781 75.0897 45.2544 75.0033 45.1517 74.8948C45.0491 74.7862 44.9697 74.6578 44.9185 74.5175C44.8673 74.3772 44.8453 74.2279 44.8539 74.0787L46.8541 37.7765C46.8754 37.4648 47.0132 37.1725 47.2401 36.9578C47.467 36.743 47.7665 36.6215 48.0788 36.6174H107.29C107.44 36.6172 107.588 36.6475 107.725 36.7065C107.862 36.7654 107.986 36.8518 108.088 36.9604C108.191 37.0689 108.27 37.1973 108.322 37.3377C108.373 37.478 108.395 37.6273 108.386 37.7765L106.392 74.0787C106.371 74.3918 106.233 74.6856 106.005 74.9007C105.776 75.1159 105.475 75.2363 105.161 75.2377Z" fill="#263238"/>
<path d="M80.2521 42.7906H74.5283C74.0797 42.7961 73.6348 42.7088 73.2216 42.5342C72.8083 42.3596 72.4357 42.1014 72.1269 41.776C71.8182 41.4505 71.5801 41.0647 71.4275 40.6429C71.2749 40.221 71.2111 39.7722 71.2403 39.3245L71.2978 38.2669C71.359 37.3643 71.7578 36.5178 72.4147 35.8958C73.0717 35.2739 73.9388 34.9221 74.8434 34.9104H80.5645C81.0129 34.9053 81.4576 34.9929 81.8707 35.1676C82.2837 35.3424 82.6562 35.6005 82.9649 35.9259C83.2735 36.2513 83.5117 36.6369 83.6644 37.0585C83.8172 37.4802 83.8812 37.9289 83.8525 38.3765L83.7949 39.4341C83.7325 40.3358 83.3338 41.1812 82.6777 41.8028C82.0215 42.4244 81.1559 42.777 80.2521 42.7906Z" fill="#263238"/>
<path d="M85.4634 112.904H83.6304L78.5806 35.7186H80.4164L85.4634 112.904Z" fill="#263238"/>
<path d="M71.6978 112.904H73.5335L78.5806 35.7186H76.7476L71.6978 112.904Z" fill="#263238"/>
<path d="M104.846 75.2377H45.6349C45.4855 75.238 45.3377 75.2077 45.2004 75.1487C45.0632 75.0897 44.9394 75.0033 44.8368 74.8948C44.7341 74.7862 44.6548 74.6578 44.6035 74.5175C44.5523 74.3772 44.5303 74.2279 44.5389 74.0787L46.5309 37.7765C46.5522 37.4648 46.69 37.1725 46.9169 36.9578C47.1439 36.743 47.4433 36.6215 47.7557 36.6174H106.967C107.116 36.6172 107.264 36.6475 107.402 36.7065C107.539 36.7654 107.663 36.8518 107.765 36.9604C107.868 37.0689 107.947 37.1973 107.998 37.3377C108.05 37.478 108.072 37.6273 108.063 37.7765L106.068 74.0787C106.048 74.3904 105.911 74.683 105.685 74.8979C105.458 75.1129 105.159 75.2342 104.846 75.2377Z" fill="#4381CA"/>
<path opacity="0.4" d="M46.5804 74.1252C46.4606 74.1266 46.3419 74.1032 46.2316 74.0565C46.1213 74.0098 46.0218 73.9408 45.9395 73.8539C45.8572 73.7669 45.7937 73.6638 45.7531 73.5511C45.7125 73.4385 45.6956 73.3186 45.7036 73.1991L47.6024 38.6559C47.6183 38.407 47.7276 38.1733 47.9085 38.0015C48.0894 37.8298 48.3284 37.7327 48.5778 37.7298H106.038C106.158 37.7284 106.277 37.7518 106.387 37.7985C106.497 37.8452 106.597 37.9142 106.679 38.0012C106.762 38.0881 106.825 38.1912 106.866 38.3039C106.906 38.4166 106.923 38.5364 106.915 38.6559L105.016 73.1991C105 73.4485 104.891 73.6826 104.709 73.8544C104.528 74.0262 104.288 74.123 104.038 74.1252H46.5804Z" fill="#263238"/>
<path opacity="0.1" d="M104.394 55.8166H87.0913C86.9895 55.8179 86.8886 55.7982 86.7948 55.7586C86.701 55.719 86.6165 55.6605 86.5465 55.5866C86.4765 55.5127 86.4225 55.4251 86.388 55.3294C86.3535 55.2336 86.3392 55.1317 86.346 55.0302L87.2091 39.3053C87.2099 39.2911 87.2077 39.2768 87.2029 39.2634C87.198 39.25 87.1905 39.2377 87.1808 39.2272C87.1711 39.2167 87.1594 39.2083 87.1464 39.2024C87.1333 39.1965 87.1193 39.1933 87.105 39.193C87.0749 39.1936 87.0461 39.2055 87.0243 39.2263C87.0025 39.2471 86.9892 39.2753 86.9872 39.3053L86.1241 55.0302C86.1098 55.2402 86.0176 55.4372 85.8655 55.5827C85.7134 55.7282 85.5125 55.8116 85.3021 55.8166H67.3222C67.2204 55.8179 67.1195 55.7982 67.0257 55.7586C66.9319 55.719 66.8474 55.6605 66.7774 55.5866C66.7073 55.5127 66.6534 55.4251 66.6189 55.3294C66.5844 55.2336 66.5701 55.1317 66.5769 55.0302L67.44 39.3053C67.4408 39.2911 67.4386 39.2768 67.4338 39.2634C67.4289 39.25 67.4214 39.2377 67.4117 39.2272C67.402 39.2167 67.3903 39.2083 67.3773 39.2024C67.3642 39.1965 67.3502 39.1933 67.3359 39.193C67.3058 39.1936 67.277 39.2055 67.2552 39.2263C67.2334 39.2471 67.2201 39.2753 67.2181 39.3053L66.355 55.0302C66.3407 55.2402 66.2485 55.4372 66.0964 55.5827C65.9443 55.7282 65.7434 55.8116 65.533 55.8166H48.2244C48.1941 55.8165 48.1649 55.8282 48.143 55.8491C48.121 55.87 48.108 55.8986 48.1066 55.9289C48.1058 55.943 48.108 55.9572 48.1129 55.9704C48.1178 55.9837 48.1253 55.9958 48.1351 56.0061C48.1448 56.0164 48.1566 56.0245 48.1696 56.0301C48.1826 56.0357 48.1966 56.0385 48.2107 56.0385H65.5056C65.6075 56.0375 65.7085 56.0576 65.8023 56.0975C65.8961 56.1374 65.9806 56.1962 66.0506 56.2703C66.1205 56.3444 66.1744 56.4322 66.2089 56.5281C66.2434 56.624 66.2577 56.726 66.2509 56.8276L65.3878 72.5498C65.3862 72.5642 65.3877 72.5788 65.3923 72.5926C65.3969 72.6064 65.4043 72.619 65.4142 72.6297C65.4241 72.6403 65.4361 72.6487 65.4495 72.6543C65.4629 72.6599 65.4774 72.6626 65.4919 72.6621C65.522 72.6615 65.5508 72.6496 65.5726 72.6288C65.5944 72.608 65.6077 72.5798 65.6097 72.5498L66.4728 56.8276C66.4858 56.617 66.5776 56.4189 66.7298 56.2727C66.8821 56.1265 67.0838 56.0429 67.2948 56.0385H85.2665C85.3704 56.034 85.4741 56.0515 85.5709 56.0899C85.6676 56.1282 85.7552 56.1865 85.8278 56.261C85.9005 56.3355 85.9566 56.4244 85.9926 56.5221C86.0285 56.6197 86.0434 56.7238 86.0364 56.8276L85.1733 72.5498C85.1717 72.5642 85.1733 72.5788 85.1778 72.5926C85.1824 72.6064 85.1899 72.619 85.1997 72.6297C85.2096 72.6403 85.2217 72.6487 85.2351 72.6543C85.2485 72.6599 85.2629 72.6626 85.2774 72.6621C85.3076 72.6615 85.3364 72.6496 85.3582 72.6288C85.38 72.608 85.3932 72.5798 85.3953 72.5498L86.2584 56.8276C86.2714 56.617 86.3631 56.4189 86.5154 56.2727C86.6677 56.1265 86.8693 56.0429 87.0804 56.0385H104.375C104.405 56.038 104.433 56.0265 104.455 56.0062C104.477 55.986 104.49 55.9585 104.493 55.9289C104.494 55.915 104.492 55.901 104.488 55.8878C104.484 55.8746 104.477 55.8623 104.468 55.8519C104.458 55.8414 104.447 55.8329 104.435 55.8268C104.422 55.8207 104.408 55.8173 104.394 55.8166Z" fill="white"/>
<path opacity="0.4" d="M76.1861 42.0426H69.2402L68.8511 49.1091L75.7888 49.2954L76.1861 42.0426Z" fill="#263238"/>
<path d="M75.4352 48.9912L68.4619 48.6514C68.846 46.2649 69.0885 43.8577 69.188 41.4425L76.1997 41.7823C76.0873 44.1982 75.8321 46.6054 75.4352 48.9912Z" fill="white"/>
<path opacity="0.4" d="M84.5623 46.7635L77.6055 47.2951L77.7589 54.3369L84.7185 53.9917L84.5623 46.7635Z" fill="#263238"/>
<path d="M84.34 53.7178L77.3311 53.9123C77.5329 51.514 77.5915 49.1059 77.5064 46.7006L84.5537 46.5006C84.626 48.9084 84.5546 51.3184 84.34 53.7178Z" fill="#4381CA"/>
<path opacity="0.4" d="M64.2477 59.6115L51.4245 59.1238L50.271 70.5304L63.0668 71.3195L64.2477 59.6115Z" fill="#263238"/>
<path d="M62.4284 70.8044L49.5942 69.7604C50.4472 65.9321 51.0422 62.0508 51.3752 58.1428L64.2861 59.184C63.9299 63.095 63.3093 66.9773 62.4284 70.8044Z" fill="white"/>
<g style="mix-blend-mode:multiply" opacity="0.3">
<path d="M51.049 43.6399C50.9556 43.6405 50.8631 43.6218 50.7772 43.5852C50.6913 43.5485 50.6139 43.4946 50.5497 43.4268C50.4854 43.359 50.4358 43.2787 50.4039 43.1909C50.372 43.1032 50.3584 43.0098 50.364 42.9166C50.3784 42.7227 50.4648 42.5411 50.6063 42.4078C50.7478 42.2744 50.9341 42.1988 51.1285 42.1959C51.2218 42.1954 51.3142 42.214 51.3999 42.2507C51.4857 42.2874 51.563 42.3413 51.627 42.4092C51.691 42.4771 51.7403 42.5574 51.7719 42.6451C51.8036 42.7329 51.8168 42.8262 51.8108 42.9193C51.7971 43.113 51.7112 43.2944 51.5702 43.4279C51.4291 43.5613 51.2432 43.637 51.049 43.6399Z" fill="#263238"/>
<path opacity="0.8" d="M62.3788 43.64H53.482C53.3887 43.6405 53.2963 43.6219 53.2106 43.5852C53.1248 43.5485 53.0475 43.4946 52.9835 43.4267C52.9195 43.3588 52.8702 43.2785 52.8386 43.1908C52.8069 43.103 52.7937 43.0097 52.7998 42.9166C52.8122 42.7222 52.8975 42.5397 53.0388 42.4056C53.18 42.2714 53.3667 42.1956 53.5615 42.1932H62.472C62.5653 42.1927 62.6579 42.2113 62.7438 42.248C62.8296 42.2847 62.9071 42.3386 62.9713 42.4064C63.0355 42.4742 63.0852 42.5545 63.1171 42.6422C63.149 42.73 63.1626 42.8234 63.157 42.9166C63.1431 43.1133 63.055 43.2975 62.9105 43.4318C62.7661 43.566 62.576 43.6405 62.3788 43.64Z" fill="#263238"/>
<path d="M50.8764 46.7937C50.7829 46.7946 50.6902 46.7762 50.6041 46.7397C50.518 46.7032 50.4404 46.6493 50.3761 46.5814C50.3118 46.5135 50.2622 46.4331 50.2304 46.3451C50.1986 46.2572 50.1853 46.1636 50.1914 46.0703C50.2045 45.8743 50.2917 45.6906 50.4351 45.5563C50.5785 45.422 50.7676 45.3472 50.964 45.3469C51.0573 45.3464 51.1497 45.365 51.2355 45.4017C51.3212 45.4384 51.3985 45.4923 51.4625 45.5602C51.5265 45.6281 51.5759 45.7084 51.6075 45.7961C51.6391 45.8839 51.6523 45.9772 51.6463 46.0703C51.6331 46.2659 51.5464 46.4492 51.4036 46.5834C51.2607 46.7176 51.0724 46.7927 50.8764 46.7937Z" fill="#263238"/>
<path opacity="0.8" d="M63.7816 46.7937H53.3093C53.2159 46.7942 53.1234 46.7756 53.0375 46.7389C52.9516 46.7022 52.8741 46.6483 52.8099 46.5805C52.7457 46.5127 52.6961 46.4324 52.6642 46.3447C52.6322 46.2569 52.6187 46.1635 52.6243 46.0703C52.638 45.8759 52.7241 45.6937 52.8657 45.5598C53.0072 45.4258 53.1939 45.3499 53.3887 45.3469H63.861C63.9544 45.3464 64.0469 45.365 64.1328 45.4017C64.2187 45.4383 64.2962 45.4923 64.3604 45.5601C64.4246 45.6279 64.4742 45.7082 64.5062 45.7959C64.5381 45.8837 64.5517 45.9771 64.546 46.0703C64.5323 46.2647 64.4462 46.4469 64.3046 46.5808C64.1631 46.7148 63.9764 46.7907 63.7816 46.7937Z" fill="#263238"/>
<path d="M50.69 49.9447C50.5969 49.9457 50.5045 49.9274 50.4188 49.891C50.333 49.8546 50.2557 49.8009 50.1917 49.7333C50.1276 49.6657 50.0782 49.5855 50.0466 49.4979C50.015 49.4103 50.0017 49.3171 50.0078 49.2241C50.0202 49.0297 50.1056 48.8472 50.2468 48.7131C50.388 48.579 50.5747 48.5031 50.7695 48.5008C50.863 48.4998 50.9557 48.5182 51.0418 48.5547C51.1279 48.5912 51.2055 48.6451 51.2698 48.713C51.3341 48.7809 51.3837 48.8614 51.4155 48.9493C51.4472 49.0373 51.4605 49.1308 51.4545 49.2241C51.4408 49.4183 51.3545 49.6001 51.2129 49.7336C51.0713 49.8671 50.8846 49.9425 50.69 49.9447Z" fill="#263238"/>
<path opacity="0.8" d="M58.2335 49.9448H53.1344C53.0412 49.9457 52.9489 49.9274 52.8631 49.891C52.7774 49.8546 52.7001 49.8009 52.636 49.7333C52.572 49.6657 52.5226 49.5855 52.4909 49.4979C52.4593 49.4103 52.4461 49.3171 52.4521 49.2241C52.4645 49.0297 52.5499 48.8472 52.6911 48.7131C52.8324 48.579 53.0191 48.5031 53.2138 48.5008H58.313C58.4064 48.4998 58.499 48.5182 58.5849 48.5547C58.6709 48.5913 58.7483 48.6452 58.8124 48.7132C58.8765 48.7811 58.9258 48.8616 58.9573 48.9495C58.9887 49.0375 59.0017 49.131 58.9952 49.2241C58.9821 49.418 58.8965 49.5999 58.7553 49.7334C58.6141 49.867 58.4278 49.9424 58.2335 49.9448Z" fill="#263238"/>
<path opacity="0.8" d="M62.9542 53.0985H57.8551C57.7618 53.099 57.6694 53.0804 57.5836 53.0437C57.4979 53.007 57.4206 52.9531 57.3566 52.8852C57.2926 52.8173 57.2432 52.737 57.2116 52.6493C57.18 52.5615 57.1668 52.4682 57.1728 52.3751C57.1858 52.1809 57.2714 51.9988 57.4125 51.8648C57.5536 51.7308 57.74 51.6547 57.9345 51.6517H63.0337C63.1269 51.6512 63.2193 51.6698 63.3051 51.7065C63.3909 51.7432 63.4681 51.7972 63.5321 51.865C63.5962 51.9329 63.6455 52.0132 63.6771 52.1009C63.7087 52.1887 63.7219 52.282 63.7159 52.3751C63.7029 52.5693 63.6173 52.7514 63.4762 52.8854C63.3351 53.0194 63.1488 53.0955 62.9542 53.0985Z" fill="#263238"/>
<path d="M50.5284 53.0985C50.4351 53.099 50.3427 53.0804 50.257 53.0437C50.1712 53.007 50.0939 52.9531 50.0299 52.8852C49.9659 52.8173 49.9166 52.737 49.885 52.6493C49.8533 52.5615 49.8401 52.4682 49.8461 52.3751C49.8592 52.1809 49.9447 51.9988 50.0859 51.8648C50.227 51.7308 50.4133 51.6547 50.6079 51.6517C50.7011 51.6512 50.7935 51.6698 50.8793 51.7065C50.9651 51.7432 51.0423 51.7972 51.1064 51.865C51.1704 51.9329 51.2197 52.0132 51.2513 52.1009C51.2829 52.1887 51.2961 52.282 51.2901 52.3751C51.2771 52.5693 51.1915 52.7514 51.0504 52.8854C50.9093 53.0194 50.723 53.0955 50.5284 53.0985Z" fill="#263238"/>
<path opacity="0.8" d="M55.3152 53.0985H52.9615C52.8682 53.0991 52.7758 53.0804 52.6901 53.0437C52.6043 53.007 52.527 52.9531 52.463 52.8852C52.399 52.8174 52.3497 52.7371 52.3181 52.6493C52.2864 52.5615 52.2732 52.4682 52.2792 52.3751C52.2923 52.181 52.3779 51.9988 52.519 51.8648C52.6601 51.7308 52.8464 51.6548 53.041 51.6518H55.3946C55.4881 51.6508 55.5808 51.6692 55.6669 51.7057C55.753 51.7422 55.8306 51.7961 55.8949 51.864C55.9592 51.9319 56.0088 52.0124 56.0406 52.1003C56.0724 52.1883 56.0857 52.2818 56.0796 52.3751C56.0665 52.5697 55.9806 52.7523 55.8389 52.8864C55.6972 53.0204 55.5102 53.0962 55.3152 53.0985Z" fill="#263238"/>
</g>
<path d="M72.6488 62.4802H69.1991L68.7251 71.114H72.1748L72.6488 62.4802Z" fill="#4381CA"/>
<path d="M77.8849 64.2612H74.4325L74.0571 71.114H77.5068L77.8849 64.2612Z" fill="#4381CA"/>
<path d="M83.4663 59.6636H80.0166L79.3892 71.114H82.8388L83.4663 59.6636Z" fill="#4381CA"/>
<path d="M69.9687 67.3519C69.6262 67.3519 69.281 67.3519 68.933 67.3245C68.2171 67.3125 67.5095 67.1695 66.8451 66.9026C66.7912 66.878 66.749 66.8332 66.728 66.7778C66.707 66.7223 66.7087 66.6608 66.7328 66.6067C66.7449 66.5799 66.7622 66.5559 66.7837 66.5358C66.8051 66.5158 66.8304 66.5003 66.8579 66.4901C66.8854 66.4799 66.9147 66.4753 66.944 66.4765C66.9733 66.4777 67.0021 66.4847 67.0287 66.4971C67.6399 66.7389 68.2895 66.8688 68.9467 66.8807C73.0869 67.0944 76.7119 66.0148 80.3616 63.4885C81.5003 62.697 82.5026 61.7253 83.329 60.6115C83.3447 60.5857 83.3655 60.5633 83.3902 60.5458C83.4148 60.5283 83.4428 60.516 83.4724 60.5097C83.502 60.5034 83.5326 60.5033 83.5622 60.5092C83.5919 60.5151 83.62 60.5271 83.6449 60.5443C83.6697 60.5615 83.6908 60.5836 83.7069 60.6093C83.7229 60.6349 83.7335 60.6636 83.738 60.6935C83.7426 60.7234 83.741 60.7539 83.7333 60.7832C83.7256 60.8124 83.712 60.8398 83.6934 60.8636C82.8428 62.0207 81.8046 63.0274 80.6218 63.842C77.1968 66.2285 73.7856 67.3519 69.9687 67.3519Z" fill="white"/>
<path d="M84.217 62.3158C84.1805 62.3159 84.1445 62.307 84.1122 62.2898C84.08 62.2726 84.0525 62.2477 84.0321 62.2174C84.0118 62.187 83.9993 62.1521 83.9957 62.1158C83.9921 62.0794 83.9975 62.0427 84.0115 62.009C84.325 61.2496 84.3921 60.411 84.2033 59.6115C83.3381 60.1941 82.4142 60.6845 81.4469 61.0746C81.4197 61.0866 81.3904 61.093 81.3607 61.0935C81.331 61.094 81.3015 61.0885 81.274 61.0773C81.2464 61.0662 81.2214 61.0497 81.2004 61.0287C81.1794 61.0077 81.1628 60.9827 81.1516 60.9552C81.1404 60.9277 81.1349 60.8982 81.1353 60.8685C81.1357 60.8388 81.1421 60.8095 81.154 60.7823C81.166 60.7551 81.1832 60.7306 81.2048 60.7102C81.2264 60.6898 81.2519 60.674 81.2797 60.6636C82.312 60.2466 83.2929 59.7124 84.2033 59.0717C84.2318 59.0526 84.2643 59.0403 84.2982 59.0357C84.3322 59.0311 84.3668 59.0344 84.3993 59.0452C84.4319 59.0561 84.4615 59.0742 84.4859 59.0983C84.5104 59.1223 84.529 59.1517 84.5403 59.184C84.8591 60.1644 84.8173 61.2265 84.4225 62.1788C84.4057 62.2195 84.3771 62.2542 84.3406 62.2786C84.304 62.303 84.261 62.3159 84.217 62.3158Z" fill="white"/>
<path d="M102.386 53.8054H89.5516C89.4455 53.8064 89.3403 53.7854 89.2427 53.7438C89.1451 53.7023 89.0571 53.641 88.9843 53.5638C88.9115 53.4866 88.8554 53.3952 88.8196 53.2953C88.7838 53.1954 88.769 53.0892 88.7762 52.9834L89.3735 42.133C89.3879 41.9165 89.4834 41.7134 89.6408 41.5642C89.7982 41.4149 90.006 41.3304 90.2229 41.3274H103.06C103.166 41.3268 103.271 41.348 103.368 41.3897C103.465 41.4315 103.553 41.4928 103.625 41.57C103.698 41.6471 103.754 41.7384 103.789 41.8381C103.825 41.9378 103.84 42.0438 103.832 42.1494L103.235 52.9998C103.221 53.2163 103.125 53.4193 102.968 53.5686C102.811 53.7179 102.603 53.8024 102.386 53.8054ZM90.2229 41.5521C90.0622 41.5539 89.9081 41.6165 89.7917 41.7273C89.6752 41.8381 89.6051 41.989 89.5954 42.1494L88.9981 52.9998C88.9932 53.0747 89.0038 53.1498 89.0291 53.2205C89.0545 53.2911 89.0941 53.3558 89.1455 53.4105C89.1969 53.4653 89.2589 53.5088 89.3278 53.5386C89.3968 53.5683 89.4711 53.5836 89.5461 53.5834H102.38C102.541 53.5816 102.695 53.519 102.812 53.4082C102.928 53.2974 102.998 53.1466 103.008 52.9861L103.605 42.1357C103.61 42.0603 103.6 41.9846 103.574 41.9134C103.549 41.8422 103.509 41.777 103.457 41.722C103.405 41.6675 103.343 41.6244 103.273 41.5951C103.204 41.5659 103.13 41.5512 103.054 41.5521H90.2229Z" fill="#4381CA"/>
<path d="M103.6 44.4428H89.3517C89.3252 44.4386 89.3012 44.4252 89.2838 44.4048C89.2664 44.3845 89.2568 44.3586 89.2568 44.3318C89.2568 44.3051 89.2664 44.2792 89.2838 44.2588C89.3012 44.2385 89.3252 44.225 89.3517 44.2209H103.6C103.616 44.2183 103.632 44.2193 103.648 44.2237C103.663 44.2281 103.678 44.2359 103.69 44.2464C103.703 44.257 103.712 44.2701 103.719 44.2848C103.726 44.2996 103.73 44.3156 103.73 44.3318C103.73 44.3481 103.726 44.3641 103.719 44.3788C103.712 44.3936 103.703 44.4067 103.69 44.4172C103.678 44.4278 103.663 44.4355 103.648 44.4399C103.632 44.4443 103.616 44.4453 103.6 44.4428Z" fill="#4381CA"/>
<path d="M92.2122 53.8054C92.1829 53.8033 92.1555 53.7898 92.1361 53.7678C92.1166 53.7457 92.1065 53.717 92.1081 53.6876L92.6122 44.325C92.6129 44.3104 92.6165 44.296 92.6229 44.2828C92.6292 44.2696 92.6381 44.2578 92.6491 44.2481C92.6601 44.2383 92.6729 44.2309 92.6868 44.2263C92.7007 44.2216 92.7154 44.2198 92.73 44.2209C92.7594 44.223 92.7867 44.2365 92.8061 44.2586C92.8256 44.2806 92.8357 44.3094 92.8342 44.3387L92.3218 53.704C92.3191 53.7314 92.3065 53.7569 92.2863 53.7756C92.2661 53.7943 92.2397 53.8049 92.2122 53.8054Z" fill="#4381CA"/>
<path d="M101.969 45.5552H94.2399C94.2134 45.5511 94.1894 45.5376 94.172 45.5172C94.1546 45.4969 94.145 45.471 94.145 45.4442C94.145 45.4175 94.1546 45.3916 94.172 45.3713C94.1894 45.3509 94.2134 45.3374 94.2399 45.3333H101.969C101.985 45.3308 102.002 45.3317 102.017 45.3361C102.033 45.3406 102.048 45.3483 102.06 45.3589C102.072 45.3694 102.082 45.3825 102.089 45.3972C102.096 45.412 102.099 45.428 102.099 45.4442C102.099 45.4605 102.096 45.4765 102.089 45.4913C102.082 45.506 102.072 45.5191 102.06 45.5296C102.048 45.5402 102.033 45.5479 102.017 45.5524C102.002 45.5568 101.985 45.5577 101.969 45.5552Z" fill="#4381CA"/>
<path d="M100.805 46.9198H94.166C94.1499 46.9224 94.1335 46.9214 94.1179 46.917C94.1023 46.9126 94.0878 46.9048 94.0755 46.8943C94.0631 46.8837 94.0532 46.8706 94.0464 46.8559C94.0397 46.8411 94.0361 46.8251 94.0361 46.8089C94.0361 46.7926 94.0397 46.7766 94.0464 46.7619C94.0532 46.7471 94.0631 46.734 94.0755 46.7235C94.0878 46.7129 94.1023 46.7052 94.1179 46.7008C94.1335 46.6964 94.1499 46.6954 94.166 46.6979H100.805C100.821 46.6954 100.837 46.6964 100.853 46.7008C100.869 46.7052 100.883 46.7129 100.895 46.7235C100.908 46.734 100.918 46.7471 100.925 46.7619C100.931 46.7766 100.935 46.7926 100.935 46.8089C100.935 46.8251 100.931 46.8411 100.925 46.8559C100.918 46.8706 100.908 46.8837 100.895 46.8943C100.883 46.9048 100.869 46.9126 100.853 46.917C100.837 46.9214 100.821 46.9224 100.805 46.9198Z" fill="#4381CA"/>
<path d="M97.9527 48.3282H94.0893C94.0733 48.3307 94.0569 48.3297 94.0413 48.3253C94.0256 48.3209 94.0112 48.3131 93.9988 48.3026C93.9865 48.292 93.9766 48.279 93.9698 48.2642C93.963 48.2495 93.9595 48.2334 93.9595 48.2172C93.9595 48.201 93.963 48.1849 93.9698 48.1702C93.9766 48.1554 93.9865 48.1423 93.9988 48.1318C94.0112 48.1213 94.0256 48.1135 94.0413 48.1091C94.0569 48.1047 94.0733 48.1037 94.0893 48.1062H97.9527C97.9687 48.1037 97.9851 48.1047 98.0007 48.1091C98.0164 48.1135 98.0308 48.1213 98.0432 48.1318C98.0555 48.1423 98.0654 48.1554 98.0722 48.1702C98.079 48.1849 98.0825 48.201 98.0825 48.2172C98.0825 48.2334 98.079 48.2495 98.0722 48.2642C98.0654 48.279 98.0555 48.292 98.0432 48.3026C98.0308 48.3131 98.0164 48.3209 98.0007 48.3253C97.9851 48.3297 97.9687 48.3307 97.9527 48.3282Z" fill="#4381CA"/>
<path d="M98.654 51.0791H93.9384C93.9224 51.0817 93.906 51.0807 93.8904 51.0763C93.8748 51.0719 93.8603 51.0641 93.8479 51.0536C93.8356 51.043 93.8257 51.0299 93.8189 51.0152C93.8121 51.0004 93.8086 50.9844 93.8086 50.9682C93.8086 50.9519 93.8121 50.9359 93.8189 50.9212C93.8257 50.9064 93.8356 50.8933 93.8479 50.8828C93.8603 50.8722 93.8748 50.8645 93.8904 50.8601C93.906 50.8557 93.9224 50.8547 93.9384 50.8572H98.654C98.67 50.8547 98.6864 50.8557 98.702 50.8601C98.7176 50.8645 98.7321 50.8722 98.7444 50.8828C98.7568 50.8933 98.7667 50.9064 98.7735 50.9212C98.7803 50.9359 98.7838 50.9519 98.7838 50.9682C98.7838 50.9844 98.7803 51.0004 98.7735 51.0152C98.7667 51.0299 98.7568 51.043 98.7444 51.0536C98.7321 51.0641 98.7176 51.0719 98.702 51.0763C98.6864 51.0807 98.67 51.0817 98.654 51.0791Z" fill="#4381CA"/>
<path d="M97.7252 52.4874H93.859C93.8326 52.4833 93.8085 52.4698 93.7911 52.4495C93.7737 52.4291 93.7642 52.4032 93.7642 52.3765C93.7642 52.3497 93.7737 52.3238 93.7911 52.3035C93.8085 52.2831 93.8326 52.2697 93.859 52.2655H97.7252C97.7516 52.2697 97.7757 52.2831 97.7931 52.3035C97.8104 52.3238 97.82 52.3497 97.82 52.3765C97.82 52.4032 97.8104 52.4291 97.7931 52.4495C97.7757 52.4698 97.7516 52.4833 97.7252 52.4874Z" fill="#4381CA"/>
<path d="M99.9857 52.4875H98.7499C98.7339 52.49 98.7175 52.489 98.7019 52.4846C98.6863 52.4802 98.6718 52.4724 98.6595 52.4619C98.6471 52.4513 98.6372 52.4383 98.6304 52.4235C98.6236 52.4088 98.6201 52.3927 98.6201 52.3765C98.6201 52.3603 98.6236 52.3442 98.6304 52.3295C98.6372 52.3147 98.6471 52.3017 98.6595 52.2911C98.6718 52.2806 98.6863 52.2728 98.7019 52.2684C98.7175 52.264 98.7339 52.263 98.7499 52.2655H99.9857C100.002 52.263 100.018 52.264 100.034 52.2684C100.049 52.2728 100.064 52.2806 100.076 52.2911C100.089 52.3017 100.098 52.3147 100.105 52.3295C100.112 52.3442 100.116 52.3603 100.116 52.3765C100.116 52.3927 100.112 52.4088 100.105 52.4235C100.098 52.4383 100.089 52.4513 100.076 52.4619C100.064 52.4724 100.049 52.4802 100.034 52.4846C100.018 52.489 100.002 52.49 99.9857 52.4875Z" fill="#4381CA"/>
<path d="M101.251 49.6954H94.0122C93.9824 49.6954 93.9539 49.6835 93.9328 49.6625C93.9117 49.6414 93.8999 49.6128 93.8999 49.583C93.8999 49.5532 93.9117 49.5247 93.9328 49.5036C93.9539 49.4825 93.9824 49.4707 94.0122 49.4707H101.251C101.281 49.4707 101.31 49.4825 101.331 49.5036C101.352 49.5247 101.364 49.5532 101.364 49.583C101.364 49.6128 101.352 49.6414 101.331 49.6625C101.31 49.6835 101.281 49.6954 101.251 49.6954Z" fill="#4381CA"/>
<path d="M94.503 69.596C92.8261 69.596 91.4533 69.1001 90.6012 68.1795C89.6888 67.1958 89.3107 65.6477 89.5627 63.9325C89.6526 62.9806 90.0068 62.0728 90.5854 61.3117C91.164 60.5506 91.9439 59.9664 92.837 59.6252C93.8827 59.1533 95.0192 58.9166 96.1663 58.9317C97.3134 58.9469 98.4432 59.2135 99.4761 59.7129C100.378 60.165 100.942 60.7376 101.156 61.4144C101.173 61.4707 101.168 61.5318 101.141 61.5842C101.127 61.6102 101.109 61.6332 101.087 61.652C101.064 61.6708 101.038 61.6851 101.01 61.6939C100.954 61.7117 100.893 61.7064 100.841 61.6792C100.788 61.6519 100.749 61.605 100.731 61.5487C100.556 61.0007 100.065 60.5075 99.276 60.1102C98.3021 59.6404 97.237 59.3898 96.1558 59.376C95.0745 59.3623 94.0034 59.5858 93.0179 60.0307C92.1936 60.3422 91.4736 60.8795 90.9406 61.5812C90.4075 62.2829 90.0829 63.1206 90.0039 63.9982C89.771 65.5792 90.108 66.993 90.9273 67.8753C92.0644 69.1056 93.9413 69.1933 94.9715 69.1385C96.8731 69.0316 98.5061 68.3685 99.5747 67.2698C100.824 65.982 101.175 64.0585 100.397 62.7926C100.299 62.6103 100.162 62.4519 99.9956 62.3287C99.8293 62.2056 99.6379 62.1207 99.435 62.0802C99.3787 62.0717 99.3278 62.042 99.2929 61.997C99.2579 61.9521 99.2416 61.8955 99.2472 61.8388C99.2528 61.7822 99.28 61.7299 99.3231 61.6927C99.3662 61.6555 99.4219 61.6363 99.4788 61.6391C99.7511 61.6814 100.01 61.7863 100.235 61.9456C100.46 62.1049 100.645 62.3141 100.775 62.557C101.663 63.9927 101.287 66.1491 99.9008 67.5794C98.7527 68.7603 97.0155 69.47 95.0016 69.5823C94.829 69.596 94.6646 69.596 94.503 69.596Z" fill="white"/>
<path d="M37.6256 46.3992L36.8337 47.7692L36.061 49.1748C35.5514 50.1146 35.0637 51.0626 34.6198 52.0134C34.3979 52.4929 34.1869 52.9669 33.9951 53.4437L33.9595 53.5314V53.5506C33.9499 53.5625 33.9417 53.5753 33.9348 53.5889C33.9204 53.6146 33.9076 53.6411 33.8964 53.6684C33.8791 53.7718 33.8905 53.8779 33.9293 53.9753C34.0811 54.349 34.3056 54.689 34.5897 54.9754C34.9252 55.3353 35.2831 55.6739 35.661 55.9892L35.0171 57.3592C34.7152 57.2758 34.4194 57.1714 34.1321 57.0468C33.8493 56.9219 33.5747 56.7791 33.3101 56.6194C32.6947 56.2627 32.1668 55.7731 31.7647 55.1863C31.5175 54.8086 31.3531 54.3828 31.2825 53.9369C31.2496 53.6896 31.2496 53.439 31.2825 53.1916C31.2934 53.0686 31.3145 52.9467 31.3455 52.8272L31.3893 52.6491L31.4222 52.5395C31.6003 51.9915 31.7812 51.4243 31.9949 50.8955C32.4114 49.8214 32.8826 48.7802 33.3923 47.7692C33.6498 47.265 33.9129 46.7636 34.1924 46.2704C34.4718 45.7772 34.7404 45.2949 35.0692 44.7963L37.6256 46.3992Z" fill="#FFC3BD"/>
<path d="M34.9626 55.8412L36.4011 55.4658L36.4833 57.7893C36.4833 57.7893 35.3572 57.9565 34.6694 57.2687L34.9626 55.8412Z" fill="#FFC3BD"/>
<path d="M38.4422 55.074L38.1161 57.1153L36.4831 57.7893L36.4009 55.4658L38.4422 55.074Z" fill="#FFC3BD"/>
<path d="M44.3879 35.4446C44.4208 35.6035 44.5304 35.7186 44.6345 35.694C44.7387 35.6693 44.7989 35.5268 44.7661 35.3679C44.7332 35.209 44.6236 35.0939 44.5195 35.1186C44.4153 35.1432 44.366 35.2857 44.3879 35.4446Z" fill="#263238"/>
<path d="M44.5249 35.7186C44.8133 36.166 45.1618 36.5717 45.5606 36.9242C45.4683 37.024 45.3551 37.1023 45.2292 37.1534C45.1032 37.2046 44.9675 37.2273 44.8318 37.2201L44.5249 35.7186Z" fill="#ED847E"/>
<path d="M43.6346 34.6801C43.6108 34.6793 43.5883 34.6695 43.5715 34.6527C43.5625 34.644 43.5553 34.6336 43.5504 34.6221C43.5455 34.6105 43.543 34.5981 43.543 34.5856C43.543 34.573 43.5455 34.5606 43.5504 34.5491C43.5553 34.5376 43.5625 34.5271 43.5715 34.5185C43.6729 34.4034 43.8006 34.3146 43.9437 34.2597C44.0869 34.2048 44.2413 34.1855 44.3935 34.2034C44.4059 34.2053 44.4177 34.2098 44.4282 34.2164C44.4388 34.223 44.4479 34.2317 44.4551 34.2419C44.4623 34.2521 44.4673 34.2637 44.4699 34.2759C44.4725 34.2881 44.4726 34.3007 44.4703 34.313C44.4662 34.338 44.4524 34.3604 44.4319 34.3753C44.4113 34.3902 44.3857 34.3964 44.3607 34.3924C44.2417 34.3814 44.1218 34.3988 44.0108 34.4431C43.8999 34.4874 43.801 34.5573 43.7222 34.6472C43.7118 34.66 43.6982 34.6697 43.6828 34.6755C43.6674 34.6813 43.6508 34.6829 43.6346 34.6801Z" fill="#263238"/>
<path d="M39.8642 37.6804C40.1547 39.1545 40.4423 41.8534 39.4121 42.8344C39.4121 42.8344 39.8149 44.3277 42.5494 44.3277C45.5634 44.3277 43.9879 42.8344 43.9879 42.8344C42.3439 42.4425 42.3878 41.226 42.6755 40.0807L39.8642 37.6804Z" fill="#FFC3BD"/>
<path d="M38.8178 43.1084C38.5986 42.7002 38.3548 42.2316 38.8562 42.0837C39.4042 41.922 42.9497 41.6234 43.9909 41.9275C43.6704 42.4947 44.2101 43.1934 44.2101 43.1934L38.8178 43.1084Z" fill="#263238"/>
<path d="M29.9043 111.759C29.9856 111.788 30.0717 111.8 30.1578 111.796C30.2438 111.791 30.3281 111.769 30.4057 111.732C30.4357 111.704 30.4563 111.668 30.4647 111.628C30.4731 111.588 30.4687 111.547 30.4523 111.51C30.4431 111.479 30.4273 111.45 30.406 111.426C30.3847 111.402 30.3585 111.383 30.329 111.37C30.055 111.241 29.433 111.496 29.4056 111.507C29.3969 111.51 29.3894 111.515 29.384 111.523C29.3786 111.53 29.3756 111.539 29.3755 111.548C29.3756 111.557 29.3781 111.566 29.383 111.574C29.3878 111.582 29.3947 111.588 29.4029 111.592C29.5637 111.665 29.7318 111.721 29.9043 111.759ZM30.2304 111.438C30.2501 111.442 30.2694 111.447 30.2879 111.455C30.305 111.463 30.3201 111.474 30.3324 111.488C30.3447 111.503 30.3538 111.519 30.3591 111.537C30.3865 111.625 30.3591 111.649 30.3427 111.66C30.2358 111.751 29.8331 111.66 29.5508 111.554C29.7659 111.465 29.9981 111.425 30.2304 111.438Z" fill="#4381CA"/>
<path d="M29.414 111.597H29.4359C29.6634 111.532 30.1511 111.186 30.1566 110.959C30.1575 110.923 30.146 110.888 30.1241 110.859C30.1021 110.831 30.071 110.811 30.036 110.803C30.0017 110.79 29.9651 110.786 29.9287 110.788C29.8924 110.791 29.857 110.802 29.825 110.819C29.551 110.959 29.3839 111.515 29.3784 111.54C29.3746 111.547 29.3726 111.555 29.3726 111.563C29.3726 111.571 29.3746 111.579 29.3784 111.586L29.414 111.597ZM29.9839 110.885H30.0031C30.0634 110.907 30.0634 110.934 30.0634 110.948C30.0634 111.082 29.7373 111.354 29.5154 111.463C29.5793 111.242 29.7071 111.045 29.8826 110.896C29.9144 110.882 29.9498 110.878 29.9839 110.885Z" fill="#4381CA"/>
<path d="M44.7659 112.096C45.0235 112.096 45.2728 112.061 45.3578 111.945C45.3789 111.915 45.3901 111.878 45.3901 111.841C45.3901 111.804 45.3789 111.768 45.3578 111.737C45.3416 111.709 45.3199 111.685 45.294 111.666C45.268 111.646 45.2385 111.632 45.2071 111.625C44.8728 111.534 44.1686 111.934 44.1385 111.954C44.1298 111.958 44.123 111.966 44.119 111.975C44.115 111.983 44.1142 111.993 44.1165 112.003C44.118 112.012 44.1221 112.021 44.1285 112.028C44.1348 112.034 44.1431 112.039 44.1522 112.041C44.3549 112.077 44.5602 112.095 44.7659 112.096ZM45.0838 111.707C45.1147 111.703 45.146 111.703 45.1769 111.707C45.1962 111.711 45.2145 111.719 45.2305 111.73C45.2466 111.741 45.2601 111.756 45.2701 111.773C45.303 111.833 45.292 111.863 45.2701 111.88C45.1769 112.008 44.6673 112.011 44.2946 111.959C44.5388 111.825 44.8068 111.739 45.0838 111.707Z" fill="#4381CA"/>
<path d="M44.1576 112.041H44.1768C44.4207 111.932 44.9002 111.493 44.8646 111.269C44.8646 111.214 44.818 111.148 44.6865 111.134C44.6376 111.129 44.5881 111.133 44.5411 111.147C44.494 111.162 44.4502 111.185 44.4125 111.217C44.1576 111.428 44.1028 111.97 44.1001 111.992C44.1003 112 44.1024 112.009 44.1062 112.016C44.1099 112.024 44.1154 112.031 44.122 112.036C44.1273 112.039 44.1332 112.041 44.1393 112.042C44.1454 112.043 44.1516 112.043 44.1576 112.041ZM44.6481 111.219H44.6755C44.7632 111.219 44.7687 111.26 44.7687 111.271C44.7906 111.408 44.4645 111.751 44.2207 111.899C44.2443 111.669 44.3403 111.452 44.4947 111.28C44.542 111.242 44.6013 111.222 44.6618 111.225L44.6481 111.219Z" fill="#4381CA"/>
<path d="M41.9438 111.995H43.9577L44.1578 107.331H42.1439L41.9438 111.995Z" fill="#FFC3BD"/>
<path d="M27.1699 111.063L29.1372 111.488L31.1128 107.148L29.1455 106.72L27.1699 111.063Z" fill="#FFC3BD"/>
<path d="M29.318 111.291L27.126 110.811C27.0872 110.803 27.0469 110.809 27.0115 110.826C26.9762 110.844 26.948 110.874 26.9315 110.91L26.1643 112.576C26.1456 112.616 26.1364 112.66 26.1373 112.705C26.1382 112.749 26.1492 112.793 26.1696 112.833C26.1899 112.872 26.219 112.907 26.2546 112.933C26.2903 112.96 26.3315 112.978 26.3753 112.987C27.1507 113.14 27.5343 113.176 28.507 113.387C29.1043 113.515 30.4551 113.844 31.2799 114.025C32.1046 114.206 32.3759 113.409 32.069 113.263C30.625 112.603 30.0222 112.022 29.6304 111.48C29.5543 111.379 29.4425 111.311 29.318 111.291Z" fill="#263238"/>
<path d="M43.944 111.762H41.752C41.7122 111.762 41.6736 111.775 41.6426 111.8C41.6117 111.825 41.5903 111.86 41.5821 111.899L41.1848 113.688C41.1748 113.731 41.1747 113.776 41.1846 113.819C41.1945 113.862 41.214 113.902 41.2417 113.936C41.2695 113.971 41.3047 113.998 41.3447 114.017C41.3846 114.036 41.4284 114.045 41.4725 114.044C42.2671 114.044 43.4124 113.987 44.4098 113.987C45.5743 113.987 46.5799 114.05 47.9471 114.05C48.7691 114.05 49.0048 113.214 48.6568 113.137C47.084 112.795 45.7962 112.756 44.4372 111.918C44.2906 111.821 44.1197 111.767 43.944 111.762Z" fill="#263238"/>
<path d="M35.8062 43.292C33.9211 43.7249 32.3647 48.5419 32.3647 48.5419L36.1679 51.4271C37.1479 50.3813 37.8399 49.0993 38.1763 47.7062C38.812 45.1826 37.7351 42.8481 35.8062 43.292Z" fill="#4381CA"/>
<path opacity="0.2" d="M35.8062 43.292C33.9211 43.7249 32.3647 48.5419 32.3647 48.5419L36.1679 51.4271C37.1479 50.3813 37.8399 49.0993 38.1763 47.7062C38.812 45.1826 37.7351 42.8481 35.8062 43.292Z" fill="#FAFAFA"/>
<path opacity="0.2" d="M37.4229 46.832C36.3981 47.8458 36.0529 49.6926 35.9844 51.2982L36.1515 51.427C37.1329 50.3819 37.826 49.0997 38.1627 47.7061C38.201 47.5554 38.2339 47.4047 38.2613 47.2567L37.4229 46.832Z" fill="black"/>
<path d="M47.0844 43.3933C47.0844 43.3933 49.2271 45.8127 47.2022 60.7923H36.4422C36.3682 59.1483 37.4067 51.0763 35.812 43.2892C37.0029 43.0602 38.2074 42.9082 39.4179 42.8344C40.9419 42.7466 42.4696 42.7466 43.9937 42.8344C45.0369 42.9399 46.0703 43.1268 47.0844 43.3933Z" fill="#4381CA"/>
<path opacity="0.2" d="M47.0844 43.3933C47.0844 43.3933 49.2271 45.8127 47.2022 60.7923H36.4422C36.3682 59.1483 37.4067 51.0763 35.812 43.2892C37.0029 43.0602 38.2074 42.9082 39.4179 42.8344C40.9419 42.7466 42.4696 42.7466 43.9937 42.8344C45.0369 42.9399 46.0703 43.1268 47.0844 43.3933Z" fill="#FAFAFA"/>
<path opacity="0.2" d="M48.0239 47.9719L47.9828 47.9363L45.5359 48.5226C45.3962 50.1666 47.0977 52.1559 47.9745 53.0601C48.0829 51.3662 48.0994 49.6676 48.0239 47.9719Z" fill="black"/>
<path opacity="0.2" d="M44.1581 107.334L44.0539 109.737H42.04L42.1442 107.334H44.1581Z" fill="black"/>
<path opacity="0.2" d="M29.1428 106.72L31.1129 107.148L30.0936 109.386L28.1235 108.959L29.1428 106.72Z" fill="black"/>
<path d="M39.0233 36.1844C39.5384 38.1161 39.7439 39.2696 40.9413 40.0725C42.7305 41.2808 44.9609 39.8944 45.0321 37.8503C45.0951 36.009 44.2375 33.1622 42.1661 32.7731C41.7097 32.6841 41.2381 32.7135 40.7962 32.8584C40.3543 33.0033 39.957 33.2589 39.6419 33.6009C39.3268 33.9429 39.1045 34.3599 38.9963 34.8121C38.888 35.2644 38.8973 35.7368 39.0233 36.1844Z" fill="#FFC3BD"/>
<path d="M39.9082 39.3327C40.7302 39.8012 43.7196 38.2367 43.1058 35.8529C43.1058 35.8529 44.2456 34.4829 44.1168 32.9704C43.9881 31.4579 42.9496 30.8825 41.8454 31.2086C40.8727 31.4826 40.9001 32.0306 40.9001 32.0306C40.9001 32.0306 36.2996 32.5786 37.2833 34.4445C35.4091 36.4804 38.8834 38.7463 39.9082 39.3327Z" fill="#263238"/>
<path d="M37.412 34.5925C37.412 34.5925 36.864 33.6444 36.064 34.176C36.4421 34.1815 37.0558 34.25 37.412 34.5925Z" fill="#263238"/>
<path d="M43.9689 33.976C43.9689 33.976 44.9717 31.7127 43.4209 30.9839C43.7097 31.4197 43.9071 31.9096 44.0013 32.4238C44.0955 32.9381 44.0845 33.4661 43.9689 33.976Z" fill="#263238"/>
<path d="M42.3057 36.2666C42.4392 36.7467 42.7283 37.1688 43.1277 37.4667C43.651 37.8558 44.0428 37.4667 44.0072 36.8804C43.9716 36.3461 43.6592 35.5104 43.0811 35.3432C42.5029 35.1761 42.155 35.6857 42.3057 36.2666Z" fill="#FFC3BD"/>
<path d="M43.3849 60.7923C43.3849 60.7923 41.0998 76.172 39.8449 81.926C38.4749 88.228 31.107 109.118 31.107 109.118L27.5039 108.337C27.5039 108.337 32.6551 91.3214 33.8059 82.4986C34.6909 75.7226 36.4363 60.7814 36.4363 60.7814L43.3849 60.7923Z" fill="#263238"/>
<path d="M31.9703 107.926C31.9868 107.926 31.299 109.23 31.299 109.23L27.2466 108.35L27.5863 107.134L31.9703 107.926Z" fill="#4381CA"/>
<path opacity="0.3" d="M41.9412 66.2723C39.2998 66.7902 39.5793 76.6405 39.8971 81.7068C40.6589 78.1256 41.774 71.2345 42.5358 66.3436C42.3515 66.2528 42.1417 66.2276 41.9412 66.2723Z" fill="black"/>
<path d="M47.2018 60.7924C47.2018 60.7924 47.4758 75.8432 47.2621 81.9808C47.0347 88.365 44.7961 109.271 44.7961 109.271H41.393C41.393 109.271 41.2697 88.7376 41.119 82.4685C40.9546 75.6185 40.1299 60.7924 40.1299 60.7924H47.2018Z" fill="#263238"/>
<path opacity="0.4" d="M66.1328 50.1831H59.1869L58.7979 57.2468L65.7355 57.4331L66.1328 50.1831Z" fill="#263238"/>
<path d="M62.472 54.7287L55.5151 53.8684C56.0746 51.5274 56.4928 49.1548 56.7673 46.7635L63.7653 47.6239C63.4771 50.016 63.0452 52.3885 62.472 54.7287Z" fill="#4381CA"/>
<path d="M45.4593 107.912C45.4758 107.912 45.2675 109.329 45.2675 109.329H41.1192L41.0068 108.066L45.4593 107.912Z" fill="#4381CA"/>
<path d="M48.0763 45.2291C48.3859 45.7114 48.7394 46.2539 49.0928 46.7526C49.4463 47.2512 49.8107 47.7609 50.1888 48.2459C50.9088 49.2069 51.7119 50.1027 52.5891 50.9228C52.7953 51.1163 53.0111 51.2992 53.2357 51.4708L53.4001 51.5941C53.3691 51.5806 53.337 51.5697 53.3042 51.5613C53.233 51.5613 53.1973 51.5613 53.2165 51.5613C53.3738 51.567 53.5297 51.5311 53.6686 51.4571C53.9085 51.3553 54.1403 51.2353 54.3618 51.0982C55.3854 50.4279 56.3564 49.6804 57.2662 48.8624L58.4417 49.8104C57.7293 51.0079 56.8408 52.0914 55.8058 53.0244C55.5149 53.2844 55.2003 53.5165 54.866 53.7176C54.4442 53.9808 53.9735 54.156 53.4823 54.2328C53.131 54.2789 52.7738 54.248 52.4356 54.1423C52.2481 54.0835 52.0686 54.0016 51.9013 53.8985L51.6657 53.7478C51.3506 53.545 51.0519 53.3286 50.7697 53.1066C49.6795 52.2259 48.6857 51.2322 47.805 50.1419C47.3748 49.6104 46.9584 49.0733 46.572 48.5144C46.1857 47.9554 45.8158 47.4184 45.4541 46.7827L48.0763 45.2291Z" fill="#FFC3BD"/>
<path d="M44.1142 46.4375C43.4703 49.1364 48.353 51.7805 48.353 51.7805L51.5259 48.0651C50.5744 46.6591 49.4888 45.3488 48.2845 44.1523C46.076 42.0234 44.6129 44.388 44.1142 46.4375Z" fill="#4381CA"/>
<path opacity="0.2" d="M44.1142 46.4375C43.4703 49.1364 48.353 51.7805 48.353 51.7805L51.5259 48.0651C50.5744 46.6591 49.4888 45.3488 48.2845 44.1523C46.076 42.0234 44.6129 44.388 44.1142 46.4375Z" fill="#FAFAFA"/>
<path d="M56.9316 49.424L57.6824 47.0183L59.6525 48.002C59.6525 48.002 59.3648 49.7556 57.929 50.0597L56.9316 49.424Z" fill="#FFC3BD"/>
<path d="M58.4715 46.3525L60.2471 46.843L59.6525 48.002L57.6797 47.0184L58.4715 46.3525Z" fill="#FFC3BD"/>
</svg>
