<svg width="125" height="96" viewBox="0 0 125 96" fill="none" xmlns="http://www.w3.org/2000/svg">
<path d="M71.965 15.905V10.5C67.8225 11.53 64.02 13.345 60.29 15.9L71.965 15.905Z" fill="#4381CA"/>
<path d="M102.182 17.8525H73.5923V53.3375H102.182V17.8525Z" fill="#4381CA"/>
<path d="M71.965 17.8525H57.6125C54.405 20.2525 51.1125 22.6825 47.27 24.0675C45.985 24.5325 44.685 24.94 43.375 25.3175V53.3375H71.965V17.8525Z" fill="#4381CA"/>
<path d="M107.838 23.53C106.755 21.5859 105.399 19.8076 103.81 18.25V53.3375H106.75C111.27 44.295 112.75 32.4425 107.838 23.53Z" fill="#4381CA"/>
<path d="M41.7499 25.775C40.1924 26.2025 38.6224 26.605 37.0524 27.025C24.7499 30.3125 17.1224 41.3675 18.5349 53.3375H41.7499V25.775Z" fill="#4381CA"/>
<path d="M103.81 55.285V58.2075C104.172 57.7242 104.518 57.2242 104.848 56.7075C105.143 56.245 105.428 55.7675 105.708 55.2825L103.81 55.285Z" fill="#4381CA"/>
<path d="M102.182 55.285H73.5923V70.25C75.9698 70.28 78.3273 70.47 80.7323 70.2075C88.6273 69.3475 96.7173 66.1175 102.182 60.1625V55.285Z" fill="#4381CA"/>
<path d="M73.5923 15.905H101.077C95.4998 11.75 88.2673 9.68501 81.4223 9.52001C78.7974 9.44254 76.1719 9.65127 73.5923 10.1425V15.905Z" fill="#4381CA"/>
<path d="M71.965 55.285H43.375V76.585C48.3325 76.67 53.3125 75.245 58.0125 73.65C61.7475 72.385 65.5125 71.075 69.4575 70.485C70.2859 70.3644 71.1207 70.2926 71.9575 70.27L71.965 55.285Z" fill="#4381CA"/>
<path d="M41.7497 55.285H18.8447C20.6497 64.035 27.6147 72.0125 36.3747 75.2975C38.1028 75.943 39.9114 76.3476 41.7497 76.5V55.285Z" fill="#4381CA"/>
<g opacity="0.7">
<path d="M71.965 15.905V10.5C67.8225 11.53 64.02 13.345 60.29 15.9L71.965 15.905Z" fill="white"/>
<path d="M102.182 17.8525H73.5923V53.3375H102.182V17.8525Z" fill="white"/>
<path d="M71.965 17.8525H57.6125C54.405 20.2525 51.1125 22.6825 47.27 24.0675C45.985 24.5325 44.685 24.94 43.375 25.3175V53.3375H71.965V17.8525Z" fill="white"/>
<path d="M107.838 23.53C106.755 21.5859 105.399 19.8076 103.81 18.25V53.3375H106.75C111.27 44.295 112.75 32.4425 107.838 23.53Z" fill="white"/>
<path d="M41.7499 25.775C40.1924 26.2025 38.6224 26.605 37.0524 27.025C24.7499 30.3125 17.1224 41.3675 18.5349 53.3375H41.7499V25.775Z" fill="white"/>
<path d="M103.81 55.285V58.2075C104.172 57.7242 104.518 57.2242 104.848 56.7075C105.143 56.245 105.428 55.7675 105.708 55.2825L103.81 55.285Z" fill="white"/>
<path d="M102.182 55.285H73.5923V70.25C75.9698 70.28 78.3273 70.47 80.7323 70.2075C88.6273 69.3475 96.7173 66.1175 102.182 60.1625V55.285Z" fill="white"/>
<path d="M73.5923 15.905H101.077C95.4998 11.75 88.2673 9.68501 81.4223 9.52001C78.7974 9.44254 76.1719 9.65127 73.5923 10.1425V15.905Z" fill="white"/>
<path d="M71.965 55.285H43.375V76.585C48.3325 76.67 53.3125 75.245 58.0125 73.65C61.7475 72.385 65.5125 71.075 69.4575 70.485C70.2859 70.3644 71.1207 70.2926 71.9575 70.27L71.965 55.285Z" fill="white"/>
<path d="M41.7497 55.285H18.8447C20.6497 64.035 27.6147 72.0125 36.3747 75.2975C38.1028 75.943 39.9114 76.3476 41.7497 76.5V55.285Z" fill="white"/>
</g>
<path d="M107.793 61.255H106.733H58.8652H57.8052V63.375H58.8652V84.925H106.733V63.375H107.793V61.255Z" fill="#4381CA"/>
<path opacity="0.5" d="M107.793 61.255H106.733H58.8652H57.8052V63.375H58.8652V84.925H106.733V63.375H107.793V61.255Z" fill="white"/>
<path d="M60.145 72.515H73.2025V65.54H60.145V72.515ZM60.41 65.805H72.9375V72.25H60.41V65.805Z" fill="white"/>
<path d="M76.3604 72.515H89.4154V65.54H76.3604V72.515ZM76.6254 65.805H89.1504V72.25H76.6254V65.805Z" fill="white"/>
<path d="M92.5728 65.54V72.515H105.628V65.54H92.5728ZM105.363 72.25H92.8378V65.805H105.363V72.25Z" fill="white"/>
<path d="M60.145 81.8775H73.2025V74.9H60.145V81.8775ZM60.41 75.165H72.9375V81.6125H60.41V75.165Z" fill="white"/>
<path d="M76.3604 81.8775H89.4154V74.9H76.3604V81.8775ZM76.6254 75.165H89.1504V81.6125H76.6254V75.165Z" fill="white"/>
<path d="M92.5728 81.8775H105.628V74.9H92.5728V81.8775ZM92.8378 75.165H105.363V81.6125H92.8378V75.165Z" fill="white"/>
<path d="M66.8129 69.91C67.9837 69.91 68.9329 69.5541 68.9329 69.115C68.9329 68.6759 67.9837 68.32 66.8129 68.32C65.642 68.32 64.6929 68.6759 64.6929 69.115C64.6929 69.5541 65.642 69.91 66.8129 69.91Z" fill="white"/>
<path d="M82.9476 69.91C84.1185 69.91 85.0676 69.5541 85.0676 69.115C85.0676 68.6759 84.1185 68.32 82.9476 68.32C81.7768 68.32 80.8276 68.6759 80.8276 69.115C80.8276 69.5541 81.7768 69.91 82.9476 69.91Z" fill="white"/>
<path d="M99.5526 69.91C100.723 69.91 101.673 69.5541 101.673 69.115C101.673 68.6759 100.723 68.32 99.5526 68.32C98.3818 68.32 97.4326 68.6759 97.4326 69.115C97.4326 69.5541 98.3818 69.91 99.5526 69.91Z" fill="white"/>
<path d="M66.8128 77.6825C65.6428 77.6825 64.6953 78.0375 64.6953 78.4775C64.6953 78.9175 65.6428 79.2725 66.8128 79.2725C67.9828 79.2725 68.9328 78.9175 68.9328 78.4775C68.9328 78.0375 67.9853 77.6825 66.8128 77.6825Z" fill="white"/>
<path d="M82.9476 77.6825C81.7776 77.6825 80.8301 78.0375 80.8301 78.4775C80.8301 78.9175 81.7776 79.2725 82.9476 79.2725C84.1176 79.2725 85.0676 78.9175 85.0676 78.4775C85.0676 78.0375 84.1201 77.6825 82.9476 77.6825Z" fill="white"/>
<path d="M99.5526 77.6825C98.3826 77.6825 97.4326 78.0375 97.4326 78.4775C97.4326 78.9175 98.3826 79.2725 99.5526 79.2725C100.723 79.2725 101.673 78.9175 101.673 78.4775C101.673 78.0375 100.723 77.6825 99.5526 77.6825Z" fill="white"/>
<path d="M39.59 59.405C38.625 60.835 37.28 62.6975 36.5625 64.1925C36.835 63.2075 37.1025 62.2775 37.345 61.4425C37.7125 60.7225 38.6975 58.8975 39.845 57.6925C41.2875 56.1475 41.905 55.1575 41.1275 55.07C40.59 55.01 39.015 57.1075 38.0275 59.1925C38.2425 58.48 38.4125 57.9425 38.515 57.6175C38.5625 57.475 38.6075 57.315 38.6525 57.1475C39.6747 55.7198 40.6049 54.2285 41.4375 52.6825C42.895 49.9575 43.365 47.3875 42.3925 48.495C41.4975 49.5125 39.94 54.57 38.705 56.9525C38.8075 56.5425 38.9075 56.0875 38.995 55.64C39.17 55.2075 39.4 54.7675 39.53 54.3675C39.7325 53.755 39.91 53.1325 40.0525 52.5025C40.2873 51.5197 40.4065 50.5129 40.4075 49.5025C40.4323 48.3157 40.109 47.1476 39.4775 46.1425C39.31 45.8925 38.2875 44.3625 37.9775 45.1425C37.9376 45.2729 37.9298 45.411 37.955 45.545C38.105 46.8475 38.5775 48.045 38.87 49.3125C39.3075 51.21 39.0175 54.3975 38.87 55.7525C38.815 55.965 38.745 56.2325 38.6625 56.54C38.865 54.1775 37.8425 51.38 36.895 50.8925C35.7225 50.2875 36.8725 52.6625 37.7775 54.735C38.2072 55.6428 38.4088 56.6416 38.365 57.645C38.18 58.3275 37.9675 59.0925 37.7475 59.8675C37.705 59.975 37.6625 60.08 37.6225 60.185C37.7238 59.6791 37.7657 59.1631 37.7475 58.6475C37.66 57.2925 36.125 54.58 35.105 54.9625C34.085 55.345 35.8125 56.7775 36.735 58.4425C37.2065 59.3556 37.3863 60.3914 37.25 61.41C37.25 61.47 37.23 61.53 37.2225 61.59C37.1175 61.9425 37.0125 62.285 36.91 62.6075C36.66 63.3575 36.4475 64.0775 36.235 64.7725C36.4961 63.765 36.6106 62.7251 36.575 61.685C36.4475 59.6975 35.285 57.8225 34.325 57.5675C33.365 57.3125 35.1975 60.55 35.8125 62.37C36.1469 63.433 36.2037 64.5639 35.9775 65.655C35.68 66.64 35.4 67.61 35.1125 68.64C35.1938 67.2941 35.1653 65.9438 35.0275 64.6025C34.84 62.3925 33.5275 60.98 32.62 61.0375C31.7125 61.095 32.66 62.35 33.965 65.0375C34.6539 66.4487 34.9607 68.0157 34.855 69.5825C34.7375 70.0175 34.605 70.4625 34.495 70.9275C34.355 71.4575 34.245 72.0325 34.1475 72.6225C34.015 72.0975 33.82 71.3275 33.5925 70.4775C33.3276 69.537 33.1353 68.5775 33.0175 67.6075C32.895 66.48 32.5975 65.075 31.4925 64.4875C31.4178 64.4348 31.3323 64.3992 31.2422 64.3832C31.1521 64.3673 31.0596 64.3714 30.9713 64.3952C30.883 64.4191 30.801 64.4622 30.7312 64.5213C30.6614 64.5805 30.6055 64.6543 30.5675 64.7375C30.4638 64.9787 30.4401 65.2468 30.5 65.5025C30.6468 66.2686 30.8992 67.0107 31.25 67.7075C31.0312 68.1231 30.9317 68.5913 30.9625 69.06C30.9625 69.2375 30.9775 69.4125 30.99 69.585C30.8925 69.4075 30.8 69.2425 30.7125 69.085C30.5543 68.8202 30.359 68.5794 30.1325 68.37C30.189 67.9557 30.2174 67.5381 30.2175 67.12C30.2175 66.57 29.575 65.175 28.995 66.21C28.765 66.6225 28.8075 67.4375 28.785 67.9775C28.6275 68.125 28.58 68.43 28.7125 68.9125C28.581 70.165 28.6468 71.4304 28.9075 72.6625L28.71 72.3125C28.426 70.8666 28.2587 69.4002 28.21 67.9275C28.115 65.5 28.5 63.5 27.84 62.75C27.18 62 26.8075 64.6375 27.09 67.5C27.2242 68.8125 27.5739 70.0938 28.125 71.2925C27.475 70.125 26.8325 68.935 26.225 67.7925C25.975 67.1775 25.355 65.5225 25.5075 63.8425C25.7 61.7225 25.84 59.99 25.035 58.7975C24.23 57.605 24.0625 58.3775 24.4575 60.8625C24.7275 62.57 25.015 64.85 25.5125 66.4325C25.04 65.525 24.5975 64.6625 24.2025 63.88C23.9775 63.1025 23.4525 61.0975 23.4525 59.435C23.4525 57.3225 23.225 56.185 22.6 56.6425C22.165 56.9675 22.445 59.575 23.145 61.77C22.8175 61.1025 22.57 60.59 22.4275 60.2875C22.3625 60.15 22.29 60.005 22.2075 59.85C21.9841 58.1097 21.6501 56.3854 21.2075 54.6875C20.415 51.6875 19.005 49.5025 19.0475 50.9725C19.0875 52.3275 21.4025 57.0875 22.125 59.6725C21.92 59.3025 21.6825 58.9025 21.4425 58.515C21.275 58.08 21.1425 57.6025 20.965 57.22C20.6925 56.635 20.4 56.0575 20.0725 55.5C19.5737 54.6192 18.9729 53.8003 18.2825 53.06C17.4901 52.1755 16.4558 51.5427 15.3075 51.24C15.0125 51.17 13.2225 50.74 13.5275 51.54C13.5859 51.6612 13.6715 51.7672 13.7775 51.85C14.7775 52.7 15.9375 53.2525 17.0275 53.98C18.6425 55.0675 20.605 57.595 21.415 58.69L21.8 59.41C20.3375 57.545 17.68 56.1975 16.655 56.4875C15.385 56.845 17.8475 57.7975 19.9225 58.695C20.8565 59.065 21.6856 59.6581 22.3375 60.4225C22.6675 61.045 23.035 61.75 23.4025 62.4675C23.445 62.575 23.485 62.68 23.53 62.7825C23.2581 62.344 22.936 61.9387 22.57 61.575C21.57 60.645 18.6075 59.71 18.125 60.685C17.6425 61.66 19.875 61.5275 21.69 62.115C22.6682 62.4556 23.5164 63.0915 24.1175 63.935L24.22 64.0875C24.385 64.4175 24.54 64.7375 24.6875 65.045C25.0275 65.76 25.3525 66.4325 25.6725 67.0875C25.1764 66.1688 24.5499 65.3267 23.8125 64.5875C22.3625 63.2225 20.2325 62.645 19.35 63.12C18.4675 63.595 22.025 64.705 23.715 65.62C24.6849 66.1683 25.4982 66.9558 26.0775 67.9075C26.5325 68.83 26.99 69.7325 27.4825 70.68C26.6179 69.6411 25.6706 68.6737 24.65 67.7875C23.005 66.3025 21.08 66.1675 20.4575 66.825C19.835 67.4825 21.3825 67.7575 24.1675 68.825C25.6329 69.3875 26.9257 70.3235 27.9175 71.54C28.1275 71.9375 28.3425 72.345 28.5725 72.7675C28.8477 73.2752 29.1489 73.7684 29.475 74.245C29.02 73.95 28.35 73.52 27.605 73.055C26.7696 72.549 25.9747 71.979 25.2275 71.35C24.3675 70.6 23.19 69.785 21.9775 70.1C21.8875 70.1136 21.8014 70.1467 21.7255 70.197C21.6496 70.2473 21.5856 70.3135 21.5379 70.3912C21.4903 70.4688 21.4602 70.5559 21.4498 70.6464C21.4393 70.7369 21.4488 70.8286 21.4775 70.915C21.5658 71.1622 21.7315 71.3744 21.95 71.52C23.09 72.405 24.6225 72.83 25.95 73.35C27.1666 73.8292 28.4135 74.2275 29.6825 74.5425C29.9975 74.995 30.3275 75.44 30.655 75.8675L30.06 75.885C29.355 75.905 26.175 74.465 24.56 74C22.945 73.535 21.435 74.415 23.1275 75.325C24.82 76.235 29.4225 76.0325 29.4225 76.0325L30.75 76C31.0625 76.4 31.37 76.7775 31.6575 77.125H25.3525V78.875H26.6025L27.6025 85.095H36L37 78.88H38.25V77.13H34.07C34.0362 76.3745 34.0563 75.6176 34.13 74.865C34.4085 74.5813 34.7179 74.3297 35.0525 74.115C36.8875 72.8475 39.9975 72.7425 40.825 70.3025C41.025 69.7125 40.8 68.9575 40.095 68.99C39.595 69.015 39.0525 69.4575 38.7375 69.8225C37.6875 71.035 36.8975 72.2925 35.5325 73.21C35.47 73.2525 34.61 73.9375 34.1825 74.3625C34.23 73.965 34.29 73.54 34.3675 73.0825C34.6974 72.4975 35.0736 71.9399 35.4925 71.415C36.61 70.03 38.31 69.2175 39.5175 67.895C39.8875 67.49 40.375 66.035 39.245 66.395C38.745 66.5575 38.15 67.3175 37.7575 67.6675C36.6475 68.6675 35.5075 69.7325 34.7825 71.0475C34.8125 70.9175 34.845 70.7975 34.875 70.655C35.6552 69.4068 36.5329 68.2222 37.5 67.1125C39.105 65.285 40.75 64.09 40.7775 63.0925C40.805 62.095 38.735 63.7675 36.9775 66.0575C36.1803 67.108 35.5619 68.283 35.1475 69.535C35.47 68.2375 35.8125 66.93 36.1475 65.675C36.3775 65.05 37.06 63.425 38.3175 62.2975C39.905 60.88 41.19 59.71 41.4175 58.2975C41.645 56.885 41 57.3175 39.59 59.405ZM30.7125 75.485C30.4758 75.1617 30.2258 74.8083 29.9625 74.425C29.8051 73.772 29.7006 73.1073 29.65 72.4375C29.6158 71.8639 29.6418 71.2882 29.7275 70.72C30.1536 71.2481 30.6067 71.7538 31.085 72.235C31.0736 72.7356 31.0125 73.2339 30.9025 73.7225C30.895 73.795 30.735 74.8825 30.7125 75.485ZM32.0725 77.13C31.75 76.7875 31.3975 76.38 31.015 75.88C31.0246 75.4834 31.0791 75.0893 31.1775 74.705C31.3306 74.0993 31.5503 73.5124 31.8325 72.955C32.425 73.5175 32.86 73.8925 32.86 73.8925L33.86 74.7675C33.7825 75.6425 33.7375 76.46 33.71 77.125L32.0725 77.13ZM33.8725 74.615L33.425 74.2225C33.175 73.9975 32.725 73.1275 32.235 72.1275C32.4455 71.7055 32.6308 71.2714 32.79 70.8275C33.32 71.81 33.79 72.5775 34.0675 72.985C34 73.53 33.925 74.08 33.8725 74.615Z" fill="#4381CA"/>
<path opacity="0.5" d="M39.59 59.405C38.625 60.835 37.28 62.6975 36.5625 64.1925C36.835 63.2075 37.1025 62.2775 37.345 61.4425C37.7125 60.7225 38.6975 58.8975 39.845 57.6925C41.2875 56.1475 41.905 55.1575 41.1275 55.07C40.59 55.01 39.015 57.1075 38.0275 59.1925C38.2425 58.48 38.4125 57.9425 38.515 57.6175C38.5625 57.475 38.6075 57.315 38.6525 57.1475C39.6747 55.7198 40.6049 54.2285 41.4375 52.6825C42.895 49.9575 43.365 47.3875 42.3925 48.495C41.4975 49.5125 39.94 54.57 38.705 56.9525C38.8075 56.5425 38.9075 56.0875 38.995 55.64C39.17 55.2075 39.4 54.7675 39.53 54.3675C39.7325 53.755 39.91 53.1325 40.0525 52.5025C40.2873 51.5197 40.4065 50.5129 40.4075 49.5025C40.4323 48.3157 40.109 47.1476 39.4775 46.1425C39.31 45.8925 38.2875 44.3625 37.9775 45.1425C37.9376 45.2729 37.9298 45.411 37.955 45.545C38.105 46.8475 38.5775 48.045 38.87 49.3125C39.3075 51.21 39.0175 54.3975 38.87 55.7525C38.815 55.965 38.745 56.2325 38.6625 56.54C38.865 54.1775 37.8425 51.38 36.895 50.8925C35.7225 50.2875 36.8725 52.6625 37.7775 54.735C38.2072 55.6428 38.4088 56.6416 38.365 57.645C38.18 58.3275 37.9675 59.0925 37.7475 59.8675C37.705 59.975 37.6625 60.08 37.6225 60.185C37.7238 59.6791 37.7657 59.1631 37.7475 58.6475C37.66 57.2925 36.125 54.58 35.105 54.9625C34.085 55.345 35.8125 56.7775 36.735 58.4425C37.2065 59.3556 37.3863 60.3914 37.25 61.41C37.25 61.47 37.23 61.53 37.2225 61.59C37.1175 61.9425 37.0125 62.285 36.91 62.6075C36.66 63.3575 36.4475 64.0775 36.235 64.7725C36.4961 63.765 36.6106 62.7251 36.575 61.685C36.4475 59.6975 35.285 57.8225 34.325 57.5675C33.365 57.3125 35.1975 60.55 35.8125 62.37C36.1469 63.433 36.2037 64.5639 35.9775 65.655C35.68 66.64 35.4 67.61 35.1125 68.64C35.1938 67.2941 35.1653 65.9438 35.0275 64.6025C34.84 62.3925 33.5275 60.98 32.62 61.0375C31.7125 61.095 32.66 62.35 33.965 65.0375C34.6539 66.4487 34.9607 68.0157 34.855 69.5825C34.7375 70.0175 34.605 70.4625 34.495 70.9275C34.355 71.4575 34.245 72.0325 34.1475 72.6225C34.015 72.0975 33.82 71.3275 33.5925 70.4775C33.3276 69.537 33.1353 68.5775 33.0175 67.6075C32.895 66.48 32.5975 65.075 31.4925 64.4875C31.4178 64.4348 31.3323 64.3992 31.2422 64.3832C31.1521 64.3673 31.0596 64.3714 30.9713 64.3952C30.883 64.4191 30.801 64.4622 30.7312 64.5213C30.6614 64.5805 30.6055 64.6543 30.5675 64.7375C30.4638 64.9787 30.4401 65.2468 30.5 65.5025C30.6468 66.2686 30.8992 67.0107 31.25 67.7075C31.0312 68.1231 30.9317 68.5913 30.9625 69.06C30.9625 69.2375 30.9775 69.4125 30.99 69.585C30.8925 69.4075 30.8 69.2425 30.7125 69.085C30.5543 68.8202 30.359 68.5794 30.1325 68.37C30.189 67.9557 30.2174 67.5381 30.2175 67.12C30.2175 66.57 29.575 65.175 28.995 66.21C28.765 66.6225 28.8075 67.4375 28.785 67.9775C28.6275 68.125 28.58 68.43 28.7125 68.9125C28.581 70.165 28.6468 71.4304 28.9075 72.6625L28.71 72.3125C28.426 70.8666 28.2587 69.4002 28.21 67.9275C28.115 65.5 28.5 63.5 27.84 62.75C27.18 62 26.8075 64.6375 27.09 67.5C27.2242 68.8125 27.5739 70.0938 28.125 71.2925C27.475 70.125 26.8325 68.935 26.225 67.7925C25.975 67.1775 25.355 65.5225 25.5075 63.8425C25.7 61.7225 25.84 59.99 25.035 58.7975C24.23 57.605 24.0625 58.3775 24.4575 60.8625C24.7275 62.57 25.015 64.85 25.5125 66.4325C25.04 65.525 24.5975 64.6625 24.2025 63.88C23.9775 63.1025 23.4525 61.0975 23.4525 59.435C23.4525 57.3225 23.225 56.185 22.6 56.6425C22.165 56.9675 22.445 59.575 23.145 61.77C22.8175 61.1025 22.57 60.59 22.4275 60.2875C22.3625 60.15 22.29 60.005 22.2075 59.85C21.9841 58.1097 21.6501 56.3854 21.2075 54.6875C20.415 51.6875 19.005 49.5025 19.0475 50.9725C19.0875 52.3275 21.4025 57.0875 22.125 59.6725C21.92 59.3025 21.6825 58.9025 21.4425 58.515C21.275 58.08 21.1425 57.6025 20.965 57.22C20.6925 56.635 20.4 56.0575 20.0725 55.5C19.5737 54.6192 18.9729 53.8003 18.2825 53.06C17.4901 52.1755 16.4558 51.5427 15.3075 51.24C15.0125 51.17 13.2225 50.74 13.5275 51.54C13.5859 51.6612 13.6715 51.7672 13.7775 51.85C14.7775 52.7 15.9375 53.2525 17.0275 53.98C18.6425 55.0675 20.605 57.595 21.415 58.69L21.8 59.41C20.3375 57.545 17.68 56.1975 16.655 56.4875C15.385 56.845 17.8475 57.7975 19.9225 58.695C20.8565 59.065 21.6856 59.6581 22.3375 60.4225C22.6675 61.045 23.035 61.75 23.4025 62.4675C23.445 62.575 23.485 62.68 23.53 62.7825C23.2581 62.344 22.936 61.9387 22.57 61.575C21.57 60.645 18.6075 59.71 18.125 60.685C17.6425 61.66 19.875 61.5275 21.69 62.115C22.6682 62.4556 23.5164 63.0915 24.1175 63.935L24.22 64.0875C24.385 64.4175 24.54 64.7375 24.6875 65.045C25.0275 65.76 25.3525 66.4325 25.6725 67.0875C25.1764 66.1688 24.5499 65.3267 23.8125 64.5875C22.3625 63.2225 20.2325 62.645 19.35 63.12C18.4675 63.595 22.025 64.705 23.715 65.62C24.6849 66.1683 25.4982 66.9558 26.0775 67.9075C26.5325 68.83 26.99 69.7325 27.4825 70.68C26.6179 69.6411 25.6706 68.6737 24.65 67.7875C23.005 66.3025 21.08 66.1675 20.4575 66.825C19.835 67.4825 21.3825 67.7575 24.1675 68.825C25.6329 69.3875 26.9257 70.3235 27.9175 71.54C28.1275 71.9375 28.3425 72.345 28.5725 72.7675C28.8477 73.2752 29.1489 73.7684 29.475 74.245C29.02 73.95 28.35 73.52 27.605 73.055C26.7696 72.549 25.9747 71.979 25.2275 71.35C24.3675 70.6 23.19 69.785 21.9775 70.1C21.8875 70.1136 21.8014 70.1467 21.7255 70.197C21.6496 70.2473 21.5856 70.3135 21.5379 70.3912C21.4903 70.4688 21.4602 70.5559 21.4498 70.6464C21.4393 70.7369 21.4488 70.8286 21.4775 70.915C21.5658 71.1622 21.7315 71.3744 21.95 71.52C23.09 72.405 24.6225 72.83 25.95 73.35C27.1666 73.8292 28.4135 74.2275 29.6825 74.5425C29.9975 74.995 30.3275 75.44 30.655 75.8675L30.06 75.885C29.355 75.905 26.175 74.465 24.56 74C22.945 73.535 21.435 74.415 23.1275 75.325C24.82 76.235 29.4225 76.0325 29.4225 76.0325L30.75 76C31.0625 76.4 31.37 76.7775 31.6575 77.125H25.3525V78.875H26.6025L27.6025 85.095H36L37 78.88H38.25V77.13H34.07C34.0362 76.3745 34.0563 75.6176 34.13 74.865C34.4085 74.5813 34.7179 74.3297 35.0525 74.115C36.8875 72.8475 39.9975 72.7425 40.825 70.3025C41.025 69.7125 40.8 68.9575 40.095 68.99C39.595 69.015 39.0525 69.4575 38.7375 69.8225C37.6875 71.035 36.8975 72.2925 35.5325 73.21C35.47 73.2525 34.61 73.9375 34.1825 74.3625C34.23 73.965 34.29 73.54 34.3675 73.0825C34.6974 72.4975 35.0736 71.9399 35.4925 71.415C36.61 70.03 38.31 69.2175 39.5175 67.895C39.8875 67.49 40.375 66.035 39.245 66.395C38.745 66.5575 38.15 67.3175 37.7575 67.6675C36.6475 68.6675 35.5075 69.7325 34.7825 71.0475C34.8125 70.9175 34.845 70.7975 34.875 70.655C35.6552 69.4068 36.5329 68.2222 37.5 67.1125C39.105 65.285 40.75 64.09 40.7775 63.0925C40.805 62.095 38.735 63.7675 36.9775 66.0575C36.1803 67.108 35.5619 68.283 35.1475 69.535C35.47 68.2375 35.8125 66.93 36.1475 65.675C36.3775 65.05 37.06 63.425 38.3175 62.2975C39.905 60.88 41.19 59.71 41.4175 58.2975C41.645 56.885 41 57.3175 39.59 59.405ZM30.7125 75.485C30.4758 75.1617 30.2258 74.8083 29.9625 74.425C29.8051 73.772 29.7006 73.1073 29.65 72.4375C29.6158 71.8639 29.6418 71.2882 29.7275 70.72C30.1536 71.2481 30.6067 71.7538 31.085 72.235C31.0736 72.7356 31.0125 73.2339 30.9025 73.7225C30.895 73.795 30.735 74.8825 30.7125 75.485ZM32.0725 77.13C31.75 76.7875 31.3975 76.38 31.015 75.88C31.0246 75.4834 31.0791 75.0893 31.1775 74.705C31.3306 74.0993 31.5503 73.5124 31.8325 72.955C32.425 73.5175 32.86 73.8925 32.86 73.8925L33.86 74.7675C33.7825 75.6425 33.7375 76.46 33.71 77.125L32.0725 77.13ZM33.8725 74.615L33.425 74.2225C33.175 73.9975 32.725 73.1275 32.235 72.1275C32.4455 71.7055 32.6308 71.2714 32.79 70.8275C33.32 71.81 33.79 72.5775 34.0675 72.985C34 73.53 33.925 74.08 33.8725 74.615Z" fill="white"/>
<path d="M40.9974 91.42C46.7937 91.42 51.4924 90.4026 51.4924 89.1475C51.4924 87.8924 46.7937 86.875 40.9974 86.875C35.2012 86.875 30.5024 87.8924 30.5024 89.1475C30.5024 90.4026 35.2012 91.42 40.9974 91.42Z" fill="#4381CA"/>
<path opacity="0.5" d="M40.9974 91.42C46.7937 91.42 51.4924 90.4026 51.4924 89.1475C51.4924 87.8924 46.7937 86.875 40.9974 86.875C35.2012 86.875 30.5024 87.8924 30.5024 89.1475C30.5024 90.4026 35.2012 91.42 40.9974 91.42Z" fill="white"/>
<path d="M79.0775 91.42C84.8738 91.42 89.5725 90.4026 89.5725 89.1475C89.5725 87.8924 84.8738 86.875 79.0775 86.875C73.2813 86.875 68.5825 87.8924 68.5825 89.1475C68.5825 90.4026 73.2813 91.42 79.0775 91.42Z" fill="#4381CA"/>
<path opacity="0.5" d="M79.0775 91.42C84.8738 91.42 89.5725 90.4026 89.5725 89.1475C89.5725 87.8924 84.8738 86.875 79.0775 86.875C73.2813 86.875 68.5825 87.8924 68.5825 89.1475C68.5825 90.4026 73.2813 91.42 79.0775 91.42Z" fill="white"/>
<path d="M61.4623 47.6575C61.8851 47.9222 62.2465 48.2742 62.5223 48.69C62.8373 49.2625 64.1573 49.635 64.1573 49.635H64.6448L64.8448 51.9275C64.3422 51.9439 63.8412 51.9923 63.3448 52.0725C63.0521 52.1371 62.7542 52.1747 62.4548 52.185C62.4548 52.185 60.9073 50.2375 60.6498 49.865C60.3923 49.4925 60.3648 48.72 60.4798 48.575C60.5948 48.43 61.4623 47.6575 61.4623 47.6575Z" fill="white" stroke="#263238" stroke-width="0.75" stroke-linecap="round" stroke-linejoin="round"/>
<path d="M59.3999 51.555C59.3999 51.555 58.5399 51.8425 58.9124 52.0725C59.104 52.1577 59.3172 52.1813 59.5228 52.1401C59.7283 52.0989 59.916 51.9949 60.0599 51.8425C60.2024 51.6125 59.7499 51.44 59.3999 51.555Z" fill="white" stroke="#263238" stroke-width="0.75" stroke-linecap="round" stroke-linejoin="round"/>
<path d="M58.4551 48.92C58.4551 48.92 61.0051 48.0025 61.1201 48.0875C61.2351 48.1725 61.4351 48.9475 61.4351 48.9475C61.4351 48.9475 63.2101 50.0075 63.3551 50.41C63.47 51.0348 63.47 51.6752 63.3551 52.3C63.2676 52.445 62.7826 52.615 62.6051 52.6725C62.4261 52.7169 62.239 52.7169 62.0601 52.6725C61.9751 52.645 60.5976 51.6725 60.5976 51.6725C60.5976 51.6725 59.1951 51.815 58.8801 51.815C58.5651 51.815 58.2476 51.7875 58.2476 51.7875L58.4551 48.92Z" fill="white" stroke="#263238" stroke-width="0.75" stroke-linecap="round" stroke-linejoin="round"/>
<path d="M61.6348 50C61.6348 50 62.5798 50.5175 62.7823 50.8025C62.9848 51.0875 63.1823 52.3225 63.1823 52.3225" stroke="#263238" stroke-width="0.75" stroke-linecap="round" stroke-linejoin="round"/>
<path d="M61.2349 50.525C61.2349 50.525 62.3524 51.125 62.4649 51.4125C62.5718 51.7793 62.6553 52.1526 62.7149 52.53" stroke="#263238" stroke-width="0.75" stroke-linecap="round" stroke-linejoin="round"/>
<path d="M61.8073 48.2025C61.8073 48.2025 60.5748 49.5775 60.2873 49.7225C59.9998 49.8675 59.9448 49.6925 59.7873 49.5775C59.6298 49.4625 60.7048 47.9175 60.6773 47.8025C60.8274 47.6916 61.0104 47.6341 61.197 47.6391C61.3836 47.6441 61.5632 47.7113 61.7073 47.83" fill="white"/>
<path d="M61.8073 48.2025C61.8073 48.2025 60.5748 49.5775 60.2873 49.7225C59.9998 49.8675 59.9448 49.6925 59.7873 49.5775C59.6298 49.4625 60.7048 47.9175 60.6773 47.8025C60.8274 47.6916 61.0104 47.6341 61.197 47.6391C61.3836 47.6441 61.5632 47.7113 61.7073 47.83" stroke="#263238" stroke-width="0.75" stroke-linecap="round" stroke-linejoin="round"/>
<path d="M59.9999 51.25L59.9549 51.405C59.8643 51.6791 59.8113 51.9642 59.7974 52.2525C59.8549 52.3675 60.1999 52.4825 60.3149 52.31C60.4299 52.1375 60.6574 51.28 60.5999 51.165C60.5424 51.05 60.3174 50.5525 59.9999 51.25Z" fill="white" stroke="#263238" stroke-width="0.75" stroke-linecap="round" stroke-linejoin="round"/>
<path d="M61.0899 51.125C60.9999 51.2375 60.5899 52.4725 60.6899 52.625C60.7899 52.7775 61.2049 52.8275 61.3199 52.655C61.4349 52.4825 61.8349 51.405 61.7199 51.155C61.6049 50.905 61.4999 50.6375 61.0899 51.125Z" fill="white" stroke="#263238" stroke-width="0.75" stroke-linecap="round" stroke-linejoin="round"/>
<path d="M61.8077 51.3825L61.7652 51.4825C61.6402 51.78 61.2827 52.6775 61.3777 52.845C61.4727 53.0125 62.0352 53.095 62.1502 52.8175C62.2652 52.54 62.6677 51.47 62.4002 51.2125C62.3582 51.1626 62.3027 51.1259 62.2403 51.1069C62.178 51.0879 62.1115 51.0873 62.0488 51.1053C61.9861 51.1233 61.93 51.159 61.8872 51.2082C61.8444 51.2574 61.8168 51.3179 61.8077 51.3825Z" fill="white" stroke="#263238" stroke-width="0.75" stroke-linecap="round" stroke-linejoin="round"/>
<path d="M42.0848 27.285C42.0848 27.285 42.2348 28.2075 42.0623 28.575C41.8898 28.9425 41.6323 29.7125 41.6323 29.7125L45.4373 33.0875C45.4373 33.0875 46.5973 31.625 46.8123 31.3375C47.0273 31.05 47.3123 30.67 47.3123 30.67C47.3123 30.67 45.4423 29.4875 45.0623 28.6275C44.6823 27.7675 44.8698 26.6725 44.0623 26.5C43.2548 26.3275 42.3223 26.77 42.0848 27.285Z" fill="white" stroke="#263238" stroke-width="0.75" stroke-linecap="round" stroke-linejoin="round"/>
<path d="M49.3272 21.59C49.3272 21.59 50.9172 21.5675 50.5947 20.0425C50.2722 18.5175 46.5547 18.1925 45.8672 18.9025C45.1797 19.6125 45.2872 19.9025 45.2872 19.9025C45.2872 19.9025 42.0847 19.8175 41.2672 21.5575C40.4497 23.2975 40.8172 25.5575 41.3547 26.7375C41.8922 27.9175 42.7947 28.0475 43.2672 27.8975C43.7397 27.7475 44.0822 27.4675 44.0822 27.0375C44.0822 26.6075 44.3847 25.5775 44.7497 25.835C45.1147 26.0925 45.4997 26.1775 46.1472 25.555C46.7947 24.9325 47.7147 24.1575 47.3722 23.535C47.0297 22.9125 46.4472 22.89 46.7697 22.61C47.0922 22.33 48.9197 22.11 49.0897 21.9225C49.1844 21.8236 49.2644 21.7116 49.3272 21.59Z" fill="#263238" stroke="#263238" stroke-width="0.75" stroke-linecap="round" stroke-linejoin="round"/>
<path d="M49.25 20.675C49.25 20.675 49.475 21.1275 47.335 21.69C45.195 22.2525 41.585 22.365 41.4775 23.7175" stroke="white" stroke-width="0.75" stroke-linecap="round" stroke-linejoin="round"/>
<path d="M45.0872 23.2675C45.0872 23.2675 42.4972 24.055 41.9322 24.9575C41.3672 25.86 42.1597 26.645 42.1597 26.645" stroke="white" stroke-width="0.75" stroke-linecap="round" stroke-linejoin="round"/>
<path d="M49.3276 21.59C49.3276 21.59 49.9301 23.63 49.9301 24.04C49.9301 24.45 49.5001 24.855 49.6926 25.3075C49.8851 25.76 50.5301 26.64 50.5301 26.92C50.5301 27.2 49.5851 27.4775 49.5851 27.4775C49.5851 27.4775 48.7901 30.4775 48.6176 30.8525C48.4451 31.2275 47.8676 31.2825 47.1776 31.1025C46.4876 30.9225 44.6651 29.9625 44.1776 29.2125C43.6901 28.4625 44.0476 27.19 44.0476 27.19C44.0476 27.19 43.0476 26.74 42.8451 25.795C42.6426 24.85 43.3826 24.225 44.0276 24.44C44.2089 24.4936 44.377 24.5845 44.5212 24.7067C44.6654 24.829 44.7825 24.9799 44.8651 25.15C44.8651 25.15 44.9301 25.385 45.1151 25.3225C45.3001 25.26 45.4801 24.87 45.6526 24.8475C45.8251 24.825 47.0501 24.3975 46.9026 23.925C46.7551 23.4525 45.2251 23.425 45.3326 22.8925C45.4401 22.36 49.3276 21.59 49.3276 21.59Z" fill="white" stroke="#263238" stroke-width="0.75" stroke-linecap="round" stroke-linejoin="round"/>
<path d="M47.415 27.0475L46.7925 27.4775" stroke="#263238" stroke-width="0.75" stroke-linecap="round" stroke-linejoin="round"/>
<path d="M47.1772 27.3275C47.1772 27.3275 47.3722 27.8425 48.1772 28.015L47.1772 27.3275Z" fill="white"/>
<path d="M47.1772 27.3275C47.1772 27.3275 47.3722 27.8425 48.1772 28.015" stroke="#263238" stroke-width="0.75" stroke-linecap="round" stroke-linejoin="round"/>
<path d="M47.1998 27.4775C47.1998 27.4775 46.8348 28.4775 47.2848 28.7025C47.7348 28.9275 47.9298 27.995 47.9298 27.995L47.1998 27.4775Z" fill="black"/>
<path d="M49.6274 25.47C49.6024 25.9925 49.4699 26.41 49.3324 26.4025C49.1949 26.395 49.1074 25.9675 49.1349 25.445C49.1624 24.9225 49.2924 24.5075 49.4299 24.5125C49.5674 24.5175 49.6549 24.9475 49.6274 25.47Z" fill="white" stroke="#263238" stroke-width="0.75" stroke-linecap="round" stroke-linejoin="round"/>
<path d="M49.135 24.9425H44.75" stroke="#263238" stroke-width="0.75" stroke-linecap="round" stroke-linejoin="round"/>
<path d="M48.8325 24.3625C48.8653 24.2453 48.9251 24.1374 49.0072 24.0475C49.0892 23.9576 49.1913 23.8882 49.305 23.845C49.6725 23.7375 49.735 23.9325 49.735 23.9325" fill="white"/>
<path d="M48.8325 24.3625C48.8653 24.2453 48.9251 24.1374 49.0072 24.0475C49.0892 23.9576 49.1913 23.8882 49.305 23.845C49.6725 23.7375 49.735 23.9325 49.735 23.9325" stroke="#263238" stroke-width="0.75" stroke-linecap="round" stroke-linejoin="round"/>
<path d="M33.9249 60.7825L47.2499 60.3825C47.2499 60.3825 48.0799 69.6075 47.8799 69.81C47.6799 70.0125 34.4699 70.56 34.4699 70.56C34.4699 70.56 33.4474 70.6325 33.3024 70.175C33.1574 69.7175 33.9249 60.7825 33.9249 60.7825Z" fill="white" stroke="#263238" stroke-width="0.75" stroke-linecap="round" stroke-linejoin="round"/>
<path d="M33.9251 60.7825C33.9251 60.7825 32.6751 69.9225 32.8926 70.1825C33.1101 70.4425 34.1426 70.63 34.4701 70.555C34.7701 70.5 33.9251 60.7825 33.9251 60.7825Z" fill="white" stroke="#263238" stroke-width="0.75" stroke-linecap="round" stroke-linejoin="round"/>
<path d="M37.8501 85.8275C37.1176 86.275 36.7626 87.03 36.9351 87.6325C37.1076 88.235 37.1626 88.2925 37.6226 88.3825C38.0826 88.4725 40.1426 88.1525 42.3726 87.78C44.6026 87.4075 44.9251 87.3225 45.1226 87.0075C45.3201 86.6925 45.6676 86.3775 43.4601 86.0075C41.2526 85.6375 41.0526 85.2325 41.0526 85.2325C41.0526 85.2325 39.0251 85.11 37.8501 85.8275Z" fill="#4381CA" stroke="#263238" stroke-width="0.75" stroke-linecap="round" stroke-linejoin="round"/>
<path d="M45.0625 86.4225C44.9125 86.73 44.4425 87.2825 42.965 87.46C41.4025 87.6475 38.575 87.93 37.0825 88.0575C37.185 88.27 37.31 88.3075 37.6225 88.3775C38.08 88.4625 40.1425 88.1475 42.3725 87.775C44.6025 87.4025 44.925 87.3175 45.1225 87.0025C45.25 86.8125 45.4225 86.6225 45.0625 86.4225Z" fill="#263238" stroke="#263238" stroke-width="0.75" stroke-linecap="round" stroke-linejoin="round"/>
<path d="M41.8048 86.6C41.8048 86.6 44.0973 87.69 45.3598 87.9475C46.6223 88.205 46.9348 88.235 46.7923 88.635C46.6498 89.035 46.6198 89.1525 44.6998 89.61C42.7798 90.0675 40.6873 89.5525 39.7698 89.38C38.8523 89.2075 38.5673 89.4675 38.1673 89.295C37.7673 89.1225 37.8798 88.2625 37.8798 88.2625L41.8048 86.6Z" fill="#4381CA" stroke="#263238" stroke-width="0.75" stroke-linecap="round" stroke-linejoin="round"/>
<path d="M44.6998 89.61C46.3123 89.225 46.5898 89.0825 46.7223 88.8075C44.9723 89.5575 42.6523 89.2475 40.8823 89.045C39.7423 88.9125 38.6548 88.795 37.8823 88.7325C37.8782 88.8435 37.903 88.9537 37.9543 89.0523C38.0056 89.1509 38.0815 89.2345 38.1748 89.295C38.5748 89.4675 38.8623 89.21 39.7773 89.38C40.6923 89.55 42.7798 90.0675 44.6998 89.61Z" fill="#263238" stroke="#263238" stroke-width="0.75" stroke-linecap="round" stroke-linejoin="round"/>
<path d="M39.2275 65.54C39.2275 65.54 38.825 68.805 38.0225 70.21C37.22 71.615 36.1325 72.5875 35.96 74.6225C35.7875 76.6575 36.36 84.9675 36.4175 85.685C36.475 86.4025 36.1675 86.63 36.475 87.0875C36.6677 87.3682 36.8781 87.6362 37.105 87.89L38.0525 87.06C38.0525 87.06 38.74 84.8525 38.5675 80.64C38.395 76.4275 38.425 73.5925 39.17 70.7825C39.915 67.9725 40.0575 67.23 39.7125 66.14C39.3675 65.05 39.2275 65.54 39.2275 65.54Z" fill="#263238" stroke="#263238" stroke-width="0.75" stroke-linecap="round" stroke-linejoin="round"/>
<path d="M37.4226 58.77C37.4226 58.77 38.3676 60.5525 38.5826 61.02C38.7976 61.4875 39.29 66.91 38.905 68.715C38.52 70.52 37.02 73.5875 37.155 76.28C37.29 78.9725 37.405 86.11 37.405 86.195C37.3189 86.6207 37.3189 87.0593 37.405 87.485C37.5475 88.2575 37.9776 88.485 37.9776 88.485C38.7071 88.1454 39.4639 87.8677 40.2401 87.655C41.6451 87.2525 42.045 86.68 42.045 86.68C41.9224 86.3088 41.7789 85.9449 41.6151 85.59C41.4151 85.19 41.0726 84.56 41.1301 84.3575C41.1876 84.155 41.5601 77.5675 42.3051 75.39C43.0501 73.2125 43.4776 70.92 44.1101 68.9125C44.7426 66.905 46.2501 61.5275 46.2501 60.1525V58.4625L37.3101 58.29L37.4226 58.77Z" fill="#263238" stroke="#263238" stroke-width="0.75" stroke-linecap="round" stroke-linejoin="round"/>
<path d="M38.1599 71.61C37.9099 72.3775 37.6324 73.2375 37.4224 73.92C36.9224 75.545 37.4224 84.67 37.4224 84.67C37.4771 85.3352 37.493 86.003 37.4699 86.67C37.4224 87.4975 37.4699 87.825 37.6749 88.0475" stroke="white" stroke-width="0.75" stroke-linecap="round" stroke-linejoin="round"/>
<path d="M38.7972 69.67C38.7972 69.67 38.6122 70.2225 38.3647 70.98" stroke="white" stroke-width="0.75" stroke-linecap="round" stroke-linejoin="round"/>
<path d="M41.355 28.94C41.355 28.94 42.355 29.2825 43.855 30.595C45.355 31.9075 46.885 33.1525 46.5625 33.595C46.24 34.0375 45.6375 35.595 45.6375 35.595C45.6375 35.595 45.08 34.67 43.425 33.345C41.77 32.02 40.5 30.83 40.5 30.83C40.5 30.83 41.1825 29.22 41.355 28.94Z" fill="white" stroke="#263238" stroke-width="0.75" stroke-linecap="round" stroke-linejoin="round"/>
<path d="M40.0225 31.045C40.0225 31.045 36.82 33.3225 36.2725 35.515C35.725 37.7075 35.4975 38.7825 35.5425 42.9725C35.5875 47.1625 35.8425 49.8075 35.8425 50C35.8425 50.1925 35 57.975 35 58.06C35 58.145 36.5 59.5225 40.695 59.6075C43.542 59.6257 46.3855 59.4032 49.195 58.9425L47.3675 43.855C47.3675 43.855 46.6575 37.4275 45.9275 36.225C45.1975 35.0225 40.0225 31.045 40.0225 31.045Z" fill="#4381CA" stroke="#263238" stroke-width="0.75" stroke-linecap="round" stroke-linejoin="round"/>
<path d="M41.8701 51.9575C41.8701 51.9575 44.5351 52.495 46.3701 51.8275" stroke="#263238" stroke-width="0.75" stroke-linecap="round" stroke-linejoin="round"/>
<path d="M41.8701 52.75C41.8701 52.75 44.5351 53.2875 46.3701 52.6225" stroke="#263238" stroke-width="0.75" stroke-linecap="round" stroke-linejoin="round"/>
<path d="M57.9947 48.49L58.6547 48.805L58.2522 51.785L57.5947 51.67L57.9947 48.49Z" fill="white" stroke="#263238" stroke-width="0.75" stroke-linecap="round" stroke-linejoin="round"/>
<path d="M42.8651 34.965C42.49 35.0834 42.154 35.3011 41.8926 35.595C41.4626 36.095 39.1426 38.975 39.3126 40.2375C39.4826 41.5 42.5001 46.11 43.5001 47.545C44.7313 49.3635 46.5045 50.7475 48.5676 51.5C51.0901 52.4175 57.6526 51.96 57.6526 51.96L58.0001 48.4025C58.0001 48.4025 54.4201 47.2575 51.9551 46.5125C50.5841 46.1071 49.2433 45.6058 47.9426 45.0125C47.9426 45.0125 47.3701 43.6075 46.9676 43.38C46.5651 43.1525 46.5101 43.0075 46.5101 43.0075C46.5101 43.0075 45.7376 38.795 45.3351 37.4175C44.9326 36.04 44.3901 35.7 44.3901 35.7" fill="#4381CA"/>
<path d="M42.8651 34.965C42.49 35.0834 42.154 35.3011 41.8926 35.595C41.4626 36.095 39.1426 38.975 39.3126 40.2375C39.4826 41.5 42.5001 46.11 43.5001 47.545C44.7313 49.3635 46.5045 50.7475 48.5676 51.5C51.0901 52.4175 57.6526 51.96 57.6526 51.96L58.0001 48.4025C58.0001 48.4025 54.4201 47.2575 51.9551 46.5125C50.5841 46.1071 49.2433 45.6058 47.9426 45.0125C47.9426 45.0125 47.3701 43.6075 46.9676 43.38C46.5651 43.1525 46.5101 43.0075 46.5101 43.0075C46.5101 43.0075 45.7376 38.795 45.3351 37.4175C44.9326 36.04 44.3901 35.7 44.3901 35.7" stroke="#263238" stroke-width="0.75" stroke-linecap="round" stroke-linejoin="round"/>
<path d="M76.3647 85.1625C75.3426 85.7527 74.2799 86.2698 73.1847 86.71C71.7222 87.255 71.3772 87.46 71.6647 87.77C71.9522 88.08 74.4447 88.315 75.8472 88.02C77.2497 87.725 77.7972 87.535 78.4272 87.5625C79.0572 87.59 79.9272 87.7625 80.2322 87.3325C80.5372 86.9025 80.6622 86.8175 80.4322 86.1C80.2022 85.3825 76.3647 85.1625 76.3647 85.1625Z" fill="#4381CA" stroke="#263238" stroke-width="0.75" stroke-linecap="round" stroke-linejoin="round"/>
<path d="M75.8473 88.0275C77.2523 87.7425 77.7973 87.5425 78.4273 87.57C79.0573 87.5975 79.9273 87.77 80.2323 87.34C80.4573 87.0325 80.5798 86.9 80.5473 86.59C79.5273 86.505 77.5598 86.8275 75.2148 87.34C74.028 87.629 72.7974 87.6918 71.5873 87.525C71.5737 87.5696 71.5738 87.6174 71.5876 87.6619C71.6014 87.7065 71.6283 87.7459 71.6648 87.775C71.9523 88.085 74.4448 88.315 75.8473 88.0275Z" fill="#263238" stroke="#263238" stroke-width="0.75" stroke-linecap="round" stroke-linejoin="round"/>
<path d="M81.78 87.055C81.206 87.6758 80.594 88.2602 79.9475 88.805C79 89.5775 77.3675 90.64 77.54 91.0975C77.7125 91.555 78.885 91.985 81.35 91.3475C82.9275 90.9163 84.4198 90.2187 85.7625 89.285C86.0379 89.234 86.2836 89.0803 86.45 88.855C86.6525 88.51 86.4225 87.9675 86.4225 87.9675L81.78 87.055Z" fill="#4381CA" stroke="#263238" stroke-width="0.75" stroke-linecap="round" stroke-linejoin="round"/>
<path d="M81.3502 91.3525C82.9277 90.9213 84.42 90.2238 85.7626 89.29C86.038 89.239 86.2838 89.0853 86.4501 88.86C86.5593 88.5959 86.5593 88.2992 86.4501 88.035C82.8851 90.7325 79.5502 91.285 77.7852 91.365C78.2502 91.685 79.3952 91.8525 81.3502 91.3525Z" fill="#263238" stroke="#263238" stroke-width="0.75" stroke-linecap="round" stroke-linejoin="round"/>
<path d="M77.5 53.67C77.5 53.67 75.9825 53.8725 74.8925 53.47C73.8025 53.0675 72.7725 52.755 72.7725 52.755C72.7725 52.755 72.17 60.5775 72.83 63.73C73.49 66.8825 75.2375 70.73 75.265 71.61C75.3 72.6686 75.4246 73.7224 75.6375 74.76C75.8375 75.5625 76.8125 81.76 76.87 82.44C76.9083 82.7831 76.9083 83.1294 76.87 83.4725C76.87 83.4725 76.1825 83.7025 76.1825 83.9025V85.3625C76.7495 85.6606 77.345 85.901 77.96 86.08C79.02 86.395 80.51 86.6525 80.51 86.6525C80.6379 86.075 80.7331 85.4907 80.795 84.9025C80.795 84.5025 80.545 83.4425 80.545 82.8675C80.545 82.2925 80.69 75.4175 80.69 75.4175C80.69 75.4175 82.0925 81.2925 82.0925 83.24C82.0925 85.1875 82.065 85.82 82.065 85.82C82.065 85.82 81.435 85.62 81.435 86.05C81.435 86.48 81.405 87.51 81.405 87.51C81.405 87.51 83.64 88.0825 84.7 88.3975C85.332 88.5882 86 88.6276 86.65 88.5125C86.65 88.5125 87.2225 86.335 87.165 85.62C87.1075 84.905 86.3925 84.3 86.3925 83.9C86.3925 83.5 86.765 79.545 86.22 76.105C85.675 72.665 84.2425 71.09 84.185 69.4C84.1275 67.71 84.435 61.635 84.4725 60.65C84.51 59.665 85.5025 57.6125 85.6475 56.695C85.7925 55.7775 85.675 53.0575 85.675 53.0575C85.675 53.0575 79.25 53.985 77.5 53.67Z" fill="#263238" stroke="#263238" stroke-width="0.75" stroke-linecap="round" stroke-linejoin="round"/>
<path d="M74.7598 57.5975L76.3073 58.6" stroke="white" stroke-width="0.75" stroke-linecap="round" stroke-linejoin="round"/>
<path d="M80.3447 74.54C80.5597 75.0975 80.6922 75.42 80.6922 75.42" stroke="white" stroke-width="0.75" stroke-linecap="round" stroke-linejoin="round"/>
<path d="M75.7925 58.3425C75.7925 58.3425 76.8225 64.3875 78.055 68.17C78.6875 70.11 79.365 71.97 79.875 73.3175" stroke="white" stroke-width="0.75" stroke-linecap="round" stroke-linejoin="round"/>
<path d="M64.1572 49.235C64.1847 49.32 64.3272 52.445 64.3272 52.445L72.5522 51.695L72.3822 47.655L64.1572 49.235Z" fill="#263238" stroke="#263238" stroke-width="0.75" stroke-linecap="round" stroke-linejoin="round"/>
<path d="M80.2902 32.8675C80.2902 32.8675 78.4277 33.525 78.0552 33.985C77.6827 34.445 75.4752 42.2075 74.7502 44.5C74.0252 46.7925 73.8052 53.7275 73.8052 53.7275C74.206 53.8758 74.6182 53.9912 75.0377 54.0725C75.4505 54.1422 75.8692 54.1707 76.2877 54.1575C76.2877 54.1575 78.6952 46.0475 79.8702 43.27C81.0452 40.4925 83.0202 36.5075 83.7677 34.96C84.5152 33.4125 85.1702 33.125 85.0852 32.38C85.0002 31.635 84.6552 31.3475 84.2252 31.29C83.7952 31.2325 80.2902 32.8675 80.2902 32.8675Z" fill="white" stroke="#263238" stroke-width="0.75" stroke-linecap="round" stroke-linejoin="round"/>
<path d="M80.5224 32.64C80.5224 32.64 78.6599 33.2975 78.2874 33.7575C77.9149 34.2175 75.7099 41.98 74.9999 44.2725C74.2899 46.565 74.0474 53.5 74.0474 53.5C74.4481 53.6483 74.8603 53.7637 75.2799 53.845C75.6928 53.9133 76.1114 53.9417 76.5299 53.93C76.5299 53.93 78.9374 45.82 80.1124 43.04C81.2874 40.26 83.2649 36.29 84.0099 34.73C84.7549 33.17 85.4124 32.8975 85.3274 32.1525C85.2424 31.4075 84.8974 31.12 84.4674 31.0625C84.0374 31.005 80.5224 32.64 80.5224 32.64Z" fill="#4381CA" stroke="#263238" stroke-width="0.75" stroke-linecap="round" stroke-linejoin="round"/>
<path d="M83.0398 33.5825C81.8718 35.5804 80.8475 37.659 79.9748 39.8025C78.7998 42.84 77.8548 45.5525 76.6498 49.6025C75.9256 52.1032 75.6829 54.7187 75.9348 57.31C75.9348 57.31 76.5073 58.285 79.8898 58.4C83.2723 58.515 87.5123 57.425 87.5123 57.425C87.5123 57.425 86.9373 53.985 86.8798 51.9525C86.8223 49.92 88.4573 42.7825 89.1448 40.92C89.8323 39.0575 91.3223 37.195 89.8948 35.39C88.4673 33.585 85.0523 31.55 85.0523 31.55C85.0523 31.55 83.4123 32.9525 83.0398 33.5825Z" fill="#263238" stroke="#263238" stroke-width="0.75" stroke-linecap="round" stroke-linejoin="round"/>
<path d="M79.1723 33.555C79.1723 33.555 78.2848 34.6725 77.4823 37.055C76.6798 39.4375 75.1898 45.7675 74.5023 48.46C73.8148 51.1525 73.4698 57.1425 73.4698 57.1425C73.4698 57.1425 73.0973 57.115 72.3248 57.115C71.8158 57.0999 71.3165 56.9727 70.8623 56.7425C70.8623 56.7425 71.4073 50.8675 71.8948 48.1175C72.3823 45.3675 73.8148 40.465 74.0723 38.545C74.3298 36.625 74.4148 36.14 74.7598 35.88C75.1048 35.62 77.7973 33.99 78.3423 33.6175C78.8873 33.245 79.1723 33.555 79.1723 33.555Z" fill="#263238" stroke="#263238" stroke-width="0.75" stroke-linecap="round" stroke-linejoin="round"/>
<path d="M85.9348 32.18C85.9348 32.18 84.3023 35.4175 83.8723 36.02C83.6231 36.3639 83.4023 36.7276 83.2123 37.1075L81.7798 37.6525L82.3523 38.57C82.3523 38.57 79.4598 43.75 78.7148 45.475C77.9698 47.2 77.2148 49.0575 77.2148 49.0575" stroke="white" stroke-width="0.75" stroke-linecap="round" stroke-linejoin="round"/>
<path d="M74.1626 46.7675C74.1101 47.34 74.1001 47.5675 74.1001 47.5675" stroke="white" stroke-width="0.75" stroke-linecap="round" stroke-linejoin="round"/>
<path d="M77.7122 34.5575L76.1072 37.0225L76.4797 37.595L75.5897 38.685C75.5897 38.685 74.6447 42.61 74.3872 44.73C74.3372 45.1425 74.2947 45.5025 74.2622 45.815" stroke="white" stroke-width="0.75" stroke-linecap="round" stroke-linejoin="round"/>
<path d="M78.0274 33.4975L77.7124 35.015L79.3449 33.9275L78.0274 33.4975Z" fill="white" stroke="#263238" stroke-width="0.75" stroke-linecap="round" stroke-linejoin="round"/>
<path d="M79.4023 32.295C79.3723 32.38 78.0273 33.4975 78.0273 33.4975L79.5448 34.1275L79.8598 32.895L79.4023 32.295Z" fill="white" stroke="#263238" stroke-width="0.75" stroke-linecap="round" stroke-linejoin="round"/>
<path d="M78.8576 20.86C78.2108 21.2629 77.7009 21.8521 77.3951 22.55C76.8801 23.725 76.4801 24.2125 76.5951 24.585C76.6775 24.837 76.7345 25.0966 76.7651 25.36C76.7651 25.445 75.5626 26.5925 75.5326 26.935C75.5026 27.2775 76.3076 27.91 76.3076 27.91C76.3076 27.91 76.3926 29.8875 76.3926 30.06C76.3926 30.2325 76.4501 31.12 77.2826 31.3475C77.8488 31.4781 78.4383 31.4686 79.0001 31.32L79.5451 34.1275C79.5451 34.1275 83.3576 31.7775 83.7576 31.5775C84.1576 31.3775 84.6451 31.12 84.6751 30.805C84.7051 30.49 84.4451 28.74 84.4451 28.74C84.4451 28.74 86.4801 26.8775 86.4451 24.7C86.4101 22.5225 85.2501 21.1475 83.1276 20.5C81.0051 19.8525 78.8576 20.86 78.8576 20.86Z" fill="white" stroke="#263238" stroke-width="0.75" stroke-linecap="round" stroke-linejoin="round"/>
<path d="M86.4497 24.7C86.4222 22.5225 85.2472 21.1475 83.1272 20.4875C81.0072 19.8275 78.8572 20.86 78.8572 20.86C78.6897 20.9604 78.5323 21.0768 78.3872 21.2075C79.0872 21.0825 80.2397 20.995 81.0647 21.52C82.3147 22.3225 81.5222 23.125 81.0922 23.555C80.6622 23.985 80.5772 24.155 80.8922 24.555C81.2072 24.955 81.8097 24.955 81.6647 25.3275C81.5197 25.7 81.0922 26.2175 81.4372 26.36C81.7822 26.5025 82.0947 26.1875 82.2397 25.7575C82.3847 25.3275 83.0972 25.3275 83.3847 26.2175C83.4889 26.5522 83.4868 26.9109 83.379 27.2444C83.2711 27.5778 83.0626 27.8698 82.7822 28.08C82.5513 28.251 82.266 28.3319 81.9797 28.3075C82.472 28.5575 82.9912 28.7504 83.5272 28.8825C83.8383 28.9085 84.1515 28.884 84.4547 28.81C84.4547 28.765 84.4547 28.7375 84.4547 28.7375C84.4547 28.7375 86.4797 26.8775 86.4497 24.7Z" fill="#263238" stroke="#263238" stroke-width="0.75" stroke-linecap="round" stroke-linejoin="round"/>
<path d="M78.1124 25.8175C78.1124 26.04 78.0424 26.22 77.9549 26.22C77.8674 26.22 77.7974 26.04 77.7974 25.8175C77.7974 25.595 77.8674 25.4175 77.9549 25.4175C78.0424 25.4175 78.1124 25.5975 78.1124 25.8175Z" fill="black"/>
<path d="M77.3677 24.615C77.3677 24.615 77.4827 24.2125 78.1177 24.2425C78.7527 24.2725 78.7777 24.73 78.7777 24.73" fill="white"/>
<path d="M77.3677 24.615C77.3677 24.615 77.4827 24.2125 78.1177 24.2425C78.7527 24.2725 78.7777 24.73 78.7777 24.73" stroke="#263238" stroke-width="0.75" stroke-linecap="round" stroke-linejoin="round"/>
<path d="M76.3076 27.91C76.4827 27.9733 76.6705 27.9933 76.8551 27.9685C77.0396 27.9437 77.2154 27.8748 77.3676 27.7675C77.8251 27.395 77.4526 27.0775 77.4526 27.0775" fill="white"/>
<path d="M76.3076 27.91C76.4827 27.9733 76.6705 27.9933 76.8551 27.9685C77.0396 27.9437 77.2154 27.8748 77.3676 27.7675C77.8251 27.395 77.4526 27.0775 77.4526 27.0775" stroke="#263238" stroke-width="0.75" stroke-linecap="round" stroke-linejoin="round"/>
<path d="M76.4225 28.3675C76.4225 28.3675 77.94 27.6175 78.6275 27.595C79.315 27.5725 80.0325 28.75 79.75 29.75C79.4675 30.75 79.15 31.25 78.175 31.6425C77.2 32.035 76.2825 31.9575 76.1125 31.2975C75.9425 30.6375 76.7125 29.695 77.085 29.5225C77.4575 29.35 77.745 29.3225 77.6875 29.6375C77.63 29.9525 77.4575 30.18 78.175 30.0375C78.8925 29.895 79.2925 29.695 79.32 28.92C79.3475 28.145 79.07 27.86 78.32 27.975C77.57 28.09 76.4575 28.69 76.4575 28.69L76.4225 28.3675Z" fill="#263238" stroke="#263238" stroke-width="0.75" stroke-linecap="round" stroke-linejoin="round"/>
<path d="M77.0225 28.97C77.0225 28.97 78.2275 28.9125 78.6575 28.425L77.0225 28.97Z" fill="white"/>
<path d="M77.0225 28.97C77.0225 28.97 78.2275 28.9125 78.6575 28.425" stroke="#263238" stroke-width="0.75" stroke-linecap="round" stroke-linejoin="round"/>
<path d="M81.8675 28.2825C81.8693 28.5178 81.8186 28.7505 81.7191 28.9637C81.6197 29.1769 81.4739 29.3652 81.2925 29.515" fill="white"/>
<path d="M81.8675 28.2825C81.8693 28.5178 81.8186 28.7505 81.7191 28.9637C81.6197 29.1769 81.4739 29.3652 81.2925 29.515" stroke="#263238" stroke-width="0.75" stroke-linecap="round" stroke-linejoin="round"/>
<path d="M79.5449 34.1275L80.3774 36.0475C80.3774 36.0475 83.5274 33.6975 84.3024 32.78C85.0774 31.8625 85.6774 31.405 85.2474 30.78C84.8174 30.155 84.1874 30.665 84.0724 30.7225C83.9574 30.78 79.5449 34.1275 79.5449 34.1275Z" fill="white" stroke="#263238" stroke-width="0.75" stroke-linecap="round" stroke-linejoin="round"/>
<path d="M73.2502 51.0625C72.8933 49.9017 72.607 48.7204 72.3927 47.525C72.2202 46.4275 72.1427 45.31 72.1427 45.31C70.7584 45.1839 69.4054 44.8255 68.1402 44.25C66.2502 43.335 65.8477 43 65.8477 43C65.8477 43 68.3977 51.31 68.9152 53.0575C69.4327 54.805 69.5452 55.1775 69.5452 55.1775C70.363 55.5826 71.2291 55.8817 72.1227 56.0675C72.8322 56.1998 73.5511 56.2759 74.2727 56.295L73.2502 51.0625Z" fill="white" stroke="#263238" stroke-width="0.75" stroke-linecap="round" stroke-linejoin="round"/>
<path d="M76.1074 51.0625C75.5013 50.9498 74.9128 50.7573 74.3574 50.49C73.9406 50.2483 73.4858 50.0792 73.0124 49.99H72.8974L73.2399 51.05C72.817 51.1435 72.3854 51.1921 71.9524 51.195C71.2649 51.195 69.8299 50.965 69.7749 51.05C69.7217 51.2555 69.7023 51.4683 69.7174 51.68C69.7174 51.8825 70.7474 53.115 71.3499 53.545C71.9524 53.975 72.4949 54.26 73.0399 54.26C73.5849 54.26 76.5074 53.86 76.5074 53.86L76.1074 51.0625Z" fill="white" stroke="#263238" stroke-width="0.75" stroke-linecap="round" stroke-linejoin="round"/>
<path d="M84.445 39.8875C84.445 39.8875 84.5875 43.0975 84.675 45.4175C84.7625 47.7375 84.905 47.94 84.905 47.94C84.905 47.94 78.485 50.3475 77.51 50.5475C76.535 50.7475 75.7925 50.9775 75.7925 50.9775L76.2225 54.1C78.3233 54.2773 80.4389 54.0835 82.4725 53.5275C85.5975 52.61 90.41 51.6925 90.4975 51.265C90.585 50.8375 90.4975 49.545 90.4975 49.265C90.4975 48.985 90.41 42.8175 90.41 40.0675C90.41 37.3175 90.61 36.685 90.2675 36.1125C89.925 35.54 88.175 35.2525 87.1725 35.825" fill="#263238"/>
<path d="M84.445 39.8875C84.445 39.8875 84.5875 43.0975 84.675 45.4175C84.7625 47.7375 84.905 47.94 84.905 47.94C84.905 47.94 78.485 50.3475 77.51 50.5475C76.535 50.7475 75.7925 50.9775 75.7925 50.9775L76.2225 54.1C78.3233 54.2773 80.4389 54.0835 82.4725 53.5275C85.5975 52.61 90.41 51.6925 90.4975 51.265C90.585 50.8375 90.4975 49.545 90.4975 49.265C90.4975 48.985 90.41 42.8175 90.41 40.0675C90.41 37.3175 90.61 36.685 90.2675 36.1125C89.925 35.54 88.175 35.2525 87.1725 35.825" stroke="#263238" stroke-width="0.75" stroke-linecap="round" stroke-linejoin="round"/>
<path d="M79.5977 49.7825L84.9052 47.94L84.4352 40.8675" stroke="white" stroke-width="0.75" stroke-linecap="round" stroke-linejoin="round"/>
<path d="M78.1074 50.3L78.8749 50.035" stroke="white" stroke-width="0.75" stroke-linecap="round" stroke-linejoin="round"/>
<path d="M86.2749 37.3025C86.2749 37.3025 88.2749 34.8025 90.2624 36.105" stroke="white" stroke-width="0.75" stroke-linecap="round" stroke-linejoin="round"/>
<path d="M69.8301 51.35C69.8301 51.35 71.1501 52.2375 72.0376 52.3825" stroke="#263238" stroke-width="0.75" stroke-linecap="round" stroke-linejoin="round"/>
<path d="M70.0601 52.21C70.449 52.5524 70.8949 52.824 71.3776 53.0125L71.9801 53.1825" stroke="#263238" stroke-width="0.75" stroke-linecap="round" stroke-linejoin="round"/>
<path d="M71.5 53.6425C71.8411 53.7675 72.1978 53.8449 72.56 53.8725" stroke="#263238" stroke-width="0.75" stroke-linecap="round" stroke-linejoin="round"/>
<path d="M47.1649 42.9125C47.1649 42.9125 46.7699 38.875 46.3049 36.03C46.0549 34.4575 45.1024 33.1175 44.1074 31.9175C43.2849 30.9175 42.0424 30.0025 41.3574 28.94C41.1199 28.575 39.8749 31.215 39.8724 31.2175C39.6224 31.78 42.5849 33.5625 42.9849 33.9675C43.5099 34.4925 43.9849 35.1125 44.4624 35.6775C44.6799 35.9275 45.2524 36.88 45.5799 36.96L46.1099 37.0925L45.7124 38.285L47.1649 42.9125Z" fill="#4381CA" stroke="#263238" stroke-width="0.75" stroke-linecap="round" stroke-linejoin="round"/>
</svg>
