<svg width="102" height="75" viewBox="0 0 102 75" fill="none" xmlns="http://www.w3.org/2000/svg">
<g filter="url(#filter0_i_2840_3918)">
<path d="M101.048 0H47.048C28.5481 7 34.5529 24.1938 36 29.5C37.5 35 40.548 45 19.548 53C2.74797 59.4 -0.452026 70.3333 0.0479739 75H101.048V0Z" fill="#A0A0A0"/>
</g>
<path d="M46.0308 42V35H47.1008L51.4908 40.39H50.9608V35H52.2508V42H51.1808L46.7908 36.61H47.3208V42H46.0308ZM56.4065 42.07C55.8599 42.07 55.3732 41.9533 54.9465 41.72C54.5199 41.48 54.1832 41.1533 53.9365 40.74C53.6899 40.3267 53.5665 39.8567 53.5665 39.33C53.5665 38.7967 53.6899 38.3267 53.9365 37.92C54.1832 37.5067 54.5199 37.1833 54.9465 36.95C55.3732 36.7167 55.8599 36.6 56.4065 36.6C56.9599 36.6 57.4499 36.7167 57.8765 36.95C58.3099 37.1833 58.6465 37.5033 58.8865 37.91C59.1332 38.3167 59.2565 38.79 59.2565 39.33C59.2565 39.8567 59.1332 40.3267 58.8865 40.74C58.6465 41.1533 58.3099 41.48 57.8765 41.72C57.4499 41.9533 56.9599 42.07 56.4065 42.07ZM56.4065 41C56.7132 41 56.9865 40.9333 57.2265 40.8C57.4665 40.6667 57.6532 40.4733 57.7865 40.22C57.9265 39.9667 57.9965 39.67 57.9965 39.33C57.9965 38.9833 57.9265 38.6867 57.7865 38.44C57.6532 38.1867 57.4665 37.9933 57.2265 37.86C56.9865 37.7267 56.7165 37.66 56.4165 37.66C56.1099 37.66 55.8365 37.7267 55.5965 37.86C55.3632 37.9933 55.1765 38.1867 55.0365 38.44C54.8965 38.6867 54.8265 38.9833 54.8265 39.33C54.8265 39.67 54.8965 39.9667 55.0365 40.22C55.1765 40.4733 55.3632 40.6667 55.5965 40.8C55.8365 40.9333 56.1065 41 56.4065 41ZM63.4818 36.6C63.9085 36.6 64.2885 36.6833 64.6218 36.85C64.9618 37.0167 65.2285 37.2733 65.4218 37.62C65.6152 37.96 65.7118 38.4 65.7118 38.94V42H64.4618V39.1C64.4618 38.6267 64.3485 38.2733 64.1218 38.04C63.9018 37.8067 63.5918 37.69 63.1918 37.69C62.8985 37.69 62.6385 37.75 62.4118 37.87C62.1852 37.99 62.0085 38.17 61.8818 38.41C61.7618 38.6433 61.7018 38.94 61.7018 39.3V42H60.4518V36.66H61.6418V38.1L61.4318 37.66C61.6185 37.32 61.8885 37.06 62.2418 36.88C62.6018 36.6933 63.0152 36.6 63.4818 36.6ZM69.1912 42L72.3412 35H73.6212L76.7812 42H75.4212L72.7112 35.69H73.2312L70.5312 42H69.1912ZM70.6412 40.38L70.9912 39.36H74.7712L75.1212 40.38H70.6412ZM78.5714 40.81L78.6014 39.24L81.3914 36.66H82.8914L80.5214 39.04L79.8614 39.59L78.5714 40.81ZM77.5514 42V34.58H78.8014V42H77.5514ZM81.5814 42L79.6314 39.59L80.4214 38.59L83.1014 42H81.5814ZM85.9189 42.07C85.3322 42.07 84.8789 41.92 84.5589 41.62C84.2389 41.3133 84.0789 40.8633 84.0789 40.27V35.48H85.3289V40.24C85.3289 40.4933 85.3922 40.69 85.5189 40.83C85.6522 40.97 85.8355 41.04 86.0689 41.04C86.3489 41.04 86.5822 40.9667 86.7689 40.82L87.1189 41.71C86.9722 41.83 86.7922 41.92 86.5789 41.98C86.3655 42.04 86.1455 42.07 85.9189 42.07ZM83.1989 37.7V36.7H86.7589V37.7H83.1989ZM88.1471 42V36.66H89.3971V42H88.1471ZM88.7771 35.78C88.5438 35.78 88.3505 35.7067 88.1971 35.56C88.0505 35.4133 87.9771 35.2367 87.9771 35.03C87.9771 34.8167 88.0505 34.64 88.1971 34.5C88.3505 34.3533 88.5438 34.28 88.7771 34.28C89.0105 34.28 89.2005 34.35 89.3471 34.49C89.5005 34.6233 89.5771 34.7933 89.5771 35C89.5771 35.22 89.5038 35.4067 89.3571 35.56C89.2105 35.7067 89.0171 35.78 88.7771 35.78ZM91.2078 42V36.36C91.2078 35.8 91.3711 35.3533 91.6978 35.02C92.0311 34.68 92.5044 34.51 93.1178 34.51C93.3378 34.51 93.5444 34.5333 93.7378 34.58C93.9378 34.6267 94.1044 34.7 94.2378 34.8L93.8978 35.74C93.8044 35.6667 93.6978 35.6133 93.5778 35.58C93.4578 35.54 93.3344 35.52 93.2078 35.52C92.9478 35.52 92.7511 35.5933 92.6178 35.74C92.4844 35.88 92.4178 36.0933 92.4178 36.38V36.98L92.4578 37.54V42H91.2078ZM90.3278 37.7V36.7H93.8878V37.7H90.3278Z" fill="#FAFAFA"/>
<defs>
<filter id="filter0_i_2840_3918" x="0" y="0" width="101.048" height="76" filterUnits="userSpaceOnUse" color-interpolation-filters="sRGB">
<feFlood flood-opacity="0" result="BackgroundImageFix"/>
<feBlend mode="normal" in="SourceGraphic" in2="BackgroundImageFix" result="shape"/>
<feColorMatrix in="SourceAlpha" type="matrix" values="0 0 0 0 0 0 0 0 0 0 0 0 0 0 0 0 0 0 127 0" result="hardAlpha"/>
<feOffset dy="1"/>
<feGaussianBlur stdDeviation="2"/>
<feComposite in2="hardAlpha" operator="arithmetic" k2="-1" k3="1"/>
<feColorMatrix type="matrix" values="0 0 0 0 0 0 0 0 0 0 0 0 0 0 0 0 0 0 0.25 0"/>
<feBlend mode="normal" in2="shape" result="effect1_innerShadow_2840_3918"/>
</filter>
</defs>
</svg>
