<svg width="40" height="40" viewBox="0 0 40 40" fill="none" xmlns="http://www.w3.org/2000/svg">
<circle cx="20" cy="20" r="20" fill="#4381CA"/>
<path d="M10 19.0965V16.5544L12.2243 17.8784V20.3675L10 19.0965Z" fill="white"/>
<path d="M12.2241 27.7289V20.3676L14.4484 21.6915V28.9999L12.2241 27.7289Z" fill="white"/>
<path d="M24.5135 22.0383L29.2771 19.2026L27.1058 17.9315L22.2865 20.772L24.5135 22.0383Z" fill="white"/>
<path d="M21.1994 14.595L29.2775 19.2025L29.3552 16.7663L21.1994 12L21.1994 14.595Z" fill="white"/>
<path d="M16.5669 26.5638V19.2025L18.7912 18.0903V27.8349L16.5669 26.5638Z" fill="white"/>
<path d="M21.0161 25.4518V18.0904L23.2404 16.9783V26.7228L21.0161 25.4518Z" fill="white"/>
<path d="M12.6479 17.0312V14.4891L18.7912 18.0904L16.5669 19.2025L12.6479 17.0312Z" fill="white"/>
<path d="M17.0962 15.919V13.377L23.2395 16.9782L21.0152 18.0903L17.0962 15.919Z" fill="white"/>
</svg>
