<svg width="500" height="500" viewBox="0 0 500 500" fill="none" xmlns="http://www.w3.org/2000/svg">
<path d="M500 382.4H0V382.65H500V382.4Z" fill="#EBEBEB"/>
<path d="M449.901 398.49H416.781V398.74H449.901V398.49Z" fill="#EBEBEB"/>
<path d="M331.221 401.21H322.531V401.46H331.221V401.21Z" fill="#EBEBEB"/>
<path d="M415.78 389.21H396.59V389.46H415.78V389.21Z" fill="#EBEBEB"/>
<path d="M95.6509 390.89H52.4609V391.14H95.6509V390.89Z" fill="#EBEBEB"/>
<path d="M110.889 390.89H104.559V391.14H110.889V390.89Z" fill="#EBEBEB"/>
<path d="M225.149 395.11H131.469V395.36H225.149V395.11Z" fill="#EBEBEB"/>
<path d="M237.001 337.8H43.9109C42.3983 337.797 40.9485 337.195 39.8798 336.124C38.8112 335.054 38.2109 333.603 38.2109 332.09V60.66C38.2241 59.156 38.8301 57.718 39.8974 56.6582C40.9646 55.5985 42.4069 55.0026 43.9109 55H237.001C238.515 55 239.968 55.6016 241.039 56.6724C242.109 57.7433 242.711 59.1956 242.711 60.71V332.09C242.711 333.604 242.109 335.057 241.039 336.128C239.968 337.198 238.515 337.8 237.001 337.8ZM43.9109 55.2C42.4646 55.2026 41.0784 55.7791 40.0566 56.8027C39.0348 57.8264 38.4609 59.2136 38.4609 60.66V332.09C38.4609 333.536 39.0348 334.924 40.0566 335.947C41.0784 336.971 42.4646 337.547 43.9109 337.55H237.001C238.448 337.547 239.835 336.971 240.859 335.948C241.882 334.924 242.458 333.537 242.461 332.09V60.66C242.458 59.2127 241.882 57.8255 240.859 56.8021C239.835 55.7787 238.448 55.2026 237.001 55.2H43.9109Z" fill="#EBEBEB"/>
<path d="M453.31 337.8H260.21C258.696 337.797 257.246 337.195 256.175 336.125C255.105 335.054 254.503 333.604 254.5 332.09V60.66C254.516 59.1551 255.124 57.7171 256.193 56.6576C257.262 55.5981 258.705 55.0025 260.21 55H453.31C454.812 55.0052 456.252 55.6022 457.317 56.6617C458.382 57.7212 458.987 59.1578 459 60.66V332.09C459 333.601 458.401 335.05 457.335 336.121C456.268 337.191 454.821 337.795 453.31 337.8ZM260.21 55.2C258.763 55.2026 257.375 55.7787 256.352 56.8021C255.329 57.8255 254.753 59.2127 254.75 60.66V332.09C254.753 333.537 255.329 334.924 256.352 335.948C257.375 336.971 258.763 337.547 260.21 337.55H453.31C454.757 337.547 456.145 336.971 457.168 335.948C458.191 334.924 458.767 333.537 458.77 332.09V60.66C458.767 59.2127 458.191 57.8255 457.168 56.8021C456.145 55.7787 454.757 55.2026 453.31 55.2H260.21Z" fill="#EBEBEB"/>
<path d="M359.318 190.25C388.269 190.25 411.738 166.781 411.738 137.83C411.738 108.879 388.269 85.41 359.318 85.41C330.368 85.41 306.898 108.879 306.898 137.83C306.898 166.781 330.368 190.25 359.318 190.25Z" fill="#E0E0E0"/>
<path d="M355.342 190.25C384.293 190.25 407.762 166.781 407.762 137.83C407.762 108.879 384.293 85.41 355.342 85.41C326.391 85.41 302.922 108.879 302.922 137.83C302.922 166.781 326.391 190.25 355.342 190.25Z" fill="#F5F5F5"/>
<path d="M389.602 172.096C408.523 153.176 408.523 122.499 389.602 103.578C370.681 84.6569 340.004 84.6569 321.084 103.578C302.163 122.499 302.163 153.176 321.084 172.096C340.004 191.017 370.681 191.017 389.602 172.096Z" fill="white"/>
<path d="M363.602 173.09C363.338 173.09 363.082 173.002 362.875 172.838C362.668 172.675 362.523 172.447 362.462 172.19L354.202 138.11C354.143 137.812 354.202 137.503 354.365 137.248C354.529 136.992 354.785 136.809 355.079 136.737C355.374 136.665 355.685 136.709 355.949 136.86C356.212 137.012 356.406 137.259 356.492 137.55L364.742 171.64C364.814 171.944 364.763 172.264 364.6 172.53C364.437 172.796 364.175 172.987 363.872 173.06C363.783 173.08 363.693 173.09 363.602 173.09Z" fill="#F5F5F5"/>
<path d="M355.341 140.18C355.032 140.18 354.727 140.119 354.442 140.001C354.157 139.882 353.898 139.709 353.681 139.49L325.331 111.14C325.113 110.921 324.94 110.662 324.822 110.377C324.704 110.091 324.644 109.785 324.645 109.477C324.645 108.853 324.894 108.255 325.336 107.815C325.777 107.375 326.376 107.128 326.999 107.129C327.623 107.13 328.22 107.378 328.661 107.82L355.341 134.51L370.911 118.94C371.352 118.5 371.951 118.253 372.574 118.254C373.198 118.255 373.795 118.503 374.236 118.945C374.676 119.387 374.923 119.985 374.922 120.609C374.921 121.232 374.672 121.83 374.231 122.27L357.001 139.49C356.561 139.931 355.964 140.179 355.341 140.18Z" fill="#EBEBEB"/>
<path d="M221.498 375.1H229.398V321H221.498V375.1Z" fill="#F0F0F0"/>
<path d="M61.7114 382.4H224.191V375.1H61.7114V382.4Z" fill="#F0F0F0"/>
<path d="M221.498 321H56.4883V375.1H221.498V321Z" fill="#F5F5F5"/>
<path d="M210.82 330.42H67.1602V361.32H210.82V330.42Z" fill="#F0F0F0"/>
<path d="M104.05 334.55H173.95C175.259 334.55 176.32 333.489 176.32 332.18V331.74C176.32 330.431 175.259 329.37 173.95 329.37H104.05C102.741 329.37 101.68 330.431 101.68 331.74V332.18C101.68 333.489 102.741 334.55 104.05 334.55Z" fill="#F5F5F5"/>
<path d="M52.87 321H221.5V316.17H52.87V321Z" fill="#F0F0F0"/>
<path d="M233.19 316.17H221.5V321H233.19V316.17Z" fill="#E6E6E6"/>
<path d="M429.689 263.88H414.289V382.4H429.689V263.88Z" fill="#F0F0F0"/>
<path d="M279.499 382.4H414.289V263.88H279.499V382.4Z" fill="#F5F5F5"/>
<path d="M278.269 371.99H396.609V308.6H278.269V371.99Z" fill="#FAFAFA"/>
<path d="M278.269 301.88H396.609V281.01H278.269V301.88Z" fill="#FAFAFA"/>
<g style="mix-blend-mode:multiply" opacity="0.7">
<path d="M397.669 308.6H396.609V371.99H397.669V308.6Z" fill="#E6E6E6"/>
</g>
<g style="mix-blend-mode:multiply" opacity="0.7">
<path d="M397.669 281.01H396.609V301.88H397.669V281.01Z" fill="#E6E6E6"/>
</g>
<g style="mix-blend-mode:multiply" opacity="0.7">
<path d="M429.69 268.88H279.16V271.56H429.69V268.88Z" fill="#E6E6E6"/>
</g>
<path d="M431.489 262.26H414.289V270.01H431.489V262.26Z" fill="#F0F0F0"/>
<path d="M277.699 270.01H414.289V262.26H277.699V270.01Z" fill="#F5F5F5"/>
<path d="M328.939 239.44C328.01 237.976 327.397 236.335 327.139 234.62C326.868 232.908 326.781 231.171 326.879 229.44C327.093 225.996 327.828 222.604 329.059 219.38C329.645 217.78 330.312 216.211 331.059 214.68C331.859 213.18 332.659 211.68 333.559 210.25C334.459 208.82 335.449 207.44 336.469 206.1C337.489 204.76 338.639 203.51 339.829 202.3C339.249 203.91 338.559 205.43 337.829 206.95C337.099 208.47 336.529 210 335.829 211.48L333.889 215.98L332.999 218.25L332.539 219.38L332.139 220.52C330.997 223.525 330.091 226.614 329.429 229.76C329.085 231.332 328.851 232.926 328.729 234.53C328.58 236.169 328.65 237.82 328.939 239.44Z" fill="#E6E6E6"/>
<path d="M309.531 242.09C309.659 239.676 309.447 237.255 308.901 234.9C308.389 232.753 307.386 230.754 305.971 229.06C304.462 227.382 302.676 225.974 300.691 224.9C298.641 223.71 296.381 222.78 294.051 221.68C296.64 221.404 299.258 221.683 301.731 222.5C303.008 222.918 304.23 223.489 305.371 224.2C306.537 224.951 307.591 225.863 308.501 226.91C310.317 229.052 311.372 231.735 311.501 234.54C311.639 237.2 310.95 239.837 309.531 242.09Z" fill="#E6E6E6"/>
<path d="M310.399 241.74C310.315 238.926 310.051 236.12 309.609 233.34C309.197 230.69 308.461 228.101 307.419 225.63C306.377 223.201 304.945 220.958 303.179 218.99C301.274 216.956 299.155 215.132 296.859 213.55C299.817 214.009 302.606 215.221 304.959 217.07C307.371 218.986 309.266 221.475 310.469 224.31C311.657 227.1 312.246 230.108 312.199 233.14C312.217 236.102 311.603 239.034 310.399 241.74Z" fill="#E6E6E6"/>
<path d="M327.608 236.63C325.436 233.811 323.591 230.755 322.108 227.52C320.601 224.293 319.36 220.949 318.398 217.52C317.425 214.082 316.779 210.56 316.468 207C316.141 203.441 316.306 199.854 316.958 196.34C317.688 199.85 318.248 203.24 319.048 206.61C319.848 209.98 320.648 213.3 321.598 216.61C322.548 219.92 323.508 223.23 324.538 226.54C325.568 229.85 326.618 233.21 327.608 236.63Z" fill="#E6E6E6"/>
<path d="M326.71 236.38C324.234 233.959 322.028 231.276 320.13 228.38C318.229 225.492 316.557 222.459 315.13 219.31C313.682 216.153 312.531 212.869 311.69 209.5C310.838 206.125 310.451 202.65 310.54 199.17C311.8 202.43 312.89 205.59 314.18 208.7C315.47 211.81 316.75 214.89 318.18 217.94C319.61 220.99 320.99 224.03 322.45 227.09C323.91 230.15 325.32 233.2 326.71 236.38Z" fill="#E6E6E6"/>
<path d="M330.431 239.58C327.627 238.095 325.023 236.261 322.681 234.12C320.322 231.994 318.169 229.65 316.251 227.12C314.293 224.604 312.616 221.881 311.251 219C309.884 216.122 308.973 213.048 308.551 209.89C310.271 212.58 311.791 215.21 313.551 217.72C315.311 220.23 317.011 222.72 318.881 225.11C320.751 227.5 322.621 229.9 324.561 232.28C326.501 234.66 328.471 237.08 330.431 239.58Z" fill="#E6E6E6"/>
<path d="M324.999 236.4C322.274 235.278 319.749 233.725 317.519 231.8C315.269 229.908 313.255 227.752 311.519 225.38C310.636 224.197 309.822 222.965 309.079 221.69C308.355 220.397 307.71 219.061 307.149 217.69C305.998 214.974 305.293 212.09 305.059 209.15C306.629 211.66 307.919 214.15 309.479 216.49C310.179 217.7 311.019 218.82 311.749 220C312.479 221.18 313.329 222.28 314.189 223.38C315.842 225.607 317.575 227.79 319.389 229.93C321.149 232.1 322.999 234.21 324.999 236.4Z" fill="#E6E6E6"/>
<path d="M329.261 238.11C327.968 237.197 326.934 235.963 326.261 234.53C325.567 233.099 325.078 231.578 324.811 230.01C324.311 226.901 324.4 223.726 325.071 220.65C325.395 219.14 325.795 217.649 326.271 216.18C326.841 214.75 327.351 213.3 328.031 211.93C328.711 210.56 329.431 209.22 330.241 207.93C331.074 206.652 331.972 205.417 332.931 204.23C332.611 205.74 332.161 207.17 331.731 208.6C331.301 210.03 330.941 211.47 330.471 212.86C330.001 214.25 329.721 215.69 329.291 217.08L328.801 219.19C328.631 219.89 328.431 220.59 328.331 221.3C327.728 224.076 327.42 226.909 327.411 229.75C327.399 231.169 327.526 232.586 327.791 233.98C328.041 235.431 328.538 236.828 329.261 238.11Z" fill="#E6E6E6"/>
<path d="M327.4 234.92C325.208 232.576 323.619 229.735 322.77 226.64C321.847 223.515 321.551 220.239 321.9 217C321.95 216.19 322.15 215.4 322.28 214.6L322.51 213.4L322.86 212.24C323.12 211.47 323.34 210.7 323.63 209.95C323.92 209.2 324.3 208.48 324.63 207.76L325.17 206.69L325.82 205.69L327.14 203.69C328.127 202.459 329.192 201.293 330.33 200.2C329.81 201.71 329.12 203.08 328.56 204.5L327.77 206.63L327.37 207.63L327.05 208.71C326.84 209.42 326.62 210.13 326.39 210.83L325.9 212.98L325.64 214.05L325.49 215.13C325.4 215.85 325.22 216.57 325.18 217.29C324.875 220.201 324.915 223.138 325.3 226.04C325.67 229.068 326.375 232.046 327.4 234.92Z" fill="#E6E6E6"/>
<path d="M323.182 233.7L308.852 220.95L310.972 238.26L323.182 233.7Z" fill="#E6E6E6"/>
<path d="M295.559 231.37H337.139L331.689 262.26H301.009L295.559 231.37Z" fill="#F5F5F5"/>
<path d="M321.539 231.37H337.139L331.689 262.26H323.499L321.539 231.37Z" fill="#EBEBEB"/>
<path d="M373.859 239.5C374.054 238.134 373.997 236.745 373.689 235.4C373.424 234.113 373.011 232.862 372.459 231.67C371.338 229.279 369.917 227.041 368.229 225.01C367.849 224.46 367.359 224.01 366.929 223.48C366.499 222.95 366.059 222.48 365.599 221.95C364.599 220.95 363.739 219.95 362.749 218.95C361.759 217.95 360.809 216.95 359.809 215.95C358.809 214.95 357.809 213.95 356.809 212.86C358.159 213.37 359.439 214 360.739 214.64C362 215.333 363.225 216.091 364.409 216.91C365.005 217.319 365.579 217.759 366.129 218.23C366.689 218.69 367.239 219.17 367.789 219.64C368.855 220.646 369.857 221.718 370.789 222.85C372.709 225.162 374.11 227.86 374.899 230.76C375.278 232.228 375.41 233.749 375.289 235.26C375.221 236.78 374.725 238.249 373.859 239.5Z" fill="#E6E6E6"/>
<path d="M397.238 235.31C396.185 234.402 395.405 233.217 394.988 231.89C394.757 231.206 394.606 230.498 394.538 229.78C394.518 229.414 394.518 229.046 394.538 228.68C394.527 228.314 394.56 227.948 394.638 227.59C395.226 224.745 396.712 222.165 398.878 220.23C399.378 219.74 399.948 219.35 400.478 218.91C401.006 218.472 401.568 218.077 402.158 217.73C402.738 217.39 403.318 217.04 403.918 216.73C404.208 216.57 404.498 216.39 404.808 216.25L405.728 215.86C406.348 215.6 406.968 215.36 407.588 215.12C408.205 214.871 408.84 214.67 409.488 214.52C410.777 214.184 412.082 213.917 413.398 213.72C412.365 214.539 411.286 215.3 410.168 216C409.618 216.33 409.098 216.7 408.578 217.08C408.058 217.46 407.578 217.8 406.998 218.15C405.908 218.8 404.998 219.63 403.998 220.33C403.499 220.68 403.025 221.064 402.578 221.48C402.118 221.88 401.578 222.24 401.198 222.66C399.466 224.191 398.1 226.091 397.198 228.22C397.008 228.755 396.854 229.303 396.738 229.86C396.646 230.439 396.6 231.024 396.598 231.61C396.598 232.871 396.815 234.122 397.238 235.31Z" fill="#E6E6E6"/>
<path d="M396.169 235.31C394.362 232.957 393.379 230.076 393.369 227.11C393.327 224.072 394.101 221.078 395.609 218.44L396.809 216.54C397.269 215.95 397.759 215.39 398.249 214.83L398.999 214L399.819 213.28L401.499 211.87C402.686 211.046 403.918 210.288 405.189 209.6C406.493 209.009 407.828 208.488 409.189 208.04C408.189 209.1 407.189 210.04 406.119 210.94C405.049 211.84 404.179 212.87 403.239 213.82C402.799 214.34 402.369 214.82 401.919 215.33L401.249 216.06L400.679 216.86C400.299 217.39 399.879 217.86 399.509 218.42L398.509 220.07C397.241 222.295 396.384 224.731 395.979 227.26C395.564 229.933 395.629 232.659 396.169 235.31Z" fill="#E6E6E6"/>
<path d="M375.141 236.79C375.971 233.7 376.871 230.72 377.741 227.79C378.611 224.86 379.461 221.87 380.241 218.91C381.021 215.95 381.671 212.97 382.241 209.91C382.811 206.85 383.121 203.91 383.391 200.67C384.442 203.724 384.936 206.942 384.851 210.17C384.73 213.384 384.264 216.576 383.461 219.69C382.645 222.785 381.544 225.798 380.171 228.69C378.829 231.584 377.14 234.304 375.141 236.79Z" fill="#E6E6E6"/>
<path d="M376.18 236.29C377.48 233.29 378.88 230.29 380.26 227.42C381.64 224.55 383.03 221.63 384.36 218.73C385.69 215.83 386.97 212.92 388.16 209.97C389.35 207.02 390.37 203.97 391.37 200.83C391.679 204.15 391.439 207.498 390.66 210.74C389.871 213.964 388.776 217.105 387.39 220.12C385.997 223.111 384.369 225.987 382.52 228.72C380.688 231.467 378.562 234.005 376.18 236.29Z" fill="#E6E6E6"/>
<path d="M372.109 240.1C374.059 237.42 376.109 234.89 378.109 232.36C380.109 229.83 382.109 227.36 384.049 224.81C385.989 222.26 387.889 219.73 389.709 217.11C391.529 214.49 393.189 211.79 394.879 208.93C394.437 212.235 393.453 215.444 391.969 218.43C390.482 221.396 388.714 224.212 386.689 226.84C384.663 229.443 382.432 231.88 380.019 234.13C377.608 236.402 374.956 238.404 372.109 240.1Z" fill="#E6E6E6"/>
<path d="M378.23 235.74C380.14 233.35 382.05 231.09 383.93 228.8C385.81 226.51 387.63 224.24 389.41 221.93C391.19 219.62 392.84 217.24 394.41 214.81C395.98 212.38 397.41 209.81 398.95 207.15C398.726 210.224 397.968 213.236 396.71 216.05C395.458 218.86 393.877 221.512 392 223.95C390.141 226.376 388.044 228.61 385.74 230.62C383.474 232.651 380.949 234.372 378.23 235.74Z" fill="#E6E6E6"/>
<path d="M373.341 238.53C374.426 236.361 374.949 233.954 374.861 231.53C374.729 229.217 374.137 226.953 373.121 224.87L372.781 224.06L372.351 223.28L371.511 221.7C370.841 220.7 370.241 219.63 369.511 218.6C368.781 217.57 368.121 216.54 367.381 215.51C366.604 214.474 365.88 213.399 365.211 212.29C366.361 212.923 367.476 213.617 368.551 214.37C369.6 215.168 370.601 216.026 371.551 216.94C372.025 217.405 372.47 217.899 372.881 218.42C373.308 218.933 373.728 219.453 374.141 219.98L375.211 221.71L375.721 222.59L376.141 223.53C377.361 226.065 377.813 228.901 377.441 231.69C377.263 233.05 376.808 234.36 376.102 235.536C375.397 236.713 374.457 237.732 373.341 238.53Z" fill="#E6E6E6"/>
<path d="M375.201 235.34C376.023 232.862 376.586 230.305 376.881 227.71C377.151 225.291 376.971 222.843 376.351 220.49C376.039 219.33 375.603 218.207 375.051 217.14C374.5 216.04 373.851 214.992 373.111 214.01C371.519 211.93 369.774 209.971 367.891 208.15C370.57 208.944 373.026 210.355 375.061 212.27C376.122 213.246 377.044 214.363 377.801 215.59C378.581 216.83 379.174 218.177 379.561 219.59C380.314 222.417 380.269 225.397 379.431 228.2C378.673 230.911 377.214 233.373 375.201 235.34Z" fill="#E6E6E6"/>
<path d="M380.09 232.97L395.73 217.95L395.1 232.68L380.09 232.97Z" fill="#E6E6E6"/>
<path d="M362.98 231.37H404.56L399.11 262.26H368.43L362.98 231.37Z" fill="#F5F5F5"/>
<path d="M388.949 231.37H404.559L399.109 262.26H390.919L388.949 231.37Z" fill="#EBEBEB"/>
<path d="M103.869 90.72V252.72C103.869 259.456 101.193 265.917 96.4293 270.68C91.6658 275.444 85.2052 278.12 78.4688 278.12H196.469C203.206 278.12 209.668 275.444 214.433 270.681C219.198 265.918 221.876 259.457 221.879 252.72V90.72H103.869Z" fill="#F5F5F5"/>
<path d="M203.359 131.73H127.109V207.98H203.359V131.73Z" fill="#F0F0F0"/>
<path d="M201.02 129.38H124.77V205.63H201.02V129.38Z" fill="white"/>
<path d="M143.492 216.92H124.102V236.31H143.492V216.92Z" fill="white"/>
<path d="M201.011 216.92H181.621V236.31H201.011V216.92Z" fill="white"/>
<path d="M172.249 216.92H152.859V236.31H172.249V216.92Z" fill="white"/>
<path d="M221.901 90.72H103.871V110H221.901V90.72Z" fill="#F0F0F0"/>
<path d="M111 84.53V96.91C110.999 97.3634 111.087 97.8126 111.26 98.2318C111.433 98.6509 111.687 99.0318 112.008 99.3524C112.328 99.673 112.709 99.9271 113.128 100.1C113.547 100.273 113.997 100.361 114.45 100.36C114.903 100.36 115.352 100.271 115.77 100.097C116.189 99.924 116.569 99.6698 116.89 99.3495C117.21 99.0291 117.464 98.6488 117.637 98.2302C117.811 97.8116 117.9 97.363 117.9 96.91V84.53C117.897 83.6158 117.533 82.7398 116.887 82.0934C116.24 81.4469 115.364 81.0826 114.45 81.08C113.535 81.08 112.657 81.4434 112.01 82.0904C111.363 82.7374 111 83.615 111 84.53Z" fill="#E6E6E6"/>
<path d="M207.922 84.53V96.91C207.922 97.825 208.285 98.7025 208.932 99.3495C209.579 99.9965 210.457 100.36 211.372 100.36C211.825 100.361 212.275 100.273 212.694 100.1C213.113 99.9271 213.494 99.673 213.814 99.3524C214.135 99.0318 214.389 98.6509 214.562 98.2318C214.735 97.8126 214.823 97.3634 214.822 96.91V84.53C214.822 83.615 214.458 82.7374 213.811 82.0904C213.164 81.4434 212.287 81.08 211.372 81.08C210.458 81.0826 209.582 81.4469 208.935 82.0934C208.289 82.7398 207.925 83.6158 207.922 84.53Z" fill="#E6E6E6"/>
<path d="M188.531 84.53V96.91C188.531 97.363 188.62 97.8117 188.794 98.2302C188.967 98.6488 189.221 99.0291 189.542 99.3495C189.862 99.6698 190.242 99.924 190.661 100.097C191.08 100.271 191.528 100.36 191.981 100.36C192.434 100.36 192.883 100.271 193.302 100.097C193.72 99.924 194.1 99.6698 194.421 99.3495C194.741 99.0291 194.995 98.6488 195.169 98.2302C195.342 97.8117 195.431 97.363 195.431 96.91V84.53C195.429 83.6192 195.067 82.7462 194.425 82.1004C193.783 81.4545 192.912 81.0879 192.001 81.08C191.547 81.0787 191.097 81.1668 190.676 81.3395C190.256 81.5122 189.874 81.7659 189.552 82.0863C189.23 82.4067 188.974 82.7874 188.798 83.2066C188.623 83.6259 188.533 84.0756 188.531 84.53Z" fill="#E6E6E6"/>
<path d="M169.141 84.53V96.91C169.139 97.3634 169.228 97.8126 169.401 98.2318C169.573 98.6509 169.828 99.0318 170.148 99.3524C170.469 99.673 170.85 99.9271 171.269 100.1C171.688 100.273 172.137 100.361 172.591 100.36C173.5 100.352 174.368 99.9847 175.007 99.3383C175.646 98.6919 176.003 97.8189 176.001 96.91V84.53C176.001 83.6167 175.639 82.7407 174.994 82.094C174.349 81.4472 173.474 81.0826 172.561 81.08C171.651 81.0879 170.781 81.4548 170.14 82.101C169.5 82.7471 169.141 83.6201 169.141 84.53Z" fill="#E6E6E6"/>
<path d="M149.75 84.53V96.91C149.749 97.3625 149.837 97.8109 150.009 98.2295C150.181 98.648 150.434 99.0284 150.754 99.3489C151.074 99.6694 151.453 99.9236 151.871 100.097C152.289 100.271 152.737 100.36 153.19 100.36C153.643 100.361 154.093 100.273 154.512 100.1C154.931 99.9271 155.312 99.673 155.632 99.3524C155.953 99.0318 156.207 98.6509 156.38 98.2318C156.553 97.8126 156.641 97.3634 156.64 96.91V84.53C156.64 83.615 156.277 82.7374 155.63 82.0904C154.983 81.4434 154.105 81.08 153.19 81.08C152.277 81.0826 151.402 81.4472 150.757 82.094C150.112 82.7407 149.75 83.6167 149.75 84.53Z" fill="#E6E6E6"/>
<path d="M130.352 84.53V96.91C130.352 97.363 130.441 97.8116 130.614 98.2302C130.788 98.6488 131.042 99.0291 131.362 99.3495C131.682 99.6698 132.063 99.924 132.481 100.097C132.9 100.271 133.348 100.36 133.802 100.36C134.255 100.36 134.703 100.271 135.122 100.097C135.54 99.924 135.921 99.6698 136.241 99.3495C136.561 99.0291 136.816 98.6488 136.989 98.2302C137.162 97.8116 137.252 97.363 137.252 96.91V84.53C137.249 83.6158 136.885 82.7398 136.238 82.0934C135.592 81.4469 134.716 81.0826 133.802 81.08C132.887 81.0826 132.011 81.4469 131.365 82.0934C130.719 82.7398 130.354 83.6158 130.352 84.53Z" fill="#E6E6E6"/>
<path d="M185.869 267.44C185.869 270.259 186.989 272.963 188.982 274.956C190.976 276.95 193.679 278.07 196.499 278.07H63.6886C60.8693 278.07 58.1656 276.95 56.172 274.956C54.1785 272.963 53.0586 270.259 53.0586 267.44H185.869Z" fill="#E6E6E6"/>
<path d="M249.999 427.56C357.082 427.56 443.889 422.492 443.889 416.24C443.889 409.988 357.082 404.92 249.999 404.92C142.917 404.92 56.1094 409.988 56.1094 416.24C56.1094 422.492 142.917 427.56 249.999 427.56Z" fill="#F5F5F5"/>
<path opacity="0.2" d="M269.588 320.73C269.588 320.73 196.098 364.12 196.098 405.23H343.098C343.088 364.12 269.588 320.73 269.588 320.73Z" fill="#4381CA"/>
<path opacity="0.2" d="M269.59 372.5C269.59 372.5 201.73 389.31 201.73 405.23H337.45C337.45 389.31 269.59 372.5 269.59 372.5Z" fill="#4381CA"/>
<path opacity="0.3" d="M278.508 332.71C292.308 346.28 319.128 376.35 319.128 405.23H300.738C300.738 376.35 286.058 346.28 278.508 332.71Z" fill="white"/>
<path opacity="0.2" d="M269.588 320.73C269.588 320.73 196.098 277.34 196.098 236.23H343.098C343.088 277.34 269.588 320.73 269.588 320.73Z" fill="#4381CA"/>
<path opacity="0.2" d="M269.59 316.77C269.59 316.77 232.07 298.77 232.07 281.67H307.12C307.12 298.74 269.59 316.77 269.59 316.77Z" fill="#4381CA"/>
<path opacity="0.3" d="M261.58 308.75C247.79 295.18 221 265.11 221 236.23H239.39C239.35 265.11 254 295.18 261.58 308.75Z" fill="white"/>
<path opacity="0.3" d="M278.508 308.75C292.308 295.18 318.458 261.63 319.128 236.23H314.228C311.928 267.2 289.428 295.62 278.508 308.75Z" fill="white"/>
<path d="M333.107 221.72H324.777V222.72H333.107V221.72Z" fill="#4381CA"/>
<path d="M361.387 235.46H360.387C360.385 232.084 359.043 228.846 356.656 226.458C354.27 224.07 351.034 222.725 347.657 222.72H338.867V221.72H347.657C351.298 221.728 354.787 223.178 357.361 225.754C359.934 228.329 361.382 231.819 361.387 235.46Z" fill="#4381CA"/>
<path d="M347.649 225.22H191.529C185.874 225.22 181.289 229.805 181.289 235.46V237C181.289 242.655 185.874 247.24 191.529 247.24H347.649C353.304 247.24 357.889 242.655 357.889 237V235.46C357.889 229.805 353.304 225.22 347.649 225.22Z" fill="#4381CA"/>
<path d="M347.649 394.22H191.529C185.874 394.22 181.289 398.805 181.289 404.46V406C181.289 411.655 185.874 416.24 191.529 416.24H347.649C353.304 416.24 357.889 411.655 357.889 406V404.46C357.889 398.805 353.304 394.22 347.649 394.22Z" fill="#4381CA"/>
<path d="M140.721 304.52L133.941 298.5L145.501 280.75L152.281 286.76L140.721 304.52Z" fill="#FF8B7B"/>
<path d="M135.341 294.68L143.961 300.68C144.035 300.726 144.099 300.786 144.149 300.856C144.199 300.927 144.235 301.007 144.255 301.091C144.274 301.176 144.277 301.263 144.263 301.349C144.248 301.435 144.217 301.516 144.171 301.59L139.851 308.71C139.602 309.068 139.223 309.314 138.794 309.394C138.366 309.475 137.923 309.383 137.561 309.14C134.561 307.01 133.451 305.97 129.861 303.07C126.313 300.281 122.909 297.314 119.661 294.18C117.001 291.42 119.811 288.75 121.221 289.7C124.551 291.96 130.341 294.45 133.691 294.25C134.274 294.204 134.855 294.355 135.341 294.68Z" fill="#263238"/>
<path opacity="0.2" d="M152.27 286.77L145.49 280.75L139.93 289.3L146.88 295.07L152.27 286.77Z" fill="black"/>
<path d="M221.25 198.1C221.25 198.1 175.75 194.99 170.11 210.41C157.28 245.47 140.59 282.66 140.59 282.66L154 292.37C154 292.37 182.35 249.02 191 221.19C208.5 225.44 240.14 229.07 250.33 217.37C259.03 207.37 252.52 198.1 252.52 198.1H221.25Z" fill="#263238"/>
<path opacity="0.3" d="M182.279 225.35C181.219 229.63 179.609 241.89 178.609 250.02C180.819 245.74 182.919 241.4 184.809 237.16L182.279 225.35Z" fill="black"/>
<path d="M153.14 296.76L137.93 284.84L141.04 278.16L158.04 291.15L153.14 296.76Z" fill="#4381CA"/>
<path d="M131.692 294.13C132.397 294.589 133.148 294.975 133.932 295.28C133.971 295.294 134.013 295.296 134.053 295.287C134.094 295.277 134.13 295.257 134.16 295.228C134.189 295.199 134.209 295.162 134.219 295.121C134.228 295.081 134.226 295.039 134.212 295C134.082 294.66 132.942 291.67 131.752 291.38C131.615 291.349 131.473 291.353 131.339 291.391C131.204 291.43 131.081 291.501 130.982 291.6C130.815 291.733 130.685 291.907 130.606 292.105C130.527 292.303 130.502 292.519 130.532 292.73C130.734 293.323 131.147 293.821 131.692 294.13ZM133.622 294.68C132.052 294 131.072 293.25 130.962 292.68C130.945 292.541 130.965 292.4 131.022 292.271C131.078 292.143 131.168 292.032 131.282 291.95C131.328 291.9 131.387 291.864 131.452 291.845C131.517 291.825 131.586 291.824 131.652 291.84C132.292 292 133.122 293.49 133.622 294.68Z" fill="#4381CA"/>
<path d="M133.88 295.25C133.913 295.259 133.948 295.259 133.98 295.25C134.018 295.254 134.055 295.249 134.09 295.235C134.125 295.221 134.156 295.199 134.18 295.17C134.25 295.09 135.95 293 135.7 291.71C135.667 291.545 135.597 291.39 135.495 291.256C135.393 291.123 135.261 291.015 135.11 290.94C134.957 290.844 134.776 290.8 134.595 290.817C134.415 290.833 134.244 290.908 134.11 291.03C133.35 291.74 133.38 294.14 133.83 295.13C133.837 295.174 133.854 295.215 133.88 295.25ZM134.99 291.42C135.063 291.468 135.125 291.53 135.173 291.602C135.221 291.674 135.254 291.755 135.27 291.84C135.42 292.6 134.61 293.91 134.08 294.63C133.8 293.63 133.89 291.85 134.38 291.39C134.48 291.3 134.62 291.21 134.91 291.39L134.99 291.42Z" fill="#4381CA"/>
<path d="M200.503 315.01L191.753 316.76L190.133 293.33L199.023 293.61L200.503 315.01Z" fill="#FF8B7B"/>
<path d="M190.561 313.56L200.561 309.35C200.643 309.31 200.732 309.286 200.823 309.281C200.914 309.276 201.005 309.289 201.091 309.32C201.177 309.351 201.256 309.398 201.323 309.46C201.39 309.522 201.443 309.597 201.481 309.68L205.301 317.36C205.476 317.775 205.48 318.243 205.314 318.662C205.148 319.081 204.823 319.418 204.411 319.6C200.911 321.01 199.171 321.5 194.781 323.36C192.081 324.5 184.781 327.8 180.881 328.77C176.981 329.74 176.101 325.83 177.681 325.07C181.421 323.27 187.621 317.78 189.291 314.75C189.575 314.227 190.021 313.81 190.561 313.56Z" fill="#263238"/>
<path d="M188.072 316.44C188.86 316.08 189.607 315.637 190.302 315.12C190.337 315.093 190.363 315.058 190.379 315.017C190.395 314.977 190.399 314.933 190.392 314.89C190.38 314.848 190.357 314.81 190.326 314.78C190.294 314.75 190.255 314.729 190.212 314.72C189.852 314.64 186.612 313.99 185.702 314.87C185.598 314.97 185.523 315.096 185.482 315.235C185.442 315.373 185.438 315.52 185.472 315.66C185.494 315.876 185.574 316.083 185.702 316.259C185.83 316.434 186.003 316.573 186.202 316.66C186.831 316.821 187.498 316.743 188.072 316.44ZM189.602 315.06C188.152 316.06 186.962 316.49 186.372 316.26C186.24 316.2 186.128 316.104 186.047 315.984C185.966 315.865 185.919 315.725 185.912 315.58C185.893 315.512 185.892 315.44 185.909 315.372C185.927 315.303 185.962 315.24 186.012 315.19C186.502 314.72 188.302 314.84 189.602 315.06Z" fill="#4381CA"/>
<path d="M190.252 315.15C190.286 315.132 190.317 315.109 190.342 315.08C190.359 315.048 190.367 315.012 190.367 314.975C190.367 314.939 190.359 314.902 190.342 314.87C190.342 314.76 189.422 312.12 188.162 311.63C188 311.565 187.825 311.54 187.651 311.555C187.478 311.571 187.31 311.627 187.162 311.72C186.987 311.798 186.843 311.934 186.756 312.105C186.669 312.276 186.643 312.472 186.682 312.66C186.882 313.66 188.992 315.01 190.102 315.16C190.151 315.176 190.205 315.173 190.252 315.15ZM187.522 312.06C187.604 312.025 187.693 312.008 187.782 312.008C187.871 312.008 187.96 312.025 188.042 312.06C188.792 312.35 189.482 313.78 189.822 314.64C188.822 314.31 187.292 313.28 187.162 312.58C187.162 312.45 187.162 312.28 187.432 312.12L187.522 312.06Z" fill="#4381CA"/>
<path opacity="0.2" d="M199.033 293.62L190.133 293.33L190.983 305.57L199.843 305.41L199.033 293.62Z" fill="black"/>
<path d="M243.351 198.1C243.351 198.1 178.351 204.25 180.691 223.82C184.111 252.05 186.611 301.48 186.611 301.48L203.181 302.13C203.181 302.13 209.401 258.67 205.761 229.76C222.591 229.76 259.151 230.65 265.581 221.95C273.211 211.63 269.681 198.1 269.681 198.1H243.351Z" fill="#263238"/>
<path d="M205.01 303.15L185.12 302.16L184.41 293.51L206.22 295.01L205.01 303.15Z" fill="#4381CA"/>
<path d="M228.92 140.79C228.78 142.58 228.62 144.17 228.4 145.84C228.18 147.51 227.97 149.14 227.71 150.79C227.23 154.08 226.57 157.35 225.83 160.64C225.09 163.93 224.18 167.21 223.04 170.52C221.883 174.002 220.365 177.354 218.51 180.52C217.403 182.383 216.059 184.094 214.51 185.61C214.1 185.993 213.67 186.354 213.22 186.69C212.81 187.03 212.4 187.32 211.98 187.61C211.181 188.174 210.349 188.692 209.49 189.16C206.319 190.885 202.965 192.25 199.49 193.23C197.84 193.74 196.18 194.15 194.49 194.52C192.8 194.89 191.19 195.21 189.49 195.47C186.181 196.011 182.841 196.345 179.49 196.47C178.664 196.505 177.853 196.239 177.208 195.723C176.563 195.206 176.126 194.472 175.98 193.659C175.833 192.845 175.987 192.006 176.412 191.296C176.836 190.587 177.504 190.055 178.29 189.8L178.42 189.75C184.284 187.895 190.037 185.705 195.65 183.19C198.231 182.022 200.701 180.623 203.03 179.01C203.56 178.63 204.03 178.24 204.51 177.85C204.73 177.66 204.96 177.47 205.15 177.27C205.328 177.111 205.495 176.94 205.65 176.76C206.314 175.957 206.885 175.082 207.35 174.15C208.564 171.686 209.538 169.11 210.26 166.46C211.07 163.65 211.77 160.72 212.35 157.74C212.93 154.76 213.45 151.74 213.94 148.68C214.43 145.62 214.8 142.5 215.14 139.6V139.43C215.391 137.676 216.309 136.087 217.703 134.994C219.097 133.902 220.859 133.389 222.622 133.565C224.385 133.74 226.011 134.59 227.163 135.936C228.314 137.283 228.901 139.021 228.8 140.79H228.92Z" fill="#4381CA"/>
<path d="M179.82 188L174.82 188.31L178.82 197.51C178.82 197.51 187.47 197.32 187.29 193.06L185.73 191.06C185.016 190.162 184.121 189.426 183.102 188.898C182.084 188.371 180.965 188.065 179.82 188Z" fill="#FF8B7B"/>
<path d="M169.34 189.07L173.66 197.53H178.81L174.81 188.33L169.34 189.07Z" fill="#FF8B7B"/>
<path d="M228.201 126.61L237.871 124.61L245.571 123.5C246.671 123.32 247.789 123.27 248.901 123.35C251.856 123.618 254.659 124.781 256.935 126.684C259.211 128.587 260.853 131.139 261.641 134C263.571 141 265.311 149.59 266.641 157.2C268.501 167.77 269.461 183.65 269.641 198.09H223.831C222.831 171.94 217.271 155.09 215.381 144.64C214.812 141.485 215.295 138.231 216.757 135.378C218.219 132.525 220.578 130.231 223.471 128.85L228.201 126.61Z" fill="#4381CA"/>
<path d="M223.832 132.36C223.942 136.66 224.832 151.99 229.442 160.7C230.252 152.54 239.942 127.7 239.942 127.7L223.832 132.36Z" fill="#F5F5F5"/>
<path opacity="0.3" d="M267.691 164.38C267.691 164.22 267.691 164.07 267.631 163.9L267.541 163.18C267.491 162.79 267.441 162.4 267.391 162.03L267.241 160.96L267.091 159.96C267.091 159.68 267.001 159.39 266.961 159.12C266.861 158.48 266.761 157.86 266.651 157.25C266.321 155.38 265.971 153.44 265.591 151.49V151.33C265.211 149.33 264.821 147.4 264.401 145.45V145.32C264.231 144.48 264.051 143.66 263.861 142.83L263.651 141.91L263.291 140.32L262.991 139.08L262.931 138.82C262.531 137.18 262.121 135.57 261.701 134.05L254.751 130.39C255.551 133.46 256.311 136.84 257.031 140.3C256.199 140.735 255.432 141.284 254.751 141.93C253.091 143.41 253.151 146.56 254.811 150.29C259.406 160.956 261.95 172.392 262.311 184C262.521 188.71 262.651 193.48 262.711 198.11H269.711C269.511 186.64 268.871 174.28 267.691 164.38Z" fill="black"/>
<path d="M234.27 107.34L230.34 113.34L225 121.49C225.687 122.19 226.245 123.006 226.65 123.9C227.65 125.9 228.43 127.34 224.3 130.15C223.42 130.75 223.39 131.7 223.59 132.75C223.83 134.03 224.59 135.37 229.03 134.58C233.321 133.755 237.237 131.583 240.21 128.38C241.69 126.89 241.35 125.78 239.92 124.24C235.88 119.89 234.67 112.94 234.27 107.34Z" fill="#FF8B7B"/>
<path d="M224.832 134.73L227.662 136.51L232.262 134.56C231.178 133.465 229.78 132.735 228.262 132.47C226.94 132.909 225.757 133.688 224.832 134.73Z" fill="#263238"/>
<path d="M228.211 132.47C230.321 133.34 231.381 135.3 232.341 137.56C232.341 137.56 242.451 129.9 242.661 124.85C242.121 123.13 239.591 123.43 239.591 123.43C239.591 123.43 236.511 128.77 228.211 132.47Z" fill="white"/>
<path d="M228.212 132.47C227.227 132.869 226.389 133.564 225.816 134.46C225.243 135.356 224.962 136.408 225.012 137.47C225.012 137.47 220.512 132.19 224.172 128.2C225.166 127.679 226.221 127.286 227.312 127.03C227.312 127.03 226.212 129.23 228.212 132.47Z" fill="white"/>
<path d="M228.551 135.68H227.261C226.841 136.4 226.261 145.78 226.031 150.77C226.649 153.683 227.557 156.527 228.741 159.26C228.737 159.293 228.737 159.327 228.741 159.36C228.811 159.52 228.881 159.67 228.961 159.82C229.101 160.12 229.241 160.42 229.401 160.7C229.863 157.602 230.582 154.548 231.551 151.57C230.231 145.79 228.551 135.68 228.551 135.68Z" fill="#263238"/>
<path opacity="0.2" d="M226.322 119.48L229.602 113.67C229.662 113.81 229.742 113.98 229.822 114.14C230.109 114.865 230.343 115.611 230.522 116.37C231.122 118.96 229.122 122.64 226.912 124.37C226.822 124.21 226.742 124.04 226.652 123.87C226.258 123.03 225.75 122.25 225.142 121.55L225.012 121.45L226.322 119.48Z" fill="black"/>
<path d="M210.341 107C209.551 103.45 215.201 98.54 215.201 98.54L208.511 96.21C205.491 98.38 207.451 104.57 210.341 107Z" fill="#263238"/>
<path d="M232.88 96.74C234.46 105.62 235.88 110.74 232.54 116.41C231.494 118.272 229.958 119.812 228.099 120.864C226.24 121.915 224.129 122.438 221.994 122.377C219.859 122.315 217.782 121.67 215.987 120.513C214.192 119.356 212.748 117.729 211.81 115.81C208.06 108.49 206.11 95.21 213.74 89.38C215.357 88.0764 217.288 87.2206 219.34 86.8985C221.392 86.5764 223.493 86.7992 225.431 87.5447C227.37 88.2901 229.078 89.532 230.386 91.1459C231.693 92.7598 232.553 94.6889 232.88 96.74Z" fill="#FF8B7B"/>
<path d="M233.003 105.72L228.803 104.57V99.17C228.803 99.17 223.493 96.17 224.313 92.42C224.719 90.3117 225.291 88.2387 226.023 86.22C226.023 86.22 234.443 85.68 237.023 86.76C236.354 87.484 235.629 88.1528 234.853 88.76C236.872 90.1568 238.603 91.929 239.953 93.98C238.898 94.2149 237.913 94.6906 237.073 95.37C237.073 95.37 238.173 102.78 233.003 105.72Z" fill="#263238"/>
<path d="M223.34 80.46C226.43 82.4 224.64 85.96 224.64 85.96L232.91 86.13C232.47 83.52 225.3 80.33 223.34 80.46Z" fill="#263238"/>
<path d="M226.572 94.24C225.982 95.9 219.282 97.94 213.172 98.14C210.126 98.074 207.112 97.5063 204.252 96.46C205.114 95.5741 206.131 94.8523 207.252 94.33C203.562 93.42 198.892 90.18 197.602 87.54C200.296 86.5772 203.206 86.3901 206.002 87C205.087 86.2278 204.335 85.2808 203.791 84.2145C203.246 83.1482 202.92 81.984 202.832 80.79C202.832 80.79 218.472 86.99 224.492 84.42C231.032 81.62 236.002 86.87 231.702 90.87C227.402 94.87 226.572 94.24 226.572 94.24Z" fill="#263238"/>
<path d="M237.661 103.17C237.746 105.129 237.109 107.05 235.871 108.57C234.251 110.5 231.731 108.96 231.151 106.57C230.631 104.4 231.311 101.05 233.441 100.01C235.571 98.9701 237.551 100.74 237.661 103.17Z" fill="#FF8B7B"/>
<path d="M219.362 105C219.582 105.7 219.362 106.39 218.962 106.56C218.562 106.73 217.962 106.29 217.732 105.56C217.502 104.83 217.732 104.17 218.132 104C218.532 103.83 219.132 104.26 219.362 105Z" fill="#263238"/>
<path d="M211.612 107.8C211.832 108.49 211.612 109.19 211.212 109.35C210.812 109.51 210.212 109.09 209.982 108.35C209.752 107.61 209.982 106.96 210.382 106.8C210.782 106.64 211.382 107.1 211.612 107.8Z" fill="#263238"/>
<path d="M214.263 107.43C214.296 109.5 214.053 111.564 213.543 113.57C214.05 113.678 214.576 113.672 215.08 113.553C215.585 113.433 216.058 113.204 216.463 112.88L214.263 107.43Z" fill="#A02724"/>
<path d="M219.003 115.55C219.806 115.281 220.547 114.854 221.182 114.294C221.818 113.734 222.335 113.053 222.703 112.29C222.723 112.237 222.722 112.178 222.699 112.126C222.677 112.074 222.635 112.032 222.583 112.01C222.557 111.999 222.53 111.992 222.502 111.992C222.474 111.991 222.446 111.996 222.42 112.006C222.394 112.016 222.37 112.032 222.35 112.051C222.33 112.071 222.314 112.094 222.303 112.12C221.897 112.947 221.306 113.67 220.576 114.231C219.846 114.793 218.996 115.179 218.093 115.36C218.065 115.366 218.038 115.377 218.015 115.394C217.992 115.41 217.972 115.431 217.957 115.456C217.942 115.48 217.932 115.507 217.928 115.535C217.924 115.564 217.926 115.592 217.933 115.62C217.945 115.674 217.978 115.722 218.025 115.752C218.072 115.782 218.129 115.792 218.183 115.78C218.461 115.721 218.735 115.644 219.003 115.55Z" fill="#263238"/>
<path d="M221.081 100.9C221.142 100.863 221.194 100.812 221.231 100.75C221.262 100.704 221.284 100.651 221.295 100.596C221.306 100.541 221.306 100.485 221.295 100.43C221.284 100.375 221.262 100.323 221.23 100.276C221.198 100.23 221.158 100.19 221.111 100.16C220.548 99.7839 219.903 99.5508 219.23 99.4811C218.557 99.4114 217.878 99.5071 217.251 99.7601C217.199 99.7844 217.153 99.8185 217.115 99.8605C217.077 99.9026 217.048 99.9517 217.029 100.005C217.01 100.059 217.002 100.115 217.004 100.172C217.007 100.228 217.021 100.284 217.046 100.335C217.07 100.386 217.104 100.432 217.146 100.47C217.188 100.508 217.237 100.538 217.291 100.557C217.344 100.576 217.401 100.584 217.457 100.581C217.514 100.578 217.569 100.564 217.621 100.54C218.111 100.35 218.64 100.281 219.162 100.341C219.685 100.4 220.185 100.585 220.621 100.88C220.687 100.927 220.766 100.953 220.848 100.957C220.929 100.96 221.01 100.941 221.081 100.9Z" fill="#263238"/>
<path d="M210.072 103.59C210.092 103.521 210.092 103.449 210.072 103.38C210.028 103.276 209.945 103.193 209.84 103.15C209.735 103.107 209.617 103.107 209.512 103.15C208.883 103.395 208.323 103.791 207.883 104.304C207.444 104.817 207.138 105.43 206.992 106.09C206.99 106.194 207.025 106.295 207.091 106.375C207.157 106.455 207.249 106.508 207.351 106.525C207.454 106.542 207.559 106.522 207.647 106.467C207.735 106.413 207.801 106.329 207.832 106.23C207.957 105.716 208.204 105.239 208.552 104.84C208.9 104.441 209.339 104.133 209.832 103.94C209.899 103.907 209.956 103.858 209.999 103.797C210.041 103.735 210.066 103.664 210.072 103.59Z" fill="#263238"/>
<path d="M259.513 129.7C260.613 131.06 261.573 132.29 262.513 133.6C263.453 134.91 264.433 136.21 265.353 137.54C267.223 140.19 268.963 142.94 270.663 145.74C272.363 148.54 273.943 151.46 275.363 154.55C276.904 157.756 278.127 161.105 279.013 164.55C279.51 166.553 279.772 168.607 279.793 170.67C279.768 172.733 279.472 174.784 278.913 176.77C277.917 180.228 276.464 183.537 274.593 186.61C273.733 188.08 272.803 189.49 271.833 190.85C270.863 192.21 269.833 193.53 268.833 194.8C266.745 197.354 264.476 199.753 262.043 201.98C261.434 202.523 260.652 202.83 259.836 202.848C259.021 202.866 258.226 202.593 257.593 202.078C256.961 201.562 256.533 200.839 256.387 200.036C256.24 199.234 256.384 198.406 256.793 197.7L256.883 197.55C259.988 192.512 262.703 187.243 265.003 181.79C266.035 179.332 266.786 176.766 267.243 174.14C267.41 173.085 267.454 172.015 267.373 170.95C267.252 169.896 267.025 168.857 266.693 167.85C265.828 165.293 264.74 162.817 263.443 160.45C262.113 157.94 260.613 155.45 259.013 152.92C257.413 150.39 255.733 147.92 254.013 145.49L251.383 141.83C250.503 140.64 249.583 139.37 248.753 138.28L248.693 138.2C247.566 136.77 247.052 134.952 247.266 133.144C247.48 131.336 248.403 129.687 249.833 128.56C251.262 127.433 253.081 126.92 254.889 127.133C256.697 127.347 258.346 128.27 259.473 129.7H259.513Z" fill="#4381CA"/>
<path d="M164.231 203.47L249.311 199.62C249.58 199.602 249.849 199.639 250.103 199.728C250.356 199.817 250.59 199.956 250.789 200.137C250.987 200.318 251.148 200.538 251.26 200.782C251.372 201.027 251.434 201.291 251.441 201.56L162.291 205.56C162.279 205.295 162.32 205.03 162.411 204.781C162.503 204.532 162.643 204.303 162.823 204.109C163.004 203.914 163.221 203.757 163.463 203.648C163.705 203.538 163.966 203.478 164.231 203.47Z" fill="#4381CA"/>
<g opacity="0.6">
<path d="M164.231 203.47L249.311 199.62C249.58 199.602 249.849 199.639 250.103 199.728C250.356 199.817 250.59 199.956 250.789 200.137C250.987 200.318 251.148 200.538 251.26 200.782C251.372 201.027 251.434 201.291 251.441 201.56L162.291 205.56C162.279 205.295 162.32 205.03 162.411 204.781C162.503 204.532 162.643 204.303 162.823 204.109C163.004 203.914 163.221 203.757 163.463 203.648C163.705 203.538 163.966 203.478 164.231 203.47Z" fill="white"/>
</g>
<path d="M150.69 164L211.22 161.26C211.609 161.265 211.986 161.39 212.301 161.617C212.616 161.844 212.853 162.163 212.98 162.53L224.6 199.4C224.663 199.552 224.687 199.718 224.67 199.881C224.653 200.045 224.597 200.202 224.505 200.339C224.413 200.475 224.288 200.587 224.143 200.664C223.997 200.741 223.835 200.781 223.67 200.78L163.14 203.52C162.754 203.516 162.379 203.393 162.065 203.168C161.752 202.942 161.516 202.625 161.39 202.26L149.77 165.38C149.708 165.229 149.684 165.064 149.7 164.901C149.716 164.738 149.772 164.582 149.863 164.445C149.954 164.309 150.077 164.197 150.221 164.12C150.365 164.042 150.527 164.001 150.69 164Z" fill="#4381CA"/>
<path opacity="0.6" d="M150.69 164L211.22 161.26C211.609 161.265 211.986 161.39 212.301 161.617C212.616 161.844 212.853 162.163 212.98 162.53L224.6 199.4C224.663 199.552 224.687 199.718 224.67 199.881C224.653 200.045 224.597 200.202 224.505 200.339C224.413 200.475 224.288 200.587 224.143 200.664C223.997 200.741 223.835 200.781 223.67 200.78L163.14 203.52C162.754 203.516 162.379 203.393 162.065 203.168C161.752 202.942 161.516 202.625 161.39 202.26L149.77 165.38C149.708 165.229 149.684 165.064 149.7 164.901C149.716 164.738 149.772 164.582 149.863 164.445C149.954 164.309 150.077 164.197 150.221 164.12C150.365 164.042 150.527 164.001 150.69 164Z" fill="white"/>
<path opacity="0.5" d="M213.002 162.52L224.622 199.39C224.687 199.543 224.713 199.709 224.697 199.874C224.681 200.04 224.625 200.198 224.533 200.336C224.44 200.474 224.315 200.587 224.168 200.664C224.022 200.742 223.858 200.782 223.692 200.78L211.242 161.25C211.63 161.255 212.008 161.38 212.323 161.607C212.638 161.834 212.875 162.153 213.002 162.52Z" fill="#4381CA"/>
<path opacity="0.5" d="M226.94 200.63L249.31 199.63C249.579 199.612 249.848 199.649 250.102 199.738C250.356 199.827 250.589 199.966 250.788 200.147C250.987 200.328 251.147 200.548 251.259 200.792C251.371 201.037 251.433 201.301 251.44 201.57L225 202.76C224.983 202.492 225.02 202.222 225.108 201.969C225.197 201.715 225.336 201.481 225.517 201.283C225.699 201.084 225.918 200.923 226.162 200.811C226.407 200.699 226.672 200.638 226.94 200.63Z" fill="#4381CA"/>
<path d="M255.2 197.28L249.48 198.11L255.34 206.26C255.34 206.26 264.65 204.77 263.57 200.64L261.57 198.98C260.687 198.267 259.663 197.747 258.566 197.454C257.469 197.162 256.322 197.102 255.2 197.28Z" fill="#FF8B7B"/>
<path d="M242.48 200.55L249.65 206.8L255.34 206.26L249.48 198.11L242.48 200.55Z" fill="#FF8B7B"/>
</svg>
